# https://github.com/mikedh/trimesh
v 0.10494563 0.03450000 -0.07095483
v 0.10494563 0.03050000 -0.07095483
v 0.10554030 0.03450000 -0.07180227
v 0.10554030 0.03050000 -0.07180227
v 0.10647903 0.03450000 -0.07223884
v 0.10647903 0.03050000 -0.07223884
v 0.10751027 0.03450000 -0.07214756
v 0.10751027 0.03050000 -0.07214756
v 0.10835771 0.03450000 -0.07155288
v 0.10835771 0.03050000 -0.07155288
v 0.10879428 0.03450000 -0.07061416
v 0.10879428 0.03050000 -0.07061416
v 0.10870300 0.03450000 -0.06958291
v 0.10870300 0.03050000 -0.06958291
v 0.10810832 0.03450000 -0.06873547
v 0.10810832 0.03050000 -0.06873547
v 0.10716959 0.03450000 -0.06829890
v 0.10716959 0.03050000 -0.06829890
v 0.10613835 0.03450000 -0.06839019
v 0.10613835 0.03050000 -0.06839019
v 0.10529091 0.03450000 -0.06898487
v 0.10529091 0.03050000 -0.06898487
v 0.10485434 0.03450000 -0.06992359
v 0.10485434 0.03050000 -0.06992359
v 0.04385375 0.03450000 -0.05999324
v 0.04385375 0.03050000 -0.05999324
v 0.04429976 0.03450000 -0.06062882
v 0.04429976 0.03050000 -0.06062882
v 0.04500380 0.03450000 -0.06095625
v 0.04500380 0.03050000 -0.06095625
v 0.04577724 0.03450000 -0.06088779
v 0.04577724 0.03050000 -0.06088779
v 0.04641282 0.03450000 -0.06044178
v 0.04641282 0.03050000 -0.06044178
v 0.04674024 0.03450000 -0.05973773
v 0.04674024 0.03050000 -0.05973773
v 0.04667178 0.03450000 -0.05896430
v 0.04667178 0.03050000 -0.05896430
v 0.04622577 0.03450000 -0.05832872
v 0.04622577 0.03050000 -0.05832872
v 0.04552173 0.03450000 -0.05800129
v 0.04552173 0.03050000 -0.05800129
v 0.04474830 0.03450000 -0.05806976
v 0.04474830 0.03050000 -0.05806976
v 0.04411272 0.03450000 -0.05851576
v 0.04411272 0.03050000 -0.05851576
v 0.04378529 0.03450000 -0.05921981
v 0.04378529 0.03050000 -0.05921981
v 0.04985591 0.03450000 -0.07643174
v 0.04985591 0.03050000 -0.07643174
v 0.05030192 0.03450000 -0.07706732
v 0.05030192 0.03050000 -0.07706732
v 0.05100596 0.03450000 -0.07739474
v 0.05100596 0.03050000 -0.07739474
v 0.05177939 0.03450000 -0.07732628
v 0.05177939 0.03050000 -0.07732628
v 0.05241497 0.03450000 -0.07688027
v 0.05241497 0.03050000 -0.07688027
v 0.05274240 0.03450000 -0.07617623
v 0.05274240 0.03050000 -0.07617623
v 0.05267394 0.03450000 -0.07540280
v 0.05267394 0.03050000 -0.07540280
v 0.05222793 0.03450000 -0.07476722
v 0.05222793 0.03050000 -0.07476722
v 0.05152389 0.03450000 -0.07443979
v 0.05152389 0.03050000 -0.07443979
v 0.05075045 0.03450000 -0.07450825
v 0.05075045 0.03050000 -0.07450825
v 0.05011487 0.03450000 -0.07495426
v 0.05011487 0.03050000 -0.07495426
v 0.04978745 0.03450000 -0.07565830
v 0.04978745 0.03050000 -0.07565830
v 0.08951151 0.03450000 -0.02868442
v 0.08951151 0.03050000 -0.02868442
v 0.09010619 0.03450000 -0.02953186
v 0.09010619 0.03050000 -0.02953186
v 0.09104491 0.03450000 -0.02996843
v 0.09104491 0.03050000 -0.02996843
v 0.09207616 0.03450000 -0.02987714
v 0.09207616 0.03050000 -0.02987714
v 0.09292360 0.03450000 -0.02928247
v 0.09292360 0.03050000 -0.02928247
v 0.09336017 0.03450000 -0.02834374
v 0.09336017 0.03050000 -0.02834374
v 0.09326888 0.03450000 -0.02731250
v 0.09326888 0.03050000 -0.02731250
v 0.09267421 0.03450000 -0.02646506
v 0.09267421 0.03050000 -0.02646506
v 0.09173548 0.03450000 -0.02602849
v 0.09173548 0.03050000 -0.02602849
v 0.09070424 0.03450000 -0.02611977
v 0.09070424 0.03050000 -0.02611977
v 0.08985680 0.03450000 -0.02671445
v 0.08985680 0.03050000 -0.02671445
v 0.08942023 0.03450000 -0.02765317
v 0.08942023 0.03050000 -0.02765317
v 0.04518720 0.03450000 -0.02091554
v 0.04518720 0.03050000 -0.02091554
v 0.04578188 0.03450000 -0.02176299
v 0.04578188 0.03050000 -0.02176299
v 0.04672060 0.03450000 -0.02219955
v 0.04672060 0.03050000 -0.02219955
v 0.04775185 0.03450000 -0.02210827
v 0.04775185 0.03050000 -0.02210827
v 0.04859929 0.03450000 -0.02151359
v 0.04859929 0.03050000 -0.02151359
v 0.04903586 0.03450000 -0.02057487
v 0.04903586 0.03050000 -0.02057487
v 0.04894457 0.03450000 -0.01954362
v 0.04894457 0.03050000 -0.01954362
v 0.04834989 0.03450000 -0.01869618
v 0.04834989 0.03050000 -0.01869618
v 0.04741117 0.03450000 -0.01825962
v 0.04741117 0.03050000 -0.01825962
v 0.04637993 0.03450000 -0.01835090
v 0.04637993 0.03050000 -0.01835090
v 0.04553248 0.03450000 -0.01894558
v 0.04553248 0.03050000 -0.01894558
v 0.04509592 0.03450000 -0.01988430
v 0.04509592 0.03050000 -0.01988430
v 0.01629700 0.03450000 -0.05541709
v 0.01629700 0.03050000 -0.05541709
v 0.01689168 0.03450000 -0.05626453
v 0.01689168 0.03050000 -0.05626453
v 0.01783041 0.03450000 -0.05670110
v 0.01783041 0.03050000 -0.05670110
v 0.01886165 0.03450000 -0.05660981
v 0.01886165 0.03050000 -0.05660981
v 0.01970909 0.03450000 -0.05601513
v 0.01970909 0.03050000 -0.05601513
v 0.02014566 0.03450000 -0.05507641
v 0.02014566 0.03050000 -0.05507641
v 0.02005437 0.03450000 -0.05404517
v 0.02005437 0.03050000 -0.05404517
v 0.01945970 0.03450000 -0.05319773
v 0.01945970 0.03050000 -0.05319773
v 0.01852097 0.03450000 -0.05276116
v 0.01852097 0.03050000 -0.05276116
v 0.01748973 0.03450000 -0.05285244
v 0.01748973 0.03050000 -0.05285244
v 0.01664229 0.03450000 -0.05344712
v 0.01664229 0.03050000 -0.05344712
v 0.01620572 0.03450000 -0.05438584
v 0.01620572 0.03050000 -0.05438584
v 0.03098531 0.03050000 -0.01971361
v 0.02091339 0.03050000 -0.02678139
v 0.02573754 0.03050000 -0.03999362
v 0.01689168 0.03050000 -0.05626453
v 0.01629700 0.03050000 -0.05541709
v 0.00903329 0.03050000 -0.06099685
v 0.01774927 0.03050000 -0.09121542
v 0.04130028 0.03050000 -0.08261629
v 0.03731313 0.03050000 -0.07169643
v 0.07246711 0.03050000 -0.07084606
v 0.07130745 0.03050000 -0.07165983
v 0.07900644 0.03050000 -0.06884871
v 0.05415394 0.03050000 -0.07246711
v 0.05028855 0.03050000 -0.06695874
v 0.04998070 0.03050000 -0.06707115
v 0.05253289 0.03050000 -0.05415394
v 0.05655823 0.03050000 -0.05132923
v 0.05588294 0.03050000 -0.04947975
v 0.03248871 0.03050000 -0.01916467
v 0.04510203 0.03050000 -0.01995338
v 0.04336416 0.03050000 -0.01519374
v 0.04509592 0.03050000 -0.01988430
v 0.04553248 0.03050000 -0.01894558
v 0.04637993 0.03050000 -0.01835090
v 0.04665185 0.03050000 -0.01399331
v 0.04741117 0.03050000 -0.01825962
v 0.04902974 0.03050000 -0.02050579
v 0.06344371 0.03050000 -0.02622604
v 0.04894457 0.03050000 -0.01954362
v 0.05752730 0.03050000 -0.01002238
v 0.04838973 0.03050000 -0.01875295
v 0.04834989 0.03050000 -0.01869618
v 0.04859929 0.03050000 -0.02151359
v 0.04775185 0.03050000 -0.02210827
v 0.04928056 0.03050000 -0.03139740
v 0.05256826 0.03050000 -0.03019697
v 0.04903586 0.03050000 -0.02057487
v 0.04672060 0.03050000 -0.02219955
v 0.04578188 0.03050000 -0.02176299
v 0.04574204 0.03050000 -0.02170622
v 0.09265838 0.03050000 -0.10623816
v 0.07981280 0.03050000 -0.10408446
v 0.07989797 0.03050000 -0.10504662
v 0.07571944 0.03050000 -0.09360260
v 0.07724815 0.03050000 -0.10289173
v 0.07827940 0.03050000 -0.10280045
v 0.07640071 0.03050000 -0.10348641
v 0.07243174 0.03050000 -0.09480303
v 0.07596414 0.03050000 -0.10442513
v 0.07921812 0.03050000 -0.10323701
v 0.07925796 0.03050000 -0.10329378
v 0.08659488 0.03050000 -0.08963167
v 0.07605543 0.03050000 -0.10545638
v 0.06761978 0.03050000 -0.11538045
v 0.07661027 0.03050000 -0.10624705
v 0.07955924 0.03050000 -0.11432359
v 0.07665011 0.03050000 -0.10630382
v 0.07597026 0.03050000 -0.10449421
v 0.06155629 0.03050000 -0.09877396
v 0.08284694 0.03050000 -0.11312316
v 0.07990408 0.03050000 -0.10511570
v 0.08136392 0.03050000 -0.11416384
v 0.07946752 0.03050000 -0.10605442
v 0.07862007 0.03050000 -0.10664910
v 0.07758883 0.03050000 -0.10674038
v 0.07004608 0.03050000 -0.04430839
v 0.05917064 0.03050000 -0.04827932
v 0.05984593 0.03050000 -0.05012880
v 0.05804126 0.03050000 -0.05028855
v 0.04500749 0.03050000 -0.05345068
v 0.04969520 0.03050000 -0.06025566
v 0.05396785 0.03050000 -0.07799100
v 0.06166684 0.03050000 -0.07517989
v 0.06025566 0.03050000 -0.07530480
v 0.06911706 0.03050000 -0.07552025
v 0.06844177 0.03050000 -0.07367077
v 0.06582936 0.03050000 -0.07672068
v 0.06695874 0.03050000 -0.07471145
v 0.06474434 0.03050000 -0.04969520
v 0.07084606 0.03050000 -0.05253289
v 0.07501930 0.03050000 -0.05792885
v 0.07471145 0.03050000 -0.05804126
v 0.07530480 0.03050000 -0.06474434
v 0.09167402 0.03050000 -0.06422343
v 0.11522502 0.03050000 -0.05562429
v 0.11416384 0.03050000 -0.04363608
v 0.10554030 0.03050000 -0.07180227
v 0.10494563 0.03050000 -0.07095483
v 0.09446073 0.03050000 -0.07185559
v 0.10485434 0.03050000 -0.06992359
v 0.10529091 0.03050000 -0.06898487
v 0.10613835 0.03050000 -0.06839019
v 0.11596671 0.03050000 -0.06400315
v 0.10716959 0.03050000 -0.06829890
v 0.10751027 0.03050000 -0.07214756
v 0.10647903 0.03050000 -0.07223884
v 0.09926246 0.03050000 -0.08500638
v 0.10810832 0.03050000 -0.06873547
v 0.10870300 0.03050000 -0.06958291
v 0.11667416 0.03050000 -0.07199529
v 0.10879428 0.03050000 -0.07061416
v 0.11294689 0.03050000 -0.08000981
v 0.10835771 0.03050000 -0.07155288
v 0.10408661 0.03050000 -0.09821861
v 0.10466855 0.03050000 -0.09781024
v 0.04888872 0.03050000 -0.10339925
v 0.05371287 0.03050000 -0.11661147
v 0.03163983 0.03050000 -0.09665626
v 0.03207640 0.03050000 -0.09571753
v 0.02258101 0.03050000 -0.09810088
v 0.03292384 0.03050000 -0.09512286
v 0.04408699 0.03050000 -0.09024845
v 0.03395509 0.03050000 -0.09503157
v 0.03489381 0.03050000 -0.09546814
v 0.03548849 0.03050000 -0.09631558
v 0.03557977 0.03050000 -0.09734683
v 0.03514320 0.03050000 -0.09828555
v 0.03520428 0.03050000 -0.10839582
v 0.05300471 0.03050000 -0.11667416
v 0.03429576 0.03050000 -0.09888023
v 0.03326452 0.03050000 -0.09897151
v 0.02718976 0.03050000 -0.10466855
v 0.03232579 0.03050000 -0.09853494
v 0.03173112 0.03050000 -0.09768750
v 0.01083616 0.03050000 -0.08136392
v 0.03233992 0.03050000 -0.05807596
v 0.00951254 0.03050000 -0.06641088
v 0.03053927 0.03050000 -0.05314441
v 0.00832584 0.03050000 -0.05300471
v 0.01620572 0.03050000 -0.05438584
v 0.01205311 0.03050000 -0.04499019
v 0.01664229 0.03050000 -0.05344712
v 0.01748973 0.03050000 -0.05285244
v 0.01852097 0.03050000 -0.05276116
v 0.01945970 0.03050000 -0.05319773
v 0.02005437 0.03050000 -0.05404517
v 0.02014566 0.03050000 -0.05507641
v 0.01970909 0.03050000 -0.05601513
v 0.01886165 0.03050000 -0.05660981
v 0.01783041 0.03050000 -0.05670110
v 0.02033145 0.03050000 -0.02718976
v 0.03840512 0.03050000 -0.03536833
v 0.03234162 0.03050000 -0.01876184
v 0.04363608 0.03050000 -0.01083616
v 0.04544076 0.03050000 -0.01067641
v 0.05738022 0.03050000 -0.00961955
v 0.08979572 0.03050000 -0.01660418
v 0.07199529 0.03050000 -0.00832584
v 0.07128713 0.03050000 -0.00838853
v 0.08985680 0.03050000 -0.02671445
v 0.07611128 0.03050000 -0.02160075
v 0.05903070 0.03050000 -0.00947345
v 0.09326888 0.03050000 -0.02731250
v 0.10241899 0.03050000 -0.02689912
v 0.09267421 0.03050000 -0.02646506
v 0.09781024 0.03050000 -0.02033145
v 0.09173548 0.03050000 -0.02602849
v 0.09070424 0.03050000 -0.02611977
v 0.09336017 0.03050000 -0.02834374
v 0.09292360 0.03050000 -0.02928247
v 0.09207616 0.03050000 -0.02987714
v 0.09104491 0.03050000 -0.02996843
v 0.09010619 0.03050000 -0.02953186
v 0.08091301 0.03050000 -0.03475155
v 0.08951151 0.03050000 -0.02868442
v 0.08942023 0.03050000 -0.02765317
v 0.08768687 0.03050000 -0.05330357
v 0.10554104 0.03050000 -0.03134818
v 0.08271366 0.03050000 -0.03968310
v 0.05736999 0.03050000 -0.04334777
v 0.06824544 0.03050000 -0.03937684
v 0.05534779 0.03050000 -0.04509850
v 0.05598337 0.03050000 -0.04465249
v 0.05408229 0.03050000 -0.04454820
v 0.05623888 0.03050000 -0.04753898
v 0.05553484 0.03050000 -0.04721156
v 0.05508883 0.03050000 -0.04657597
v 0.05502037 0.03050000 -0.04580254
v 0.05675681 0.03050000 -0.04458403
v 0.05746085 0.03050000 -0.04491145
v 0.05790686 0.03050000 -0.04554703
v 0.05797532 0.03050000 -0.04632047
v 0.05764790 0.03050000 -0.04702451
v 0.05701231 0.03050000 -0.04747052
v 0.04320684 0.03050000 -0.04851913
v 0.04518720 0.03050000 -0.02091554
v 0.07488513 0.03050000 -0.05004574
v 0.07424955 0.03050000 -0.05049175
v 0.07347611 0.03050000 -0.05056021
v 0.07258503 0.03050000 -0.04811973
v 0.07322061 0.03050000 -0.04767372
v 0.07399404 0.03050000 -0.04760526
v 0.07277207 0.03050000 -0.05023278
v 0.07232606 0.03050000 -0.04959720
v 0.07225760 0.03050000 -0.04882377
v 0.07521255 0.03050000 -0.04934170
v 0.07514409 0.03050000 -0.04856826
v 0.07469808 0.03050000 -0.04793268
v 0.04474830 0.03050000 -0.05806976
v 0.04552173 0.03050000 -0.05800129
v 0.04411272 0.03050000 -0.05851576
v 0.04378529 0.03050000 -0.05921981
v 0.04385375 0.03050000 -0.05999324
v 0.04641282 0.03050000 -0.06044178
v 0.04577724 0.03050000 -0.06088779
v 0.04622577 0.03050000 -0.05832872
v 0.04667178 0.03050000 -0.05896430
v 0.04674024 0.03050000 -0.05973773
v 0.04429976 0.03050000 -0.06062882
v 0.04500380 0.03050000 -0.06095625
v 0.08025170 0.03050000 -0.06693024
v 0.07947827 0.03050000 -0.06699871
v 0.08088728 0.03050000 -0.06648424
v 0.08121471 0.03050000 -0.06578019
v 0.07877423 0.03050000 -0.06667128
v 0.07832822 0.03050000 -0.06603570
v 0.07825976 0.03050000 -0.06526227
v 0.07858718 0.03050000 -0.06455822
v 0.07922276 0.03050000 -0.06411221
v 0.07999620 0.03050000 -0.06404375
v 0.08070024 0.03050000 -0.06437118
v 0.08114625 0.03050000 -0.06500676
v 0.05011487 0.03050000 -0.07495426
v 0.05267394 0.03050000 -0.07540280
v 0.05274240 0.03050000 -0.07617623
v 0.05075045 0.03050000 -0.07450825
v 0.05152389 0.03050000 -0.07443979
v 0.05222793 0.03050000 -0.07476722
v 0.05241497 0.03050000 -0.07688027
v 0.05177939 0.03050000 -0.07732628
v 0.05100596 0.03050000 -0.07739474
v 0.05030192 0.03050000 -0.07706732
v 0.04985591 0.03050000 -0.07643174
v 0.04978745 0.03050000 -0.07565830
v 0.11548746 0.03050000 -0.05858912
v 0.09266008 0.03050000 -0.06692404
v 0.07999251 0.03050000 -0.07154932
v 0.01945896 0.03050000 -0.09365182
v 0.04228634 0.03050000 -0.08531690
v 0.05495392 0.03050000 -0.08069161
v 0.06515407 0.03050000 -0.07487120
v 0.06991117 0.03050000 -0.07842403
v 0.06997963 0.03050000 -0.07919746
v 0.07091771 0.03050000 -0.08045180
v 0.06876112 0.03050000 -0.07746102
v 0.06946516 0.03050000 -0.07778844
v 0.06965221 0.03050000 -0.07990150
v 0.06901663 0.03050000 -0.08034751
v 0.06763001 0.03050000 -0.08165223
v 0.06824319 0.03050000 -0.08041597
v 0.06753915 0.03050000 -0.08008855
v 0.06709314 0.03050000 -0.07945297
v 0.06702468 0.03050000 -0.07867953
v 0.06735210 0.03050000 -0.07797549
v 0.06798769 0.03050000 -0.07752948
v 0.08179316 0.03050000 -0.07648087
v 0.05675456 0.03050000 -0.08562316
v 0.09167402 0.03450000 -0.06422343
v 0.09266008 0.03450000 -0.06692404
v 0.07999251 0.03450000 -0.07154932
v 0.01083616 0.03450000 -0.08136392
v 0.03731313 0.03450000 -0.07169643
v 0.04130028 0.03450000 -0.08261629
v 0.05903070 0.03450000 -0.00947345
v 0.07128713 0.03450000 -0.00838853
v 0.07611128 0.03450000 -0.02160075
v 0.09336017 0.03450000 -0.02834374
v 0.09326888 0.03450000 -0.02731250
v 0.10241899 0.03450000 -0.02689912
v 0.04969520 0.03450000 -0.06025566
v 0.05028855 0.03450000 -0.06695874
v 0.04998070 0.03450000 -0.06707115
v 0.04903586 0.03450000 -0.02057487
v 0.04902974 0.03450000 -0.02050579
v 0.05256826 0.03450000 -0.03019697
v 0.04665185 0.03450000 -0.01399331
v 0.05752730 0.03450000 -0.01002238
v 0.04838973 0.03450000 -0.01875295
v 0.04894457 0.03450000 -0.01954362
v 0.06344371 0.03450000 -0.02622604
v 0.04578188 0.03450000 -0.02176299
v 0.04672060 0.03450000 -0.02219955
v 0.04928056 0.03450000 -0.03139740
v 0.04775185 0.03450000 -0.02210827
v 0.04859929 0.03450000 -0.02151359
v 0.04574204 0.03450000 -0.02170622
v 0.03840512 0.03450000 -0.03536833
v 0.04518720 0.03450000 -0.02091554
v 0.04834989 0.03450000 -0.01869618
v 0.04741117 0.03450000 -0.01825962
v 0.04336416 0.03450000 -0.01519374
v 0.04637993 0.03450000 -0.01835090
v 0.04553248 0.03450000 -0.01894558
v 0.04509592 0.03450000 -0.01988430
v 0.04510203 0.03450000 -0.01995338
v 0.03248871 0.03450000 -0.01916467
v 0.07981280 0.03450000 -0.10408446
v 0.09265838 0.03450000 -0.10623816
v 0.07989797 0.03450000 -0.10504662
v 0.08284694 0.03450000 -0.11312316
v 0.07990408 0.03450000 -0.10511570
v 0.07925796 0.03450000 -0.10329378
v 0.08659488 0.03450000 -0.08963167
v 0.06761978 0.03450000 -0.11538045
v 0.07661027 0.03450000 -0.10624705
v 0.07955924 0.03450000 -0.11432359
v 0.07665011 0.03450000 -0.10630382
v 0.08136392 0.03450000 -0.11416384
v 0.07758883 0.03450000 -0.10674038
v 0.07862007 0.03450000 -0.10664910
v 0.07946752 0.03450000 -0.10605442
v 0.06155629 0.03450000 -0.09877396
v 0.07597026 0.03450000 -0.10449421
v 0.07605543 0.03450000 -0.10545638
v 0.07571944 0.03450000 -0.09360260
v 0.07921812 0.03450000 -0.10323701
v 0.07827940 0.03450000 -0.10280045
v 0.07724815 0.03450000 -0.10289173
v 0.07640071 0.03450000 -0.10348641
v 0.07243174 0.03450000 -0.09480303
v 0.07596414 0.03450000 -0.10442513
v 0.06695874 0.03450000 -0.07471145
v 0.06911706 0.03450000 -0.07552025
v 0.06515407 0.03450000 -0.07487120
v 0.06582936 0.03450000 -0.07672068
v 0.06166684 0.03450000 -0.07517989
v 0.05396785 0.03450000 -0.07799100
v 0.06025566 0.03450000 -0.07530480
v 0.05415394 0.03450000 -0.07246711
v 0.05253289 0.03450000 -0.05415394
v 0.04500749 0.03450000 -0.05345068
v 0.05655823 0.03450000 -0.05132923
v 0.05588294 0.03450000 -0.04947975
v 0.05804126 0.03450000 -0.05028855
v 0.05917064 0.03450000 -0.04827932
v 0.07130745 0.03450000 -0.07165983
v 0.07246711 0.03450000 -0.07084606
v 0.07900644 0.03450000 -0.06884871
v 0.07530480 0.03450000 -0.06474434
v 0.07501930 0.03450000 -0.05792885
v 0.07471145 0.03450000 -0.05804126
v 0.07004608 0.03450000 -0.04430839
v 0.07084606 0.03450000 -0.05253289
v 0.06474434 0.03450000 -0.04969520
v 0.05984593 0.03450000 -0.05012880
v 0.08271366 0.03450000 -0.03968310
v 0.10554104 0.03450000 -0.03134818
v 0.11416384 0.03450000 -0.04363608
v 0.08091301 0.03450000 -0.03475155
v 0.09781024 0.03450000 -0.02033145
v 0.09267421 0.03450000 -0.02646506
v 0.08979572 0.03450000 -0.01660418
v 0.09173548 0.03450000 -0.02602849
v 0.09070424 0.03450000 -0.02611977
v 0.08985680 0.03450000 -0.02671445
v 0.08942023 0.03450000 -0.02765317
v 0.08951151 0.03450000 -0.02868442
v 0.09010619 0.03450000 -0.02953186
v 0.09104491 0.03450000 -0.02996843
v 0.09207616 0.03450000 -0.02987714
v 0.09292360 0.03450000 -0.02928247
v 0.07199529 0.03450000 -0.00832584
v 0.03098531 0.03450000 -0.01971361
v 0.03234162 0.03450000 -0.01876184
v 0.04363608 0.03450000 -0.01083616
v 0.04544076 0.03450000 -0.01067641
v 0.05738022 0.03450000 -0.00961955
v 0.02573754 0.03450000 -0.03999362
v 0.02091339 0.03450000 -0.02678139
v 0.02005437 0.03450000 -0.05404517
v 0.01945970 0.03450000 -0.05319773
v 0.01852097 0.03450000 -0.05276116
v 0.01205311 0.03450000 -0.04499019
v 0.02033145 0.03450000 -0.02718976
v 0.01748973 0.03450000 -0.05285244
v 0.01664229 0.03450000 -0.05344712
v 0.00832584 0.03450000 -0.05300471
v 0.01620572 0.03450000 -0.05438584
v 0.00903329 0.03450000 -0.06099685
v 0.01629700 0.03450000 -0.05541709
v 0.01689168 0.03450000 -0.05626453
v 0.01783041 0.03450000 -0.05670110
v 0.01886165 0.03450000 -0.05660981
v 0.01970909 0.03450000 -0.05601513
v 0.03053927 0.03450000 -0.05314441
v 0.02014566 0.03450000 -0.05507641
v 0.03233992 0.03450000 -0.05807596
v 0.00951254 0.03450000 -0.06641088
v 0.01774927 0.03450000 -0.09121542
v 0.04228634 0.03450000 -0.08531690
v 0.01945896 0.03450000 -0.09365182
v 0.04408699 0.03450000 -0.09024845
v 0.02258101 0.03450000 -0.09810088
v 0.03489381 0.03450000 -0.09546814
v 0.03395509 0.03450000 -0.09503157
v 0.03292384 0.03450000 -0.09512286
v 0.03207640 0.03450000 -0.09571753
v 0.03163983 0.03450000 -0.09665626
v 0.03173112 0.03450000 -0.09768750
v 0.02718976 0.03450000 -0.10466855
v 0.03232579 0.03450000 -0.09853494
v 0.03520428 0.03450000 -0.10839582
v 0.03326452 0.03450000 -0.09897151
v 0.03429576 0.03450000 -0.09888023
v 0.03514320 0.03450000 -0.09828555
v 0.04888872 0.03450000 -0.10339925
v 0.03557977 0.03450000 -0.09734683
v 0.03548849 0.03450000 -0.09631558
v 0.05371287 0.03450000 -0.11661147
v 0.05300471 0.03450000 -0.11667416
v 0.09926246 0.03450000 -0.08500638
v 0.10408661 0.03450000 -0.09821861
v 0.11596671 0.03450000 -0.06400315
v 0.10810832 0.03450000 -0.06873547
v 0.10716959 0.03450000 -0.06829890
v 0.10613835 0.03450000 -0.06839019
v 0.10529091 0.03450000 -0.06898487
v 0.09446073 0.03450000 -0.07185559
v 0.10485434 0.03450000 -0.06992359
v 0.10494563 0.03450000 -0.07095483
v 0.10554030 0.03450000 -0.07180227
v 0.10647903 0.03450000 -0.07223884
v 0.11294689 0.03450000 -0.08000981
v 0.10466855 0.03450000 -0.09781024
v 0.10751027 0.03450000 -0.07214756
v 0.10835771 0.03450000 -0.07155288
v 0.11667416 0.03450000 -0.07199529
v 0.10879428 0.03450000 -0.07061416
v 0.10870300 0.03450000 -0.06958291
v 0.11548746 0.03450000 -0.05858912
v 0.11522502 0.03450000 -0.05562429
v 0.08768687 0.03450000 -0.05330357
v 0.08179316 0.03450000 -0.07648087
v 0.07091771 0.03450000 -0.08045180
v 0.06991117 0.03450000 -0.07842403
v 0.06946516 0.03450000 -0.07778844
v 0.06901663 0.03450000 -0.08034751
v 0.06965221 0.03450000 -0.07990150
v 0.06997963 0.03450000 -0.07919746
v 0.06876112 0.03450000 -0.07746102
v 0.06798769 0.03450000 -0.07752948
v 0.06735210 0.03450000 -0.07797549
v 0.06702468 0.03450000 -0.07867953
v 0.06709314 0.03450000 -0.07945297
v 0.06763001 0.03450000 -0.08165223
v 0.06753915 0.03450000 -0.08008855
v 0.06824319 0.03450000 -0.08041597
v 0.05675456 0.03450000 -0.08562316
v 0.05495392 0.03450000 -0.08069161
v 0.07947827 0.03450000 -0.06699871
v 0.08025170 0.03450000 -0.06693024
v 0.07999620 0.03450000 -0.06404375
v 0.07922276 0.03450000 -0.06411221
v 0.07858718 0.03450000 -0.06455822
v 0.07825976 0.03450000 -0.06526227
v 0.07832822 0.03450000 -0.06603570
v 0.07877423 0.03450000 -0.06667128
v 0.06844177 0.03450000 -0.07367077
v 0.08088728 0.03450000 -0.06648424
v 0.08121471 0.03450000 -0.06578019
v 0.08114625 0.03450000 -0.06500676
v 0.08070024 0.03450000 -0.06437118
v 0.05100596 0.03450000 -0.07739474
v 0.05177939 0.03450000 -0.07732628
v 0.05241497 0.03450000 -0.07688027
v 0.05222793 0.03450000 -0.07476722
v 0.05267394 0.03450000 -0.07540280
v 0.05274240 0.03450000 -0.07617623
v 0.05152389 0.03450000 -0.07443979
v 0.05075045 0.03450000 -0.07450825
v 0.05011487 0.03450000 -0.07495426
v 0.04978745 0.03450000 -0.07565830
v 0.04985591 0.03450000 -0.07643174
v 0.05030192 0.03450000 -0.07706732
v 0.07521255 0.03450000 -0.04934170
v 0.07514409 0.03450000 -0.04856826
v 0.07469808 0.03450000 -0.04793268
v 0.07399404 0.03450000 -0.04760526
v 0.07322061 0.03450000 -0.04767372
v 0.07258503 0.03450000 -0.04811973
v 0.07277207 0.03450000 -0.05023278
v 0.07232606 0.03450000 -0.04959720
v 0.07225760 0.03450000 -0.04882377
v 0.07347611 0.03450000 -0.05056021
v 0.07424955 0.03450000 -0.05049175
v 0.07488513 0.03450000 -0.05004574
v 0.04641282 0.03450000 -0.06044178
v 0.04674024 0.03450000 -0.05973773
v 0.04667178 0.03450000 -0.05896430
v 0.04622577 0.03450000 -0.05832872
v 0.04378529 0.03450000 -0.05921981
v 0.04385375 0.03450000 -0.05999324
v 0.04552173 0.03450000 -0.05800129
v 0.04474830 0.03450000 -0.05806976
v 0.04411272 0.03450000 -0.05851576
v 0.04429976 0.03450000 -0.06062882
v 0.04500380 0.03450000 -0.06095625
v 0.04577724 0.03450000 -0.06088779
v 0.06824544 0.03450000 -0.03937684
v 0.05736999 0.03450000 -0.04334777
v 0.05746085 0.03450000 -0.04491145
v 0.05675681 0.03450000 -0.04458403
v 0.05598337 0.03450000 -0.04465249
v 0.05408229 0.03450000 -0.04454820
v 0.05534779 0.03450000 -0.04509850
v 0.05502037 0.03450000 -0.04580254
v 0.05508883 0.03450000 -0.04657597
v 0.05790686 0.03450000 -0.04554703
v 0.05797532 0.03450000 -0.04632047
v 0.05553484 0.03450000 -0.04721156
v 0.05623888 0.03450000 -0.04753898
v 0.05701231 0.03450000 -0.04747052
v 0.05764790 0.03450000 -0.04702451
v 0.04320684 0.03450000 -0.04851913
v 0.03173112 0.03450000 -0.09768750
v 0.03173112 0.03050000 -0.09768750
v 0.03232579 0.03450000 -0.09853494
v 0.03232579 0.03050000 -0.09853494
v 0.03326452 0.03450000 -0.09897151
v 0.03326452 0.03050000 -0.09897151
v 0.03429576 0.03450000 -0.09888023
v 0.03429576 0.03050000 -0.09888023
v 0.03514320 0.03450000 -0.09828555
v 0.03514320 0.03050000 -0.09828555
v 0.03557977 0.03450000 -0.09734683
v 0.03557977 0.03050000 -0.09734683
v 0.03548849 0.03450000 -0.09631558
v 0.03548849 0.03050000 -0.09631558
v 0.03489381 0.03450000 -0.09546814
v 0.03489381 0.03050000 -0.09546814
v 0.03395509 0.03450000 -0.09503157
v 0.03395509 0.03050000 -0.09503157
v 0.03292384 0.03450000 -0.09512286
v 0.03292384 0.03050000 -0.09512286
v 0.03207640 0.03450000 -0.09571753
v 0.03207640 0.03050000 -0.09571753
v 0.03163983 0.03450000 -0.09665626
v 0.03163983 0.03050000 -0.09665626
v 0.01083616 0.03050000 -0.08136392
v 0.02718976 0.03450000 -0.10466855
v 0.02718976 0.03050000 -0.10466855
v 0.05300471 0.03450000 -0.11667416
v 0.05300471 0.03050000 -0.11667416
v 0.08136392 0.03450000 -0.11416384
v 0.08136392 0.03050000 -0.11416384
v 0.10466855 0.03450000 -0.09781024
v 0.10466855 0.03050000 -0.09781024
v 0.11667416 0.03450000 -0.07199529
v 0.11667416 0.03050000 -0.07199529
v 0.11416384 0.03450000 -0.04363608
v 0.11416384 0.03050000 -0.04363608
v 0.09781024 0.03450000 -0.02033145
v 0.09781024 0.03050000 -0.02033145
v 0.07199529 0.03450000 -0.00832584
v 0.07199529 0.03050000 -0.00832584
v 0.04363608 0.03450000 -0.01083616
v 0.04363608 0.03050000 -0.01083616
v 0.02033145 0.03450000 -0.02718976
v 0.02033145 0.03050000 -0.02718976
v 0.00832584 0.03450000 -0.05300471
v 0.00832584 0.03050000 -0.05300471
v 0.01083616 0.03450000 -0.08136392
v 0.05028855 0.03450000 -0.06695874
v 0.05028855 0.03050000 -0.06695874
v 0.05415394 0.03450000 -0.07246711
v 0.05415394 0.03050000 -0.07246711
v 0.06025566 0.03450000 -0.07530480
v 0.06025566 0.03050000 -0.07530480
v 0.06695874 0.03450000 -0.07471145
v 0.06695874 0.03050000 -0.07471145
v 0.07246711 0.03450000 -0.07084606
v 0.07246711 0.03050000 -0.07084606
v 0.07530480 0.03450000 -0.06474434
v 0.07530480 0.03050000 -0.06474434
v 0.07471145 0.03450000 -0.05804126
v 0.07471145 0.03050000 -0.05804126
v 0.07084606 0.03450000 -0.05253289
v 0.07084606 0.03050000 -0.05253289
v 0.06474434 0.03450000 -0.04969520
v 0.06474434 0.03050000 -0.04969520
v 0.05804126 0.03450000 -0.05028855
v 0.05804126 0.03050000 -0.05028855
v 0.05253289 0.03450000 -0.05415394
v 0.05253289 0.03050000 -0.05415394
v 0.04969520 0.03450000 -0.06025566
v 0.04969520 0.03050000 -0.06025566
v 0.06709314 0.03450000 -0.07945297
v 0.06709314 0.03050000 -0.07945297
v 0.06753915 0.03450000 -0.08008855
v 0.06753915 0.03050000 -0.08008855
v 0.06824319 0.03450000 -0.08041597
v 0.06824319 0.03050000 -0.08041597
v 0.06901663 0.03450000 -0.08034751
v 0.06901663 0.03050000 -0.08034751
v 0.06965221 0.03450000 -0.07990150
v 0.06965221 0.03050000 -0.07990150
v 0.06997963 0.03450000 -0.07919746
v 0.06997963 0.03050000 -0.07919746
v 0.06991117 0.03450000 -0.07842403
v 0.06991117 0.03050000 -0.07842403
v 0.06946516 0.03450000 -0.07778844
v 0.06946516 0.03050000 -0.07778844
v 0.06876112 0.03450000 -0.07746102
v 0.06876112 0.03050000 -0.07746102
v 0.06798769 0.03450000 -0.07752948
v 0.06798769 0.03050000 -0.07752948
v 0.06735210 0.03450000 -0.07797549
v 0.06735210 0.03050000 -0.07797549
v 0.06702468 0.03450000 -0.07867953
v 0.06702468 0.03050000 -0.07867953
v 0.07605543 0.03450000 -0.10545638
v 0.07605543 0.03050000 -0.10545638
v 0.07665011 0.03450000 -0.10630382
v 0.07665011 0.03050000 -0.10630382
v 0.07758883 0.03450000 -0.10674038
v 0.07758883 0.03050000 -0.10674038
v 0.07862007 0.03450000 -0.10664910
v 0.07862007 0.03050000 -0.10664910
v 0.07946752 0.03450000 -0.10605442
v 0.07946752 0.03050000 -0.10605442
v 0.07990408 0.03450000 -0.10511570
v 0.07990408 0.03050000 -0.10511570
v 0.07981280 0.03450000 -0.10408446
v 0.07981280 0.03050000 -0.10408446
v 0.07921812 0.03450000 -0.10323701
v 0.07921812 0.03050000 -0.10323701
v 0.07827940 0.03450000 -0.10280045
v 0.07827940 0.03050000 -0.10280045
v 0.07724815 0.03450000 -0.10289173
v 0.07724815 0.03050000 -0.10289173
v 0.07640071 0.03450000 -0.10348641
v 0.07640071 0.03050000 -0.10348641
v 0.07596414 0.03450000 -0.10442513
v 0.07596414 0.03050000 -0.10442513
v 0.07832822 0.03450000 -0.06603570
v 0.07832822 0.03050000 -0.06603570
v 0.07877423 0.03450000 -0.06667128
v 0.07877423 0.03050000 -0.06667128
v 0.07947827 0.03450000 -0.06699871
v 0.07947827 0.03050000 -0.06699871
v 0.08025170 0.03450000 -0.06693024
v 0.08025170 0.03050000 -0.06693024
v 0.08088728 0.03450000 -0.06648424
v 0.08088728 0.03050000 -0.06648424
v 0.08121471 0.03450000 -0.06578019
v 0.08121471 0.03050000 -0.06578019
v 0.08114625 0.03450000 -0.06500676
v 0.08114625 0.03050000 -0.06500676
v 0.08070024 0.03450000 -0.06437118
v 0.08070024 0.03050000 -0.06437118
v 0.07999620 0.03450000 -0.06404375
v 0.07999620 0.03050000 -0.06404375
v 0.07922276 0.03450000 -0.06411221
v 0.07922276 0.03050000 -0.06411221
v 0.07858718 0.03450000 -0.06455822
v 0.07858718 0.03050000 -0.06455822
v 0.07825976 0.03450000 -0.06526227
v 0.07825976 0.03050000 -0.06526227
v 0.07232606 0.03450000 -0.04959720
v 0.07232606 0.03050000 -0.04959720
v 0.07277207 0.03450000 -0.05023278
v 0.07277207 0.03050000 -0.05023278
v 0.07347611 0.03450000 -0.05056021
v 0.07347611 0.03050000 -0.05056021
v 0.07424955 0.03450000 -0.05049175
v 0.07424955 0.03050000 -0.05049175
v 0.07488513 0.03450000 -0.05004574
v 0.07488513 0.03050000 -0.05004574
v 0.07521255 0.03450000 -0.04934170
v 0.07521255 0.03050000 -0.04934170
v 0.07514409 0.03450000 -0.04856826
v 0.07514409 0.03050000 -0.04856826
v 0.07469808 0.03450000 -0.04793268
v 0.07469808 0.03050000 -0.04793268
v 0.07399404 0.03450000 -0.04760526
v 0.07399404 0.03050000 -0.04760526
v 0.07322061 0.03450000 -0.04767372
v 0.07322061 0.03050000 -0.04767372
v 0.07258503 0.03450000 -0.04811973
v 0.07258503 0.03050000 -0.04811973
v 0.07225760 0.03450000 -0.04882377
v 0.07225760 0.03050000 -0.04882377
v 0.05508883 0.03450000 -0.04657597
v 0.05508883 0.03050000 -0.04657597
v 0.05553484 0.03450000 -0.04721156
v 0.05553484 0.03050000 -0.04721156
v 0.05623888 0.03450000 -0.04753898
v 0.05623888 0.03050000 -0.04753898
v 0.05701231 0.03450000 -0.04747052
v 0.05701231 0.03050000 -0.04747052
v 0.05764790 0.03450000 -0.04702451
v 0.05764790 0.03050000 -0.04702451
v 0.05797532 0.03450000 -0.04632047
v 0.05797532 0.03050000 -0.04632047
v 0.05790686 0.03450000 -0.04554703
v 0.05790686 0.03050000 -0.04554703
v 0.05746085 0.03450000 -0.04491145
v 0.05746085 0.03050000 -0.04491145
v 0.05675681 0.03450000 -0.04458403
v 0.05675681 0.03050000 -0.04458403
v 0.05598337 0.03450000 -0.04465249
v 0.05598337 0.03050000 -0.04465249
v 0.05534779 0.03450000 -0.04509850
v 0.05534779 0.03050000 -0.04509850
v 0.05502037 0.03450000 -0.04580254
v 0.05502037 0.03050000 -0.04580254
f 1 2 3
f 2 4 3
f 3 4 5
f 4 6 5
f 5 6 7
f 6 8 7
f 7 8 9
f 8 10 9
f 9 10 11
f 10 12 11
f 11 12 13
f 12 14 13
f 13 14 15
f 14 16 15
f 15 16 17
f 16 18 17
f 17 18 19
f 18 20 19
f 19 20 21
f 20 22 21
f 21 22 23
f 22 24 23
f 23 24 1
f 24 2 1
f 25 26 27
f 26 28 27
f 27 28 29
f 28 30 29
f 29 30 31
f 30 32 31
f 31 32 33
f 32 34 33
f 33 34 35
f 34 36 35
f 35 36 37
f 36 38 37
f 37 38 39
f 38 40 39
f 39 40 41
f 40 42 41
f 41 42 43
f 42 44 43
f 43 44 45
f 44 46 45
f 45 46 47
f 46 48 47
f 47 48 25
f 48 26 25
f 49 50 51
f 50 52 51
f 51 52 53
f 52 54 53
f 53 54 55
f 54 56 55
f 55 56 57
f 56 58 57
f 57 58 59
f 58 60 59
f 59 60 61
f 60 62 61
f 61 62 63
f 62 64 63
f 63 64 65
f 64 66 65
f 65 66 67
f 66 68 67
f 67 68 69
f 68 70 69
f 69 70 71
f 70 72 71
f 71 72 49
f 72 50 49
f 73 74 75
f 74 76 75
f 75 76 77
f 76 78 77
f 77 78 79
f 78 80 79
f 79 80 81
f 80 82 81
f 81 82 83
f 82 84 83
f 83 84 85
f 84 86 85
f 85 86 87
f 86 88 87
f 87 88 89
f 88 90 89
f 89 90 91
f 90 92 91
f 91 92 93
f 92 94 93
f 93 94 95
f 94 96 95
f 95 96 73
f 96 74 73
f 97 98 99
f 98 100 99
f 99 100 101
f 100 102 101
f 101 102 103
f 102 104 103
f 103 104 105
f 104 106 105
f 105 106 107
f 106 108 107
f 107 108 109
f 108 110 109
f 109 110 111
f 110 112 111
f 111 112 113
f 112 114 113
f 113 114 115
f 114 116 115
f 115 116 117
f 116 118 117
f 117 118 119
f 118 120 119
f 119 120 97
f 120 98 97
f 121 122 123
f 122 124 123
f 123 124 125
f 124 126 125
f 125 126 127
f 126 128 127
f 127 128 129
f 128 130 129
f 129 130 131
f 130 132 131
f 131 132 133
f 132 134 133
f 133 134 135
f 134 136 135
f 135 136 137
f 136 138 137
f 137 138 139
f 138 140 139
f 139 140 141
f 140 142 141
f 141 142 143
f 142 144 143
f 143 144 121
f 144 122 121
f 145 146 147
f 148 149 150
f 151 152 153
f 154 155 156
f 157 158 159
f 160 161 162
f 163 164 165
f 164 166 165
f 166 167 165
f 167 168 165
f 165 168 169
f 168 170 169
f 171 172 173
f 172 174 173
f 173 174 175
f 174 169 175
f 175 169 176
f 169 170 176
f 177 178 179
f 177 180 181
f 180 171 181
f 178 182 179
f 182 183 179
f 179 183 184
f 185 186 187
f 188 189 190
f 189 188 191
f 188 192 191
f 191 192 193
f 190 194 188
f 194 195 188
f 188 195 196
f 197 198 199
f 198 200 199
f 199 200 201
f 193 192 202
f 192 203 202
f 202 203 197
f 185 187 204
f 187 205 204
f 204 205 206
f 205 207 206
f 207 208 206
f 206 208 200
f 208 209 200
f 200 209 201
f 210 211 212
f 162 161 211
f 161 213 211
f 211 213 212
f 159 158 214
f 158 215 214
f 214 215 160
f 216 217 218
f 219 220 221
f 220 222 221
f 212 223 210
f 223 224 210
f 210 224 225
f 224 226 225
f 225 226 156
f 226 227 156
f 156 227 154
f 228 229 230
f 231 232 233
f 232 234 233
f 234 235 233
f 235 236 233
f 233 236 237
f 236 238 237
f 239 240 241
f 238 242 237
f 242 243 237
f 237 243 244
f 243 245 244
f 244 245 246
f 245 247 246
f 248 249 246
f 247 239 246
f 239 241 246
f 246 241 248
f 241 196 248
f 248 196 185
f 196 195 185
f 185 195 186
f 197 203 198
f 203 250 198
f 198 250 251
f 252 253 254
f 253 255 254
f 254 255 256
f 255 257 256
f 256 257 258
f 259 260 250
f 260 261 250
f 261 262 250
f 250 262 251
f 262 263 251
f 261 264 262
f 264 265 262
f 262 265 266
f 265 267 266
f 266 267 254
f 267 268 254
f 254 268 252
f 151 153 269
f 153 270 269
f 269 270 271
f 270 272 271
f 271 272 150
f 150 149 273
f 149 274 273
f 273 274 275
f 274 276 275
f 275 276 277
f 277 278 147
f 278 279 147
f 147 279 272
f 279 280 272
f 272 280 281
f 281 282 272
f 282 283 272
f 272 283 150
f 283 284 150
f 150 284 148
f 277 147 275
f 147 146 275
f 275 146 285
f 286 163 145
f 145 163 287
f 163 165 287
f 287 165 288
f 165 169 288
f 288 169 289
f 169 174 289
f 289 174 290
f 291 292 293
f 294 291 295
f 291 293 295
f 295 293 296
f 297 298 299
f 298 300 299
f 299 300 301
f 300 291 301
f 301 291 302
f 291 294 302
f 297 303 298
f 303 304 298
f 298 304 305
f 306 307 308
f 307 309 308
f 308 309 295
f 309 310 295
f 295 310 294
f 228 230 311
f 230 312 311
f 311 312 313
f 312 298 313
f 313 298 308
f 298 305 308
f 308 305 306
f 171 180 172
f 180 314 172
f 172 314 315
f 316 317 318
f 319 320 162
f 320 321 162
f 162 321 318
f 321 322 318
f 318 322 316
f 323 324 314
f 324 325 314
f 325 211 314
f 314 211 315
f 211 210 315
f 325 326 211
f 326 327 211
f 211 327 162
f 327 328 162
f 162 328 319
f 177 179 180
f 179 318 180
f 180 318 314
f 318 317 314
f 314 317 323
f 160 162 214
f 162 318 214
f 214 318 329
f 318 179 329
f 329 179 286
f 179 184 286
f 286 184 163
f 184 330 163
f 163 330 164
f 331 332 225
f 332 333 225
f 210 334 335
f 290 174 296
f 174 172 296
f 296 172 295
f 172 315 295
f 295 315 308
f 315 210 308
f 308 210 313
f 210 335 313
f 313 335 336
f 333 337 225
f 337 338 225
f 225 338 210
f 338 339 210
f 210 339 334
f 340 311 341
f 311 313 341
f 341 313 342
f 313 336 342
f 343 344 214
f 345 270 346
f 270 347 346
f 348 349 159
f 145 147 286
f 147 272 286
f 286 272 329
f 272 270 329
f 329 270 214
f 270 345 214
f 214 345 343
f 344 350 214
f 350 351 214
f 214 351 159
f 351 352 159
f 159 352 348
f 347 270 353
f 270 153 353
f 353 153 354
f 156 355 356
f 355 156 357
f 156 228 357
f 357 228 358
f 356 359 156
f 359 360 156
f 156 360 225
f 360 361 225
f 225 361 362
f 362 363 225
f 363 311 225
f 225 311 331
f 311 340 331
f 363 364 311
f 364 365 311
f 311 365 228
f 365 366 228
f 228 366 358
f 367 159 153
f 159 349 153
f 153 349 354
f 368 369 216
f 367 370 159
f 370 371 159
f 159 371 372
f 218 157 216
f 157 159 216
f 216 159 368
f 159 372 368
f 369 373 216
f 373 374 216
f 216 374 152
f 374 375 152
f 375 376 152
f 376 377 152
f 152 377 153
f 377 378 153
f 153 378 367
f 379 229 380
f 229 228 380
f 380 228 381
f 228 156 381
f 381 156 219
f 156 155 219
f 219 155 220
f 151 382 152
f 382 383 152
f 152 383 216
f 383 384 216
f 216 384 217
f 384 221 217
f 217 221 385
f 221 222 385
f 386 387 388
f 389 390 219
f 387 391 388
f 391 392 388
f 388 392 393
f 392 394 393
f 393 394 395
f 396 397 221
f 397 398 221
f 221 398 219
f 398 399 219
f 219 399 389
f 237 379 233
f 379 380 233
f 233 380 400
f 380 381 400
f 400 381 388
f 381 219 388
f 388 219 386
f 219 390 386
f 382 254 383
f 254 256 383
f 383 256 384
f 256 401 384
f 384 401 221
f 401 393 221
f 221 393 396
f 393 395 396
f 258 259 256
f 259 250 256
f 256 250 401
f 250 203 401
f 401 203 393
f 203 192 393
f 393 192 388
f 192 188 388
f 388 188 400
f 188 196 400
f 400 196 233
f 196 241 233
f 233 241 231
f 241 240 231
f 402 403 404
f 405 406 407
f 408 409 410
f 411 412 413
f 414 415 416
f 417 418 419
f 420 421 422
f 421 423 422
f 423 421 418
f 421 424 418
f 418 424 419
f 425 426 427
f 426 428 427
f 427 428 419
f 428 429 419
f 419 429 417
f 425 427 430
f 427 431 430
f 430 431 432
f 422 433 420
f 433 434 420
f 420 434 435
f 434 436 435
f 435 436 437
f 437 438 435
f 438 439 435
f 435 439 440
f 441 442 443
f 442 444 443
f 443 444 445
f 441 446 447
f 448 449 450
f 449 451 450
f 450 451 452
f 451 453 452
f 453 454 452
f 452 454 444
f 454 455 444
f 444 455 445
f 456 457 448
f 457 458 448
f 448 458 449
f 447 446 459
f 446 460 459
f 459 460 461
f 462 463 464
f 463 465 464
f 466 467 468
f 467 469 468
f 468 469 470
f 469 471 470
f 470 471 472
f 416 415 471
f 415 473 471
f 471 473 472
f 474 475 476
f 475 477 476
f 476 477 478
f 477 479 478
f 480 481 482
f 481 483 482
f 482 483 484
f 483 485 484
f 484 485 486
f 485 487 486
f 487 488 486
f 486 488 479
f 488 489 479
f 479 489 478
f 490 491 492
f 493 413 491
f 413 412 494
f 412 495 494
f 494 495 496
f 495 497 496
f 496 497 498
f 498 499 410
f 499 500 410
f 493 501 502
f 502 503 493
f 503 504 493
f 493 504 413
f 504 505 413
f 413 505 411
f 498 410 496
f 410 409 496
f 496 409 506
f 507 508 440
f 508 509 440
f 440 509 435
f 509 510 435
f 435 510 420
f 510 511 420
f 420 511 421
f 511 408 421
f 421 408 424
f 408 410 424
f 439 432 440
f 432 431 440
f 440 431 507
f 431 512 507
f 507 512 513
f 514 515 512
f 515 516 512
f 516 517 512
f 512 517 513
f 517 518 513
f 516 519 517
f 519 520 517
f 517 520 521
f 520 522 521
f 521 522 523
f 522 524 523
f 524 525 523
f 523 525 526
f 527 528 529
f 528 530 529
f 529 530 514
f 531 532 523
f 405 407 533
f 407 534 533
f 533 534 535
f 534 536 535
f 535 536 537
f 538 539 536
f 539 540 536
f 536 540 537
f 540 541 537
f 541 542 537
f 542 543 537
f 537 543 544
f 543 545 544
f 544 545 546
f 545 547 546
f 546 547 548
f 548 549 550
f 549 551 550
f 550 551 536
f 551 552 536
f 536 552 538
f 548 550 546
f 550 553 546
f 546 553 554
f 441 447 442
f 447 555 442
f 442 555 556
f 557 558 559
f 560 561 562
f 561 563 562
f 562 563 564
f 564 565 555
f 565 566 555
f 566 567 555
f 555 567 556
f 567 568 556
f 566 569 567
f 569 570 567
f 567 570 571
f 570 572 571
f 571 572 557
f 572 573 557
f 557 573 558
f 557 403 574
f 403 402 574
f 574 402 575
f 402 576 575
f 575 576 492
f 564 555 562
f 555 447 562
f 562 447 577
f 447 459 577
f 577 459 578
f 559 560 557
f 560 562 557
f 557 562 403
f 562 577 403
f 403 577 404
f 577 578 404
f 404 578 467
f 578 579 467
f 467 579 580
f 581 582 578
f 582 583 578
f 578 583 579
f 580 584 467
f 584 585 467
f 467 585 469
f 585 586 469
f 586 587 469
f 587 588 469
f 469 588 589
f 588 590 589
f 589 590 591
f 461 462 459
f 462 464 459
f 459 464 578
f 464 589 578
f 578 589 581
f 589 591 581
f 465 457 464
f 457 456 464
f 464 456 589
f 456 592 589
f 589 592 469
f 592 593 469
f 469 593 471
f 594 595 482
f 576 596 484
f 596 597 484
f 484 597 598
f 598 599 484
f 599 600 484
f 484 600 482
f 600 601 482
f 482 601 594
f 466 602 467
f 602 480 467
f 467 480 404
f 480 482 404
f 404 482 402
f 482 595 402
f 402 595 603
f 603 604 402
f 604 605 402
f 402 605 576
f 605 606 576
f 576 606 596
f 607 608 471
f 608 609 471
f 610 416 611
f 416 471 611
f 611 471 612
f 471 609 612
f 610 613 416
f 613 614 416
f 416 614 406
f 614 615 406
f 615 616 406
f 406 616 407
f 616 617 407
f 407 617 618
f 618 607 407
f 607 471 407
f 407 471 534
f 471 593 534
f 534 593 536
f 593 592 536
f 536 592 550
f 592 456 550
f 550 456 553
f 456 448 553
f 492 576 490
f 576 619 490
f 490 619 620
f 620 621 490
f 621 622 490
f 490 622 486
f 622 623 486
f 486 623 624
f 625 484 626
f 484 486 626
f 626 486 627
f 486 624 627
f 625 628 484
f 628 629 484
f 484 629 576
f 629 630 576
f 576 630 619
f 631 632 416
f 475 633 634
f 474 414 475
f 414 416 475
f 475 416 633
f 416 632 633
f 635 636 531
f 636 406 531
f 531 406 532
f 406 405 532
f 634 637 475
f 637 638 475
f 475 638 531
f 638 639 531
f 531 639 635
f 636 640 406
f 640 641 406
f 406 641 416
f 641 642 416
f 416 642 631
f 491 490 493
f 490 486 493
f 493 486 643
f 486 479 643
f 643 479 644
f 645 646 644
f 646 647 644
f 644 647 648
f 647 649 648
f 649 650 648
f 648 650 651
f 645 644 652
f 644 479 652
f 652 479 653
f 654 655 477
f 655 656 477
f 477 656 479
f 656 657 479
f 479 657 653
f 526 527 523
f 527 529 523
f 523 529 531
f 529 658 531
f 531 658 475
f 658 648 475
f 475 648 477
f 648 651 477
f 477 651 654
f 514 512 529
f 512 431 529
f 529 431 658
f 431 427 658
f 658 427 648
f 427 419 648
f 648 419 644
f 419 424 644
f 644 424 643
f 424 410 643
f 643 410 493
f 410 500 493
f 493 500 501
f 659 660 661
f 660 662 661
f 661 662 663
f 662 664 663
f 663 664 665
f 664 666 665
f 665 666 667
f 666 668 667
f 667 668 669
f 668 670 669
f 669 670 671
f 670 672 671
f 671 672 673
f 672 674 673
f 673 674 675
f 674 676 675
f 675 676 677
f 676 678 677
f 677 678 679
f 678 680 679
f 679 680 681
f 680 682 681
f 681 682 659
f 682 660 659
f 683 684 685
f 684 686 685
f 685 686 687
f 686 688 687
f 687 688 689
f 688 690 689
f 689 690 691
f 690 692 691
f 691 692 693
f 692 694 693
f 693 694 695
f 694 696 695
f 695 696 697
f 696 698 697
f 697 698 699
f 698 700 699
f 699 700 701
f 700 702 701
f 701 702 703
f 702 704 703
f 703 704 705
f 704 706 705
f 705 706 683
f 706 684 683
f 707 708 709
f 708 710 709
f 709 710 711
f 710 712 711
f 711 712 713
f 712 714 713
f 713 714 715
f 714 716 715
f 715 716 717
f 716 718 717
f 717 718 719
f 718 720 719
f 719 720 721
f 720 722 721
f 721 722 723
f 722 724 723
f 723 724 725
f 724 726 725
f 725 726 727
f 726 728 727
f 727 728 729
f 728 730 729
f 729 730 707
f 730 708 707
f 731 732 733
f 732 734 733
f 733 734 735
f 734 736 735
f 735 736 737
f 736 738 737
f 737 738 739
f 738 740 739
f 739 740 741
f 740 742 741
f 741 742 743
f 742 744 743
f 743 744 745
f 744 746 745
f 745 746 747
f 746 748 747
f 747 748 749
f 748 750 749
f 749 750 751
f 750 752 751
f 751 752 753
f 752 754 753
f 753 754 731
f 754 732 731
f 755 756 757
f 756 758 757
f 757 758 759
f 758 760 759
f 759 760 761
f 760 762 761
f 761 762 763
f 762 764 763
f 763 764 765
f 764 766 765
f 765 766 767
f 766 768 767
f 767 768 769
f 768 770 769
f 769 770 771
f 770 772 771
f 771 772 773
f 772 774 773
f 773 774 775
f 774 776 775
f 775 776 777
f 776 778 777
f 777 778 755
f 778 756 755
f 779 780 781
f 780 782 781
f 781 782 783
f 782 784 783
f 783 784 785
f 784 786 785
f 785 786 787
f 786 788 787
f 787 788 789
f 788 790 789
f 789 790 791
f 790 792 791
f 791 792 793
f 792 794 793
f 793 794 795
f 794 796 795
f 795 796 797
f 796 798 797
f 797 798 799
f 798 800 799
f 799 800 801
f 800 802 801
f 801 802 779
f 802 780 779
f 803 804 805
f 804 806 805
f 805 806 807
f 806 808 807
f 807 808 809
f 808 810 809
f 809 810 811
f 810 812 811
f 811 812 813
f 812 814 813
f 813 814 815
f 814 816 815
f 815 816 817
f 816 818 817
f 817 818 819
f 818 820 819
f 819 820 821
f 820 822 821
f 821 822 823
f 822 824 823
f 823 824 825
f 824 826 825
f 825 826 803
f 826 804 803
f 827 828 829
f 828 830 829
f 829 830 831
f 830 832 831
f 831 832 833
f 832 834 833
f 833 834 835
f 834 836 835
f 835 836 837
f 836 838 837
f 837 838 839
f 838 840 839
f 839 840 841
f 840 842 841
f 841 842 843
f 842 844 843
f 843 844 845
f 844 846 845
f 845 846 847
f 846 848 847
f 847 848 849
f 848 850 849
f 849 850 827
f 850 828 827

