# https://github.com/mikedh/trimesh
v -0.05491747 0.30037500 0.17150000
v -0.05475000 0.30100000 0.17150000
v -0.05200000 0.30500000 0.17150000
v -0.05491747 0.30162500 0.17150000
v -0.05537500 0.30208253 0.17150000
v -0.08100000 0.30225000 0.17150000
v -0.08500000 0.30500000 0.17150000
v -0.08037500 0.30208253 0.17150000
v -0.07991747 0.30162500 0.17150000
v -0.08162500 0.27708253 0.17150000
v -0.08208253 0.27662500 0.17150000
v -0.08208253 0.30037500 0.17150000
v -0.08162500 0.29991747 0.17150000
v -0.08100000 0.29975000 0.17150000
v -0.05708253 0.27662500 0.17150000
v -0.08037500 0.29991747 0.17150000
v -0.05662500 0.27708253 0.17150000
v -0.07991747 0.30037500 0.17150000
v -0.05600000 0.27725000 0.17150000
v -0.05537500 0.27708253 0.17150000
v -0.05600000 0.30225000 0.17150000
v -0.05662500 0.30208253 0.17150000
v -0.05708253 0.30162500 0.17150000
v -0.07975000 0.30100000 0.17150000
v -0.05725000 0.30100000 0.17150000
v -0.05708253 0.30037500 0.17150000
v -0.08162500 0.30208253 0.17150000
v -0.08208253 0.30162500 0.17150000
v -0.08225000 0.30100000 0.17150000
v -0.08500000 0.27200000 0.17150000
v -0.08225000 0.27600000 0.17150000
v -0.08208253 0.27537500 0.17150000
v -0.05537500 0.29991747 0.17150000
v -0.05491747 0.27662500 0.17150000
v -0.05600000 0.29975000 0.17150000
v -0.05662500 0.29991747 0.17150000
v -0.08100000 0.27725000 0.17150000
v -0.08037500 0.27708253 0.17150000
v -0.08162500 0.27491747 0.17150000
v -0.08100000 0.27475000 0.17150000
v -0.05200000 0.27200000 0.17150000
v -0.08037500 0.27491747 0.17150000
v -0.07991747 0.27537500 0.17150000
v -0.07991747 0.27662500 0.17150000
v -0.07975000 0.27600000 0.17150000
v -0.05725000 0.27600000 0.17150000
v -0.05475000 0.27600000 0.17150000
v -0.05491747 0.27537500 0.17150000
v -0.05537500 0.27491747 0.17150000
v -0.05708253 0.27537500 0.17150000
v -0.05662500 0.27491747 0.17150000
v -0.05600000 0.27475000 0.17150000
v -0.06475000 0.28200481 0.19650000
v -0.06200481 0.28475000 0.19650000
v -0.06850000 0.28850000 0.19650000
v -0.06100000 0.28850000 0.19650000
v -0.06200481 0.29225000 0.19650000
v -0.07499519 0.28475000 0.19650000
v -0.07225000 0.28200481 0.19650000
v -0.06850000 0.28100000 0.19650000
v -0.07225000 0.29499519 0.19650000
v -0.07499519 0.29225000 0.19650000
v -0.07600000 0.28850000 0.19650000
v -0.06475000 0.29499519 0.19650000
v -0.06850000 0.29600000 0.19650000
v -0.07600000 0.28850000 0.19650000
v -0.07499519 0.28475000 0.17350000
v -0.07499519 0.28475000 0.19650000
v -0.07225000 0.28200481 0.17350000
v -0.07225000 0.28200481 0.19650000
v -0.06850000 0.28100000 0.17350000
v -0.06850000 0.28100000 0.19650000
v -0.06475000 0.28200481 0.17350000
v -0.06475000 0.28200481 0.19650000
v -0.06200481 0.28475000 0.17350000
v -0.06200481 0.28475000 0.19650000
v -0.06100000 0.28850000 0.17350000
v -0.06100000 0.28850000 0.19650000
v -0.06200481 0.29225000 0.17350000
v -0.06200481 0.29225000 0.19650000
v -0.06475000 0.29499519 0.17350000
v -0.06475000 0.29499519 0.19650000
v -0.06850000 0.29600000 0.17350000
v -0.06850000 0.29600000 0.19650000
v -0.07225000 0.29499519 0.17350000
v -0.07225000 0.29499519 0.19650000
v -0.07499519 0.29225000 0.17350000
v -0.07499519 0.29225000 0.19650000
v -0.07600000 0.28850000 0.17350000
v -0.08208253 0.27537500 0.17350000
v -0.08225000 0.27600000 0.17350000
v -0.08500000 0.27200000 0.17350000
v -0.05708253 0.27537500 0.17350000
v -0.05725000 0.27600000 0.17350000
v -0.07787500 0.27200000 0.17350000
v -0.08208253 0.30037500 0.17350000
v -0.08225000 0.30100000 0.17350000
v -0.08500000 0.29787500 0.17350000
v -0.05537500 0.30208253 0.17350000
v -0.05491747 0.30162500 0.17350000
v -0.05200000 0.30500000 0.17350000
v -0.05200000 0.29787500 0.17350000
v -0.05475000 0.30100000 0.17350000
v -0.05491747 0.30037500 0.17350000
v -0.05725000 0.30100000 0.17350000
v -0.05708253 0.30162500 0.17350000
v -0.07787500 0.30500000 0.17350000
v -0.05662500 0.30208253 0.17350000
v -0.05600000 0.30225000 0.17350000
v -0.05537500 0.29991747 0.17350000
v -0.05600000 0.29975000 0.17350000
v -0.07787500 0.29787500 0.17350000
v -0.05662500 0.29991747 0.17350000
v -0.05708253 0.30037500 0.17350000
v -0.08500000 0.30500000 0.17350000
v -0.08037500 0.30208253 0.17350000
v -0.07991747 0.30162500 0.17350000
v -0.07975000 0.30100000 0.17350000
v -0.07991747 0.30037500 0.17350000
v -0.08208253 0.30162500 0.17350000
v -0.08162500 0.30208253 0.17350000
v -0.08100000 0.30225000 0.17350000
v -0.08037500 0.29991747 0.17350000
v -0.08100000 0.29975000 0.17350000
v -0.08162500 0.29991747 0.17350000
v -0.07600000 0.28850000 0.17350000
v -0.07499519 0.29225000 0.17350000
v -0.07225000 0.28200481 0.17350000
v -0.07499519 0.28475000 0.17350000
v -0.05491747 0.27662500 0.17350000
v -0.05200000 0.27200000 0.17350000
v -0.05475000 0.27600000 0.17350000
v -0.05491747 0.27537500 0.17350000
v -0.06200481 0.29225000 0.17350000
v -0.06100000 0.28850000 0.17350000
v -0.05708253 0.27662500 0.17350000
v -0.06200481 0.28475000 0.17350000
v -0.06475000 0.28200481 0.17350000
v -0.06850000 0.28100000 0.17350000
v -0.05537500 0.27491747 0.17350000
v -0.05600000 0.27475000 0.17350000
v -0.05662500 0.27491747 0.17350000
v -0.07225000 0.29499519 0.17350000
v -0.06850000 0.29600000 0.17350000
v -0.06475000 0.29499519 0.17350000
v -0.05662500 0.27708253 0.17350000
v -0.05600000 0.27725000 0.17350000
v -0.05537500 0.27708253 0.17350000
v -0.08037500 0.27708253 0.17350000
v -0.07991747 0.27662500 0.17350000
v -0.07975000 0.27600000 0.17350000
v -0.07991747 0.27537500 0.17350000
v -0.08208253 0.27662500 0.17350000
v -0.08162500 0.27708253 0.17350000
v -0.08100000 0.27725000 0.17350000
v -0.08037500 0.27491747 0.17350000
v -0.08100000 0.27475000 0.17350000
v -0.08162500 0.27491747 0.17350000
v -0.05200000 0.27200000 0.17350000
v -0.05200000 0.27200000 0.17150000
v -0.05200000 0.29787500 0.17350000
v -0.05200000 0.30500000 0.17150000
v -0.05200000 0.30500000 0.17350000
v -0.08500000 0.27200000 0.17350000
v -0.08500000 0.27200000 0.17150000
v -0.07787500 0.27200000 0.17350000
v -0.05200000 0.27200000 0.17150000
v -0.05200000 0.27200000 0.17350000
v -0.08500000 0.30500000 0.17350000
v -0.08500000 0.30500000 0.17150000
v -0.08500000 0.29787500 0.17350000
v -0.08500000 0.27200000 0.17150000
v -0.08500000 0.27200000 0.17350000
v -0.05200000 0.30500000 0.17350000
v -0.05200000 0.30500000 0.17150000
v -0.07787500 0.30500000 0.17350000
v -0.08500000 0.30500000 0.17150000
v -0.08500000 0.30500000 0.17350000
v -0.05725000 0.27600000 0.17150000
v -0.05725000 0.27600000 0.17350000
v -0.05708253 0.27537500 0.17150000
v -0.05708253 0.27537500 0.17350000
v -0.05662500 0.27491747 0.17150000
v -0.05662500 0.27491747 0.17350000
v -0.05600000 0.27475000 0.17150000
v -0.05600000 0.27475000 0.17350000
v -0.05537500 0.27491747 0.17150000
v -0.05537500 0.27491747 0.17350000
v -0.05491747 0.27537500 0.17150000
v -0.05491747 0.27537500 0.17350000
v -0.05475000 0.27600000 0.17150000
v -0.05475000 0.27600000 0.17350000
v -0.05491747 0.27662500 0.17150000
v -0.05491747 0.27662500 0.17350000
v -0.05537500 0.27708253 0.17150000
v -0.05537500 0.27708253 0.17350000
v -0.05600000 0.27725000 0.17150000
v -0.05600000 0.27725000 0.17350000
v -0.05662500 0.27708253 0.17150000
v -0.05662500 0.27708253 0.17350000
v -0.05708253 0.27662500 0.17150000
v -0.05708253 0.27662500 0.17350000
v -0.05725000 0.30100000 0.17150000
v -0.05725000 0.30100000 0.17350000
v -0.05708253 0.30037500 0.17150000
v -0.05708253 0.30037500 0.17350000
v -0.05662500 0.29991747 0.17150000
v -0.05662500 0.29991747 0.17350000
v -0.05600000 0.29975000 0.17150000
v -0.05600000 0.29975000 0.17350000
v -0.05537500 0.29991747 0.17150000
v -0.05537500 0.29991747 0.17350000
v -0.05491747 0.30037500 0.17150000
v -0.05491747 0.30037500 0.17350000
v -0.05475000 0.30100000 0.17150000
v -0.05475000 0.30100000 0.17350000
v -0.05491747 0.30162500 0.17150000
v -0.05491747 0.30162500 0.17350000
v -0.05537500 0.30208253 0.17150000
v -0.05537500 0.30208253 0.17350000
v -0.05600000 0.30225000 0.17150000
v -0.05600000 0.30225000 0.17350000
v -0.05662500 0.30208253 0.17150000
v -0.05662500 0.30208253 0.17350000
v -0.05708253 0.30162500 0.17150000
v -0.05708253 0.30162500 0.17350000
v -0.08225000 0.30100000 0.17150000
v -0.08225000 0.30100000 0.17350000
v -0.08208253 0.30037500 0.17150000
v -0.08208253 0.30037500 0.17350000
v -0.08162500 0.29991747 0.17150000
v -0.08162500 0.29991747 0.17350000
v -0.08100000 0.29975000 0.17150000
v -0.08100000 0.29975000 0.17350000
v -0.08037500 0.29991747 0.17150000
v -0.08037500 0.29991747 0.17350000
v -0.07991747 0.30037500 0.17150000
v -0.07991747 0.30037500 0.17350000
v -0.07975000 0.30100000 0.17150000
v -0.07975000 0.30100000 0.17350000
v -0.07991747 0.30162500 0.17150000
v -0.07991747 0.30162500 0.17350000
v -0.08037500 0.30208253 0.17150000
v -0.08037500 0.30208253 0.17350000
v -0.08100000 0.30225000 0.17150000
v -0.08100000 0.30225000 0.17350000
v -0.08162500 0.30208253 0.17150000
v -0.08162500 0.30208253 0.17350000
v -0.08208253 0.30162500 0.17150000
v -0.08208253 0.30162500 0.17350000
v -0.08225000 0.27600000 0.17150000
v -0.08225000 0.27600000 0.17350000
v -0.08208253 0.27537500 0.17150000
v -0.08208253 0.27537500 0.17350000
v -0.08162500 0.27491747 0.17150000
v -0.08162500 0.27491747 0.17350000
v -0.08100000 0.27475000 0.17150000
v -0.08100000 0.27475000 0.17350000
v -0.08037500 0.27491747 0.17150000
v -0.08037500 0.27491747 0.17350000
v -0.07991747 0.27537500 0.17150000
v -0.07991747 0.27537500 0.17350000
v -0.07975000 0.27600000 0.17150000
v -0.07975000 0.27600000 0.17350000
v -0.07991747 0.27662500 0.17150000
v -0.07991747 0.27662500 0.17350000
v -0.08037500 0.27708253 0.17150000
v -0.08037500 0.27708253 0.17350000
v -0.08100000 0.27725000 0.17150000
v -0.08100000 0.27725000 0.17350000
v -0.08162500 0.27708253 0.17150000
v -0.08162500 0.27708253 0.17350000
v -0.08208253 0.27662500 0.17150000
v -0.08208253 0.27662500 0.17350000
f 1 2 3
f 2 4 3
f 3 4 5
f 6 7 8
f 7 3 8
f 8 3 9
f 10 11 12
f 13 14 15
f 14 16 15
f 15 16 17
f 16 18 17
f 17 18 19
f 18 20 19
f 5 21 3
f 21 22 3
f 3 22 9
f 22 23 9
f 9 23 24
f 23 25 24
f 24 25 18
f 25 26 18
f 18 26 20
f 6 27 7
f 27 28 7
f 7 28 29
f 29 12 7
f 12 11 7
f 7 11 30
f 11 31 30
f 30 31 32
f 33 34 35
f 34 20 35
f 35 20 36
f 20 26 36
f 10 12 37
f 12 13 37
f 37 13 38
f 32 39 30
f 39 40 30
f 30 40 41
f 40 42 41
f 41 42 43
f 38 13 44
f 13 15 44
f 44 15 45
f 15 46 45
f 45 46 43
f 33 1 34
f 1 3 34
f 34 3 47
f 3 41 47
f 47 41 48
f 41 49 48
f 46 50 43
f 50 51 43
f 43 51 41
f 51 52 41
f 41 52 49
f 53 54 55
f 54 56 55
f 55 56 57
f 58 59 55
f 59 60 55
f 55 60 53
f 61 62 55
f 62 63 55
f 55 63 58
f 57 64 55
f 64 65 55
f 55 65 61
f 66 67 68
f 67 69 68
f 68 69 70
f 69 71 70
f 70 71 72
f 71 73 72
f 72 73 74
f 73 75 74
f 74 75 76
f 75 77 76
f 76 77 78
f 77 79 78
f 78 79 80
f 79 81 80
f 80 81 82
f 81 83 82
f 82 83 84
f 83 85 84
f 84 85 86
f 85 87 86
f 86 87 88
f 87 89 88
f 88 89 66
f 89 67 66
f 90 91 92
f 93 94 95
f 96 97 98
f 99 100 101
f 101 100 102
f 100 103 102
f 102 103 104
f 105 106 107
f 106 108 107
f 107 108 101
f 108 109 101
f 101 109 99
f 104 110 102
f 110 111 102
f 102 111 112
f 111 113 112
f 112 113 114
f 98 97 115
f 116 117 107
f 118 119 112
f 114 105 112
f 105 107 112
f 112 107 118
f 107 117 118
f 97 120 115
f 120 121 115
f 115 121 107
f 121 122 107
f 107 122 116
f 119 123 112
f 123 124 112
f 112 124 98
f 124 125 98
f 98 125 96
f 112 126 127
f 95 128 129
f 102 130 131
f 130 132 131
f 131 132 133
f 134 135 136
f 135 137 136
f 136 137 94
f 137 138 94
f 94 138 95
f 138 139 95
f 95 139 128
f 133 140 131
f 140 141 131
f 131 141 95
f 141 142 95
f 95 142 93
f 127 143 112
f 143 144 112
f 112 144 102
f 144 145 102
f 102 145 134
f 136 146 134
f 146 147 134
f 134 147 102
f 147 148 102
f 102 148 130
f 92 91 98
f 149 150 112
f 151 152 95
f 129 126 95
f 126 112 95
f 95 112 151
f 112 150 151
f 91 153 98
f 153 154 98
f 98 154 112
f 154 155 112
f 112 155 149
f 152 156 95
f 156 157 95
f 95 157 92
f 157 158 92
f 92 158 90
f 159 160 161
f 160 162 161
f 161 162 163
f 164 165 166
f 165 167 166
f 166 167 168
f 169 170 171
f 170 172 171
f 171 172 173
f 174 175 176
f 175 177 176
f 176 177 178
f 179 180 181
f 180 182 181
f 181 182 183
f 182 184 183
f 183 184 185
f 184 186 185
f 185 186 187
f 186 188 187
f 187 188 189
f 188 190 189
f 189 190 191
f 190 192 191
f 191 192 193
f 192 194 193
f 193 194 195
f 194 196 195
f 195 196 197
f 196 198 197
f 197 198 199
f 198 200 199
f 199 200 201
f 200 202 201
f 201 202 179
f 202 180 179
f 203 204 205
f 204 206 205
f 205 206 207
f 206 208 207
f 207 208 209
f 208 210 209
f 209 210 211
f 210 212 211
f 211 212 213
f 212 214 213
f 213 214 215
f 214 216 215
f 215 216 217
f 216 218 217
f 217 218 219
f 218 220 219
f 219 220 221
f 220 222 221
f 221 222 223
f 222 224 223
f 223 224 225
f 224 226 225
f 225 226 203
f 226 204 203
f 227 228 229
f 228 230 229
f 229 230 231
f 230 232 231
f 231 232 233
f 232 234 233
f 233 234 235
f 234 236 235
f 235 236 237
f 236 238 237
f 237 238 239
f 238 240 239
f 239 240 241
f 240 242 241
f 241 242 243
f 242 244 243
f 243 244 245
f 244 246 245
f 245 246 247
f 246 248 247
f 247 248 249
f 248 250 249
f 249 250 227
f 250 228 227
f 251 252 253
f 252 254 253
f 253 254 255
f 254 256 255
f 255 256 257
f 256 258 257
f 257 258 259
f 258 260 259
f 259 260 261
f 260 262 261
f 261 262 263
f 262 264 263
f 263 264 265
f 264 266 265
f 265 266 267
f 266 268 267
f 267 268 269
f 268 270 269
f 269 270 271
f 270 272 271
f 271 272 273
f 272 274 273
f 273 274 251
f 274 252 251

