# https://github.com/mikedh/trimesh
v 0.01900000 0.07200000 -0.00250000
v 0.01080000 0.07200000 -0.00250000
v 0.01900000 0.06800000 -0.00250000
v 0.01080000 0.06800000 -0.00250000
v 0.00880000 0.06570000 0.04347169
v 0.00880000 0.06570000 0.04040682
v 0.00878442 0.06570000 0.04040682
v 0.00780000 0.06570000 0.04447169
v 0.00830000 0.06570000 0.04433772
v 0.00866603 0.06570000 0.04397169
v -0.01614547 0.06570000 0.01016381
v -0.01540395 0.06570000 0.01298477
v -0.01341982 0.06570000 0.01512272
v -0.01619000 0.06570000 0.00630000
v -0.00390868 0.06570000 0.01439031
v 0.00477983 0.06570000 0.02625595
v -0.00205775 0.06570000 0.02721405
v 0.00245896 0.06570000 0.04317952
v 0.00245896 0.06570000 0.04347169
v 0.00259294 0.06570000 0.04397169
v 0.00345896 0.06570000 0.04447169
v 0.00295896 0.06570000 0.04433772
v 0.01800000 0.06800000 -0.02050000
v 0.01800000 0.07200000 -0.02050000
v 0.01950000 0.07200000 -0.02009808
v 0.01950000 0.06800000 -0.02009808
v 0.02059808 0.07200000 -0.01900000
v 0.02059808 0.06800000 -0.01900000
v 0.02100000 0.07200000 -0.01750000
v 0.02100000 0.06800000 -0.01750000
v 0.00485966 0.06850000 0.02642049
v 0.00878442 0.06850000 0.04040682
v 0.00880000 0.06862104 0.04040682
v -0.01619000 0.06946647 0.00605995
v -0.01619000 0.06850000 0.00630000
v -0.00375830 0.06946647 0.01422862
v -0.00384251 0.06850000 0.01445342
v 0.00501739 0.06946647 0.02623953
v 0.00880000 0.06921249 0.03832671
v -0.01619000 0.07105399 0.00498552
v -0.00338135 0.07105399 0.01322249
v 0.00572336 0.07105399 0.02542959
v 0.00880000 0.07054444 0.03364233
v -0.01619000 0.07200000 0.00329083
v -0.00278680 0.07200000 0.01163551
v 0.00683688 0.07200000 0.02415208
v 0.00880000 0.07200000 0.02852323
v -0.02200000 0.06800000 -0.01750000
v -0.02200000 0.07200000 -0.01750000
v -0.02159808 0.07200000 -0.01900000
v -0.02159808 0.06800000 -0.01900000
v -0.02050000 0.07200000 -0.02009807
v -0.02050000 0.06800000 -0.02009807
v -0.01900000 0.07200000 -0.02050000
v -0.01900000 0.06800000 -0.02050000
v 0.00878442 0.06850000 0.04040682
v 0.00485966 0.06850000 0.02642049
v 0.00878442 0.06570000 0.04040682
v 0.00477983 0.06570000 0.02625595
v 0.00475378 0.06850000 0.02627489
v -0.00384251 0.06850000 0.01445342
v -0.00390868 0.06570000 0.01439031
v -0.00391761 0.06850000 0.01440383
v -0.01619000 0.06570000 0.00630000
v -0.01619000 0.06850000 0.00630000
v -0.01819000 0.07200000 -0.00250000
v -0.02000000 0.07200000 -0.00250000
v -0.01819000 0.06800000 -0.00250000
v -0.02000000 0.06800000 -0.00250000
v 0.00878442 0.06570000 0.04040682
v 0.00880000 0.06570000 0.04040682
v 0.00878442 0.06850000 0.04040682
v 0.00880000 0.06862104 0.04040682
v -0.01719000 0.07200000 -0.00223205
v -0.01719000 0.06800000 -0.00223205
v -0.01645795 0.07200000 -0.00150000
v -0.01645795 0.06800000 -0.00150000
v -0.01619000 0.07200000 -0.00050000
v -0.01619000 0.06800000 -0.00050000
v 0.00880000 0.06450000 0.04347169
v 0.00880000 0.06570000 0.04347169
v 0.00866603 0.06570000 0.04397169
v 0.00866603 0.06450000 0.04397169
v 0.00830000 0.06570000 0.04433772
v 0.00830000 0.06450000 0.04433772
v 0.00780000 0.06570000 0.04447169
v 0.00780000 0.06450000 0.04447169
v 0.00880000 0.06800000 0.00050000
v 0.00880000 0.06800000 -0.00050000
v 0.00880000 0.07200000 -0.00050000
v 0.00880000 0.06570000 0.04040682
v 0.00880000 0.07200000 0.02852323
v 0.00880000 0.06862104 0.04040682
v 0.00880000 0.06450000 0.00050000
v -0.02000000 0.06800000 -0.00250000
v -0.02000000 0.07200000 -0.00250000
v -0.02100000 0.07200000 -0.00276795
v -0.02100000 0.06800000 -0.00276795
v -0.02173205 0.07200000 -0.00350000
v -0.02173205 0.06800000 -0.00350000
v -0.02200000 0.07200000 -0.00450000
v -0.02200000 0.06800000 -0.00450000
v 0.00245896 0.06570000 0.04347169
v 0.00245896 0.06570000 0.04317952
v 0.00245896 0.06450000 0.04347169
v 0.00245896 0.06450000 0.04317952
v 0.02100000 0.06800000 -0.00450000
v 0.02100000 0.07200000 -0.00450000
v 0.02073205 0.07200000 -0.00350000
v 0.02073205 0.06800000 -0.00350000
v 0.02000000 0.07200000 -0.00276795
v 0.02000000 0.06800000 -0.00276795
v 0.01900000 0.07200000 -0.00250000
v 0.01900000 0.06800000 -0.00250000
v 0.00345896 0.06450000 0.04447169
v 0.00345896 0.06570000 0.04447169
v 0.00295896 0.06570000 0.04433772
v 0.00295896 0.06450000 0.04433772
v 0.00259294 0.06570000 0.04397169
v 0.00259294 0.06450000 0.04397169
v -0.02200000 0.07200000 -0.00450000
v -0.02200000 0.06800000 -0.00450000
v 0.00880000 0.07200000 -0.00050000
v 0.00880000 0.06800000 -0.00050000
v 0.00906795 0.07200000 -0.00150000
v 0.00906795 0.06800000 -0.00150000
v 0.00980000 0.07200000 -0.00223205
v 0.00980000 0.06800000 -0.00223205
v -0.02055000 0.06800000 -0.00550000
v -0.02055000 0.07200000 -0.00550000
v -0.02034234 0.06800000 -0.00472500
v -0.02034234 0.07200000 -0.00472500
v -0.01977500 0.06800000 -0.00415766
v -0.01977500 0.07200000 -0.00415766
v -0.01900000 0.06800000 -0.00395000
v -0.01900000 0.07200000 -0.00395000
v -0.01822500 0.06800000 -0.00415766
v -0.01822500 0.07200000 -0.00415766
v -0.01765766 0.06800000 -0.00472500
v -0.01765766 0.07200000 -0.00472500
v -0.01745000 0.06800000 -0.00550000
v -0.01745000 0.07200000 -0.00550000
v -0.01765766 0.06800000 -0.00627500
v -0.01765766 0.07200000 -0.00627500
v -0.01822500 0.06800000 -0.00684234
v -0.01822500 0.07200000 -0.00684234
v -0.01900000 0.06800000 -0.00705000
v -0.01900000 0.07200000 -0.00705000
v -0.01977500 0.06800000 -0.00684234
v -0.01977500 0.07200000 -0.00684234
v -0.02034234 0.06800000 -0.00627500
v -0.02034234 0.07200000 -0.00627500
v -0.01341982 0.06450000 0.01512272
v 0.00866603 0.06450000 0.00000000
v -0.00205775 0.06450000 0.02721405
v 0.00880000 0.06450000 0.00050000
v 0.00245896 0.06450000 0.04317952
v 0.00880000 0.06450000 0.04347169
v 0.00245896 0.06450000 0.04347169
v -0.01605603 0.06450000 0.00000000
v -0.01619000 0.06450000 0.00050000
v -0.01619000 0.06450000 0.00630000
v -0.01540395 0.06450000 0.01298477
v -0.01614547 0.06450000 0.01016381
v 0.00295896 0.06450000 0.04433772
v 0.00259294 0.06450000 0.04397169
v 0.00345896 0.06450000 0.04447169
v 0.00780000 0.06450000 0.04447169
v 0.00830000 0.06450000 0.04433772
v 0.00866603 0.06450000 0.04397169
v -0.02055000 0.06800000 -0.01550000
v -0.02055000 0.07200000 -0.01550000
v -0.02034234 0.06800000 -0.01472500
v -0.02034234 0.07200000 -0.01472500
v -0.01977500 0.06800000 -0.01415766
v -0.01977500 0.07200000 -0.01415766
v -0.01900000 0.06800000 -0.01395000
v -0.01900000 0.07200000 -0.01395000
v -0.01822500 0.06800000 -0.01415766
v -0.01822500 0.07200000 -0.01415766
v -0.01765766 0.06800000 -0.01472500
v -0.01765766 0.07200000 -0.01472500
v -0.01745000 0.06800000 -0.01550000
v -0.01745000 0.07200000 -0.01550000
v -0.01765766 0.06800000 -0.01627500
v -0.01765766 0.07200000 -0.01627500
v -0.01822500 0.06800000 -0.01684234
v -0.01822500 0.07200000 -0.01684234
v -0.01900000 0.06800000 -0.01705000
v -0.01900000 0.07200000 -0.01705000
v -0.01977500 0.06800000 -0.01684234
v -0.01977500 0.07200000 -0.01684234
v -0.02034234 0.06800000 -0.01627500
v -0.02034234 0.07200000 -0.01627500
v 0.00880000 0.06450000 0.00050000
v 0.00866603 0.06450000 0.00000000
v 0.00880000 0.06800000 0.00050000
v 0.00866603 0.06800000 0.00000000
v 0.01645000 0.06800000 -0.01550000
v 0.01645000 0.07200000 -0.01550000
v 0.01665766 0.06800000 -0.01472500
v 0.01665766 0.07200000 -0.01472500
v 0.01722500 0.06800000 -0.01415766
v 0.01722500 0.07200000 -0.01415766
v 0.01800000 0.06800000 -0.01395000
v 0.01800000 0.07200000 -0.01395000
v 0.01877500 0.06800000 -0.01415766
v 0.01877500 0.07200000 -0.01415766
v 0.01934234 0.06800000 -0.01472500
v 0.01934234 0.07200000 -0.01472500
v 0.01955000 0.06800000 -0.01550000
v 0.01955000 0.07200000 -0.01550000
v 0.01934234 0.06800000 -0.01627500
v 0.01934234 0.07200000 -0.01627500
v 0.01877500 0.06800000 -0.01684234
v 0.01877500 0.07200000 -0.01684234
v 0.01800000 0.06800000 -0.01705000
v 0.01800000 0.07200000 -0.01705000
v 0.01722500 0.06800000 -0.01684234
v 0.01722500 0.07200000 -0.01684234
v 0.01665766 0.06800000 -0.01627500
v 0.01665766 0.07200000 -0.01627500
v -0.01605603 0.06450000 0.00000000
v -0.01619000 0.06450000 0.00050000
v -0.01605603 0.06800000 0.00000000
v -0.01619000 0.06800000 0.00050000
v -0.01605603 0.06800000 0.00000000
v -0.01619000 0.06800000 0.00050000
v -0.01619000 0.06800000 -0.00050000
v 0.00880000 0.06800000 -0.00050000
v 0.00880000 0.06800000 0.00050000
v 0.00866603 0.06800000 0.00000000
v 0.01722500 0.06800000 -0.00415766
v -0.01900000 0.06800000 -0.00395000
v 0.01665766 0.06800000 -0.00472500
v 0.01645000 0.06800000 -0.00550000
v 0.02100000 0.06800000 -0.01750000
v 0.01955000 0.06800000 -0.01550000
v 0.01934234 0.06800000 -0.01627500
v -0.01822500 0.06800000 -0.00415766
v -0.01765766 0.06800000 -0.00472500
v 0.01665766 0.06800000 -0.00627500
v -0.01745000 0.06800000 -0.00550000
v 0.01722500 0.06800000 -0.00684234
v 0.01800000 0.06800000 -0.00705000
v -0.01900000 0.06800000 -0.01395000
v -0.01822500 0.06800000 -0.01415766
v 0.01645000 0.06800000 -0.01550000
v -0.01765766 0.06800000 -0.01472500
v 0.01665766 0.06800000 -0.01627500
v -0.01745000 0.06800000 -0.01550000
v 0.02100000 0.06800000 -0.00450000
v 0.02073205 0.06800000 -0.00350000
v 0.01934234 0.06800000 -0.00472500
v -0.01765766 0.06800000 -0.01627500
v 0.01800000 0.06800000 -0.01705000
v 0.01722500 0.06800000 -0.01684234
v 0.01877500 0.06800000 -0.00415766
v 0.02000000 0.06800000 -0.00276795
v 0.01800000 0.06800000 -0.00395000
v 0.01900000 0.06800000 -0.00250000
v 0.01080000 0.06800000 -0.00250000
v 0.00980000 0.06800000 -0.00223205
v 0.00906795 0.06800000 -0.00150000
v -0.01645795 0.06800000 -0.00150000
v -0.01719000 0.06800000 -0.00223205
v -0.01819000 0.06800000 -0.00250000
v -0.01977500 0.06800000 -0.00415766
v 0.02059808 0.06800000 -0.01900000
v 0.01877500 0.06800000 -0.01684234
v 0.01950000 0.06800000 -0.02009808
v 0.01800000 0.06800000 -0.02050000
v -0.01900000 0.06800000 -0.02050000
v -0.02034234 0.06800000 -0.01472500
v -0.01977500 0.06800000 -0.01415766
v -0.01822500 0.06800000 -0.00684234
v -0.01765766 0.06800000 -0.00627500
v 0.01665766 0.06800000 -0.01472500
v 0.01934234 0.06800000 -0.01472500
v 0.01877500 0.06800000 -0.01415766
v -0.01822500 0.06800000 -0.01684234
v -0.01900000 0.06800000 -0.01705000
v -0.02050000 0.06800000 -0.02009807
v -0.01977500 0.06800000 -0.01684234
v -0.02159808 0.06800000 -0.01900000
v -0.02200000 0.06800000 -0.01750000
v 0.01955000 0.06800000 -0.00550000
v 0.01934234 0.06800000 -0.00627500
v 0.01877500 0.06800000 -0.00684234
v 0.01800000 0.06800000 -0.01395000
v 0.01722500 0.06800000 -0.01415766
v -0.02034234 0.06800000 -0.01627500
v -0.02055000 0.06800000 -0.01550000
v -0.02000000 0.06800000 -0.00250000
v -0.02100000 0.06800000 -0.00276795
v -0.02034234 0.06800000 -0.00472500
v -0.02173205 0.06800000 -0.00350000
v -0.02055000 0.06800000 -0.00550000
v -0.02200000 0.06800000 -0.00450000
v -0.02034234 0.06800000 -0.00627500
v -0.01977500 0.06800000 -0.00684234
v -0.01900000 0.06800000 -0.00705000
v -0.01614547 0.06570000 0.01016381
v -0.01614547 0.06450000 0.01016381
v -0.01540395 0.06450000 0.01298477
v -0.01540395 0.06570000 0.01298477
v -0.01341982 0.06450000 0.01512272
v -0.01341982 0.06570000 0.01512272
v 0.01645000 0.06800000 -0.00550000
v 0.01645000 0.07200000 -0.00550000
v 0.01665766 0.06800000 -0.00472500
v 0.01665766 0.07200000 -0.00472500
v 0.01722500 0.06800000 -0.00415766
v 0.01722500 0.07200000 -0.00415766
v 0.01800000 0.06800000 -0.00395000
v 0.01800000 0.07200000 -0.00395000
v 0.01877500 0.06800000 -0.00415766
v 0.01877500 0.07200000 -0.00415766
v 0.01934234 0.06800000 -0.00472500
v 0.01934234 0.07200000 -0.00472500
v 0.01955000 0.06800000 -0.00550000
v 0.01955000 0.07200000 -0.00550000
v 0.01934234 0.06800000 -0.00627500
v 0.01934234 0.07200000 -0.00627500
v 0.01877500 0.06800000 -0.00684234
v 0.01877500 0.07200000 -0.00684234
v 0.01800000 0.06800000 -0.00705000
v 0.01800000 0.07200000 -0.00705000
v 0.01722500 0.06800000 -0.00684234
v 0.01722500 0.07200000 -0.00684234
v 0.01665766 0.06800000 -0.00627500
v 0.01665766 0.07200000 -0.00627500
v -0.01605603 0.06450000 0.00000000
v -0.01605603 0.06800000 0.00000000
v 0.00866603 0.06450000 0.00000000
v 0.00866603 0.06800000 0.00000000
v -0.01619000 0.06450000 0.00630000
v -0.01619000 0.06570000 0.00630000
v 0.00345896 0.06450000 0.04447169
v 0.00780000 0.06450000 0.04447169
v 0.00345896 0.06570000 0.04447169
v 0.00780000 0.06570000 0.04447169
v -0.01341982 0.06570000 0.01512272
v -0.01341982 0.06450000 0.01512272
v -0.00205775 0.06570000 0.02721405
v -0.00205775 0.06450000 0.02721405
v 0.00245896 0.06570000 0.04317952
v 0.00245896 0.06450000 0.04317952
v -0.01619000 0.07200000 -0.00050000
v -0.01619000 0.06800000 -0.00050000
v -0.01619000 0.07200000 0.00329083
v -0.01619000 0.06800000 0.00050000
v -0.01619000 0.06450000 0.00050000
v -0.01619000 0.06450000 0.00630000
v -0.01619000 0.06570000 0.00630000
v -0.01619000 0.07105399 0.00498552
v -0.01619000 0.06946647 0.00605995
v -0.01619000 0.06850000 0.00630000
v 0.01665766 0.07200000 -0.01472500
v 0.01645000 0.07200000 -0.01550000
v -0.01900000 0.07200000 -0.01705000
v 0.01665766 0.07200000 -0.01627500
v -0.01765766 0.07200000 -0.01472500
v -0.01822500 0.07200000 -0.01415766
v 0.01645000 0.07200000 -0.00550000
v 0.00880000 0.07200000 -0.00050000
v -0.01765766 0.07200000 -0.00627500
v -0.01745000 0.07200000 -0.00550000
v -0.01719000 0.07200000 -0.00223205
v -0.01822500 0.07200000 -0.00415766
v -0.01819000 0.07200000 -0.00250000
v -0.01900000 0.07200000 -0.00395000
v -0.02000000 0.07200000 -0.00250000
v -0.01977500 0.07200000 -0.00415766
v -0.02100000 0.07200000 -0.00276795
v 0.00880000 0.07200000 0.02852323
v 0.00683688 0.07200000 0.02415208
v -0.00278680 0.07200000 0.01163551
v 0.01800000 0.07200000 -0.02050000
v 0.01800000 0.07200000 -0.01705000
v 0.01950000 0.07200000 -0.02009808
v 0.01877500 0.07200000 -0.01684234
v 0.02059808 0.07200000 -0.01900000
v 0.02100000 0.07200000 -0.01750000
v -0.02173205 0.07200000 -0.00350000
v -0.02034234 0.07200000 -0.00472500
v -0.02200000 0.07200000 -0.00450000
v -0.02055000 0.07200000 -0.00550000
v -0.02200000 0.07200000 -0.01750000
v -0.02034234 0.07200000 -0.00627500
v -0.01977500 0.07200000 -0.00684234
v -0.01619000 0.07200000 0.00329083
v -0.01619000 0.07200000 -0.00050000
v -0.01645795 0.07200000 -0.00150000
v -0.01765766 0.07200000 -0.00472500
v -0.02034234 0.07200000 -0.01627500
v -0.02159808 0.07200000 -0.01900000
v -0.01977500 0.07200000 -0.01684234
v -0.02050000 0.07200000 -0.02009807
v -0.01900000 0.07200000 -0.02050000
v 0.01722500 0.07200000 -0.01684234
v 0.01722500 0.07200000 -0.01415766
v -0.01822500 0.07200000 -0.01684234
v 0.01800000 0.07200000 -0.01395000
v -0.01765766 0.07200000 -0.01627500
v -0.01745000 0.07200000 -0.01550000
v -0.01900000 0.07200000 -0.00705000
v -0.01900000 0.07200000 -0.01395000
v -0.01977500 0.07200000 -0.01415766
v -0.02034234 0.07200000 -0.01472500
v -0.02055000 0.07200000 -0.01550000
v 0.01934234 0.07200000 -0.01627500
v 0.01955000 0.07200000 -0.01550000
v 0.01934234 0.07200000 -0.01472500
v 0.01665766 0.07200000 -0.00627500
v 0.01877500 0.07200000 -0.00684234
v 0.01877500 0.07200000 -0.01415766
v 0.01800000 0.07200000 -0.00705000
v 0.01722500 0.07200000 -0.00684234
v 0.01722500 0.07200000 -0.00415766
v 0.01080000 0.07200000 -0.00250000
v 0.01800000 0.07200000 -0.00395000
v 0.01900000 0.07200000 -0.00250000
v 0.01877500 0.07200000 -0.00415766
v 0.02000000 0.07200000 -0.00276795
v 0.01934234 0.07200000 -0.00472500
v 0.02073205 0.07200000 -0.00350000
v 0.01955000 0.07200000 -0.00550000
v 0.02100000 0.07200000 -0.00450000
v 0.01934234 0.07200000 -0.00627500
v -0.01822500 0.07200000 -0.00684234
v 0.00906795 0.07200000 -0.00150000
v 0.00980000 0.07200000 -0.00223205
v 0.01665766 0.07200000 -0.00472500
v -0.19457811 0.27961055 0.05862287
v -0.19880512 0.28211055 0.05956221
v -0.20557619 0.26408141 0.05046158
v -0.20980320 0.26658141 0.05140092
v -0.21568242 0.24614990 0.05270741
v -0.21990944 0.24864990 0.05364675
v -0.22218885 0.23062075 0.06475859
v -0.22641586 0.23312075 0.06569793
v -0.22335207 0.22165500 0.08338601
v -0.22757908 0.22415500 0.08432535
v -0.21886041 0.22165500 0.10359848
v -0.22308743 0.22415500 0.10453781
v -0.20991740 0.23062075 0.11998007
v -0.21414442 0.23312075 0.12091940
v -0.19891932 0.24614989 0.12814135
v -0.20314634 0.24864989 0.12908069
v -0.18881309 0.26408140 0.12589553
v -0.19304010 0.26658140 0.12683486
v -0.18230666 0.27961055 0.11384435
v -0.18653368 0.28211055 0.11478368
v -0.18114344 0.28857630 0.09521693
v -0.18537045 0.29107630 0.09615626
v -0.18563510 0.28857630 0.07500446
v -0.18986211 0.29107630 0.07594380
v -0.22890850 0.23005889 0.06263006
v -0.23130143 0.22711950 0.05968492
v -0.23021713 0.21997242 0.08358591
v -0.23274964 0.21595714 0.08287606
v -0.22516401 0.21997241 0.10632494
v -0.22715753 0.21595714 0.10804058
v -0.21510312 0.23005889 0.12475423
v -0.21602348 0.22711950 0.12843566
v -0.20273028 0.24752917 0.13393568
v -0.20233087 0.24645328 0.13859646
v -0.19136077 0.26770212 0.13140912
v -0.18974861 0.26877801 0.13580041
v -0.18404104 0.28517241 0.11785155
v -0.18164811 0.28811180 0.12079669
v -0.18273241 0.29525889 0.09689570
v -0.18019990 0.29927416 0.09760555
v -0.18778553 0.29525889 0.07415667
v -0.18579201 0.29927416 0.07244103
v -0.19784641 0.28517241 0.05572738
v -0.19692606 0.28811180 0.05204595
v -0.21021926 0.26770213 0.04654593
v -0.21061867 0.26877802 0.04188515
v -0.22158877 0.24752918 0.04907249
v -0.22320093 0.24645329 0.04468120
v -0.19692606 0.28811180 0.05204595
v -0.20639166 0.26627802 0.04094581
v -0.21061867 0.26877802 0.04188515
v -0.21897391 0.24395329 0.04374187
v -0.22320093 0.24645329 0.04468120
v -0.22707441 0.22461950 0.05874558
v -0.23130143 0.22711950 0.05968492
v -0.22852263 0.21345714 0.08193672
v -0.23274964 0.21595714 0.08287606
v -0.22293051 0.21345714 0.10710124
v -0.22715753 0.21595714 0.10804058
v -0.21179647 0.22461950 0.12749633
v -0.21602348 0.22711950 0.12843566
v -0.19810385 0.24395328 0.13765713
v -0.20233087 0.24645328 0.13859646
v -0.18552160 0.26627801 0.13486107
v -0.18974861 0.26877801 0.13580041
v -0.17742110 0.28561180 0.11985735
v -0.18164811 0.28811180 0.12079669
v -0.17597288 0.29677416 0.09666621
v -0.18019990 0.29927416 0.09760555
v -0.18156500 0.29677416 0.07150170
v -0.18579201 0.29927416 0.07244103
v -0.19269904 0.28561180 0.05110661
v -0.24129333 0.28214446 0.07571477
v -0.24697808 0.27205799 0.07697805
v -0.24451790 0.28011565 0.09869483
v -0.23510691 0.29087960 0.08030550
v -0.23007646 0.29592284 0.08952014
v -0.24451790 0.28011565 0.09869483
v -0.22754991 0.29592284 0.10088965
v -0.22820422 0.29087960 0.11136758
v -0.23186408 0.28214446 0.11814637
v -0.23754884 0.27205799 0.11940965
v -0.24451790 0.28011565 0.09869483
v -0.24373526 0.26332284 0.11481892
v -0.24876570 0.25827961 0.10560428
v -0.24451790 0.28011565 0.09869483
v -0.25129226 0.25827961 0.09423476
v -0.25063795 0.26332284 0.08375684
v -0.22890850 0.23005889 0.06263006
v -0.23858544 0.26013051 0.05881501
v -0.22158877 0.24752918 0.04907249
v -0.22873915 0.27760080 0.05662695
v -0.21021926 0.26770213 0.04654593
v -0.21802396 0.29273051 0.06457832
v -0.19784641 0.28517241 0.05572738
v -0.20931098 0.30146565 0.08053855
v -0.18778553 0.29525889 0.07415667
v -0.20493485 0.30146565 0.10023112
v -0.18273241 0.29525889 0.09689570
v -0.20606815 0.29273050 0.11837942
v -0.18404104 0.28517241 0.11785155
v -0.21240722 0.27760079 0.13012063
v -0.19136077 0.26770212 0.13140912
v -0.22225351 0.26013051 0.13230869
v -0.20273028 0.24752917 0.13393568
v -0.23296871 0.24500080 0.12435732
v -0.21510312 0.23005889 0.12475423
v -0.24168169 0.23626565 0.10839709
v -0.22516401 0.21997241 0.10632494
v -0.24605782 0.23626565 0.08870452
v -0.23021713 0.21997242 0.08358591
v -0.24492451 0.24500080 0.07055622
v -0.24029088 0.27761565 0.09775550
v -0.22904305 0.27941904 0.11504575
v -0.23409616 0.27045328 0.11616866
v -0.22578984 0.28718361 0.10902016
v -0.24406671 0.25820583 0.10389722
v -0.24631254 0.25820583 0.09379099
v -0.23959521 0.26268871 0.11208802
v -0.24029088 0.27761565 0.09775550
v -0.24247771 0.27045328 0.07845169
v -0.23742460 0.27941904 0.07732878
v -0.24573093 0.26268871 0.08447728
v -0.24029088 0.27761565 0.09775550
v -0.22745405 0.29166648 0.08960022
v -0.22520822 0.29166648 0.09970645
v -0.23192556 0.28718361 0.08140942
v -0.24029088 0.27761565 0.09775550
v -0.21174806 0.27538022 0.12568953
v -0.22050032 0.25985108 0.12763448
v -0.23002494 0.24640245 0.12056660
v -0.23776981 0.23863788 0.10637972
v -0.24165970 0.23863788 0.08887522
v -0.24065232 0.24640245 0.07274339
v -0.23501759 0.25985108 0.06230677
v -0.22626533 0.27538022 0.06036182
v -0.21674071 0.28882885 0.06742971
v -0.20899584 0.29659342 0.08161658
v -0.20510595 0.29659342 0.09912109
v -0.20611333 0.28882885 0.11525291
v -0.21414442 0.23312075 0.12091940
v -0.22641586 0.23312075 0.06569793
v -0.19880512 0.28211055 0.05956221
v -0.22335207 0.22165500 0.08338601
v -0.22852263 0.21345714 0.08193672
v -0.22218885 0.23062075 0.06475859
v -0.22707441 0.22461950 0.05874558
v -0.21568242 0.24614990 0.05270741
v -0.21897391 0.24395329 0.04374187
v -0.20557619 0.26408141 0.05046158
v -0.20639166 0.26627802 0.04094581
v -0.19457811 0.27961055 0.05862287
v -0.19269904 0.28561180 0.05110661
v -0.18563510 0.28857630 0.07500446
v -0.18156500 0.29677416 0.07150170
v -0.18114344 0.28857630 0.09521693
v -0.17597288 0.29677416 0.09666621
v -0.18230666 0.27961055 0.11384435
v -0.17742110 0.28561180 0.11985735
v -0.18881309 0.26408140 0.12589553
v -0.18552160 0.26627801 0.13486107
v -0.19891932 0.24614989 0.12814135
v -0.19810385 0.24395328 0.13765713
v -0.20991740 0.23062075 0.11998007
v -0.21179647 0.22461950 0.12749633
v -0.21886041 0.22165500 0.10359848
v -0.22293051 0.21345714 0.10710124
v -0.19665514 0.30073439 0.04628516
v -0.18820111 0.29573439 0.04440649
v -0.18876257 0.29573439 0.04187992
v -0.19721660 0.30073439 0.04375860
v -0.18988045 0.29461367 0.03983223
v -0.19833447 0.29961367 0.04171090
v -0.19125521 0.29267253 0.03881206
v -0.19970923 0.29767253 0.04069074
v -0.19251849 0.29043109 0.03909280
v -0.20097251 0.29543109 0.04097147
v -0.17371436 0.29359513 0.11529041
v -0.18216839 0.29859513 0.11716908
v -0.17050880 0.29573439 0.12402188
v -0.17896283 0.30073439 0.12590055
v -0.18740694 0.29359513 0.05367382
v -0.19586096 0.29859513 0.05555249
v -0.18740694 0.29359513 0.05367382
v -0.19586096 0.29859513 0.05555249
v -0.18707913 0.30631741 0.07451827
v -0.17862510 0.30131741 0.07263959
v -0.18224564 0.30631741 0.09626895
v -0.17379162 0.30131741 0.09439028
v -0.18216839 0.29859513 0.11716908
v -0.17371436 0.29359513 0.11529041
v -0.19648232 0.28244726 0.04250411
v -0.20493635 0.28744726 0.04438278
v -0.23071868 0.21039216 0.08021177
v -0.23078115 0.21663617 0.06331253
v -0.22717412 0.22449703 0.05862287
v -0.19117470 0.29048016 0.04500924
v -0.19069353 0.29115956 0.04536630
v -0.18740694 0.29359513 0.05367382
v -0.23224568 0.21760784 0.05413612
v -0.23263693 0.21721559 0.05341943
v -0.23398671 0.21449691 0.05458106
v -0.23283344 0.21721559 0.05253513
v -0.23449023 0.21440268 0.05256604
v -0.23278255 0.21760784 0.05172018
v -0.23176451 0.21828724 0.05449318
v -0.23132236 0.21907174 0.05439492
v -0.23103771 0.21975114 0.05386768
v -0.23098681 0.22014339 0.05305274
v -0.22729062 0.22778404 0.04935040
v -0.19266069 0.28573427 0.05095322
v -0.20640830 0.26632284 0.04075161
v -0.19156596 0.29008791 0.04429255
v -0.21904109 0.24390846 0.04355890
v -0.21925849 0.24546758 0.03843105
v -0.19025138 0.29194406 0.04526804
v -0.18996673 0.29262346 0.04474080
v -0.18820111 0.29573439 0.04440649
v -0.18991584 0.29301572 0.04392585
v -0.18876257 0.29573439 0.04187992
v -0.19011235 0.29301571 0.04304156
v -0.18988045 0.29461367 0.03983223
v -0.19050360 0.29262346 0.04232486
v -0.19125521 0.29267253 0.03881206
v -0.19098477 0.29194406 0.04196781
v -0.19251849 0.29043109 0.03909280
v -0.19142692 0.29115956 0.04206606
v -0.19648232 0.28244726 0.04250411
v -0.19171157 0.29048016 0.04259330
v -0.19176247 0.29008791 0.04340825
v -0.23118332 0.22014339 0.05216844
v -0.23157458 0.21975114 0.05145175
v -0.23232618 0.21980021 0.04793895
v -0.23205575 0.21907174 0.05109469
v -0.23336320 0.21800211 0.04805793
v -0.23249789 0.21828724 0.05119295
v -0.23414897 0.21632113 0.04899581
v -0.23454762 0.21504794 0.05059042
v -0.20838315 0.26476372 0.03601431
v -0.17371436 0.29359513 0.11529041
v -0.17224983 0.29262346 0.12446681
v -0.17273100 0.29194406 0.12410976
v -0.17720489 0.28244726 0.12925254
v -0.17345780 0.29048016 0.12473525
v -0.17350870 0.29008791 0.12555020
v -0.17185858 0.29301571 0.12518351
v -0.17050880 0.29573439 0.12402188
v -0.17166207 0.29301571 0.12606780
v -0.17000528 0.29582863 0.12603690
v -0.17171296 0.29262346 0.12688275
v -0.17317315 0.29115956 0.12420801
v -0.17732139 0.28573427 0.11998007
v -0.17379162 0.30131741 0.09439028
v -0.17586736 0.29694146 0.09669579
v -0.17862510 0.30131741 0.07263959
v -0.18121350 0.29694147 0.07263818
v -0.18030620 0.29983914 0.06900899
v -0.18148193 0.29694147 0.07143021
v -0.17331219 0.29008791 0.12643450
v -0.17292093 0.29048016 0.12715119
v -0.17216933 0.29043109 0.13066399
v -0.17243976 0.29115956 0.12750825
v -0.17113231 0.29222919 0.13054501
v -0.17199762 0.29194406 0.12740999
v -0.17034654 0.29391017 0.12960713
v -0.16994789 0.29518336 0.12801252
v -0.18545442 0.26632284 0.13504404
v -0.18369944 0.26814886 0.13808161
v -0.18605841 0.26525119 0.13517826
v -0.18523702 0.26476372 0.14017189
v -0.19748323 0.24498011 0.13771711
v -0.19611236 0.24546758 0.14258863
v -0.19839052 0.24208243 0.14134629
v -0.20801319 0.22778404 0.13609883
v -0.22301358 0.21328984 0.10717273
v -0.21183482 0.22449703 0.12764972
v -0.19808721 0.24390846 0.13785133
v -0.21278394 0.21975114 0.13600964
v -0.21273304 0.22014339 0.13519469
v -0.22862815 0.21328984 0.08190715
v -0.22835971 0.21328984 0.08311512
v -0.23070389 0.20891389 0.08421266
v -0.22587041 0.20891389 0.10596334
v -0.21708857 0.21663617 0.12492912
v -0.21452878 0.21760784 0.13386213
v -0.21629440 0.21449691 0.13419645
v -0.21457967 0.21721559 0.13467708
v -0.21589710 0.21440267 0.13623508
v -0.21438316 0.21721559 0.13556138
v -0.21511236 0.21504794 0.13804907
v -0.21399191 0.21760784 0.13627807
v -0.21306859 0.21907174 0.13653688
v -0.21197702 0.21980021 0.13951014
v -0.21351074 0.21828724 0.13663513
v -0.21296683 0.21800211 0.13984157
v -0.21407587 0.21632113 0.13932476
v -0.21292955 0.22014339 0.13431039
v -0.21332081 0.21975114 0.13359370
v -0.21380198 0.21907174 0.13323664
v -0.21424413 0.21828724 0.13333490
v -0.18643182 0.29859540 0.09798292
v -0.18776953 0.28828478 0.11940445
v -0.18216839 0.29859513 0.11716908
v -0.19962873 0.29548016 0.04688791
v -0.20001998 0.29508791 0.04617122
v -0.20493635 0.28744726 0.04438278
v -0.23574465 0.23278404 0.05122907
v -0.24002861 0.22475114 0.05333042
v -0.23963735 0.22514339 0.05404711
v -0.24078021 0.22480021 0.04981762
v -0.24095192 0.22328724 0.05307162
v -0.24050977 0.22407174 0.05297336
v -0.18960692 0.30409460 0.06905909
v -0.19586096 0.29859513 0.05555249
v -0.20188169 0.28828478 0.05589975
v -0.19870541 0.29694406 0.04714671
v -0.19914756 0.29615956 0.04724497
v -0.21452948 0.27042627 0.04651427
v -0.21683718 0.26976372 0.03789298
v -0.22615165 0.24980503 0.04909698
v -0.20021649 0.29508791 0.04528692
v -0.20016560 0.29548016 0.04447197
v -0.20097251 0.29543109 0.04097147
v -0.19988095 0.29615956 0.04394473
v -0.19970923 0.29767253 0.04069074
v -0.19943880 0.29694406 0.04384648
v -0.19833447 0.29961367 0.04171090
v -0.19895763 0.29762346 0.04420354
v -0.19721660 0.30073439 0.04375860
v -0.19856638 0.29801571 0.04492023
v -0.19665514 0.30073439 0.04628516
v -0.19836987 0.29801572 0.04580453
v -0.19842076 0.29762346 0.04661948
v -0.23363404 0.23194652 0.06295583
v -0.23944084 0.22514339 0.05493141
v -0.23949173 0.22475114 0.05574636
v -0.23977639 0.22407174 0.05627360
v -0.23923518 0.22163617 0.06519120
v -0.24181723 0.22300211 0.04993660
v -0.24260300 0.22132113 0.05087448
v -0.24123658 0.22260784 0.05359886
v -0.24300165 0.22004794 0.05246909
v -0.24128747 0.22221559 0.05441381
v -0.24294425 0.21940268 0.05444471
v -0.24109096 0.22221559 0.05529810
v -0.24244074 0.21949691 0.05645973
v -0.24069970 0.22260784 0.05601480
v -0.24021854 0.22328724 0.05637185
v -0.22771252 0.25046758 0.04030972
v -0.19137905 0.27485381 0.13890750
v -0.18565892 0.28744726 0.13113121
v -0.19159723 0.29859540 0.07473858
v -0.19132879 0.29859540 0.07594656
v -0.18707913 0.30631741 0.07451827
v -0.18224564 0.30631741 0.09626895
v -0.18137496 0.29548016 0.12902986
v -0.18089379 0.29615956 0.12938692
v -0.18062336 0.29543109 0.13254266
v -0.18045164 0.29694406 0.12928866
v -0.18162718 0.29615956 0.12608669
v -0.18191183 0.29548016 0.12661393
v -0.18196272 0.29508791 0.12742887
v -0.18176621 0.29508791 0.12831317
v -0.17958634 0.29722919 0.13242368
v -0.17880057 0.29891017 0.13148580
v -0.18016699 0.29762346 0.12876143
v -0.17840192 0.30018336 0.12989119
v -0.18011610 0.29801571 0.12794648
v -0.17845931 0.30082863 0.12791557
v -0.18031261 0.29801571 0.12706218
v -0.17896283 0.30073439 0.12590055
v -0.18070386 0.29762346 0.12634549
v -0.18118503 0.29694406 0.12598843
v -0.19525192 0.27042627 0.13326331
v -0.19585590 0.26935461 0.13339752
v -0.19369105 0.26976372 0.14205056
v -0.20627010 0.25087668 0.13571179
v -0.20456639 0.25046758 0.14446730
v -0.22118707 0.22514339 0.13707336
v -0.22123796 0.22475114 0.13788831
v -0.20687408 0.24980503 0.13584601
v -0.22225601 0.22407174 0.13511531
v -0.22177484 0.22475114 0.13547237
v -0.21952188 0.23194652 0.12646053
v -0.22138358 0.22514339 0.13618906
v -0.20799196 0.24537748 0.14259925
v -0.21646722 0.23278404 0.13797750
v -0.22043105 0.22480021 0.14138881
v -0.22152262 0.22407174 0.13841555
v -0.22142086 0.22300211 0.14172024
v -0.22196477 0.22328724 0.13851380
v -0.22252989 0.22132113 0.14120343
v -0.22244593 0.22260784 0.13815675
v -0.22356639 0.22004794 0.13992774
v -0.22283719 0.22221559 0.13744005
v -0.22435113 0.21940267 0.13811375
v -0.22474843 0.21949691 0.13607512
v -0.22303370 0.22221558 0.13655576
v -0.22554260 0.22163617 0.12680779
v -0.22298281 0.22260784 0.13574081
v -0.22269815 0.22328724 0.13521357
v -0.23432444 0.21391389 0.10784202
v -0.22980634 0.22163590 0.10762170
v -0.23915792 0.21391389 0.08609133
v -0.23470331 0.22163590 0.08558534
v -0.23918016 0.21613670 0.08007536
v -0.23497175 0.22163590 0.08437736
v -0.17720489 0.28244726 0.12925254
v -0.18565892 0.28744726 0.13113121
v -0.19369105 0.26976372 0.14205056
v -0.18523702 0.26476372 0.14017189
v -0.20456639 0.25046758 0.14446730
v -0.19611236 0.24546758 0.14258863
v -0.21646722 0.23278404 0.13797750
v -0.20801319 0.22778404 0.13609883
v -0.20016560 0.29548016 0.04447197
v -0.19171157 0.29048016 0.04259330
v -0.19988095 0.29615956 0.04394473
v -0.19142692 0.29115956 0.04206606
v -0.19943880 0.29694406 0.04384648
v -0.19098477 0.29194406 0.04196781
v -0.19895763 0.29762346 0.04420354
v -0.19050360 0.29262346 0.04232486
v -0.19856638 0.29801571 0.04492023
v -0.19011235 0.29301571 0.04304156
v -0.19836987 0.29801572 0.04580453
v -0.18991584 0.29301572 0.04392585
v -0.19842076 0.29762346 0.04661948
v -0.18996673 0.29262346 0.04474080
v -0.19870541 0.29694406 0.04714671
v -0.19025138 0.29194406 0.04526804
v -0.19914756 0.29615956 0.04724497
v -0.19069353 0.29115956 0.04536630
v -0.19962873 0.29548016 0.04688791
v -0.19117470 0.29048016 0.04500924
v -0.20001998 0.29508791 0.04617122
v -0.19156596 0.29008791 0.04429255
v -0.20021649 0.29508791 0.04528692
v -0.19176247 0.29008791 0.04340825
v -0.21708857 0.21663617 0.12492912
v -0.22554260 0.22163617 0.12680779
v -0.23432444 0.21391389 0.10784202
v -0.22587041 0.20891389 0.10596334
v -0.23915792 0.21391389 0.08609133
v -0.23070389 0.20891389 0.08421266
v -0.23923518 0.22163617 0.06519120
v -0.23078115 0.21663617 0.06331253
v -0.24123658 0.22260784 0.05359886
v -0.23278255 0.21760784 0.05172018
v -0.24095192 0.22328724 0.05307162
v -0.23249789 0.21828724 0.05119295
v -0.24050977 0.22407174 0.05297336
v -0.23205575 0.21907174 0.05109469
v -0.24002861 0.22475114 0.05333042
v -0.23157458 0.21975114 0.05145175
v -0.23963735 0.22514339 0.05404711
v -0.23118332 0.22014339 0.05216844
v -0.23944084 0.22514339 0.05493141
v -0.23098681 0.22014339 0.05305274
v -0.23949173 0.22475114 0.05574636
v -0.23103771 0.21975114 0.05386768
v -0.23977639 0.22407174 0.05627360
v -0.23132236 0.21907174 0.05439492
v -0.24021854 0.22328724 0.05637185
v -0.23176451 0.21828724 0.05449318
v -0.24069970 0.22260784 0.05601480
v -0.23224568 0.21760784 0.05413612
v -0.24109096 0.22221559 0.05529810
v -0.23263693 0.21721559 0.05341943
v -0.24128747 0.22221559 0.05441381
v -0.23283344 0.21721559 0.05253513
v -0.22729062 0.22778404 0.04935040
v -0.23574465 0.23278404 0.05122907
v -0.22771252 0.25046758 0.04030972
v -0.21925849 0.24546758 0.03843105
v -0.21683718 0.26976372 0.03789298
v -0.20838315 0.26476372 0.03601431
v -0.20493635 0.28744726 0.04438278
v -0.19648232 0.28244726 0.04250411
v -0.22298281 0.22260784 0.13574081
v -0.21452878 0.21760784 0.13386213
v -0.22269815 0.22328724 0.13521357
v -0.21424413 0.21828724 0.13333490
v -0.22225601 0.22407174 0.13511531
v -0.21380198 0.21907174 0.13323664
v -0.22177484 0.22475114 0.13547237
v -0.21332081 0.21975114 0.13359370
v -0.22138358 0.22514339 0.13618906
v -0.21292955 0.22014339 0.13431039
v -0.22118707 0.22514339 0.13707336
v -0.21273304 0.22014339 0.13519469
v -0.22123796 0.22475114 0.13788831
v -0.21278394 0.21975114 0.13600964
v -0.22152262 0.22407174 0.13841555
v -0.21306859 0.21907174 0.13653688
v -0.22196477 0.22328724 0.13851380
v -0.21351074 0.21828724 0.13663513
v -0.22244593 0.22260784 0.13815675
v -0.21399191 0.21760784 0.13627807
v -0.22283719 0.22221559 0.13744005
v -0.21438316 0.21721559 0.13556138
v -0.22303370 0.22221558 0.13655576
v -0.21457967 0.21721559 0.13467708
v -0.22729062 0.22778404 0.04935040
v -0.23232618 0.21980021 0.04793895
v -0.23574465 0.23278404 0.05122907
v -0.24078021 0.22480021 0.04981762
v -0.18191183 0.29548016 0.12661393
v -0.17345780 0.29048016 0.12473525
v -0.18162718 0.29615956 0.12608669
v -0.17317315 0.29115956 0.12420801
v -0.18118503 0.29694406 0.12598843
v -0.17273100 0.29194406 0.12410976
v -0.18070386 0.29762346 0.12634549
v -0.17224983 0.29262346 0.12446681
v -0.18031261 0.29801571 0.12706218
v -0.17185858 0.29301571 0.12518351
v -0.18011610 0.29801571 0.12794648
v -0.17166207 0.29301571 0.12606780
v -0.18016699 0.29762346 0.12876143
v -0.17171296 0.29262346 0.12688275
v -0.18045164 0.29694406 0.12928866
v -0.17199762 0.29194406 0.12740999
v -0.18089379 0.29615956 0.12938692
v -0.17243976 0.29115956 0.12750825
v -0.18137496 0.29548016 0.12902986
v -0.17292093 0.29048016 0.12715119
v -0.18176621 0.29508791 0.12831317
v -0.17331219 0.29008791 0.12643450
v -0.18196272 0.29508791 0.12742887
v -0.17350870 0.29008791 0.12555020
v -0.23336320 0.21800211 0.04805793
v -0.24181723 0.22300211 0.04993660
v -0.23414897 0.21632113 0.04899581
v -0.24260300 0.22132113 0.05087448
v -0.23454762 0.21504794 0.05059042
v -0.24300165 0.22004794 0.05246909
v -0.23449023 0.21440268 0.05256604
v -0.24294425 0.21940268 0.05444471
v -0.23398671 0.21449691 0.05458106
v -0.24244074 0.21949691 0.05645973
v -0.17732139 0.28573427 0.11998007
v -0.18154841 0.28823427 0.12091941
v -0.17586736 0.29694146 0.09669579
v -0.18009437 0.29944146 0.09763513
v -0.18148193 0.29694147 0.07143021
v -0.18570895 0.29944147 0.07236955
v -0.19266069 0.28573427 0.05095322
v -0.19688771 0.28823427 0.05189256
v -0.20640830 0.26632284 0.04075161
v -0.21063531 0.26882284 0.04169095
v -0.21904109 0.24390846 0.04355890
v -0.22326810 0.24640846 0.04449823
v -0.22717412 0.22449703 0.05862287
v -0.23140113 0.22699703 0.05956220
v -0.22862815 0.21328984 0.08190715
v -0.23285516 0.21578984 0.08284648
v -0.22301358 0.21328984 0.10717273
v -0.22724059 0.21578984 0.10811206
v -0.21183482 0.22449703 0.12764972
v -0.21606183 0.22699703 0.12858905
v -0.19808721 0.24390846 0.13785133
v -0.20231423 0.24640846 0.13879066
v -0.18545442 0.26632284 0.13504404
v -0.18968144 0.26882284 0.13598338
v -0.23078115 0.21663617 0.06331253
v -0.23923518 0.22163617 0.06519120
v -0.22192464 0.24730503 0.04815764
v -0.22326810 0.24640846 0.04449823
v -0.21030247 0.26792627 0.04557493
v -0.21063531 0.26882284 0.04169095
v -0.19765467 0.28578478 0.05496042
v -0.19688771 0.28823427 0.05189256
v -0.18737021 0.29609540 0.07379925
v -0.18570895 0.29944147 0.07236955
v -0.18220480 0.29609540 0.09704358
v -0.18009437 0.29944146 0.09763513
v -0.18354251 0.28578478 0.11846512
v -0.18154841 0.28823427 0.12091941
v -0.19102490 0.26792627 0.13232397
v -0.18968144 0.26882284 0.13598338
v -0.20264707 0.24730503 0.13490668
v -0.20231423 0.24640846 0.13879066
v -0.21529487 0.22944652 0.12552119
v -0.21606183 0.22699703 0.12858905
v -0.22557932 0.21913590 0.10668236
v -0.22724059 0.21578984 0.10811206
v -0.23074473 0.21913590 0.08343803
v -0.23285516 0.21578984 0.08284648
v -0.22940702 0.22944652 0.06201649
v -0.23140113 0.22699703 0.05956220
v -0.21708857 0.21663617 0.12492912
v -0.21629440 0.21449691 0.13419645
v -0.22554260 0.22163617 0.12680779
v -0.22474843 0.21949691 0.13607512
v -0.18354251 0.28578478 0.11846512
v -0.18776953 0.28828478 0.11940445
v -0.18220480 0.29609540 0.09704358
v -0.18643182 0.29859540 0.09798292
v -0.18737021 0.29609540 0.07379925
v -0.19159723 0.29859540 0.07473858
v -0.19765467 0.28578478 0.05496042
v -0.20188169 0.28828478 0.05589975
v -0.21030247 0.26792627 0.04557493
v -0.21452948 0.27042627 0.04651427
v -0.22192464 0.24730503 0.04815764
v -0.22615165 0.24980503 0.04909698
v -0.22940702 0.22944652 0.06201649
v -0.23363404 0.23194652 0.06295583
v -0.23074473 0.21913590 0.08343803
v -0.23497175 0.22163590 0.08437736
v -0.22557932 0.21913590 0.10668236
v -0.22980634 0.22163590 0.10762170
v -0.21529487 0.22944652 0.12552119
v -0.21952188 0.23194652 0.12646053
v -0.20264707 0.24730503 0.13490668
v -0.20687408 0.24980503 0.13584601
v -0.19102490 0.26792627 0.13232397
v -0.19525192 0.27042627 0.13326331
v -0.21589710 0.21440267 0.13623508
v -0.22435113 0.21940267 0.13811375
v -0.21511236 0.21504794 0.13804907
v -0.22356639 0.22004794 0.13992774
v -0.21407587 0.21632113 0.13932476
v -0.22252989 0.22132113 0.14120343
v -0.21296683 0.21800211 0.13984157
v -0.22142086 0.22300211 0.14172024
v -0.21197702 0.21980021 0.13951014
v -0.22043105 0.22480021 0.14138881
v -0.20801319 0.22778404 0.13609883
v -0.21646722 0.23278404 0.13797750
v -0.17720489 0.28244726 0.12925254
v -0.17216933 0.29043109 0.13066399
v -0.18565892 0.28744726 0.13113121
v -0.18062336 0.29543109 0.13254266
v -0.17113231 0.29222919 0.13054501
v -0.17958634 0.29722919 0.13242368
v -0.17034654 0.29391017 0.12960713
v -0.17880057 0.29891017 0.13148580
v -0.16994789 0.29518336 0.12801252
v -0.17840192 0.30018336 0.12989119
v -0.17000528 0.29582863 0.12603690
v -0.17845931 0.30082863 0.12791557
f 1 2 3
f 2 4 3
f 5 6 7
f 8 9 10
f 11 12 13
f 14 11 15
f 11 13 15
f 15 13 16
f 13 17 16
f 16 17 7
f 17 18 7
f 18 19 7
f 7 19 20
f 10 5 8
f 5 7 8
f 8 7 21
f 7 20 21
f 21 20 22
f 23 24 25
f 23 25 26
f 25 27 26
f 26 27 28
f 27 29 28
f 28 29 30
f 31 32 33
f 34 35 36
f 35 37 36
f 36 37 38
f 37 31 38
f 38 31 39
f 31 33 39
f 40 34 41
f 34 36 41
f 41 36 42
f 36 38 42
f 42 38 43
f 38 39 43
f 44 40 45
f 40 41 45
f 45 41 46
f 41 42 46
f 46 42 47
f 42 43 47
f 48 49 50
f 48 50 51
f 50 52 51
f 51 52 53
f 52 54 53
f 53 54 55
f 56 57 58
f 57 59 58
f 57 60 59
f 60 61 59
f 59 61 62
f 61 63 62
f 62 63 64
f 63 65 64
f 66 67 68
f 67 69 68
f 70 71 72
f 71 73 72
f 66 68 74
f 68 75 74
f 74 75 76
f 75 77 76
f 76 77 78
f 77 79 78
f 80 81 82
f 80 82 83
f 82 84 83
f 83 84 85
f 84 86 85
f 85 86 87
f 88 89 90
f 91 81 80
f 92 93 91
f 90 92 88
f 92 91 88
f 88 91 94
f 91 80 94
f 95 96 97
f 95 97 98
f 97 99 98
f 98 99 100
f 99 101 100
f 100 101 102
f 103 104 105
f 104 106 105
f 107 30 108
f 30 29 108
f 107 108 109
f 107 109 110
f 109 111 110
f 110 111 112
f 111 113 112
f 112 113 114
f 115 116 117
f 115 117 118
f 117 119 118
f 118 119 120
f 119 103 120
f 120 103 105
f 121 49 122
f 49 48 122
f 123 124 125
f 124 126 125
f 125 126 127
f 126 128 127
f 127 128 2
f 128 4 2
f 129 130 131
f 130 132 131
f 131 132 133
f 132 134 133
f 133 134 135
f 134 136 135
f 135 136 137
f 136 138 137
f 137 138 139
f 138 140 139
f 139 140 141
f 140 142 141
f 141 142 143
f 142 144 143
f 143 144 145
f 144 146 145
f 145 146 147
f 146 148 147
f 147 148 149
f 148 150 149
f 149 150 151
f 150 152 151
f 151 152 129
f 152 130 129
f 153 154 155
f 154 156 155
f 155 156 157
f 156 158 157
f 157 158 159
f 160 154 161
f 154 162 161
f 153 163 154
f 163 164 154
f 154 164 162
f 165 166 167
f 166 159 167
f 167 159 168
f 159 158 168
f 168 158 169
f 158 170 169
f 171 172 173
f 172 174 173
f 173 174 175
f 174 176 175
f 175 176 177
f 176 178 177
f 177 178 179
f 178 180 179
f 179 180 181
f 180 182 181
f 181 182 183
f 182 184 183
f 183 184 185
f 184 186 185
f 185 186 187
f 186 188 187
f 187 188 189
f 188 190 189
f 189 190 191
f 190 192 191
f 191 192 193
f 192 194 193
f 193 194 171
f 194 172 171
f 195 196 197
f 196 198 197
f 199 200 201
f 200 202 201
f 201 202 203
f 202 204 203
f 203 204 205
f 204 206 205
f 205 206 207
f 206 208 207
f 207 208 209
f 208 210 209
f 209 210 211
f 210 212 211
f 211 212 213
f 212 214 213
f 213 214 215
f 214 216 215
f 215 216 217
f 216 218 217
f 217 218 219
f 218 220 219
f 219 220 221
f 220 222 221
f 221 222 199
f 222 200 199
f 223 224 225
f 224 226 225
f 227 228 229
f 230 231 232
f 233 234 235
f 234 236 235
f 237 238 239
f 234 240 236
f 240 241 236
f 236 241 242
f 241 243 242
f 242 243 244
f 243 245 244
f 246 247 248
f 247 249 248
f 248 249 250
f 249 251 250
f 252 253 254
f 227 229 232
f 255 256 251
f 256 257 251
f 251 257 250
f 254 253 258
f 253 259 258
f 258 259 260
f 259 261 260
f 260 261 233
f 261 262 233
f 233 262 234
f 262 263 234
f 234 263 264
f 232 229 230
f 229 265 230
f 230 265 264
f 265 266 264
f 264 266 234
f 266 267 234
f 234 267 268
f 237 239 269
f 239 270 269
f 269 270 271
f 270 256 271
f 271 256 272
f 256 255 272
f 272 255 273
f 274 275 276
f 275 246 276
f 276 246 277
f 246 248 277
f 277 248 243
f 248 278 243
f 243 278 245
f 238 237 279
f 237 252 279
f 279 252 280
f 255 281 273
f 281 282 273
f 273 282 283
f 282 284 283
f 283 284 285
f 284 286 285
f 254 287 252
f 287 288 252
f 252 288 280
f 288 289 280
f 280 289 290
f 289 245 290
f 290 245 291
f 245 278 291
f 284 292 286
f 292 293 286
f 286 293 274
f 267 294 268
f 294 295 268
f 268 295 296
f 295 297 296
f 296 297 298
f 297 299 298
f 298 299 300
f 299 286 300
f 300 286 301
f 286 274 301
f 301 274 302
f 274 276 302
f 303 304 305
f 303 305 306
f 305 307 306
f 306 307 308
f 309 310 311
f 310 312 311
f 311 312 313
f 312 314 313
f 313 314 315
f 314 316 315
f 315 316 317
f 316 318 317
f 317 318 319
f 318 320 319
f 319 320 321
f 320 322 321
f 321 322 323
f 322 324 323
f 323 324 325
f 324 326 325
f 325 326 327
f 326 328 327
f 327 328 329
f 328 330 329
f 329 330 331
f 330 332 331
f 331 332 309
f 332 310 309
f 333 334 335
f 334 336 335
f 337 304 338
f 304 303 338
f 339 340 341
f 340 342 341
f 343 344 345
f 344 346 345
f 345 346 347
f 346 348 347
f 349 350 351
f 350 352 351
f 353 354 355
f 353 355 352
f 356 351 357
f 351 352 357
f 357 352 358
f 352 355 358
f 23 55 24
f 55 54 24
f 359 360 361
f 360 362 361
f 363 364 365
f 366 367 368
f 369 370 371
f 370 372 371
f 371 372 373
f 372 374 373
f 373 374 375
f 376 366 377
f 366 378 377
f 379 380 381
f 380 382 381
f 381 382 383
f 382 384 383
f 375 374 385
f 374 386 385
f 385 386 387
f 386 388 387
f 387 388 389
f 388 390 389
f 389 390 391
f 392 378 393
f 378 366 393
f 393 366 394
f 366 368 394
f 394 368 369
f 368 395 369
f 369 395 370
f 389 396 397
f 396 398 397
f 397 398 399
f 398 361 399
f 399 361 400
f 361 362 400
f 400 362 379
f 362 401 379
f 379 401 380
f 359 361 402
f 361 403 402
f 402 403 404
f 403 405 404
f 404 405 406
f 391 407 408
f 408 409 391
f 409 410 391
f 391 410 389
f 410 411 389
f 389 411 396
f 382 412 384
f 412 413 384
f 384 413 414
f 363 365 406
f 365 415 406
f 406 415 404
f 416 417 418
f 417 404 418
f 418 404 419
f 404 415 419
f 420 421 422
f 421 423 422
f 422 423 424
f 423 425 424
f 424 425 426
f 425 427 426
f 426 427 428
f 427 429 428
f 428 429 430
f 429 384 430
f 430 384 416
f 384 414 416
f 416 414 417
f 367 366 431
f 366 432 431
f 431 432 407
f 432 433 407
f 407 433 421
f 420 434 421
f 434 365 421
f 421 365 407
f 365 364 407
f 407 364 408
f 435 436 437
f 436 438 437
f 437 438 439
f 438 440 439
f 439 440 441
f 440 442 441
f 441 442 443
f 442 444 443
f 443 444 445
f 444 446 445
f 445 446 447
f 446 448 447
f 447 448 449
f 448 450 449
f 449 450 451
f 450 452 451
f 451 452 453
f 452 454 453
f 453 454 455
f 454 456 455
f 455 456 457
f 456 458 457
f 457 458 435
f 458 436 435
f 459 460 461
f 460 462 461
f 461 462 463
f 462 464 463
f 463 464 465
f 464 466 465
f 465 466 467
f 466 468 467
f 467 468 469
f 468 470 469
f 469 470 471
f 470 472 471
f 471 472 473
f 472 474 473
f 473 474 475
f 474 476 475
f 475 476 477
f 476 478 477
f 477 478 479
f 478 480 479
f 479 480 481
f 480 482 481
f 481 482 459
f 482 460 459
f 483 484 485
f 484 486 485
f 485 486 487
f 486 488 487
f 487 488 489
f 488 490 489
f 489 490 491
f 490 492 491
f 491 492 493
f 492 494 493
f 493 494 495
f 494 496 495
f 495 496 497
f 496 498 497
f 497 498 499
f 498 500 499
f 499 500 501
f 500 502 501
f 501 502 503
f 502 504 503
f 503 504 505
f 504 506 505
f 505 506 483
f 506 484 483
f 507 508 509
f 507 509 510
f 511 510 512
f 513 511 512
f 514 513 512
f 515 514 512
f 516 515 517
f 518 516 517
f 519 518 520
f 521 519 520
f 522 521 520
f 508 522 520
f 523 524 525
f 524 526 525
f 525 526 527
f 526 528 527
f 527 528 529
f 528 530 529
f 529 530 531
f 530 532 531
f 531 532 533
f 532 534 533
f 533 534 535
f 534 536 535
f 535 536 537
f 536 538 537
f 537 538 539
f 538 540 539
f 539 540 541
f 540 542 541
f 541 542 543
f 542 544 543
f 543 544 545
f 544 546 545
f 545 546 523
f 546 524 523
f 546 508 524
f 508 507 524
f 524 507 526
f 507 510 526
f 526 510 528
f 510 511 528
f 528 511 530
f 511 513 530
f 530 513 532
f 513 514 532
f 532 514 534
f 514 515 534
f 534 515 536
f 515 516 536
f 536 516 538
f 516 518 538
f 538 518 540
f 518 519 540
f 540 519 542
f 519 521 542
f 542 521 544
f 521 522 544
f 544 522 546
f 522 508 546
f 547 548 549
f 550 548 547
f 547 551 552
f 553 551 554
f 549 553 554
f 554 555 556
f 557 555 558
f 552 557 558
f 558 559 560
f 561 559 562
f 556 561 562
f 560 550 562
f 548 563 549
f 563 564 549
f 549 564 553
f 564 565 553
f 553 565 551
f 565 566 551
f 551 566 552
f 566 567 552
f 552 567 557
f 567 568 557
f 557 568 555
f 568 569 555
f 555 569 556
f 569 570 556
f 556 570 561
f 570 571 561
f 561 571 559
f 571 572 559
f 559 572 560
f 572 573 560
f 560 573 550
f 573 574 550
f 550 574 548
f 574 563 548
f 563 452 564
f 452 450 564
f 564 450 565
f 450 575 565
f 565 575 566
f 575 446 566
f 566 446 567
f 446 444 567
f 567 444 568
f 444 576 568
f 568 576 569
f 576 440 569
f 569 440 570
f 440 438 570
f 570 438 571
f 438 577 571
f 571 577 572
f 577 458 572
f 572 458 573
f 458 456 573
f 573 456 574
f 456 454 574
f 574 454 563
f 454 452 563
f 578 579 580
f 579 581 580
f 580 581 582
f 581 583 582
f 582 583 584
f 583 585 584
f 584 585 586
f 585 587 586
f 586 587 588
f 587 589 588
f 588 589 590
f 589 591 590
f 590 591 592
f 591 593 592
f 592 593 594
f 593 595 594
f 594 595 596
f 595 597 596
f 596 597 598
f 597 599 598
f 598 599 600
f 599 601 600
f 600 601 578
f 601 579 578
f 602 603 604
f 602 604 605
f 604 606 605
f 605 606 607
f 606 608 607
f 607 608 609
f 608 610 609
f 609 610 611
f 612 613 614
f 613 615 614
f 616 603 617
f 603 602 617
f 618 619 620
f 618 620 621
f 620 622 621
f 621 622 623
f 622 624 623
f 623 624 625
f 626 627 610
f 627 611 610
f 628 629 630
f 631 632 633
f 634 629 635
f 629 636 635
f 635 636 637
f 636 638 637
f 637 638 639
f 634 640 629
f 640 641 629
f 629 641 630
f 642 643 644
f 645 646 647
f 641 642 630
f 642 644 630
f 630 644 648
f 644 649 648
f 648 649 646
f 632 650 633
f 650 651 633
f 633 651 652
f 651 653 652
f 652 653 654
f 653 655 654
f 654 655 656
f 655 657 656
f 656 657 658
f 657 659 658
f 658 659 660
f 659 661 660
f 660 661 662
f 661 663 662
f 662 663 664
f 643 665 644
f 665 666 644
f 644 666 667
f 666 668 667
f 667 668 669
f 668 670 669
f 669 670 671
f 670 639 671
f 671 639 672
f 639 638 672
f 664 647 662
f 647 646 662
f 662 646 673
f 646 649 673
f 674 675 676
f 677 678 679
f 675 674 680
f 674 681 680
f 680 681 682
f 681 683 682
f 682 683 684
f 676 685 674
f 685 686 674
f 674 686 687
f 686 688 687
f 687 688 689
f 688 690 689
f 689 690 691
f 690 692 691
f 691 692 633
f 692 645 633
f 633 645 631
f 645 647 631
f 679 693 677
f 693 694 677
f 677 694 695
f 694 696 695
f 695 696 697
f 696 698 697
f 697 698 699
f 698 684 699
f 699 684 700
f 684 683 700
f 685 678 686
f 678 677 686
f 686 677 701
f 677 702 701
f 701 702 703
f 702 704 703
f 703 704 705
f 704 706 705
f 705 706 707
f 708 709 710
f 708 710 707
f 710 711 707
f 707 711 705
f 708 712 713
f 630 714 628
f 714 715 628
f 628 715 716
f 715 709 716
f 716 709 717
f 709 718 717
f 718 719 720
f 719 721 720
f 720 721 722
f 721 723 722
f 722 723 724
f 723 725 724
f 712 708 726
f 708 727 726
f 726 727 728
f 727 729 728
f 728 729 725
f 729 730 725
f 725 730 724
f 713 731 708
f 731 732 708
f 708 732 709
f 732 733 709
f 709 733 718
f 733 734 718
f 718 734 719
f 735 736 737
f 738 739 740
f 741 742 743
f 744 745 741
f 745 746 741
f 741 746 742
f 747 748 749
f 750 751 748
f 751 738 748
f 748 738 749
f 738 740 749
f 749 740 752
f 740 753 752
f 752 753 754
f 739 755 740
f 755 756 740
f 740 756 757
f 756 758 757
f 757 758 759
f 758 760 759
f 759 760 761
f 760 762 761
f 761 762 763
f 762 764 763
f 763 764 765
f 764 766 765
f 765 766 748
f 766 767 748
f 748 767 750
f 768 754 769
f 770 771 772
f 744 773 745
f 773 774 745
f 745 774 775
f 774 776 775
f 775 776 777
f 776 778 777
f 777 778 779
f 778 780 779
f 779 780 781
f 780 772 781
f 781 772 782
f 772 771 782
f 743 769 741
f 769 754 741
f 741 754 783
f 754 753 783
f 784 785 736
f 749 786 747
f 786 787 747
f 747 787 788
f 787 735 788
f 788 735 789
f 735 737 789
f 790 785 791
f 785 792 791
f 791 792 793
f 794 737 795
f 737 736 795
f 795 736 796
f 736 785 796
f 796 785 797
f 785 790 797
f 792 798 793
f 798 799 793
f 793 799 800
f 799 801 800
f 800 801 802
f 801 803 802
f 802 803 804
f 803 805 804
f 804 805 806
f 805 737 806
f 806 737 807
f 737 794 807
f 736 808 784
f 808 809 784
f 784 809 810
f 809 811 810
f 810 811 812
f 813 814 815
f 816 817 818
f 818 817 815
f 817 819 815
f 815 819 813
f 812 811 820
f 811 815 820
f 820 815 821
f 815 814 821
f 821 814 822
f 814 823 822
f 822 823 824
f 823 825 824
f 824 825 826
f 825 827 826
f 826 827 828
f 827 829 828
f 828 829 830
f 830 829 831
f 829 832 831
f 831 832 833
f 832 834 833
f 833 834 835
f 835 816 833
f 816 818 833
f 833 818 836
f 818 837 836
f 836 837 838
f 837 839 838
f 838 839 840
f 839 841 840
f 840 841 772
f 841 768 772
f 772 768 770
f 768 769 770
f 842 843 844
f 842 844 845
f 844 846 845
f 845 846 847
f 846 848 847
f 847 848 849
f 850 851 852
f 851 853 852
f 852 853 854
f 853 855 854
f 854 855 856
f 855 857 856
f 856 857 858
f 857 859 858
f 858 859 860
f 859 861 860
f 860 861 862
f 861 863 862
f 862 863 864
f 863 865 864
f 864 865 866
f 865 867 866
f 866 867 868
f 867 869 868
f 868 869 870
f 869 871 870
f 870 871 872
f 871 873 872
f 872 873 850
f 873 851 850
f 874 875 876
f 874 876 877
f 876 878 877
f 877 878 879
f 878 880 879
f 879 880 881
f 882 883 884
f 883 885 884
f 884 885 886
f 885 887 886
f 886 887 888
f 887 889 888
f 888 889 890
f 889 891 890
f 890 891 892
f 891 893 892
f 892 893 894
f 893 895 894
f 894 895 896
f 895 897 896
f 896 897 898
f 897 899 898
f 898 899 900
f 899 901 900
f 900 901 902
f 901 903 902
f 902 903 904
f 903 905 904
f 904 905 882
f 905 883 882
f 906 907 908
f 906 908 909
f 908 910 909
f 909 910 911
f 910 912 911
f 911 912 913
f 914 915 916
f 915 917 916
f 916 917 918
f 917 919 918
f 918 919 920
f 919 921 920
f 920 921 922
f 921 923 922
f 922 923 924
f 923 925 924
f 924 925 926
f 925 927 926
f 926 927 928
f 927 929 928
f 928 929 930
f 929 931 930
f 930 931 932
f 931 933 932
f 932 933 934
f 933 935 934
f 934 935 936
f 935 937 936
f 936 937 914
f 937 915 914
f 938 939 940
f 939 941 940
f 942 943 944
f 943 945 944
f 944 945 946
f 945 947 946
f 946 947 948
f 947 949 948
f 948 949 950
f 949 951 950
f 950 951 952
f 951 953 952
f 952 953 954
f 953 955 954
f 954 955 956
f 955 957 956
f 956 957 958
f 957 959 958
f 958 959 960
f 959 961 960
f 960 961 962
f 961 963 962
f 962 963 964
f 963 965 964
f 964 965 942
f 965 943 942
f 941 939 966
f 941 966 967
f 966 968 967
f 967 968 969
f 968 970 969
f 969 970 971
f 970 972 971
f 971 972 973
f 972 974 973
f 973 974 975
f 976 977 978
f 977 979 978
f 978 979 980
f 979 981 980
f 980 981 982
f 981 983 982
f 982 983 984
f 983 985 984
f 984 985 986
f 985 987 986
f 986 987 988
f 987 989 988
f 988 989 990
f 989 991 990
f 990 991 992
f 991 993 992
f 992 993 994
f 993 995 994
f 994 995 996
f 995 997 996
f 996 997 998
f 997 999 998
f 998 999 976
f 999 977 976
f 1000 1001 974
f 1001 975 974
f 1002 1003 1004
f 1003 1005 1004
f 1004 1005 1006
f 1005 1007 1006
f 1006 1007 1008
f 1007 1009 1008
f 1008 1009 1010
f 1009 1011 1010
f 1010 1011 1012
f 1011 1013 1012
f 1012 1013 1014
f 1013 1015 1014
f 1014 1015 1016
f 1015 1017 1016
f 1016 1017 1018
f 1017 1019 1018
f 1018 1019 1020
f 1019 1021 1020
f 1020 1021 1022
f 1021 1023 1022
f 1022 1023 1024
f 1023 1025 1024
f 1024 1025 1002
f 1025 1003 1002
f 1026 1027 1028
f 1027 1029 1028
f 1030 1031 1032
f 1031 1033 1032
f 1032 1033 1034
f 1033 1035 1034
f 1034 1035 1036
f 1035 1037 1036
f 1036 1037 1038
f 1037 1039 1038
f 1038 1039 1040
f 1039 1041 1040
f 1040 1041 1042
f 1041 1043 1042
f 1042 1043 1044
f 1043 1045 1044
f 1044 1045 1046
f 1045 1047 1046
f 1046 1047 1048
f 1047 1049 1048
f 1048 1049 1050
f 1049 1051 1050
f 1050 1051 1052
f 1051 1053 1052
f 1052 1053 1030
f 1053 1031 1030
f 1029 1027 1054
f 1029 1054 1055
f 1054 1056 1055
f 1055 1056 1057
f 1056 1058 1057
f 1057 1058 1059
f 1058 1060 1059
f 1059 1060 1061
f 1060 1062 1061
f 1061 1062 1063
f 1064 1065 1062
f 1065 1063 1062
f 1066 1067 1068
f 1067 1069 1068
f 1069 1067 1070
f 1069 1070 1071
f 1070 1072 1071
f 1071 1072 1073
f 1072 1074 1073
f 1073 1074 1075
f 1074 1076 1075
f 1075 1076 1077
f 1076 614 1077
f 1077 614 615

