# https://github.com/mikedh/trimesh
v 0.07350000 0.25150000 0.19350000
v 0.07350000 0.27650000 0.19350000
v 0.07350000 0.25150000 0.19290000
v 0.07350000 0.27650000 0.19290000
v 0.08550000 0.27650000 0.19350000
v 0.08550000 0.25150000 0.19350000
v 0.08550000 0.27650000 0.19290000
v 0.08550000 0.25150000 0.19290000
v 0.08550000 0.25150000 0.19350000
v 0.07350000 0.25150000 0.19350000
v 0.08550000 0.25150000 0.19290000
v 0.07350000 0.25150000 0.19290000
v 0.07625000 0.27200000 0.19350000
v 0.07625000 0.27200000 0.19290000
v 0.07648446 0.27287500 0.19350000
v 0.07648446 0.27287500 0.19290000
v 0.07712500 0.27351554 0.19350000
v 0.07712500 0.27351554 0.19290000
v 0.07800000 0.27375000 0.19350000
v 0.07800000 0.27375000 0.19290000
v 0.07887500 0.27351554 0.19350000
v 0.07887500 0.27351554 0.19290000
v 0.07951554 0.27287500 0.19350000
v 0.07951554 0.27287500 0.19290000
v 0.07975000 0.27200000 0.19350000
v 0.07975000 0.27200000 0.19290000
v 0.07951554 0.27112500 0.19350000
v 0.07951554 0.27112500 0.19290000
v 0.07887500 0.27048446 0.19350000
v 0.07887500 0.27048446 0.19290000
v 0.07800000 0.27025000 0.19350000
v 0.07800000 0.27025000 0.19290000
v 0.07712500 0.27048446 0.19350000
v 0.07712500 0.27048446 0.19290000
v 0.07648446 0.27112500 0.19350000
v 0.07648446 0.27112500 0.19290000
v 0.07887500 0.25448446 0.19290000
v 0.07951554 0.25512500 0.19290000
v 0.08550000 0.25150000 0.19290000
v 0.07975000 0.25600000 0.19290000
v 0.07648446 0.27287500 0.19290000
v 0.07625000 0.27200000 0.19290000
v 0.07350000 0.27650000 0.19290000
v 0.07648446 0.27112500 0.19290000
v 0.07951554 0.27287500 0.19290000
v 0.07887500 0.27351554 0.19290000
v 0.08550000 0.27650000 0.19290000
v 0.07800000 0.27375000 0.19290000
v 0.07712500 0.27351554 0.19290000
v 0.07951554 0.25687500 0.19290000
v 0.07800000 0.27025000 0.19290000
v 0.07887500 0.27048446 0.19290000
v 0.07951554 0.27112500 0.19290000
v 0.07975000 0.27200000 0.19290000
v 0.07800000 0.25425000 0.19290000
v 0.07350000 0.25150000 0.19290000
v 0.07712500 0.25448446 0.19290000
v 0.07887500 0.25751554 0.19290000
v 0.07800000 0.25775000 0.19290000
v 0.07712500 0.27048446 0.19290000
v 0.07712500 0.25751554 0.19290000
v 0.07648446 0.25687500 0.19290000
v 0.07625000 0.25600000 0.19290000
v 0.07648446 0.25512500 0.19290000
v 0.07887500 0.27048446 0.19350000
v 0.07625000 0.25600000 0.19350000
v 0.07648446 0.25687500 0.19350000
v 0.07951554 0.27287500 0.19350000
v 0.07975000 0.27200000 0.19350000
v 0.08550000 0.27650000 0.19350000
v 0.07951554 0.27112500 0.19350000
v 0.07712500 0.25751554 0.19350000
v 0.07800000 0.25775000 0.19350000
v 0.07887500 0.25751554 0.19350000
v 0.07951554 0.25687500 0.19350000
v 0.08550000 0.25150000 0.19350000
v 0.07975000 0.25600000 0.19350000
v 0.07951554 0.25512500 0.19350000
v 0.07887500 0.25448446 0.19350000
v 0.07800000 0.25425000 0.19350000
v 0.07350000 0.25150000 0.19350000
v 0.07625000 0.27200000 0.19350000
v 0.07350000 0.27650000 0.19350000
v 0.07648446 0.27287500 0.19350000
v 0.07712500 0.25448446 0.19350000
v 0.07648446 0.25512500 0.19350000
v 0.07712500 0.27351554 0.19350000
v 0.07800000 0.27375000 0.19350000
v 0.07887500 0.27351554 0.19350000
v 0.07800000 0.27025000 0.19350000
v 0.07712500 0.27048446 0.19350000
v 0.07648446 0.27112500 0.19350000
v 0.07625000 0.25600000 0.19350000
v 0.07625000 0.25600000 0.19290000
v 0.07648446 0.25687500 0.19350000
v 0.07648446 0.25687500 0.19290000
v 0.07712500 0.25751554 0.19350000
v 0.07712500 0.25751554 0.19290000
v 0.07800000 0.25775000 0.19350000
v 0.07800000 0.25775000 0.19290000
v 0.07887500 0.25751554 0.19350000
v 0.07887500 0.25751554 0.19290000
v 0.07951554 0.25687500 0.19350000
v 0.07951554 0.25687500 0.19290000
v 0.07975000 0.25600000 0.19350000
v 0.07975000 0.25600000 0.19290000
v 0.07951554 0.25512500 0.19350000
v 0.07951554 0.25512500 0.19290000
v 0.07887500 0.25448446 0.19350000
v 0.07887500 0.25448446 0.19290000
v 0.07800000 0.25425000 0.19350000
v 0.07800000 0.25425000 0.19290000
v 0.07712500 0.25448446 0.19350000
v 0.07712500 0.25448446 0.19290000
v 0.07648446 0.25512500 0.19350000
v 0.07648446 0.25512500 0.19290000
v 0.07350000 0.27650000 0.19350000
v 0.08550000 0.27650000 0.19350000
v 0.07350000 0.27650000 0.19290000
v 0.08550000 0.27650000 0.19290000
v -0.05900000 0.30100000 0.17350000
v -0.05859808 0.30250000 0.19350000
v -0.05859808 0.30250000 0.17350000
v -0.05750000 0.30359808 0.19350000
v -0.05750000 0.30359808 0.17350000
v -0.05600000 0.30400000 0.19350000
v -0.05600000 0.30400000 0.17350000
v -0.05450000 0.30359808 0.19350000
v -0.05450000 0.30359808 0.17350000
v -0.05340192 0.30250000 0.19350000
v -0.05340192 0.30250000 0.17350000
v -0.05300000 0.30100000 0.19350000
v -0.05300000 0.30100000 0.17350000
v -0.05340192 0.29950000 0.19350000
v -0.05340192 0.29950000 0.17350000
v -0.05450000 0.29840192 0.19350000
v -0.05450000 0.29840192 0.17350000
v -0.05600000 0.29800000 0.19350000
v -0.05600000 0.29800000 0.17350000
v -0.05750000 0.29840192 0.19350000
v -0.05750000 0.29840192 0.17350000
v -0.05859808 0.29950000 0.19350000
v -0.05859808 0.29950000 0.17350000
v -0.05900000 0.30100000 0.19350000
v -0.05450000 0.30100000 0.17350000
v -0.05300000 0.30100000 0.17350000
v -0.05470096 0.30025000 0.17350000
v -0.05340192 0.29950000 0.17350000
v -0.05525000 0.29970096 0.17350000
v -0.05450000 0.29840192 0.17350000
v -0.05600000 0.29950000 0.17350000
v -0.05600000 0.29800000 0.17350000
v -0.05675000 0.29970096 0.17350000
v -0.05750000 0.29840192 0.17350000
v -0.05729904 0.30025000 0.17350000
v -0.05859808 0.29950000 0.17350000
v -0.05750000 0.30100000 0.17350000
v -0.05900000 0.30100000 0.17350000
v -0.05729904 0.30175000 0.17350000
v -0.05859808 0.30250000 0.17350000
v -0.05675000 0.30229904 0.17350000
v -0.05750000 0.30359808 0.17350000
v -0.05600000 0.30250000 0.17350000
v -0.05600000 0.30400000 0.17350000
v -0.05525000 0.30229904 0.17350000
v -0.05450000 0.30359808 0.17350000
v -0.05470096 0.30175000 0.17350000
v -0.05340192 0.30250000 0.17350000
v -0.05470096 0.30175000 0.19350000
v -0.05340192 0.30250000 0.19350000
v -0.05525000 0.30229904 0.19350000
v -0.05450000 0.30359808 0.19350000
v -0.05600000 0.30250000 0.19350000
v -0.05600000 0.30400000 0.19350000
v -0.05675000 0.30229904 0.19350000
v -0.05750000 0.30359808 0.19350000
v -0.05729904 0.30175000 0.19350000
v -0.05859808 0.30250000 0.19350000
v -0.05750000 0.30100000 0.19350000
v -0.05900000 0.30100000 0.19350000
v -0.05729904 0.30025000 0.19350000
v -0.05859808 0.29950000 0.19350000
v -0.05675000 0.29970096 0.19350000
v -0.05750000 0.29840192 0.19350000
v -0.05600000 0.29950000 0.19350000
v -0.05600000 0.29800000 0.19350000
v -0.05525000 0.29970096 0.19350000
v -0.05450000 0.29840192 0.19350000
v -0.05470096 0.30025000 0.19350000
v -0.05340192 0.29950000 0.19350000
v -0.05450000 0.30100000 0.19350000
v -0.05300000 0.30100000 0.19350000
v -0.05750000 0.30100000 0.19350000
v -0.05750000 0.30100000 0.17350000
v -0.05729904 0.30175000 0.19350000
v -0.05729904 0.30175000 0.17350000
v -0.05675000 0.30229904 0.19350000
v -0.05675000 0.30229904 0.17350000
v -0.05600000 0.30250000 0.19350000
v -0.05600000 0.30250000 0.17350000
v -0.05525000 0.30229904 0.19350000
v -0.05525000 0.30229904 0.17350000
v -0.05470096 0.30175000 0.19350000
v -0.05470096 0.30175000 0.17350000
v -0.05450000 0.30100000 0.19350000
v -0.05450000 0.30100000 0.17350000
v -0.05470096 0.30025000 0.19350000
v -0.05470096 0.30025000 0.17350000
v -0.05525000 0.29970096 0.19350000
v -0.05525000 0.29970096 0.17350000
v -0.05600000 0.29950000 0.19350000
v -0.05600000 0.29950000 0.17350000
v -0.05675000 0.29970096 0.19350000
v -0.05675000 0.29970096 0.17350000
v -0.05729904 0.30025000 0.19350000
v -0.05729904 0.30025000 0.17350000
v 0.09422194 0.25150000 0.18465817
v 0.09422194 0.27650000 0.18465817
v 0.09463403 0.25150000 0.18509427
v 0.09463403 0.27650000 0.18509427
v 0.08550000 0.27650000 0.19290000
v 0.08550000 0.25150000 0.19290000
v 0.08591209 0.27650000 0.19333610
v 0.08591209 0.25150000 0.19333610
v 0.08550000 0.25150000 0.19290000
v 0.09422194 0.25150000 0.18465817
v 0.08591209 0.25150000 0.19333610
v 0.09463403 0.25150000 0.18509427
v 0.09222316 0.27200000 0.18654693
v 0.09263525 0.27200000 0.18698302
v 0.09205275 0.27287500 0.18670795
v 0.09246484 0.27287500 0.18714405
v 0.09158719 0.27351554 0.18714789
v 0.09199928 0.27351554 0.18758399
v 0.09095121 0.27375000 0.18774886
v 0.09136330 0.27375000 0.18818496
v 0.09031524 0.27351554 0.18834983
v 0.09072733 0.27351554 0.18878592
v 0.08984967 0.27287500 0.18878977
v 0.09026176 0.27287500 0.18922586
v 0.08967926 0.27200000 0.18895079
v 0.09009135 0.27200000 0.18938689
v 0.08984967 0.27112500 0.18878977
v 0.09026176 0.27112500 0.18922586
v 0.09031524 0.27048446 0.18834983
v 0.09072733 0.27048446 0.18878592
v 0.09095121 0.27025000 0.18774886
v 0.09136330 0.27025000 0.18818496
v 0.09158719 0.27048446 0.18714789
v 0.09199928 0.27048446 0.18758399
v 0.09205275 0.27112500 0.18670795
v 0.09246484 0.27112500 0.18714405
v 0.09072733 0.25448446 0.18878592
v 0.09026176 0.25512500 0.18922586
v 0.08591209 0.25150000 0.19333610
v 0.09009135 0.25600000 0.18938689
v 0.09246484 0.27287500 0.18714405
v 0.09263525 0.27200000 0.18698302
v 0.09463403 0.27650000 0.18509427
v 0.09246484 0.27112500 0.18714405
v 0.09026176 0.27287500 0.18922586
v 0.09072733 0.27351554 0.18878592
v 0.08591209 0.27650000 0.19333610
v 0.09136330 0.27375000 0.18818496
v 0.09199928 0.27351554 0.18758399
v 0.09026176 0.25687500 0.18922586
v 0.09136330 0.27025000 0.18818496
v 0.09072733 0.27048446 0.18878592
v 0.09026176 0.27112500 0.18922586
v 0.09009135 0.27200000 0.18938689
v 0.09136330 0.25425000 0.18818496
v 0.09463403 0.25150000 0.18509427
v 0.09199928 0.25448446 0.18758399
v 0.09072733 0.25751554 0.18878592
v 0.09136330 0.25775000 0.18818496
v 0.09199928 0.27048446 0.18758399
v 0.09199928 0.25751554 0.18758399
v 0.09246484 0.25687500 0.18714405
v 0.09263525 0.25600000 0.18698302
v 0.09246484 0.25512500 0.18714405
v 0.09031524 0.27048446 0.18834983
v 0.09222316 0.25600000 0.18654693
v 0.09205275 0.25687500 0.18670795
v 0.08984967 0.27287500 0.18878977
v 0.08967926 0.27200000 0.18895079
v 0.08550000 0.27650000 0.19290000
v 0.08984967 0.27112500 0.18878977
v 0.09158719 0.25751554 0.18714789
v 0.09095121 0.25775000 0.18774886
v 0.09031524 0.25751554 0.18834983
v 0.08984967 0.25687500 0.18878977
v 0.08550000 0.25150000 0.19290000
v 0.08967926 0.25600000 0.18895079
v 0.08984967 0.25512500 0.18878977
v 0.09031524 0.25448446 0.18834983
v 0.09095121 0.25425000 0.18774886
v 0.09422194 0.25150000 0.18465817
v 0.09222316 0.27200000 0.18654693
v 0.09422194 0.27650000 0.18465817
v 0.09205275 0.27287500 0.18670795
v 0.09158719 0.25448446 0.18714789
v 0.09205275 0.25512500 0.18670795
v 0.09158719 0.27351554 0.18714789
v 0.09095121 0.27375000 0.18774886
v 0.09031524 0.27351554 0.18834983
v 0.09095121 0.27025000 0.18774886
v 0.09158719 0.27048446 0.18714789
v 0.09205275 0.27112500 0.18670795
v 0.09222316 0.25600000 0.18654693
v 0.09263525 0.25600000 0.18698302
v 0.09205275 0.25687500 0.18670795
v 0.09246484 0.25687500 0.18714405
v 0.09158719 0.25751554 0.18714789
v 0.09199928 0.25751554 0.18758399
v 0.09095121 0.25775000 0.18774886
v 0.09136330 0.25775000 0.18818496
v 0.09031524 0.25751554 0.18834983
v 0.09072733 0.25751554 0.18878592
v 0.08984967 0.25687500 0.18878977
v 0.09026176 0.25687500 0.18922586
v 0.08967926 0.25600000 0.18895079
v 0.09009135 0.25600000 0.18938689
v 0.08984967 0.25512500 0.18878977
v 0.09026176 0.25512500 0.18922586
v 0.09031524 0.25448446 0.18834983
v 0.09072733 0.25448446 0.18878592
v 0.09095121 0.25425000 0.18774886
v 0.09136330 0.25425000 0.18818496
v 0.09158719 0.25448446 0.18714789
v 0.09199928 0.25448446 0.18758399
v 0.09205275 0.25512500 0.18670795
v 0.09246484 0.25512500 0.18714405
v 0.09422194 0.27650000 0.18465817
v 0.08550000 0.27650000 0.19290000
v 0.09463403 0.27650000 0.18509427
v 0.08591209 0.27650000 0.19333610
v 0.09422194 0.19950000 0.18465817
v 0.09422194 0.22450000 0.18465817
v 0.09463403 0.19950000 0.18509427
v 0.09463403 0.22450000 0.18509427
v 0.08550000 0.22450000 0.19290000
v 0.08550000 0.19950000 0.19290000
v 0.08591209 0.22450000 0.19333610
v 0.08591209 0.19950000 0.19333610
v 0.08550000 0.19950000 0.19290000
v 0.09422194 0.19950000 0.18465817
v 0.08591209 0.19950000 0.19333610
v 0.09463403 0.19950000 0.18509427
v 0.09222316 0.22000000 0.18654693
v 0.09263525 0.22000000 0.18698302
v 0.09205275 0.22087500 0.18670795
v 0.09246484 0.22087500 0.18714405
v 0.09158719 0.22151554 0.18714789
v 0.09199928 0.22151554 0.18758399
v 0.09095121 0.22175000 0.18774886
v 0.09136330 0.22175000 0.18818496
v 0.09031524 0.22151554 0.18834983
v 0.09072733 0.22151554 0.18878592
v 0.08984967 0.22087500 0.18878977
v 0.09026176 0.22087500 0.18922586
v 0.08967926 0.22000000 0.18895079
v 0.09009135 0.22000000 0.18938689
v 0.08984967 0.21912500 0.18878977
v 0.09026176 0.21912500 0.18922586
v 0.09031524 0.21848446 0.18834983
v 0.09072733 0.21848446 0.18878592
v 0.09095121 0.21825000 0.18774886
v 0.09136330 0.21825000 0.18818496
v 0.09158719 0.21848446 0.18714789
v 0.09199928 0.21848446 0.18758399
v 0.09205275 0.21912500 0.18670795
v 0.09246484 0.21912500 0.18714405
v 0.09072733 0.20248446 0.18878592
v 0.09026176 0.20312500 0.18922586
v 0.08591209 0.19950000 0.19333610
v 0.09009135 0.20400000 0.18938689
v 0.09246484 0.22087500 0.18714405
v 0.09263525 0.22000000 0.18698302
v 0.09463403 0.22450000 0.18509427
v 0.09246484 0.21912500 0.18714405
v 0.09026176 0.22087500 0.18922586
v 0.09072733 0.22151554 0.18878592
v 0.08591209 0.22450000 0.19333610
v 0.09136330 0.22175000 0.18818496
v 0.09199928 0.22151554 0.18758399
v 0.09026176 0.20487500 0.18922586
v 0.09136330 0.21825000 0.18818496
v 0.09072733 0.21848446 0.18878592
v 0.09026176 0.21912500 0.18922586
v 0.09009135 0.22000000 0.18938689
v 0.09136330 0.20225000 0.18818496
v 0.09463403 0.19950000 0.18509427
v 0.09199928 0.20248446 0.18758399
v 0.09072733 0.20551554 0.18878592
v 0.09136330 0.20575000 0.18818496
v 0.09199928 0.21848446 0.18758399
v 0.09199928 0.20551554 0.18758399
v 0.09246484 0.20487500 0.18714405
v 0.09263525 0.20400000 0.18698302
v 0.09246484 0.20312500 0.18714405
v 0.09031524 0.21848446 0.18834983
v 0.09222316 0.20400000 0.18654693
v 0.09205275 0.20487500 0.18670795
v 0.08984967 0.22087500 0.18878977
v 0.08967926 0.22000000 0.18895079
v 0.08550000 0.22450000 0.19290000
v 0.08984967 0.21912500 0.18878977
v 0.09158719 0.20551554 0.18714789
v 0.09095121 0.20575000 0.18774886
v 0.09031524 0.20551554 0.18834983
v 0.08984967 0.20487500 0.18878977
v 0.08550000 0.19950000 0.19290000
v 0.08967926 0.20400000 0.18895079
v 0.08984967 0.20312500 0.18878977
v 0.09031524 0.20248446 0.18834983
v 0.09095121 0.20225000 0.18774886
v 0.09422194 0.19950000 0.18465817
v 0.09222316 0.22000000 0.18654693
v 0.09422194 0.22450000 0.18465817
v 0.09205275 0.22087500 0.18670795
v 0.09158719 0.20248446 0.18714789
v 0.09205275 0.20312500 0.18670795
v 0.09158719 0.22151554 0.18714789
v 0.09095121 0.22175000 0.18774886
v 0.09031524 0.22151554 0.18834983
v 0.09095121 0.21825000 0.18774886
v 0.09158719 0.21848446 0.18714789
v 0.09205275 0.21912500 0.18670795
v 0.09222316 0.20400000 0.18654693
v 0.09263525 0.20400000 0.18698302
v 0.09205275 0.20487500 0.18670795
v 0.09246484 0.20487500 0.18714405
v 0.09158719 0.20551554 0.18714789
v 0.09199928 0.20551554 0.18758399
v 0.09095121 0.20575000 0.18774886
v 0.09136330 0.20575000 0.18818496
v 0.09031524 0.20551554 0.18834983
v 0.09072733 0.20551554 0.18878592
v 0.08984967 0.20487500 0.18878977
v 0.09026176 0.20487500 0.18922586
v 0.08967926 0.20400000 0.18895079
v 0.09009135 0.20400000 0.18938689
v 0.08984967 0.20312500 0.18878977
v 0.09026176 0.20312500 0.18922586
v 0.09031524 0.20248446 0.18834983
v 0.09072733 0.20248446 0.18878592
v 0.09095121 0.20225000 0.18774886
v 0.09136330 0.20225000 0.18818496
v 0.09158719 0.20248446 0.18714789
v 0.09199928 0.20248446 0.18758399
v 0.09205275 0.20312500 0.18670795
v 0.09246484 0.20312500 0.18714405
v 0.09422194 0.22450000 0.18465817
v 0.08550000 0.22450000 0.19290000
v 0.09463403 0.22450000 0.18509427
v 0.08591209 0.22450000 0.19333610
v -0.08450000 0.30800000 0.09350000
v -0.10950000 0.30800000 0.09350000
v -0.08450000 0.30740000 0.09350000
v -0.10950000 0.30740000 0.09350000
v -0.10950000 0.30800000 0.08150000
v -0.08450000 0.30800000 0.08150000
v -0.10950000 0.30740000 0.08150000
v -0.08450000 0.30740000 0.08150000
v -0.08450000 0.30800000 0.08150000
v -0.08450000 0.30800000 0.09350000
v -0.08450000 0.30740000 0.08150000
v -0.08450000 0.30740000 0.09350000
v -0.10500000 0.30800000 0.09075000
v -0.10500000 0.30740000 0.09075000
v -0.10587500 0.30800000 0.09051554
v -0.10587500 0.30740000 0.09051554
v -0.10651554 0.30800000 0.08987500
v -0.10651554 0.30740000 0.08987500
v -0.10675000 0.30800000 0.08900000
v -0.10675000 0.30740000 0.08900000
v -0.10651554 0.30800000 0.08812500
v -0.10651554 0.30740000 0.08812500
v -0.10587500 0.30800000 0.08748446
v -0.10587500 0.30740000 0.08748446
v -0.10500000 0.30800000 0.08725000
v -0.10500000 0.30740000 0.08725000
v -0.10412500 0.30800000 0.08748446
v -0.10412500 0.30740000 0.08748446
v -0.10348446 0.30800000 0.08812500
v -0.10348446 0.30740000 0.08812500
v -0.10325000 0.30800000 0.08900000
v -0.10325000 0.30740000 0.08900000
v -0.10348446 0.30800000 0.08987500
v -0.10348446 0.30740000 0.08987500
v -0.10412500 0.30800000 0.09051554
v -0.10412500 0.30740000 0.09051554
v -0.08748446 0.30740000 0.08812500
v -0.08812500 0.30740000 0.08748446
v -0.08450000 0.30740000 0.08150000
v -0.08900000 0.30740000 0.08725000
v -0.10587500 0.30740000 0.09051554
v -0.10500000 0.30740000 0.09075000
v -0.10950000 0.30740000 0.09350000
v -0.10412500 0.30740000 0.09051554
v -0.10587500 0.30740000 0.08748446
v -0.10651554 0.30740000 0.08812500
v -0.10950000 0.30740000 0.08150000
v -0.10675000 0.30740000 0.08900000
v -0.10651554 0.30740000 0.08987500
v -0.08987500 0.30740000 0.08748446
v -0.10325000 0.30740000 0.08900000
v -0.10348446 0.30740000 0.08812500
v -0.10412500 0.30740000 0.08748446
v -0.10500000 0.30740000 0.08725000
v -0.08725000 0.30740000 0.08900000
v -0.08450000 0.30740000 0.09350000
v -0.08748446 0.30740000 0.08987500
v -0.09051554 0.30740000 0.08812500
v -0.09075000 0.30740000 0.08900000
v -0.10348446 0.30740000 0.08987500
v -0.09051554 0.30740000 0.08987500
v -0.08987500 0.30740000 0.09051554
v -0.08900000 0.30740000 0.09075000
v -0.08812500 0.30740000 0.09051554
v -0.10348446 0.30800000 0.08812500
v -0.08900000 0.30800000 0.09075000
v -0.08987500 0.30800000 0.09051554
v -0.10587500 0.30800000 0.08748446
v -0.10500000 0.30800000 0.08725000
v -0.10950000 0.30800000 0.08150000
v -0.10412500 0.30800000 0.08748446
v -0.09051554 0.30800000 0.08987500
v -0.09075000 0.30800000 0.08900000
v -0.09051554 0.30800000 0.08812500
v -0.08987500 0.30800000 0.08748446
v -0.08450000 0.30800000 0.08150000
v -0.08900000 0.30800000 0.08725000
v -0.08812500 0.30800000 0.08748446
v -0.08748446 0.30800000 0.08812500
v -0.08725000 0.30800000 0.08900000
v -0.08450000 0.30800000 0.09350000
v -0.10500000 0.30800000 0.09075000
v -0.10950000 0.30800000 0.09350000
v -0.10587500 0.30800000 0.09051554
v -0.08748446 0.30800000 0.08987500
v -0.08812500 0.30800000 0.09051554
v -0.10651554 0.30800000 0.08987500
v -0.10675000 0.30800000 0.08900000
v -0.10651554 0.30800000 0.08812500
v -0.10325000 0.30800000 0.08900000
v -0.10348446 0.30800000 0.08987500
v -0.10412500 0.30800000 0.09051554
v -0.08900000 0.30800000 0.09075000
v -0.08900000 0.30740000 0.09075000
v -0.08987500 0.30800000 0.09051554
v -0.08987500 0.30740000 0.09051554
v -0.09051554 0.30800000 0.08987500
v -0.09051554 0.30740000 0.08987500
v -0.09075000 0.30800000 0.08900000
v -0.09075000 0.30740000 0.08900000
v -0.09051554 0.30800000 0.08812500
v -0.09051554 0.30740000 0.08812500
v -0.08987500 0.30800000 0.08748446
v -0.08987500 0.30740000 0.08748446
v -0.08900000 0.30800000 0.08725000
v -0.08900000 0.30740000 0.08725000
v -0.08812500 0.30800000 0.08748446
v -0.08812500 0.30740000 0.08748446
v -0.08748446 0.30800000 0.08812500
v -0.08748446 0.30740000 0.08812500
v -0.08725000 0.30800000 0.08900000
v -0.08725000 0.30740000 0.08900000
v -0.08748446 0.30800000 0.08987500
v -0.08748446 0.30740000 0.08987500
v -0.08812500 0.30800000 0.09051554
v -0.08812500 0.30740000 0.09051554
v -0.10950000 0.30800000 0.09350000
v -0.10950000 0.30800000 0.08150000
v -0.10950000 0.30740000 0.09350000
v -0.10950000 0.30740000 0.08150000
v -0.08400000 0.30100000 0.17350000
v -0.08359808 0.30250000 0.19350000
v -0.08359808 0.30250000 0.17350000
v -0.08250000 0.30359808 0.19350000
v -0.08250000 0.30359808 0.17350000
v -0.08100000 0.30400000 0.19350000
v -0.08100000 0.30400000 0.17350000
v -0.07950000 0.30359808 0.19350000
v -0.07950000 0.30359808 0.17350000
v -0.07840192 0.30250000 0.19350000
v -0.07840192 0.30250000 0.17350000
v -0.07800000 0.30100000 0.19350000
v -0.07800000 0.30100000 0.17350000
v -0.07840192 0.29950000 0.19350000
v -0.07840192 0.29950000 0.17350000
v -0.07950000 0.29840192 0.19350000
v -0.07950000 0.29840192 0.17350000
v -0.08100000 0.29800000 0.19350000
v -0.08100000 0.29800000 0.17350000
v -0.08250000 0.29840192 0.19350000
v -0.08250000 0.29840192 0.17350000
v -0.08359808 0.29950000 0.19350000
v -0.08359808 0.29950000 0.17350000
v -0.08400000 0.30100000 0.19350000
v -0.07950000 0.30100000 0.17350000
v -0.07800000 0.30100000 0.17350000
v -0.07970096 0.30025000 0.17350000
v -0.07840192 0.29950000 0.17350000
v -0.08025000 0.29970096 0.17350000
v -0.07950000 0.29840192 0.17350000
v -0.08100000 0.29950000 0.17350000
v -0.08100000 0.29800000 0.17350000
v -0.08175000 0.29970096 0.17350000
v -0.08250000 0.29840192 0.17350000
v -0.08229904 0.30025000 0.17350000
v -0.08359808 0.29950000 0.17350000
v -0.08250000 0.30100000 0.17350000
v -0.08400000 0.30100000 0.17350000
v -0.08229904 0.30175000 0.17350000
v -0.08359808 0.30250000 0.17350000
v -0.08175000 0.30229904 0.17350000
v -0.08250000 0.30359808 0.17350000
v -0.08100000 0.30250000 0.17350000
v -0.08100000 0.30400000 0.17350000
v -0.08025000 0.30229904 0.17350000
v -0.07950000 0.30359808 0.17350000
v -0.07970096 0.30175000 0.17350000
v -0.07840192 0.30250000 0.17350000
v -0.07970096 0.30175000 0.19350000
v -0.07840192 0.30250000 0.19350000
v -0.08025000 0.30229904 0.19350000
v -0.07950000 0.30359808 0.19350000
v -0.08100000 0.30250000 0.19350000
v -0.08100000 0.30400000 0.19350000
v -0.08175000 0.30229904 0.19350000
v -0.08250000 0.30359808 0.19350000
v -0.08229904 0.30175000 0.19350000
v -0.08359808 0.30250000 0.19350000
v -0.08250000 0.30100000 0.19350000
v -0.08400000 0.30100000 0.19350000
v -0.08229904 0.30025000 0.19350000
v -0.08359808 0.29950000 0.19350000
v -0.08175000 0.29970096 0.19350000
v -0.08250000 0.29840192 0.19350000
v -0.08100000 0.29950000 0.19350000
v -0.08100000 0.29800000 0.19350000
v -0.08025000 0.29970096 0.19350000
v -0.07950000 0.29840192 0.19350000
v -0.07970096 0.30025000 0.19350000
v -0.07840192 0.29950000 0.19350000
v -0.07950000 0.30100000 0.19350000
v -0.07800000 0.30100000 0.19350000
v -0.08250000 0.30100000 0.19350000
v -0.08250000 0.30100000 0.17350000
v -0.08229904 0.30175000 0.19350000
v -0.08229904 0.30175000 0.17350000
v -0.08175000 0.30229904 0.19350000
v -0.08175000 0.30229904 0.17350000
v -0.08100000 0.30250000 0.19350000
v -0.08100000 0.30250000 0.17350000
v -0.08025000 0.30229904 0.19350000
v -0.08025000 0.30229904 0.17350000
v -0.07970096 0.30175000 0.19350000
v -0.07970096 0.30175000 0.17350000
v -0.07950000 0.30100000 0.19350000
v -0.07950000 0.30100000 0.17350000
v -0.07970096 0.30025000 0.19350000
v -0.07970096 0.30025000 0.17350000
v -0.08025000 0.29970096 0.19350000
v -0.08025000 0.29970096 0.17350000
v -0.08100000 0.29950000 0.19350000
v -0.08100000 0.29950000 0.17350000
v -0.08175000 0.29970096 0.19350000
v -0.08175000 0.29970096 0.17350000
v -0.08229904 0.30025000 0.19350000
v -0.08229904 0.30025000 0.17350000
v -0.14506672 0.27505181 0.11790105
v -0.14566328 0.27505181 0.11521654
v -0.14458878 0.27580958 0.11803502
v -0.14443428 0.27700037 0.11556102
v -0.14413718 0.27636431 0.11859083
v -0.14327303 0.27842681 0.11699026
v -0.14383293 0.27656735 0.11941957
v -0.14249067 0.27894892 0.11912129
v -0.14375755 0.27636431 0.12029916
v -0.14229684 0.27842681 0.12138310
v -0.14393124 0.27580958 0.12099393
v -0.14274348 0.27700037 0.12316965
v -0.14430746 0.27505181 0.12131771
v -0.14371090 0.27505181 0.12400222
v -0.14478541 0.27429404 0.12118374
v -0.14493990 0.27310325 0.12365774
v -0.14523700 0.27373931 0.12062793
v -0.14610115 0.27167681 0.12222850
v -0.14554126 0.27353626 0.11979920
v -0.14688351 0.27115470 0.12009748
v -0.14561663 0.27373931 0.11891960
v -0.14707734 0.27167681 0.11783566
v -0.14544294 0.27429404 0.11822483
v -0.14663070 0.27310325 0.11604912
v -0.14371090 0.27505181 0.12400222
v -0.17114738 0.28860325 0.12948163
v -0.14493990 0.27310325 0.12365774
v -0.17230864 0.28717681 0.12805239
v -0.14610115 0.27167681 0.12222850
v -0.17309100 0.28665470 0.12592136
v -0.14688351 0.27115470 0.12009748
v -0.17328483 0.28717681 0.12365955
v -0.14707734 0.27167681 0.11783566
v -0.17283819 0.28860325 0.12187300
v -0.14663070 0.27310325 0.11604912
v -0.17187076 0.29055181 0.12104043
v -0.14566328 0.27505181 0.11521654
v -0.17064177 0.29250037 0.12138491
v -0.14443428 0.27700037 0.11556102
v -0.16948051 0.29392681 0.12281415
v -0.14327303 0.27842681 0.11699026
v -0.16869816 0.29444892 0.12494518
v -0.14249067 0.27894892 0.11912129
v -0.16850433 0.29392681 0.12720699
v -0.14229684 0.27842681 0.12138310
v -0.16895096 0.29250037 0.12899354
v -0.14274348 0.27700037 0.12316965
v -0.16991839 0.29055181 0.12982611
v -0.17182412 0.28923931 0.12474349
v -0.17328483 0.28717681 0.12365955
v -0.17174874 0.28903626 0.12562308
v -0.17309100 0.28665470 0.12592136
v -0.17144449 0.28923931 0.12645182
v -0.17230864 0.28717681 0.12805239
v -0.17099289 0.28979404 0.12700763
v -0.17114738 0.28860325 0.12948163
v -0.17051495 0.29055181 0.12714160
v -0.16991839 0.29055181 0.12982611
v -0.17013873 0.29130958 0.12681782
v -0.16895096 0.29250037 0.12899354
v -0.16996504 0.29186431 0.12612305
v -0.16850433 0.29392681 0.12720699
v -0.17004041 0.29206735 0.12524346
v -0.16869816 0.29444892 0.12494518
v -0.17034466 0.29186431 0.12441472
v -0.16948051 0.29392681 0.12281415
v -0.17079626 0.29130958 0.12385891
v -0.17064177 0.29250037 0.12138491
v -0.17127421 0.29055181 0.12372494
v -0.17187076 0.29055181 0.12104043
v -0.17165043 0.28979404 0.12404872
v -0.17283819 0.28860325 0.12187300
v -0.17051495 0.29055181 0.12714160
v -0.14430746 0.27505181 0.12131771
v -0.17099289 0.28979404 0.12700763
v -0.14478541 0.27429404 0.12118374
v -0.17144449 0.28923931 0.12645182
v -0.14523700 0.27373931 0.12062793
v -0.17174874 0.28903626 0.12562308
v -0.14554126 0.27353626 0.11979920
v -0.17182412 0.28923931 0.12474349
v -0.14561663 0.27373931 0.11891960
v -0.17165043 0.28979404 0.12404872
v -0.14544294 0.27429404 0.11822483
v -0.17127421 0.29055181 0.12372494
v -0.14506672 0.27505181 0.11790105
v -0.17079626 0.29130958 0.12385891
v -0.14458878 0.27580958 0.11803502
v -0.17034466 0.29186431 0.12441472
v -0.14413718 0.27636431 0.11859083
v -0.17004041 0.29206735 0.12524346
v -0.14383293 0.27656735 0.11941957
v -0.16996504 0.29186431 0.12612305
v -0.14375755 0.27636431 0.12029916
v -0.17013873 0.29130958 0.12681782
v -0.14393124 0.27580958 0.12099393
v -0.18613769 0.20217950 0.12702794
v -0.18673425 0.20217950 0.12434342
v -0.18565975 0.20293727 0.12716190
v -0.18550526 0.20412805 0.12468791
v -0.18520815 0.20349200 0.12771772
v -0.18434400 0.20555450 0.12611714
v -0.18490390 0.20369504 0.12854645
v -0.18356164 0.20607661 0.12824817
v -0.18482852 0.20349200 0.12942605
v -0.18336781 0.20555450 0.13050998
v -0.18500221 0.20293727 0.13012081
v -0.18381445 0.20412805 0.13229653
v -0.18537843 0.20217950 0.13044459
v -0.18478188 0.20217950 0.13312911
v -0.18585638 0.20142172 0.13031063
v -0.18601087 0.20023094 0.13278463
v -0.18630798 0.20086700 0.12975481
v -0.18717213 0.19880450 0.13135539
v -0.18661223 0.20066395 0.12892608
v -0.18795448 0.19828238 0.12922436
v -0.18668760 0.20086700 0.12804649
v -0.18814831 0.19880450 0.12696255
v -0.18651391 0.20142172 0.12735172
v -0.18770168 0.20023094 0.12517600
v -0.18478188 0.20217950 0.13312911
v -0.21221836 0.21573094 0.13860851
v -0.18601087 0.20023094 0.13278463
v -0.21337961 0.21430450 0.13717927
v -0.18717213 0.19880450 0.13135539
v -0.21416197 0.21378238 0.13504825
v -0.18795448 0.19828238 0.12922436
v -0.21435580 0.21430450 0.13278643
v -0.18814831 0.19880450 0.12696255
v -0.21390916 0.21573094 0.13099989
v -0.18770168 0.20023094 0.12517600
v -0.21294174 0.21767950 0.13016731
v -0.18673425 0.20217950 0.12434342
v -0.21171274 0.21962805 0.13051179
v -0.18550526 0.20412805 0.12468791
v -0.21055149 0.22105450 0.13194103
v -0.18434400 0.20555450 0.12611714
v -0.20976913 0.22157661 0.13407206
v -0.18356164 0.20607661 0.12824817
v -0.20957530 0.22105450 0.13633387
v -0.18336781 0.20555450 0.13050998
v -0.21002194 0.21962805 0.13812042
v -0.18381445 0.20412805 0.13229653
v -0.21098936 0.21767950 0.13895299
v -0.21289509 0.21636700 0.13387037
v -0.21435580 0.21430450 0.13278643
v -0.21281971 0.21616395 0.13474997
v -0.21416197 0.21378238 0.13504825
v -0.21251546 0.21636700 0.13557870
v -0.21337961 0.21430450 0.13717927
v -0.21206386 0.21692172 0.13613451
v -0.21221836 0.21573094 0.13860851
v -0.21158592 0.21767950 0.13626848
v -0.21098936 0.21767950 0.13895299
v -0.21120970 0.21843727 0.13594470
v -0.21002194 0.21962805 0.13812042
v -0.21103601 0.21899200 0.13524993
v -0.20957530 0.22105450 0.13633387
v -0.21111139 0.21919504 0.13437034
v -0.20976913 0.22157661 0.13407206
v -0.21141564 0.21899200 0.13354160
v -0.21055149 0.22105450 0.13194103
v -0.21186724 0.21843727 0.13298579
v -0.21171274 0.21962805 0.13051179
v -0.21234518 0.21767950 0.13285183
v -0.21294174 0.21767950 0.13016731
v -0.21272140 0.21692172 0.13317560
v -0.21390916 0.21573094 0.13099989
v -0.21158592 0.21767950 0.13626848
v -0.18537843 0.20217950 0.13044459
v -0.21206386 0.21692172 0.13613451
v -0.18585638 0.20142172 0.13031063
v -0.21251546 0.21636700 0.13557870
v -0.18630798 0.20086700 0.12975481
v -0.21281971 0.21616395 0.13474997
v -0.18661223 0.20066395 0.12892608
v -0.21289509 0.21636700 0.13387037
v -0.18668760 0.20086700 0.12804649
v -0.21272140 0.21692172 0.13317560
v -0.18651391 0.20142172 0.12735172
v -0.21234518 0.21767950 0.13285183
v -0.18613769 0.20217950 0.12702794
v -0.21186724 0.21843727 0.13298579
v -0.18565975 0.20293727 0.12716190
v -0.21141564 0.21899200 0.13354160
v -0.18520815 0.20349200 0.12771772
v -0.21111139 0.21919504 0.13437034
v -0.18490390 0.20369504 0.12854645
v -0.21103601 0.21899200 0.13524993
v -0.18482852 0.20349200 0.12942605
v -0.21120970 0.21843727 0.13594470
v -0.18500221 0.20293727 0.13012081
v -0.20439146 0.20217950 0.04488599
v -0.20498802 0.20217950 0.04220148
v -0.20391352 0.20293727 0.04501996
v -0.20375902 0.20412805 0.04254596
v -0.20346192 0.20349200 0.04557577
v -0.20259777 0.20555450 0.04397520
v -0.20315767 0.20369504 0.04640451
v -0.20181541 0.20607661 0.04610623
v -0.20308229 0.20349200 0.04728410
v -0.20162158 0.20555450 0.04836804
v -0.20325598 0.20293727 0.04797887
v -0.20206822 0.20412805 0.05015459
v -0.20363220 0.20217950 0.04830265
v -0.20303565 0.20217950 0.05098716
v -0.20411015 0.20142172 0.04816868
v -0.20426464 0.20023094 0.05064268
v -0.20456175 0.20086700 0.04761287
v -0.20542589 0.19880450 0.04921344
v -0.20486600 0.20066395 0.04678413
v -0.20620825 0.19828238 0.04708241
v -0.20494137 0.20086700 0.04590454
v -0.20640208 0.19880450 0.04482060
v -0.20476768 0.20142172 0.04520977
v -0.20595545 0.20023094 0.04303405
v -0.20303565 0.20217950 0.05098716
v -0.23047213 0.21573094 0.05646657
v -0.20426464 0.20023094 0.05064268
v -0.23163338 0.21430450 0.05503733
v -0.20542589 0.19880450 0.04921344
v -0.23241574 0.21378238 0.05290630
v -0.20620825 0.19828238 0.04708241
v -0.23260957 0.21430450 0.05064449
v -0.20640208 0.19880450 0.04482060
v -0.23216293 0.21573094 0.04885794
v -0.20595545 0.20023094 0.04303405
v -0.23119551 0.21767950 0.04802536
v -0.20498802 0.20217950 0.04220148
v -0.22996651 0.21962805 0.04836985
v -0.20375902 0.20412805 0.04254596
v -0.22880526 0.22105450 0.04979908
v -0.20259777 0.20555450 0.04397520
v -0.22802290 0.22157661 0.05193011
v -0.20181541 0.20607661 0.04610623
v -0.22782907 0.22105450 0.05419193
v -0.20162158 0.20555450 0.04836804
v -0.22827570 0.21962805 0.05597847
v -0.20206822 0.20412805 0.05015459
v -0.22924313 0.21767950 0.05681105
v -0.23114886 0.21636700 0.05172843
v -0.23260957 0.21430450 0.05064449
v -0.23107348 0.21616395 0.05260802
v -0.23241574 0.21378238 0.05290630
v -0.23076923 0.21636700 0.05343675
v -0.23163338 0.21430450 0.05503733
v -0.23031763 0.21692172 0.05399257
v -0.23047213 0.21573094 0.05646657
v -0.22983969 0.21767950 0.05412653
v -0.22924313 0.21767950 0.05681105
v -0.22946347 0.21843727 0.05380275
v -0.22827570 0.21962805 0.05597847
v -0.22928978 0.21899200 0.05310799
v -0.22782907 0.22105450 0.05419193
v -0.22936515 0.21919504 0.05222839
v -0.22802290 0.22157661 0.05193011
v -0.22966940 0.21899200 0.05139966
v -0.22880526 0.22105450 0.04979908
v -0.23012100 0.21843727 0.05084384
v -0.22996651 0.21962805 0.04836985
v -0.23059895 0.21767950 0.05070988
v -0.23119551 0.21767950 0.04802536
v -0.23097517 0.21692172 0.05103366
v -0.23216293 0.21573094 0.04885794
v -0.22983969 0.21767950 0.05412653
v -0.20363220 0.20217950 0.04830265
v -0.23031763 0.21692172 0.05399257
v -0.20411015 0.20142172 0.04816868
v -0.23076923 0.21636700 0.05343675
v -0.20456175 0.20086700 0.04761287
v -0.23107348 0.21616395 0.05260802
v -0.20486600 0.20066395 0.04678413
v -0.23114886 0.21636700 0.05172843
v -0.20494137 0.20086700 0.04590454
v -0.23097517 0.21692172 0.05103366
v -0.20476768 0.20142172 0.04520977
v -0.23059895 0.21767950 0.05070988
v -0.20439146 0.20217950 0.04488599
v -0.23012100 0.21843727 0.05084384
v -0.20391352 0.20293727 0.04501996
v -0.22966940 0.21899200 0.05139966
v -0.20346192 0.20349200 0.04557577
v -0.22936515 0.21919504 0.05222839
v -0.20315767 0.20369504 0.04640451
v -0.22928978 0.21899200 0.05310799
v -0.20308229 0.20349200 0.04728410
v -0.22946347 0.21843727 0.05380275
v -0.20325598 0.20293727 0.04797887
v -0.16332049 0.27505181 0.03575911
v -0.16391705 0.27505181 0.03307459
v -0.16284255 0.27580958 0.03589307
v -0.16268805 0.27700037 0.03341908
v -0.16239095 0.27636431 0.03644889
v -0.16152680 0.27842681 0.03484831
v -0.16208670 0.27656735 0.03727762
v -0.16074444 0.27894892 0.03697934
v -0.16201132 0.27636431 0.03815722
v -0.16055061 0.27842681 0.03924116
v -0.16218501 0.27580958 0.03885198
v -0.16099725 0.27700037 0.04102770
v -0.16256123 0.27505181 0.03917576
v -0.16196467 0.27505181 0.04186028
v -0.16303917 0.27429404 0.03904180
v -0.16319367 0.27310325 0.04151580
v -0.16349077 0.27373931 0.03848598
v -0.16435492 0.27167681 0.04008656
v -0.16379502 0.27353627 0.03765725
v -0.16513728 0.27115470 0.03795553
v -0.16387040 0.27373931 0.03677766
v -0.16533111 0.27167681 0.03569372
v -0.16369671 0.27429404 0.03608289
v -0.16488447 0.27310325 0.03390717
v -0.16196467 0.27505181 0.04186028
v -0.18940115 0.28860325 0.04733968
v -0.16319367 0.27310325 0.04151580
v -0.19056241 0.28717681 0.04591045
v -0.16435492 0.27167681 0.04008656
v -0.19134477 0.28665470 0.04377942
v -0.16513728 0.27115470 0.03795553
v -0.19153860 0.28717681 0.04151760
v -0.16533111 0.27167681 0.03569372
v -0.19109196 0.28860325 0.03973106
v -0.16488447 0.27310325 0.03390717
v -0.19012453 0.29055181 0.03889848
v -0.16391705 0.27505181 0.03307459
v -0.18889554 0.29250037 0.03924296
v -0.16268805 0.27700037 0.03341908
v -0.18773428 0.29392681 0.04067220
v -0.16152680 0.27842681 0.03484831
v -0.18695193 0.29444892 0.04280323
v -0.16074444 0.27894892 0.03697934
v -0.18675810 0.29392681 0.04506504
v -0.16055061 0.27842681 0.03924116
v -0.18720473 0.29250037 0.04685159
v -0.16099725 0.27700037 0.04102770
v -0.18817216 0.29055181 0.04768416
v -0.19007789 0.28923931 0.04260154
v -0.19153860 0.28717681 0.04151760
v -0.19000251 0.28903627 0.04348114
v -0.19134477 0.28665470 0.04377942
v -0.18969826 0.28923931 0.04430987
v -0.19056241 0.28717681 0.04591045
v -0.18924666 0.28979404 0.04486568
v -0.18940115 0.28860325 0.04733968
v -0.18876872 0.29055181 0.04499965
v -0.18817216 0.29055181 0.04768416
v -0.18839250 0.29130958 0.04467587
v -0.18720473 0.29250037 0.04685159
v -0.18821880 0.29186431 0.04398110
v -0.18675810 0.29392681 0.04506504
v -0.18829418 0.29206735 0.04310151
v -0.18695193 0.29444892 0.04280323
v -0.18859843 0.29186431 0.04227278
v -0.18773428 0.29392681 0.04067220
v -0.18905003 0.29130958 0.04171696
v -0.18889554 0.29250037 0.03924296
v -0.18952797 0.29055181 0.04158300
v -0.19012453 0.29055181 0.03889848
v -0.18990420 0.28979404 0.04190678
v -0.19109196 0.28860325 0.03973106
v -0.18876872 0.29055181 0.04499965
v -0.16256123 0.27505181 0.03917576
v -0.18924666 0.28979404 0.04486568
v -0.16303917 0.27429404 0.03904180
v -0.18969826 0.28923931 0.04430987
v -0.16349077 0.27373931 0.03848598
v -0.19000251 0.28903627 0.04348114
v -0.16379502 0.27353627 0.03765725
v -0.19007789 0.28923931 0.04260154
v -0.16387040 0.27373931 0.03677766
v -0.18990420 0.28979404 0.04190678
v -0.16369671 0.27429404 0.03608289
v -0.18952797 0.29055181 0.04158300
v -0.16332049 0.27505181 0.03575911
v -0.18905003 0.29130958 0.04171696
v -0.16284255 0.27580958 0.03589307
v -0.18859843 0.29186431 0.04227278
v -0.16239095 0.27636431 0.03644889
v -0.18829418 0.29206735 0.04310151
v -0.16208670 0.27656735 0.03727762
v -0.18821880 0.29186431 0.04398110
v -0.16201132 0.27636431 0.03815722
v -0.18839250 0.29130958 0.04467587
v -0.16218501 0.27580958 0.03885198
v 0.07350000 0.19950000 0.19350000
v 0.07350000 0.22450000 0.19350000
v 0.07350000 0.19950000 0.19290000
v 0.07350000 0.22450000 0.19290000
v 0.08550000 0.22450000 0.19350000
v 0.08550000 0.19950000 0.19350000
v 0.08550000 0.22450000 0.19290000
v 0.08550000 0.19950000 0.19290000
v 0.08550000 0.19950000 0.19350000
v 0.07350000 0.19950000 0.19350000
v 0.08550000 0.19950000 0.19290000
v 0.07350000 0.19950000 0.19290000
v 0.07625000 0.22000000 0.19350000
v 0.07625000 0.22000000 0.19290000
v 0.07648446 0.22087500 0.19350000
v 0.07648446 0.22087500 0.19290000
v 0.07712500 0.22151554 0.19350000
v 0.07712500 0.22151554 0.19290000
v 0.07800000 0.22175000 0.19350000
v 0.07800000 0.22175000 0.19290000
v 0.07887500 0.22151554 0.19350000
v 0.07887500 0.22151554 0.19290000
v 0.07951554 0.22087500 0.19350000
v 0.07951554 0.22087500 0.19290000
v 0.07975000 0.22000000 0.19350000
v 0.07975000 0.22000000 0.19290000
v 0.07951554 0.21912500 0.19350000
v 0.07951554 0.21912500 0.19290000
v 0.07887500 0.21848446 0.19350000
v 0.07887500 0.21848446 0.19290000
v 0.07800000 0.21825000 0.19350000
v 0.07800000 0.21825000 0.19290000
v 0.07712500 0.21848446 0.19350000
v 0.07712500 0.21848446 0.19290000
v 0.07648446 0.21912500 0.19350000
v 0.07648446 0.21912500 0.19290000
v 0.07887500 0.20248446 0.19290000
v 0.07951554 0.20312500 0.19290000
v 0.08550000 0.19950000 0.19290000
v 0.07975000 0.20400000 0.19290000
v 0.07648446 0.22087500 0.19290000
v 0.07625000 0.22000000 0.19290000
v 0.07350000 0.22450000 0.19290000
v 0.07648446 0.21912500 0.19290000
v 0.07951554 0.22087500 0.19290000
v 0.07887500 0.22151554 0.19290000
v 0.08550000 0.22450000 0.19290000
v 0.07800000 0.22175000 0.19290000
v 0.07712500 0.22151554 0.19290000
v 0.07951554 0.20487500 0.19290000
v 0.07800000 0.21825000 0.19290000
v 0.07887500 0.21848446 0.19290000
v 0.07951554 0.21912500 0.19290000
v 0.07975000 0.22000000 0.19290000
v 0.07800000 0.20225000 0.19290000
v 0.07350000 0.19950000 0.19290000
v 0.07712500 0.20248446 0.19290000
v 0.07887500 0.20551554 0.19290000
v 0.07800000 0.20575000 0.19290000
v 0.07712500 0.21848446 0.19290000
v 0.07712500 0.20551554 0.19290000
v 0.07648446 0.20487500 0.19290000
v 0.07625000 0.20400000 0.19290000
v 0.07648446 0.20312500 0.19290000
v 0.07887500 0.21848446 0.19350000
v 0.07625000 0.20400000 0.19350000
v 0.07648446 0.20487500 0.19350000
v 0.07951554 0.22087500 0.19350000
v 0.07975000 0.22000000 0.19350000
v 0.08550000 0.22450000 0.19350000
v 0.07951554 0.21912500 0.19350000
v 0.07712500 0.20551554 0.19350000
v 0.07800000 0.20575000 0.19350000
v 0.07887500 0.20551554 0.19350000
v 0.07951554 0.20487500 0.19350000
v 0.08550000 0.19950000 0.19350000
v 0.07975000 0.20400000 0.19350000
v 0.07951554 0.20312500 0.19350000
v 0.07887500 0.20248446 0.19350000
v 0.07800000 0.20225000 0.19350000
v 0.07350000 0.19950000 0.19350000
v 0.07625000 0.22000000 0.19350000
v 0.07350000 0.22450000 0.19350000
v 0.07648446 0.22087500 0.19350000
v 0.07712500 0.20248446 0.19350000
v 0.07648446 0.20312500 0.19350000
v 0.07712500 0.22151554 0.19350000
v 0.07800000 0.22175000 0.19350000
v 0.07887500 0.22151554 0.19350000
v 0.07800000 0.21825000 0.19350000
v 0.07712500 0.21848446 0.19350000
v 0.07648446 0.21912500 0.19350000
v 0.07625000 0.20400000 0.19350000
v 0.07625000 0.20400000 0.19290000
v 0.07648446 0.20487500 0.19350000
v 0.07648446 0.20487500 0.19290000
v 0.07712500 0.20551554 0.19350000
v 0.07712500 0.20551554 0.19290000
v 0.07800000 0.20575000 0.19350000
v 0.07800000 0.20575000 0.19290000
v 0.07887500 0.20551554 0.19350000
v 0.07887500 0.20551554 0.19290000
v 0.07951554 0.20487500 0.19350000
v 0.07951554 0.20487500 0.19290000
v 0.07975000 0.20400000 0.19350000
v 0.07975000 0.20400000 0.19290000
v 0.07951554 0.20312500 0.19350000
v 0.07951554 0.20312500 0.19290000
v 0.07887500 0.20248446 0.19350000
v 0.07887500 0.20248446 0.19290000
v 0.07800000 0.20225000 0.19350000
v 0.07800000 0.20225000 0.19290000
v 0.07712500 0.20248446 0.19350000
v 0.07712500 0.20248446 0.19290000
v 0.07648446 0.20312500 0.19350000
v 0.07648446 0.20312500 0.19290000
v 0.07350000 0.22450000 0.19350000
v 0.08550000 0.22450000 0.19350000
v 0.07350000 0.22450000 0.19290000
v 0.08550000 0.22450000 0.19290000
v -0.05627714 0.27301283 0.17350000
v -0.05773360 0.27355161 0.19350000
v -0.05773360 0.27355161 0.17350000
v -0.05872554 0.27474643 0.19350000
v -0.05872554 0.27474643 0.17350000
v -0.05898717 0.27627714 0.19350000
v -0.05898717 0.27627714 0.17350000
v -0.05844839 0.27773360 0.19350000
v -0.05844839 0.27773360 0.17350000
v -0.05725357 0.27872554 0.19350000
v -0.05725357 0.27872554 0.17350000
v -0.05572286 0.27898717 0.19350000
v -0.05572286 0.27898717 0.17350000
v -0.05426640 0.27844839 0.19350000
v -0.05426640 0.27844839 0.17350000
v -0.05327446 0.27725357 0.19350000
v -0.05327446 0.27725357 0.17350000
v -0.05301283 0.27572286 0.19350000
v -0.05301283 0.27572286 0.17350000
v -0.05355161 0.27426640 0.19350000
v -0.05355161 0.27426640 0.17350000
v -0.05474643 0.27327446 0.19350000
v -0.05474643 0.27327446 0.17350000
v -0.05627714 0.27301283 0.19350000
v -0.05586143 0.27749359 0.17350000
v -0.05572286 0.27898717 0.17350000
v -0.05513320 0.27722420 0.17350000
v -0.05426640 0.27844839 0.17350000
v -0.05463723 0.27662679 0.17350000
v -0.05327446 0.27725357 0.17350000
v -0.05450641 0.27586143 0.17350000
v -0.05301283 0.27572286 0.17350000
v -0.05477580 0.27513320 0.17350000
v -0.05355161 0.27426640 0.17350000
v -0.05537321 0.27463723 0.17350000
v -0.05474643 0.27327446 0.17350000
v -0.05613857 0.27450641 0.17350000
v -0.05627714 0.27301283 0.17350000
v -0.05686680 0.27477580 0.17350000
v -0.05773360 0.27355161 0.17350000
v -0.05736277 0.27537321 0.17350000
v -0.05872554 0.27474643 0.17350000
v -0.05749359 0.27613857 0.17350000
v -0.05898717 0.27627714 0.17350000
v -0.05722420 0.27686680 0.17350000
v -0.05844839 0.27773360 0.17350000
v -0.05662679 0.27736277 0.17350000
v -0.05725357 0.27872554 0.17350000
v -0.05662679 0.27736277 0.19350000
v -0.05725357 0.27872554 0.19350000
v -0.05722420 0.27686680 0.19350000
v -0.05844839 0.27773360 0.19350000
v -0.05749359 0.27613857 0.19350000
v -0.05898717 0.27627714 0.19350000
v -0.05736277 0.27537321 0.19350000
v -0.05872554 0.27474643 0.19350000
v -0.05686680 0.27477580 0.19350000
v -0.05773360 0.27355161 0.19350000
v -0.05613857 0.27450641 0.19350000
v -0.05627714 0.27301283 0.19350000
v -0.05537321 0.27463723 0.19350000
v -0.05474643 0.27327446 0.19350000
v -0.05477580 0.27513320 0.19350000
v -0.05355161 0.27426640 0.19350000
v -0.05450641 0.27586143 0.19350000
v -0.05301283 0.27572286 0.19350000
v -0.05463723 0.27662679 0.19350000
v -0.05327446 0.27725357 0.19350000
v -0.05513320 0.27722420 0.19350000
v -0.05426640 0.27844839 0.19350000
v -0.05586143 0.27749359 0.19350000
v -0.05572286 0.27898717 0.19350000
v -0.05613857 0.27450641 0.19350000
v -0.05613857 0.27450641 0.17350000
v -0.05686680 0.27477580 0.19350000
v -0.05686680 0.27477580 0.17350000
v -0.05736277 0.27537321 0.19350000
v -0.05736277 0.27537321 0.17350000
v -0.05749359 0.27613857 0.19350000
v -0.05749359 0.27613857 0.17350000
v -0.05722420 0.27686680 0.19350000
v -0.05722420 0.27686680 0.17350000
v -0.05662679 0.27736277 0.19350000
v -0.05662679 0.27736277 0.17350000
v -0.05586143 0.27749359 0.19350000
v -0.05586143 0.27749359 0.17350000
v -0.05513320 0.27722420 0.19350000
v -0.05513320 0.27722420 0.17350000
v -0.05463723 0.27662679 0.19350000
v -0.05463723 0.27662679 0.17350000
v -0.05450641 0.27586143 0.19350000
v -0.05450641 0.27586143 0.17350000
v -0.05477580 0.27513320 0.19350000
v -0.05477580 0.27513320 0.17350000
v -0.05537321 0.27463723 0.19350000
v -0.05537321 0.27463723 0.17350000
v 0.10950000 0.30800000 0.09350000
v 0.08450000 0.30800000 0.09350000
v 0.10950000 0.30740000 0.09350000
v 0.08450000 0.30740000 0.09350000
v 0.08450000 0.30800000 0.08150000
v 0.10950000 0.30800000 0.08150000
v 0.08450000 0.30740000 0.08150000
v 0.10950000 0.30740000 0.08150000
v 0.10950000 0.30800000 0.08150000
v 0.10950000 0.30800000 0.09350000
v 0.10950000 0.30740000 0.08150000
v 0.10950000 0.30740000 0.09350000
v 0.08900000 0.30800000 0.09075000
v 0.08900000 0.30740000 0.09075000
v 0.08812500 0.30800000 0.09051554
v 0.08812500 0.30740000 0.09051554
v 0.08748446 0.30800000 0.08987500
v 0.08748446 0.30740000 0.08987500
v 0.08725000 0.30800000 0.08900000
v 0.08725000 0.30740000 0.08900000
v 0.08748446 0.30800000 0.08812500
v 0.08748446 0.30740000 0.08812500
v 0.08812500 0.30800000 0.08748446
v 0.08812500 0.30740000 0.08748446
v 0.08900000 0.30800000 0.08725000
v 0.08900000 0.30740000 0.08725000
v 0.08987500 0.30800000 0.08748446
v 0.08987500 0.30740000 0.08748446
v 0.09051554 0.30800000 0.08812500
v 0.09051554 0.30740000 0.08812500
v 0.09075000 0.30800000 0.08900000
v 0.09075000 0.30740000 0.08900000
v 0.09051554 0.30800000 0.08987500
v 0.09051554 0.30740000 0.08987500
v 0.08987500 0.30800000 0.09051554
v 0.08987500 0.30740000 0.09051554
v 0.10651554 0.30740000 0.08812500
v 0.10587500 0.30740000 0.08748446
v 0.10950000 0.30740000 0.08150000
v 0.10500000 0.30740000 0.08725000
v 0.08812500 0.30740000 0.09051554
v 0.08900000 0.30740000 0.09075000
v 0.08450000 0.30740000 0.09350000
v 0.08987500 0.30740000 0.09051554
v 0.08812500 0.30740000 0.08748446
v 0.08748446 0.30740000 0.08812500
v 0.08450000 0.30740000 0.08150000
v 0.08725000 0.30740000 0.08900000
v 0.08748446 0.30740000 0.08987500
v 0.10412500 0.30740000 0.08748446
v 0.09075000 0.30740000 0.08900000
v 0.09051554 0.30740000 0.08812500
v 0.08987500 0.30740000 0.08748446
v 0.08900000 0.30740000 0.08725000
v 0.10675000 0.30740000 0.08900000
v 0.10950000 0.30740000 0.09350000
v 0.10651554 0.30740000 0.08987500
v 0.10348446 0.30740000 0.08812500
v 0.10325000 0.30740000 0.08900000
v 0.09051554 0.30740000 0.08987500
v 0.10348446 0.30740000 0.08987500
v 0.10412500 0.30740000 0.09051554
v 0.10500000 0.30740000 0.09075000
v 0.10587500 0.30740000 0.09051554
v 0.09051554 0.30800000 0.08812500
v 0.10500000 0.30800000 0.09075000
v 0.10412500 0.30800000 0.09051554
v 0.08812500 0.30800000 0.08748446
v 0.08900000 0.30800000 0.08725000
v 0.08450000 0.30800000 0.08150000
v 0.08987500 0.30800000 0.08748446
v 0.10348446 0.30800000 0.08987500
v 0.10325000 0.30800000 0.08900000
v 0.10348446 0.30800000 0.08812500
v 0.10412500 0.30800000 0.08748446
v 0.10950000 0.30800000 0.08150000
v 0.10500000 0.30800000 0.08725000
v 0.10587500 0.30800000 0.08748446
v 0.10651554 0.30800000 0.08812500
v 0.10675000 0.30800000 0.08900000
v 0.10950000 0.30800000 0.09350000
v 0.08900000 0.30800000 0.09075000
v 0.08450000 0.30800000 0.09350000
v 0.08812500 0.30800000 0.09051554
v 0.10651554 0.30800000 0.08987500
v 0.10587500 0.30800000 0.09051554
v 0.08748446 0.30800000 0.08987500
v 0.08725000 0.30800000 0.08900000
v 0.08748446 0.30800000 0.08812500
v 0.09075000 0.30800000 0.08900000
v 0.09051554 0.30800000 0.08987500
v 0.08987500 0.30800000 0.09051554
v 0.10500000 0.30800000 0.09075000
v 0.10500000 0.30740000 0.09075000
v 0.10412500 0.30800000 0.09051554
v 0.10412500 0.30740000 0.09051554
v 0.10348446 0.30800000 0.08987500
v 0.10348446 0.30740000 0.08987500
v 0.10325000 0.30800000 0.08900000
v 0.10325000 0.30740000 0.08900000
v 0.10348446 0.30800000 0.08812500
v 0.10348446 0.30740000 0.08812500
v 0.10412500 0.30800000 0.08748446
v 0.10412500 0.30740000 0.08748446
v 0.10500000 0.30800000 0.08725000
v 0.10500000 0.30740000 0.08725000
v 0.10587500 0.30800000 0.08748446
v 0.10587500 0.30740000 0.08748446
v 0.10651554 0.30800000 0.08812500
v 0.10651554 0.30740000 0.08812500
v 0.10675000 0.30800000 0.08900000
v 0.10675000 0.30740000 0.08900000
v 0.10651554 0.30800000 0.08987500
v 0.10651554 0.30740000 0.08987500
v 0.10587500 0.30800000 0.09051554
v 0.10587500 0.30740000 0.09051554
v 0.08450000 0.30800000 0.09350000
v 0.08450000 0.30800000 0.08150000
v 0.08450000 0.30740000 0.09350000
v 0.08450000 0.30740000 0.08150000
v 0.08434841 0.30775607 0.07018215
v 0.10934835 0.30781030 0.07018241
v 0.08434971 0.30715610 0.07017629
v 0.10934966 0.30721033 0.07017655
v 0.10934848 0.30769316 0.08218184
v 0.08434854 0.30763893 0.08218158
v 0.10934978 0.30709319 0.08217598
v 0.08434984 0.30703896 0.08217572
v 0.08434854 0.30763893 0.08218158
v 0.08434841 0.30775607 0.07018215
v 0.08434984 0.30703896 0.08217572
v 0.08434971 0.30715610 0.07017629
v 0.10484839 0.30777370 0.07293223
v 0.10484970 0.30717373 0.07292638
v 0.10572339 0.30777331 0.07316669
v 0.10572470 0.30717334 0.07316083
v 0.10636394 0.30776844 0.07380721
v 0.10636524 0.30716847 0.07380135
v 0.10659841 0.30776041 0.07468217
v 0.10659971 0.30716044 0.07467631
v 0.10636396 0.30775136 0.07555712
v 0.10636526 0.30715139 0.07555127
v 0.10572343 0.30774372 0.07619763
v 0.10572473 0.30714375 0.07619177
v 0.10484843 0.30773953 0.07643207
v 0.10484973 0.30713956 0.07642621
v 0.10397343 0.30773992 0.07619761
v 0.10397473 0.30713995 0.07619176
v 0.10333288 0.30774478 0.07555709
v 0.10333418 0.30714481 0.07555124
v 0.10309842 0.30775282 0.07468213
v 0.10309972 0.30715285 0.07467627
v 0.10333286 0.30776187 0.07380718
v 0.10333416 0.30716190 0.07380132
v 0.10397340 0.30776951 0.07316667
v 0.10397470 0.30716954 0.07316081
v 0.08733422 0.30711010 0.07555107
v 0.08797477 0.30710524 0.07619159
v 0.08434984 0.30703896 0.08217572
v 0.08884977 0.30710485 0.07642604
v 0.10572470 0.30717334 0.07316083
v 0.10484970 0.30717373 0.07292638
v 0.10934966 0.30721033 0.07017655
v 0.10397470 0.30716954 0.07316081
v 0.10572473 0.30714375 0.07619177
v 0.10636526 0.30715139 0.07555127
v 0.10934978 0.30709319 0.08217598
v 0.10659971 0.30716044 0.07467631
v 0.10636524 0.30716847 0.07380135
v 0.08972477 0.30710904 0.07619160
v 0.10309972 0.30715285 0.07467627
v 0.10333418 0.30714481 0.07555124
v 0.10397473 0.30713995 0.07619176
v 0.10484973 0.30713956 0.07642621
v 0.08709976 0.30711814 0.07467610
v 0.08434971 0.30715610 0.07017629
v 0.08733420 0.30712719 0.07380115
v 0.09036530 0.30711668 0.07555110
v 0.09059975 0.30712573 0.07467614
v 0.10333416 0.30716190 0.07380132
v 0.09036528 0.30713376 0.07380118
v 0.08972473 0.30713863 0.07316066
v 0.08884973 0.30713902 0.07292621
v 0.08797474 0.30713483 0.07316064
v 0.10333288 0.30774478 0.07555709
v 0.08884843 0.30773899 0.07293206
v 0.08972343 0.30773860 0.07316652
v 0.10572343 0.30774372 0.07619763
v 0.10484843 0.30773953 0.07643207
v 0.10934848 0.30769316 0.08218184
v 0.10397343 0.30773992 0.07619761
v 0.09036398 0.30773373 0.07380704
v 0.09059845 0.30772570 0.07468200
v 0.09036400 0.30771665 0.07555695
v 0.08972346 0.30770901 0.07619746
v 0.08434854 0.30763893 0.08218158
v 0.08884847 0.30770482 0.07643190
v 0.08797347 0.30770521 0.07619744
v 0.08733292 0.30771007 0.07555692
v 0.08709845 0.30771811 0.07468196
v 0.08434841 0.30775607 0.07018215
v 0.10484839 0.30777370 0.07293223
v 0.10934835 0.30781030 0.07018241
v 0.10572339 0.30777331 0.07316669
v 0.08733290 0.30772716 0.07380701
v 0.08797344 0.30773480 0.07316650
v 0.10636394 0.30776844 0.07380721
v 0.10659841 0.30776041 0.07468217
v 0.10636396 0.30775136 0.07555712
v 0.10309842 0.30775282 0.07468213
v 0.10333286 0.30776187 0.07380718
v 0.10397340 0.30776951 0.07316667
v 0.08884843 0.30773899 0.07293206
v 0.08884973 0.30713902 0.07292621
v 0.08972343 0.30773860 0.07316652
v 0.08972473 0.30713863 0.07316066
v 0.09036398 0.30773373 0.07380704
v 0.09036528 0.30713376 0.07380118
v 0.09059845 0.30772570 0.07468200
v 0.09059975 0.30712573 0.07467614
v 0.09036400 0.30771665 0.07555695
v 0.09036530 0.30711668 0.07555110
v 0.08972346 0.30770901 0.07619746
v 0.08972477 0.30710904 0.07619160
v 0.08884847 0.30770482 0.07643190
v 0.08884977 0.30710485 0.07642604
v 0.08797347 0.30770521 0.07619744
v 0.08797477 0.30710524 0.07619159
v 0.08733292 0.30771007 0.07555692
v 0.08733422 0.30711010 0.07555107
v 0.08709845 0.30771811 0.07468196
v 0.08709976 0.30711814 0.07467610
v 0.08733290 0.30772716 0.07380701
v 0.08733420 0.30712719 0.07380115
v 0.08797344 0.30773480 0.07316650
v 0.08797474 0.30713483 0.07316064
v 0.10934835 0.30781030 0.07018241
v 0.10934848 0.30769316 0.08218184
v 0.10934966 0.30721033 0.07017655
v 0.10934978 0.30709319 0.08217598
v -0.08400000 0.27600000 0.17350000
v -0.08359808 0.27750000 0.19350000
v -0.08359808 0.27750000 0.17350000
v -0.08250000 0.27859808 0.19350000
v -0.08250000 0.27859808 0.17350000
v -0.08100000 0.27900000 0.19350000
v -0.08100000 0.27900000 0.17350000
v -0.07950000 0.27859808 0.19350000
v -0.07950000 0.27859808 0.17350000
v -0.07840192 0.27750000 0.19350000
v -0.07840192 0.27750000 0.17350000
v -0.07800000 0.27600000 0.19350000
v -0.07800000 0.27600000 0.17350000
v -0.07840192 0.27450000 0.19350000
v -0.07840192 0.27450000 0.17350000
v -0.07950000 0.27340192 0.19350000
v -0.07950000 0.27340192 0.17350000
v -0.08100000 0.27300000 0.19350000
v -0.08100000 0.27300000 0.17350000
v -0.08250000 0.27340192 0.19350000
v -0.08250000 0.27340192 0.17350000
v -0.08359808 0.27450000 0.19350000
v -0.08359808 0.27450000 0.17350000
v -0.08400000 0.27600000 0.19350000
v -0.07950000 0.27600000 0.17350000
v -0.07800000 0.27600000 0.17350000
v -0.07970096 0.27525000 0.17350000
v -0.07840192 0.27450000 0.17350000
v -0.08025000 0.27470096 0.17350000
v -0.07950000 0.27340192 0.17350000
v -0.08100000 0.27450000 0.17350000
v -0.08100000 0.27300000 0.17350000
v -0.08175000 0.27470096 0.17350000
v -0.08250000 0.27340192 0.17350000
v -0.08229904 0.27525000 0.17350000
v -0.08359808 0.27450000 0.17350000
v -0.08250000 0.27600000 0.17350000
v -0.08400000 0.27600000 0.17350000
v -0.08229904 0.27675000 0.17350000
v -0.08359808 0.27750000 0.17350000
v -0.08175000 0.27729904 0.17350000
v -0.08250000 0.27859808 0.17350000
v -0.08100000 0.27750000 0.17350000
v -0.08100000 0.27900000 0.17350000
v -0.08025000 0.27729904 0.17350000
v -0.07950000 0.27859808 0.17350000
v -0.07970096 0.27675000 0.17350000
v -0.07840192 0.27750000 0.17350000
v -0.07970096 0.27675000 0.19350000
v -0.07840192 0.27750000 0.19350000
v -0.08025000 0.27729904 0.19350000
v -0.07950000 0.27859808 0.19350000
v -0.08100000 0.27750000 0.19350000
v -0.08100000 0.27900000 0.19350000
v -0.08175000 0.27729904 0.19350000
v -0.08250000 0.27859808 0.19350000
v -0.08229904 0.27675000 0.19350000
v -0.08359808 0.27750000 0.19350000
v -0.08250000 0.27600000 0.19350000
v -0.08400000 0.27600000 0.19350000
v -0.08229904 0.27525000 0.19350000
v -0.08359808 0.27450000 0.19350000
v -0.08175000 0.27470096 0.19350000
v -0.08250000 0.27340192 0.19350000
v -0.08100000 0.27450000 0.19350000
v -0.08100000 0.27300000 0.19350000
v -0.08025000 0.27470096 0.19350000
v -0.07950000 0.27340192 0.19350000
v -0.07970096 0.27525000 0.19350000
v -0.07840192 0.27450000 0.19350000
v -0.07950000 0.27600000 0.19350000
v -0.07800000 0.27600000 0.19350000
v -0.08250000 0.27600000 0.19350000
v -0.08250000 0.27600000 0.17350000
v -0.08229904 0.27675000 0.19350000
v -0.08229904 0.27675000 0.17350000
v -0.08175000 0.27729904 0.19350000
v -0.08175000 0.27729904 0.17350000
v -0.08100000 0.27750000 0.19350000
v -0.08100000 0.27750000 0.17350000
v -0.08025000 0.27729904 0.19350000
v -0.08025000 0.27729904 0.17350000
v -0.07970096 0.27675000 0.19350000
v -0.07970096 0.27675000 0.17350000
v -0.07950000 0.27600000 0.19350000
v -0.07950000 0.27600000 0.17350000
v -0.07970096 0.27525000 0.19350000
v -0.07970096 0.27525000 0.17350000
v -0.08025000 0.27470096 0.19350000
v -0.08025000 0.27470096 0.17350000
v -0.08100000 0.27450000 0.19350000
v -0.08100000 0.27450000 0.17350000
v -0.08175000 0.27470096 0.19350000
v -0.08175000 0.27470096 0.17350000
v -0.08229904 0.27525000 0.19350000
v -0.08229904 0.27525000 0.17350000
v -0.08464989 0.30678947 0.07017450
v -0.10964983 0.30673524 0.07017424
v -0.08465119 0.30738944 0.07018036
v -0.10965114 0.30733521 0.07018010
v -0.10964971 0.30661810 0.08217367
v -0.08464977 0.30667233 0.08217393
v -0.10965101 0.30721807 0.08217952
v -0.08465107 0.30727230 0.08217979
v -0.08464977 0.30667233 0.08217393
v -0.08464989 0.30678947 0.07017450
v -0.08465107 0.30727230 0.08217979
v -0.08465119 0.30738944 0.07018036
v -0.10514982 0.30671815 0.07292415
v -0.10515112 0.30731812 0.07293001
v -0.10602481 0.30671397 0.07315859
v -0.10602611 0.30731394 0.07316445
v -0.10666535 0.30670633 0.07379910
v -0.10666665 0.30730630 0.07380495
v -0.10689979 0.30669728 0.07467405
v -0.10690110 0.30729725 0.07467991
v -0.10666533 0.30668924 0.07554901
v -0.10666663 0.30728921 0.07555487
v -0.10602478 0.30668438 0.07618953
v -0.10602608 0.30728435 0.07619539
v -0.10514978 0.30668399 0.07642399
v -0.10515108 0.30728396 0.07642985
v -0.10427478 0.30668818 0.07618955
v -0.10427609 0.30728815 0.07619541
v -0.10363425 0.30669582 0.07554905
v -0.10363555 0.30729579 0.07555490
v -0.10339980 0.30670487 0.07467409
v -0.10340110 0.30730484 0.07467995
v -0.10363427 0.30671290 0.07379913
v -0.10363557 0.30731287 0.07380499
v -0.10427482 0.30671776 0.07315861
v -0.10427612 0.30731773 0.07316447
v -0.08763559 0.30733050 0.07555507
v -0.08827612 0.30732285 0.07619558
v -0.08465107 0.30727230 0.08217979
v -0.08915112 0.30731867 0.07643001
v -0.10602611 0.30731394 0.07316445
v -0.10515112 0.30731812 0.07293001
v -0.10965114 0.30733521 0.07018010
v -0.10427612 0.30731773 0.07316447
v -0.10602608 0.30728435 0.07619539
v -0.10666663 0.30728921 0.07555487
v -0.10965101 0.30721807 0.08217952
v -0.10690110 0.30729725 0.07467991
v -0.10666665 0.30730630 0.07380495
v -0.09002612 0.30731906 0.07619556
v -0.10340110 0.30730484 0.07467995
v -0.10363555 0.30729579 0.07555490
v -0.10427609 0.30728815 0.07619541
v -0.10515108 0.30728396 0.07642985
v -0.08740114 0.30733955 0.07468012
v -0.08465119 0.30738944 0.07018036
v -0.08763561 0.30734758 0.07380516
v -0.09066667 0.30732392 0.07555504
v -0.09090113 0.30733195 0.07468008
v -0.10363557 0.30731287 0.07380499
v -0.09066669 0.30734100 0.07380512
v -0.09002615 0.30734865 0.07316462
v -0.08915116 0.30735283 0.07293018
v -0.08827615 0.30735244 0.07316463
v -0.10363425 0.30669582 0.07554905
v -0.08914985 0.30675286 0.07292432
v -0.09002485 0.30674868 0.07315876
v -0.10602478 0.30668438 0.07618953
v -0.10514978 0.30668399 0.07642399
v -0.10964971 0.30661810 0.08217367
v -0.10427478 0.30668818 0.07618955
v -0.09066539 0.30674103 0.07379927
v -0.09089983 0.30673198 0.07467422
v -0.09066537 0.30672395 0.07554918
v -0.09002482 0.30671909 0.07618970
v -0.08464977 0.30667233 0.08217393
v -0.08914982 0.30671870 0.07642416
v -0.08827482 0.30672288 0.07618972
v -0.08763429 0.30673053 0.07554922
v -0.08739984 0.30673958 0.07467426
v -0.08464989 0.30678947 0.07017450
v -0.10514982 0.30671815 0.07292415
v -0.10964983 0.30673524 0.07017424
v -0.10602481 0.30671397 0.07315859
v -0.08763430 0.30674761 0.07379930
v -0.08827485 0.30675247 0.07315878
v -0.10666535 0.30670633 0.07379910
v -0.10689979 0.30669728 0.07467405
v -0.10666533 0.30668924 0.07554901
v -0.10339980 0.30670487 0.07467409
v -0.10363427 0.30671290 0.07379913
v -0.10427482 0.30671776 0.07315861
v -0.08914985 0.30675286 0.07292432
v -0.08915116 0.30735283 0.07293018
v -0.09002485 0.30674868 0.07315876
v -0.09002615 0.30734865 0.07316462
v -0.09066539 0.30674103 0.07379927
v -0.09066669 0.30734100 0.07380512
v -0.09089983 0.30673198 0.07467422
v -0.09090113 0.30733195 0.07468008
v -0.09066537 0.30672395 0.07554918
v -0.09066667 0.30732392 0.07555504
v -0.09002482 0.30671909 0.07618970
v -0.09002612 0.30731906 0.07619556
v -0.08914982 0.30671870 0.07642416
v -0.08915112 0.30731867 0.07643001
v -0.08827482 0.30672288 0.07618972
v -0.08827612 0.30732285 0.07619558
v -0.08763429 0.30673053 0.07554922
v -0.08763559 0.30733050 0.07555507
v -0.08739984 0.30673958 0.07467426
v -0.08740114 0.30733955 0.07468012
v -0.08763430 0.30674761 0.07379930
v -0.08763561 0.30734758 0.07380516
v -0.08827485 0.30675247 0.07315878
v -0.08827615 0.30735244 0.07316463
v -0.10964983 0.30673524 0.07017424
v -0.10964971 0.30661810 0.08217367
v -0.10965114 0.30733521 0.07018010
v -0.10965101 0.30721807 0.08217952
f 1 2 3
f 2 4 3
f 5 6 7
f 6 8 7
f 9 10 11
f 10 12 11
f 13 14 15
f 14 16 15
f 15 16 17
f 16 18 17
f 17 18 19
f 18 20 19
f 19 20 21
f 20 22 21
f 21 22 23
f 22 24 23
f 23 24 25
f 24 26 25
f 25 26 27
f 26 28 27
f 27 28 29
f 28 30 29
f 29 30 31
f 30 32 31
f 31 32 33
f 32 34 33
f 33 34 35
f 34 36 35
f 35 36 13
f 36 14 13
f 37 38 39
f 38 40 39
f 41 42 43
f 42 44 43
f 45 46 47
f 46 48 47
f 47 48 43
f 48 49 43
f 43 49 41
f 50 51 40
f 51 52 40
f 40 52 39
f 52 53 39
f 39 53 47
f 53 54 47
f 47 54 45
f 37 39 55
f 39 56 55
f 55 56 57
f 50 58 51
f 58 59 51
f 51 59 60
f 59 61 60
f 60 61 44
f 61 62 44
f 44 62 43
f 62 63 43
f 43 63 56
f 63 64 56
f 56 64 57
f 65 66 67
f 68 69 70
f 69 71 70
f 67 72 65
f 72 73 65
f 65 73 71
f 73 74 71
f 71 74 70
f 74 75 70
f 70 75 76
f 75 77 76
f 76 77 78
f 78 79 76
f 79 80 76
f 76 80 81
f 81 82 83
f 82 84 83
f 80 85 81
f 85 86 81
f 81 86 66
f 84 87 83
f 87 88 83
f 83 88 70
f 88 89 70
f 70 89 68
f 65 90 66
f 90 91 66
f 66 91 81
f 91 92 81
f 81 92 82
f 93 94 95
f 94 96 95
f 95 96 97
f 96 98 97
f 97 98 99
f 98 100 99
f 99 100 101
f 100 102 101
f 101 102 103
f 102 104 103
f 103 104 105
f 104 106 105
f 105 106 107
f 106 108 107
f 107 108 109
f 108 110 109
f 109 110 111
f 110 112 111
f 111 112 113
f 112 114 113
f 113 114 115
f 114 116 115
f 115 116 93
f 116 94 93
f 117 118 119
f 118 120 119
f 121 122 123
f 122 124 123
f 123 124 125
f 124 126 125
f 125 126 127
f 126 128 127
f 127 128 129
f 128 130 129
f 129 130 131
f 130 132 131
f 131 132 133
f 132 134 133
f 133 134 135
f 134 136 135
f 135 136 137
f 136 138 137
f 137 138 139
f 138 140 139
f 139 140 141
f 140 142 141
f 141 142 143
f 142 144 143
f 143 144 121
f 144 122 121
f 145 146 147
f 146 148 147
f 147 148 149
f 148 150 149
f 149 150 151
f 150 152 151
f 151 152 153
f 152 154 153
f 153 154 155
f 154 156 155
f 155 156 157
f 156 158 157
f 157 158 159
f 158 160 159
f 159 160 161
f 160 162 161
f 161 162 163
f 162 164 163
f 163 164 165
f 164 166 165
f 165 166 167
f 166 168 167
f 167 168 145
f 168 146 145
f 169 170 171
f 170 172 171
f 171 172 173
f 172 174 173
f 173 174 175
f 174 176 175
f 175 176 177
f 176 178 177
f 177 178 179
f 178 180 179
f 179 180 181
f 180 182 181
f 181 182 183
f 182 184 183
f 183 184 185
f 184 186 185
f 185 186 187
f 186 188 187
f 187 188 189
f 188 190 189
f 189 190 191
f 190 192 191
f 191 192 169
f 192 170 169
f 193 194 195
f 194 196 195
f 195 196 197
f 196 198 197
f 197 198 199
f 198 200 199
f 199 200 201
f 200 202 201
f 201 202 203
f 202 204 203
f 203 204 205
f 204 206 205
f 205 206 207
f 206 208 207
f 207 208 209
f 208 210 209
f 209 210 211
f 210 212 211
f 211 212 213
f 212 214 213
f 213 214 215
f 214 216 215
f 215 216 193
f 216 194 193
f 217 218 219
f 218 220 219
f 221 222 223
f 222 224 223
f 225 226 227
f 226 228 227
f 229 230 231
f 230 232 231
f 231 232 233
f 232 234 233
f 233 234 235
f 234 236 235
f 235 236 237
f 236 238 237
f 237 238 239
f 238 240 239
f 239 240 241
f 240 242 241
f 241 242 243
f 242 244 243
f 243 244 245
f 244 246 245
f 245 246 247
f 246 248 247
f 247 248 249
f 248 250 249
f 249 250 251
f 250 252 251
f 251 252 229
f 252 230 229
f 253 254 255
f 254 256 255
f 257 258 259
f 258 260 259
f 261 262 263
f 262 264 263
f 263 264 259
f 264 265 259
f 259 265 257
f 266 267 256
f 267 268 256
f 256 268 255
f 268 269 255
f 255 269 263
f 269 270 263
f 263 270 261
f 253 255 271
f 255 272 271
f 271 272 273
f 266 274 267
f 274 275 267
f 267 275 276
f 275 277 276
f 276 277 260
f 277 278 260
f 260 278 259
f 278 279 259
f 259 279 272
f 279 280 272
f 272 280 273
f 281 282 283
f 284 285 286
f 285 287 286
f 283 288 281
f 288 289 281
f 281 289 287
f 289 290 287
f 287 290 286
f 290 291 286
f 286 291 292
f 291 293 292
f 292 293 294
f 294 295 292
f 295 296 292
f 292 296 297
f 297 298 299
f 298 300 299
f 296 301 297
f 301 302 297
f 297 302 282
f 300 303 299
f 303 304 299
f 299 304 286
f 304 305 286
f 286 305 284
f 281 306 282
f 306 307 282
f 282 307 297
f 307 308 297
f 297 308 298
f 309 310 311
f 310 312 311
f 311 312 313
f 312 314 313
f 313 314 315
f 314 316 315
f 315 316 317
f 316 318 317
f 317 318 319
f 318 320 319
f 319 320 321
f 320 322 321
f 321 322 323
f 322 324 323
f 323 324 325
f 324 326 325
f 325 326 327
f 326 328 327
f 327 328 329
f 328 330 329
f 329 330 331
f 330 332 331
f 331 332 309
f 332 310 309
f 333 334 335
f 334 336 335
f 337 338 339
f 338 340 339
f 341 342 343
f 342 344 343
f 345 346 347
f 346 348 347
f 349 350 351
f 350 352 351
f 351 352 353
f 352 354 353
f 353 354 355
f 354 356 355
f 355 356 357
f 356 358 357
f 357 358 359
f 358 360 359
f 359 360 361
f 360 362 361
f 361 362 363
f 362 364 363
f 363 364 365
f 364 366 365
f 365 366 367
f 366 368 367
f 367 368 369
f 368 370 369
f 369 370 371
f 370 372 371
f 371 372 349
f 372 350 349
f 373 374 375
f 374 376 375
f 377 378 379
f 378 380 379
f 381 382 383
f 382 384 383
f 383 384 379
f 384 385 379
f 379 385 377
f 386 387 376
f 387 388 376
f 376 388 375
f 388 389 375
f 375 389 383
f 389 390 383
f 383 390 381
f 373 375 391
f 375 392 391
f 391 392 393
f 386 394 387
f 394 395 387
f 387 395 396
f 395 397 396
f 396 397 380
f 397 398 380
f 380 398 379
f 398 399 379
f 379 399 392
f 399 400 392
f 392 400 393
f 401 402 403
f 404 405 406
f 405 407 406
f 403 408 401
f 408 409 401
f 401 409 407
f 409 410 407
f 407 410 406
f 410 411 406
f 406 411 412
f 411 413 412
f 412 413 414
f 414 415 412
f 415 416 412
f 412 416 417
f 417 418 419
f 418 420 419
f 416 421 417
f 421 422 417
f 417 422 402
f 420 423 419
f 423 424 419
f 419 424 406
f 424 425 406
f 406 425 404
f 401 426 402
f 426 427 402
f 402 427 417
f 427 428 417
f 417 428 418
f 429 430 431
f 430 432 431
f 431 432 433
f 432 434 433
f 433 434 435
f 434 436 435
f 435 436 437
f 436 438 437
f 437 438 439
f 438 440 439
f 439 440 441
f 440 442 441
f 441 442 443
f 442 444 443
f 443 444 445
f 444 446 445
f 445 446 447
f 446 448 447
f 447 448 449
f 448 450 449
f 449 450 451
f 450 452 451
f 451 452 429
f 452 430 429
f 453 454 455
f 454 456 455
f 457 458 459
f 458 460 459
f 461 462 463
f 462 464 463
f 465 466 467
f 466 468 467
f 469 470 471
f 470 472 471
f 471 472 473
f 472 474 473
f 473 474 475
f 474 476 475
f 475 476 477
f 476 478 477
f 477 478 479
f 478 480 479
f 479 480 481
f 480 482 481
f 481 482 483
f 482 484 483
f 483 484 485
f 484 486 485
f 485 486 487
f 486 488 487
f 487 488 489
f 488 490 489
f 489 490 491
f 490 492 491
f 491 492 469
f 492 470 469
f 493 494 495
f 494 496 495
f 497 498 499
f 498 500 499
f 501 502 503
f 502 504 503
f 503 504 499
f 504 505 499
f 499 505 497
f 506 507 496
f 507 508 496
f 496 508 495
f 508 509 495
f 495 509 503
f 509 510 503
f 503 510 501
f 493 495 511
f 495 512 511
f 511 512 513
f 506 514 507
f 514 515 507
f 507 515 516
f 515 517 516
f 516 517 500
f 517 518 500
f 500 518 499
f 518 519 499
f 499 519 512
f 519 520 512
f 512 520 513
f 521 522 523
f 524 525 526
f 525 527 526
f 523 528 521
f 528 529 521
f 521 529 527
f 529 530 527
f 527 530 526
f 530 531 526
f 526 531 532
f 531 533 532
f 532 533 534
f 534 535 532
f 535 536 532
f 532 536 537
f 537 538 539
f 538 540 539
f 536 541 537
f 541 542 537
f 537 542 522
f 540 543 539
f 543 544 539
f 539 544 526
f 544 545 526
f 526 545 524
f 521 546 522
f 546 547 522
f 522 547 537
f 547 548 537
f 537 548 538
f 549 550 551
f 550 552 551
f 551 552 553
f 552 554 553
f 553 554 555
f 554 556 555
f 555 556 557
f 556 558 557
f 557 558 559
f 558 560 559
f 559 560 561
f 560 562 561
f 561 562 563
f 562 564 563
f 563 564 565
f 564 566 565
f 565 566 567
f 566 568 567
f 567 568 569
f 568 570 569
f 569 570 571
f 570 572 571
f 571 572 549
f 572 550 549
f 573 574 575
f 574 576 575
f 577 578 579
f 578 580 579
f 579 580 581
f 580 582 581
f 581 582 583
f 582 584 583
f 583 584 585
f 584 586 585
f 585 586 587
f 586 588 587
f 587 588 589
f 588 590 589
f 589 590 591
f 590 592 591
f 591 592 593
f 592 594 593
f 593 594 595
f 594 596 595
f 595 596 597
f 596 598 597
f 597 598 599
f 598 600 599
f 599 600 577
f 600 578 577
f 601 602 603
f 602 604 603
f 603 604 605
f 604 606 605
f 605 606 607
f 606 608 607
f 607 608 609
f 608 610 609
f 609 610 611
f 610 612 611
f 611 612 613
f 612 614 613
f 613 614 615
f 614 616 615
f 615 616 617
f 616 618 617
f 617 618 619
f 618 620 619
f 619 620 621
f 620 622 621
f 621 622 623
f 622 624 623
f 623 624 601
f 624 602 601
f 625 626 627
f 626 628 627
f 627 628 629
f 628 630 629
f 629 630 631
f 630 632 631
f 631 632 633
f 632 634 633
f 633 634 635
f 634 636 635
f 635 636 637
f 636 638 637
f 637 638 639
f 638 640 639
f 639 640 641
f 640 642 641
f 641 642 643
f 642 644 643
f 643 644 645
f 644 646 645
f 645 646 647
f 646 648 647
f 647 648 625
f 648 626 625
f 649 650 651
f 650 652 651
f 651 652 653
f 652 654 653
f 653 654 655
f 654 656 655
f 655 656 657
f 656 658 657
f 657 658 659
f 658 660 659
f 659 660 661
f 660 662 661
f 661 662 663
f 662 664 663
f 663 664 665
f 664 666 665
f 665 666 667
f 666 668 667
f 667 668 669
f 668 670 669
f 669 670 671
f 670 672 671
f 671 672 649
f 672 650 649
f 673 674 675
f 674 676 675
f 675 676 677
f 676 678 677
f 677 678 679
f 678 680 679
f 679 680 681
f 680 682 681
f 681 682 683
f 682 684 683
f 683 684 685
f 684 686 685
f 685 686 687
f 686 688 687
f 687 688 689
f 688 690 689
f 689 690 691
f 690 692 691
f 691 692 693
f 692 694 693
f 693 694 695
f 694 696 695
f 695 696 673
f 696 674 673
f 697 698 699
f 698 700 699
f 699 700 701
f 700 702 701
f 701 702 703
f 702 704 703
f 703 704 705
f 704 706 705
f 705 706 707
f 706 708 707
f 707 708 709
f 708 710 709
f 709 710 711
f 710 712 711
f 711 712 713
f 712 714 713
f 713 714 715
f 714 716 715
f 715 716 717
f 716 718 717
f 717 718 719
f 718 720 719
f 719 720 697
f 720 698 697
f 721 722 723
f 722 724 723
f 723 724 725
f 724 726 725
f 725 726 727
f 726 728 727
f 727 728 729
f 728 730 729
f 729 730 731
f 730 732 731
f 731 732 733
f 732 734 733
f 733 734 735
f 734 736 735
f 735 736 737
f 736 738 737
f 737 738 739
f 738 740 739
f 739 740 741
f 740 742 741
f 741 742 743
f 742 744 743
f 743 744 721
f 744 722 721
f 745 746 747
f 746 748 747
f 747 748 749
f 748 750 749
f 749 750 751
f 750 752 751
f 751 752 753
f 752 754 753
f 753 754 755
f 754 756 755
f 755 756 757
f 756 758 757
f 757 758 759
f 758 760 759
f 759 760 761
f 760 762 761
f 761 762 763
f 762 764 763
f 763 764 765
f 764 766 765
f 765 766 767
f 766 768 767
f 767 768 745
f 768 746 745
f 769 770 771
f 770 772 771
f 771 772 773
f 772 774 773
f 773 774 775
f 774 776 775
f 775 776 777
f 776 778 777
f 777 778 779
f 778 780 779
f 779 780 781
f 780 782 781
f 781 782 783
f 782 784 783
f 783 784 785
f 784 786 785
f 785 786 787
f 786 788 787
f 787 788 789
f 788 790 789
f 789 790 791
f 790 792 791
f 791 792 769
f 792 770 769
f 793 794 795
f 794 796 795
f 795 796 797
f 796 798 797
f 797 798 799
f 798 800 799
f 799 800 801
f 800 802 801
f 801 802 803
f 802 804 803
f 803 804 805
f 804 806 805
f 805 806 807
f 806 808 807
f 807 808 809
f 808 810 809
f 809 810 811
f 810 812 811
f 811 812 813
f 812 814 813
f 813 814 815
f 814 816 815
f 815 816 793
f 816 794 793
f 817 818 819
f 818 820 819
f 819 820 821
f 820 822 821
f 821 822 823
f 822 824 823
f 823 824 825
f 824 826 825
f 825 826 827
f 826 828 827
f 827 828 829
f 828 830 829
f 829 830 831
f 830 832 831
f 831 832 833
f 832 834 833
f 833 834 835
f 834 836 835
f 835 836 837
f 836 838 837
f 837 838 839
f 838 840 839
f 839 840 817
f 840 818 817
f 841 842 843
f 842 844 843
f 843 844 845
f 844 846 845
f 845 846 847
f 846 848 847
f 847 848 849
f 848 850 849
f 849 850 851
f 850 852 851
f 851 852 853
f 852 854 853
f 853 854 855
f 854 856 855
f 855 856 857
f 856 858 857
f 857 858 859
f 858 860 859
f 859 860 861
f 860 862 861
f 861 862 863
f 862 864 863
f 863 864 841
f 864 842 841
f 865 866 867
f 866 868 867
f 867 868 869
f 868 870 869
f 869 870 871
f 870 872 871
f 871 872 873
f 872 874 873
f 873 874 875
f 874 876 875
f 875 876 877
f 876 878 877
f 877 878 879
f 878 880 879
f 879 880 881
f 880 882 881
f 881 882 883
f 882 884 883
f 883 884 885
f 884 886 885
f 885 886 887
f 886 888 887
f 887 888 865
f 888 866 865
f 889 890 891
f 890 892 891
f 891 892 893
f 892 894 893
f 893 894 895
f 894 896 895
f 895 896 897
f 896 898 897
f 897 898 899
f 898 900 899
f 899 900 901
f 900 902 901
f 901 902 903
f 902 904 903
f 903 904 905
f 904 906 905
f 905 906 907
f 906 908 907
f 907 908 909
f 908 910 909
f 909 910 911
f 910 912 911
f 911 912 889
f 912 890 889
f 913 914 915
f 914 916 915
f 915 916 917
f 916 918 917
f 917 918 919
f 918 920 919
f 919 920 921
f 920 922 921
f 921 922 923
f 922 924 923
f 923 924 925
f 924 926 925
f 925 926 927
f 926 928 927
f 927 928 929
f 928 930 929
f 929 930 931
f 930 932 931
f 931 932 933
f 932 934 933
f 933 934 935
f 934 936 935
f 935 936 913
f 936 914 913
f 937 938 939
f 938 940 939
f 939 940 941
f 940 942 941
f 941 942 943
f 942 944 943
f 943 944 945
f 944 946 945
f 945 946 947
f 946 948 947
f 947 948 949
f 948 950 949
f 949 950 951
f 950 952 951
f 951 952 953
f 952 954 953
f 953 954 955
f 954 956 955
f 955 956 957
f 956 958 957
f 957 958 959
f 958 960 959
f 959 960 937
f 960 938 937
f 961 962 963
f 962 964 963
f 963 964 965
f 964 966 965
f 965 966 967
f 966 968 967
f 967 968 969
f 968 970 969
f 969 970 971
f 970 972 971
f 971 972 973
f 972 974 973
f 973 974 975
f 974 976 975
f 975 976 977
f 976 978 977
f 977 978 979
f 978 980 979
f 979 980 981
f 980 982 981
f 981 982 983
f 982 984 983
f 983 984 961
f 984 962 961
f 985 986 987
f 986 988 987
f 987 988 989
f 988 990 989
f 989 990 991
f 990 992 991
f 991 992 993
f 992 994 993
f 993 994 995
f 994 996 995
f 995 996 997
f 996 998 997
f 997 998 999
f 998 1000 999
f 999 1000 1001
f 1000 1002 1001
f 1001 1002 1003
f 1002 1004 1003
f 1003 1004 1005
f 1004 1006 1005
f 1005 1006 1007
f 1006 1008 1007
f 1007 1008 985
f 1008 986 985
f 1009 1010 1011
f 1010 1012 1011
f 1011 1012 1013
f 1012 1014 1013
f 1013 1014 1015
f 1014 1016 1015
f 1015 1016 1017
f 1016 1018 1017
f 1017 1018 1019
f 1018 1020 1019
f 1019 1020 1021
f 1020 1022 1021
f 1021 1022 1023
f 1022 1024 1023
f 1023 1024 1025
f 1024 1026 1025
f 1025 1026 1027
f 1026 1028 1027
f 1027 1028 1029
f 1028 1030 1029
f 1029 1030 1031
f 1030 1032 1031
f 1031 1032 1009
f 1032 1010 1009
f 1033 1034 1035
f 1034 1036 1035
f 1035 1036 1037
f 1036 1038 1037
f 1037 1038 1039
f 1038 1040 1039
f 1039 1040 1041
f 1040 1042 1041
f 1041 1042 1043
f 1042 1044 1043
f 1043 1044 1045
f 1044 1046 1045
f 1045 1046 1047
f 1046 1048 1047
f 1047 1048 1049
f 1048 1050 1049
f 1049 1050 1051
f 1050 1052 1051
f 1051 1052 1053
f 1052 1054 1053
f 1053 1054 1055
f 1054 1056 1055
f 1055 1056 1033
f 1056 1034 1033
f 1057 1058 1059
f 1058 1060 1059
f 1061 1062 1063
f 1062 1064 1063
f 1065 1066 1067
f 1066 1068 1067
f 1069 1070 1071
f 1070 1072 1071
f 1071 1072 1073
f 1072 1074 1073
f 1073 1074 1075
f 1074 1076 1075
f 1075 1076 1077
f 1076 1078 1077
f 1077 1078 1079
f 1078 1080 1079
f 1079 1080 1081
f 1080 1082 1081
f 1081 1082 1083
f 1082 1084 1083
f 1083 1084 1085
f 1084 1086 1085
f 1085 1086 1087
f 1086 1088 1087
f 1087 1088 1089
f 1088 1090 1089
f 1089 1090 1091
f 1090 1092 1091
f 1091 1092 1069
f 1092 1070 1069
f 1093 1094 1095
f 1094 1096 1095
f 1097 1098 1099
f 1098 1100 1099
f 1101 1102 1103
f 1102 1104 1103
f 1103 1104 1099
f 1104 1105 1099
f 1099 1105 1097
f 1106 1107 1096
f 1107 1108 1096
f 1096 1108 1095
f 1108 1109 1095
f 1095 1109 1103
f 1109 1110 1103
f 1103 1110 1101
f 1093 1095 1111
f 1095 1112 1111
f 1111 1112 1113
f 1106 1114 1107
f 1114 1115 1107
f 1107 1115 1116
f 1115 1117 1116
f 1116 1117 1100
f 1117 1118 1100
f 1100 1118 1099
f 1118 1119 1099
f 1099 1119 1112
f 1119 1120 1112
f 1112 1120 1113
f 1121 1122 1123
f 1124 1125 1126
f 1125 1127 1126
f 1123 1128 1121
f 1128 1129 1121
f 1121 1129 1127
f 1129 1130 1127
f 1127 1130 1126
f 1130 1131 1126
f 1126 1131 1132
f 1131 1133 1132
f 1132 1133 1134
f 1134 1135 1132
f 1135 1136 1132
f 1132 1136 1137
f 1137 1138 1139
f 1138 1140 1139
f 1136 1141 1137
f 1141 1142 1137
f 1137 1142 1122
f 1140 1143 1139
f 1143 1144 1139
f 1139 1144 1126
f 1144 1145 1126
f 1126 1145 1124
f 1121 1146 1122
f 1146 1147 1122
f 1122 1147 1137
f 1147 1148 1137
f 1137 1148 1138
f 1149 1150 1151
f 1150 1152 1151
f 1151 1152 1153
f 1152 1154 1153
f 1153 1154 1155
f 1154 1156 1155
f 1155 1156 1157
f 1156 1158 1157
f 1157 1158 1159
f 1158 1160 1159
f 1159 1160 1161
f 1160 1162 1161
f 1161 1162 1163
f 1162 1164 1163
f 1163 1164 1165
f 1164 1166 1165
f 1165 1166 1167
f 1166 1168 1167
f 1167 1168 1169
f 1168 1170 1169
f 1169 1170 1171
f 1170 1172 1171
f 1171 1172 1149
f 1172 1150 1149
f 1173 1174 1175
f 1174 1176 1175
f 1177 1178 1179
f 1178 1180 1179
f 1179 1180 1181
f 1180 1182 1181
f 1181 1182 1183
f 1182 1184 1183
f 1183 1184 1185
f 1184 1186 1185
f 1185 1186 1187
f 1186 1188 1187
f 1187 1188 1189
f 1188 1190 1189
f 1189 1190 1191
f 1190 1192 1191
f 1191 1192 1193
f 1192 1194 1193
f 1193 1194 1195
f 1194 1196 1195
f 1195 1196 1197
f 1196 1198 1197
f 1197 1198 1199
f 1198 1200 1199
f 1199 1200 1177
f 1200 1178 1177
f 1201 1202 1203
f 1202 1204 1203
f 1203 1204 1205
f 1204 1206 1205
f 1205 1206 1207
f 1206 1208 1207
f 1207 1208 1209
f 1208 1210 1209
f 1209 1210 1211
f 1210 1212 1211
f 1211 1212 1213
f 1212 1214 1213
f 1213 1214 1215
f 1214 1216 1215
f 1215 1216 1217
f 1216 1218 1217
f 1217 1218 1219
f 1218 1220 1219
f 1219 1220 1221
f 1220 1222 1221
f 1221 1222 1223
f 1222 1224 1223
f 1223 1224 1201
f 1224 1202 1201
f 1225 1226 1227
f 1226 1228 1227
f 1227 1228 1229
f 1228 1230 1229
f 1229 1230 1231
f 1230 1232 1231
f 1231 1232 1233
f 1232 1234 1233
f 1233 1234 1235
f 1234 1236 1235
f 1235 1236 1237
f 1236 1238 1237
f 1237 1238 1239
f 1238 1240 1239
f 1239 1240 1241
f 1240 1242 1241
f 1241 1242 1243
f 1242 1244 1243
f 1243 1244 1245
f 1244 1246 1245
f 1245 1246 1247
f 1246 1248 1247
f 1247 1248 1225
f 1248 1226 1225
f 1249 1250 1251
f 1250 1252 1251
f 1251 1252 1253
f 1252 1254 1253
f 1253 1254 1255
f 1254 1256 1255
f 1255 1256 1257
f 1256 1258 1257
f 1257 1258 1259
f 1258 1260 1259
f 1259 1260 1261
f 1260 1262 1261
f 1261 1262 1263
f 1262 1264 1263
f 1263 1264 1265
f 1264 1266 1265
f 1265 1266 1267
f 1266 1268 1267
f 1267 1268 1269
f 1268 1270 1269
f 1269 1270 1271
f 1270 1272 1271
f 1271 1272 1249
f 1272 1250 1249
f 1273 1274 1275
f 1274 1276 1275
f 1277 1278 1279
f 1278 1280 1279
f 1281 1282 1283
f 1282 1284 1283
f 1285 1286 1287
f 1286 1288 1287
f 1287 1288 1289
f 1288 1290 1289
f 1289 1290 1291
f 1290 1292 1291
f 1291 1292 1293
f 1292 1294 1293
f 1293 1294 1295
f 1294 1296 1295
f 1295 1296 1297
f 1296 1298 1297
f 1297 1298 1299
f 1298 1300 1299
f 1299 1300 1301
f 1300 1302 1301
f 1301 1302 1303
f 1302 1304 1303
f 1303 1304 1305
f 1304 1306 1305
f 1305 1306 1307
f 1306 1308 1307
f 1307 1308 1285
f 1308 1286 1285
f 1309 1310 1311
f 1310 1312 1311
f 1313 1314 1315
f 1314 1316 1315
f 1317 1318 1319
f 1318 1320 1319
f 1319 1320 1315
f 1320 1321 1315
f 1315 1321 1313
f 1322 1323 1312
f 1323 1324 1312
f 1312 1324 1311
f 1324 1325 1311
f 1311 1325 1319
f 1325 1326 1319
f 1319 1326 1317
f 1309 1311 1327
f 1311 1328 1327
f 1327 1328 1329
f 1322 1330 1323
f 1330 1331 1323
f 1323 1331 1332
f 1331 1333 1332
f 1332 1333 1316
f 1333 1334 1316
f 1316 1334 1315
f 1334 1335 1315
f 1315 1335 1328
f 1335 1336 1328
f 1328 1336 1329
f 1337 1338 1339
f 1340 1341 1342
f 1341 1343 1342
f 1339 1344 1337
f 1344 1345 1337
f 1337 1345 1343
f 1345 1346 1343
f 1343 1346 1342
f 1346 1347 1342
f 1342 1347 1348
f 1347 1349 1348
f 1348 1349 1350
f 1350 1351 1348
f 1351 1352 1348
f 1348 1352 1353
f 1353 1354 1355
f 1354 1356 1355
f 1352 1357 1353
f 1357 1358 1353
f 1353 1358 1338
f 1356 1359 1355
f 1359 1360 1355
f 1355 1360 1342
f 1360 1361 1342
f 1342 1361 1340
f 1337 1362 1338
f 1362 1363 1338
f 1338 1363 1353
f 1363 1364 1353
f 1353 1364 1354
f 1365 1366 1367
f 1366 1368 1367
f 1367 1368 1369
f 1368 1370 1369
f 1369 1370 1371
f 1370 1372 1371
f 1371 1372 1373
f 1372 1374 1373
f 1373 1374 1375
f 1374 1376 1375
f 1375 1376 1377
f 1376 1378 1377
f 1377 1378 1379
f 1378 1380 1379
f 1379 1380 1381
f 1380 1382 1381
f 1381 1382 1383
f 1382 1384 1383
f 1383 1384 1385
f 1384 1386 1385
f 1385 1386 1387
f 1386 1388 1387
f 1387 1388 1365
f 1388 1366 1365
f 1389 1390 1391
f 1390 1392 1391
f 1393 1394 1395
f 1394 1396 1395
f 1397 1398 1399
f 1398 1400 1399
f 1401 1402 1403
f 1402 1404 1403
f 1405 1406 1407
f 1406 1408 1407
f 1407 1408 1409
f 1408 1410 1409
f 1409 1410 1411
f 1410 1412 1411
f 1411 1412 1413
f 1412 1414 1413
f 1413 1414 1415
f 1414 1416 1415
f 1415 1416 1417
f 1416 1418 1417
f 1417 1418 1419
f 1418 1420 1419
f 1419 1420 1421
f 1420 1422 1421
f 1421 1422 1423
f 1422 1424 1423
f 1423 1424 1425
f 1424 1426 1425
f 1425 1426 1427
f 1426 1428 1427
f 1427 1428 1405
f 1428 1406 1405
f 1429 1430 1431
f 1430 1432 1431
f 1433 1434 1435
f 1434 1436 1435
f 1437 1438 1439
f 1438 1440 1439
f 1439 1440 1435
f 1440 1441 1435
f 1435 1441 1433
f 1442 1443 1432
f 1443 1444 1432
f 1432 1444 1431
f 1444 1445 1431
f 1431 1445 1439
f 1445 1446 1439
f 1439 1446 1437
f 1429 1431 1447
f 1431 1448 1447
f 1447 1448 1449
f 1442 1450 1443
f 1450 1451 1443
f 1443 1451 1452
f 1451 1453 1452
f 1452 1453 1436
f 1453 1454 1436
f 1436 1454 1435
f 1454 1455 1435
f 1435 1455 1448
f 1455 1456 1448
f 1448 1456 1449
f 1457 1458 1459
f 1460 1461 1462
f 1461 1463 1462
f 1459 1464 1457
f 1464 1465 1457
f 1457 1465 1463
f 1465 1466 1463
f 1463 1466 1462
f 1466 1467 1462
f 1462 1467 1468
f 1467 1469 1468
f 1468 1469 1470
f 1470 1471 1468
f 1471 1472 1468
f 1468 1472 1473
f 1473 1474 1475
f 1474 1476 1475
f 1472 1477 1473
f 1477 1478 1473
f 1473 1478 1458
f 1476 1479 1475
f 1479 1480 1475
f 1475 1480 1462
f 1480 1481 1462
f 1462 1481 1460
f 1457 1482 1458
f 1482 1483 1458
f 1458 1483 1473
f 1483 1484 1473
f 1473 1484 1474
f 1485 1486 1487
f 1486 1488 1487
f 1487 1488 1489
f 1488 1490 1489
f 1489 1490 1491
f 1490 1492 1491
f 1491 1492 1493
f 1492 1494 1493
f 1493 1494 1495
f 1494 1496 1495
f 1495 1496 1497
f 1496 1498 1497
f 1497 1498 1499
f 1498 1500 1499
f 1499 1500 1501
f 1500 1502 1501
f 1501 1502 1503
f 1502 1504 1503
f 1503 1504 1505
f 1504 1506 1505
f 1505 1506 1507
f 1506 1508 1507
f 1507 1508 1485
f 1508 1486 1485
f 1509 1510 1511
f 1510 1512 1511
f 1513 1514 1515
f 1514 1516 1515
f 1515 1516 1517
f 1516 1518 1517
f 1517 1518 1519
f 1518 1520 1519
f 1519 1520 1521
f 1520 1522 1521
f 1521 1522 1523
f 1522 1524 1523
f 1523 1524 1525
f 1524 1526 1525
f 1525 1526 1527
f 1526 1528 1527
f 1527 1528 1529
f 1528 1530 1529
f 1529 1530 1531
f 1530 1532 1531
f 1531 1532 1533
f 1532 1534 1533
f 1533 1534 1535
f 1534 1536 1535
f 1535 1536 1513
f 1536 1514 1513
f 1537 1538 1539
f 1538 1540 1539
f 1539 1540 1541
f 1540 1542 1541
f 1541 1542 1543
f 1542 1544 1543
f 1543 1544 1545
f 1544 1546 1545
f 1545 1546 1547
f 1546 1548 1547
f 1547 1548 1549
f 1548 1550 1549
f 1549 1550 1551
f 1550 1552 1551
f 1551 1552 1553
f 1552 1554 1553
f 1553 1554 1555
f 1554 1556 1555
f 1555 1556 1557
f 1556 1558 1557
f 1557 1558 1559
f 1558 1560 1559
f 1559 1560 1537
f 1560 1538 1537
f 1561 1562 1563
f 1562 1564 1563
f 1563 1564 1565
f 1564 1566 1565
f 1565 1566 1567
f 1566 1568 1567
f 1567 1568 1569
f 1568 1570 1569
f 1569 1570 1571
f 1570 1572 1571
f 1571 1572 1573
f 1572 1574 1573
f 1573 1574 1575
f 1574 1576 1575
f 1575 1576 1577
f 1576 1578 1577
f 1577 1578 1579
f 1578 1580 1579
f 1579 1580 1581
f 1580 1582 1581
f 1581 1582 1583
f 1582 1584 1583
f 1583 1584 1561
f 1584 1562 1561
f 1585 1586 1587
f 1586 1588 1587
f 1587 1588 1589
f 1588 1590 1589
f 1589 1590 1591
f 1590 1592 1591
f 1591 1592 1593
f 1592 1594 1593
f 1593 1594 1595
f 1594 1596 1595
f 1595 1596 1597
f 1596 1598 1597
f 1597 1598 1599
f 1598 1600 1599
f 1599 1600 1601
f 1600 1602 1601
f 1601 1602 1603
f 1602 1604 1603
f 1603 1604 1605
f 1604 1606 1605
f 1605 1606 1607
f 1606 1608 1607
f 1607 1608 1585
f 1608 1586 1585
f 1609 1610 1611
f 1610 1612 1611
f 1613 1614 1615
f 1614 1616 1615
f 1617 1618 1619
f 1618 1620 1619
f 1621 1622 1623
f 1622 1624 1623
f 1623 1624 1625
f 1624 1626 1625
f 1625 1626 1627
f 1626 1628 1627
f 1627 1628 1629
f 1628 1630 1629
f 1629 1630 1631
f 1630 1632 1631
f 1631 1632 1633
f 1632 1634 1633
f 1633 1634 1635
f 1634 1636 1635
f 1635 1636 1637
f 1636 1638 1637
f 1637 1638 1639
f 1638 1640 1639
f 1639 1640 1641
f 1640 1642 1641
f 1641 1642 1643
f 1642 1644 1643
f 1643 1644 1621
f 1644 1622 1621
f 1645 1646 1647
f 1646 1648 1647
f 1649 1650 1651
f 1650 1652 1651
f 1653 1654 1655
f 1654 1656 1655
f 1655 1656 1651
f 1656 1657 1651
f 1651 1657 1649
f 1658 1659 1648
f 1659 1660 1648
f 1648 1660 1647
f 1660 1661 1647
f 1647 1661 1655
f 1661 1662 1655
f 1655 1662 1653
f 1645 1647 1663
f 1647 1664 1663
f 1663 1664 1665
f 1658 1666 1659
f 1666 1667 1659
f 1659 1667 1668
f 1667 1669 1668
f 1668 1669 1652
f 1669 1670 1652
f 1652 1670 1651
f 1670 1671 1651
f 1651 1671 1664
f 1671 1672 1664
f 1664 1672 1665
f 1673 1674 1675
f 1676 1677 1678
f 1677 1679 1678
f 1675 1680 1673
f 1680 1681 1673
f 1673 1681 1679
f 1681 1682 1679
f 1679 1682 1678
f 1682 1683 1678
f 1678 1683 1684
f 1683 1685 1684
f 1684 1685 1686
f 1686 1687 1684
f 1687 1688 1684
f 1684 1688 1689
f 1689 1690 1691
f 1690 1692 1691
f 1688 1693 1689
f 1693 1694 1689
f 1689 1694 1674
f 1692 1695 1691
f 1695 1696 1691
f 1691 1696 1678
f 1696 1697 1678
f 1678 1697 1676
f 1673 1698 1674
f 1698 1699 1674
f 1674 1699 1689
f 1699 1700 1689
f 1689 1700 1690
f 1701 1702 1703
f 1702 1704 1703
f 1703 1704 1705
f 1704 1706 1705
f 1705 1706 1707
f 1706 1708 1707
f 1707 1708 1709
f 1708 1710 1709
f 1709 1710 1711
f 1710 1712 1711
f 1711 1712 1713
f 1712 1714 1713
f 1713 1714 1715
f 1714 1716 1715
f 1715 1716 1717
f 1716 1718 1717
f 1717 1718 1719
f 1718 1720 1719
f 1719 1720 1721
f 1720 1722 1721
f 1721 1722 1723
f 1722 1724 1723
f 1723 1724 1701
f 1724 1702 1701
f 1725 1726 1727
f 1726 1728 1727

