# https://github.com/mikedh/trimesh
v 0.02500000 0.02089313 0.06800000
v 0.02500000 0.02850000 0.06800000
v -0.02576488 0.01994162 0.06800000
v -0.02576488 0.01994162 0.06500000
v 0.02300000 0.03050000 0.06500000
v 0.02300000 0.03050000 0.06800000
v 0.01900000 0.03050000 0.06800000
v 0.01800000 0.00050000 0.06800000
v 0.01800000 0.00050000 0.06500000
v 0.01950000 0.00090192 0.06500000
v 0.02059808 0.00200000 0.06500000
v 0.02059808 0.00200000 0.06800000
v 0.02100000 0.00350000 0.06500000
v -0.02200000 0.00350000 0.06500000
v -0.02159808 0.00200000 0.06500000
v -0.02159808 0.00200000 0.06800000
v -0.02050000 0.00090192 0.06500000
v -0.02050000 0.00090192 0.06800000
v -0.01900000 0.00050000 0.06500000
v -0.01900000 0.00050000 0.06800000
v -0.02600000 0.02791303 0.06800000
v -0.02600000 0.02850000 0.06800000
v -0.02573205 0.02950000 0.06800000
v -0.02500000 0.03023205 0.06800000
v -0.02600000 0.02110586 0.06800000
v 0.02100000 0.00350000 0.06800000
v 0.01950000 0.00090192 0.06800000
v 0.01834151 0.00059150 0.06800000
v 0.01222650 0.00050000 0.06800000
v -0.02200000 0.00350000 0.06800000
v 0.02500000 0.02702628 0.06800000
v 0.02473205 0.02950000 0.06800000
v 0.02400000 0.03023205 0.06800000
v 0.02500000 0.02262436 0.06800000
v -0.02600000 0.02791303 0.06500000
v -0.02600000 0.02850000 0.06500000
v -0.02500000 0.03023205 0.06500000
v -0.02573205 0.02950000 0.06500000
v -0.02600000 0.02110586 0.06500000
v 0.01950000 0.00550000 0.06500000
v 0.02500000 0.02702628 0.06500000
v 0.02500000 0.02850000 0.06500000
v 0.02473205 0.02950000 0.06500000
v 0.01900000 0.03050000 0.06500000
v 0.01834151 0.00059150 0.06500000
v 0.02489870 0.02012014 0.06500000
v 0.02500000 0.02262436 0.06500000
v 0.02500000 0.02089313 0.06500000
v 0.01222650 0.00050000 0.06500000
v -0.02400000 0.03050000 0.06800000
v -0.02400000 0.03050000 0.06500000
v 0.02400000 0.03023205 0.06500000
v 0.02489870 0.02012014 0.06800000
f 49 19 9
f 9 11 10
f 9 10 45
f 14 4 15
f 9 19 40
f 40 19 17
f 49 8 29
f 9 8 49
f 20 49 29
f 19 49 20
f 17 19 20
f 20 18 17
f 32 2 43
f 43 2 42
f 27 11 12
f 27 10 11
f 9 40 13
f 13 11 9
f 13 40 46
f 53 26 13
f 46 53 13
f 13 26 12
f 12 11 13
f 24 51 37
f 50 51 24
f 6 33 52
f 5 6 52
f 52 33 32
f 32 43 52
f 41 2 31
f 42 2 41
f 31 34 41
f 41 34 47
f 46 40 48
f 40 42 48
f 42 41 48
f 48 41 47
f 48 1 53
f 48 53 46
f 48 34 1
f 47 34 48
f 3 25 4
f 4 25 39
f 4 30 3
f 14 30 4
f 17 18 15
f 18 16 15
f 16 30 15
f 15 30 14
f 35 4 39
f 35 15 4
f 36 15 35
f 35 25 21
f 39 25 35
f 36 35 22
f 22 35 21
f 23 24 38
f 38 24 37
f 38 22 23
f 36 22 38
f 44 43 42
f 44 38 37
f 44 40 17
f 44 42 40
f 37 51 44
f 5 52 44
f 17 15 44
f 44 52 43
f 44 15 36
f 36 38 44
f 44 7 6
f 44 6 5
f 44 51 50
f 50 7 44
f 28 20 29
f 3 30 28
f 28 33 6
f 29 8 28
f 28 27 12
f 31 2 28
f 28 16 18
f 6 7 28
f 12 26 28
f 18 20 28
f 50 24 28
f 32 33 28
f 53 1 28
f 28 26 53
f 28 34 31
f 21 25 28
f 28 2 32
f 28 22 21
f 28 25 3
f 28 24 23
f 28 7 50
f 1 34 28
f 28 30 16
f 23 22 28
f 28 8 9
f 9 45 28
f 10 27 28
f 28 45 10

