# https://github.com/mikedh/trimesh
v 0.12716510 -0.08275001 0.26310541
v 0.12624999 -0.08183491 0.26260528
v 0.12624999 -0.08183491 0.26310541
v 0.12499993 -0.08149995 0.26260528
v 0.12499993 -0.08149995 0.26310541
v 0.12750005 -0.08400007 0.26310541
v 0.12749988 -0.08400007 0.26260528
v 0.12749954 -0.08394968 0.26260528
v 0.12716510 -0.08275001 0.26260528
v 0.08649988 -0.08400007 0.26310541
v 0.08900000 -0.08149995 0.26310541
v 0.08774994 -0.08183491 0.26310541
v 0.08683483 -0.08275001 0.26310541
v 0.12499993 -0.12250012 0.26260528
v 0.12499993 -0.12250012 0.26310541
v 0.12624999 -0.12216517 0.26260528
v 0.12624999 -0.12216517 0.26310541
v 0.12716510 -0.12125006 0.26260528
v 0.12716510 -0.12125006 0.26310541
v 0.12749954 -0.12005040 0.26260528
v 0.12750005 -0.12000000 0.26310541
v 0.12749988 -0.12000000 0.26260528
v 0.08683483 -0.12125006 0.26310541
v 0.08650316 -0.12012818 0.26260528
v 0.08683483 -0.12125006 0.26260528
v 0.08774994 -0.12216517 0.26260528
v 0.08774994 -0.12216517 0.26310541
v 0.08900000 -0.12250012 0.26260528
v 0.08650099 -0.12000000 0.26260528
v 0.08649988 -0.12000000 0.26310541
v 0.08900000 -0.12250012 0.26310541
v 0.08649988 -0.08400007 0.26260528
v 0.08651588 -0.08371767 0.26260528
v 0.08900000 -0.08149995 0.26260528
v 0.08774994 -0.08183491 0.26260528
v 0.08683483 -0.08275001 0.26260528
f 21 19 20
f 21 20 22
f 25 23 24
f 8 1 6
f 8 9 1
f 6 7 8
f 33 32 10
f 36 33 13
f 13 33 10
f 29 24 30
f 30 24 23
f 32 29 30
f 10 32 30
f 18 20 19
f 4 34 11
f 11 5 4
f 6 21 22
f 22 7 6
f 5 3 2
f 4 5 2
f 2 3 1
f 1 9 2
f 16 17 15
f 16 15 14
f 26 27 23
f 26 23 25
f 31 28 14
f 14 15 31
f 31 26 28
f 27 26 31
f 10 30 12
f 12 3 5
f 12 21 6
f 6 1 12
f 12 13 10
f 12 19 21
f 15 17 12
f 1 3 12
f 5 11 12
f 12 17 19
f 23 27 12
f 12 31 15
f 12 30 23
f 27 31 12
f 12 11 34
f 34 35 12
f 12 35 36
f 36 13 12
f 18 34 4
f 18 29 32
f 14 28 18
f 18 35 34
f 25 24 18
f 18 8 7
f 7 22 18
f 18 16 14
f 4 2 18
f 32 33 18
f 18 22 20
f 18 24 29
f 18 2 9
f 9 8 18
f 18 33 36
f 36 35 18
f 18 26 25
f 28 26 18
f 19 17 18
f 17 16 18

