# https://github.com/mikedh/trimesh
v -0.03343658 -0.04112764 0.02815000
v -0.03162493 -0.04111116 0.03085000
v -0.03004774 -0.04200271 0.03085000
v -0.02911116 -0.04537507 0.03085000
v -0.02911116 -0.04537507 0.02815000
v -0.03156341 -0.04787236 0.03085000
v -0.03156341 -0.04787236 0.02815000
v -0.03337507 -0.04788884 0.03085000
v -0.03495226 -0.04699729 0.02815000
v -0.03587236 -0.04543659 0.03085000
v -0.03588884 -0.04362493 0.03085000
v -0.03588884 -0.04362493 0.02815000
v -0.03499729 -0.04204774 0.03085000
v -0.03000271 -0.04695226 0.02815000
v -0.02925639 -0.04533757 0.02800000
v -0.02927217 -0.04360355 0.02800000
v -0.02912764 -0.04356341 0.02815000
v -0.03004774 -0.04200271 0.02815000
v -0.03166243 -0.04125639 0.02800000
v -0.03162493 -0.04111116 0.02815000
v -0.03339645 -0.04127217 0.02800000
v -0.03499729 -0.04204774 0.02815000
v -0.03574361 -0.04366243 0.02800000
v -0.03587236 -0.04543659 0.02815000
v -0.03484716 -0.04689026 0.02800000
v -0.03337507 -0.04788884 0.02815000
v -0.03160355 -0.04772783 0.02800000
v -0.03010974 -0.04684716 0.02800000
v -0.03339645 -0.04127217 0.03100000
v -0.03343658 -0.04112764 0.03085000
v -0.03166243 -0.04125639 0.03100000
v -0.03015284 -0.04210974 0.03100000
v -0.02927217 -0.04360355 0.03100000
v -0.02912764 -0.04356341 0.03085000
v -0.02925639 -0.04533757 0.03100000
v -0.03010974 -0.04684716 0.03100000
v -0.03000271 -0.04695226 0.03085000
v -0.03160355 -0.04772783 0.03100000
v -0.03333757 -0.04774361 0.03100000
v -0.03495226 -0.04699729 0.03085000
v -0.03572783 -0.04539645 0.03100000
v -0.03574361 -0.04366243 0.03100000
v -0.03015284 -0.04210974 0.02800000
v -0.03333757 -0.04774361 0.02800000
v -0.03572783 -0.04539645 0.02800000
v -0.03489026 -0.04215284 0.02800000
v -0.03489026 -0.04215284 0.03100000
v -0.03484716 -0.04689026 0.03100000
f 8 6 39
f 8 39 40
f 38 39 6
f 41 40 48
f 48 40 39
f 11 42 13
f 2 30 31
f 31 30 29
f 36 38 37
f 37 38 6
f 4 36 37
f 35 36 4
f 4 33 35
f 9 45 25
f 10 40 41
f 47 13 42
f 29 30 47
f 47 30 13
f 32 33 3
f 3 31 32
f 2 31 3
f 21 46 1
f 1 46 22
f 46 23 22
f 22 23 12
f 24 45 9
f 44 7 26
f 44 26 9
f 9 25 44
f 34 3 33
f 34 33 4
f 20 18 19
f 18 43 19
f 1 20 19
f 19 21 1
f 7 44 27
f 14 7 27
f 28 14 27
f 18 17 16
f 16 43 18
f 15 16 5
f 5 16 17
f 28 15 5
f 5 14 28
f 30 20 1
f 2 20 30
f 26 40 9
f 8 40 26
f 41 42 10
f 10 42 11
f 32 31 47
f 41 48 47
f 47 38 36
f 47 42 41
f 47 33 32
f 39 38 47
f 47 48 39
f 36 35 47
f 47 31 29
f 47 35 33
f 14 37 7
f 7 37 6
f 8 26 7
f 7 6 8
f 3 20 2
f 3 18 20
f 22 30 1
f 13 30 22
f 22 12 11
f 11 13 22
f 9 40 24
f 40 10 24
f 24 10 11
f 11 12 24
f 12 23 24
f 24 23 45
f 18 3 17
f 3 34 17
f 46 21 16
f 45 23 16
f 16 15 28
f 16 23 46
f 16 25 45
f 16 19 43
f 16 44 25
f 21 19 16
f 28 27 16
f 16 27 44
f 5 17 34
f 5 34 4
f 5 37 14
f 4 37 5

