# https://github.com/mikedh/trimesh
v -0.07950000 -0.05500000 0.02050000
v -0.07950000 -0.05550000 0.02100000
v -0.07900000 -0.05550000 0.02050000
v -0.07900000 -0.09450000 0.01550000
v -0.07950000 -0.09500000 0.01550000
v -0.07950000 -0.09450000 0.01500000
v -0.08500000 -0.09450000 0.01550000
v -0.08450000 -0.05550000 0.01500000
v -0.08500000 -0.05550000 0.01550000
v -0.08450000 -0.09500000 0.01550000
v -0.08500000 -0.09450000 0.02050000
v -0.08450000 -0.09500000 0.02050000
v -0.08450000 -0.05550000 0.02100000
v -0.08450000 -0.05500000 0.02050000
v -0.08500000 -0.05550000 0.02050000
v -0.07950000 -0.09450000 0.02100000
v -0.07900000 -0.09450000 0.02050000
v -0.08450000 -0.09450000 0.01500000
v -0.07950000 -0.05500000 0.01550000
v -0.07950000 -0.05550000 0.01500000
v -0.08450000 -0.05500000 0.01550000
v -0.08450000 -0.09450000 0.02100000
v -0.07950000 -0.09500000 0.02050000
v -0.07900000 -0.05550000 0.01550000
f 5 6 4
f 23 17 16
f 11 12 22
f 10 7 18
f 2 3 1
f 15 13 14
f 19 24 20
f 21 8 9
f 15 7 11
f 9 7 15
f 11 7 12
f 12 7 10
f 4 17 23
f 23 5 4
f 23 12 10
f 10 5 23
f 2 16 3
f 16 17 3
f 12 23 22
f 22 23 16
f 22 15 11
f 22 13 15
f 2 13 22
f 22 16 2
f 18 8 20
f 18 20 6
f 18 7 9
f 9 8 18
f 18 5 10
f 6 5 18
f 6 20 24
f 4 6 24
f 24 17 4
f 24 3 17
f 14 13 2
f 2 1 14
f 3 24 19
f 19 1 3
f 20 8 21
f 21 19 20
f 9 15 21
f 15 14 21
f 21 14 1
f 1 19 21

