# https://github.com/mikedh/trimesh
v 0.09777987 -0.12329998 0.26910528
v 0.09777987 -0.13129998 0.26480528
v 0.09777987 -0.13129998 0.26600528
v 0.09262987 -0.12473670 0.26391743
v 0.12749962 -0.11580037 0.26260528
v 0.12749971 -0.11580037 0.26640525
v 0.08900101 -0.07471866 0.26070003
v 0.09404580 -0.12992569 0.26260528
v 0.09404580 -0.12992569 0.26360528
v 0.09446059 -0.13042229 0.26260528
v 0.09446059 -0.13042229 0.26360528
v 0.09506811 -0.13064497 0.26260528
v 0.09506811 -0.13064497 0.26360528
v 0.12689959 -0.10223753 0.26019990
v 0.11046528 -0.08565209 0.25850000
v 0.10725472 -0.10119257 0.25835002
v 0.09183635 -0.07268664 0.26910528
v 0.09194353 -0.07228664 0.26910528
v 0.09223635 -0.07199382 0.26910528
v 0.09229307 -0.07209208 0.26260528
v 0.09263635 -0.07188664 0.26910528
v 0.09263635 -0.07200010 0.26260528
v 0.09416356 -0.11386971 0.25889993
v 0.12657498 -0.12950240 0.26590525
v 0.12742512 -0.12800253 0.26590525
v 0.09790793 -0.11923679 0.25960528
v 0.12749954 -0.07405001 0.26320523
v 0.11719037 -0.11921966 0.25960528
v 0.11795519 -0.11898503 0.25960528
v 0.10636522 -0.08245220 0.25850000
v 0.12742512 -0.12800253 0.26260528
v 0.12740985 -0.12807907 0.26590525
v 0.12740985 -0.12807907 0.26260528
v 0.08900101 -0.07471866 0.26100000
v 0.12651859 -0.10668253 0.26019990
v 0.12499967 -0.11250014 0.26010008
v 0.11814925 -0.11861920 0.25960528
v 0.11760421 -0.11920481 0.25960528
v 0.10796542 -0.08245220 0.25850000
v 0.09389686 -0.09315753 0.25800001
v 0.08709678 -0.09315753 0.25800001
v 0.09099974 -0.07445755 0.26049987
v 0.09033655 -0.11549531 0.25902007
v 0.08709678 -0.09315753 0.26100000
v 0.11016531 -0.08315222 0.25850000
v 0.11629966 -0.07212481 0.25913005
v 0.12699969 -0.07599666 0.25913005
v 0.12699967 -0.07212481 0.25913005
v 0.08701727 -0.11259590 0.25964999
v 0.08701727 -0.11259590 0.26100000
v 0.11751635 -0.08145982 0.26910528
v 0.11751635 -0.07268664 0.26910528
v 0.08958598 -0.07466888 0.26054991
v 0.09253669 -0.11549531 0.25902007
v 0.09389686 -0.09995762 0.25800001
v 0.08701727 -0.10901806 0.25954991
v 0.11229805 -0.11923679 0.25960528
v 0.08709678 -0.09995762 0.25800001
v 0.08701727 -0.11081790 0.25954991
v 0.12699967 -0.07212481 0.26100000
v 0.12657498 -0.12950240 0.26260528
v 0.08701727 -0.10901806 0.26100000
v 0.12665956 -0.07650225 0.26590525
v 0.12749954 -0.07800212 0.26590525
v 0.12748465 -0.07792649 0.26590525
v 0.12749954 -0.07800216 0.26260528
v 0.10330452 -0.10594263 0.25835002
v 0.10725472 -0.10594263 0.25835002
v 0.11671635 -0.07200010 0.26260528
v 0.11671635 -0.07188664 0.26910528
v 0.11711635 -0.07199382 0.26910528
v 0.11740917 -0.07228664 0.26910528
v 0.10166368 -0.11386971 0.25889993
f 50 9 4
f 43 8 49
f 49 58 43
f 50 4 1
f 1 17 50
f 1 4 9
f 9 3 1
f 1 3 24
f 11 3 9
f 48 70 60
f 69 70 48
f 52 51 6
f 6 64 52
f 22 46 42
f 50 17 62
f 17 44 62
f 34 44 17
f 17 18 34
f 18 19 34
f 34 19 7
f 59 58 49
f 38 61 12
f 29 61 38
f 12 61 2
f 32 1 24
f 51 1 32
f 32 25 6
f 6 51 32
f 36 61 29
f 20 19 21
f 21 22 20
f 7 19 20
f 3 11 13
f 10 43 12
f 8 43 10
f 71 60 70
f 48 60 27
f 60 71 27
f 27 64 6
f 22 42 53
f 7 20 53
f 53 20 22
f 53 41 7
f 53 46 41
f 53 42 46
f 12 43 26
f 29 38 68
f 61 36 33
f 48 27 66
f 66 27 6
f 6 5 66
f 63 71 72
f 63 27 71
f 16 40 45
f 47 16 48
f 47 68 16
f 48 66 47
f 47 66 5
f 12 26 57
f 73 68 38
f 35 33 36
f 36 47 35
f 35 47 14
f 65 63 72
f 72 52 65
f 65 52 64
f 64 27 65
f 27 63 65
f 48 16 15
f 15 45 48
f 16 45 15
f 37 36 29
f 37 47 36
f 29 68 37
f 68 47 37
f 28 38 12
f 12 57 28
f 54 73 38
f 38 28 54
f 54 28 57
f 58 67 23
f 23 43 58
f 31 35 14
f 33 35 31
f 14 47 31
f 31 47 5
f 6 25 31
f 31 5 6
f 41 46 30
f 39 45 40
f 48 45 39
f 8 9 50
f 8 50 49
f 69 46 22
f 48 46 69
f 21 70 69
f 69 22 21
f 41 56 62
f 62 44 41
f 41 44 34
f 7 41 34
f 49 50 59
f 50 62 59
f 59 62 56
f 59 56 41
f 41 58 59
f 2 61 24
f 24 3 2
f 13 2 3
f 12 2 13
f 12 13 10
f 10 13 11
f 9 8 10
f 10 11 9
f 21 19 71
f 71 1 51
f 71 70 21
f 71 18 17
f 71 52 72
f 17 1 71
f 71 19 18
f 51 52 71
f 24 61 33
f 33 32 24
f 55 58 41
f 41 40 55
f 55 67 58
f 68 67 55
f 55 40 16
f 16 68 55
f 54 57 26
f 54 26 43
f 23 54 43
f 73 54 23
f 23 67 68
f 68 73 23
f 32 33 31
f 25 32 31
f 39 40 41
f 41 30 39
f 39 46 48
f 39 30 46

