# https://github.com/mikedh/trimesh
v 0.13073044 -0.06272601 0.16000000
v 0.13075405 -0.06267677 0.16041445
v 0.13082303 -0.06253266 0.16080000
v 0.13107453 -0.06200376 0.16138564
v 0.13141462 -0.06127965 0.16160000
v 0.13199423 -0.06002103 0.16080000
v 0.13206036 -0.05987538 0.15958630
v 0.13208282 -0.05982583 0.16000000
v 0.13206014 -0.05987586 0.16041565
v 0.08500000 -0.11747340 0.11500000
v 0.12913172 -0.06595453 0.11500000
v 0.11012106 0.09433109 0.11500000
v 0.12913172 0.06595453 0.11500000
v 0.14097713 0.03391829 0.11500000
v 0.14500000 -0.00000000 0.11500000
v 0.08500000 -0.11747340 0.16500000
v 0.11012106 0.09433109 0.16500000
v 0.12913172 0.06595453 0.16500000
v 0.11012106 -0.09433109 0.16500000
v 0.14097713 -0.03391829 0.16500000
v 0.14500000 -0.00000000 0.16500000
v 0.14097713 0.03391829 0.16500000
v 0.08500000 0.11747340 0.11500000
v 0.08500000 0.11747340 0.16500000
v 0.13158892 0.06090449 0.16154560
v 0.13141462 0.06127965 0.16160000
v 0.13123924 0.06165438 0.16154558
v 0.13107453 0.06200376 0.16138564
v 0.13075419 0.06267647 0.16041565
v 0.13075396 0.06267695 0.15958630
v 0.13123891 0.06165508 0.15845463
v 0.13158892 0.06090449 0.12154560
v 0.13073044 0.06272601 0.12000000
v 0.13123891 0.06165508 0.11845463
v 0.13141462 0.06127965 0.11840000
v 0.13175072 0.06055367 0.11861436
v 0.13199423 0.06002103 0.11920000
v 0.13206030 0.05987550 0.11958584
v 0.13208282 0.05982583 0.12000000
v 0.13158928 -0.06090372 0.15845463
v 0.13123904 -0.06165480 0.15845455
v 0.13075402 -0.06267683 0.15958583
v 0.12913172 -0.06595453 0.16500000
v 0.13123927 -0.06165431 0.16154560
v 0.13158895 -0.06090442 0.16154558
v 0.13175072 -0.06055367 0.16138564
v 0.13208282 -0.05982583 0.12000000
v 0.14097713 -0.03391829 0.11500000
v 0.13206036 -0.05987538 0.11958630
v 0.13141462 -0.06127965 0.11840000
v 0.13158928 -0.06090372 0.11845463
v 0.13175072 -0.06055367 0.11861436
v 0.13123904 -0.06165480 0.11845455
v 0.13107453 -0.06200376 0.11861436
v 0.13082303 -0.06253266 0.11920000
v 0.13075402 -0.06267683 0.11958584
v 0.13073044 -0.06272601 0.12000000
v 0.11012106 -0.09433109 0.11500000
v 0.13158914 0.06090399 0.11845455
v 0.13206027 0.05987557 0.12041445
v 0.13123924 0.06165438 0.12154558
v 0.13107453 0.06200376 0.11861436
v 0.13082303 0.06253266 0.11920000
v 0.13075396 0.06267695 0.11958630
v 0.13208282 0.05982583 0.16000000
v 0.13206027 0.05987557 0.16041445
v 0.13199423 0.06002103 0.16080000
v 0.13175072 0.06055367 0.16138564
v 0.13082303 0.06253266 0.16080000
v 0.13073044 0.06272601 0.16000000
v 0.13199423 -0.06002103 0.11920000
f 36 14 13
f 14 36 37
f 18 22 68
f 38 39 14
f 14 37 38
f 67 68 22
f 39 38 60
f 60 38 37
f 22 65 66
f 66 67 22
f 11 48 52
f 52 51 11
f 56 57 11
f 11 55 56
f 3 4 43
f 26 27 18
f 20 43 46
f 54 55 11
f 11 53 54
f 11 51 50
f 50 53 11
f 44 5 43
f 43 4 44
f 71 52 48
f 59 32 36
f 35 32 59
f 59 36 13
f 13 35 59
f 29 70 18
f 18 69 29
f 18 27 28
f 28 69 18
f 27 31 28
f 18 68 25
f 25 26 18
f 9 7 8
f 9 8 20
f 43 5 45
f 45 46 43
f 40 46 45
f 5 40 45
f 41 44 4
f 5 44 41
f 48 47 49
f 49 71 48
f 1 42 2
f 2 42 3
f 43 1 2
f 2 3 43
f 63 62 13
f 34 35 13
f 13 62 34
f 61 35 34
f 7 9 6
f 20 46 6
f 6 9 20
f 13 33 64
f 64 63 13
f 30 29 69
f 70 29 30
f 19 16 58
f 58 16 10
f 21 20 48
f 15 21 48
f 43 58 11
f 19 58 43
f 22 43 20
f 22 16 19
f 19 43 22
f 18 17 22
f 24 16 22
f 22 20 21
f 22 17 24
f 15 14 22
f 22 21 15
f 12 17 18
f 18 13 12
f 65 22 14
f 14 39 65
f 23 16 24
f 10 16 23
f 23 58 10
f 23 14 15
f 15 48 23
f 13 14 23
f 11 58 23
f 23 48 11
f 23 12 13
f 24 17 23
f 17 12 23
f 47 48 20
f 20 8 47
f 36 68 67
f 67 37 36
f 70 13 18
f 70 33 13
f 66 65 39
f 39 60 66
f 37 67 66
f 66 60 37
f 57 43 11
f 57 1 43
f 61 27 26
f 26 35 61
f 51 52 46
f 46 40 51
f 4 3 54
f 54 3 55
f 51 40 50
f 50 40 5
f 1 57 42
f 57 56 42
f 55 3 42
f 42 56 55
f 25 68 36
f 36 32 25
f 35 26 25
f 25 32 35
f 4 54 41
f 41 54 53
f 41 50 5
f 53 50 41
f 49 47 8
f 8 7 49
f 63 28 62
f 69 28 63
f 62 28 34
f 34 28 31
f 34 27 61
f 34 31 27
f 6 46 52
f 52 71 6
f 6 49 7
f 71 49 6
f 69 63 30
f 63 64 30
f 33 70 30
f 30 64 33

