# https://github.com/mikedh/trimesh
v 0.09700000 -0.01000000 0.30300001
v 0.09700000 -0.01200000 0.30300001
v 0.09766987 -0.01200000 0.30550000
v 0.09766987 -0.01000000 0.30550000
v 0.09950000 -0.01200000 0.30733013
v 0.09950000 -0.01000000 0.30733013
v 0.10200000 -0.01200000 0.30800000
v 0.10200000 -0.01000000 0.30800000
v 0.16100000 -0.01000000 0.30800000
v 0.10200000 -0.01200000 0.16800000
v 0.10200000 -0.01000000 0.16800000
v 0.16100000 -0.01000000 0.16800000
v 0.09700000 -0.01000000 0.17300000
v 0.09766987 -0.01000000 0.17050000
v 0.09950000 -0.01000000 0.16866987
v 0.16533013 -0.01000000 0.17050000
v 0.16533013 -0.01000000 0.30550000
v 0.16600000 -0.01000000 0.30300001
v 0.16600000 -0.01000000 0.17300000
v 0.16600000 -0.01200000 0.30300001
v 0.16100000 -0.01200000 0.30800000
v 0.16533013 -0.01200000 0.30550000
v 0.16100000 -0.01200000 0.16800000
v 0.16600000 -0.01200000 0.17300000
v 0.16533013 -0.01200000 0.17050000
v 0.09950000 -0.01200000 0.16866987
v 0.09700000 -0.01200000 0.17300000
v 0.09766987 -0.01200000 0.17050000
v 0.16350000 -0.01200000 0.16866987
v 0.16350000 -0.01000000 0.16866987
v 0.16350000 -0.01200000 0.30733013
v 0.16350000 -0.01000000 0.30733013
f 1 13 2
f 2 13 27
f 4 2 3
f 1 2 4
f 21 9 8
f 8 7 21
f 6 4 5
f 5 4 3
f 8 6 5
f 5 7 8
f 28 13 14
f 27 13 28
f 20 24 19
f 19 18 20
f 26 28 15
f 15 28 14
f 10 26 15
f 15 11 10
f 12 29 23
f 30 29 12
f 12 23 10
f 10 11 12
f 25 29 16
f 16 29 30
f 16 24 25
f 16 19 24
f 1 4 32
f 32 16 30
f 32 13 1
f 30 12 32
f 18 19 32
f 32 6 8
f 8 9 32
f 14 13 32
f 17 18 32
f 32 15 14
f 32 4 6
f 11 15 32
f 32 12 11
f 19 16 32
f 9 21 32
f 21 31 32
f 10 23 22
f 3 2 22
f 25 24 22
f 22 26 10
f 22 29 25
f 22 21 7
f 22 2 27
f 22 5 3
f 22 24 20
f 27 28 22
f 7 5 22
f 22 28 26
f 23 29 22
f 22 31 21
f 22 18 17
f 20 18 22
f 17 32 22
f 22 32 31

