# https://github.com/mikedh/trimesh
v 0.00880000 -0.04347169 0.06570000
v 0.00780000 -0.04447169 0.06570000
v 0.00866603 -0.04397169 0.06570000
v -0.01540395 -0.01298477 0.06570000
v 0.00259294 -0.04397169 0.06570000
v 0.00345896 -0.04447169 0.06570000
v 0.00295896 -0.04433772 0.06570000
v 0.01800000 0.02050000 0.06800000
v 0.01950000 0.02009808 0.07200000
v 0.02059808 0.01900000 0.07200000
v 0.02100000 0.01750000 0.07200000
v 0.02100000 0.01750000 0.06800000
v 0.00880000 -0.04040682 0.06862104
v 0.00880000 -0.02852323 0.07200000
v -0.02200000 0.01750000 0.06800000
v -0.02200000 0.01750000 0.07200000
v -0.02050000 0.02009807 0.07200000
v -0.02050000 0.02009807 0.06800000
v -0.01900000 0.02050000 0.06800000
v 0.00880000 -0.04347169 0.06450000
v 0.00866603 -0.04397169 0.06450000
v 0.00830000 -0.04433772 0.06570000
v 0.00830000 -0.04433772 0.06450000
v 0.00880000 -0.00050000 0.06450000
v -0.02173205 0.00350000 0.07200000
v -0.02173205 0.00350000 0.06800000
v -0.02200000 0.00450000 0.06800000
v 0.02100000 0.00450000 0.06800000
v 0.02100000 0.00450000 0.07200000
v 0.00295896 -0.04433772 0.06450000
v 0.00259294 -0.04397169 0.06450000
v -0.02200000 0.00450000 0.07200000
v 0.00866603 -0.00000000 0.06450000
v -0.01619000 -0.00630000 0.06450000
v -0.01540395 -0.01298477 0.06450000
v 0.00345896 -0.04447169 0.06450000
v -0.01605603 -0.00000000 0.06450000
v -0.01619000 -0.00050000 0.06450000
v 0.02059808 0.01900000 0.06800000
v 0.01950000 0.02009808 0.06800000
v -0.02159808 0.01900000 0.06800000
v -0.01614547 -0.01016381 0.06450000
v 0.00780000 -0.04447169 0.06450000
v -0.01619000 -0.00329083 0.07200000
v 0.01800000 0.02050000 0.07200000
v -0.02159808 0.01900000 0.07200000
v -0.01900000 0.02050000 0.07200000
v 0.02073205 0.00350000 0.07200000
f 8 40 33
f 12 24 33
f 15 41 38
f 5 44 25
f 25 4 5
f 29 48 3
f 33 40 39
f 39 12 33
f 37 41 18
f 37 38 41
f 37 18 19
f 14 44 13
f 44 5 13
f 13 5 7
f 13 48 14
f 13 7 6
f 13 3 48
f 6 2 13
f 22 3 13
f 13 2 22
f 29 3 1
f 26 27 35
f 35 27 42
f 42 27 34
f 12 11 29
f 12 29 28
f 28 20 12
f 20 24 12
f 9 40 45
f 40 8 45
f 9 10 39
f 39 40 9
f 39 10 11
f 11 12 39
f 30 5 31
f 7 5 30
f 19 8 37
f 37 8 33
f 28 29 1
f 1 20 28
f 1 21 20
f 3 21 1
f 18 41 46
f 46 17 18
f 15 16 46
f 46 41 15
f 47 10 9
f 25 44 47
f 14 48 47
f 29 11 47
f 47 44 14
f 47 48 29
f 17 46 47
f 11 10 47
f 9 45 47
f 47 32 25
f 47 46 16
f 16 32 47
f 18 17 47
f 19 18 47
f 47 45 8
f 47 8 19
f 27 16 15
f 27 32 16
f 25 32 27
f 27 26 25
f 25 26 35
f 35 4 25
f 31 5 35
f 35 5 4
f 7 30 36
f 6 7 36
f 36 2 6
f 36 43 2
f 23 21 3
f 23 3 22
f 2 43 23
f 22 2 23
f 20 21 34
f 34 36 30
f 34 24 20
f 34 35 42
f 34 30 31
f 31 35 34
f 34 37 33
f 33 24 34
f 21 23 34
f 38 37 34
f 43 36 34
f 34 23 43
f 34 27 15
f 15 38 34

