# https://github.com/mikedh/trimesh
v 0.13924538 -0.05473804 0.11500000
v 0.13840640 -0.05773804 0.11500000
v -0.14040640 -0.05773804 0.11500000
v 0.15336484 -0.00425000 0.11500000
v 0.15398675 -0.00202614 0.11500000
v 0.15198693 -0.00000000 0.11500000
v 0.15341035 -0.00059506 0.11500000
v 0.07591436 -0.13457036 0.11500000
v -0.00100000 -0.15500000 0.11500000
v -0.07791436 -0.13457036 0.11500000
v -0.13455345 -0.07866687 0.11500000
v -0.14124538 -0.05473804 0.11500000
v -0.15536484 -0.00425000 0.11500000
v -0.15598675 -0.00202614 0.11500000
v -0.15584211 -0.00125279 0.11500000
v -0.15475833 -0.00015475 0.11500000
v -0.15398693 -0.00000000 0.11500000
v -0.15598675 -0.00202614 0.11300000
v -0.13455345 -0.07866687 0.11300000
v -0.07791436 -0.13457036 0.11300000
v -0.00100000 -0.15500000 0.11300000
v 0.13255345 -0.07866687 0.11500000
v 0.15198693 -0.00000000 0.11300000
v -0.15475833 -0.00015475 0.11300000
v -0.15541035 -0.00059506 0.11500000
v -0.15584211 -0.00125279 0.11300000
v 0.15384211 -0.00125279 0.11500000
v 0.15275833 -0.00015475 0.11500000
v 0.15384211 -0.00125279 0.11300000
v 0.15398675 -0.00202614 0.11300000
v 0.15336484 -0.00425000 0.11300000
v 0.13924538 -0.05473804 0.11300000
v 0.13840640 -0.05773804 0.11300000
v -0.14040640 -0.05773804 0.11300000
v 0.07591436 -0.13457036 0.11300000
v -0.15398693 -0.00000000 0.11300000
v -0.15536484 -0.00425000 0.11300000
v -0.15541035 -0.00059506 0.11300000
v -0.14124538 -0.05473804 0.11300000
v 0.13255345 -0.07866687 0.11300000
v 0.15275833 -0.00015475 0.11300000
v 0.15341035 -0.00059506 0.11300000
f 37 13 14
f 14 18 37
f 23 17 6
f 23 36 17
f 20 10 11
f 20 11 19
f 9 10 20
f 20 21 9
f 39 12 13
f 13 37 39
f 28 23 6
f 41 23 28
f 35 8 9
f 9 21 35
f 5 4 31
f 31 30 5
f 4 1 31
f 31 1 32
f 15 26 18
f 15 18 14
f 38 15 25
f 26 15 38
f 16 36 24
f 17 36 16
f 24 38 16
f 16 38 25
f 19 11 34
f 11 3 34
f 34 3 12
f 12 39 34
f 30 29 27
f 5 30 27
f 42 28 7
f 41 28 42
f 7 27 42
f 42 27 29
f 17 16 2
f 14 13 2
f 2 3 11
f 9 8 2
f 6 17 2
f 2 4 5
f 2 10 9
f 2 28 6
f 2 8 22
f 11 10 2
f 13 12 2
f 5 27 2
f 12 3 2
f 2 15 14
f 7 28 2
f 2 1 4
f 25 15 2
f 2 16 25
f 2 27 7
f 22 8 40
f 8 35 40
f 33 20 19
f 30 31 33
f 33 35 21
f 19 34 33
f 36 23 33
f 33 23 41
f 18 26 33
f 33 37 18
f 24 36 33
f 33 38 24
f 21 20 33
f 33 39 37
f 33 29 30
f 41 42 33
f 33 31 32
f 26 38 33
f 33 34 39
f 33 42 29
f 33 40 35
f 32 1 33
f 1 2 33
f 33 2 22
f 22 40 33

