# https://github.com/mikedh/trimesh
v 0.08850000 0.05000000 0.10750000
v 0.08800000 0.05050000 0.10750000
v 0.09350000 0.08950000 0.10700000
v 0.09350000 0.09000000 0.10750000
v 0.09400000 0.08950000 0.10750000
v 0.09400000 0.08950000 0.11250000
v 0.09350000 0.08950000 0.11300000
v 0.09400000 0.05050000 0.11250000
v 0.09350000 0.05050000 0.11300000
v 0.08800000 0.05050000 0.11250000
v 0.08850000 0.05000000 0.11250000
v 0.08850000 0.05050000 0.11300000
v 0.09350000 0.09000000 0.11250000
v 0.08850000 0.05050000 0.10700000
v 0.09350000 0.05000000 0.10750000
v 0.09350000 0.05000000 0.11250000
v 0.08850000 0.09000000 0.11250000
v 0.08800000 0.08950000 0.11250000
v 0.08800000 0.08950000 0.10750000
v 0.08850000 0.09000000 0.10750000
v 0.08850000 0.08950000 0.11300000
v 0.09400000 0.05050000 0.10750000
v 0.09350000 0.05050000 0.10700000
v 0.08850000 0.08950000 0.10700000
f 3 4 5
f 14 1 2
f 7 6 13
f 12 10 11
f 23 22 15
f 8 9 16
f 20 24 19
f 18 21 17
f 9 6 7
f 8 6 9
f 22 6 8
f 5 6 22
f 22 3 5
f 22 23 3
f 13 6 5
f 5 4 13
f 11 10 2
f 2 1 11
f 15 14 23
f 1 14 15
f 3 23 24
f 23 14 24
f 24 14 2
f 2 19 24
f 16 22 8
f 16 15 22
f 16 9 12
f 12 11 16
f 16 11 1
f 1 15 16
f 3 24 20
f 4 3 20
f 20 13 4
f 20 17 13
f 13 17 21
f 7 13 21
f 21 9 7
f 12 9 21
f 12 21 18
f 18 10 12
f 2 10 18
f 18 19 2
f 17 20 18
f 18 20 19

