# https://github.com/mikedh/trimesh
v -0.02409227 -0.03593787 0.03620000
v -0.02949975 -0.03288111 0.02705000
v -0.02949975 -0.03288111 0.03620000
v -0.03571115 -0.03293763 0.02705000
v -0.03571115 -0.03293763 0.03620000
v -0.04106213 -0.03609227 0.02705000
v -0.04106213 -0.03609227 0.03620000
v -0.04411889 -0.04149975 0.02705000
v -0.04411889 -0.04149975 0.03620000
v -0.04406237 -0.04771115 0.02705000
v -0.04406237 -0.04771115 0.03620000
v -0.04090773 -0.05306213 0.02705000
v -0.04090773 -0.05306213 0.03620000
v -0.03550025 -0.05611889 0.02705000
v -0.03550025 -0.05611889 0.03620000
v -0.02928885 -0.05606237 0.02705000
v -0.02928885 -0.05606237 0.03620000
v -0.02393787 -0.05290773 0.02705000
v -0.02393787 -0.05290773 0.03620000
v -0.02088111 -0.04750025 0.02705000
v -0.02088111 -0.04750025 0.03620000
v -0.02093762 -0.04128885 0.02705000
v -0.02093762 -0.04128885 0.03620000
v -0.02409227 -0.03593787 0.02705000
f 24 3 1
f 2 3 24
f 22 24 23
f 23 24 1
f 20 22 23
f 23 21 20
f 5 3 4
f 4 3 2
f 7 4 6
f 5 4 7
f 14 16 17
f 15 14 17
f 8 10 9
f 9 10 11
f 9 6 8
f 9 7 6
f 12 4 2
f 12 22 20
f 8 6 12
f 2 24 12
f 12 10 8
f 12 24 22
f 12 16 14
f 6 4 12
f 20 18 12
f 12 18 16
f 12 14 15
f 15 13 12
f 12 13 11
f 11 10 12
f 5 7 19
f 15 17 19
f 1 3 19
f 19 3 5
f 19 23 1
f 21 23 19
f 19 13 15
f 19 9 11
f 11 13 19
f 7 9 19
f 20 21 19
f 19 18 20
f 19 17 16
f 16 18 19

