# https://github.com/mikedh/trimesh
v -0.00900000 -0.00860000 0.04700000
v -0.00926795 -0.00760000 0.04700000
v -0.00926795 -0.00760000 0.05500000
v -0.01000000 -0.00686795 0.04700000
v -0.01100000 -0.00660000 0.04700000
v -0.01100000 -0.00660000 0.05500000
v -0.01077714 -0.03740416 0.05500000
v -0.00944523 -0.02782688 0.05500000
v -0.00900000 -0.01816768 0.04700000
v -0.00900000 -0.01816768 0.05500000
v -0.01843845 -0.00660000 0.05500000
v -0.01843845 -0.00660000 0.04700000
v -0.01931547 -0.00680255 0.05500000
v -0.02001486 -0.00736917 0.04700000
v -0.02039494 -0.00818510 0.04700000
v -0.02037873 -0.00908507 0.04700000
v -0.02037873 -0.00908507 0.05500000
v -0.01221922 -0.03860000 0.04700000
v -0.01183086 -0.03860000 0.04700000
v -0.01221922 -0.03860000 0.05500000
v -0.01183086 -0.03860000 0.05500000
v -0.01318936 -0.03784253 0.04700000
v -0.01318936 -0.03784253 0.05500000
v -0.00900000 -0.00860000 0.05500000
v -0.01299243 -0.03823415 0.04700000
v -0.01084778 -0.03778320 0.04700000
v -0.01103262 -0.03820234 0.04700000
v -0.01138495 -0.03849508 0.04700000
v -0.01077714 -0.03740416 0.04700000
v -0.01931547 -0.00680255 0.04700000
v -0.01299243 -0.03823415 0.05500000
v -0.01264691 -0.03850392 0.05500000
v -0.02039494 -0.00818510 0.05500000
v -0.02001486 -0.00736917 0.05500000
v -0.01000000 -0.00686795 0.05500000
v -0.01103262 -0.03820234 0.05500000
v -0.01084778 -0.03778320 0.05500000
v -0.01264691 -0.03850392 0.04700000
v -0.01138495 -0.03849508 0.05500000
f 8 9 10
f 9 8 29
f 7 29 8
f 5 12 11
f 11 6 5
f 9 1 24
f 10 9 24
f 12 30 13
f 13 11 12
f 16 17 33
f 16 33 15
f 23 17 16
f 16 22 23
f 20 38 18
f 32 38 20
f 22 25 31
f 23 22 31
f 25 38 31
f 31 38 32
f 21 20 19
f 19 20 18
f 19 39 21
f 28 39 19
f 34 14 15
f 15 33 34
f 30 14 34
f 34 13 30
f 2 24 1
f 2 3 24
f 5 6 35
f 35 4 5
f 35 2 4
f 3 2 35
f 5 4 26
f 26 16 15
f 15 14 26
f 26 2 1
f 26 12 5
f 26 1 9
f 26 25 22
f 9 29 26
f 26 30 12
f 26 19 18
f 18 38 26
f 26 14 30
f 22 16 26
f 26 38 25
f 26 27 28
f 28 19 26
f 4 2 26
f 26 7 37
f 29 7 26
f 36 17 23
f 10 24 36
f 6 11 36
f 36 8 10
f 23 31 36
f 36 20 21
f 37 7 36
f 33 17 36
f 36 35 6
f 36 34 33
f 36 7 8
f 11 13 36
f 24 3 36
f 32 20 36
f 36 31 32
f 21 39 36
f 13 34 36
f 3 35 36
f 27 26 36
f 36 26 37
f 28 27 36
f 36 39 28

