# https://github.com/mikedh/trimesh
v -0.14957199 -0.08489975 0.30710492
v -0.15005900 -0.08500333 0.30660282
v -0.15850882 -0.04688495 0.30195637
v -0.15313874 -0.04568706 0.30147968
v -0.15265173 -0.04558349 0.30198178
v -0.14467806 -0.08375663 0.30112639
v -0.14419106 -0.08365306 0.30162848
v -0.14458153 -0.08429839 0.30662159
v -0.15324829 -0.04520387 0.30198419
v -0.15266258 -0.04563230 0.30698153
v -0.15325914 -0.04525268 0.30698394
v -0.14469108 -0.08381521 0.30712609
v -0.14420190 -0.08370187 0.30662823
v -0.15803266 -0.04683018 0.30745821
v -0.15851967 -0.04693376 0.30695612
v -0.15801965 -0.04677161 0.30145851
v -0.14945159 -0.08533413 0.30160066
v -0.14946244 -0.08538294 0.30660041
v -0.14955898 -0.08484118 0.30110522
v -0.14457068 -0.08424958 0.30162184
v -0.15812920 -0.04628842 0.30196301
v -0.15814005 -0.04633723 0.30696276
v -0.15315175 -0.04574563 0.30747938
v -0.15174144 -0.07052877 0.30724050
v -0.15351058 -0.04966667 0.30744033
v -0.15004815 -0.08495452 0.30160307
f 14 22 15
f 23 10 11
f 24 14 1
f 7 20 6
f 5 4 9
f 23 14 25
f 14 24 25
f 21 16 3
f 12 8 13
f 12 24 1
f 23 25 12
f 1 2 18
f 19 17 26
f 22 14 11
f 11 14 23
f 1 14 2
f 2 14 15
f 5 11 10
f 9 11 5
f 10 13 5
f 5 13 7
f 7 6 5
f 5 6 4
f 7 13 8
f 8 20 7
f 19 6 17
f 17 6 20
f 16 6 19
f 4 6 16
f 21 3 15
f 15 22 21
f 22 11 21
f 21 11 9
f 4 16 21
f 9 4 21
f 12 13 10
f 12 10 23
f 12 25 24
f 8 12 18
f 18 12 1
f 20 8 18
f 18 17 20
f 17 18 26
f 26 18 2
f 26 2 15
f 15 3 26
f 26 16 19
f 3 16 26

