# https://github.com/mikedh/trimesh
v -0.17068594 -0.12889765 0.21160289
v -0.17100018 -0.12947968 0.21185289
v -0.15619154 -0.12618887 0.24812788
v -0.15672271 -0.12579471 0.24837788
v -0.15780736 -0.12091378 0.24837788
v -0.15749312 -0.12033175 0.24812788
v -0.17684301 -0.12514392 0.21460289
v -0.17652877 -0.12456189 0.21435289
v -0.17177059 -0.12401672 0.21160289
v -0.17135269 -0.12904582 0.21141988
v -0.15714061 -0.12076561 0.24856089
v -0.15326611 -0.11939241 0.24562788
v -0.15291360 -0.11982627 0.24606089
v -0.17243734 -0.12416488 0.21141988
v -0.17230176 -0.12362256 0.21185289
v -0.15165029 -0.12466751 0.24537788
v -0.15196453 -0.12524953 0.24562788
v -0.15605596 -0.12564655 0.24856089
v -0.17557970 -0.12998515 0.21391988
v -0.17666435 -0.12510422 0.21391988
v -0.15273494 -0.11978657 0.24537788
v -0.15182895 -0.12470721 0.24606089
v -0.17575836 -0.13002486 0.21460289
v -0.17522719 -0.13041902 0.21435289
f 12 13 21
f 11 6 5
f 18 4 3
f 22 17 16
f 7 8 20
f 14 15 9
f 24 23 19
f 10 1 2
f 12 6 13
f 13 6 11
f 15 21 9
f 12 21 15
f 9 21 1
f 1 21 16
f 16 17 1
f 1 17 2
f 24 17 3
f 2 17 24
f 7 5 8
f 8 5 6
f 8 6 12
f 12 15 8
f 18 5 4
f 11 5 18
f 23 5 7
f 4 5 23
f 3 4 23
f 23 24 3
f 3 17 22
f 22 18 3
f 16 21 22
f 22 21 13
f 22 13 11
f 11 18 22
f 14 8 15
f 14 20 8
f 19 23 7
f 7 20 19
f 2 24 10
f 24 19 10
f 9 1 10
f 10 14 9
f 20 14 10
f 10 19 20

