# https://github.com/mikedh/trimesh
v -0.04090773 -0.05306213 0.03620000
v -0.04396602 -0.04768439 0.03630000
v -0.04406237 -0.04771115 0.03620000
v -0.04402206 -0.04152475 0.03630000
v -0.04411889 -0.04149975 0.03620000
v -0.04099078 -0.03616233 0.03630000
v -0.04106213 -0.03609227 0.03620000
v -0.03568439 -0.03303398 0.03630000
v -0.03571115 -0.03293763 0.03620000
v -0.02952475 -0.03297794 0.03630000
v -0.02949975 -0.03288111 0.03620000
v -0.02416233 -0.03600922 0.03630000
v -0.02409227 -0.03593787 0.03620000
v -0.02093762 -0.04128885 0.03620000
v -0.02097794 -0.04747525 0.03630000
v -0.02088111 -0.04750025 0.03620000
v -0.02393787 -0.05290773 0.03620000
v -0.02931561 -0.05596602 0.03630000
v -0.02928885 -0.05606237 0.03620000
v -0.03550025 -0.05611889 0.03620000
v -0.02409227 -0.03593787 0.02705000
v -0.02951225 -0.03292953 0.02700000
v -0.02949975 -0.03288111 0.02705000
v -0.03569777 -0.03298580 0.02700000
v -0.03571115 -0.03293763 0.02705000
v -0.04102645 -0.03612730 0.02700000
v -0.04106213 -0.03609227 0.02705000
v -0.04407047 -0.04151225 0.02700000
v -0.04411889 -0.04149975 0.02705000
v -0.04406237 -0.04771115 0.02705000
v -0.04090773 -0.05306213 0.02705000
v -0.03550025 -0.05611889 0.02705000
v -0.02928885 -0.05606237 0.02705000
v -0.02397355 -0.05287270 0.02700000
v -0.02393787 -0.05290773 0.02705000
v -0.02092953 -0.04748775 0.02700000
v -0.02088111 -0.04750025 0.02705000
v -0.02093762 -0.04128885 0.02705000
v -0.02412730 -0.03597355 0.02700000
v -0.04083767 -0.05299078 0.03630000
v -0.03547525 -0.05602206 0.03630000
v -0.02400922 -0.05283767 0.03630000
v -0.02103398 -0.04131561 0.03630000
v -0.02098580 -0.04130223 0.02700000
v -0.02930223 -0.05601420 0.02700000
v -0.03548775 -0.05607047 0.02700000
v -0.04087270 -0.05302645 0.02700000
v -0.04401420 -0.04769777 0.02700000
f 23 24 25
f 25 24 27
f 2 5 3
f 9 8 11
f 9 6 8
f 7 6 9
f 22 23 39
f 24 23 22
f 39 23 21
f 14 13 12
f 12 13 11
f 36 37 34
f 34 37 35
f 35 33 34
f 7 5 4
f 4 6 7
f 4 5 2
f 29 27 28
f 28 30 29
f 28 48 30
f 31 30 47
f 30 48 47
f 39 21 38
f 14 12 43
f 11 8 10
f 10 12 11
f 2 3 1
f 19 18 41
f 41 20 19
f 19 17 42
f 42 18 19
f 42 17 16
f 16 15 42
f 26 27 24
f 26 28 27
f 34 33 45
f 39 38 44
f 2 1 40
f 40 1 20
f 20 41 40
f 31 47 32
f 33 32 46
f 46 45 33
f 46 32 47
f 27 5 7
f 29 5 27
f 3 5 29
f 29 30 3
f 9 23 25
f 11 23 9
f 9 27 7
f 25 27 9
f 21 23 11
f 11 13 21
f 33 35 17
f 19 33 17
f 17 37 16
f 17 35 37
f 16 37 38
f 38 14 16
f 38 21 13
f 38 13 14
f 16 14 43
f 43 15 16
f 1 3 30
f 1 30 31
f 44 38 37
f 37 36 44
f 40 10 8
f 18 42 40
f 8 6 40
f 40 4 2
f 15 43 40
f 6 4 40
f 40 42 15
f 40 43 12
f 12 10 40
f 40 41 18
f 32 33 19
f 19 20 32
f 32 1 31
f 20 1 32
f 46 26 24
f 46 22 39
f 34 45 46
f 24 22 46
f 46 36 34
f 48 28 46
f 46 47 48
f 28 26 46
f 39 44 46
f 46 44 36

