# https://github.com/mikedh/trimesh
v 0.00450000 0.06794487 0.05900000
v 0.00450000 0.07250000 0.07600000
v 0.00450000 0.07236603 0.11350000
v 0.00450000 0.07150000 0.11400000
v 0.00450000 0.07250000 0.11300000
v 0.00450000 0.03850000 0.04200000
v 0.00450000 0.03050000 0.04300000
v 0.00450000 0.03063398 0.04250000
v 0.00450000 0.03100000 0.04213397
v 0.00450000 0.03050000 0.04600000
v 0.00450000 0.03063398 0.04650000
v 0.00450000 0.06832014 0.11395180
v 0.00450000 0.06850000 0.11400000
v 0.00450000 0.05550000 0.04655514
v 0.00150000 0.06850000 0.11400000
v 0.00150000 0.06800000 0.11386603
v 0.00450000 0.06800000 0.11386603
v 0.00450000 0.06763398 0.11350000
v 0.00150000 0.03100000 0.04213397
v 0.00150000 0.03150000 0.04200000
v 0.00450000 0.03150000 0.04200000
v 0.00150000 0.03050000 0.04600000
v 0.00150000 0.07236603 0.11350000
v 0.00150000 0.07200000 0.11386603
v 0.00450000 0.07200000 0.11386603
v 0.00150000 0.07250000 0.11300000
v 0.00150000 0.03850000 0.04200000
v 0.00150000 0.05550000 0.04655514
v 0.00150000 0.06794487 0.05900000
v 0.00150000 0.07250000 0.07600000
v 0.00150000 0.03063398 0.04650000
v 0.00150000 0.03063398 0.04250000
v 0.00150000 0.03050000 0.04300000
v 0.00150000 0.07150000 0.11400000
v 0.00150000 0.06763398 0.11350000
v 0.00150000 0.06832014 0.11395180
f 29 1 14
f 14 28 29
f 10 11 31
f 22 10 31
f 31 11 18
f 18 35 31
f 16 35 17
f 17 35 18
f 34 25 24
f 4 25 34
f 5 2 30
f 30 26 5
f 30 2 1
f 1 29 30
f 27 28 14
f 14 6 27
f 15 13 4
f 4 34 15
f 5 26 3
f 26 23 3
f 24 25 3
f 3 23 24
f 16 17 36
f 17 12 36
f 36 12 13
f 13 15 36
f 8 32 19
f 8 19 9
f 33 30 29
f 26 30 33
f 33 23 26
f 22 31 33
f 33 35 16
f 16 36 33
f 33 29 28
f 33 31 35
f 33 34 24
f 28 27 33
f 24 23 33
f 33 15 34
f 33 36 15
f 27 20 33
f 19 32 33
f 33 20 19
f 33 10 22
f 33 7 10
f 33 8 7
f 32 8 33
f 21 2 5
f 21 11 10
f 21 17 18
f 1 2 21
f 4 13 21
f 14 1 21
f 18 11 21
f 13 12 21
f 21 6 14
f 21 25 4
f 5 3 21
f 21 12 17
f 21 8 9
f 21 3 25
f 10 7 21
f 7 8 21
f 21 27 6
f 21 20 27
f 19 20 21
f 9 19 21

