# https://github.com/mikedh/trimesh
v -0.18419156 -0.11820445 0.21628531
v -0.17054938 -0.11517288 0.24049066
v -0.15583297 -0.11086625 0.26759139
v -0.15922537 -0.11049724 0.27013318
v -0.15640894 -0.11206684 0.26616643
v -0.15709972 -0.11249676 0.26483692
v -0.17219369 -0.11523035 0.27298694
v -0.17103140 -0.11353171 0.27570933
v -0.15688613 -0.10909952 0.26921611
v -0.17323666 -0.10802772 0.27778791
v -0.20047515 -0.12045448 0.22332280
v -0.20167500 -0.12077334 0.22447624
v -0.20254592 -0.12089447 0.22806441
v -0.20290547 -0.12011730 0.23000477
v -0.20244503 -0.12091056 0.22620543
v -0.20242578 -0.12090785 0.22612753
v -0.20046179 -0.12126620 0.22532856
v -0.20099474 -0.12135480 0.22649290
v -0.20100841 -0.12135654 0.22654786
v -0.19980543 -0.12130587 0.22739638
v -0.19936590 -0.12124382 0.22617077
v -0.19901443 -0.12118446 0.22573939
v -0.20108021 -0.12134387 0.22785971
v -0.19954646 -0.12123973 0.22833893
v -0.20719424 -0.10164209 0.22277153
v -0.21353814 -0.05960467 0.22408253
v -0.21413428 -0.05957207 0.22532144
v -0.21473747 -0.05976637 0.22786442
v -0.21502211 -0.06052220 0.22445775
v -0.21574682 -0.06151998 0.22436423
v -0.21576845 -0.06072026 0.22609592
v -0.21579933 -0.06072970 0.22622390
v -0.21653447 -0.06173197 0.22699208
v -0.21587905 -0.06078582 0.22807351
v -0.21535534 -0.06073326 0.22967072
v -0.21340322 -0.05921070 0.22647156
v -0.21465986 -0.05971862 0.22647299
v -0.21468160 -0.05972559 0.22656301
v -0.21281138 -0.05904695 0.22573147
v -0.21332749 -0.05922508 0.22833893
v -0.21437638 -0.05972287 0.22899243
v -0.21445830 -0.05976174 0.22904347
v -0.18337812 -0.06862606 0.27822745
v -0.21194001 -0.08716810 0.22430419
v -0.21172580 -0.08873176 0.22454110
v -0.19462600 -0.10898809 0.26719982
v -0.19980710 -0.11344700 0.25676421
v -0.19938217 -0.11376232 0.25656421
v -0.20638905 -0.11160210 0.24632861
v -0.21260822 -0.10394774 0.23868921
v -0.21665526 -0.09250314 0.23534659
v -0.21783624 -0.08042163 0.23868921
v -0.21544426 -0.07085369 0.24632861
v -0.21026315 -0.06639478 0.25676421
v -0.21001176 -0.06592916 0.25656421
v -0.19327207 -0.08730687 0.27763542
v -0.19273867 -0.08718834 0.27778183
v -0.16789965 -0.05303683 0.26831749
v -0.16905543 -0.05244668 0.26911049
v -0.17224250 -0.05187737 0.27012849
v -0.16933473 -0.05010830 0.26759141
v -0.17027823 -0.05190771 0.26940196
v -0.18488520 -0.05339643 0.27487281
v -0.17036498 -0.04926464 0.26616645
v -0.17117283 -0.04916775 0.26483694
v -0.20320205 -0.05875724 0.21521765
v -0.21410125 -0.06115081 0.22257471
v -0.21410724 -0.06132717 0.22250596
v -0.17673369 -0.10185064 0.27831447
v -0.17600248 -0.10181642 0.27822745
v -0.20730042 -0.10864598 0.22454110
v -0.21679818 -0.09253490 0.23589300
v -0.20368120 -0.06823967 0.26719982
v -0.19746204 -0.07589403 0.27483921
v -0.19223401 -0.09942014 0.27483921
v -0.15690720 -0.11214126 0.26469601
v -0.15558605 -0.10902598 0.26810035
v -0.16831420 -0.05553216 0.26917787
v -0.16800200 -0.05307032 0.26873186
v -0.17947285 -0.07996486 0.27778791
v -0.20110419 -0.12116072 0.22920698
v -0.20254864 -0.05874081 0.21472317
v -0.20256230 -0.05868613 0.21475465
v -0.20093923 -0.05921113 0.21339725
v -0.20031302 -0.05995581 0.21293930
v -0.20017070 -0.06024066 0.21287515
v -0.18176407 -0.08045960 0.27830869
v -0.17881382 -0.09373575 0.27830869
v -0.18670788 -0.11594170 0.21288090
v -0.17311342 -0.11540159 0.27322069
v -0.17473048 -0.11572531 0.27235675
v -0.17481472 -0.11574379 0.27222050
v -0.18246646 -0.11744636 0.25852271
v -0.19960481 -0.12128417 0.22646400
v -0.20106299 -0.11982296 0.22257471
v -0.19016961 -0.11737372 0.21521346
v -0.20114285 -0.11966209 0.22251154
v -0.21547618 -0.06086414 0.22975522
v -0.18811914 -0.11564083 0.21313376
v -0.18621195 -0.11761712 0.21368991
v -0.18872106 -0.11658630 0.21392230
v -0.18802775 -0.11503324 0.21290619
v -0.18754466 -0.11465519 0.21254946
v -0.18805807 -0.11474744 0.21287515
v -0.20008969 -0.12086859 0.22381335
v -0.18518173 -0.11846077 0.21511483
v -0.19887660 -0.12115989 0.22564340
v -0.18437389 -0.11855768 0.21644430
v -0.18859487 -0.11628865 0.21370276
v -0.19019484 -0.11732445 0.21519223
v -0.18803236 -0.11498974 0.21290147
v -0.18811305 -0.11533749 0.21304007
v -0.18955086 -0.11703737 0.21466194
v -0.18928640 -0.11689361 0.21442621
v -0.18558441 -0.06202220 0.27831447
v -0.17586357 -0.10701189 0.27830869
v -0.17381264 -0.10657018 0.27790927
v -0.19813210 -0.05547141 0.21628554
v -0.19931005 -0.05698748 0.21372423
v -0.19945338 -0.05858691 0.21288092
v -0.19926616 -0.06000716 0.21266383
v -0.20457967 -0.11340767 0.22277153
v -0.20424399 -0.11491823 0.22277154
v -0.21161963 -0.08172787 0.22277153
v -0.21490556 -0.06694116 0.22277153
v -0.19966651 -0.06010685 0.21254946
v -0.15641439 -0.10771553 0.26902033
v -0.18563726 -0.05495201 0.27670914
v -0.18386747 -0.05455372 0.27617957
v -0.18793022 -0.05549034 0.27652031
v -0.19108976 -0.05615224 0.27401670
v -0.18995663 -0.05598366 0.27540971
v -0.18323921 -0.07382153 0.27830869
v -0.18118828 -0.07337982 0.27790927
v -0.21557158 -0.06881510 0.22372321
v -0.20751462 -0.10708232 0.22430419
v -0.18449006 -0.05243982 0.24049066
v -0.19971371 -0.05685917 0.21368993
v -0.19913774 -0.05565858 0.21511489
v -0.19844696 -0.05522867 0.21644440
v -0.21268685 -0.05901371 0.22564342
v -0.21394970 -0.06073470 0.22298051
v -0.20041732 -0.05969295 0.21299773
v -0.20097727 -0.05914165 0.21343514
v -0.17088559 -0.11311687 0.27611853
v -0.17088602 -0.11294194 0.27619108
v -0.21341513 -0.08053003 0.22430419
v -0.18618946 -0.06054539 0.27830869
v -0.18413853 -0.06010367 0.27790927
v -0.21320093 -0.08209369 0.22454110
v -0.18781529 -0.05354465 0.27299163
v -0.18600394 -0.05308417 0.27298697
v -0.21359031 -0.05927498 0.22740003
v -0.15644963 -0.10832452 0.26906452
v -0.15644364 -0.10806389 0.26905804
v -0.15854478 -0.11027657 0.26981392
v -0.20354358 -0.12017598 0.22831549
v -0.20282806 -0.12021017 0.22457577
v -0.20245869 -0.12000663 0.22382257
v -0.20352414 -0.12032360 0.22727998
v -0.20345472 -0.12019921 0.22595544
v -0.20111721 -0.11971374 0.22253182
v -0.21489025 -0.07389195 0.22430418
v -0.20446662 -0.11496808 0.22292396
v -0.20603950 -0.11372039 0.22430419
v -0.18392385 -0.05444472 0.27611853
v -0.17142738 -0.11465828 0.27459809
v -0.17272039 -0.11511068 0.27447649
v -0.17597572 -0.11573709 0.27287400
v -0.17267327 -0.11434737 0.27583741
v -0.17328791 -0.11364651 0.27668525
v -0.17444159 -0.11470813 0.27568649
v -0.17456604 -0.11473321 0.27565039
v -0.17618176 -0.11505385 0.27480352
v -0.17729047 -0.11523642 0.27355229
v -0.17745537 -0.11516904 0.27363679
v -0.17775370 -0.11454395 0.27450927
v -0.17519097 -0.11559945 0.27375145
v -0.17402369 -0.11557920 0.27299420
v -0.17405381 -0.11537511 0.27434726
v -0.17396615 -0.11535776 0.27437258
v -0.17287224 -0.11535668 0.27315940
v -0.17606639 -0.11573657 0.27292504
v -0.20564102 -0.11350275 0.22372325
v -0.18851432 -0.05371081 0.27235226
v -0.18809856 -0.05361199 0.27273253
v -0.18888232 -0.05402952 0.27377631
v -0.18649537 -0.05502117 0.27668295
v -0.18785721 -0.05453675 0.27569804
v -0.18911810 -0.05564533 0.27594033
v -0.18954202 -0.05495124 0.27482865
v -0.18609609 -0.05411306 0.27586370
v -0.18645223 -0.05342975 0.27450449
v -0.18793221 -0.05455499 0.27567588
v -0.18769357 -0.05373543 0.27438952
v -0.18774647 -0.05374848 0.27437392
v -0.18668848 -0.05326131 0.27316158
v -0.18692151 -0.05332161 0.27322102
v -0.18859576 -0.05372914 0.27222050
v -0.18997342 -0.05446046 0.27308855
v -0.17700021 -0.11427729 0.27541160
v -0.17589731 -0.11418888 0.27605168
v -0.17495602 -0.11386601 0.27652087
v -0.17265181 -0.11338272 0.27670908
v -0.17088589 -0.11299708 0.27616821
v -0.16793141 -0.05293641 0.26830153
v -0.15577327 -0.10760554 0.26831749
v -0.15572941 -0.11062531 0.26725702
v -0.15626507 -0.11174180 0.26593182
v -0.18713978 -0.11457587 0.21266383
v -0.19927992 -0.05990274 0.21267979
v -0.18590068 -0.11732986 0.21372415
v -0.18494258 -0.11811449 0.21504930
v -0.19877439 -0.05587092 0.21504946
v -0.17084783 -0.04940824 0.26469609
v -0.17009685 -0.04949821 0.26593205
v -0.16913875 -0.05028286 0.26725719
v -0.16833155 -0.05167101 0.26810043
v -0.16994616 -0.05210267 0.26934978
v -0.17221987 -0.05192728 0.27015129
v -0.16863107 -0.05293946 0.26903292
v -0.16888430 -0.05270311 0.26909677
v -0.17053594 -0.05190373 0.26949728
v -0.17140700 -0.05189027 0.26981946
v -0.16846673 -0.05160096 0.26849818
v -0.19986783 -0.05857895 0.21278315
v -0.18707993 -0.11612451 0.21278316
v -0.15567884 -0.10914647 0.26849817
v -0.15588017 -0.10761857 0.26873186
v -0.16852713 -0.05320877 0.26902039
v -0.20628866 -0.11545873 0.22658702
v -0.20603272 -0.11547497 0.22518490
v -0.20524573 -0.11528161 0.22372327
v -0.20582529 -0.11528405 0.22454110
v -0.21613721 -0.06170272 0.22946923
v -0.21649738 -0.06188145 0.22831836
v -0.21642764 -0.06182294 0.22595727
v -0.21544386 -0.06157555 0.22382326
v -0.21410534 -0.06127132 0.22252773
v -0.18827918 -0.06083922 0.27763528
v -0.17751145 -0.10922512 0.27761161
v -0.17741503 -0.10920156 0.27766891
v -0.21596691 -0.06703625 0.22372325
v -0.21697539 -0.06736031 0.22640056
v -0.21676173 -0.06719441 0.22518489
v -0.21636539 -0.06725389 0.22430419
v -0.20624712 -0.11554754 0.22669968
v -0.18817697 -0.06082103 0.27768426
v -0.18816627 -0.06095516 0.27771174
v -0.18818131 -0.06076668 0.27767312
v -0.17452734 -0.10845449 0.27822745
v -0.17732660 -0.10897740 0.27780197
v -0.17615464 -0.10883458 0.27819828
v -0.17525857 -0.10848871 0.27831447
v -0.21698659 -0.06721864 0.22669967
v -0.21697503 -0.06716529 0.22658440
v -0.18389823 -0.06005064 0.27778791
v -0.18688324 -0.06055556 0.27819830
v -0.18524815 -0.06021067 0.27822744
v -0.18190299 -0.07526413 0.27822745
v -0.21409645 -0.07545317 0.22372321
v -0.20741688 -0.10169193 0.22292396
v -0.20819594 -0.10200546 0.22372321
v -0.17820882 -0.09521257 0.27831447
v -0.17747761 -0.09517834 0.27822745
v -0.21262132 -0.08209124 0.22372321
v -0.21006640 -0.09358854 0.22372325
v -0.18410933 -0.06866028 0.27831447
v -0.21479252 -0.06850157 0.22292396
v -0.21615118 -0.06881755 0.22454110
f 65 215 137
f 137 215 118
f 138 66 67
f 255 244 52
f 53 236 52
f 49 50 157
f 124 125 126
f 68 125 243
f 211 121 126
f 244 237 245
f 33 237 244
f 52 236 33
f 33 255 52
f 34 33 236
f 153 28 40
f 129 259 149
f 49 157 47
f 249 74 56
f 122 123 164
f 103 123 122
f 104 123 103
f 164 184 263
f 238 29 67
f 238 68 243
f 125 68 143
f 83 67 66
f 83 66 138
f 120 211 126
f 6 108 2
f 108 1 2
f 210 1 212
f 100 227 212
f 243 163 246
f 246 238 243
f 244 255 256
f 256 33 244
f 255 33 256
f 65 137 140
f 140 137 118
f 235 34 236
f 235 53 54
f 236 53 235
f 28 34 42
f 199 42 187
f 27 140 139
f 31 27 29
f 26 139 138
f 26 27 139
f 29 27 26
f 6 2 76
f 76 2 1
f 251 10 117
f 117 259 251
f 259 129 128
f 148 259 128
f 61 64 63
f 215 217 206
f 216 217 215
f 216 215 65
f 65 64 216
f 216 64 61
f 61 217 216
f 148 57 133
f 115 259 148
f 56 75 252
f 48 47 14
f 14 47 157
f 258 249 56
f 56 57 258
f 258 57 148
f 132 73 74
f 54 73 132
f 44 163 136
f 136 163 184
f 136 45 44
f 270 45 150
f 125 124 269
f 243 125 269
f 267 263 184
f 267 163 243
f 184 163 267
f 244 245 72
f 52 244 72
f 161 232 158
f 239 238 67
f 68 238 239
f 67 83 239
f 239 83 68
f 29 238 30
f 237 31 30
f 30 31 29
f 30 245 237
f 30 246 245
f 238 246 30
f 85 143 126
f 125 143 85
f 138 139 214
f 214 140 118
f 139 140 214
f 103 227 99
f 164 123 99
f 210 212 89
f 89 212 227
f 103 210 89
f 89 227 103
f 100 212 213
f 213 106 100
f 213 212 1
f 213 1 108
f 108 106 213
f 147 163 44
f 147 246 163
f 44 45 147
f 147 45 270
f 270 246 147
f 36 140 39
f 65 140 36
f 39 27 36
f 153 40 36
f 98 235 54
f 34 235 98
f 41 40 28
f 28 42 41
f 41 199 40
f 42 199 41
f 185 199 187
f 40 199 186
f 186 36 40
f 199 185 186
f 186 151 65
f 65 36 186
f 187 151 186
f 186 185 187
f 39 140 141
f 141 27 39
f 140 27 141
f 237 33 32
f 32 31 237
f 33 34 32
f 67 29 142
f 29 26 142
f 138 67 142
f 142 26 138
f 77 207 229
f 208 76 207
f 208 207 77
f 77 3 208
f 3 5 208
f 209 5 6
f 6 76 209
f 209 208 5
f 76 208 209
f 149 259 134
f 259 117 134
f 134 257 149
f 257 134 80
f 80 117 10
f 80 134 117
f 61 63 166
f 166 60 61
f 129 60 166
f 166 128 129
f 193 63 64
f 58 206 218
f 79 58 218
f 218 206 217
f 69 115 264
f 259 260 265
f 260 115 265
f 43 260 259
f 259 115 43
f 43 115 260
f 253 57 56
f 56 252 253
f 201 75 46
f 148 128 188
f 188 258 148
f 233 184 164
f 262 122 164
f 262 269 122
f 164 263 262
f 263 269 262
f 25 269 124
f 122 269 25
f 103 122 25
f 243 269 135
f 96 227 100
f 232 72 51
f 51 150 45
f 270 150 51
f 51 246 270
f 245 246 51
f 51 72 245
f 50 72 231
f 231 247 50
f 231 72 232
f 232 161 231
f 100 106 105
f 95 96 100
f 126 125 86
f 86 85 126
f 125 85 86
f 84 143 68
f 68 144 84
f 68 83 82
f 118 211 119
f 119 214 118
f 211 120 119
f 138 214 119
f 38 28 153
f 153 36 38
f 38 34 28
f 38 32 34
f 35 42 34
f 34 98 35
f 77 229 228
f 228 3 77
f 79 257 78
f 257 80 78
f 78 229 79
f 10 229 78
f 78 80 10
f 129 219 62
f 220 60 129
f 129 62 220
f 220 62 223
f 128 166 192
f 192 166 63
f 192 188 128
f 63 193 192
f 65 151 197
f 152 64 65
f 152 193 64
f 65 197 152
f 152 197 193
f 196 151 187
f 187 191 196
f 79 218 225
f 225 62 219
f 225 217 61
f 225 218 217
f 223 62 225
f 61 60 225
f 254 264 116
f 69 264 254
f 116 57 254
f 57 253 254
f 87 133 57
f 148 133 87
f 268 115 148
f 268 264 115
f 148 87 268
f 268 87 264
f 251 259 70
f 259 265 70
f 70 254 251
f 69 254 70
f 70 115 69
f 70 265 115
f 75 201 202
f 46 47 177
f 177 201 46
f 258 188 130
f 54 132 131
f 132 191 131
f 55 98 54
f 54 131 55
f 55 131 191
f 266 269 263
f 266 267 243
f 263 267 266
f 232 51 234
f 158 232 234
f 234 159 158
f 234 233 159
f 160 157 50
f 50 247 160
f 247 231 160
f 160 231 161
f 159 95 12
f 158 159 12
f 159 233 97
f 97 233 164
f 164 99 97
f 226 82 83
f 226 83 138
f 226 144 68
f 68 82 226
f 138 119 226
f 226 119 120
f 226 84 144
f 126 143 226
f 226 120 126
f 143 84 226
f 111 104 103
f 103 102 111
f 123 104 111
f 111 102 123
f 103 99 112
f 112 102 103
f 112 99 123
f 123 102 112
f 37 36 27
f 37 38 36
f 27 31 37
f 31 32 37
f 32 38 37
f 200 35 98
f 98 55 200
f 200 55 191
f 42 35 200
f 187 42 200
f 200 191 187
f 127 229 10
f 10 155 127
f 127 155 229
f 154 155 10
f 229 155 154
f 9 228 154
f 154 228 229
f 4 3 156
f 3 228 156
f 230 257 79
f 79 221 230
f 230 221 257
f 224 220 223
f 60 220 224
f 223 225 224
f 224 225 60
f 193 197 198
f 198 197 151
f 194 196 191
f 59 221 79
f 79 225 59
f 59 225 219
f 59 219 129
f 59 129 149
f 149 257 59
f 116 264 88
f 264 87 88
f 88 57 116
f 88 87 57
f 75 202 241
f 203 253 252
f 252 202 203
f 171 254 253
f 253 203 171
f 176 47 48
f 176 177 47
f 190 191 132
f 190 132 74
f 190 194 191
f 130 194 190
f 261 135 269
f 269 266 261
f 243 135 261
f 261 266 243
f 233 234 165
f 165 136 184
f 184 233 165
f 71 51 45
f 71 234 51
f 71 165 234
f 45 136 71
f 136 165 71
f 105 12 11
f 100 105 11
f 11 12 95
f 11 95 100
f 162 95 159
f 159 97 162
f 109 99 227
f 109 97 99
f 193 198 195
f 196 194 195
f 151 196 195
f 195 198 151
f 257 221 222
f 222 59 257
f 221 59 222
f 242 202 252
f 242 241 202
f 242 252 75
f 75 241 242
f 145 3 4
f 4 156 145
f 167 5 3
f 81 176 48
f 130 190 250
f 258 130 250
f 101 162 97
f 95 162 101
f 101 109 227
f 97 109 101
f 189 195 194
f 188 192 189
f 189 192 193
f 193 195 189
f 189 130 188
f 189 194 130
f 251 254 204
f 254 171 204
f 3 145 8
f 8 167 3
f 13 14 157
f 157 160 13
f 48 14 13
f 13 81 48
f 16 161 158
f 158 12 16
f 249 258 248
f 258 250 248
f 240 190 74
f 240 250 190
f 240 248 250
f 74 249 240
f 249 248 240
f 96 95 110
f 95 101 110
f 251 204 146
f 146 228 9
f 9 154 146
f 146 10 251
f 146 156 228
f 146 154 10
f 6 5 168
f 5 167 168
f 167 8 170
f 170 204 171
f 145 204 170
f 170 8 145
f 170 168 167
f 15 13 160
f 15 160 161
f 161 16 15
f 114 110 101
f 114 101 227
f 205 204 145
f 205 146 204
f 205 145 156
f 156 146 205
f 7 182 6
f 6 168 7
f 7 168 182
f 176 81 175
f 81 183 175
f 227 96 113
f 113 114 227
f 96 110 113
f 110 114 113
f 107 106 108
f 108 21 107
f 174 175 183
f 176 175 174
f 174 202 201
f 201 177 174
f 177 176 174
f 17 105 106
f 106 107 17
f 17 12 105
f 17 16 12
f 180 181 173
f 173 174 180
f 202 174 173
f 173 203 202
f 23 183 81
f 23 24 183
f 81 13 23
f 22 107 21
f 21 17 22
f 22 17 107
f 172 173 181
f 168 170 172
f 172 181 168
f 172 170 171
f 172 171 203
f 203 173 172
f 183 24 169
f 24 92 169
f 93 92 24
f 93 21 108
f 182 92 93
f 93 108 6
f 6 182 93
f 13 15 19
f 19 23 13
f 178 174 183
f 180 174 178
f 182 168 90
f 168 181 90
f 94 17 21
f 91 169 92
f 183 169 91
f 91 178 183
f 17 94 18
f 18 94 19
f 16 17 18
f 18 15 16
f 18 19 15
f 19 94 20
f 23 19 20
f 24 23 20
f 20 94 21
f 21 93 20
f 20 93 24
f 178 91 179
f 180 178 179
f 179 91 92
f 179 181 180
f 179 92 182
f 179 90 181
f 182 90 179
f 103 126 121
f 121 210 103
f 206 76 1
f 118 215 206
f 210 121 206
f 206 211 118
f 121 211 206
f 206 1 210
f 58 207 206
f 207 76 206
f 56 74 72
f 72 50 49
f 72 75 56
f 72 53 52
f 72 73 54
f 54 53 72
f 49 47 72
f 46 75 72
f 72 47 46
f 74 73 72
f 229 207 58
f 229 58 79
f 25 126 103
f 25 124 126

