# https://github.com/mikedh/trimesh
v -0.14437748 -0.12305133 0.21650000
v -0.14475711 -0.12364789 0.21650000
v -0.15093963 -0.11887542 0.25550001
v -0.15131926 -0.11947198 0.21650000
v -0.15093963 -0.11887542 0.21650000
v -0.14595023 -0.11827886 0.21600001
v -0.14546214 -0.11817039 0.21650000
v -0.15083116 -0.11936351 0.25600001
v -0.14595023 -0.11827886 0.25600001
v -0.14605869 -0.11779076 0.21650000
v -0.15131926 -0.11947198 0.25550001
v -0.14437748 -0.12305133 0.25550001
v -0.14475711 -0.12364789 0.25550001
v -0.14974651 -0.12424445 0.25600001
v -0.15023461 -0.12435291 0.25550001
v -0.14974651 -0.12424445 0.21600001
v -0.14486558 -0.12315979 0.21600001
v -0.15083116 -0.11936351 0.21600001
v -0.14486558 -0.12315979 0.25600001
v -0.14605869 -0.11779076 0.25550001
v -0.14546214 -0.11817039 0.25550001
v -0.14475711 -0.12134300 0.23229904
v -0.15049513 -0.12318055 0.25175001
v -0.15023461 -0.12435291 0.21650000
v -0.14963805 -0.12473254 0.21650000
v -0.14963805 -0.12473254 0.25550001
f 4 3 5
f 5 18 4
f 10 18 5
f 6 18 10
f 10 7 6
f 13 1 12
f 2 1 13
f 12 19 13
f 17 1 2
f 11 3 4
f 8 3 11
f 14 15 26
f 20 9 21
f 20 21 7
f 20 7 10
f 22 1 7
f 12 1 22
f 15 11 23
f 15 23 24
f 25 24 16
f 9 19 12
f 12 21 9
f 7 1 17
f 17 6 7
f 14 13 19
f 26 13 14
f 19 9 14
f 14 9 8
f 8 11 14
f 14 11 15
f 2 13 25
f 25 13 26
f 8 9 20
f 20 3 8
f 20 5 3
f 10 5 20
f 7 21 22
f 22 21 12
f 26 15 24
f 24 25 26
f 24 11 4
f 24 23 11
f 2 25 16
f 16 17 2
f 6 17 16
f 18 6 16
f 16 24 4
f 4 18 16

