# https://github.com/mikedh/trimesh
v 0.07200000 -0.16774017 0.25800000
v -0.04900000 -0.17355055 0.18961044
v 0.07200000 -0.15774017 0.25800000
v -0.04900000 -0.17355055 0.26678191
v 0.07200000 -0.16774017 0.23800000
v 0.07200000 -0.15774017 0.23800000
v 0.05700000 -0.14750000 0.17400000
v 0.05700000 -0.19350000 0.17400000
v 0.05700000 -0.19350000 0.27800000
v 0.05700000 -0.14750000 0.27800000
v -0.04700000 -0.14750000 0.17400000
v -0.04700000 -0.14750000 0.27800000
v -0.04700000 -0.19350000 0.27800000
v -0.04700000 -0.19350000 0.17400000
v -0.04900000 -0.18167786 0.18961044
v -0.04900000 -0.18167786 0.26678191
f 12 13 10
f 10 13 9
f 12 10 11
f 11 10 7
f 1 9 5
f 9 8 5
f 12 11 4
f 4 11 2
f 3 10 9
f 3 9 1
f 14 11 7
f 7 8 14
f 2 11 14
f 14 15 2
f 9 13 14
f 14 8 9
f 16 13 12
f 12 4 16
f 15 14 16
f 16 14 13
f 16 4 2
f 2 15 16
f 6 5 8
f 6 8 7
f 7 10 6
f 10 3 6
f 1 5 6
f 6 3 1

