# https://github.com/mikedh/trimesh
v 0.19935609 -0.14898259 0.34825458
v 0.20068773 -0.14927327 0.34723097
v 0.20155545 -0.14536857 0.34725097
v 0.20235075 -0.14553763 0.34575281
v 0.20159757 -0.14945907 0.34403218
v 0.20246528 -0.14555437 0.34405218
v 0.20187826 -0.14541576 0.34245789
v 0.14156682 -0.13569931 0.26211230
v 0.14147733 -0.13610202 0.34461782
v 0.14243454 -0.13179461 0.26213230
v 0.14961556 -0.13337923 0.25995238
v 0.20101054 -0.14932046 0.34243789
v 0.19772993 -0.14862309 0.34861777
v 0.14537774 -0.13698927 0.34861777
v 0.20148304 -0.14944233 0.34573281
v 0.14874785 -0.13728393 0.25993238
v 0.14342595 -0.13655279 0.34808188
v 0.14199830 -0.13622803 0.34661779
v 0.14207167 -0.13580144 0.26014900
v 0.14345196 -0.13610071 0.25869124
v 0.14535228 -0.13652005 0.25811436
v 0.14728332 -0.13695148 0.25856692
v 0.14234504 -0.13219732 0.34463782
v 0.14293938 -0.13189674 0.26016900
v 0.14621999 -0.13261535 0.25813436
v 0.14431967 -0.13219601 0.25871124
v 0.14624545 -0.13308457 0.34863777
v 0.19859764 -0.14471839 0.34863777
v 0.20022380 -0.14507789 0.34827458
v 0.14286601 -0.13232333 0.34663779
v 0.14429366 -0.13264809 0.34810188
v 0.14815103 -0.13304678 0.25858692
f 23 8 9
f 10 8 23
f 30 23 18
f 18 23 9
f 21 20 26
f 26 25 21
f 24 8 10
f 24 19 8
f 20 19 24
f 24 26 20
f 16 22 32
f 11 16 32
f 21 25 32
f 32 22 21
f 12 7 6
f 6 5 12
f 11 7 12
f 12 16 11
f 31 18 17
f 30 18 31
f 27 31 14
f 14 31 17
f 28 27 14
f 14 13 28
f 11 32 29
f 30 31 29
f 10 23 29
f 29 23 30
f 29 24 10
f 6 7 29
f 25 26 29
f 29 7 11
f 29 27 28
f 26 24 29
f 29 32 25
f 29 31 27
f 29 4 6
f 3 4 29
f 15 5 6
f 6 4 15
f 15 4 3
f 15 3 2
f 1 20 21
f 9 8 1
f 8 19 1
f 21 22 1
f 1 18 9
f 1 14 17
f 17 18 1
f 1 19 20
f 1 22 16
f 1 12 5
f 16 12 1
f 13 14 1
f 5 15 1
f 1 15 2
f 28 13 1
f 1 29 28
f 3 29 1
f 2 3 1

