# https://github.com/mikedh/trimesh
v -0.16353850 -0.03050412 0.27665769
v -0.16184769 -0.03012838 0.27565769
v -0.20600264 -0.03994059 0.20131346
v -0.20512532 -0.04281881 0.19771540
v -0.18685852 -0.13300376 0.19871540
v -0.18516771 -0.13262802 0.19771540
v -0.14227931 -0.12617045 0.27665768
v -0.18305265 -0.13523119 0.20031346
v -0.18474345 -0.13560692 0.20131346
v -0.14146582 -0.12291649 0.27925575
v -0.13977502 -0.12254075 0.27825575
v -0.16142343 -0.03310728 0.27925575
v -0.15973262 -0.03273155 0.27825575
v -0.14133660 -0.12442436 0.27890769
v -0.13964579 -0.12404863 0.27790769
v -0.14163436 -0.12561540 0.27795672
v -0.13994355 -0.12523966 0.27695672
v -0.14058850 -0.12579471 0.27565768
v -0.16271917 -0.03073377 0.27795672
v -0.16194500 -0.03168659 0.27890769
v -0.16025419 -0.03131086 0.27790769
v -0.20694535 -0.04168667 0.19906346
v -0.20525454 -0.04131094 0.19806346
v -0.20664758 -0.04049564 0.20001444
v -0.20495678 -0.04011991 0.19901444
v -0.18556277 -0.13537727 0.20001444
v -0.18387197 -0.13500153 0.19901444
v -0.18633695 -0.13442444 0.19906346
v -0.18464615 -0.13404871 0.19806346
v -0.16102836 -0.03035804 0.27695672
v -0.16112512 -0.03033091 0.27680331
v -0.14001972 -0.12530521 0.27680331
v -0.20431183 -0.03956486 0.20031346
v -0.20681612 -0.04319455 0.19871540
v -0.16281593 -0.03070665 0.27780331
v -0.14171053 -0.12568095 0.27780331
f 29 28 5
f 29 5 6
f 18 7 9
f 9 8 18
f 23 4 34
f 22 23 34
f 34 4 6
f 6 5 34
f 33 3 1
f 33 1 2
f 11 10 14
f 11 14 15
f 12 10 11
f 11 13 12
f 21 20 12
f 12 13 21
f 30 19 20
f 20 21 30
f 27 8 9
f 9 26 27
f 28 29 27
f 27 26 28
f 15 14 16
f 16 17 15
f 25 23 22
f 22 24 25
f 3 33 25
f 25 24 3
f 2 1 31
f 1 35 31
f 31 35 19
f 19 30 31
f 32 29 6
f 32 33 2
f 6 4 32
f 15 17 32
f 32 11 15
f 32 4 23
f 23 25 32
f 32 18 8
f 8 27 32
f 13 11 32
f 32 21 13
f 2 31 32
f 32 30 21
f 32 27 29
f 32 25 33
f 32 31 30
f 12 20 36
f 36 24 22
f 9 7 36
f 36 26 9
f 36 10 12
f 5 28 36
f 36 35 1
f 1 3 36
f 14 10 36
f 22 34 36
f 36 34 5
f 20 19 36
f 28 26 36
f 3 24 36
f 19 35 36
f 36 16 14
f 7 18 36
f 18 32 36
f 17 16 36
f 36 32 17

