# https://github.com/mikedh/trimesh
v 0.08800000 -0.11000000 0.16000000
v 0.08800000 -0.10933013 0.16249999
v 0.08800000 -0.10750000 0.16433012
v 0.08500000 -0.10750000 0.16433012
v 0.08800000 -0.10500000 0.16500001
v 0.08500000 -0.10500000 0.16500001
v 0.08800000 -0.10750000 0.01566987
v 0.08500000 -0.10750000 0.01566987
v 0.08800000 -0.10933013 0.01750000
v 0.08500000 -0.10933013 0.01750000
v 0.08800000 -0.11000000 0.02000000
v 0.08500000 -0.11000000 0.02000000
v 0.08500000 0.11000000 0.02000000
v 0.08800000 0.11000000 0.02000000
v 0.08800000 0.10933013 0.01750000
v 0.08500000 0.10933013 0.01750000
v 0.08800000 0.10750000 0.01566987
v 0.08500000 0.10750000 0.01566987
v 0.08800000 0.10500000 0.01500000
v 0.08500000 0.10500000 0.01500000
v 0.08500000 0.10500000 0.16500001
v 0.08800000 0.10500000 0.16500001
v 0.08800000 0.10750000 0.16433012
v 0.08500000 0.10750000 0.16433012
v 0.08800000 0.10933013 0.16249999
v 0.08800000 0.11000000 0.16000000
v 0.08500000 0.11000000 0.16000000
v 0.08800000 -0.10500000 0.01500000
v 0.08500000 -0.10500000 0.01500000
v 0.08500000 0.10933013 0.16249999
v 0.08500000 -0.10933013 0.16249999
v 0.08500000 -0.11000000 0.16000000
f 16 14 15
f 13 14 16
f 13 27 26
f 26 14 13
f 27 30 26
f 26 30 25
f 22 21 6
f 22 6 5
f 18 16 17
f 17 16 15
f 1 2 31
f 31 32 1
f 12 11 1
f 1 32 12
f 23 30 24
f 25 30 23
f 24 21 23
f 21 22 23
f 20 17 19
f 18 17 20
f 3 26 25
f 25 23 3
f 7 28 3
f 15 14 3
f 14 26 3
f 3 17 15
f 3 22 5
f 3 2 1
f 1 11 3
f 3 9 7
f 19 17 3
f 11 9 3
f 3 23 22
f 3 28 19
f 7 9 10
f 10 8 7
f 10 9 11
f 11 12 10
f 29 20 19
f 19 28 29
f 29 28 7
f 7 8 29
f 8 10 4
f 4 27 13
f 4 21 24
f 13 16 4
f 6 21 4
f 24 30 4
f 4 29 8
f 4 16 18
f 4 30 27
f 18 20 4
f 32 31 4
f 4 12 32
f 20 29 4
f 4 10 12
f 5 6 4
f 4 3 5
f 4 31 2
f 2 3 4

