# https://github.com/mikedh/trimesh
v 0.04998224 -0.13611309 0.07845463
v 0.04813784 -0.13677627 0.07958584
v 0.04828858 -0.13672313 0.07920000
v 0.04884041 -0.13652697 0.07861436
v 0.04920349 -0.13639654 0.07845455
v 0.04959292 -0.13625543 0.07840000
v 0.04808639 -0.13679437 0.08000000
v 0.05034392 -0.13597974 0.07861436
v 0.05089273 -0.13577530 0.07920000
v 0.05104248 -0.13571906 0.07958630
v 0.05109341 -0.13569990 0.08000000
v 0.04813784 -0.13677627 0.15958583
v 0.04884041 -0.13652697 0.16138564
v 0.04920400 -0.13639636 0.16154560
v 0.04959292 -0.13625543 0.16160000
v 0.04998152 -0.13611336 0.16154558
v 0.05034392 -0.13597974 0.16138564
v 0.05089273 -0.13577530 0.16080000
v -0.04920320 -0.13639665 0.07845463
v -0.05104237 -0.13571911 0.07958584
v -0.05034392 -0.13597974 0.07861436
v -0.04998195 -0.13611321 0.07845455
v -0.04959292 -0.13625543 0.07840000
v -0.05109341 -0.13569990 0.08000000
v -0.05104230 -0.13571914 0.08041445
v -0.04884041 -0.13652697 0.07861436
v -0.04828858 -0.13672313 0.07920000
v -0.04813772 -0.13677631 0.07958630
v -0.04808639 -0.13679437 0.08000000
v -0.05109341 -0.13569990 0.16000000
v -0.05104230 -0.13571914 0.16041445
v -0.05089273 -0.13577530 0.16080000
v -0.05034392 -0.13597974 0.16138564
v -0.04998144 -0.13611339 0.16154560
v -0.04959292 -0.13625543 0.16160000
v -0.04920392 -0.13639638 0.16154558
v -0.04884041 -0.13652697 0.16138564
v -0.04828858 -0.13672313 0.16080000
v -0.04813772 -0.13677631 0.15958630
v -0.04808639 -0.13679437 0.16000000
v 0.08500000 -0.11374973 0.07500000
v 0.08500000 -0.11747340 0.07500000
v 0.03005502 -0.14185096 0.07500000
v -0.03005502 -0.14185096 0.07500000
v -0.08500000 -0.11747340 0.07500000
v -0.08500000 -0.11374973 0.07500000
v -0.08500000 -0.11374973 0.16500000
v 0.03005502 -0.14185096 0.16500000
v 0.08500000 -0.11747340 0.16500000
v 0.08500000 -0.11374973 0.16500000
v -0.08500000 -0.11747340 0.16500000
v 0.04828858 -0.13672313 0.16080000
v 0.05104199 -0.13571925 0.16041565
v 0.05109341 -0.13569990 0.16000000
v 0.04808639 -0.13679437 0.16000000
v 0.04813791 -0.13677624 0.16041445
v 0.04920400 -0.13639636 0.08154560
v 0.04998152 -0.13611336 0.08154558
v 0.05104199 -0.13571925 0.08041565
v -0.03005502 -0.14185096 0.16500000
v -0.04813822 -0.13677613 0.16041565
v -0.04920320 -0.13639665 0.15845463
v -0.04998195 -0.13611321 0.15845455
v -0.05089273 -0.13577530 0.07920000
f 51 31 32
f 43 42 6
f 49 48 15
f 1 6 42
f 17 18 49
f 49 18 53
f 53 54 49
f 10 42 11
f 45 44 23
f 61 40 60
f 60 38 61
f 49 15 16
f 16 17 49
f 8 1 42
f 10 11 59
f 21 64 45
f 19 23 44
f 60 51 35
f 31 51 30
f 9 42 10
f 9 8 42
f 10 59 9
f 1 8 58
f 6 1 58
f 52 13 48
f 14 15 48
f 48 13 14
f 45 23 22
f 22 21 45
f 37 38 60
f 33 51 32
f 64 25 20
f 20 25 24
f 20 24 45
f 45 64 20
f 48 55 56
f 56 52 48
f 43 4 3
f 43 6 5
f 5 4 43
f 28 27 44
f 60 35 36
f 36 37 60
f 26 19 44
f 44 27 26
f 34 35 51
f 51 33 34
f 12 56 55
f 52 56 12
f 2 7 43
f 43 3 2
f 4 5 57
f 57 5 6
f 39 61 38
f 40 61 39
f 29 28 44
f 37 36 62
f 62 36 35
f 63 34 33
f 35 34 63
f 41 46 50
f 50 46 47
f 60 44 43
f 43 48 60
f 45 46 42
f 42 44 45
f 43 44 42
f 42 46 41
f 42 50 49
f 41 50 42
f 51 60 48
f 51 48 49
f 49 50 51
f 51 50 47
f 51 46 45
f 47 46 51
f 11 42 49
f 49 54 11
f 7 48 43
f 7 55 48
f 59 11 54
f 54 53 59
f 25 64 32
f 32 31 25
f 30 25 31
f 24 25 30
f 30 51 45
f 45 24 30
f 18 17 9
f 17 8 9
f 9 59 53
f 9 53 18
f 58 8 17
f 17 16 58
f 58 15 6
f 58 16 15
f 32 64 33
f 64 21 33
f 3 4 13
f 13 52 3
f 38 37 26
f 26 27 38
f 55 7 2
f 2 12 55
f 2 3 52
f 52 12 2
f 13 4 57
f 57 14 13
f 6 15 57
f 15 14 57
f 38 27 39
f 27 28 39
f 44 60 29
f 60 40 29
f 29 39 28
f 40 39 29
f 62 26 37
f 19 26 62
f 23 19 62
f 62 35 23
f 63 33 21
f 21 22 63
f 23 35 63
f 63 22 23

