# https://github.com/mikedh/trimesh
v -0.00900000 0.02050000 0.03800000
v -0.00900000 0.03550000 0.04300000
v -0.00900000 0.03500000 0.04213397
v -0.00900000 0.03536603 0.04250000
v -0.00900000 0.02950000 0.03826795
v -0.00900000 0.02050000 0.07400000
v -0.00900000 0.03500000 0.06986603
v -0.00900000 0.03536603 0.06950000
v -0.00900000 0.03550000 0.06900000
v -0.00900000 0.02950000 0.07373205
v -0.00900000 0.02850000 0.07400000
v 0.02500000 0.02850000 0.06500000
v 0.02500000 0.02950000 0.06473205
v 0.02500000 0.03023205 0.06400000
v 0.00900000 0.03536603 0.04250000
v 0.00900000 0.03550000 0.06900000
v 0.00900000 0.02050000 0.07400000
v 0.00900000 0.03536603 0.06950000
v 0.00900000 0.02950000 0.07373205
v 0.00900000 0.02850000 0.03800000
v 0.00900000 0.02050000 0.03800000
v -0.00900000 0.02850000 0.03800000
v 0.00900000 0.03550000 0.04300000
v 0.00900000 0.03500000 0.04213397
v 0.00900000 0.02950000 0.03826795
v -0.02500000 0.02050000 0.04700000
v -0.02500000 0.02850000 0.04700000
v -0.02500000 0.02050000 0.06500000
v -0.02500000 0.02850000 0.06500000
v -0.02500000 0.02950000 0.06473205
v -0.02500000 0.03023205 0.04800000
v -0.02500000 0.02950000 0.04726795
v -0.02500000 0.03050000 0.06300000
v 0.02500000 0.02050000 0.04700000
v 0.02500000 0.02850000 0.04700000
v 0.00900000 0.02850000 0.07400000
v 0.02500000 0.03050000 0.06300000
v 0.02500000 0.03050000 0.04900000
v 0.02500000 0.03023205 0.04800000
v 0.02500000 0.02050000 0.06500000
v 0.00900000 0.03500000 0.06986603
v -0.02500000 0.03050000 0.04900000
v 0.02500000 0.02950000 0.04726795
v -0.02500000 0.03023205 0.06400000
f 39 43 15
f 13 14 18
f 19 13 41
f 41 13 18
f 31 4 32
f 24 43 25
f 24 15 43
f 3 5 32
f 32 4 3
f 30 10 7
f 8 44 30
f 30 7 8
f 28 26 17
f 34 40 17
f 17 6 28
f 1 21 17
f 17 26 1
f 17 21 34
f 20 35 34
f 34 21 20
f 35 20 43
f 43 20 25
f 1 26 22
f 26 27 22
f 22 27 32
f 32 5 22
f 22 21 1
f 22 20 21
f 25 20 22
f 22 5 25
f 9 8 18
f 18 16 9
f 37 16 18
f 18 14 37
f 36 17 40
f 40 12 36
f 13 40 34
f 13 39 38
f 34 35 13
f 13 12 40
f 35 43 13
f 13 43 39
f 38 37 13
f 13 37 14
f 13 36 12
f 19 36 13
f 23 37 38
f 16 37 23
f 38 39 23
f 39 15 23
f 8 9 44
f 44 9 33
f 18 8 41
f 8 7 41
f 25 5 3
f 3 24 25
f 3 4 15
f 15 24 3
f 16 23 2
f 2 9 16
f 2 23 15
f 15 4 2
f 2 42 33
f 33 9 2
f 2 31 42
f 4 31 2
f 10 41 7
f 19 41 10
f 6 17 11
f 17 36 11
f 11 36 19
f 19 10 11
f 28 6 11
f 11 29 28
f 30 26 28
f 32 27 30
f 30 27 26
f 28 29 30
f 30 44 33
f 33 42 30
f 30 31 32
f 42 31 30
f 30 11 10
f 29 11 30

