# https://github.com/mikedh/trimesh
v -0.07950000 -0.09500000 0.07150000
v -0.07900000 -0.09450000 0.07150000
v -0.07950000 -0.09450000 0.07200000
v -0.08450000 -0.05550000 0.07200000
v -0.08450000 -0.05500000 0.07150000
v -0.08500000 -0.05550000 0.07150000
v -0.08500000 -0.05550000 0.06650000
v -0.08450000 -0.05550000 0.06600000
v -0.08450000 -0.09450000 0.06600000
v -0.07950000 -0.09500000 0.06650000
v -0.08450000 -0.05500000 0.06650000
v -0.07950000 -0.05500000 0.06650000
v -0.07900000 -0.09450000 0.06650000
v -0.07950000 -0.09450000 0.06600000
v -0.07950000 -0.05550000 0.07200000
v -0.08450000 -0.09450000 0.07200000
v -0.08450000 -0.09500000 0.07150000
v -0.08500000 -0.09450000 0.07150000
v -0.08450000 -0.09500000 0.06650000
v -0.07950000 -0.05550000 0.06600000
v -0.07900000 -0.05550000 0.06650000
v -0.07900000 -0.05550000 0.07150000
v -0.07950000 -0.05500000 0.07150000
v -0.08500000 -0.09450000 0.06650000
f 8 7 11
f 3 1 2
f 4 5 6
f 20 12 21
f 15 22 23
f 9 19 24
f 14 13 10
f 16 18 17
f 11 7 6
f 6 5 11
f 22 13 21
f 2 13 22
f 22 3 2
f 15 3 22
f 4 3 15
f 16 3 4
f 16 4 18
f 18 4 6
f 11 12 20
f 8 11 20
f 20 14 9
f 9 8 20
f 21 13 20
f 20 13 14
f 23 11 5
f 23 12 11
f 23 22 21
f 21 12 23
f 23 4 15
f 5 4 23
f 24 18 6
f 6 7 24
f 24 8 9
f 24 7 8
f 10 13 2
f 2 1 10
f 9 14 10
f 10 19 9
f 19 10 17
f 17 10 1
f 17 3 16
f 1 3 17
f 18 24 17
f 17 24 19

