# https://github.com/mikedh/trimesh
v -0.07950000 0.07300000 0.12650000
v -0.07900000 0.07250000 0.12650000
v -0.07900000 0.03350000 0.12150000
v -0.07950000 0.03300000 0.12150000
v -0.07950000 0.03350000 0.12100000
v -0.08450000 0.03350000 0.12100000
v -0.08500000 0.03350000 0.12150000
v -0.08450000 0.07250000 0.12100000
v -0.08450000 0.07300000 0.12650000
v -0.07950000 0.07250000 0.12700000
v -0.08500000 0.03350000 0.12650000
v -0.08450000 0.07250000 0.12700000
v -0.08500000 0.07250000 0.12650000
v -0.08450000 0.03300000 0.12150000
v -0.07950000 0.03350000 0.12700000
v -0.07950000 0.07300000 0.12150000
v -0.07950000 0.07250000 0.12100000
v -0.08450000 0.07300000 0.12150000
v -0.08500000 0.07250000 0.12150000
v -0.07950000 0.03300000 0.12650000
v -0.08450000 0.03350000 0.12700000
v -0.07900000 0.03350000 0.12650000
v -0.08450000 0.03300000 0.12650000
v -0.07900000 0.07250000 0.12150000
f 20 22 15
f 4 5 3
f 7 6 14
f 21 11 23
f 1 10 2
f 8 19 18
f 16 24 17
f 13 12 9
f 8 17 6
f 6 17 5
f 8 6 19
f 19 6 7
f 22 20 3
f 3 20 4
f 11 19 7
f 13 19 11
f 13 11 12
f 12 11 21
f 14 6 5
f 14 5 4
f 5 17 24
f 24 3 5
f 2 22 24
f 22 3 24
f 10 22 2
f 15 22 10
f 10 12 21
f 10 21 15
f 15 21 23
f 23 20 15
f 23 11 7
f 7 14 23
f 4 20 23
f 23 14 4
f 2 24 16
f 16 1 2
f 16 17 8
f 8 18 16
f 9 16 18
f 1 16 9
f 12 10 9
f 10 1 9
f 9 19 13
f 9 18 19

