# https://github.com/mikedh/trimesh
v 0.11827946 -0.09804094 0.26260528
v 0.11763946 -0.10122094 0.26559528
v 0.11779219 -0.10122094 0.26616528
v 0.11820946 -0.10122094 0.26658255
v 0.12723946 -0.09824094 0.26375528
v 0.11763946 -0.09804094 0.26260528
v 0.12723946 -0.10102094 0.26653528
v 0.11763946 -0.09804094 0.26559528
v 0.11779219 -0.09804094 0.26616528
v 0.11820946 -0.09804094 0.26658255
v 0.11877946 -0.09804094 0.26673528
v 0.12703946 -0.10122094 0.26673528
v 0.11763946 -0.10122094 0.26260528
v 0.12703946 -0.09804094 0.26673528
v 0.12723946 -0.09824094 0.26653528
v 0.12723946 -0.10102094 0.26375528
v 0.12703946 -0.10122094 0.26355528
v 0.11877946 -0.10122094 0.26673528
v 0.11827946 -0.10122094 0.26260528
v 0.12703946 -0.09804094 0.26355528
f 12 14 11
f 11 18 12
f 20 17 19
f 20 19 1
f 1 19 6
f 19 13 6
f 2 8 6
f 6 13 2
f 3 8 2
f 3 9 8
f 7 12 17
f 17 16 7
f 14 12 15
f 12 7 15
f 5 15 7
f 5 7 16
f 5 20 14
f 14 15 5
f 17 20 5
f 5 16 17
f 14 20 10
f 10 20 1
f 11 14 10
f 1 6 10
f 10 6 8
f 8 9 10
f 4 12 18
f 4 13 19
f 19 17 4
f 17 12 4
f 2 13 4
f 4 3 2
f 4 18 11
f 11 10 4
f 9 3 4
f 4 10 9

