# https://github.com/mikedh/trimesh
v -0.15310894 -0.04457674 0.16850000
v -0.15300047 -0.04506483 0.16800000
v -0.14931266 -0.08470887 0.16850000
v -0.14990922 -0.08432924 0.16850000
v -0.14990922 -0.08432924 0.17350000
v -0.15836950 -0.04625794 0.17350000
v -0.15251238 -0.04495636 0.17350000
v -0.15251238 -0.04495636 0.16850000
v -0.14931266 -0.08470887 0.17350000
v -0.14454019 -0.08313612 0.17400000
v -0.14443172 -0.08362422 0.17350000
v -0.15310894 -0.04457674 0.17350000
v -0.15300047 -0.04506483 0.17400000
v -0.14942112 -0.08422078 0.17400000
v -0.14405209 -0.08302766 0.16850000
v -0.14454019 -0.08313612 0.16800000
v -0.15788141 -0.04614948 0.16800000
v -0.15798987 -0.04566139 0.16850000
v -0.15836950 -0.04625794 0.16850000
v -0.15798987 -0.04566139 0.17350000
v -0.14443172 -0.08362422 0.16850000
v -0.14405209 -0.08302766 0.17350000
v -0.15788141 -0.04614948 0.17400000
v -0.14942112 -0.08422078 0.16800000
f 21 16 15
f 10 11 22
f 5 9 14
f 3 4 24
f 1 8 2
f 18 17 19
f 12 13 7
f 6 23 20
f 6 19 4
f 4 5 6
f 11 21 22
f 22 21 15
f 5 4 9
f 9 4 3
f 9 21 11
f 3 21 9
f 8 16 2
f 15 16 8
f 8 22 15
f 7 22 8
f 13 22 7
f 10 22 13
f 14 9 11
f 14 11 10
f 23 14 10
f 10 13 23
f 6 5 23
f 5 14 23
f 2 16 24
f 24 17 2
f 24 4 19
f 19 17 24
f 24 21 3
f 16 21 24
f 2 17 18
f 18 1 2
f 7 8 12
f 8 1 12
f 20 23 13
f 13 12 20
f 1 18 20
f 20 12 1
f 20 19 6
f 20 18 19

