# https://github.com/mikedh/trimesh
v -0.05200000 -0.17150000 0.30500000
v -0.08500000 -0.17150000 0.30500000
v -0.08500000 -0.17150000 0.27200000
v -0.05200000 -0.17150000 0.27200000
v -0.06475000 -0.19650000 0.28200481
v -0.06200481 -0.19650000 0.28475000
v -0.06200481 -0.19650000 0.29225000
v -0.07499519 -0.19650000 0.28475000
v -0.07499519 -0.19650000 0.29225000
v -0.07600000 -0.19650000 0.28850000
v -0.06475000 -0.19650000 0.29499519
v -0.06850000 -0.19650000 0.29600000
v -0.07225000 -0.19650000 0.28200481
v -0.06850000 -0.19650000 0.28100000
v -0.06100000 -0.19650000 0.28850000
v -0.07225000 -0.19650000 0.29499519
v -0.05200000 -0.17350000 0.30500000
v -0.08500000 -0.17350000 0.30500000
v -0.05200000 -0.17350000 0.27200000
v -0.08500000 -0.17350000 0.27200000
f 12 17 18
f 15 19 17
f 12 18 16
f 10 18 20
f 11 17 12
f 5 19 6
f 19 15 6
f 9 18 10
f 9 16 18
f 8 20 13
f 10 20 8
f 14 20 19
f 14 19 5
f 13 20 14
f 7 15 17
f 17 11 7
f 4 3 2
f 2 1 4
f 19 4 1
f 1 17 19
f 18 1 2
f 18 17 1
f 2 3 20
f 20 18 2
f 3 4 20
f 4 19 20
f 10 8 7
f 7 11 12
f 12 16 7
f 7 9 10
f 5 6 7
f 7 14 5
f 7 6 15
f 16 9 7
f 7 8 13
f 13 14 7

