# https://github.com/mikedh/trimesh
v -0.05627714 -0.17350000 0.27301283
v -0.05773360 -0.19350000 0.27355161
v -0.05773360 -0.17350000 0.27355161
v -0.05872554 -0.19350000 0.27474643
v -0.05872554 -0.17350000 0.27474643
v -0.05898717 -0.19350000 0.27627714
v -0.05898717 -0.17350000 0.27627714
v -0.05844839 -0.19350000 0.27773360
v -0.05844839 -0.17350000 0.27773360
v -0.05725357 -0.19350000 0.27872554
v -0.05725357 -0.17350000 0.27872554
v -0.05572286 -0.19350000 0.27898717
v -0.05572286 -0.17350000 0.27898717
v -0.05426640 -0.19350000 0.27844839
v -0.05327446 -0.19350000 0.27725357
v -0.05327446 -0.17350000 0.27725357
v -0.05301283 -0.19350000 0.27572286
v -0.05355161 -0.17350000 0.27426640
v -0.05474643 -0.19350000 0.27327446
v -0.05627714 -0.19350000 0.27301283
v -0.05426640 -0.17350000 0.27844839
v -0.05301283 -0.17350000 0.27572286
v -0.05474643 -0.17350000 0.27327446
v -0.05355161 -0.19350000 0.27426640
f 13 10 12
f 11 10 13
f 20 2 3
f 1 20 3
f 8 9 7
f 8 7 6
f 11 9 8
f 8 10 11
f 22 15 17
f 16 15 22
f 18 22 24
f 24 22 17
f 23 19 20
f 23 20 1
f 23 24 19
f 18 24 23
f 4 14 12
f 4 8 6
f 17 15 4
f 12 10 4
f 20 19 4
f 4 2 20
f 4 24 17
f 10 8 4
f 19 24 4
f 15 14 4
f 21 15 16
f 21 14 15
f 21 13 12
f 12 14 21
f 11 13 5
f 5 9 11
f 16 22 5
f 7 9 5
f 1 3 5
f 5 23 1
f 5 21 16
f 5 22 18
f 18 23 5
f 13 21 5
f 6 7 5
f 5 4 6
f 5 3 2
f 2 4 5

