# https://github.com/mikedh/trimesh
v -0.08800000 -0.11000000 0.16000000
v -0.08500000 -0.10750000 0.16433012
v -0.08800000 -0.10750000 0.16433012
v -0.08800000 -0.10500000 0.01500000
v -0.08500000 -0.10750000 0.01566987
v -0.08800000 -0.10750000 0.01566987
v -0.08500000 -0.10933013 0.01750000
v -0.08800000 -0.10933013 0.01750000
v -0.08500000 -0.11000000 0.02000000
v -0.08800000 -0.11000000 0.02000000
v -0.08800000 0.11000000 0.02000000
v -0.08500000 0.10933013 0.01750000
v -0.08800000 0.10933013 0.01750000
v -0.08500000 0.10750000 0.01566987
v -0.08800000 0.10750000 0.01566987
v -0.08500000 0.10500000 0.01500000
v -0.08800000 0.10500000 0.01500000
v -0.08800000 0.10500000 0.16500001
v -0.08500000 0.10750000 0.16433012
v -0.08800000 0.10750000 0.16433012
v -0.08800000 0.10933013 0.16249999
v -0.08800000 0.11000000 0.16000000
v -0.08800000 -0.10500000 0.16500001
v -0.08500000 -0.10500000 0.16500001
v -0.08500000 0.10500000 0.16500001
v -0.08500000 0.11000000 0.02000000
v -0.08500000 0.10933013 0.16249999
v -0.08500000 0.11000000 0.16000000
v -0.08500000 -0.10500000 0.01500000
v -0.08500000 -0.10933013 0.16249999
v -0.08500000 -0.11000000 0.16000000
v -0.08800000 -0.10933013 0.16249999
f 1 10 31
f 31 10 9
f 9 10 7
f 10 8 7
f 16 17 15
f 16 15 14
f 4 17 16
f 16 29 4
f 1 31 32
f 31 30 32
f 2 24 3
f 3 24 23
f 3 30 2
f 3 32 30
f 20 18 25
f 19 20 25
f 25 18 23
f 23 24 25
f 27 21 20
f 27 20 19
f 22 21 27
f 27 28 22
f 28 26 11
f 22 28 11
f 4 29 5
f 5 6 4
f 5 7 8
f 8 6 5
f 12 5 29
f 19 25 12
f 2 30 12
f 9 7 12
f 12 31 9
f 12 30 31
f 12 24 2
f 12 16 14
f 12 27 19
f 29 16 12
f 12 26 28
f 12 25 24
f 28 27 12
f 7 5 12
f 13 17 4
f 13 10 1
f 13 18 20
f 20 21 13
f 1 32 13
f 13 3 23
f 13 8 10
f 15 17 13
f 4 6 13
f 23 18 13
f 13 21 22
f 13 6 8
f 32 3 13
f 22 11 13
f 14 15 13
f 13 12 14
f 13 11 26
f 26 12 13

