# https://github.com/mikedh/trimesh
v -0.18876257 -0.04187992 0.29573439
v -0.19125521 -0.03881206 0.29267253
v -0.19970923 -0.04069074 0.29767253
v -0.18707913 -0.07451827 0.30631741
v -0.17862510 -0.07263959 0.30131741
v -0.17379162 -0.09439028 0.30131741
v -0.18988045 -0.03983223 0.29461367
v -0.23336320 -0.04805793 0.21800211
v -0.23414897 -0.04899581 0.21632113
v -0.23454762 -0.05059042 0.21504794
v -0.20838315 -0.03601431 0.26476372
v -0.17113231 -0.13054501 0.29222919
v -0.17034654 -0.12960713 0.29391017
v -0.16994789 -0.12801252 0.29518336
v -0.19611236 -0.14258863 0.24546758
v -0.22587041 -0.10596334 0.20891389
v -0.21589710 -0.13623508 0.21440267
v -0.21511236 -0.13804907 0.21504794
v -0.21407587 -0.13932476 0.21632113
v -0.21683718 -0.03789298 0.26976372
v -0.19833447 -0.04171090 0.29961367
v -0.19721660 -0.04375860 0.30073439
v -0.24181723 -0.04993660 0.22300211
v -0.24260300 -0.05087448 0.22132113
v -0.24300165 -0.05246909 0.22004794
v -0.22771252 -0.04030972 0.25046758
v -0.18224564 -0.09626895 0.30631741
v -0.17958634 -0.13242368 0.29722919
v -0.17880057 -0.13148580 0.29891017
v -0.17845931 -0.12791557 0.30082863
v -0.19369105 -0.14205056 0.26976372
v -0.22356639 -0.13992774 0.22004794
v -0.22435113 -0.13811375 0.21940267
v -0.23432444 -0.10784202 0.21391389
v -0.23915792 -0.08609133 0.21391389
v -0.18523702 -0.14017189 0.26476372
v -0.20456639 -0.14446730 0.25046758
v -0.23070389 -0.08421266 0.20891389
v -0.21925849 -0.03843105 0.24546758
v -0.23449023 -0.05256604 0.21440268
v -0.24294425 -0.05444471 0.21940268
v -0.22252989 -0.14120343 0.22132113
v -0.21296683 -0.13984157 0.21800211
v -0.22142086 -0.14172024 0.22300211
v -0.17840192 -0.12989119 0.30018336
v -0.17000528 -0.12603690 0.29582863
f 26 20 39
f 39 20 11
f 2 20 3
f 11 20 2
f 5 22 4
f 1 22 5
f 6 5 27
f 27 5 4
f 40 41 25
f 25 10 40
f 15 36 31
f 37 15 31
f 33 16 17
f 34 16 33
f 38 16 35
f 35 16 34
f 35 40 38
f 41 40 35
f 32 33 18
f 18 33 17
f 44 43 15
f 44 15 37
f 26 39 8
f 8 23 26
f 7 21 22
f 7 22 1
f 7 2 3
f 3 21 7
f 12 13 28
f 28 13 29
f 36 12 28
f 28 31 36
f 9 10 25
f 25 24 9
f 9 24 23
f 23 8 9
f 6 27 46
f 27 30 46
f 3 20 45
f 45 33 32
f 4 22 45
f 45 21 3
f 25 41 45
f 45 27 4
f 45 35 34
f 45 20 26
f 45 44 37
f 41 35 45
f 37 31 45
f 26 23 45
f 22 21 45
f 45 24 25
f 32 42 45
f 34 33 45
f 45 28 29
f 23 24 45
f 45 30 27
f 31 28 45
f 45 42 44
f 45 13 14
f 29 13 45
f 14 46 45
f 45 46 30
f 19 7 1
f 10 9 19
f 11 2 19
f 19 39 11
f 1 5 19
f 19 40 10
f 19 18 17
f 14 13 19
f 17 16 19
f 19 36 15
f 15 43 19
f 19 5 6
f 38 40 19
f 19 12 36
f 19 16 38
f 19 46 14
f 19 8 39
f 2 7 19
f 19 13 12
f 19 9 8
f 6 46 19
f 43 44 19
f 44 42 19
f 32 18 19
f 19 42 32

