# https://github.com/mikedh/trimesh
v -0.15500000 -0.01900000 0.17359415
v -0.07500000 -0.01900000 0.16800000
v -0.15500000 -0.01900000 0.16800000
v -0.13055315 -0.12900000 0.17188465
v -0.13055315 -0.12900000 0.16800000
v -0.08287500 -0.06848445 0.16855067
v -0.08112500 -0.06848445 0.16842830
v -0.08112500 -0.09151555 0.16842830
v -0.08287500 -0.09151555 0.16855067
v -0.07500000 -0.12900000 0.16800000
f 1 2 3
f 6 2 1
f 1 4 9
f 9 6 1
f 4 5 10
f 10 9 4
f 2 6 7
f 9 10 8
f 1 3 5
f 5 4 1
f 10 5 3
f 10 3 2
f 8 10 2
f 2 7 8
f 6 9 8
f 8 7 6

