# https://github.com/mikedh/trimesh
v 0.05372561 0.07632018 0.19300000
v 0.04604892 0.07818521 0.19300000
v 0.03956082 0.01801616 0.19300000
v 0.03188413 0.01988119 0.19300000
v 0.05372561 0.07632018 0.17100000
v 0.03956082 0.01801616 0.17100000
v -0.02933851 0.02775099 0.17300000
v -0.01003339 0.01720132 0.17300000
v -0.05325345 0.04262329 0.19300000
v -0.04003298 0.09704038 0.19300000
v -0.03843142 0.04722930 0.15100000
v -0.02764724 0.02952358 0.15100000
v -0.00945500 0.01958207 0.15100000
v 0.03891793 0.04904500 0.15100000
v 0.02764724 0.08747642 0.15100000
v 0.00945500 0.09741793 0.15100000
v -0.02897642 0.08614724 0.15100000
v -0.03891793 0.06795500 0.15100000
v -0.01003339 0.01720132 0.16100000
v -0.02933851 0.02775099 0.16100000
v -0.01196017 0.09928240 0.16100000
v 0.01003339 0.09979868 0.16100000
v 0.02933851 0.08924901 0.16100000
v 0.02897642 0.03085276 0.15100000
v 0.01127070 0.02006858 0.15100000
v -0.01127070 0.09693142 0.15100000
v 0.03843142 0.06977070 0.15100000
v -0.04003298 0.09704038 0.17100000
v -0.05325345 0.04262329 0.17100000
v -0.01196017 0.09928240 0.17800000
v 0.01196017 0.01771760 0.16100000
v 0.01003339 0.09979868 0.17800000
f 9 8 4
f 8 3 4
f 14 5 6
f 1 32 2
f 2 32 10
f 11 12 29
f 12 20 29
f 10 32 30
f 22 5 23
f 23 15 22
f 5 15 23
f 27 5 14
f 27 15 5
f 7 8 9
f 18 29 28
f 11 29 18
f 12 13 19
f 19 20 12
f 25 19 13
f 22 26 21
f 21 26 28
f 22 15 16
f 16 26 22
f 28 26 17
f 17 18 28
f 14 6 24
f 6 25 24
f 6 19 31
f 31 25 6
f 19 25 31
f 1 3 6
f 6 5 1
f 1 5 32
f 32 5 22
f 2 3 1
f 2 10 9
f 9 4 2
f 2 4 3
f 9 10 29
f 10 28 29
f 9 29 7
f 7 29 20
f 19 6 3
f 19 3 8
f 19 7 20
f 8 7 19
f 21 32 22
f 21 30 32
f 21 28 10
f 10 30 21
f 24 12 11
f 11 18 24
f 24 27 14
f 24 13 12
f 15 27 24
f 24 17 26
f 24 16 15
f 24 25 13
f 26 16 24
f 18 17 24

