# https://github.com/mikedh/trimesh
v 0.08650013 -0.09619998 0.26250528
v 0.11011526 -0.08375217 0.26088000
v 0.11011526 -0.09455225 0.26088000
v 0.11011526 -0.09455225 0.25920000
v 0.10976526 -0.09455225 0.25920000
v 0.08871715 -0.07310223 0.26320528
v 0.08716512 -0.09487742 0.26455528
v 0.09045013 -0.12834987 0.26355528
v 0.08650013 -0.09619998 0.26455528
v 0.08871715 -0.07310223 0.26260528
v 0.08651958 -0.07310223 0.26260528
v 0.08716715 -0.07310223 0.26455528
v 0.08651958 -0.07310223 0.26455528
v 0.08715013 -0.13019987 0.26455528
v 0.08649965 -0.13019987 0.26455528
v 0.08715013 -0.13019987 0.26320528
v 0.08649965 -0.13019987 0.26260528
v 0.08870013 -0.13019987 0.26320528
v 0.08870013 -0.13019987 0.26260528
v 0.09135013 -0.12834987 0.26280528
v 0.09135013 -0.12834987 0.26260528
v 0.11011526 -0.08375217 0.25920000
v 0.10976526 -0.08375217 0.25920000
v 0.08716715 -0.08075223 0.26455528
v 0.08650013 -0.10134997 0.26250528
f 23 1 11
f 12 2 6
f 3 14 8
f 21 19 4
f 17 1 25
f 7 14 3
f 17 19 16
f 17 25 5
f 5 19 17
f 5 4 19
f 24 7 3
f 14 18 20
f 20 8 14
f 3 8 20
f 9 17 15
f 9 1 17
f 13 11 9
f 11 1 9
f 22 2 3
f 3 4 22
f 16 14 15
f 15 17 16
f 14 16 18
f 18 16 19
f 5 22 4
f 23 22 5
f 1 23 5
f 5 25 1
f 13 12 10
f 10 12 6
f 10 11 13
f 2 22 10
f 6 2 10
f 10 22 23
f 10 23 11
f 24 12 13
f 15 14 24
f 24 9 15
f 13 9 24
f 14 7 24
f 3 2 24
f 2 12 24
f 20 18 19
f 20 19 21
f 20 4 3
f 21 4 20

