# https://github.com/mikedh/trimesh
v -0.04934284 0.05042011 0.15100000
v -0.04677209 0.07617403 0.16100000
v -0.04677209 0.07617403 0.15100000
v -0.03166880 0.09719221 0.16100000
v -0.03166880 0.09719221 0.15100000
v -0.00807989 0.10784284 0.16100000
v -0.00807989 0.10784284 0.15100000
v 0.01767403 0.10527209 0.15100000
v 0.03869221 0.09016880 0.16100000
v 0.03869221 0.09016880 0.15100000
v 0.04934284 0.06657989 0.16100000
v 0.04934284 0.06657989 0.15100000
v 0.04677209 0.04082597 0.16100000
v 0.04677209 0.04082597 0.15100000
v 0.03166880 0.01980779 0.16100000
v 0.03166880 0.01980779 0.15100000
v 0.00807989 0.00915716 0.16100000
v 0.00807989 0.00915716 0.15100000
v -0.01767403 0.01172791 0.15100000
v -0.03869221 0.02683120 0.16100000
v -0.03869221 0.02683120 0.15100000
v -0.04934284 0.05042011 0.16100000
v 0.01767403 0.10527209 0.16100000
v -0.01767403 0.01172791 0.16100000
f 3 22 2
f 1 22 3
f 17 24 19
f 19 18 17
f 18 16 15
f 17 18 15
f 15 16 14
f 14 13 15
f 11 13 12
f 12 13 14
f 9 12 10
f 11 12 9
f 20 22 21
f 21 22 1
f 21 24 20
f 21 19 24
f 5 4 6
f 5 6 7
f 5 3 2
f 2 4 5
f 14 16 8
f 8 12 14
f 1 3 8
f 8 16 18
f 8 21 1
f 8 5 7
f 18 19 8
f 10 12 8
f 19 21 8
f 3 5 8
f 23 24 17
f 2 22 23
f 23 13 11
f 23 4 2
f 23 22 20
f 20 24 23
f 17 15 23
f 23 15 13
f 6 4 23
f 11 9 23
f 7 6 23
f 23 8 7
f 23 9 10
f 10 8 23

