# https://github.com/mikedh/trimesh
v -0.03109551 -0.03228672 0.04362500
v -0.03173603 -0.03229254 0.04601554
v -0.03261099 -0.03230051 0.04625000
v -0.03348596 -0.03230847 0.04601554
v -0.03412647 -0.03231429 0.04537500
v -0.03436092 -0.03231643 0.04450000
v -0.03412647 -0.03231429 0.04362500
v -0.03261099 -0.03230051 0.04275000
v -0.03223581 -0.03229709 0.04428716
v -0.03085697 -0.03273457 0.04450000
v -0.03348186 -0.03275845 0.04298446
v -0.03412238 -0.03276427 0.04362500
v -0.03435683 -0.03276641 0.04450000
v -0.03412238 -0.03276427 0.04537500
v -0.03348186 -0.03275845 0.04601554
v -0.03348596 -0.03230847 0.04298446
v -0.03260690 -0.03275049 0.04275000
v -0.03173603 -0.03229254 0.04298446
v -0.03173193 -0.03274253 0.04298446
v -0.03109142 -0.03273670 0.04362500
v -0.03086106 -0.03228458 0.04450000
v -0.03109551 -0.03228672 0.04537500
v -0.03109142 -0.03273670 0.04537500
v -0.03173193 -0.03274253 0.04601554
v -0.03260690 -0.03275049 0.04625000
v -0.03227101 -0.03229741 0.04473019
v -0.03355636 -0.03830935 0.04450000
v -0.03205643 -0.03829571 0.04363398
v -0.03155645 -0.03829116 0.04450000
v -0.03205643 -0.03829571 0.04536603
v -0.03255641 -0.03830026 0.04550000
v -0.03305638 -0.03830481 0.04536603
v -0.03342239 -0.03830814 0.04500000
v -0.03342239 -0.03830814 0.04400000
v -0.03169042 -0.03829238 0.04500000
v -0.03169042 -0.03829238 0.04400000
v -0.03305638 -0.03830481 0.04363398
v -0.03255641 -0.03830026 0.04350000
f 7 12 6
f 13 14 6
f 6 12 13
f 6 14 5
f 5 7 6
f 10 21 22
f 7 5 9
f 28 29 30
f 33 13 27
f 14 13 33
f 12 7 16
f 16 11 12
f 16 7 8
f 2 5 3
f 2 22 5
f 35 29 10
f 30 29 35
f 35 24 30
f 5 22 26
f 26 9 5
f 26 22 21
f 21 9 26
f 1 21 10
f 7 9 1
f 1 9 21
f 12 11 37
f 17 37 11
f 30 24 25
f 25 31 30
f 3 5 4
f 4 5 14
f 14 15 4
f 30 31 32
f 32 25 15
f 31 25 32
f 14 33 32
f 32 15 14
f 32 33 27
f 27 37 32
f 24 35 23
f 10 22 23
f 23 35 10
f 8 7 18
f 7 1 18
f 20 1 10
f 34 37 27
f 12 37 34
f 27 13 34
f 34 13 12
f 28 37 38
f 37 17 38
f 38 17 19
f 19 28 38
f 19 20 36
f 36 28 19
f 29 28 36
f 10 29 36
f 36 20 10
f 11 16 17
f 17 16 8
f 24 2 25
f 25 2 3
f 4 25 3
f 15 25 4
f 32 37 28
f 32 28 30
f 23 2 24
f 22 2 23
f 18 17 8
f 19 17 18
f 19 18 20
f 20 18 1

