# https://github.com/mikedh/trimesh
v 0.12749954 -0.07648072 0.26100000
v 0.12749954 -0.07300010 0.26100000
v 0.12699967 -0.07213415 0.26100000
v 0.12742251 -0.07261525 0.26100000
v 0.12720331 -0.07228968 0.26100000
v 0.09856488 -0.09470211 0.26260528
v 0.09856488 -0.08420200 0.26260528
v 0.09839741 -0.08357705 0.26260528
v 0.09793990 -0.08311956 0.26260528
v 0.09731494 -0.08295210 0.26260528
v 0.09668998 -0.08311956 0.26260528
v 0.09623248 -0.08357705 0.26260528
v 0.09606501 -0.08420200 0.26260528
v 0.11563635 -0.07200010 0.26100000
v 0.08863499 -0.07349982 0.26100000
v 0.08850101 -0.07399982 0.26100000
v 0.08950101 -0.07299982 0.26100000
v 0.08900101 -0.07313379 0.26100000
v 0.09735446 -0.11952252 0.26100000
v 0.09797946 -0.11968999 0.26100000
v 0.12699979 -0.10646459 0.26100000
v 0.12693281 -0.10671459 0.26100000
v 0.11736958 -0.11968999 0.26100000
v 0.11799458 -0.11952252 0.26100000
v 0.08699996 -0.08855417 0.26100000
v 0.08699996 -0.11499531 0.26100000
v 0.08713394 -0.11549531 0.26100000
v 0.08749996 -0.11586134 0.26100000
v 0.12499967 -0.11286617 0.26100000
v 0.12536570 -0.11250014 0.26100000
v 0.12687569 -0.07207354 0.26100000
v 0.12698313 -0.07212481 0.26100000
v 0.12649954 -0.07200010 0.26100000
v 0.09606501 -0.09470211 0.26260528
v 0.09619028 -0.09524744 0.26260528
v 0.09654093 -0.09568348 0.26260528
v 0.09704668 -0.09592284 0.26260528
v 0.09760619 -0.09591756 0.26260528
v 0.09810734 -0.09566870 0.26260528
v 0.09844969 -0.09522612 0.26260528
f 35 26 27
f 10 33 14
f 25 13 16
f 26 35 34
f 30 39 29
f 29 39 24
f 37 23 38
f 38 23 24
f 24 39 38
f 30 22 40
f 40 39 30
f 40 22 21
f 10 14 17
f 2 4 7
f 7 4 8
f 18 12 11
f 11 17 18
f 10 17 11
f 13 12 15
f 15 16 13
f 15 12 18
f 19 20 37
f 37 28 19
f 36 28 37
f 27 28 36
f 36 35 27
f 6 40 21
f 6 21 1
f 5 8 4
f 9 5 3
f 8 5 9
f 10 9 31
f 31 33 10
f 32 9 3
f 32 31 9
f 37 20 23
f 25 26 34
f 34 13 25
f 1 2 6
f 6 2 7
f 9 6 7
f 40 6 9
f 13 34 9
f 9 36 37
f 37 38 9
f 10 11 9
f 9 34 35
f 9 12 13
f 9 38 39
f 39 40 9
f 7 8 9
f 9 11 12
f 35 36 9
f 32 26 25
f 32 23 20
f 27 26 32
f 32 22 30
f 1 21 32
f 30 29 32
f 32 28 27
f 18 17 32
f 24 23 32
f 21 22 32
f 32 2 1
f 32 14 33
f 20 19 32
f 25 16 32
f 32 15 18
f 32 29 24
f 32 17 14
f 4 2 32
f 16 15 32
f 32 19 28
f 32 5 4
f 3 5 32
f 33 31 32

