# https://github.com/mikedh/trimesh
v -0.14426902 -0.12353942 0.25908589
v -0.14401058 -0.12655517 0.26058589
v -0.14573330 -0.12386482 0.26168397
v -0.14508251 -0.12679338 0.26168397
v -0.14719758 -0.12419021 0.26208589
v -0.14654679 -0.12711877 0.26208589
v -0.14866186 -0.12451561 0.26168397
v -0.14973379 -0.12475381 0.26058589
v -0.14908299 -0.12768238 0.26058589
v -0.18078029 -0.13165304 0.19950001
v -0.18120143 -0.13481981 0.20059809
v -0.18185222 -0.13189124 0.20059809
v -0.18159378 -0.13490700 0.20209809
v -0.18224457 -0.13197843 0.20209809
v -0.18120143 -0.13481981 0.20359809
v -0.15352569 -0.12866964 0.18376561
v -0.18012950 -0.13458160 0.19950001
v -0.14361822 -0.12646798 0.25908589
v -0.14801107 -0.12744417 0.26168397
v -0.14801107 -0.12744417 0.18050408
v -0.14361822 -0.12646798 0.18310215
v -0.14654678 -0.12711877 0.18010215
v -0.14508250 -0.12679338 0.18050408
v -0.14401058 -0.12655517 0.18160215
v -0.14466137 -0.12362661 0.26058589
v -0.15417648 -0.12574108 0.18376561
v -0.18185222 -0.13189124 0.20359809
v -0.14866186 -0.12451561 0.18050408
v -0.14573330 -0.12386482 0.18050408
v -0.14719758 -0.12419021 0.18010215
v -0.14466137 -0.12362661 0.18160215
v -0.14426901 -0.12353942 0.18310215
f 14 10 12
f 32 1 18
f 21 32 18
f 13 15 27
f 14 13 27
f 27 15 9
f 9 8 27
f 19 8 9
f 19 7 8
f 5 7 19
f 19 6 5
f 5 6 3
f 6 4 3
f 2 18 1
f 1 25 2
f 25 3 2
f 2 3 4
f 11 13 14
f 14 12 11
f 11 12 10
f 10 17 11
f 16 26 28
f 28 20 16
f 10 26 16
f 16 17 10
f 31 27 8
f 31 7 5
f 8 7 31
f 31 1 32
f 14 27 31
f 28 26 31
f 31 10 14
f 31 25 1
f 31 30 28
f 5 3 31
f 31 26 10
f 31 3 25
f 29 30 31
f 31 32 21
f 21 24 31
f 31 24 23
f 23 29 31
f 22 19 9
f 22 15 13
f 22 24 21
f 9 15 22
f 22 16 20
f 18 2 22
f 21 18 22
f 6 19 22
f 22 4 6
f 13 11 22
f 22 2 4
f 23 24 22
f 22 11 17
f 17 16 22
f 28 30 22
f 22 20 28
f 22 30 29
f 22 29 23

