# https://github.com/mikedh/trimesh
v 0.00900000 0.07350000 0.11573205
v 0.00900000 0.07350000 0.12200000
v 0.01200000 0.07350000 0.11573205
v 0.01200000 0.07350000 0.12200000
v 0.00900000 0.07150000 0.12400000
v 0.01200000 0.07150000 0.12400000
v 0.00900000 0.07250000 0.07600000
v 0.01200000 0.07250000 0.12373205
v 0.00900000 0.07250000 0.12373205
v 0.01200000 0.07323205 0.12300000
v 0.00900000 0.07323205 0.12300000
v 0.00900000 0.05550000 0.04655514
v 0.01200000 0.05550000 0.04655514
v 0.01200000 0.06794487 0.05900000
v 0.01200000 0.04550000 0.12400000
v 0.00900000 0.04550000 0.12400000
v 0.01200000 0.04376795 0.12300000
v 0.00900000 0.04376795 0.12300000
v 0.01200000 0.04450000 0.12373205
v 0.00900000 0.04450000 0.12373205
v 0.01200000 0.02950000 0.03826795
v 0.01200000 0.02850000 0.03800000
v 0.00900000 0.02850000 0.03800000
v 0.01200000 0.02050000 0.04000000
v 0.00900000 0.02250000 0.03800000
v 0.01200000 0.02150000 0.03826795
v 0.00900000 0.02150000 0.03826795
v 0.01200000 0.02076795 0.03900000
v 0.00900000 0.02076795 0.03900000
v 0.01200000 0.02250000 0.03800000
v 0.00900000 0.02950000 0.03826795
v 0.00900000 0.02076795 0.07300000
v 0.00900000 0.02050000 0.07200000
v 0.00900000 0.02050000 0.04000000
v 0.00900000 0.02225000 0.03806699
v 0.00900000 0.06794487 0.05900000
v 0.01200000 0.02225000 0.03806699
v 0.01200000 0.07250000 0.07600000
v 0.01200000 0.02050000 0.07200000
v 0.01200000 0.02076795 0.07300000
f 14 13 36
f 36 13 12
f 38 7 1
f 38 1 3
f 38 36 7
f 14 36 38
f 34 24 39
f 34 39 33
f 20 18 17
f 19 20 17
f 30 25 23
f 30 23 22
f 12 13 31
f 13 21 31
f 31 21 22
f 22 23 31
f 3 1 4
f 1 2 4
f 33 39 40
f 40 32 33
f 40 17 18
f 18 32 40
f 25 30 35
f 30 37 35
f 24 34 28
f 34 29 28
f 20 16 11
f 1 7 11
f 12 31 11
f 11 34 33
f 11 36 12
f 27 29 11
f 7 36 11
f 11 2 1
f 11 18 20
f 23 25 11
f 11 5 9
f 11 31 23
f 11 35 27
f 33 32 11
f 11 29 34
f 11 32 18
f 11 16 5
f 25 35 11
f 9 5 6
f 6 8 9
f 27 35 26
f 26 35 37
f 26 29 27
f 26 28 29
f 10 11 9
f 9 8 10
f 10 4 2
f 2 11 10
f 19 17 15
f 22 21 15
f 15 38 3
f 15 40 39
f 15 13 14
f 14 38 15
f 39 24 15
f 15 21 13
f 24 28 15
f 3 4 15
f 15 30 22
f 15 37 30
f 15 26 37
f 17 40 15
f 15 10 8
f 8 6 15
f 28 26 15
f 4 10 15
f 15 20 19
f 15 16 20
f 5 16 15
f 15 6 5

