# https://github.com/mikedh/trimesh
v -0.02030223 -0.04419902 0.04355000
v -0.02630935 -0.04344364 0.04450000
v -0.02630813 -0.04357760 0.04400000
v -0.02630481 -0.04394362 0.04363398
v -0.02630026 -0.04444359 0.04350000
v -0.02629238 -0.04530958 0.04500000
v -0.02629571 -0.04494357 0.04536603
v -0.02630026 -0.04444359 0.04550000
v -0.02630481 -0.04394362 0.04536603
v -0.02630813 -0.04357760 0.04500000
v -0.02629571 -0.04494357 0.04363398
v -0.02629238 -0.04530958 0.04400000
v -0.02629116 -0.04544355 0.04450000
v -0.02073456 -0.04614303 0.04450000
v -0.02073670 -0.04590858 0.04362500
v -0.02074253 -0.04526807 0.04298446
v -0.02075049 -0.04439310 0.04275000
v -0.02076427 -0.04287762 0.04362500
v -0.02076641 -0.04264317 0.04450000
v -0.02076427 -0.04287762 0.04537500
v -0.02075049 -0.04439310 0.04625000
v -0.02073670 -0.04590858 0.04537500
v -0.02031429 -0.04287353 0.04362500
v -0.02075845 -0.04351814 0.04298446
v -0.02030050 -0.04438901 0.04275000
v -0.02029254 -0.04526397 0.04298446
v -0.02028458 -0.04613894 0.04450000
v -0.02028672 -0.04590449 0.04537500
v -0.02029254 -0.04526397 0.04601554
v -0.02074253 -0.04526807 0.04601554
v -0.02030050 -0.04438901 0.04625000
v -0.02075845 -0.04351814 0.04601554
v -0.02031643 -0.04263908 0.04450000
v -0.02028672 -0.04590449 0.04362500
v -0.02030223 -0.04419902 0.04545000
v -0.02031429 -0.04287353 0.04537500
v -0.02030847 -0.04351404 0.04601554
v -0.02030847 -0.04351404 0.04298446
f 4 9 2
f 19 20 33
f 33 18 19
f 23 18 33
f 17 4 24
f 24 4 18
f 2 9 10
f 10 19 2
f 20 19 10
f 27 22 14
f 14 22 6
f 28 22 27
f 3 4 2
f 18 4 3
f 2 19 3
f 3 19 18
f 32 9 21
f 32 37 20
f 20 10 32
f 32 10 9
f 38 23 25
f 18 23 38
f 38 24 18
f 9 7 8
f 21 9 8
f 8 7 21
f 29 28 31
f 22 28 29
f 30 7 6
f 6 22 30
f 22 29 30
f 21 7 30
f 15 14 12
f 12 11 15
f 27 14 15
f 34 26 25
f 34 28 27
f 27 15 34
f 34 15 26
f 36 23 33
f 36 37 31
f 33 20 36
f 20 37 36
f 5 11 4
f 5 4 17
f 17 11 5
f 16 11 17
f 26 15 16
f 16 15 11
f 7 11 13
f 6 7 13
f 13 11 12
f 13 14 6
f 12 14 13
f 25 23 1
f 1 34 25
f 31 28 35
f 35 36 31
f 11 7 9
f 9 4 11
f 31 37 32
f 21 31 32
f 17 24 38
f 38 25 17
f 30 31 21
f 30 29 31
f 17 25 16
f 25 26 16
f 28 34 35
f 23 36 35
f 35 1 23
f 34 1 35

