# https://github.com/mikedh/trimesh
v -0.02393787 -0.05290773 0.04190000
v -0.02088111 -0.04750025 0.03875000
v -0.02088111 -0.04750025 0.04190000
v -0.02093762 -0.04128885 0.03875000
v -0.02093762 -0.04128885 0.04190000
v -0.02409227 -0.03593787 0.03875000
v -0.02409227 -0.03593787 0.04190000
v -0.02949975 -0.03288111 0.03875000
v -0.02949975 -0.03288111 0.04190000
v -0.03571115 -0.03293763 0.03875000
v -0.03571115 -0.03293763 0.04190000
v -0.04106213 -0.03609227 0.03875000
v -0.04106213 -0.03609227 0.04190000
v -0.04411889 -0.04149975 0.03875000
v -0.04411889 -0.04149975 0.04190000
v -0.04406237 -0.04771115 0.03875000
v -0.04406237 -0.04771115 0.04190000
v -0.04090773 -0.05306213 0.03875000
v -0.04090773 -0.05306213 0.04190000
v -0.03550025 -0.05611889 0.03875000
v -0.03550025 -0.05611889 0.04190000
v -0.02928885 -0.05606237 0.03875000
v -0.02928885 -0.05606237 0.04190000
v -0.02393787 -0.05290773 0.03875000
f 2 4 3
f 3 4 5
f 10 9 8
f 11 9 10
f 14 16 15
f 15 16 17
f 2 3 24
f 24 3 1
f 20 22 23
f 21 20 23
f 22 24 23
f 23 24 1
f 5 4 7
f 4 6 7
f 8 9 7
f 7 6 8
f 13 3 5
f 13 23 1
f 21 23 13
f 1 3 13
f 5 7 13
f 13 9 11
f 13 7 9
f 13 19 21
f 13 15 17
f 17 19 13
f 13 10 12
f 11 10 13
f 13 12 14
f 14 15 13
f 8 6 18
f 18 4 2
f 18 10 8
f 14 12 18
f 18 16 14
f 18 22 20
f 12 10 18
f 18 6 4
f 2 24 18
f 18 24 22
f 18 20 21
f 21 19 18
f 17 16 18
f 18 19 17

