# https://github.com/mikedh/trimesh
v -0.16487741 -0.03080165 0.25908589
v -0.16461897 -0.03381740 0.26058589
v -0.16569090 -0.03405561 0.26168397
v -0.16780597 -0.03145244 0.26208589
v -0.16927025 -0.03177784 0.26168397
v -0.17034218 -0.03201604 0.26058589
v -0.16969139 -0.03494461 0.26058589
v -0.20138868 -0.03891527 0.19950001
v -0.20180982 -0.04208204 0.20059809
v -0.20246061 -0.03915347 0.20059809
v -0.20220218 -0.04216923 0.20209809
v -0.20285297 -0.03924066 0.20209809
v -0.20180982 -0.04208204 0.20359809
v -0.17413409 -0.03593187 0.18376561
v -0.20073789 -0.04184383 0.19950001
v -0.16422662 -0.03373021 0.25908589
v -0.16861946 -0.03470640 0.26168397
v -0.16715518 -0.03438100 0.26208589
v -0.16861946 -0.03470640 0.18050408
v -0.16422662 -0.03373021 0.18310215
v -0.16715518 -0.03438100 0.18010215
v -0.16569090 -0.03405561 0.18050408
v -0.16634169 -0.03112705 0.26168397
v -0.16526977 -0.03088884 0.26058589
v -0.17478488 -0.03300331 0.18376561
v -0.20246061 -0.03915347 0.20359809
v -0.16927025 -0.03177784 0.18050408
v -0.16780597 -0.03145244 0.18010215
v -0.16526976 -0.03088884 0.18160215
v -0.16487741 -0.03080165 0.18310215
v -0.16634169 -0.03112705 0.18050408
v -0.16461897 -0.03381740 0.18160215
f 30 1 16
f 20 30 16
f 11 13 26
f 12 11 26
f 26 13 7
f 7 6 26
f 24 16 1
f 24 2 16
f 17 5 6
f 17 6 7
f 4 5 17
f 17 18 4
f 27 25 28
f 12 26 28
f 28 1 30
f 28 10 12
f 28 5 4
f 6 5 28
f 28 26 6
f 4 23 28
f 28 24 1
f 30 29 28
f 28 25 8
f 8 10 28
f 28 23 24
f 28 29 31
f 9 11 12
f 12 10 9
f 9 10 8
f 8 15 9
f 14 25 27
f 27 19 14
f 8 25 14
f 14 15 8
f 2 24 3
f 24 23 3
f 4 18 3
f 3 23 4
f 32 30 20
f 32 29 30
f 31 29 32
f 22 31 32
f 21 13 11
f 20 16 21
f 7 13 21
f 2 3 21
f 21 17 7
f 16 2 21
f 21 32 20
f 21 14 19
f 11 9 21
f 18 17 21
f 21 9 15
f 15 14 21
f 21 3 18
f 22 32 21
f 27 28 21
f 21 19 27
f 21 28 31
f 21 31 22

