# https://github.com/mikedh/trimesh
v -0.18005510 -0.12631449 0.20073205
v -0.18103129 -0.12653142 0.19899999
v -0.17992265 -0.12884604 0.19866506
v -0.17894646 -0.12862911 0.20039711
v -0.17700226 -0.13007183 0.19948205
v -0.19784340 -0.04626715 0.20073205
v -0.19881959 -0.04648408 0.19900000
v -0.19567723 -0.04066381 0.19650000
v -0.19470104 -0.04044688 0.19823205
v -0.17031514 -0.03502779 0.18150000
v -0.16933895 -0.03481086 0.18323205
v -0.16500347 -0.03896939 0.17900000
v -0.16402729 -0.03875246 0.18073205
v -0.14721517 -0.11901673 0.17899999
v -0.14623899 -0.11879979 0.18073205
v -0.17797844 -0.13028876 0.19775000
v -0.17571962 -0.13047302 0.19649999
v -0.16611211 -0.03665476 0.17933493
v -0.16805632 -0.03521204 0.18025000
v -0.19879560 -0.04391776 0.19866506
v -0.19764542 -0.04178740 0.19775000
v -0.15035754 -0.12483700 0.18149999
v -0.14838935 -0.12371341 0.18024999
v -0.14723916 -0.12158304 0.17933493
v -0.14626297 -0.12136611 0.18106698
v -0.14741316 -0.12349648 0.18198205
v -0.14938135 -0.12462007 0.18323205
v -0.17474343 -0.13025609 0.19823205
v -0.19666923 -0.04157047 0.19948205
v -0.19781941 -0.04370083 0.20039711
v -0.16513593 -0.03643783 0.18106698
v -0.16708013 -0.03499511 0.18198205
f 11 31 32
f 7 2 1
f 1 6 7
f 1 2 3
f 3 4 1
f 14 13 15
f 12 13 14
f 11 10 8
f 8 9 11
f 24 14 25
f 25 14 15
f 7 6 20
f 6 30 20
f 31 13 12
f 12 18 31
f 17 22 28
f 28 22 27
f 21 29 9
f 9 8 21
f 30 29 21
f 21 20 30
f 23 18 12
f 23 2 7
f 3 2 23
f 10 19 23
f 12 14 23
f 23 14 24
f 23 8 10
f 23 21 8
f 7 20 23
f 23 16 3
f 23 22 17
f 17 16 23
f 20 21 23
f 23 19 18
f 24 25 23
f 25 26 23
f 23 26 27
f 27 22 23
f 6 1 5
f 5 1 4
f 27 26 5
f 9 29 5
f 11 9 5
f 5 30 6
f 5 25 15
f 15 13 5
f 5 29 30
f 5 31 11
f 13 31 5
f 5 26 25
f 5 28 27
f 5 4 3
f 3 16 5
f 5 16 17
f 17 28 5
f 32 10 11
f 32 19 10
f 32 31 18
f 18 19 32

