# https://github.com/mikedh/trimesh
v 0.07950000 -0.03000000 0.16450000
v 0.07950000 -0.03000000 0.15950000
v 0.08450000 -0.03000000 0.15950000
v 0.08500000 -0.02950000 0.15950000
v 0.08500000 -0.02950000 0.16450000
v 0.07900000 -0.02950000 0.15950000
v 0.07950000 -0.02950000 0.15900000
v 0.08450000 -0.02950000 0.15900000
v 0.07950000 0.01000000 0.15950000
v 0.07950000 0.01000000 0.16450000
v 0.08450000 0.01000000 0.15950000
v 0.08500000 0.00950000 0.16450000
v 0.08450000 0.00950000 0.16500000
v 0.08450000 -0.02950000 0.16500000
v 0.08450000 0.01000000 0.16450000
v 0.07950000 0.00950000 0.16500000
v 0.08500000 0.00950000 0.15950000
v 0.07900000 0.00950000 0.16450000
v 0.07900000 -0.02950000 0.16450000
v 0.07900000 0.00950000 0.15950000
v 0.07950000 0.00950000 0.15900000
v 0.08450000 -0.03000000 0.16450000
v 0.07950000 -0.02950000 0.16500000
v 0.08450000 0.00950000 0.15900000
f 6 7 2
f 16 10 18
f 23 19 1
f 3 8 4
f 12 15 13
f 22 5 14
f 21 20 9
f 24 11 17
f 10 20 18
f 9 20 10
f 16 23 14
f 16 14 13
f 15 16 13
f 10 16 15
f 18 20 19
f 19 20 6
f 23 16 19
f 19 16 18
f 1 19 6
f 6 2 1
f 7 8 3
f 3 2 7
f 12 5 4
f 4 17 12
f 13 14 12
f 14 5 12
f 9 10 11
f 10 15 11
f 11 12 17
f 15 12 11
f 14 23 22
f 23 1 22
f 22 1 2
f 2 3 22
f 4 5 22
f 22 3 4
f 6 20 21
f 21 7 6
f 9 11 24
f 24 21 9
f 24 8 7
f 7 21 24
f 24 17 4
f 4 8 24

