# https://github.com/mikedh/trimesh
v -0.09350000 0.02500000 0.10750000
v -0.09400000 0.02450000 0.10750000
v -0.09400000 -0.01450000 0.11250000
v -0.09350000 -0.01500000 0.11250000
v -0.09350000 -0.01450000 0.11300000
v -0.08850000 -0.01450000 0.11300000
v -0.08800000 -0.01450000 0.11250000
v -0.08850000 0.02450000 0.11300000
v -0.08850000 0.02450000 0.10700000
v -0.09350000 0.02450000 0.10700000
v -0.08850000 -0.01500000 0.10750000
v -0.08850000 0.02500000 0.10750000
v -0.08800000 0.02450000 0.10750000
v -0.08850000 -0.01500000 0.11250000
v -0.09350000 -0.01450000 0.10700000
v -0.09350000 0.02500000 0.11250000
v -0.08850000 0.02500000 0.11250000
v -0.08800000 0.02450000 0.11250000
v -0.09350000 -0.01500000 0.10750000
v -0.08850000 -0.01450000 0.10700000
v -0.08800000 -0.01450000 0.10750000
v -0.09400000 -0.01450000 0.10750000
v -0.09350000 0.02450000 0.11300000
v -0.09400000 0.02450000 0.11250000
f 4 5 3
f 7 6 14
f 19 22 15
f 11 20 21
f 1 10 2
f 8 18 17
f 16 24 23
f 12 13 9
f 10 22 2
f 15 22 10
f 8 23 6
f 6 23 5
f 8 6 18
f 18 6 7
f 14 6 5
f 14 5 4
f 19 14 4
f 11 14 19
f 19 3 22
f 4 3 19
f 11 19 20
f 20 19 15
f 20 10 9
f 15 10 20
f 5 23 24
f 24 3 5
f 2 22 24
f 22 3 24
f 21 18 7
f 13 18 21
f 9 13 21
f 21 20 9
f 21 14 11
f 7 14 21
f 2 24 16
f 16 1 2
f 16 23 8
f 8 17 16
f 12 16 17
f 1 16 12
f 9 10 12
f 10 1 12
f 12 18 13
f 12 17 18

