# https://github.com/mikedh/trimesh
v -0.04500000 -0.13800000 0.28800000
v -0.04500000 -0.13800000 0.28600000
v -0.04750000 -0.13866987 0.28600000
v -0.04933013 -0.14050000 0.28600000
v -0.05000000 -0.14300000 0.28600000
v 0.04500000 -0.19350000 0.28800000
v 0.04500000 -0.19350000 0.28600000
v 0.04750000 -0.19283013 0.28600000
v 0.04933013 -0.19100000 0.28600000
v 0.05000000 -0.18850000 0.28600000
v -0.05000000 -0.18850000 0.28600000
v -0.04933013 -0.19100000 0.28800000
v -0.04750000 -0.19283013 0.28600000
v -0.04750000 -0.19283013 0.28800000
v -0.04500000 -0.19350000 0.28600000
v -0.04500000 -0.19350000 0.28800000
v 0.05000000 -0.14300000 0.28800000
v 0.05000000 -0.14300000 0.28600000
v -0.05000000 -0.18850000 0.28800000
v 0.04500000 -0.13800000 0.28600000
v 0.04750000 -0.13866987 0.28600000
v 0.04933013 -0.14050000 0.28600000
v -0.04933013 -0.19100000 0.28600000
v 0.04500000 -0.13800000 0.28800000
v 0.04750000 -0.19283013 0.28800000
v 0.04933013 -0.19100000 0.28800000
v 0.05000000 -0.18850000 0.28800000
v -0.04750000 -0.13866987 0.28800000
v -0.04933013 -0.14050000 0.28800000
v -0.05000000 -0.14300000 0.28800000
v 0.04750000 -0.13866987 0.28800000
v 0.04933013 -0.14050000 0.28800000
f 10 18 27
f 27 18 17
f 14 12 23
f 13 14 23
f 11 23 19
f 19 23 12
f 16 15 7
f 16 7 6
f 13 15 16
f 16 14 13
f 24 20 2
f 24 2 1
f 22 11 5
f 22 15 13
f 22 20 21
f 10 9 22
f 22 8 7
f 13 23 22
f 22 18 10
f 7 15 22
f 22 3 2
f 2 20 22
f 5 4 22
f 9 8 22
f 22 23 11
f 22 4 3
f 26 9 10
f 10 27 26
f 5 11 30
f 11 19 30
f 17 18 32
f 18 22 32
f 7 8 25
f 6 7 25
f 25 8 9
f 9 26 25
f 2 3 28
f 1 2 28
f 21 20 31
f 20 24 31
f 31 22 21
f 31 32 22
f 29 19 12
f 29 24 1
f 29 16 6
f 29 12 14
f 29 27 17
f 17 32 29
f 14 16 29
f 6 25 29
f 29 26 27
f 29 30 19
f 1 28 29
f 29 25 26
f 29 31 24
f 32 31 29
f 29 4 5
f 5 30 29
f 3 4 29
f 29 28 3

