# https://github.com/mikedh/trimesh
v -0.08800000 -0.10500000 0.01500000
v -0.08800000 -0.10500000 0.01000000
v -0.08733013 -0.10750000 0.01000000
v -0.08550000 -0.10933013 0.01500000
v -0.08300000 -0.11000000 0.01000000
v -0.08300000 -0.11000000 0.01500000
v -0.08300000 0.11000000 0.01000000
v -0.08300000 0.11000000 0.01500000
v 0.08300000 0.11000000 0.01000000
v 0.08300000 0.11000000 0.01500000
v 0.08800000 0.10500000 0.01000000
v 0.08800000 0.10500000 0.01500000
v 0.08800000 -0.10500000 0.01000000
v 0.08800000 -0.10500000 0.01500000
v 0.08300000 -0.11000000 0.01000000
v -0.08800000 0.10500000 0.01500000
v 0.08550000 -0.10933013 0.01000000
v 0.08733013 -0.10750000 0.01000000
v 0.08550000 0.10933013 0.01000000
v -0.08800000 0.10500000 0.01000000
v -0.08733013 0.10750000 0.01000000
v -0.08550000 -0.10933013 0.01000000
v 0.08733013 0.10750000 0.01500000
v 0.08733013 -0.10750000 0.01500000
v 0.08550000 -0.10933013 0.01500000
v 0.08300000 -0.11000000 0.01500000
v -0.08733013 -0.10750000 0.01500000
v -0.08733013 0.10750000 0.01500000
v -0.08550000 0.10933013 0.01500000
v -0.08550000 0.10933013 0.01000000
v 0.08733013 0.10750000 0.01000000
v 0.08550000 0.10933013 0.01500000
f 8 9 7
f 10 9 8
f 16 20 2
f 16 2 1
f 30 8 7
f 30 29 8
f 31 23 12
f 31 12 11
f 32 9 10
f 32 19 9
f 32 31 19
f 23 31 32
f 18 13 14
f 24 18 14
f 14 13 11
f 11 12 14
f 6 4 22
f 5 6 22
f 2 3 27
f 1 2 27
f 3 22 27
f 27 22 4
f 5 15 26
f 26 6 5
f 21 30 7
f 21 31 11
f 21 15 5
f 7 9 21
f 21 3 2
f 2 20 21
f 9 19 21
f 11 13 21
f 21 13 18
f 5 22 21
f 18 17 21
f 19 31 21
f 21 22 3
f 21 17 15
f 21 16 28
f 20 16 21
f 28 29 21
f 29 30 21
f 25 16 1
f 25 29 28
f 10 8 25
f 24 14 25
f 25 32 10
f 1 27 25
f 8 29 25
f 28 16 25
f 12 23 25
f 25 4 6
f 23 32 25
f 25 14 12
f 25 27 4
f 6 26 25
f 25 18 24
f 25 17 18
f 15 17 25
f 25 26 15

