# https://github.com/mikedh/trimesh
v -0.03353908 -0.03254507 0.02550000
v -0.02949975 -0.03288111 0.02550000
v -0.02964976 -0.03346206 0.02320000
v -0.02409227 -0.03593787 0.02550000
v -0.02451265 -0.03636598 0.02320000
v -0.02151574 -0.04144941 0.02320000
v -0.02088111 -0.04750025 0.02550000
v -0.02146206 -0.04735023 0.02320000
v -0.02393787 -0.05290773 0.02550000
v -0.02436598 -0.05248735 0.02320000
v -0.03550025 -0.05611889 0.02550000
v -0.03535023 -0.05553794 0.02320000
v -0.04090773 -0.05306213 0.02550000
v -0.04048735 -0.05263402 0.02320000
v -0.04411889 -0.04149975 0.02550000
v -0.04353794 -0.04164977 0.02320000
v -0.04063402 -0.03651265 0.02320000
v -0.03571115 -0.03293763 0.02550000
v -0.03555059 -0.03351574 0.02320000
v -0.03571115 -0.03293763 0.02700000
v -0.04106213 -0.03609227 0.02550000
v -0.04106213 -0.03609227 0.02700000
v -0.04411889 -0.04149975 0.02700000
v -0.04406237 -0.04771115 0.02550000
v -0.04406237 -0.04771115 0.02700000
v -0.04090773 -0.05306213 0.02700000
v -0.03550025 -0.05611889 0.02700000
v -0.02928885 -0.05606237 0.02550000
v -0.02928885 -0.05606237 0.02700000
v -0.02393787 -0.05290773 0.02700000
v -0.02088111 -0.04750025 0.02700000
v -0.02093762 -0.04128885 0.02550000
v -0.02093762 -0.04128885 0.02700000
v -0.02409227 -0.03593787 0.02700000
v -0.02949975 -0.03288111 0.02700000
v -0.02319749 -0.03859679 0.02320000
v -0.02725641 -0.03481498 0.02320000
v -0.02602032 -0.05346266 0.02320000
v -0.02944941 -0.05548426 0.02320000
v -0.03502283 -0.05553496 0.02320000
v -0.02153886 -0.04748610 0.02320000
v -0.02941693 -0.03359367 0.02320000
v -0.03568504 -0.03359501 0.02320000
v -0.04334843 -0.04778099 0.02320000
v -0.04348425 -0.04755060 0.02320000
f 11 13 12
f 44 13 24
f 15 16 24
f 14 13 44
f 14 12 13
f 11 12 28
f 10 28 38
f 1 3 19
f 17 16 21
f 21 16 15
f 44 24 45
f 45 24 16
f 38 28 39
f 28 10 9
f 9 10 7
f 41 8 7
f 7 10 41
f 2 4 5
f 2 1 35
f 3 1 2
f 6 36 32
f 32 36 5
f 5 4 32
f 35 1 20
f 17 21 43
f 40 28 12
f 40 39 28
f 37 2 5
f 18 1 19
f 18 20 1
f 19 43 18
f 18 43 21
f 3 2 42
f 2 37 42
f 29 27 28
f 28 27 11
f 25 24 26
f 26 24 13
f 11 27 26
f 26 13 11
f 23 24 25
f 15 24 23
f 21 23 22
f 15 23 21
f 9 30 29
f 29 28 9
f 9 31 30
f 7 31 9
f 35 34 2
f 34 4 2
f 8 6 32
f 7 8 32
f 30 31 33
f 33 34 35
f 33 27 29
f 29 30 33
f 25 26 33
f 33 23 25
f 33 26 27
f 35 20 33
f 22 23 33
f 33 20 22
f 33 4 34
f 33 32 4
f 33 31 7
f 7 32 33
f 18 21 22
f 22 20 18
f 19 3 42
f 12 14 42
f 42 43 19
f 17 43 42
f 5 36 42
f 42 6 8
f 42 36 6
f 39 40 42
f 8 41 42
f 42 41 10
f 42 10 38
f 38 39 42
f 42 40 12
f 42 45 16
f 42 16 17
f 44 45 42
f 42 14 44
f 42 37 5

