# https://github.com/mikedh/trimesh
v -0.13500000 -0.13550000 0.17350000
v -0.13450000 -0.13600000 0.17350000
v -0.13450000 -0.13550000 0.17400000
v -0.09550000 -0.13050000 0.17400000
v -0.09550000 -0.13000000 0.17350000
v -0.09550000 -0.13050000 0.16800000
v -0.13450000 -0.13000000 0.16850000
v -0.13450000 -0.13050000 0.16800000
v -0.13500000 -0.13550000 0.16850000
v -0.09500000 -0.13550000 0.16850000
v -0.13450000 -0.13600000 0.16850000
v -0.13450000 -0.13550000 0.16800000
v -0.09550000 -0.13000000 0.16850000
v -0.09500000 -0.13050000 0.16850000
v -0.13500000 -0.13050000 0.17350000
v -0.13450000 -0.13000000 0.17350000
v -0.13500000 -0.13050000 0.16850000
v -0.09500000 -0.13050000 0.17350000
v -0.09500000 -0.13550000 0.17350000
v -0.09550000 -0.13550000 0.16800000
v -0.09550000 -0.13600000 0.16850000
v -0.09550000 -0.13600000 0.17350000
v -0.11850000 -0.13600000 0.17100000
v -0.09550000 -0.13550000 0.17400000
v -0.13450000 -0.13050000 0.17400000
f 2 3 1
f 12 21 11
f 11 9 12
f 20 21 12
f 10 21 20
f 2 11 23
f 23 11 21
f 2 23 22
f 22 23 21
f 22 24 3
f 22 3 2
f 13 14 6
f 25 16 15
f 5 4 18
f 17 7 8
f 24 22 19
f 11 1 9
f 2 1 11
f 6 14 20
f 20 14 10
f 6 20 8
f 8 20 12
f 5 13 7
f 7 16 5
f 6 8 7
f 7 13 6
f 24 4 25
f 3 24 25
f 5 16 25
f 25 4 5
f 15 1 25
f 25 1 3
f 18 13 5
f 14 13 18
f 16 7 17
f 15 16 17
f 9 1 17
f 17 1 15
f 17 8 12
f 12 9 17
f 19 22 21
f 19 21 10
f 10 14 19
f 14 18 19
f 19 4 24
f 19 18 4

