# https://github.com/mikedh/trimesh
v 0.08000001 -0.19650000 0.16800000
v 0.08000001 -0.19350000 0.16800000
v 0.08250000 -0.19350000 0.16866987
v 0.08250000 -0.19650000 0.16866987
v 0.08433012 -0.19350000 0.17050000
v 0.08433012 -0.19650000 0.17050000
v 0.08500000 -0.19350000 0.17300000
v 0.08500000 -0.19650000 0.17300000
v 0.08500000 -0.19650000 0.30300001
v 0.08433012 -0.19350000 0.30550000
v 0.08433012 -0.19650000 0.30550000
v 0.08250000 -0.19350000 0.30733013
v 0.08250000 -0.19650000 0.30733013
v 0.08000001 -0.19350000 0.30800000
v 0.08000001 -0.19650000 0.30800000
v -0.08500000 -0.19650000 0.17300000
v -0.08500000 -0.19350000 0.17300000
v -0.08433013 -0.19650000 0.17050000
v -0.08250000 -0.19650000 0.16866987
v -0.08000000 -0.19350000 0.16800000
v -0.08000000 -0.19650000 0.16800000
v -0.08000000 -0.19650000 0.30800000
v -0.08000000 -0.19350000 0.30800000
v -0.08250000 -0.19650000 0.30733013
v -0.08433013 -0.19350000 0.30550000
v -0.08500000 -0.19350000 0.30300001
v -0.08500000 -0.19650000 0.30300001
v -0.08433013 -0.19350000 0.17050000
v -0.08250000 -0.19350000 0.16866987
v 0.08500000 -0.19350000 0.30300001
v -0.08250000 -0.19350000 0.30733013
v -0.08433013 -0.19650000 0.30550000
f 1 21 2
f 2 21 20
f 23 22 15
f 23 15 14
f 24 22 23
f 23 31 24
f 7 30 9
f 9 8 7
f 1 2 3
f 3 4 1
f 24 31 32
f 31 25 32
f 7 8 5
f 8 6 5
f 5 6 4
f 4 3 5
f 27 32 26
f 26 32 25
f 16 27 26
f 26 17 16
f 28 18 16
f 16 17 28
f 14 15 13
f 13 12 14
f 20 21 29
f 21 19 29
f 19 18 29
f 18 28 29
f 10 30 7
f 14 12 10
f 10 2 20
f 10 23 14
f 10 26 25
f 31 23 10
f 10 25 31
f 10 3 2
f 7 5 10
f 20 29 10
f 10 5 3
f 17 26 10
f 10 28 17
f 10 29 28
f 15 22 11
f 24 32 11
f 11 27 16
f 1 4 11
f 11 21 1
f 11 22 24
f 11 6 8
f 11 19 21
f 16 18 11
f 8 9 11
f 11 18 19
f 4 6 11
f 11 32 27
f 11 13 15
f 11 9 30
f 30 10 11
f 12 13 11
f 11 10 12

