# https://github.com/mikedh/trimesh
v 0.06150000 -0.11650000 0.17350000
v 0.06100000 -0.11600000 0.17350000
v 0.06100000 -0.07700000 0.16850000
v 0.06150000 -0.07650000 0.16850000
v 0.06150000 -0.07700000 0.16800000
v 0.06650000 -0.07700000 0.16800000
v 0.06700000 -0.07700000 0.16850000
v 0.06650000 -0.11600000 0.16800000
v 0.06650000 -0.11600000 0.17400000
v 0.06150000 -0.11600000 0.17400000
v 0.06650000 -0.07650000 0.17350000
v 0.06650000 -0.11650000 0.17350000
v 0.06700000 -0.11600000 0.17350000
v 0.06650000 -0.07650000 0.16850000
v 0.06150000 -0.07700000 0.17400000
v 0.06150000 -0.11650000 0.16850000
v 0.06150000 -0.11600000 0.16800000
v 0.06650000 -0.11650000 0.16850000
v 0.06700000 -0.11600000 0.16850000
v 0.06150000 -0.07650000 0.17350000
v 0.06650000 -0.07700000 0.17400000
v 0.06700000 -0.07700000 0.17350000
v 0.06100000 -0.07700000 0.17350000
v 0.06100000 -0.11600000 0.16850000
f 4 5 3
f 7 6 14
f 20 23 15
f 11 21 22
f 1 10 2
f 8 19 18
f 16 24 17
f 12 13 9
f 10 23 2
f 15 23 10
f 8 17 6
f 6 17 5
f 8 6 19
f 19 6 7
f 14 6 5
f 14 5 4
f 20 14 4
f 11 14 20
f 20 3 23
f 4 3 20
f 11 20 21
f 21 20 15
f 21 10 9
f 15 10 21
f 5 17 24
f 24 3 5
f 2 23 24
f 23 3 24
f 22 19 7
f 13 19 22
f 9 13 22
f 22 21 9
f 22 14 11
f 7 14 22
f 2 24 16
f 16 1 2
f 16 17 8
f 8 18 16
f 12 16 18
f 1 16 12
f 9 10 12
f 10 1 12
f 12 19 13
f 12 18 19

