# https://github.com/mikedh/trimesh
v 0.08649979 -0.07300009 0.26910528
v 0.09263635 -0.07188664 0.26910528
v 0.08749996 -0.07200010 0.26910528
v 0.08711712 -0.07207606 0.26910528
v 0.08679252 -0.07229280 0.26910528
v 0.08657562 -0.07261729 0.26910528
v 0.11740917 -0.07228664 0.26910528
v 0.11711635 -0.07199382 0.26910528
v 0.11671635 -0.07188664 0.26910528
v 0.12749962 -0.13099998 0.26910528
v 0.12749971 -0.12250000 0.26910528
v 0.12699969 -0.13186592 0.26910528
v 0.12736561 -0.13149990 0.26910528
v 0.12649979 -0.13199998 0.26910528
v 0.12749972 -0.11750000 0.26910528
v 0.12749975 -0.09606860 0.26910528
v 0.12749975 -0.08650008 0.26910528
v 0.08749977 -0.13199998 0.26910528
v 0.08649937 -0.13099998 0.26910528
v 0.08657553 -0.13138275 0.26910528
v 0.08679240 -0.13170722 0.26910528
v 0.08711696 -0.13192397 0.26910528
v 0.09183635 -0.07400010 0.26260528
v 0.09183635 -0.07200010 0.26260528
v 0.11756955 -0.13130023 0.27330528
v 0.11756955 -0.12330023 0.27330528
v 0.11756955 -0.13130023 0.26480528
v 0.11751635 -0.07200010 0.26710528
v 0.11751635 -0.07200010 0.26260528
v 0.12649979 -0.10687537 0.26260528
v 0.12749971 -0.10605037 0.26640525
v 0.12749962 -0.10605037 0.26260528
v 0.12649979 -0.10217094 0.26260528
v 0.09194980 -0.08168664 0.26260528
f 19 26 1
f 19 23 34
f 24 23 19
f 19 1 24
f 34 27 21
f 32 27 30
f 30 27 34
f 31 32 17
f 13 27 32
f 32 10 13
f 29 28 17
f 7 26 17
f 7 8 26
f 17 28 7
f 28 8 7
f 19 34 20
f 34 21 20
f 25 13 10
f 17 26 25
f 25 20 21
f 25 26 19
f 19 20 25
f 16 31 17
f 16 15 31
f 17 25 16
f 16 25 15
f 27 13 12
f 13 25 12
f 2 3 26
f 24 3 2
f 17 32 33
f 33 29 17
f 26 8 9
f 9 8 28
f 28 29 9
f 11 25 10
f 15 25 11
f 11 10 32
f 32 31 11
f 31 15 11
f 6 24 1
f 6 5 24
f 6 1 26
f 26 5 6
f 4 3 24
f 24 5 4
f 26 3 4
f 4 5 26
f 22 21 27
f 27 18 22
f 22 25 21
f 22 18 25
f 14 12 25
f 27 12 14
f 23 24 33
f 33 34 23
f 32 30 33
f 33 30 34
f 24 29 33
f 9 29 24
f 24 2 9
f 9 2 26
f 25 18 14
f 14 18 27

