# https://github.com/mikedh/trimesh
v 0.08716715 -0.07280223 0.26455528
v 0.08866715 -0.07280223 0.26685528
v 0.08650021 -0.12859987 0.26645528
v 0.08996715 -0.07280223 0.26625528
v 0.09055013 -0.13049987 0.26460528
v 0.09055013 -0.12999987 0.26685528
v 0.08651934 -0.07380223 0.26320528
v 0.09006715 -0.07280223 0.26280528
v 0.09006715 -0.08105223 0.26280528
v 0.08649989 -0.12949987 0.26320528
v 0.08716715 -0.07280223 0.26320528
v 0.09056715 -0.08105223 0.26355528
v 0.08865013 -0.13049987 0.26685528
v 0.08876715 -0.07280223 0.26260528
v 0.09056715 -0.07330223 0.26685528
v 0.09006512 -0.09517742 0.26280528
v 0.08995013 -0.13049987 0.26625528
v 0.09056715 -0.08105223 0.26460528
v 0.08715013 -0.13049987 0.26320528
v 0.08991715 -0.07280223 0.26260528
v 0.08991715 -0.08105223 0.26260528
v 0.09055013 -0.13049987 0.26355528
v 0.08649954 -0.13049987 0.26455528
v 0.09005013 -0.13049987 0.26280528
v 0.08651957 -0.07280232 0.26455528
v 0.08990013 -0.13049987 0.26260528
v 0.08650013 -0.09619998 0.26250528
v 0.08650013 -0.10134997 0.26250528
v 0.08650013 -0.08650008 0.26910528
v 0.08650013 -0.08650008 0.26685528
v 0.08650013 -0.11750000 0.26910528
v 0.08870013 -0.12999987 0.26260528
v 0.08651902 -0.07470223 0.26645528
v 0.09056512 -0.09517742 0.26355528
v 0.09056512 -0.09517742 0.26460528
v 0.08875013 -0.13049987 0.26260528
v 0.09056512 -0.09467742 0.26685528
v 0.08991512 -0.09517742 0.26260528
v 0.09056715 -0.07280223 0.26355528
v 0.09056715 -0.07280223 0.26460528
v 0.09056715 -0.08055223 0.26685528
f 31 29 23
f 29 2 33
f 15 2 29
f 10 19 23
f 28 38 26
f 23 29 30
f 3 31 23
f 2 15 4
f 4 15 40
f 35 6 5
f 27 10 23
f 28 10 27
f 23 30 27
f 29 33 25
f 25 33 2
f 25 30 29
f 28 26 36
f 19 10 36
f 31 6 37
f 6 35 37
f 5 6 17
f 9 12 34
f 7 25 11
f 7 27 30
f 30 25 7
f 1 25 2
f 11 25 1
f 32 10 28
f 28 36 32
f 32 36 10
f 31 37 41
f 13 17 6
f 13 6 31
f 31 3 13
f 13 3 23
f 27 7 14
f 14 7 11
f 16 9 34
f 21 38 28
f 27 14 20
f 22 35 5
f 34 35 22
f 41 15 29
f 29 31 41
f 18 35 34
f 34 12 18
f 18 37 35
f 18 41 37
f 40 15 39
f 15 41 39
f 39 18 12
f 41 18 39
f 12 9 39
f 9 8 39
f 34 22 24
f 24 16 34
f 24 13 23
f 23 19 24
f 19 36 24
f 24 22 5
f 17 13 24
f 24 36 26
f 5 17 24
f 38 16 24
f 24 26 38
f 21 16 38
f 9 16 21
f 20 1 2
f 2 4 20
f 20 4 40
f 11 1 20
f 20 14 11
f 40 39 20
f 20 39 8
f 20 8 9
f 9 21 20
f 28 27 20
f 20 21 28

