# https://github.com/mikedh/trimesh
v -0.00150000 0.03850000 0.06500000
v -0.00150000 0.03150000 0.06500000
v -0.00150000 0.04850000 0.11400000
v -0.00150000 0.04950000 0.11300000
v -0.00150000 0.03050000 0.06900000
v -0.00150000 0.04400000 0.06647372
v -0.00150000 0.04550000 0.11400000
v -0.00150000 0.04950000 0.07600000
v -0.00150000 0.04802628 0.07050000
v -0.00450000 0.04950000 0.07600000
v -0.00450000 0.03050000 0.06900000
v -0.00450000 0.03050000 0.06600000
v -0.00450000 0.03063398 0.06550000
v -0.00450000 0.03100000 0.06513397
v -0.00450000 0.03150000 0.06500000
v -0.00450000 0.03850000 0.06500000
v -0.00450000 0.04550000 0.11400000
v -0.00450000 0.04500000 0.11386603
v -0.00450000 0.04463398 0.11350000
v -0.00450000 0.03063398 0.06950000
v -0.00450000 0.04936603 0.11350000
v -0.00450000 0.04400000 0.06647372
v -0.00150000 0.03050000 0.06600000
v -0.00150000 0.03063398 0.06550000
v -0.00150000 0.03100000 0.06513397
v -0.00150000 0.03063398 0.06950000
v -0.00150000 0.04500000 0.11386603
v -0.00150000 0.04463398 0.11350000
v -0.00450000 0.04950000 0.11300000
v -0.00150000 0.04936603 0.11350000
v -0.00450000 0.04900000 0.11386603
v -0.00150000 0.04900000 0.11386603
v -0.00450000 0.04850000 0.11400000
v -0.00450000 0.04802628 0.07050000
f 29 4 8
f 8 10 29
f 34 10 8
f 8 9 34
f 34 9 6
f 6 22 34
f 26 20 11
f 11 5 26
f 19 20 26
f 26 28 19
f 4 29 30
f 29 21 30
f 18 19 27
f 19 28 27
f 17 27 7
f 18 27 17
f 17 7 3
f 3 33 17
f 32 33 3
f 32 31 33
f 32 30 21
f 21 31 32
f 23 5 11
f 11 12 23
f 16 22 6
f 6 1 16
f 16 1 2
f 2 15 16
f 13 31 21
f 13 29 10
f 13 19 18
f 11 20 13
f 10 34 13
f 13 20 19
f 13 21 29
f 13 34 22
f 18 17 13
f 13 12 11
f 13 17 33
f 33 31 13
f 22 16 13
f 13 16 15
f 15 14 13
f 25 15 2
f 25 14 15
f 8 4 24
f 24 9 8
f 24 26 5
f 24 32 3
f 6 9 24
f 3 7 24
f 24 27 28
f 24 1 6
f 28 26 24
f 4 30 24
f 7 27 24
f 2 1 24
f 30 32 24
f 5 23 24
f 24 25 2
f 24 23 12
f 12 13 24
f 24 13 14
f 14 25 24

