# https://github.com/mikedh/trimesh
v 0.11836551 -0.11786499 0.27150528
v 0.11794458 -0.11744406 0.27150528
v 0.11736958 -0.11728999 0.27150528
v 0.12125208 -0.13002523 0.26660528
v 0.12141955 -0.12940023 0.26660528
v 0.11832560 -0.11814670 0.26560528
v 0.11805087 -0.11770798 0.26560528
v 0.12111610 -0.12952523 0.27219958
v 0.12120478 -0.12952523 0.27203767
v 0.12029455 -0.12952523 0.27259507
v 0.11759359 -0.11746540 0.26560528
v 0.11736958 -0.11843999 0.26500442
v 0.09420529 -0.12417596 0.26560528
v 0.09517987 -0.12439998 0.26500442
v 0.12016955 -0.13065023 0.26600528
v 0.12141955 -0.12940023 0.26600528
v 0.12125208 -0.13002523 0.26600528
v 0.12079455 -0.13048276 0.26660528
v 0.12079455 -0.13048276 0.26600528
v 0.12016955 -0.13065023 0.26660528
v 0.09418394 -0.12382498 0.27150528
v 0.09402987 -0.12439998 0.27150528
v 0.12004455 -0.13015171 0.27238431
v 0.12004455 -0.13034678 0.27219958
v 0.12035721 -0.12410082 0.27256356
v 0.12029455 -0.12427523 0.27259507
v 0.12123643 -0.12427523 0.27182604
v 0.12107989 -0.12383002 0.27182604
v 0.12121496 -0.12427523 0.27200670
v 0.12103285 -0.12385948 0.27209478
v 0.12117429 -0.12427523 0.27209187
v 0.12087380 -0.12395911 0.27233107
v 0.12095870 -0.12427523 0.27235700
v 0.12046902 -0.12421265 0.27256356
v 0.12063608 -0.12427523 0.27252533
v 0.12113678 -0.12427523 0.27217040
v 0.12004455 -0.13043546 0.27203767
v 0.12004455 -0.12952523 0.27259507
v 0.11245899 -0.11744399 0.26560528
v 0.12092103 -0.12452523 0.27238431
v 0.12111610 -0.12452523 0.27219958
v 0.12120478 -0.12452523 0.27203767
v 0.12029455 -0.12927523 0.27259507
v 0.12113678 -0.12927523 0.27217040
v 0.12046902 -0.12921265 0.27256356
v 0.12063608 -0.12927523 0.27252533
v 0.09716161 -0.11786456 0.26560528
v 0.09418388 -0.12931057 0.26560528
v 0.09460445 -0.13021783 0.26560528
v 0.09509047 -0.13039597 0.26560528
v 0.09797946 -0.11843999 0.26500442
v 0.09806887 -0.11744399 0.26560528
v 0.09755889 -0.11753273 0.26560528
v 0.09517987 -0.12939998 0.26500442
v 0.09427261 -0.12982055 0.26560528
v 0.12095870 -0.12927523 0.27235700
v 0.12121496 -0.12927523 0.27200670
v 0.09698353 -0.11786499 0.27150528
v 0.09797946 -0.11728999 0.27150528
v 0.09740446 -0.11744406 0.27150528
v 0.09402987 -0.12939998 0.27150528
v 0.09418394 -0.12997498 0.27150528
v 0.09460487 -0.13039591 0.27150528
v 0.09517987 -0.13054998 0.27150528
v 0.12035713 -0.12969970 0.27256356
v 0.12029455 -0.13046711 0.27182604
v 0.12029455 -0.13044564 0.27200670
v 0.12071030 -0.13026353 0.27209478
v 0.12061067 -0.13010448 0.27233107
v 0.12029455 -0.12986676 0.27252533
v 0.12087368 -0.12984155 0.27233107
v 0.12092103 -0.12952523 0.27238431
v 0.12103271 -0.12994122 0.27209478
v 0.12107973 -0.12997070 0.27182604
v 0.12123643 -0.12952523 0.27182604
v 0.12029455 -0.13036746 0.27217040
v 0.12029455 -0.13018938 0.27235700
v 0.12004455 -0.12427523 0.27259507
v 0.12141955 -0.12440023 0.26660528
v 0.12125208 -0.12377523 0.26660528
v 0.12125208 -0.12377523 0.26600528
v 0.12141955 -0.12440023 0.26600528
v 0.12073976 -0.13031057 0.27182604
v 0.12107976 -0.12997064 0.27182604
v 0.12073993 -0.13031042 0.27182604
f 19 54 12
f 47 58 60
f 11 39 3
f 7 12 11
f 11 12 39
f 49 54 50
f 6 12 7
f 7 1 6
f 16 12 82
f 75 4 5
f 20 66 64
f 58 47 21
f 2 1 7
f 2 11 3
f 7 11 2
f 63 62 49
f 49 50 63
f 63 50 64
f 15 54 19
f 15 50 54
f 64 50 15
f 15 20 64
f 19 12 17
f 12 16 17
f 9 75 57
f 82 12 81
f 12 6 81
f 81 6 1
f 1 80 81
f 70 64 23
f 66 20 18
f 74 18 4
f 48 61 22
f 13 21 47
f 22 21 13
f 13 48 22
f 28 80 1
f 1 30 28
f 28 30 29
f 1 35 32
f 32 30 1
f 3 59 26
f 61 62 38
f 62 63 38
f 38 63 64
f 38 64 70
f 53 52 51
f 53 51 47
f 53 47 60
f 59 52 53
f 60 59 53
f 64 66 67
f 67 37 64
f 84 75 9
f 4 75 84
f 84 74 4
f 66 18 83
f 83 67 66
f 68 67 83
f 49 62 55
f 55 54 49
f 55 48 54
f 55 62 61
f 61 48 55
f 54 48 14
f 48 13 14
f 47 51 14
f 14 13 47
f 27 28 29
f 80 28 27
f 27 79 80
f 31 42 29
f 29 30 31
f 25 2 3
f 3 26 25
f 1 2 25
f 45 10 46
f 65 72 46
f 46 10 65
f 10 38 65
f 65 38 70
f 70 69 65
f 43 38 10
f 10 45 43
f 70 23 77
f 77 69 70
f 77 23 64
f 64 24 77
f 18 74 85
f 85 83 18
f 68 83 85
f 9 8 73
f 73 84 9
f 74 84 73
f 68 85 73
f 73 85 74
f 73 69 68
f 44 8 9
f 42 31 36
f 30 32 36
f 36 31 30
f 72 8 56
f 78 21 22
f 58 21 78
f 60 58 78
f 78 59 60
f 78 26 59
f 34 25 26
f 34 35 1
f 1 25 34
f 68 69 76
f 69 77 76
f 76 67 68
f 76 77 24
f 37 67 76
f 76 24 64
f 64 37 76
f 71 8 72
f 71 73 8
f 69 73 71
f 71 65 69
f 72 65 71
f 41 36 33
f 33 36 32
f 35 40 33
f 33 32 35
f 52 59 3
f 3 39 52
f 39 12 52
f 12 51 52
f 17 16 5
f 5 4 17
f 5 16 79
f 79 16 82
f 81 79 82
f 80 79 81
f 20 15 18
f 18 15 19
f 18 17 4
f 19 17 18
f 14 51 12
f 14 12 54
f 42 57 29
f 9 57 42
f 46 72 40
f 35 46 40
f 29 57 27
f 27 57 75
f 27 75 5
f 5 79 27
f 41 8 36
f 8 44 36
f 9 42 36
f 36 44 9
f 22 61 78
f 61 38 78
f 78 43 26
f 38 43 78
f 34 46 35
f 34 45 46
f 26 43 34
f 34 43 45
f 33 8 41
f 33 56 8
f 33 40 72
f 72 56 33

