# https://github.com/mikedh/trimesh
v 0.14405209 -0.08302766 0.17350000
v 0.15251237 -0.04495637 0.16850000
v 0.15310893 -0.04457674 0.16850000
v 0.15300047 -0.04506483 0.16800000
v 0.15788140 -0.04614948 0.16800000
v 0.15836950 -0.04625795 0.16850000
v 0.14942112 -0.08422078 0.16800000
v 0.14942112 -0.08422078 0.17400000
v 0.15836950 -0.04625795 0.17350000
v 0.15798987 -0.04566139 0.17350000
v 0.14931265 -0.08470887 0.17350000
v 0.15798987 -0.04566139 0.16850000
v 0.15300047 -0.04506483 0.17400000
v 0.14405209 -0.08302766 0.16850000
v 0.14443172 -0.08362422 0.16850000
v 0.14454018 -0.08313613 0.16800000
v 0.14443172 -0.08362422 0.17350000
v 0.14931265 -0.08470887 0.16850000
v 0.14990921 -0.08432925 0.16850000
v 0.14990921 -0.08432925 0.17350000
v 0.15788140 -0.04614948 0.17400000
v 0.14454018 -0.08313613 0.17400000
v 0.15310893 -0.04457674 0.17350000
v 0.15251237 -0.04495637 0.17350000
f 3 4 2
f 6 5 12
f 9 10 21
f 23 24 13
f 15 14 16
f 7 19 18
f 20 8 11
f 17 22 1
f 16 5 7
f 4 5 16
f 12 5 4
f 12 4 3
f 9 12 10
f 6 12 9
f 7 5 19
f 19 5 6
f 6 9 19
f 19 9 20
f 20 9 8
f 8 9 21
f 1 24 14
f 14 24 2
f 4 16 14
f 14 2 4
f 22 8 21
f 21 13 22
f 22 24 1
f 13 24 22
f 2 24 23
f 3 2 23
f 23 12 3
f 10 12 23
f 23 13 21
f 21 10 23
f 18 16 7
f 18 15 16
f 11 19 20
f 11 18 19
f 8 22 17
f 17 11 8
f 15 18 17
f 18 11 17
f 1 14 17
f 14 15 17

