# https://github.com/mikedh/trimesh
v -0.03414303 -0.05626543 0.04450000
v -0.03390858 -0.05626330 0.04362500
v -0.03326807 -0.05625747 0.04298446
v -0.03239310 -0.05624951 0.04275000
v -0.03151814 -0.05624155 0.04298446
v -0.03087762 -0.05623573 0.04362500
v -0.03064317 -0.05623359 0.04450000
v -0.03087762 -0.05623573 0.04537500
v -0.03239310 -0.05624951 0.04625000
v -0.03326807 -0.05625747 0.04601554
v -0.03144364 -0.05069065 0.04450000
v -0.03157760 -0.05069186 0.04400000
v -0.03244359 -0.05069974 0.04350000
v -0.03294357 -0.05070429 0.04363398
v -0.03330958 -0.05070762 0.04400000
v -0.03244359 -0.05069974 0.04550000
v -0.03157760 -0.05069186 0.04500000
v -0.03194361 -0.05069519 0.04536603
v -0.03330958 -0.05070762 0.04500000
v -0.03294357 -0.05070429 0.04536603
v -0.03344355 -0.05070884 0.04450000
v -0.03194361 -0.05069519 0.04363398
v -0.03257900 -0.05670122 0.04545000
v -0.03087353 -0.05668571 0.04362500
v -0.03151404 -0.05669153 0.04298446
v -0.03238901 -0.05669949 0.04275000
v -0.03390449 -0.05671328 0.04362500
v -0.03413894 -0.05671542 0.04450000
v -0.03390449 -0.05671328 0.04537500
v -0.03390858 -0.05626330 0.04537500
v -0.03326397 -0.05670746 0.04601554
v -0.03238901 -0.05669949 0.04625000
v -0.03151404 -0.05669153 0.04601554
v -0.03151814 -0.05624155 0.04601554
v -0.03087353 -0.05668571 0.04537500
v -0.03063908 -0.05668357 0.04450000
v -0.03189903 -0.05669504 0.04469000
v -0.03326397 -0.05670746 0.04298446
v -0.03257900 -0.05670122 0.04355000
v -0.03189903 -0.05669504 0.04431000
f 3 14 4
f 4 14 13
f 29 23 32
f 32 23 33
f 36 7 35
f 35 7 8
f 33 23 35
f 1 15 2
f 14 3 2
f 2 15 14
f 4 13 5
f 17 34 8
f 17 7 11
f 8 7 17
f 29 32 31
f 38 2 3
f 6 5 12
f 11 7 12
f 12 7 6
f 25 39 26
f 16 20 9
f 37 35 23
f 9 20 10
f 27 38 26
f 26 39 27
f 2 38 27
f 22 5 13
f 22 12 5
f 22 13 14
f 11 12 22
f 20 16 18
f 34 17 18
f 18 17 11
f 11 22 18
f 9 34 18
f 18 16 9
f 21 15 1
f 1 19 21
f 21 20 14
f 14 15 21
f 21 19 20
f 36 35 24
f 39 25 24
f 24 7 36
f 6 7 24
f 20 19 30
f 30 10 20
f 30 19 1
f 31 10 30
f 29 31 30
f 28 27 29
f 28 30 1
f 29 30 28
f 1 2 28
f 2 27 28
f 39 24 40
f 34 32 33
f 9 32 34
f 34 35 8
f 33 35 34
f 4 26 38
f 38 3 4
f 25 26 4
f 4 5 25
f 10 32 9
f 10 31 32
f 14 20 18
f 18 22 14
f 24 25 5
f 24 5 6
f 40 37 23
f 40 23 29
f 29 27 40
f 40 27 39
f 35 37 40
f 40 24 35

