# https://github.com/mikedh/trimesh
v 0.11836955 -0.13070023 0.26260528
v 0.11836955 -0.12440023 0.26260528
v 0.11826955 -0.13170023 0.26310528
v 0.12206955 -0.13170023 0.26310528
v 0.12036955 -0.13190023 0.26340528
v 0.09607946 -0.11648999 0.27185528
v 0.09622946 -0.11663999 0.27200528
v 0.11826955 -0.13200023 0.26550528
v 0.12206955 -0.13200023 0.26550528
v 0.11826955 -0.13200023 0.27330528
v 0.12206955 -0.13200023 0.27330528
v 0.12126955 -0.12180023 0.27330528
v 0.12276955 -0.12330023 0.27330528
v 0.12276955 -0.12330023 0.26910528
v 0.09607946 -0.11648999 0.26600528
v 0.12245201 -0.13141739 0.26322244
v 0.12241596 -0.13150023 0.26315887
v 0.12238424 -0.13154716 0.26313573
v 0.12217304 -0.13168661 0.26310551
v 0.12226955 -0.13164664 0.26310889
v 0.09322987 -0.13129998 0.27185528
v 0.09337987 -0.13114998 0.27200528
v 0.09322987 -0.12356922 0.27185528
v 0.09322987 -0.12356922 0.26600528
v 0.11817331 -0.12240399 0.27330528
v 0.11906955 -0.12180023 0.27330528
v 0.11813821 -0.11663999 0.27200528
v 0.09322987 -0.13129998 0.26600528
v 0.12216580 -0.12240399 0.27330528
v 0.11756955 -0.12330023 0.27330528
v 0.12241955 -0.13190645 0.27330528
v 0.12276955 -0.13130023 0.27330528
v 0.11996955 -0.13190023 0.26340528
v 0.11791955 -0.13190645 0.27330528
v 0.11766333 -0.13165023 0.27330528
v 0.11756955 -0.13130023 0.27330528
v 0.11820034 -0.11648999 0.27185528
v 0.11820034 -0.11648999 0.26600528
v 0.11926958 -0.11755923 0.26600528
v 0.12267577 -0.13165023 0.27330528
v 0.12276955 -0.13130023 0.26510528
v 0.12276889 -0.13133068 0.26525835
v 0.12275968 -0.13141739 0.26538812
v 0.12241955 -0.13190645 0.26550528
v 0.12264401 -0.13170023 0.26550528
v 0.12267150 -0.13164798 0.26549489
v 0.12272455 -0.13154716 0.26547483
v 0.12196955 -0.13070023 0.26260528
v 0.11843654 -0.13095023 0.26260528
v 0.11861955 -0.13113324 0.26260528
v 0.11886955 -0.13120023 0.26260528
v 0.12190256 -0.13095023 0.26260528
v 0.12171955 -0.13113324 0.26260528
v 0.12146955 -0.13120023 0.26260528
v 0.12172840 -0.12350023 0.26260528
v 0.12106955 -0.12284139 0.26260528
v 0.12016955 -0.12260023 0.26260528
v 0.11926955 -0.12284139 0.26260528
v 0.11861071 -0.12350023 0.26260528
v 0.11926958 -0.11755923 0.27185528
v 0.09337987 -0.12363135 0.27200528
v 0.12196955 -0.12440023 0.26260528
f 59 24 15
f 25 26 7
f 7 30 25
f 61 6 23
f 7 6 61
f 61 30 7
f 49 28 1
f 49 50 28
f 15 57 58
f 58 59 15
f 24 59 2
f 29 27 12
f 37 27 29
f 38 57 15
f 42 41 32
f 9 5 4
f 33 8 28
f 28 3 33
f 28 50 51
f 51 3 28
f 17 18 48
f 16 41 17
f 17 45 18
f 55 38 39
f 55 39 14
f 60 29 13
f 37 29 60
f 35 36 22
f 21 10 22
f 20 18 44
f 18 45 44
f 31 44 45
f 47 17 41
f 52 18 20
f 20 53 52
f 48 18 52
f 19 53 20
f 20 44 19
f 54 53 19
f 19 4 54
f 19 44 9
f 9 4 19
f 57 38 56
f 38 55 56
f 62 55 14
f 14 41 62
f 62 41 16
f 16 17 62
f 62 17 48
f 35 22 34
f 34 22 10
f 40 31 45
f 42 32 43
f 43 41 42
f 43 47 41
f 32 40 43
f 43 40 47
f 46 40 45
f 47 40 46
f 45 17 46
f 17 47 46
f 21 24 28
f 23 24 21
f 6 24 23
f 15 24 6
f 27 6 7
f 27 37 6
f 27 26 12
f 7 26 27
f 28 24 2
f 1 28 2
f 6 37 38
f 15 6 38
f 10 9 11
f 8 9 10
f 10 21 28
f 28 8 10
f 32 14 13
f 32 41 14
f 33 9 8
f 33 5 9
f 3 4 33
f 33 4 5
f 51 4 3
f 54 4 51
f 13 14 60
f 14 39 60
f 60 38 37
f 39 38 60
f 22 36 30
f 30 61 22
f 23 21 22
f 22 61 23
f 11 9 31
f 9 44 31
f 62 58 57
f 57 56 62
f 62 49 1
f 62 51 50
f 50 49 62
f 1 2 62
f 48 52 62
f 59 58 62
f 62 2 59
f 62 53 54
f 54 51 62
f 62 52 53
f 62 56 55
f 30 36 40
f 40 10 11
f 40 25 30
f 12 26 40
f 26 25 40
f 13 29 40
f 40 29 12
f 40 36 35
f 11 31 40
f 40 32 13
f 35 34 40
f 40 34 10

