# https://github.com/mikedh/trimesh
v -0.16303351 -0.03909924 0.21650000
v -0.16341313 -0.03969580 0.21650000
v -0.16959565 -0.03492333 0.25550001
v -0.16997528 -0.03551989 0.21650000
v -0.16959565 -0.03492333 0.21650000
v -0.16460625 -0.03432677 0.21600001
v -0.16411816 -0.03421831 0.21650000
v -0.16948719 -0.03541142 0.25600001
v -0.16471472 -0.03383868 0.21650000
v -0.16997528 -0.03551989 0.25550001
v -0.16303351 -0.03909924 0.25550001
v -0.16341313 -0.03969580 0.25550001
v -0.16840253 -0.04029236 0.25600001
v -0.16889063 -0.04040082 0.25550001
v -0.16352160 -0.03920771 0.21600001
v -0.16840253 -0.04029236 0.21600001
v -0.16889063 -0.04040082 0.21650000
v -0.16948719 -0.03541142 0.21600001
v -0.16460625 -0.03432677 0.25600001
v -0.16411816 -0.03421831 0.25550001
v -0.16352160 -0.03920771 0.25600001
v -0.16471472 -0.03383868 0.25550001
v -0.16829407 -0.04078045 0.25550001
v -0.16915115 -0.03922846 0.25175001
v -0.16829407 -0.04078045 0.21650000
f 5 18 4
f 11 2 1
f 9 7 6
f 12 2 11
f 13 14 23
f 15 1 2
f 8 3 10
f 21 12 11
f 14 10 24
f 24 17 14
f 19 20 22
f 17 16 25
f 18 5 6
f 6 5 9
f 15 6 7
f 7 1 15
f 10 13 8
f 14 13 10
f 3 5 10
f 10 5 4
f 21 13 23
f 23 12 21
f 8 13 21
f 21 19 8
f 19 21 20
f 20 21 11
f 20 1 7
f 11 1 20
f 18 6 16
f 6 15 16
f 16 17 4
f 4 18 16
f 4 17 24
f 24 10 4
f 22 20 7
f 22 7 9
f 22 3 8
f 8 19 22
f 9 5 22
f 22 5 3
f 25 16 15
f 25 15 2
f 23 14 25
f 14 17 25
f 25 12 23
f 2 12 25

