# https://github.com/mikedh/trimesh
v 0.07550000 -0.13000000 0.26850000
v 0.07600000 -0.13050000 0.26850000
v 0.07600000 -0.13550000 0.30750000
v 0.07550000 -0.13550000 0.30800000
v 0.07000000 -0.13550000 0.30750000
v 0.07000000 -0.13550000 0.26850000
v 0.07050000 -0.13050000 0.26800000
v 0.07550000 -0.13050000 0.26800000
v 0.07050000 -0.13550000 0.30800000
v 0.07000000 -0.13050000 0.30750000
v 0.07050000 -0.13000000 0.26850000
v 0.07000000 -0.13050000 0.26850000
v 0.07550000 -0.13000000 0.30750000
v 0.07050000 -0.13600000 0.30750000
v 0.07550000 -0.13600000 0.30750000
v 0.07600000 -0.13550000 0.26850000
v 0.07550000 -0.13550000 0.26800000
v 0.07550000 -0.13600000 0.26850000
v 0.07050000 -0.13550000 0.26800000
v 0.07050000 -0.13600000 0.26850000
v 0.07550000 -0.13050000 0.30800000
v 0.07050000 -0.13050000 0.30800000
v 0.07050000 -0.13000000 0.30750000
v 0.07600000 -0.13050000 0.30750000
f 3 4 15
f 14 9 5
f 10 22 23
f 19 20 6
f 21 24 13
f 17 16 18
f 12 11 7
f 1 2 8
f 5 12 6
f 10 12 5
f 16 15 18
f 3 15 16
f 24 16 2
f 3 16 24
f 24 2 1
f 1 13 24
f 10 5 22
f 5 9 22
f 4 9 14
f 14 15 4
f 14 5 6
f 6 20 14
f 18 15 14
f 14 20 18
f 23 12 10
f 23 11 12
f 1 11 23
f 23 13 1
f 21 22 9
f 21 9 4
f 13 23 21
f 21 23 22
f 3 24 21
f 21 4 3
f 18 20 17
f 20 19 17
f 6 12 7
f 7 19 6
f 8 11 1
f 8 7 11
f 8 17 19
f 19 7 8
f 2 16 8
f 16 17 8

