# https://github.com/mikedh/trimesh
v 0.16549336 -0.01420055 0.30323836
v 0.16563437 -0.01356602 0.17323998
v 0.16856293 -0.01421681 0.17323998
v 0.13793812 -0.13819916 0.30760329
v 0.13739652 -0.14063632 0.30692093
v 0.14032509 -0.14128712 0.30692093
v 0.13700150 -0.14241392 0.30508167
v 0.13993007 -0.14306471 0.30508167
v 0.13685890 -0.14305563 0.30257836
v 0.16748371 -0.01907328 0.16821504
v 0.16455515 -0.01842249 0.16821504
v 0.16802531 -0.01663611 0.16889740
v 0.16549176 -0.01420773 0.17073666
v 0.14086668 -0.13884995 0.30760329
v 0.13992847 -0.14307190 0.17257998
v 0.13699991 -0.14242110 0.17257998
v 0.13714793 -0.14175499 0.17008336
v 0.14047548 -0.14061032 0.16826240
v 0.13808997 -0.13751583 0.16760504
v 0.14101853 -0.13816662 0.16760504
v 0.13754692 -0.13995953 0.16826240
v 0.16509674 -0.01598532 0.16889740
v 0.16440330 -0.01910582 0.30821329
v 0.16534534 -0.01486665 0.30573497
v 0.16494635 -0.01666211 0.30755593
v 0.16842033 -0.01485852 0.17073666
v 0.14007649 -0.14240578 0.17008336
v 0.13978746 -0.14370642 0.30257836
v 0.16842192 -0.01485134 0.30323836
v 0.16733186 -0.01975661 0.30821329
v 0.16827390 -0.01551745 0.30573497
v 0.16787491 -0.01731291 0.30755593
f 9 16 28
f 28 16 15
f 19 11 20
f 11 10 20
f 2 1 29
f 3 2 29
f 1 24 29
f 29 24 31
f 22 10 11
f 22 12 10
f 26 13 2
f 26 2 3
f 26 22 13
f 12 22 26
f 32 24 25
f 31 24 32
f 30 32 23
f 23 32 25
f 14 30 23
f 23 4 14
f 4 5 6
f 14 4 6
f 9 7 21
f 21 1 2
f 21 16 9
f 21 11 19
f 25 24 21
f 2 13 21
f 21 23 25
f 21 17 16
f 21 22 11
f 21 24 1
f 21 5 4
f 13 22 21
f 4 23 21
f 21 7 5
f 19 20 21
f 20 18 21
f 16 17 27
f 15 16 27
f 17 21 27
f 27 21 18
f 14 6 8
f 8 30 14
f 8 28 15
f 3 29 8
f 31 32 8
f 8 20 10
f 10 12 8
f 8 29 31
f 8 26 3
f 8 18 20
f 12 26 8
f 8 32 30
f 15 27 8
f 8 27 18
f 9 28 8
f 8 7 9
f 5 7 8
f 8 6 5

