# https://github.com/mikedh/trimesh
v 0.07200000 -0.12850000 0.24050000
v 0.07200000 -0.12850000 0.19050000
v 0.07200000 -0.05350000 0.24050000
v 0.07200000 -0.05350000 0.19050000
v 0.09200000 -0.06006006 0.23617018
v 0.09200000 -0.06006006 0.19482982
v 0.09200000 -0.12193994 0.19482982
v 0.09200000 -0.12193994 0.23617018
v 0.07000000 -0.05350000 0.24050000
v 0.07000000 -0.12850000 0.19050000
v 0.07000000 -0.05350000 0.19050000
v 0.07000000 -0.12850000 0.24050000
f 5 6 4
f 4 3 5
f 7 4 6
f 2 4 7
f 12 3 9
f 1 3 12
f 12 2 1
f 12 10 2
f 11 4 2
f 2 10 11
f 10 12 11
f 11 12 9
f 3 4 11
f 9 3 11
f 5 3 8
f 8 3 1
f 8 6 5
f 8 7 6
f 2 7 8
f 1 2 8

