# https://github.com/mikedh/trimesh
v -0.02161156 -0.04954401 0.03850000
v -0.02527303 -0.05407971 0.03850000
v -0.02527303 -0.05407971 0.03690000
v -0.03063980 -0.05635494 0.03850000
v -0.03063980 -0.05635494 0.03690000
v -0.03644551 -0.05583283 0.03850000
v -0.03644551 -0.05583283 0.03690000
v -0.04132022 -0.05263656 0.03850000
v -0.04132022 -0.05263656 0.03690000
v -0.04411367 -0.04752036 0.03850000
v -0.04416671 -0.04169145 0.03850000
v -0.04416671 -0.04169145 0.03690000
v -0.04146681 -0.03652527 0.03850000
v -0.04146681 -0.03652527 0.03690000
v -0.03665106 -0.03324084 0.03850000
v -0.03665106 -0.03324084 0.03690000
v -0.03085580 -0.03261317 0.03850000
v -0.03085580 -0.03261317 0.03690000
v -0.02544852 -0.03479038 0.03850000
v -0.02544852 -0.03479038 0.03690000
v -0.02170514 -0.03925872 0.03850000
v -0.02767741 -0.05509904 0.03690000
v -0.03522286 -0.05594278 0.03690000
v -0.04411367 -0.04752036 0.03690000
v -0.01348450 -0.04767713 0.03690000
v -0.01357468 -0.04792650 0.03690000
v -0.01357521 -0.04792797 0.03690000
v -0.01386535 -0.04822344 0.03690000
v -0.01348668 -0.04587708 0.03690000
v -0.01348214 -0.04637706 0.03690000
v -0.01351944 -0.04227723 0.03690000
v -0.01393618 -0.04043812 0.03690000
v -0.01364071 -0.04072827 0.03690000
v -0.01361971 -0.04078320 0.03690000
v -0.01354545 -0.04097741 0.03690000
v -0.02889364 -0.03340323 0.03690000
v -0.03255301 -0.03279699 0.03690000
v -0.03355417 -0.03290542 0.03690000
f 3 28 2
f 1 2 27
f 2 28 27
f 4 6 23
f 6 7 23
f 23 5 4
f 38 15 17
f 16 15 38
f 20 19 32
f 31 35 21
f 33 19 21
f 32 19 33
f 22 2 4
f 4 5 22
f 22 3 2
f 30 1 25
f 17 18 37
f 37 38 17
f 17 19 36
f 36 18 17
f 19 20 36
f 29 21 1
f 29 1 30
f 29 31 21
f 21 35 34
f 34 33 21
f 1 27 26
f 26 25 1
f 6 2 1
f 4 2 6
f 6 21 8
f 1 21 6
f 7 6 8
f 7 8 9
f 17 15 19
f 19 13 11
f 11 10 19
f 8 21 19
f 19 10 8
f 19 15 13
f 13 15 14
f 14 15 16
f 11 13 14
f 14 12 11
f 8 10 24
f 9 8 24
f 24 10 11
f 11 12 24
f 32 33 26
f 26 14 16
f 5 23 26
f 26 7 9
f 26 20 32
f 9 24 26
f 26 22 5
f 16 38 26
f 18 36 26
f 12 14 26
f 26 24 12
f 28 3 26
f 26 27 28
f 26 23 7
f 30 25 26
f 26 37 18
f 35 31 26
f 26 29 30
f 3 22 26
f 26 34 35
f 38 37 26
f 26 36 20
f 31 29 26
f 33 34 26

