# https://github.com/mikedh/trimesh
v -0.08301133 -0.19650000 0.16500000
v 0.08644543 -0.19513414 0.16800000
v 0.08485920 -0.19614600 0.16800000
v 0.08485920 -0.19614600 0.16500000
v 0.08301132 -0.19650000 0.16800000
v 0.16814785 -0.01608465 0.16800000
v 0.16814785 -0.01608465 0.16500000
v 0.13983256 -0.14350345 0.16500000
v 0.16813673 -0.01386646 0.16500000
v 0.16716713 -0.01187136 0.16800000
v 0.16542988 -0.01049205 0.16500000
v 0.16542988 -0.01049205 0.16800000
v 0.16326692 -0.01000000 0.16500000
v 0.13838572 -0.14605294 0.16500000
v 0.08644543 -0.19513414 0.16500000
v -0.14919578 -0.01351283 0.16500000
v 0.13930019 -0.14488660 0.16800000
v 0.13838572 -0.14605294 0.16800000
v -0.13838573 -0.14605293 0.16800000
v -0.08644543 -0.19513415 0.16500000
v -0.08301133 -0.19650000 0.16800000
v -0.08485920 -0.19614600 0.16800000
v -0.08485920 -0.19614600 0.16500000
v -0.16814785 -0.01608465 0.16800000
v -0.13983257 -0.14350345 0.16500000
v -0.16814785 -0.01608465 0.16500000
v 0.15048717 -0.01480421 0.16500000
v 0.14880421 -0.01351283 0.16500000
v -0.13930019 -0.14488660 0.16500000
v 0.13091313 -0.13419003 0.16500000
v -0.10212165 -0.17536987 0.16500000
v -0.16326692 -0.01000000 0.16800000
v -0.16542988 -0.01049205 0.16800000
v -0.16716713 -0.01187136 0.16500000
v -0.16716713 -0.01187136 0.16800000
v -0.16813673 -0.01386645 0.16500000
v -0.16813673 -0.01386645 0.16800000
v -0.11757135 -0.16044346 0.16500000
v -0.15595191 -0.05019579 0.16500000
v 0.09114530 -0.19069298 0.16500000
v 0.08301132 -0.19650000 0.16500000
v 0.07875884 -0.19650001 0.16500000
v -0.16533799 -0.02872904 0.16500000
v -0.14447386 -0.12261765 0.16500000
v -0.12235331 -0.16120283 0.16500000
v -0.13772681 -0.14667558 0.16500000
v -0.13838573 -0.14605293 0.16500000
v -0.09406466 -0.18793432 0.16500000
v -0.00980421 -0.19198716 0.16500000
v 0.00302534 -0.19650001 0.16500000
v 0.14029826 -0.14140782 0.16500000
v 0.13930019 -0.14488660 0.16500000
v 0.13325810 -0.15089832 0.16500000
v 0.15151195 -0.07009777 0.16500000
v 0.15378860 -0.08070133 0.16500000
v 0.14214269 -0.13310792 0.16500000
v 0.16383832 -0.03547757 0.16500000
v 0.16716713 -0.01187136 0.16500000
v 0.08027617 -0.01000000 0.16500000
v -0.16804911 -0.01368615 0.16500000
v -0.16542988 -0.01049205 0.16500000
v -0.16326692 -0.01000000 0.16500000
v -0.16192441 -0.01000000 0.16500000
v -0.13148717 -0.13319579 0.16500000
v 0.01091314 -0.19169003 0.16500000
v 0.15595192 -0.04980421 0.16500000
v -0.16533799 -0.02872904 0.16800000
v 0.08779808 -0.19385593 0.16800000
v 0.09114530 -0.19069298 0.16800000
v -0.02374282 -0.06150000 0.16800000
v 0.16326692 -0.01000000 0.16800000
v 0.16813673 -0.01386646 0.16800000
v 0.15378860 -0.08070133 0.16800000
v 0.14029826 -0.14140782 0.16800000
v 0.13325810 -0.15089832 0.16800000
v 0.13983256 -0.14350345 0.16800000
v 0.07875884 -0.19650001 0.16800000
v 0.00302534 -0.19650001 0.16800000
v -0.08644543 -0.19513415 0.16800000
v -0.09406466 -0.18793432 0.16800000
v -0.13772681 -0.14667558 0.16800000
v -0.13930019 -0.14488660 0.16800000
v -0.13983257 -0.14350345 0.16800000
v -0.16804911 -0.01368615 0.16800000
v -0.16192441 -0.01000000 0.16800000
v 0.12310408 -0.01000000 0.16800000
v 0.14056410 -0.01000000 0.16800000
v 0.16383832 -0.03547757 0.16800000
v 0.14214269 -0.13310792 0.16800000
v 0.08027617 -0.01000000 0.16800000
v -0.14447386 -0.12261765 0.16800000
f 68 3 2
f 69 68 2
f 86 87 71
f 71 90 86
f 57 55 7
f 40 15 53
f 25 39 64
f 61 62 16
f 71 12 13
f 13 12 11
f 13 28 63
f 63 59 13
f 84 32 33
f 84 33 35
f 84 37 24
f 85 32 84
f 84 67 85
f 24 67 84
f 24 37 36
f 36 26 24
f 37 84 36
f 36 84 60
f 34 84 35
f 60 84 34
f 29 47 19
f 19 82 29
f 78 50 42
f 42 77 78
f 1 50 78
f 78 21 1
f 20 23 22
f 22 79 20
f 22 23 1
f 1 21 22
f 7 9 72
f 6 7 72
f 58 12 10
f 11 12 58
f 10 72 58
f 58 72 9
f 52 76 17
f 8 76 52
f 30 54 52
f 52 54 8
f 77 5 68
f 5 3 68
f 35 33 61
f 61 34 35
f 81 19 47
f 47 46 81
f 43 67 24
f 24 26 43
f 29 82 25
f 82 83 25
f 67 43 91
f 91 43 44
f 44 25 91
f 91 25 83
f 3 4 15
f 2 3 15
f 41 77 42
f 41 5 77
f 41 3 5
f 41 4 3
f 30 4 41
f 41 65 30
f 41 50 1
f 42 50 41
f 1 49 41
f 49 65 41
f 51 76 8
f 51 74 76
f 51 56 89
f 89 74 51
f 30 52 14
f 14 15 4
f 14 4 30
f 53 15 14
f 14 75 53
f 18 75 14
f 14 52 17
f 17 18 14
f 71 13 90
f 90 13 59
f 90 59 63
f 63 85 90
f 62 32 85
f 62 85 63
f 33 32 62
f 62 61 33
f 80 48 20
f 20 79 80
f 46 48 80
f 80 81 46
f 80 78 77
f 80 22 21
f 21 78 80
f 79 22 80
f 27 54 28
f 27 66 54
f 28 13 27
f 27 13 11
f 11 58 27
f 27 9 7
f 7 66 27
f 27 58 9
f 71 87 88
f 10 12 88
f 88 12 71
f 88 72 10
f 6 72 88
f 89 56 55
f 55 73 89
f 8 54 55
f 55 51 8
f 56 51 55
f 54 66 55
f 55 66 7
f 69 87 68
f 69 18 17
f 89 73 69
f 69 75 18
f 73 88 69
f 17 76 69
f 69 88 87
f 76 74 69
f 69 74 89
f 44 43 39
f 39 43 26
f 39 25 44
f 31 54 30
f 28 54 31
f 31 38 28
f 30 65 31
f 31 65 49
f 31 49 1
f 1 23 31
f 57 7 6
f 6 88 57
f 57 88 73
f 73 55 57
f 53 75 40
f 75 69 40
f 2 15 40
f 40 69 2
f 68 87 70
f 77 68 70
f 70 91 83
f 67 91 70
f 70 83 82
f 82 19 70
f 19 81 70
f 70 80 77
f 81 80 70
f 85 67 70
f 70 90 85
f 70 86 90
f 87 86 70
f 64 38 29
f 29 25 64
f 28 38 16
f 16 64 39
f 38 64 16
f 63 28 16
f 16 62 63
f 16 39 26
f 26 36 16
f 60 34 16
f 16 36 60
f 34 61 16
f 45 48 46
f 20 48 45
f 29 38 45
f 45 47 29
f 45 46 47
f 45 31 23
f 45 23 20
f 38 31 45

