# https://github.com/mikedh/trimesh
v 0.09400000 -0.05050000 0.10750000
v 0.09350000 -0.05050000 0.10700000
v 0.08850000 -0.08950000 0.10700000
v 0.08850000 -0.09000000 0.10750000
v 0.08800000 -0.08950000 0.10750000
v 0.08800000 -0.08950000 0.11250000
v 0.08800000 -0.05050000 0.11250000
v 0.09350000 -0.05000000 0.11250000
v 0.09350000 -0.05000000 0.10750000
v 0.08850000 -0.08950000 0.11300000
v 0.08850000 -0.09000000 0.11250000
v 0.09350000 -0.08950000 0.11300000
v 0.09350000 -0.09000000 0.11250000
v 0.09400000 -0.05050000 0.11250000
v 0.09350000 -0.05050000 0.11300000
v 0.08850000 -0.05000000 0.10750000
v 0.08850000 -0.05050000 0.11300000
v 0.09350000 -0.09000000 0.10750000
v 0.09400000 -0.08950000 0.11250000
v 0.09400000 -0.08950000 0.10750000
v 0.08800000 -0.05050000 0.10750000
v 0.08850000 -0.05050000 0.10700000
v 0.09350000 -0.08950000 0.10700000
v 0.08850000 -0.05000000 0.11250000
f 3 4 5
f 10 6 11
f 14 8 15
f 2 9 1
f 12 13 19
f 18 23 20
f 7 17 24
f 21 16 22
f 6 17 7
f 10 17 6
f 11 6 5
f 5 4 11
f 8 14 9
f 9 14 1
f 17 10 12
f 12 15 17
f 12 10 13
f 10 11 13
f 2 23 3
f 3 22 2
f 20 23 2
f 1 20 2
f 16 2 22
f 9 2 16
f 1 14 19
f 19 20 1
f 19 15 12
f 19 14 15
f 18 11 4
f 18 13 11
f 20 19 18
f 18 19 13
f 3 23 18
f 4 3 18
f 24 17 15
f 15 8 24
f 8 9 24
f 9 16 24
f 21 24 16
f 7 24 21
f 21 6 7
f 5 6 21
f 21 3 5
f 21 22 3

