# https://github.com/mikedh/trimesh
v -0.09565906 -0.01014057 0.30346074
v -0.09565180 -0.01008799 0.30795220
v -0.09768125 -0.02160536 0.30483522
v -0.09768776 -0.02163465 0.30783506
v -0.09615586 -0.01295428 0.30492298
v 0.09639695 -0.02556598 0.30521759
v 0.09639044 -0.02559527 0.30821743
v 0.05352105 -0.06011959 0.30478725
v -0.00015137 -0.07249369 0.30755016
v -0.00014486 -0.07246440 0.30455032
v -0.05381753 -0.06014774 0.30755426
v -0.05381102 -0.06011845 0.30455442
v -0.09668766 -0.02556394 0.30479873
v 0.09534775 -0.01009002 0.30836653
v 0.09540556 -0.01032624 0.30421363
v 0.09738395 -0.02163671 0.30825823
v 0.09739046 -0.02160743 0.30525839
v 0.09586488 -0.01295631 0.30533953
v -0.09534810 -0.00872135 0.16795921
v 0.00015223 -0.06131497 0.16765295
v 0.05466456 -0.04729791 0.16790805
v -0.09760679 -0.02369064 0.30481503
v -0.05436040 -0.04729675 0.16767154
v 0.09730954 -0.02372199 0.30823771
v -0.06549405 -0.05073757 0.30762079
v 0.03595760 -0.06418751 0.30770958
v 0.06519086 -0.05073896 0.30790429
v -0.09761330 -0.02371992 0.30781487
v -0.09669416 -0.02559322 0.30779857
v 0.05351454 -0.06014887 0.30778709
v 0.08893272 -0.03160544 0.30814258
v -0.03626051 -0.06418675 0.30755292
v 0.09565145 -0.00872337 0.16837354
v 0.06519736 -0.05070967 0.30490444
v 0.03596411 -0.06415823 0.30470974
v -0.06548754 -0.05070829 0.30462095
v -0.09728378 -0.02434897 0.30480930
v -0.03625400 -0.06415746 0.30455308
v 0.08893923 -0.03157615 0.30514274
v 0.09699305 -0.02435103 0.30523074
v 0.09731605 -0.02369270 0.30523787
f 20 12 23
f 23 13 19
f 4 2 5
f 33 18 17
f 38 12 20
f 20 10 38
f 20 8 35
f 35 10 20
f 36 23 12
f 13 23 36
f 1 2 19
f 19 5 1
f 1 5 2
f 15 33 14
f 14 18 15
f 18 33 15
f 41 33 17
f 21 8 20
f 21 33 6
f 19 22 3
f 4 5 3
f 3 5 19
f 19 13 37
f 37 22 19
f 13 29 37
f 22 37 28
f 28 37 29
f 17 18 16
f 16 18 14
f 8 21 34
f 6 33 40
f 33 41 40
f 40 7 6
f 7 40 24
f 24 40 41
f 39 21 6
f 39 34 21
f 33 2 14
f 19 2 33
f 21 23 19
f 20 23 21
f 19 33 21
f 32 10 9
f 32 38 10
f 32 11 12
f 12 38 32
f 9 10 26
f 10 35 26
f 8 30 26
f 26 35 8
f 4 3 28
f 28 3 22
f 12 11 25
f 25 36 12
f 25 29 13
f 13 36 25
f 24 41 17
f 17 16 24
f 27 30 8
f 8 34 27
f 31 32 9
f 31 2 4
f 14 2 31
f 31 25 11
f 9 26 31
f 4 28 31
f 7 24 31
f 11 32 31
f 31 26 30
f 31 28 29
f 29 25 31
f 31 16 14
f 31 24 16
f 30 27 31
f 7 31 39
f 6 7 39
f 39 27 34
f 39 31 27

