# https://github.com/mikedh/trimesh
v 0.15319134 -0.02310000 0.23646194
v 0.15335355 -0.02310000 0.23635355
v 0.15350000 -0.02310000 0.23600000
v 0.11263397 -0.01200000 0.20100000
v 0.15336603 -0.01200000 0.24100000
v 0.15300000 -0.01200000 0.24136603
v 0.15250000 -0.01200000 0.24150000
v 0.11350000 -0.01200000 0.24150000
v 0.11350000 -0.01200000 0.20050000
v 0.15350000 -0.01200000 0.20150000
v 0.15300000 -0.01200000 0.20063397
v 0.11250000 -0.01360000 0.24050000
v 0.11350000 -0.01360000 0.24150000
v 0.11263397 -0.01360000 0.24100000
v 0.15350000 -0.01360000 0.24050000
v 0.15350000 -0.01200000 0.24050000
v 0.15250000 -0.01360000 0.24150000
v 0.14800000 -0.02310000 0.23950000
v 0.15350000 -0.02310000 0.20600000
v 0.11780757 -0.02310000 0.23946149
v 0.11800000 -0.02310000 0.23950000
v 0.14819134 -0.02310000 0.23946194
v 0.15346194 -0.02310000 0.23619134
v 0.15335355 -0.02310000 0.20564645
v 0.11253806 -0.02310000 0.20580866
v 0.11264645 -0.02310000 0.20564645
v 0.11264645 -0.02310000 0.23635355
v 0.11250000 -0.02310000 0.23600000
v 0.11280866 -0.02310000 0.20553806
v 0.15350000 -0.01360000 0.20150000
v 0.15300000 -0.01360000 0.20063397
v 0.11280866 -0.02310000 0.23646194
v 0.11253806 -0.02310000 0.23619134
v 0.15319134 -0.02310000 0.20553806
v 0.15346194 -0.02310000 0.20580866
v 0.11250000 -0.02310000 0.20600000
v 0.11263397 -0.01360000 0.20100000
v 0.11300000 -0.01360000 0.20063397
v 0.11350000 -0.01360000 0.20050000
v 0.11250000 -0.01360000 0.20150000
v 0.15336603 -0.01360000 0.24100000
v 0.15300000 -0.01360000 0.24136603
v 0.11744949 -0.02310000 0.20250000
v 0.14855051 -0.02310000 0.20250000
v 0.12032033 -0.01060000 0.23537921
v 0.12051439 -0.01060000 0.23574504
v 0.12086537 -0.01060000 0.23596482
v 0.12127921 -0.01060000 0.23597967
v 0.12037419 -0.01060000 0.20646355
v 0.12030320 -0.01060000 0.20687153
v 0.12102847 -0.01060000 0.20600320
v 0.12063966 -0.01060000 0.20614572
v 0.11250000 -0.01200000 0.20150000
v 0.11300000 -0.01200000 0.20063397
v 0.14497153 -0.01060000 0.23599680
v 0.14562581 -0.01060000 0.23553645
v 0.14569680 -0.01060000 0.23512847
v 0.14536034 -0.01060000 0.23585428
v 0.14569680 -0.01060000 0.21172847
v 0.15250000 -0.01200000 0.20050000
v 0.15250000 -0.01360000 0.20050000
v 0.12030320 -0.01060000 0.23027153
v 0.15336603 -0.01200000 0.20100000
v 0.15336603 -0.01360000 0.20100000
v 0.14567967 -0.01060000 0.20662079
v 0.11300000 -0.01200000 0.24136603
v 0.11300000 -0.01360000 0.24136603
v 0.11263397 -0.01200000 0.24100000
v 0.11250000 -0.01200000 0.24050000
v 0.14513463 -0.01060000 0.20603518
v 0.14472079 -0.01060000 0.20602033
v 0.14548561 -0.01060000 0.20625496
f 36 40 25
f 43 38 39
f 25 40 37
f 25 37 26
f 26 37 38
f 31 44 61
f 7 55 8
f 6 55 7
f 38 43 29
f 29 26 38
f 3 15 23
f 34 31 24
f 44 31 34
f 24 31 64
f 11 60 70
f 22 42 17
f 22 17 18
f 41 23 15
f 2 23 41
f 41 42 2
f 24 64 35
f 35 30 19
f 64 30 35
f 8 55 48
f 48 47 8
f 60 9 51
f 51 9 54
f 2 42 1
f 42 22 1
f 8 47 66
f 67 32 20
f 21 13 20
f 20 13 67
f 67 14 27
f 27 32 67
f 10 63 65
f 71 70 60
f 60 51 71
f 54 4 52
f 52 51 54
f 68 45 69
f 33 27 14
f 33 12 28
f 33 14 12
f 72 65 63
f 72 63 11
f 11 70 72
f 10 65 59
f 56 5 16
f 16 57 56
f 49 4 53
f 49 52 4
f 45 68 46
f 46 68 66
f 46 66 47
f 69 45 62
f 6 5 58
f 5 56 58
f 58 55 6
f 50 49 53
f 28 12 69
f 69 36 28
f 69 53 40
f 40 36 69
f 39 61 44
f 44 43 39
f 61 60 31
f 31 60 11
f 42 7 17
f 6 7 42
f 9 61 39
f 9 60 61
f 39 38 9
f 38 54 9
f 40 53 4
f 4 37 40
f 4 54 38
f 38 37 4
f 13 21 18
f 18 17 13
f 17 7 13
f 13 7 8
f 15 16 41
f 16 5 41
f 6 42 41
f 41 5 6
f 3 19 30
f 30 15 3
f 10 16 30
f 30 16 15
f 63 31 11
f 63 64 31
f 10 30 63
f 63 30 64
f 66 13 8
f 67 13 66
f 68 69 12
f 12 14 68
f 67 66 68
f 68 14 67
f 33 36 25
f 21 20 33
f 33 34 24
f 33 22 18
f 33 29 43
f 28 36 33
f 25 26 33
f 33 19 3
f 18 21 33
f 3 23 33
f 43 44 33
f 26 29 33
f 33 23 2
f 44 34 33
f 24 35 33
f 2 1 33
f 33 35 19
f 33 1 22
f 33 20 32
f 32 27 33
f 59 16 10
f 59 57 16
f 70 71 50
f 50 48 55
f 52 49 50
f 47 48 50
f 50 46 47
f 51 52 50
f 50 72 70
f 57 59 50
f 50 71 51
f 50 59 65
f 65 72 50
f 50 62 45
f 50 56 57
f 55 58 50
f 45 46 50
f 50 58 56
f 53 69 50
f 69 62 50

