# https://github.com/mikedh/trimesh
v -0.08000000 0.02350000 0.12700000
v -0.08000000 0.02350000 0.13100000
v -0.08250000 0.02416987 0.12700000
v -0.08433013 0.02600000 0.13100000
v -0.08433013 0.02600000 0.12700000
v -0.08500000 0.02850000 0.13100000
v -0.08500000 0.02850000 0.12700000
v 0.08500000 0.02850000 0.12700000
v 0.08433012 0.02600000 0.12700000
v 0.08250000 0.02416987 0.13100000
v 0.08000001 0.02350000 0.13100000
v 0.08000001 0.02350000 0.12700000
v -0.08500000 0.08850000 0.12700000
v -0.08500000 0.08850000 0.13100000
v -0.08433013 0.09100000 0.13100000
v -0.08250000 0.09283013 0.13100000
v -0.08250000 0.09283013 0.12700000
v 0.08000001 0.09350000 0.13100000
v 0.08250000 0.09283013 0.13100000
v 0.08250000 0.09283013 0.12700000
v 0.08433012 0.09100000 0.13100000
v 0.08433012 0.09100000 0.12700000
v 0.08500000 0.08850000 0.13100000
v 0.08500000 0.08850000 0.12700000
v 0.08500000 0.02850000 0.13100000
v 0.08471669 0.08955737 0.13100000
v -0.08250000 0.02416987 0.13100000
v -0.08471668 0.08955737 0.13100000
v -0.08000000 0.09350000 0.13100000
v 0.08433012 0.02600000 0.13100000
v 0.08000001 0.09350000 0.12700000
v 0.08471669 0.08955737 0.12700000
v -0.08000000 0.09350000 0.12700000
v -0.08433013 0.09100000 0.12700000
v -0.08471668 0.08955737 0.12700000
v 0.08250000 0.02416987 0.12700000
f 13 7 14
f 14 7 6
f 1 12 11
f 11 2 1
f 6 7 4
f 7 5 4
f 8 24 25
f 24 23 25
f 9 25 30
f 8 25 9
f 36 9 10
f 10 9 30
f 12 36 10
f 10 11 12
f 13 14 35
f 14 28 35
f 35 28 15
f 15 34 35
f 16 29 17
f 17 29 33
f 17 15 16
f 17 34 15
f 18 31 33
f 33 29 18
f 20 31 18
f 19 20 18
f 27 3 1
f 1 2 27
f 27 5 3
f 27 4 5
f 1 3 32
f 32 24 8
f 32 7 13
f 32 31 20
f 32 5 7
f 8 9 32
f 20 22 32
f 32 12 1
f 32 17 33
f 3 5 32
f 32 36 12
f 13 35 32
f 33 31 32
f 32 9 36
f 32 35 34
f 34 17 32
f 32 23 24
f 32 26 23
f 30 25 21
f 16 15 21
f 21 10 30
f 21 14 6
f 2 11 21
f 21 29 16
f 21 27 2
f 21 28 14
f 6 4 21
f 15 28 21
f 21 18 29
f 19 18 21
f 21 25 23
f 23 26 21
f 11 10 21
f 4 27 21
f 21 22 20
f 21 20 19
f 21 32 22
f 26 32 21

