# https://github.com/mikedh/trimesh
v -0.01500000 -0.18800000 0.16850000
v -0.01450000 -0.18800000 0.16800000
v 0.02450000 -0.19300000 0.16800000
v 0.02500000 -0.19300000 0.16850000
v 0.02450000 -0.19350000 0.16850000
v 0.02450000 -0.19350000 0.17350000
v 0.02450000 -0.19300000 0.17400000
v -0.01450000 -0.19350000 0.17350000
v -0.01450000 -0.19300000 0.17400000
v -0.01450000 -0.18750000 0.16850000
v 0.02500000 -0.18800000 0.17350000
v -0.01450000 -0.18750000 0.17350000
v -0.01450000 -0.18800000 0.17400000
v 0.02500000 -0.19300000 0.17350000
v 0.02450000 -0.18750000 0.16850000
v 0.02450000 -0.18800000 0.16800000
v -0.01450000 -0.19300000 0.16800000
v -0.01500000 -0.19300000 0.16850000
v -0.01450000 -0.19350000 0.16850000
v -0.01500000 -0.19300000 0.17350000
v -0.01500000 -0.18800000 0.17350000
v 0.02500000 -0.18800000 0.16850000
v 0.02450000 -0.18800000 0.17400000
v 0.02450000 -0.18750000 0.17350000
f 6 7 8
f 8 7 9
f 9 20 8
f 13 12 21
f 7 6 14
f 24 23 11
f 19 18 17
f 1 10 2
f 15 22 16
f 4 5 3
f 5 19 3
f 19 17 3
f 6 19 5
f 8 19 6
f 18 19 8
f 8 20 18
f 21 9 13
f 20 9 21
f 21 18 20
f 1 18 21
f 21 10 1
f 21 12 10
f 14 5 4
f 14 6 5
f 22 14 4
f 11 14 22
f 23 14 11
f 7 14 23
f 13 9 23
f 23 9 7
f 11 22 24
f 24 22 15
f 10 12 24
f 15 10 24
f 13 23 24
f 24 12 13
f 2 18 1
f 2 17 18
f 16 10 15
f 16 2 10
f 3 22 4
f 3 16 22
f 17 2 3
f 2 16 3

