# https://github.com/mikedh/trimesh
v -0.04721101 -0.05301975 0.06700000
v -0.02334056 -0.05856961 0.06700000
v -0.01550001 -0.04447718 0.06700000
v -0.03557316 -0.02832174 0.06700000
v -0.04926670 -0.04364750 0.06700000
v -0.04949999 -0.04452282 0.06700000
v -0.04723383 -0.03601977 0.06700000
v -0.04098023 -0.05923383 0.06700000
v -0.03247718 -0.06149999 0.06700000
v -0.01776617 -0.05298023 0.06700000
v -0.01778899 -0.03598025 0.06700000
v -0.02401977 -0.02976617 0.06700000
v -0.02813487 -0.02866945 0.06700000
v -0.03252282 -0.02750001 0.06700000
v -0.02334056 -0.05856961 0.07000000
v -0.02398025 -0.05921101 0.07000000
v -0.04926670 -0.04364750 0.07000000
v -0.04723383 -0.03601977 0.07000000
v -0.03252282 -0.02750001 0.07000000
v -0.02401977 -0.02976617 0.07000000
v -0.01778899 -0.03598025 0.07000000
v -0.01776617 -0.05298023 0.07000000
v -0.04098023 -0.05923383 0.07000000
v -0.04721101 -0.05301975 0.07000000
v -0.03247718 -0.06149999 0.07000000
v -0.02398025 -0.05921101 0.06700000
v -0.04949999 -0.04452282 0.07000000
v -0.04101975 -0.02978899 0.07000000
v -0.04101975 -0.02978899 0.06700000
v -0.01550001 -0.04447718 0.07000000
f 13 4 14
f 14 12 13
f 14 4 29
f 24 1 8
f 24 8 23
f 21 30 11
f 11 30 3
f 20 14 19
f 20 12 14
f 20 11 12
f 21 11 20
f 22 10 3
f 3 30 22
f 25 8 9
f 23 8 25
f 9 26 25
f 25 26 16
f 6 1 27
f 1 24 27
f 18 28 29
f 29 7 18
f 29 28 19
f 19 14 29
f 3 10 2
f 2 1 6
f 4 13 2
f 9 8 2
f 8 1 2
f 2 29 4
f 2 11 3
f 2 26 9
f 12 11 2
f 2 13 12
f 6 5 2
f 7 29 2
f 2 5 7
f 10 22 2
f 22 15 2
f 16 26 2
f 2 15 16
f 17 22 30
f 17 30 21
f 19 28 17
f 17 24 23
f 17 20 19
f 16 15 17
f 23 25 17
f 17 28 18
f 21 20 17
f 17 25 16
f 17 27 24
f 17 15 22
f 18 7 17
f 7 5 17
f 6 27 17
f 17 5 6

