# https://github.com/mikedh/trimesh
v 0.00450000 0.03850000 0.06500000
v 0.00450000 0.04850000 0.11400000
v 0.00450000 0.04936603 0.11350000
v 0.00450000 0.04950000 0.11300000
v 0.00450000 0.03050000 0.06600000
v 0.00450000 0.03050000 0.06900000
v 0.00450000 0.03063398 0.06950000
v 0.00450000 0.04400000 0.06647372
v 0.00450000 0.04463398 0.11350000
v 0.00450000 0.04500000 0.11386603
v 0.00450000 0.04950000 0.07600000
v 0.00150000 0.04950000 0.07600000
v 0.00150000 0.04950000 0.11300000
v 0.00150000 0.03050000 0.06900000
v 0.00150000 0.03050000 0.06600000
v 0.00150000 0.03063398 0.06550000
v 0.00150000 0.03100000 0.06513397
v 0.00150000 0.03150000 0.06500000
v 0.00150000 0.04850000 0.11400000
v 0.00150000 0.04550000 0.11400000
v 0.00150000 0.04463398 0.11350000
v 0.00150000 0.03063398 0.06950000
v 0.00150000 0.04936603 0.11350000
v 0.00150000 0.04900000 0.11386603
v 0.00150000 0.04400000 0.06647372
v 0.00150000 0.04802628 0.07050000
v 0.00450000 0.03063398 0.06550000
v 0.00450000 0.03100000 0.06513397
v 0.00450000 0.03150000 0.06500000
v 0.00450000 0.04550000 0.11400000
v 0.00150000 0.04500000 0.11386603
v 0.00450000 0.04900000 0.11386603
v 0.00150000 0.03850000 0.06500000
v 0.00450000 0.04802628 0.07050000
f 12 4 11
f 13 4 12
f 14 15 6
f 6 15 5
f 22 6 7
f 14 6 22
f 19 30 2
f 20 30 19
f 8 1 33
f 25 8 33
f 18 33 29
f 29 33 1
f 34 12 11
f 34 26 12
f 25 26 34
f 34 8 25
f 21 7 9
f 21 22 7
f 23 4 13
f 23 3 4
f 28 17 18
f 18 29 28
f 24 19 2
f 2 32 24
f 24 32 3
f 3 23 24
f 27 32 2
f 11 4 27
f 27 6 5
f 2 30 27
f 27 34 11
f 9 7 27
f 4 3 27
f 27 1 8
f 7 6 27
f 27 10 9
f 27 29 1
f 8 34 27
f 3 32 27
f 27 28 29
f 30 10 27
f 5 15 27
f 15 16 27
f 27 16 17
f 17 28 27
f 31 26 25
f 13 12 31
f 18 17 31
f 31 15 14
f 14 22 31
f 19 24 31
f 12 26 31
f 25 33 31
f 20 19 31
f 31 23 13
f 31 33 18
f 22 21 31
f 31 16 15
f 17 16 31
f 31 24 23
f 31 30 20
f 31 10 30
f 31 21 9
f 9 10 31

