# https://github.com/mikedh/trimesh
v -0.00150000 0.06794487 0.05900000
v -0.00150000 0.07250000 0.07600000
v -0.00150000 0.07236603 0.11350000
v -0.00150000 0.07150000 0.11400000
v -0.00150000 0.07250000 0.11300000
v -0.00150000 0.03850000 0.04200000
v -0.00150000 0.03063398 0.04250000
v -0.00150000 0.03050000 0.04600000
v -0.00150000 0.03063398 0.04650000
v -0.00150000 0.06832014 0.11395180
v -0.00150000 0.06800000 0.11386603
v -0.00150000 0.06763398 0.11350000
v -0.00150000 0.06850000 0.11400000
v -0.00150000 0.05550000 0.04655514
v -0.00450000 0.06850000 0.11400000
v -0.00450000 0.06800000 0.11386603
v -0.00450000 0.06763398 0.11350000
v -0.00150000 0.03050000 0.04300000
v -0.00450000 0.03050000 0.04300000
v -0.00450000 0.03063398 0.04250000
v -0.00450000 0.03100000 0.04213397
v -0.00150000 0.03100000 0.04213397
v -0.00150000 0.03150000 0.04200000
v -0.00450000 0.03063398 0.04650000
v -0.00450000 0.03050000 0.04600000
v -0.00450000 0.07236603 0.11350000
v -0.00450000 0.07200000 0.11386603
v -0.00150000 0.07200000 0.11386603
v -0.00450000 0.07250000 0.11300000
v -0.00450000 0.07250000 0.07600000
v -0.00450000 0.03850000 0.04200000
v -0.00450000 0.05550000 0.04655514
v -0.00450000 0.06794487 0.05900000
v -0.00450000 0.03150000 0.04200000
v -0.00450000 0.07150000 0.11400000
v -0.00450000 0.06832014 0.11395180
f 30 5 2
f 30 29 5
f 33 30 1
f 1 30 2
f 32 33 1
f 1 14 32
f 6 31 32
f 32 14 6
f 17 24 9
f 9 12 17
f 31 6 23
f 23 34 31
f 16 17 11
f 17 12 11
f 8 24 25
f 8 9 24
f 4 28 35
f 35 28 27
f 35 13 4
f 35 15 13
f 5 29 3
f 29 26 3
f 3 26 27
f 27 28 3
f 21 34 22
f 34 23 22
f 22 20 21
f 22 7 20
f 25 19 18
f 18 8 25
f 18 28 4
f 2 5 18
f 18 11 12
f 18 1 2
f 14 1 18
f 18 6 14
f 4 13 18
f 12 9 18
f 13 10 18
f 18 23 6
f 18 22 23
f 9 8 18
f 5 3 18
f 18 10 11
f 18 3 28
f 7 22 18
f 19 20 18
f 20 7 18
f 36 30 33
f 29 30 36
f 21 20 36
f 36 33 32
f 32 31 36
f 36 17 16
f 25 24 36
f 36 19 25
f 36 24 17
f 36 35 27
f 31 34 36
f 36 34 21
f 36 20 19
f 36 26 29
f 27 26 36
f 15 35 36
f 16 11 36
f 11 10 36
f 13 15 36
f 36 10 13

