# https://github.com/mikedh/trimesh
v 0.08500000 0.02550000 0.13100000
v -0.08500000 0.02550000 0.16500000
v -0.08473205 0.02450000 0.16500000
v -0.08400000 0.02376795 0.13100000
v -0.08400000 0.02376795 0.16500000
v -0.08300000 0.02350000 0.13100000
v -0.08300000 0.02350000 0.16500000
v -0.08300000 0.09350000 0.16500000
v -0.08400000 0.09323205 0.16500000
v -0.08473205 0.09250000 0.13100000
v -0.08473205 0.09250000 0.16500000
v -0.08500000 0.09150000 0.16500000
v -0.02080490 0.10833128 0.16500000
v -0.02080490 0.10833128 0.13100000
v -0.00000000 0.11250000 0.16500000
v -0.00000000 0.11250000 0.13100000
v 0.02080490 0.10833128 0.13100000
v 0.02080490 0.00866872 0.16500000
v 0.02080490 0.00866872 0.13100000
v -0.00000000 0.00450000 0.16500000
v -0.00000000 0.00450000 0.13100000
v -0.02080490 0.00866872 0.16500000
v -0.02080490 0.00866872 0.13100000
v 0.08300000 0.02350000 0.13100000
v 0.08400000 0.09323205 0.13100000
v 0.08300000 0.09350000 0.13100000
v -0.08300000 0.09350000 0.13100000
v -0.08500000 0.09150000 0.13100000
v -0.08400000 0.09323205 0.13100000
v -0.08500000 0.02550000 0.13100000
v -0.08473205 0.02450000 0.13100000
v 0.08300000 0.02350000 0.16500000
v 0.08400000 0.02376795 0.13100000
v 0.08400000 0.02376795 0.16500000
v 0.08473205 0.02450000 0.13100000
v 0.08473205 0.02450000 0.16500000
v 0.08300000 0.09350000 0.16500000
v 0.02080490 0.10833128 0.16500000
v -0.00001785 0.11249642 0.16500000
v 0.08400000 0.09323205 0.16500000
v 0.08473205 0.09250000 0.16500000
v 0.08500000 0.09150000 0.16500000
v 0.08500000 0.02550000 0.16500000
v 0.08500000 0.09150000 0.13100000
v 0.08473205 0.09250000 0.13100000
f 15 16 39
f 16 14 39
f 39 14 13
f 38 17 16
f 38 16 15
f 27 8 13
f 13 14 27
f 28 12 11
f 28 11 10
f 2 12 30
f 12 28 30
f 35 1 43
f 36 35 43
f 19 18 20
f 19 20 21
f 42 43 44
f 44 43 1
f 41 42 44
f 44 45 41
f 40 45 25
f 41 45 40
f 17 38 26
f 38 37 26
f 37 40 26
f 26 40 25
f 11 9 29
f 10 11 29
f 29 9 8
f 8 27 29
f 3 30 31
f 2 30 3
f 5 3 4
f 4 3 31
f 22 23 21
f 21 20 22
f 6 22 7
f 23 22 6
f 7 5 6
f 5 4 6
f 34 9 11
f 15 39 34
f 36 43 34
f 34 12 2
f 34 42 41
f 11 12 34
f 34 38 15
f 41 40 34
f 34 22 20
f 13 8 34
f 2 3 34
f 34 43 42
f 20 18 34
f 34 37 38
f 8 9 34
f 34 39 13
f 34 5 7
f 34 40 37
f 34 3 5
f 7 22 34
f 18 32 34
f 18 19 24
f 24 32 18
f 33 44 1
f 33 19 21
f 21 23 33
f 16 17 33
f 17 26 33
f 31 30 33
f 45 44 33
f 33 14 16
f 33 28 10
f 33 1 35
f 25 45 33
f 33 27 14
f 10 29 33
f 33 30 28
f 23 6 33
f 33 26 25
f 33 29 27
f 33 4 31
f 33 6 4
f 33 24 19
f 33 35 36
f 36 34 33
f 33 34 32
f 32 24 33

