# https://github.com/mikedh/trimesh
v 0.16400000 -0.01250000 0.16850000
v 0.12450000 -0.01200000 0.17350000
v 0.12400000 -0.01250000 0.17350000
v 0.12450000 -0.01250000 0.17400000
v 0.12450000 -0.01750000 0.17400000
v 0.12450000 -0.01800000 0.17350000
v 0.16350000 -0.01750000 0.17400000
v 0.16350000 -0.01250000 0.16800000
v 0.12400000 -0.01750000 0.17350000
v 0.12450000 -0.01800000 0.16850000
v 0.16350000 -0.01750000 0.16800000
v 0.16400000 -0.01750000 0.16850000
v 0.16350000 -0.01800000 0.16850000
v 0.12450000 -0.01250000 0.16800000
v 0.12450000 -0.01200000 0.16850000
v 0.16350000 -0.01200000 0.17350000
v 0.16400000 -0.01250000 0.17350000
v 0.16350000 -0.01200000 0.16850000
v 0.16350000 -0.01250000 0.17400000
v 0.16400000 -0.01750000 0.17350000
v 0.16350000 -0.01800000 0.17350000
v 0.12400000 -0.01750000 0.16850000
v 0.12450000 -0.01750000 0.16800000
v 0.12400000 -0.01250000 0.16850000
f 6 5 9
f 21 20 7
f 13 11 12
f 19 17 16
f 1 8 18
f 3 4 2
f 23 10 22
f 14 24 15
f 5 19 4
f 7 19 5
f 9 4 3
f 9 5 4
f 7 5 21
f 21 5 6
f 17 19 7
f 7 20 17
f 23 8 11
f 14 8 23
f 12 21 13
f 20 21 12
f 12 17 20
f 1 17 12
f 11 8 12
f 12 8 1
f 10 23 11
f 10 11 13
f 10 21 6
f 13 21 10
f 18 17 1
f 18 16 17
f 4 19 2
f 19 16 2
f 22 9 3
f 3 24 22
f 14 23 22
f 22 24 14
f 22 10 6
f 6 9 22
f 15 24 3
f 3 2 15
f 16 18 15
f 15 2 16
f 15 8 14
f 15 18 8

