# https://github.com/mikedh/trimesh
v -0.03110288 -0.04411199 0.04560000
v -0.03148407 -0.04346541 0.04560000
v -0.03213747 -0.04309605 0.04560000
v -0.03288801 -0.04310288 0.04560000
v -0.03353459 -0.04348407 0.04560000
v -0.03390395 -0.04413747 0.04560000
v -0.03389712 -0.04488801 0.04560000
v -0.03351593 -0.04553459 0.04560000
v -0.03286253 -0.04590395 0.04560000
v -0.03146541 -0.04551593 0.04560000
v -0.03109605 -0.04486253 0.04560000
v -0.03211199 -0.04589712 0.04560000
v -0.03464053 -0.04239807 0.02320000
v -0.03540472 -0.04374994 0.02320000
v -0.03539059 -0.04530279 0.02320000
v -0.03460193 -0.04664053 0.02320000
v -0.03325006 -0.04740472 0.02320000
v -0.03169721 -0.04739059 0.02320000
v -0.03035947 -0.04660193 0.02320000
v -0.02959528 -0.04525006 0.02320000
v -0.02960941 -0.04369721 0.02320000
v -0.03039807 -0.04235947 0.02320000
v -0.03174994 -0.04159528 0.02320000
v -0.03330279 -0.04160941 0.02320000
v -0.03153647 -0.04423240 0.04970000
v -0.03179936 -0.04378649 0.04970000
v -0.03224998 -0.04353176 0.04970000
v -0.03276760 -0.04353647 0.04970000
v -0.03321351 -0.04379936 0.04970000
v -0.03346824 -0.04424998 0.04970000
v -0.03320064 -0.04521351 0.04970000
v -0.03275002 -0.04546824 0.04970000
v -0.03223240 -0.04546353 0.04970000
v -0.03178649 -0.04520064 0.04970000
v -0.03153176 -0.04475002 0.04970000
v -0.03200054 -0.04499045 0.05000000
v -0.03171107 -0.04470372 0.04997716
v -0.03182223 -0.04467501 0.05000000
v -0.03171491 -0.04428196 0.04997716
v -0.03182553 -0.04431268 0.05000000
v -0.03192911 -0.04391863 0.04997716
v -0.03200955 -0.04400054 0.05000000
v -0.03229628 -0.04371107 0.04997716
v -0.03232499 -0.04382223 0.05000000
v -0.03271804 -0.04371491 0.04997716
v -0.03268732 -0.04382553 0.05000000
v -0.03308137 -0.04392911 0.04997716
v -0.03299946 -0.04400955 0.05000000
v -0.03328893 -0.04429628 0.04997716
v -0.03317777 -0.04432499 0.05000000
v -0.03328509 -0.04471804 0.04997716
v -0.03307089 -0.04508137 0.04997716
v -0.03299045 -0.04499946 0.05000000
v -0.03270372 -0.04528893 0.04997716
v -0.03267501 -0.04517777 0.05000000
v -0.03228196 -0.04528509 0.04997716
v -0.03231268 -0.04517447 0.05000000
v -0.03191863 -0.04507089 0.04997716
v -0.03161684 -0.04472805 0.04991213
v -0.03162113 -0.04425592 0.04991213
v -0.03186092 -0.04384918 0.04991213
v -0.03227195 -0.04361684 0.04991213
v -0.03274408 -0.04362113 0.04991213
v -0.03315081 -0.04386092 0.04991213
v -0.03338316 -0.04427195 0.04991213
v -0.03337887 -0.04474408 0.04991213
v -0.03313908 -0.04515082 0.04991213
v -0.03272805 -0.04538316 0.04991213
v -0.03225592 -0.04537887 0.04991213
v -0.03184918 -0.04513908 0.04991213
v -0.03155387 -0.04474431 0.04981481
v -0.03155847 -0.04423851 0.04981481
v -0.03181536 -0.04380278 0.04981481
v -0.03225569 -0.04355387 0.04981481
v -0.03276148 -0.04355847 0.04981481
v -0.03319722 -0.04381536 0.04981481
v -0.03344613 -0.04425569 0.04981481
v -0.03344153 -0.04476149 0.04981481
v -0.03318464 -0.04519722 0.04981481
v -0.03274431 -0.04544613 0.04981481
v -0.03223851 -0.04544153 0.04981481
v -0.03180278 -0.04518464 0.04981481
v -0.03346353 -0.04476760 0.04970000
v -0.03317447 -0.04468732 0.05000000
f 17 8 16
f 6 5 14
f 15 16 8
f 19 10 18
f 20 10 19
f 11 10 20
f 14 5 13
f 5 24 13
f 1 21 22
f 4 24 5
f 34 33 10
f 18 10 12
f 10 33 12
f 3 22 23
f 35 11 1
f 10 11 35
f 35 34 10
f 7 15 8
f 74 26 27
f 27 26 3
f 22 3 2
f 3 26 2
f 1 22 2
f 2 26 1
f 28 4 5
f 28 3 4
f 28 27 3
f 74 27 28
f 83 7 8
f 9 8 17
f 9 32 8
f 25 35 1
f 1 26 25
f 41 39 60
f 60 61 41
f 42 40 41
f 41 40 39
f 60 59 71
f 60 39 37
f 37 59 60
f 40 38 37
f 39 40 37
f 37 38 36
f 29 28 5
f 76 28 29
f 75 28 76
f 74 28 75
f 8 32 31
f 31 83 8
f 70 71 59
f 59 37 70
f 56 69 70
f 73 26 74
f 74 61 73
f 35 25 72
f 72 71 35
f 60 71 72
f 72 61 60
f 72 73 61
f 72 25 26
f 26 73 72
f 64 75 76
f 71 70 82
f 34 35 82
f 35 71 82
f 33 34 82
f 58 37 36
f 58 70 37
f 36 56 58
f 56 70 58
f 67 66 79
f 79 31 32
f 32 80 79
f 83 31 79
f 68 69 56
f 67 79 68
f 68 79 80
f 74 75 62
f 45 43 62
f 62 61 74
f 62 41 61
f 62 43 41
f 77 64 76
f 63 64 45
f 75 64 63
f 45 62 63
f 63 62 75
f 49 66 51
f 57 56 36
f 57 55 56
f 81 70 69
f 81 82 70
f 33 82 81
f 69 68 81
f 81 68 80
f 67 68 52
f 52 66 67
f 52 51 66
f 66 77 78
f 83 79 78
f 78 79 66
f 65 66 49
f 65 77 66
f 49 64 65
f 64 77 65
f 5 6 30
f 30 29 5
f 76 29 30
f 30 77 76
f 51 52 84
f 84 50 49
f 49 51 84
f 42 41 44
f 41 43 44
f 45 46 44
f 44 43 45
f 45 64 47
f 47 64 49
f 55 52 54
f 54 52 68
f 56 55 54
f 54 68 56
f 53 52 55
f 53 84 52
f 48 46 45
f 45 47 48
f 49 50 48
f 48 47 49
f 20 21 11
f 11 21 1
f 22 21 20
f 22 15 14
f 20 19 22
f 22 18 17
f 17 16 22
f 22 24 23
f 14 13 22
f 16 15 22
f 22 19 18
f 22 13 24
f 23 24 3
f 24 4 3
f 14 15 7
f 7 6 14
f 17 18 9
f 18 12 9
f 9 12 33
f 33 32 9
f 81 32 33
f 81 80 32
f 6 7 30
f 7 83 30
f 83 78 30
f 30 78 77
f 48 40 42
f 36 38 48
f 48 38 40
f 48 57 36
f 42 44 48
f 55 57 48
f 48 53 55
f 50 84 48
f 48 44 46
f 84 53 48

