# https://github.com/mikedh/trimesh
v -0.13073044 0.06272601 0.16000000
v -0.13075405 0.06267677 0.16041445
v -0.13082303 0.06253266 0.16080000
v -0.13107453 0.06200376 0.16138564
v -0.13141462 0.06127965 0.16160000
v -0.13199423 0.06002103 0.16080000
v -0.13206036 0.05987538 0.15958630
v -0.13208282 0.05982583 0.16000000
v -0.13206014 0.05987586 0.16041565
v -0.08500000 0.11747340 0.11500000
v -0.11012106 0.09433109 0.11500000
v -0.12913172 0.06595453 0.11500000
v -0.11012106 -0.09433109 0.11500000
v -0.12913172 -0.06595453 0.11500000
v -0.14097713 -0.03391829 0.11500000
v -0.14500000 -0.00000000 0.11500000
v -0.11012106 -0.09433109 0.16500000
v -0.12913172 -0.06595453 0.16500000
v -0.14097713 0.03391829 0.16500000
v -0.14500000 -0.00000000 0.16500000
v -0.08500000 -0.11747340 0.11500000
v -0.08500000 -0.11747340 0.16500000
v -0.08500000 0.11747340 0.16500000
v -0.14097713 -0.03391829 0.16500000
v -0.13158892 -0.06090449 0.16154560
v -0.13141462 -0.06127965 0.16160000
v -0.13123924 -0.06165438 0.16154558
v -0.13107453 -0.06200376 0.16138564
v -0.13082303 -0.06253266 0.16080000
v -0.13075419 -0.06267647 0.16041565
v -0.13075396 -0.06267695 0.15958630
v -0.13123924 -0.06165438 0.12154558
v -0.13208282 -0.05982583 0.16000000
v -0.13082303 -0.06253266 0.11920000
v -0.13107453 -0.06200376 0.11861436
v -0.13123891 -0.06165508 0.11845463
v -0.13141462 -0.06127965 0.11840000
v -0.13175072 -0.06055367 0.11861436
v -0.13206030 -0.05987550 0.11958584
v -0.13208282 -0.05982583 0.12000000
v -0.13206027 -0.05987557 0.12041445
v -0.13158928 0.06090372 0.15845463
v -0.13123904 0.06165480 0.15845455
v -0.13075402 0.06267683 0.15958583
v -0.12913172 0.06595453 0.16500000
v -0.13123927 0.06165431 0.16154560
v -0.13158895 0.06090442 0.16154558
v -0.13175072 0.06055367 0.16138564
v -0.13208282 0.05982583 0.12000000
v -0.14097713 0.03391829 0.11500000
v -0.13206036 0.05987538 0.11958630
v -0.13141462 0.06127965 0.11840000
v -0.13158928 0.06090372 0.11845463
v -0.13175072 0.06055367 0.11861436
v -0.13123904 0.06165480 0.11845455
v -0.13107453 0.06200376 0.11861436
v -0.13082303 0.06253266 0.11920000
v -0.13075402 0.06267683 0.11958584
v -0.13073044 0.06272601 0.12000000
v -0.11012106 0.09433109 0.16500000
v -0.13199423 -0.06002103 0.11920000
v -0.13158914 -0.06090399 0.11845455
v -0.13158892 -0.06090449 0.12154560
v -0.13075396 -0.06267695 0.11958630
v -0.13073044 -0.06272601 0.12000000
v -0.13123891 -0.06165508 0.15845463
v -0.13206027 -0.05987557 0.16041445
v -0.13199423 -0.06002103 0.16080000
v -0.13175072 -0.06055367 0.16138564
v -0.13073044 -0.06272601 0.16000000
v -0.13199423 0.06002103 0.11920000
f 38 15 14
f 15 39 40
f 41 40 39
f 61 39 15
f 15 38 61
f 61 41 39
f 12 50 54
f 54 53 12
f 58 59 12
f 12 57 58
f 3 4 45
f 18 24 69
f 69 25 18
f 19 45 48
f 56 57 12
f 12 55 56
f 12 53 52
f 52 55 12
f 46 5 45
f 45 4 46
f 71 54 50
f 28 29 18
f 18 27 28
f 18 25 26
f 26 27 18
f 68 69 24
f 29 31 30
f 30 31 70
f 30 70 18
f 18 29 30
f 9 7 8
f 9 8 19
f 45 5 47
f 47 48 45
f 42 48 47
f 5 42 47
f 43 46 4
f 5 46 43
f 50 49 51
f 51 71 50
f 1 44 2
f 2 44 3
f 45 1 2
f 2 3 45
f 62 38 14
f 37 62 14
f 67 24 33
f 67 68 24
f 7 9 6
f 19 48 6
f 6 9 19
f 14 65 64
f 64 34 14
f 36 37 14
f 62 37 63
f 38 62 63
f 37 36 32
f 66 28 27
f 14 34 35
f 35 36 14
f 20 19 50
f 16 20 50
f 45 11 12
f 45 60 11
f 10 11 23
f 11 60 23
f 13 17 18
f 18 14 13
f 24 23 60
f 18 17 24
f 60 45 24
f 22 23 24
f 24 19 20
f 24 45 19
f 24 17 22
f 16 15 24
f 24 20 16
f 21 23 22
f 10 23 21
f 21 15 16
f 21 11 10
f 16 50 21
f 12 11 21
f 14 15 21
f 21 50 12
f 21 13 14
f 22 17 21
f 17 13 21
f 49 50 19
f 19 8 49
f 40 24 15
f 33 24 40
f 59 45 12
f 59 1 45
f 70 14 18
f 70 65 14
f 53 54 48
f 48 42 53
f 4 3 56
f 56 3 57
f 53 42 52
f 52 42 5
f 1 59 44
f 59 58 44
f 57 3 44
f 44 58 57
f 68 61 38
f 38 69 68
f 4 56 43
f 43 56 55
f 43 52 5
f 55 52 43
f 51 49 8
f 8 7 51
f 61 68 67
f 41 61 67
f 33 40 67
f 40 41 67
f 6 48 54
f 54 71 6
f 6 51 7
f 71 51 6
f 65 70 64
f 70 31 64
f 29 34 64
f 64 31 29
f 63 37 26
f 63 26 25
f 63 69 38
f 25 69 63
f 26 37 32
f 27 26 32
f 27 32 66
f 66 32 36
f 29 28 35
f 35 34 29
f 35 66 36
f 28 66 35

