# https://github.com/mikedh/trimesh
v 0.04998224 0.13611309 0.16154537
v 0.04813784 0.13677627 0.16041416
v 0.04828858 0.13672313 0.16080000
v 0.04884041 0.13652697 0.16138564
v 0.04959292 0.13625543 0.16160000
v 0.04808639 0.13679437 0.16000000
v 0.05089273 0.13577530 0.16080000
v 0.05104248 0.13571906 0.16041370
v 0.05109341 0.13569990 0.16000000
v 0.04808639 0.13679437 0.08000000
v 0.04813791 0.13677624 0.07958555
v 0.04828858 0.13672313 0.07920000
v 0.04884041 0.13652697 0.07861436
v 0.04920400 0.13639636 0.07845440
v 0.04959292 0.13625543 0.07840000
v 0.04998152 0.13611336 0.07845442
v 0.05034392 0.13597974 0.07861436
v 0.05089273 0.13577530 0.07920000
v 0.05109341 0.13569990 0.08000000
v -0.04920320 0.13639665 0.16154537
v -0.05104237 0.13571911 0.16041416
v -0.05089273 0.13577530 0.16080000
v -0.05034392 0.13597974 0.16138564
v -0.04998195 0.13611321 0.16154545
v -0.04959292 0.13625543 0.16160000
v -0.04884041 0.13652697 0.16138564
v -0.04828858 0.13672313 0.16080000
v -0.04813772 0.13677631 0.16041370
v -0.04808639 0.13679437 0.16000000
v -0.04998195 0.13611321 0.08154545
v -0.05109341 0.13569990 0.08000000
v -0.05104230 0.13571914 0.07958555
v -0.05089273 0.13577530 0.07920000
v -0.05034392 0.13597974 0.07861436
v -0.04998144 0.13611339 0.07845440
v -0.04959292 0.13625543 0.07840000
v -0.04920392 0.13639638 0.07845442
v -0.04884041 0.13652697 0.07861436
v -0.04808639 0.13679437 0.08000000
v -0.04813822 0.13677613 0.07958435
v 0.08500000 0.11374973 0.16500000
v 0.08500000 0.11747340 0.16500000
v 0.03005502 0.14185096 0.16500000
v -0.03005502 0.14185096 0.16500000
v -0.08500000 0.11747340 0.16500000
v -0.08500000 0.11374973 0.16500000
v -0.08500000 0.11374973 0.07500000
v -0.03005502 0.14185096 0.07500000
v 0.03005502 0.14185096 0.07500000
v 0.08500000 0.11374973 0.07500000
v 0.08500000 0.11747340 0.07500000
v -0.08500000 0.11747340 0.07500000
v 0.05104199 0.13571925 0.07958435
v 0.04813784 0.13677627 0.08041417
v 0.04920400 0.13639636 0.15845440
v 0.04998152 0.13611336 0.15845442
v 0.05104199 0.13571925 0.15958435
v 0.05034392 0.13597974 0.16138564
v 0.04920349 0.13639654 0.16154545
v -0.05104230 0.13571914 0.15958555
v -0.04828858 0.13672313 0.07920000
v -0.04813772 0.13677631 0.08041370
v -0.04920320 0.13639665 0.08154537
v -0.05109341 0.13569990 0.16000000
f 7 42 8
f 48 52 36
f 32 52 31
f 43 42 5
f 15 51 49
f 8 42 9
f 35 36 52
f 45 21 64
f 45 44 25
f 1 5 42
f 48 38 61
f 48 36 37
f 37 38 48
f 45 25 24
f 5 1 56
f 12 13 49
f 14 15 49
f 49 13 14
f 57 7 8
f 8 9 57
f 60 64 21
f 34 35 52
f 40 39 48
f 48 61 40
f 27 26 44
f 20 25 44
f 44 26 20
f 45 24 23
f 49 10 11
f 11 12 49
f 43 4 3
f 43 5 59
f 59 4 43
f 51 17 18
f 51 15 16
f 16 17 51
f 42 7 58
f 58 1 42
f 58 56 1
f 35 34 30
f 36 35 30
f 39 40 62
f 62 40 61
f 44 29 28
f 28 27 44
f 38 37 63
f 63 37 36
f 22 60 21
f 22 21 45
f 45 23 22
f 54 11 10
f 12 11 54
f 2 6 43
f 43 3 2
f 4 59 55
f 55 59 5
f 53 19 51
f 51 18 53
f 33 52 32
f 33 34 52
f 49 44 43
f 48 44 49
f 41 46 50
f 50 46 47
f 45 46 42
f 42 44 45
f 43 44 42
f 42 46 41
f 52 46 45
f 47 46 52
f 41 50 51
f 51 42 41
f 48 49 51
f 51 52 48
f 51 50 47
f 47 52 51
f 29 44 48
f 48 39 29
f 64 52 45
f 64 31 52
f 6 49 43
f 6 10 49
f 42 51 19
f 19 9 42
f 31 64 60
f 32 31 60
f 38 26 27
f 27 61 38
f 3 4 13
f 13 12 3
f 5 56 16
f 16 15 5
f 58 18 17
f 7 18 58
f 58 16 56
f 17 16 58
f 34 23 30
f 30 23 24
f 30 25 36
f 30 24 25
f 28 29 39
f 39 62 28
f 61 27 28
f 28 62 61
f 63 26 38
f 63 20 26
f 36 25 63
f 25 20 63
f 10 6 2
f 2 54 10
f 2 3 12
f 12 54 2
f 13 4 55
f 55 14 13
f 5 15 55
f 15 14 55
f 53 18 7
f 7 57 53
f 9 19 53
f 53 57 9
f 32 60 33
f 60 22 33
f 33 23 34
f 33 22 23

