# https://github.com/mikedh/trimesh
v 0.15350000 -0.01785000 0.20737500
v 0.15285000 -0.01420000 0.20737500
v 0.15125000 -0.01360000 0.20737500
v 0.15130000 -0.01360000 0.21262500
v 0.15350000 -0.01555000 0.20737500
v 0.15350000 -0.01785000 0.23462500
v 0.15285000 -0.01420000 0.23462500
v 0.15350000 -0.01555000 0.23462500
v 0.15125000 -0.01360000 0.23462500
v 0.11250000 -0.01200000 0.20150000
v 0.11250000 -0.01360000 0.24050000
v 0.11250000 -0.01360000 0.20150000
v 0.11250000 -0.02310000 0.20600000
v 0.11250000 -0.02310000 0.23600000
v 0.11250000 -0.01200000 0.24050000
v 0.15130000 -0.01360000 0.23412500
v 0.15350000 -0.01420000 0.20837500
v 0.15350000 -0.01420000 0.23362500
v 0.14050000 -0.01765000 0.23830000
v 0.14578076 -0.02285000 0.20490000
v 0.14401924 -0.02285000 0.20490000
v 0.14556383 -0.02285000 0.20996647
v 0.14050000 -0.01550000 0.23830000
v 0.14020000 -0.01360000 0.23830000
v 0.14600000 -0.01700000 0.20420000
v 0.14600000 -0.01650000 0.20420000
f 20 14 13
f 6 20 1
f 11 14 19
f 14 6 19
f 14 20 22
f 22 6 14
f 20 6 22
f 13 12 21
f 21 20 13
f 21 12 20
f 1 20 25
f 20 12 25
f 3 26 10
f 9 15 24
f 24 7 9
f 26 3 2
f 23 24 15
f 7 24 8
f 24 23 8
f 26 2 5
f 17 5 2
f 17 2 3
f 9 7 18
f 7 8 18
f 4 17 3
f 4 3 10
f 9 18 16
f 16 15 9
f 25 12 10
f 10 26 25
f 15 12 13
f 13 14 15
f 15 14 11
f 10 12 15
f 23 15 11
f 11 19 23
f 8 23 19
f 8 19 6
f 5 25 26
f 1 25 5
f 18 8 6
f 18 6 1
f 1 5 18
f 5 17 18
f 16 18 17
f 17 4 16
f 10 15 16
f 16 4 10

