# https://github.com/mikedh/trimesh
v -0.02551814 -0.05273976 0.02950000
v -0.02536295 -0.05300133 0.02898039
v -0.02602043 -0.03585968 0.02950000
v -0.02579996 -0.03565017 0.02898039
v -0.04261884 -0.03993722 0.02898039
v -0.02264702 -0.04283704 0.02320000
v -0.02243318 -0.04234767 0.02320000
v -0.02245284 -0.04181398 0.02320000
v -0.02845901 -0.05483830 0.02898039
v -0.03795555 -0.05382078 0.02950000
v -0.04329522 -0.04482123 0.02950000
v -0.04318876 -0.04604609 0.02950000
v -0.04208678 -0.04947329 0.02950000
v -0.04145942 -0.05053066 0.02950000
v -0.02462688 -0.05189284 0.02950000
v -0.02704445 -0.03517922 0.02950000
v -0.04236553 -0.04010554 0.02950000
v -0.04310232 -0.04121355 0.02898039
v -0.03337114 -0.05526481 0.02950000
v -0.03469673 -0.05538046 0.02898039
v -0.03458899 -0.05509604 0.02950000
v -0.02437357 -0.05206116 0.02898039
v -0.02693671 -0.03489480 0.02898039
v -0.04280106 -0.04125530 0.02950000
v -0.03334481 -0.05556781 0.02898039
v -0.04285796 -0.04737666 0.02520000
v -0.03537666 -0.03414204 0.02520000
v -0.02482976 -0.05203193 0.02520000
v -0.02209141 -0.04718772 0.02520000
v -0.02811012 -0.05392809 0.02320000
v -0.02768828 -0.05360059 0.02320000
v -0.02745031 -0.05312249 0.02320000
v -0.02949975 -0.03288111 0.02700000
v -0.03571115 -0.03293763 0.02700000
v -0.04106213 -0.03609227 0.02700000
v -0.04411889 -0.04149975 0.02700000
v -0.04406237 -0.04771115 0.02700000
v -0.04090773 -0.05306213 0.02700000
v -0.03550025 -0.05611889 0.02700000
v -0.02928885 -0.05606237 0.02700000
v -0.02393787 -0.05290773 0.02700000
v -0.02088111 -0.04750025 0.02700000
v -0.02093762 -0.04128885 0.02700000
v -0.02409227 -0.03593787 0.02700000
v -0.02238115 -0.04906278 0.02898039
v -0.03030327 -0.03361954 0.02898039
v -0.04359648 -0.04477948 0.02898039
v -0.02978467 -0.05495308 0.02950000
v -0.03519742 -0.05454410 0.02320000
v -0.03159946 -0.05486094 0.02320000
v -0.02263447 -0.04889446 0.02950000
v -0.02219894 -0.04774470 0.02950000
v -0.02189768 -0.04778645 0.02898039
v -0.03041101 -0.03390396 0.02950000
v -0.03162886 -0.03373519 0.02950000
v -0.03165519 -0.03343220 0.02898039
v -0.03598632 -0.05386441 0.02320000
v -0.03566944 -0.05429429 0.02320000
v -0.04347830 -0.04613919 0.02898039
v -0.03886665 -0.03679855 0.02320000
v -0.03939738 -0.03685804 0.02320000
v -0.02981228 -0.03409141 0.02520000
v -0.04003193 -0.05217024 0.02520000
v -0.02181124 -0.04295391 0.02950000
v -0.02152170 -0.04286081 0.02898039
v -0.02140352 -0.04422052 0.02898039
v -0.02262368 -0.03943362 0.02898039
v -0.03524167 -0.03374392 0.02898039
v -0.03963705 -0.03599867 0.02898039
v -0.04041008 -0.03673325 0.02898039
v -0.03654099 -0.03416170 0.02898039
v -0.04167989 -0.05074017 0.02898039
v -0.02975833 -0.05525608 0.02898039
v -0.02170478 -0.04417877 0.02950000
v -0.03521533 -0.03404692 0.02950000
v -0.02291322 -0.03952671 0.02950000
v -0.02354058 -0.03846934 0.02950000
v -0.04285991 -0.04358770 0.02320000
v -0.04275239 -0.04419949 0.02320000
v -0.03638580 -0.03442327 0.02950000
v -0.04237632 -0.04956638 0.02898039
v -0.03984973 -0.03714192 0.02320000
v -0.04192310 -0.04009942 0.02320000
v -0.02652997 -0.03598421 0.02320000
v -0.02702452 -0.03578263 0.02320000
v -0.02755755 -0.03581560 0.02320000
v -0.03948185 -0.03626024 0.02950000
v -0.04037312 -0.03710716 0.02950000
v -0.02397743 -0.03853964 0.02320000
v -0.02861420 -0.05457673 0.02950000
v -0.02332011 -0.03825983 0.02898039
v -0.04062643 -0.03693884 0.02898039
v -0.03897957 -0.05314033 0.02950000
v -0.03920004 -0.05334983 0.02898039
v -0.03806329 -0.05410520 0.02898039
f 7 43 42
f 61 35 34
f 36 35 83
f 29 7 42
f 61 34 27
f 27 34 33
f 36 83 78
f 78 37 36
f 79 37 78
f 82 35 61
f 82 83 35
f 41 40 30
f 39 40 25
f 25 20 39
f 43 7 8
f 8 89 43
f 14 13 72
f 26 37 79
f 50 40 39
f 39 49 50
f 30 40 50
f 39 38 58
f 58 49 39
f 28 29 42
f 42 41 28
f 33 34 56
f 54 56 55
f 44 89 84
f 44 84 33
f 43 89 44
f 7 29 6
f 29 32 6
f 31 41 30
f 31 28 41
f 31 32 29
f 29 28 31
f 61 27 60
f 27 86 60
f 33 84 85
f 85 86 27
f 81 72 13
f 37 38 81
f 38 72 81
f 63 26 79
f 63 58 38
f 63 38 37
f 37 26 63
f 71 34 35
f 68 56 34
f 34 71 68
f 55 56 68
f 23 44 33
f 4 44 23
f 91 44 4
f 40 41 9
f 62 27 33
f 33 85 62
f 62 85 27
f 94 93 14
f 14 72 94
f 94 72 38
f 57 63 79
f 58 63 57
f 69 71 35
f 75 71 80
f 75 68 71
f 55 68 75
f 5 35 36
f 16 23 54
f 3 4 16
f 4 23 16
f 46 23 33
f 54 23 46
f 33 56 46
f 56 54 46
f 42 43 66
f 45 41 42
f 2 9 41
f 39 20 95
f 95 38 39
f 95 94 38
f 20 25 19
f 19 21 20
f 80 71 87
f 71 69 87
f 18 5 36
f 17 5 18
f 42 66 53
f 53 45 42
f 51 53 52
f 45 53 51
f 41 45 22
f 22 2 41
f 1 2 22
f 45 51 22
f 93 94 10
f 94 95 10
f 20 21 10
f 10 95 20
f 73 19 25
f 73 25 40
f 40 9 73
f 35 5 92
f 17 18 24
f 24 18 11
f 47 18 36
f 11 18 47
f 36 37 47
f 43 44 67
f 44 91 67
f 65 66 43
f 43 67 65
f 77 4 3
f 77 91 4
f 77 67 91
f 66 65 74
f 74 65 64
f 1 22 15
f 15 22 51
f 90 73 9
f 90 2 1
f 9 2 90
f 70 87 69
f 70 69 35
f 35 92 70
f 70 88 87
f 92 88 70
f 59 12 11
f 11 47 59
f 59 47 37
f 37 81 59
f 13 12 59
f 59 81 13
f 67 77 76
f 19 73 48
f 73 90 48
f 57 82 61
f 30 50 57
f 79 78 57
f 57 8 7
f 84 89 57
f 57 31 30
f 7 6 57
f 57 78 83
f 83 82 57
f 57 85 84
f 89 8 57
f 61 60 57
f 57 50 49
f 49 58 57
f 57 6 32
f 32 31 57
f 57 60 86
f 86 85 57
f 52 53 74
f 74 53 66
f 88 5 17
f 88 92 5
f 64 65 76
f 76 65 67
f 48 13 14
f 14 93 48
f 80 87 48
f 48 54 55
f 3 16 48
f 55 75 48
f 48 12 13
f 1 15 48
f 17 24 48
f 52 74 48
f 48 75 80
f 93 10 48
f 48 16 54
f 21 19 48
f 48 90 1
f 11 12 48
f 48 77 3
f 48 51 52
f 48 10 21
f 48 24 11
f 48 88 17
f 48 74 64
f 48 15 51
f 64 76 48
f 87 88 48
f 48 76 77

