# https://github.com/mikedh/trimesh
v -0.09700000 -0.01200000 0.17300000
v -0.09700000 -0.01000000 0.17300000
v -0.09700000 -0.01200000 0.30300001
v -0.09700000 -0.01000000 0.30300001
v -0.16100000 -0.01000000 0.30800000
v -0.16100000 -0.01200000 0.30800000
v -0.10200000 -0.01000000 0.30800000
v -0.10200000 -0.01200000 0.30800000
v -0.16600000 -0.01000000 0.17300000
v -0.16600000 -0.01200000 0.17300000
v -0.16600000 -0.01000000 0.30300001
v -0.16600000 -0.01200000 0.30300001
v -0.10200000 -0.01000000 0.16800000
v -0.16100000 -0.01000000 0.16800000
v -0.16100000 -0.01200000 0.16800000
v -0.10200000 -0.01200000 0.16800000
v -0.09950000 -0.01200000 0.16866987
v -0.09766987 -0.01000000 0.17050000
v -0.16533013 -0.01000000 0.17050000
v -0.16350000 -0.01000000 0.30733013
v -0.16350000 -0.01200000 0.30733013
v -0.16533013 -0.01000000 0.30550000
v -0.16533013 -0.01200000 0.30550000
v -0.09766987 -0.01000000 0.30550000
v -0.09766987 -0.01200000 0.30550000
v -0.09950000 -0.01000000 0.30733013
v -0.09950000 -0.01200000 0.30733013
v -0.16350000 -0.01200000 0.16866987
v -0.16533013 -0.01200000 0.17050000
v -0.09766987 -0.01200000 0.17050000
v -0.16350000 -0.01000000 0.16866987
v -0.09950000 -0.01000000 0.16866987
f 16 14 13
f 16 15 14
f 13 32 16
f 16 32 17
f 1 2 4
f 4 3 1
f 28 31 14
f 14 15 28
f 22 11 12
f 23 22 12
f 12 11 9
f 9 10 12
f 24 3 4
f 24 25 3
f 27 25 24
f 24 26 27
f 9 19 29
f 29 10 9
f 29 19 31
f 31 28 29
f 17 32 30
f 32 18 30
f 2 1 30
f 30 18 2
f 8 26 7
f 27 26 8
f 7 5 8
f 5 6 8
f 20 24 4
f 4 2 20
f 9 11 20
f 20 32 13
f 13 14 20
f 2 18 20
f 14 31 20
f 20 11 22
f 20 19 9
f 7 26 20
f 20 5 7
f 31 19 20
f 20 18 32
f 26 24 20
f 15 16 21
f 27 8 21
f 23 12 21
f 10 29 21
f 21 1 3
f 21 16 17
f 21 25 27
f 3 25 21
f 21 28 15
f 21 12 10
f 17 30 21
f 21 29 28
f 21 30 1
f 21 8 6
f 21 22 23
f 21 20 22
f 21 6 5
f 5 20 21

