# https://github.com/mikedh/trimesh
v 0.13200000 -0.05600000 0.25700000
v 0.07500000 -0.05600000 0.25700000
v 0.07500000 -0.05600000 0.25500000
v 0.13200000 -0.13600000 0.25500000
v 0.13200000 -0.13600000 0.25700000
v 0.07500000 -0.13600000 0.25500000
v 0.07500000 -0.13600000 0.25700000
v 0.07250000 -0.13533012 0.25700000
v 0.07250000 -0.13533012 0.25500000
v 0.07066987 -0.13350000 0.25700000
v 0.07066987 -0.13350000 0.25500000
v 0.07000000 -0.13100000 0.25700000
v 0.07000000 -0.13100000 0.25500000
v 0.13700000 -0.13100000 0.25700000
v 0.13700000 -0.13100000 0.25500000
v 0.13700000 -0.06100000 0.25700000
v 0.13700000 -0.06100000 0.25500000
v 0.13450000 -0.05666987 0.25700000
v 0.13525000 -0.05741987 0.25700000
v 0.13525000 -0.13458013 0.25700000
v 0.13633013 -0.13350000 0.25700000
v 0.13450000 -0.13533012 0.25700000
v 0.07000000 -0.06100000 0.25700000
v 0.07250000 -0.05666987 0.25700000
v 0.07066987 -0.05850000 0.25700000
v 0.13525000 -0.13458013 0.25500000
v 0.13525000 -0.05741987 0.25500000
v 0.13200000 -0.05600000 0.25500000
v 0.13450000 -0.05666987 0.25500000
v 0.07000000 -0.06100000 0.25500000
v 0.07066987 -0.05850000 0.25500000
v 0.07250000 -0.05666987 0.25500000
v 0.13633013 -0.13350000 0.25500000
v 0.13450000 -0.13533012 0.25500000
v 0.13633013 -0.05850000 0.25700000
v 0.13633013 -0.05850000 0.25500000
f 11 10 13
f 13 10 12
f 17 16 14
f 14 15 17
f 34 22 5
f 34 5 4
f 20 22 34
f 34 26 20
f 30 23 25
f 30 25 31
f 12 23 30
f 30 13 12
f 5 7 6
f 4 5 6
f 35 17 36
f 16 17 35
f 28 2 1
f 28 3 2
f 33 15 14
f 14 21 33
f 20 26 33
f 33 21 20
f 8 21 14
f 1 2 8
f 14 16 8
f 8 23 12
f 8 7 5
f 12 10 8
f 25 23 8
f 5 22 8
f 8 24 25
f 8 22 20
f 2 24 8
f 16 35 8
f 8 18 1
f 20 21 8
f 19 18 8
f 8 35 19
f 25 24 32
f 31 25 32
f 32 24 2
f 2 3 32
f 1 18 29
f 29 28 1
f 9 10 11
f 9 8 10
f 9 6 7
f 7 8 9
f 27 17 15
f 27 30 31
f 4 6 27
f 27 34 4
f 31 32 27
f 11 13 27
f 36 17 27
f 15 33 27
f 26 34 27
f 13 30 27
f 27 9 11
f 3 28 27
f 27 33 26
f 27 32 3
f 28 29 27
f 6 9 27
f 19 35 27
f 27 35 36
f 27 18 19
f 27 29 18

