# https://github.com/mikedh/trimesh
v 0.07600000 -0.13250000 0.25450000
v 0.07550000 -0.13250000 0.25500000
v 0.07050000 -0.09350000 0.25500000
v 0.07050000 -0.09300000 0.25450000
v 0.07000000 -0.09350000 0.25450000
v 0.07000000 -0.09350000 0.24950000
v 0.07000000 -0.13250000 0.24950000
v 0.07550000 -0.13300000 0.24950000
v 0.07550000 -0.13300000 0.25450000
v 0.07050000 -0.09350000 0.24900000
v 0.07550000 -0.09350000 0.24900000
v 0.07600000 -0.13250000 0.24950000
v 0.07550000 -0.13250000 0.24900000
v 0.07050000 -0.09300000 0.24950000
v 0.07050000 -0.13300000 0.25450000
v 0.07050000 -0.13250000 0.24900000
v 0.07550000 -0.09300000 0.25450000
v 0.07550000 -0.09300000 0.24950000
v 0.07600000 -0.09350000 0.24950000
v 0.07600000 -0.09350000 0.25450000
v 0.07000000 -0.13250000 0.25450000
v 0.07050000 -0.13250000 0.25500000
v 0.07550000 -0.09350000 0.25500000
v 0.07050000 -0.13300000 0.24950000
f 3 4 5
f 12 8 13
f 10 6 14
f 11 18 19
f 17 23 20
f 2 9 1
f 7 16 24
f 21 15 22
f 11 13 16
f 16 10 11
f 10 16 6
f 6 16 7
f 8 12 9
f 9 12 1
f 14 6 5
f 5 4 14
f 11 10 14
f 14 18 11
f 19 13 11
f 19 12 13
f 1 12 19
f 19 20 1
f 17 14 4
f 18 14 17
f 20 19 17
f 17 19 18
f 3 23 17
f 4 3 17
f 3 22 2
f 2 23 3
f 1 20 2
f 20 23 2
f 15 2 22
f 9 2 15
f 24 16 13
f 13 8 24
f 8 9 24
f 9 15 24
f 21 24 15
f 7 24 21
f 21 6 7
f 5 6 21
f 21 22 3
f 21 3 5

