# https://github.com/mikedh/trimesh
v -0.18567323 -0.08746215 0.21783105
v -0.18609309 -0.08737285 0.21715469
v -0.18650714 -0.08695321 0.21661230
v -0.18683335 -0.08628636 0.21631129
v -0.18700713 -0.08550436 0.21631129
v -0.18699405 -0.08476210 0.21661230
v -0.18679670 -0.08420660 0.21715469
v -0.18645418 -0.08394788 0.21783105
v -0.15548756 -0.10749090 0.26844390
v -0.16759228 -0.05301967 0.26844390
v -0.16785547 -0.05307815 0.26837668
v -0.15691675 -0.11221339 0.26465277
v -0.15670590 -0.11236427 0.26455283
v -0.15594086 -0.11184390 0.26604188
v -0.15618458 -0.11171539 0.26607785
v -0.15544068 -0.11073503 0.26730423
v -0.15570588 -0.11065415 0.26728597
v -0.15528150 -0.10920646 0.26814771
v -0.15555354 -0.10919124 0.26809321
v -0.15575075 -0.10754939 0.26837668
v -0.18415237 -0.11826575 0.21632855
v -0.18718397 -0.11453455 0.21260464
v -0.18710920 -0.11451793 0.21233754
v -0.18656928 -0.11615930 0.21263373
v -0.18666724 -0.11610540 0.21288811
v -0.18577769 -0.11747659 0.21347721
v -0.18590965 -0.11736610 0.21369535
v -0.18485494 -0.11826926 0.21473957
v -0.18502655 -0.11812471 0.21490347
v -0.18394152 -0.11841663 0.21622861
v -0.19921392 -0.06004670 0.21233755
v -0.19928869 -0.06006331 0.21260464
v -0.19812269 -0.05539931 0.21632855
v -0.19799558 -0.05517333 0.21622861
v -0.19876062 -0.05569370 0.21473957
v -0.19885486 -0.05589731 0.21490348
v -0.19926080 -0.05680257 0.21347721
v -0.19933356 -0.05695855 0.21369535
v -0.19941998 -0.05833114 0.21263374
v -0.19948590 -0.05842146 0.21288811
v -0.17088707 -0.04934695 0.26465277
v -0.17075996 -0.04912097 0.26455283
v -0.16813220 -0.05137830 0.26814771
v -0.16837220 -0.05150730 0.26809321
v -0.16892379 -0.05006101 0.26730423
v -0.16912978 -0.05024660 0.26728597
v -0.16984654 -0.04926834 0.26604188
v -0.17001289 -0.04948799 0.26607785
v -0.16693044 -0.07960927 0.25247207
v -0.16643884 -0.07974706 0.25325149
v -0.16597434 -0.08031876 0.25382207
v -0.16566139 -0.08117117 0.25403091
v -0.16558386 -0.08207589 0.25382207
v -0.16576252 -0.08279051 0.25325149
v -0.16614949 -0.08312354 0.25247207
f 6 5 39
f 39 5 31
f 40 39 32
f 32 39 31
f 18 17 16
f 18 9 20
f 24 22 23
f 28 30 21
f 37 7 6
f 6 39 37
f 10 9 52
f 52 9 18
f 19 17 18
f 18 20 19
f 22 24 25
f 25 24 27
f 3 24 4
f 4 24 23
f 29 28 21
f 27 28 29
f 27 24 26
f 26 28 27
f 26 24 3
f 26 3 2
f 2 28 26
f 7 37 35
f 35 8 7
f 34 8 35
f 35 33 34
f 35 36 33
f 38 39 40
f 38 37 39
f 36 35 38
f 38 35 37
f 51 45 43
f 43 52 51
f 10 52 43
f 11 10 43
f 43 44 11
f 46 44 43
f 43 45 46
f 47 49 42
f 42 41 47
f 41 48 47
f 47 48 46
f 46 45 47
f 18 16 53
f 53 52 18
f 49 47 50
f 50 45 51
f 50 47 45
f 54 53 16
f 14 54 16
f 14 12 13
f 14 15 12
f 17 15 14
f 14 16 17
f 55 14 13
f 54 14 55
f 1 28 2
f 30 28 1
f 33 41 42
f 42 34 33
f 32 31 23
f 23 22 32
f 30 12 21
f 13 12 30
f 20 10 11
f 20 9 10
f 49 34 42
f 49 8 34
f 23 31 4
f 31 5 4
f 22 25 38
f 38 29 21
f 21 12 38
f 38 48 41
f 40 32 38
f 41 33 38
f 38 20 11
f 17 19 38
f 38 32 22
f 11 44 38
f 33 36 38
f 38 15 17
f 46 48 38
f 38 44 46
f 12 15 38
f 38 19 20
f 38 25 27
f 27 29 38
f 8 49 1
f 1 50 51
f 6 7 1
f 1 5 6
f 2 3 1
f 1 4 5
f 7 8 1
f 51 52 1
f 3 4 1
f 52 53 1
f 49 50 1
f 53 54 1
f 54 55 1
f 13 30 1
f 1 55 13

