# https://github.com/mikedh/trimesh
v -0.19488063 -0.05501788 0.21445355
v -0.16807277 -0.04863651 0.26297765
v -0.15287792 -0.10691098 0.26677344
v -0.15528150 -0.10920646 0.26814771
v -0.15267691 -0.10858453 0.26648451
v -0.15544068 -0.11073503 0.26730423
v -0.15283219 -0.11007568 0.26566168
v -0.15594086 -0.11184390 0.26604188
v -0.15332013 -0.11115740 0.26443024
v -0.15406643 -0.11166502 0.26297765
v -0.18385217 -0.11379415 0.21101626
v -0.19595689 -0.05932291 0.21101626
v -0.19669791 -0.05776936 0.21114657
v -0.19613892 -0.05780742 0.21127791
v -0.19654263 -0.05627822 0.21196940
v -0.19599831 -0.05645711 0.21202302
v -0.19605470 -0.05519650 0.21320084
v -0.16759228 -0.05301967 0.26844390
v -0.15548756 -0.10749090 0.26844390
v -0.16498264 -0.05243975 0.26677344
v -0.16718171 -0.04878028 0.26443024
v -0.16550935 -0.05083857 0.26648451
v -0.16484674 -0.05240955 0.26621507
v -0.18394152 -0.11841663 0.21622861
v -0.18130205 -0.11771738 0.21465343
v -0.15670590 -0.11236427 0.26455283
v -0.16603664 -0.10696684 0.25990412
v -0.16625499 -0.10784026 0.25920675
v -0.16613140 -0.10586107 0.26015937
v -0.18485494 -0.11826926 0.21473957
v -0.18577769 -0.11747659 0.21347721
v -0.18309326 -0.11680036 0.21196940
v -0.18656928 -0.11615930 0.21263373
v -0.18439218 -0.11391415 0.21085763
v -0.19921392 -0.06004670 0.21233755
v -0.19649690 -0.05944292 0.21085763
v -0.18710920 -0.11451793 0.21233754
v -0.19941998 -0.05833114 0.21263374
v -0.19926080 -0.05680257 0.21347721
v -0.19876062 -0.05569370 0.21473957
v -0.19530839 -0.05468887 0.21465343
v -0.18429932 -0.11215205 0.22707720
v -0.18490017 -0.11198363 0.22612458
v -0.18546789 -0.11128490 0.22542720
v -0.18585038 -0.11024306 0.22517195
v -0.19799558 -0.05517333 0.21622861
v -0.17075996 -0.04912097 0.26455283
v -0.19635780 -0.06228031 0.22542720
v -0.19566648 -0.06099985 0.22707721
v -0.16984654 -0.04926834 0.26604188
v -0.16892379 -0.05006101 0.26730423
v -0.16628156 -0.04955354 0.26566168
v -0.16813220 -0.05137830 0.26814771
v -0.17809512 -0.05709510 0.25825412
v -0.17749427 -0.05726351 0.25920675
v -0.17654406 -0.05900409 0.26015937
v -0.16672796 -0.10824730 0.25825412
v -0.15274202 -0.10688078 0.26621507
v -0.15255999 -0.10839627 0.26595342
v -0.15270061 -0.10974658 0.26520830
v -0.15314246 -0.11072614 0.26409317
v -0.15381828 -0.11118582 0.26277777
v -0.19613945 -0.06140688 0.22612458
v -0.19626304 -0.06338608 0.22517195
v -0.16584376 -0.05009416 0.26539927
v -0.16532370 -0.05095960 0.26595342
v -0.16739930 -0.04900516 0.26317833
v -0.16683812 -0.04909570 0.26409317
v -0.16602298 -0.04979593 0.26520831
v -0.16764502 -0.04896552 0.26277777
v -0.19508643 -0.05515785 0.21405299
v -0.19555645 -0.05547755 0.21313816
v -0.18186080 -0.11710800 0.21313816
v -0.18267594 -0.11640777 0.21202302
v -0.18337521 -0.11524410 0.21127791
v -0.15266457 -0.10940052 0.26539927
v -0.18105390 -0.11723818 0.21445355
v -0.17692655 -0.05796225 0.25990412
v -0.18219311 -0.11757362 0.21320084
v -0.18386547 -0.11551533 0.21114657
v -0.17088707 -0.04934695 0.26465277
v -0.17001289 -0.04948799 0.26607785
v -0.16912978 -0.05024660 0.26728597
v -0.16837220 -0.05150730 0.26809321
v -0.16785547 -0.05307815 0.26837668
v -0.15575075 -0.10754939 0.26837668
v -0.15555354 -0.10919124 0.26809321
v -0.15570588 -0.11065415 0.26728597
v -0.15618458 -0.11171539 0.26607785
v -0.15691675 -0.11221339 0.26465277
v -0.18415237 -0.11826575 0.21632855
v -0.18502655 -0.11812471 0.21490347
v -0.18590965 -0.11736610 0.21369535
v -0.18666724 -0.11610540 0.21288811
v -0.18718397 -0.11453455 0.21260464
v -0.19812269 -0.05539931 0.21632855
v -0.19885486 -0.05589731 0.21490348
v -0.19933356 -0.05695855 0.21369535
v -0.19928869 -0.06006331 0.21260464
v -0.19948590 -0.05842146 0.21288811
f 64 48 100
f 100 99 64
f 28 88 27
f 30 25 24
f 24 91 30
f 31 33 32
f 32 30 31
f 59 7 76
f 10 62 61
f 59 3 5
f 5 7 59
f 88 28 89
f 89 28 57
f 90 89 57
f 37 33 95
f 95 33 94
f 94 44 45
f 45 95 94
f 56 84 78
f 78 84 83
f 58 3 59
f 66 20 23
f 22 20 66
f 92 91 42
f 42 43 92
f 92 30 91
f 25 30 79
f 30 32 79
f 60 76 7
f 7 61 60
f 3 19 4
f 4 5 3
f 4 19 86
f 7 5 4
f 8 26 10
f 8 90 26
f 89 90 8
f 88 89 8
f 100 48 98
f 63 49 97
f 63 98 48
f 97 98 63
f 97 49 96
f 50 2 47
f 50 82 83
f 85 84 56
f 55 82 54
f 83 82 55
f 55 78 83
f 40 98 97
f 46 41 40
f 40 96 46
f 97 96 40
f 83 84 53
f 53 85 18
f 84 85 53
f 18 20 53
f 20 22 53
f 93 43 44
f 93 92 43
f 44 94 93
f 93 33 31
f 93 94 33
f 31 30 93
f 30 92 93
f 80 32 33
f 80 75 32
f 77 25 73
f 25 79 73
f 73 79 32
f 87 4 86
f 88 4 87
f 27 88 87
f 87 29 27
f 86 29 87
f 9 8 10
f 7 8 9
f 10 61 9
f 9 61 7
f 88 8 6
f 6 8 7
f 6 4 88
f 7 4 6
f 15 40 17
f 17 40 41
f 12 36 14
f 15 16 14
f 100 98 38
f 36 35 38
f 38 35 99
f 38 99 100
f 54 82 81
f 81 50 47
f 82 50 81
f 51 50 83
f 83 53 51
f 67 70 2
f 52 22 66
f 52 53 22
f 52 51 53
f 50 51 52
f 39 40 15
f 98 40 39
f 15 38 39
f 39 38 98
f 11 75 34
f 75 80 34
f 33 37 34
f 34 80 33
f 32 75 74
f 74 73 32
f 72 16 15
f 15 17 72
f 13 38 15
f 36 38 13
f 15 14 13
f 13 14 36
f 68 52 69
f 2 50 21
f 50 52 21
f 21 52 68
f 68 67 21
f 21 67 2
f 71 41 1
f 71 17 41
f 71 72 17
f 65 52 66
f 65 69 52
f 10 25 62
f 62 25 77
f 26 25 10
f 24 25 26
f 64 95 45
f 64 99 95
f 20 19 3
f 18 19 20
f 90 57 42
f 42 91 90
f 24 26 90
f 90 91 24
f 23 20 3
f 3 58 23
f 41 70 1
f 2 70 41
f 41 46 47
f 47 2 41
f 56 29 85
f 85 29 86
f 85 19 18
f 86 19 85
f 45 44 55
f 27 29 55
f 55 64 45
f 54 49 55
f 55 43 42
f 55 29 56
f 42 57 55
f 55 28 27
f 48 64 55
f 57 28 55
f 44 43 55
f 55 63 48
f 56 78 55
f 49 63 55
f 95 99 35
f 35 37 95
f 81 49 54
f 81 96 49
f 47 46 81
f 46 96 81
f 34 12 11
f 34 36 12
f 37 35 34
f 34 35 36
f 65 62 77
f 1 70 65
f 11 12 65
f 59 76 65
f 66 23 65
f 65 61 62
f 76 60 65
f 65 58 59
f 65 75 11
f 65 23 58
f 65 74 75
f 65 71 1
f 65 60 61
f 77 73 65
f 12 14 65
f 70 67 65
f 65 14 16
f 65 67 68
f 73 74 65
f 16 72 65
f 68 69 65
f 72 71 65

