# https://github.com/mikedh/trimesh
v -0.01200000 0.07350000 0.11573205
v -0.01200000 0.07350000 0.12200000
v -0.00900000 0.07350000 0.11573205
v -0.01200000 0.07150000 0.12400000
v -0.00900000 0.07150000 0.12400000
v -0.01200000 0.07250000 0.07600000
v -0.00900000 0.07250000 0.12373205
v -0.01200000 0.07250000 0.12373205
v -0.00900000 0.07323205 0.12300000
v -0.01200000 0.07323205 0.12300000
v -0.01200000 0.05550000 0.04655514
v -0.00900000 0.05550000 0.04655514
v -0.00900000 0.06794487 0.05900000
v -0.00900000 0.04550000 0.12400000
v -0.01200000 0.04550000 0.12400000
v -0.00900000 0.04376795 0.12300000
v -0.00900000 0.04450000 0.12373205
v -0.01200000 0.04450000 0.12373205
v -0.00900000 0.02950000 0.03826795
v -0.00900000 0.02850000 0.03800000
v -0.01200000 0.02850000 0.03800000
v -0.00900000 0.02050000 0.04000000
v -0.01200000 0.02250000 0.03800000
v -0.01200000 0.02150000 0.03826795
v -0.00900000 0.02076795 0.03900000
v -0.01200000 0.02076795 0.03900000
v -0.00900000 0.02250000 0.03800000
v -0.01200000 0.02950000 0.03826795
v -0.01200000 0.04376795 0.12300000
v -0.01200000 0.02050000 0.07200000
v -0.01200000 0.02050000 0.04000000
v -0.01200000 0.02225000 0.03806699
v -0.01200000 0.06794487 0.05900000
v -0.00900000 0.07350000 0.12200000
v -0.00900000 0.02225000 0.03806699
v -0.00900000 0.02150000 0.03826795
v -0.00900000 0.07250000 0.07600000
v -0.00900000 0.02050000 0.07200000
v -0.00900000 0.02076795 0.07300000
v -0.01200000 0.02076795 0.07300000
f 13 12 33
f 33 12 11
f 37 6 1
f 37 1 3
f 37 33 6
f 13 33 37
f 31 22 38
f 31 38 30
f 29 16 17
f 17 18 29
f 27 23 21
f 27 21 20
f 11 12 28
f 12 19 28
f 28 19 20
f 20 21 28
f 3 1 34
f 1 2 34
f 30 38 40
f 38 39 40
f 16 29 40
f 40 39 16
f 23 27 32
f 27 35 32
f 24 32 36
f 36 32 35
f 17 16 25
f 25 37 3
f 25 14 17
f 20 19 25
f 25 12 13
f 13 37 25
f 25 27 20
f 38 22 25
f 7 5 25
f 25 19 12
f 25 39 38
f 3 34 25
f 16 39 25
f 25 35 27
f 25 36 35
f 5 14 25
f 25 9 7
f 34 9 25
f 22 31 25
f 31 26 25
f 25 26 24
f 24 36 25
f 7 9 10
f 10 8 7
f 10 34 2
f 10 9 34
f 4 5 7
f 7 8 4
f 11 28 15
f 1 6 15
f 15 31 30
f 24 26 15
f 30 40 15
f 15 33 11
f 6 33 15
f 21 23 15
f 15 32 24
f 15 2 1
f 15 29 18
f 15 28 21
f 15 4 8
f 15 26 31
f 15 40 29
f 23 32 15
f 8 10 15
f 15 10 2
f 15 14 5
f 5 4 15
f 15 18 17
f 17 14 15

