# https://github.com/mikedh/trimesh
v -0.11800128 -0.15499650 0.16850000
v -0.11729446 -0.15497650 0.16850000
v -0.11763787 -0.15533991 0.16800000
v -0.09272566 -0.18576001 0.16800000
v -0.09306907 -0.18612342 0.16850000
v -0.09272566 -0.18576001 0.17400000
v -0.12141538 -0.15933747 0.17350000
v -0.12107197 -0.15897405 0.17400000
v -0.11800128 -0.15499650 0.17350000
v -0.08892815 -0.18246927 0.17350000
v -0.11729446 -0.15497650 0.17350000
v -0.11763787 -0.15533991 0.17400000
v -0.09306907 -0.18612342 0.17350000
v -0.09236225 -0.18610342 0.17350000
v -0.12143538 -0.15863064 0.16850000
v -0.12141538 -0.15933747 0.16850000
v -0.12143538 -0.15863064 0.17350000
v -0.09236225 -0.18610342 0.16850000
v -0.08892815 -0.18246927 0.16850000
v -0.08929157 -0.18212587 0.17400000
v -0.08894816 -0.18176245 0.17350000
v -0.08894816 -0.18176245 0.16850000
v -0.08929157 -0.18212587 0.16800000
v -0.12107197 -0.15897405 0.16800000
f 2 3 1
f 11 9 12
f 10 21 20
f 13 14 6
f 24 16 15
f 5 4 18
f 17 7 8
f 23 22 19
f 11 1 9
f 2 1 11
f 21 11 20
f 20 11 12
f 6 14 20
f 20 14 10
f 8 20 12
f 6 20 8
f 2 11 22
f 22 11 21
f 22 23 3
f 22 3 2
f 5 13 7
f 7 16 5
f 6 8 7
f 7 13 6
f 3 23 24
f 23 4 24
f 5 16 24
f 24 4 5
f 15 1 24
f 24 1 3
f 18 13 5
f 14 13 18
f 16 7 17
f 15 16 17
f 9 1 17
f 17 1 15
f 17 8 12
f 12 9 17
f 19 4 23
f 19 18 4
f 19 22 21
f 19 21 10
f 10 14 19
f 14 18 19

