# https://github.com/mikedh/trimesh
v -0.01350624 -0.04372717 0.03849000
v -0.01354545 -0.04097741 0.03691000
v -0.01357521 -0.04792797 0.03690000
v -0.01347167 -0.04752701 0.03691000
v -0.01347167 -0.04752701 0.03850000
v -0.01357521 -0.04792797 0.03850000
v -0.01386535 -0.04822344 0.03690000
v -0.01351944 -0.04227723 0.03690000
v -0.01864682 -0.04138308 0.03690000
v -0.01352990 -0.04112728 0.03850000
v -0.01350624 -0.04372717 0.03850000
v -0.01349533 -0.04492712 0.03850000
v -0.01348214 -0.04637706 0.03690000
v -0.01348668 -0.04587708 0.03690000
v -0.01348450 -0.04767713 0.03690000
v -0.01348450 -0.04767713 0.03691000
v -0.01348668 -0.04587708 0.03691000
v -0.01352990 -0.04112728 0.03691000
v -0.01354545 -0.04097741 0.03690000
v -0.01359358 -0.04082170 0.03690000
v -0.01376935 -0.04056375 0.03690000
v -0.01403046 -0.04039270 0.03690000
v -0.01403046 -0.04039270 0.03850000
v -0.01386535 -0.04822344 0.03850000
v -0.03644551 -0.05583283 0.03850000
v -0.01359358 -0.04082170 0.03850000
v -0.01376935 -0.04056375 0.03850000
v -0.03063980 -0.05635494 0.03850000
v -0.04132022 -0.05263656 0.03850000
v -0.04411367 -0.04752036 0.03850000
v -0.04416671 -0.04169145 0.03850000
v -0.04146681 -0.03652527 0.03850000
v -0.03085580 -0.03261317 0.03850000
v -0.02544852 -0.03479038 0.03850000
v -0.02527303 -0.05407971 0.03850000
v -0.02527303 -0.05407971 0.03690000
v -0.03063980 -0.05635494 0.03690000
v -0.03644551 -0.05583283 0.03690000
v -0.04132022 -0.05263656 0.03690000
v -0.04411367 -0.04752036 0.03690000
v -0.04416671 -0.04169145 0.03690000
v -0.04146681 -0.03652527 0.03690000
v -0.03665106 -0.03324084 0.03850000
v -0.03085580 -0.03261317 0.03690000
v -0.02544852 -0.03479038 0.03690000
v -0.01368473 -0.04068792 0.03690000
v -0.02767741 -0.05509904 0.03690000
v -0.03522286 -0.05594278 0.03690000
v -0.03665106 -0.03324084 0.03690000
v -0.01357468 -0.04792650 0.03690000
v -0.01361977 -0.04078326 0.03690000
v -0.02889364 -0.03340323 0.03690000
v -0.03255301 -0.03279699 0.03690000
v -0.03355417 -0.03290542 0.03690000
f 34 27 23
f 28 25 48
f 25 38 48
f 48 37 28
f 47 35 28
f 28 37 47
f 47 36 35
f 16 5 6
f 39 40 9
f 41 42 9
f 9 40 41
f 9 42 49
f 9 47 37
f 9 38 39
f 9 3 7
f 7 36 9
f 36 47 9
f 33 34 52
f 52 44 33
f 52 9 44
f 54 43 33
f 49 43 54
f 54 9 49
f 6 3 50
f 15 16 50
f 50 16 6
f 50 9 15
f 3 9 50
f 4 15 13
f 15 9 13
f 45 52 34
f 9 52 45
f 33 44 53
f 53 54 33
f 46 9 21
f 27 26 46
f 21 27 46
f 2 26 10
f 21 9 22
f 9 45 22
f 4 13 14
f 14 9 8
f 14 13 9
f 14 8 18
f 18 1 14
f 51 20 9
f 9 46 51
f 26 20 51
f 51 46 26
f 18 8 19
f 8 9 19
f 9 20 19
f 17 12 5
f 38 25 29
f 38 29 39
f 24 36 7
f 35 36 24
f 29 30 40
f 39 29 40
f 40 30 31
f 31 41 40
f 6 24 3
f 3 24 7
f 31 30 43
f 43 32 31
f 29 34 43
f 43 34 33
f 43 30 29
f 31 32 42
f 42 41 31
f 32 43 42
f 42 43 49
f 4 5 16
f 16 15 4
f 37 48 9
f 9 48 38
f 9 54 53
f 44 9 53
f 22 23 27
f 22 27 21
f 34 23 22
f 22 45 34
f 19 2 10
f 10 18 19
f 19 20 26
f 26 2 19
f 11 18 10
f 11 1 18
f 11 34 29
f 28 35 11
f 11 25 28
f 11 24 6
f 29 25 11
f 11 27 34
f 6 5 11
f 35 24 11
f 11 26 27
f 10 26 11
f 5 12 11
f 17 11 12
f 17 14 1
f 1 11 17
f 17 5 4
f 4 14 17

