# https://github.com/mikedh/trimesh
v -0.14566328 -0.11521654 0.27505181
v -0.14327303 -0.11699026 0.27842681
v -0.14249067 -0.11912129 0.27894892
v -0.14229684 -0.12138310 0.27842681
v -0.14274348 -0.12316965 0.27700037
v -0.14371090 -0.12400222 0.27505181
v -0.14610115 -0.12222850 0.27167681
v -0.14688351 -0.12009748 0.27115470
v -0.14707734 -0.11783566 0.27167681
v -0.14663070 -0.11604912 0.27310325
v -0.17114738 -0.12948163 0.28860325
v -0.14493990 -0.12365774 0.27310325
v -0.17230864 -0.12805239 0.28717681
v -0.17309100 -0.12592136 0.28665470
v -0.17328483 -0.12365955 0.28717681
v -0.17283819 -0.12187300 0.28860325
v -0.17187076 -0.12104043 0.29055181
v -0.17064177 -0.12138491 0.29250037
v -0.14443428 -0.11556102 0.27700037
v -0.16948051 -0.12281415 0.29392681
v -0.16850433 -0.12720699 0.29392681
v -0.16895096 -0.12899354 0.29250037
v -0.16991839 -0.12982611 0.29055181
v -0.16869816 -0.12494518 0.29444892
f 9 14 15
f 8 14 9
f 13 14 7
f 7 14 8
f 6 5 22
f 23 6 22
f 22 5 4
f 4 21 22
f 16 9 15
f 10 9 16
f 16 17 1
f 1 10 16
f 12 11 13
f 13 7 12
f 23 11 12
f 12 6 23
f 15 14 24
f 23 22 24
f 24 11 23
f 24 14 13
f 13 11 24
f 20 18 24
f 24 16 15
f 24 22 21
f 17 16 24
f 24 18 17
f 24 21 4
f 4 3 24
f 24 3 2
f 24 2 20
f 8 9 19
f 19 7 8
f 19 10 1
f 4 5 19
f 19 5 6
f 19 9 10
f 6 12 19
f 19 3 4
f 2 3 19
f 19 12 7
f 1 17 19
f 17 18 19
f 19 18 20
f 20 2 19

