# https://github.com/mikedh/trimesh
v -0.03343658 -0.04112764 0.04185000
v -0.03343658 -0.04112764 0.03915000
v -0.03162493 -0.04111116 0.04185000
v -0.03004774 -0.04200271 0.04185000
v -0.03004774 -0.04200271 0.03915000
v -0.02912764 -0.04356341 0.04185000
v -0.02912764 -0.04356341 0.03915000
v -0.02911116 -0.04537507 0.04185000
v -0.03000271 -0.04695226 0.04185000
v -0.03156341 -0.04787236 0.04185000
v -0.03156341 -0.04787236 0.03915000
v -0.03337507 -0.04788884 0.04185000
v -0.03495226 -0.04699729 0.03915000
v -0.03587236 -0.04543659 0.04185000
v -0.03588884 -0.04362493 0.04185000
v -0.03588884 -0.04362493 0.03915000
v -0.03000271 -0.04695226 0.03915000
v -0.02925639 -0.04533757 0.03900000
v -0.02911116 -0.04537507 0.03915000
v -0.03015284 -0.04210974 0.03900000
v -0.03166243 -0.04125639 0.03900000
v -0.03162493 -0.04111116 0.03915000
v -0.03339645 -0.04127217 0.03900000
v -0.03499729 -0.04204774 0.03915000
v -0.03574361 -0.04366243 0.03900000
v -0.03587236 -0.04543659 0.03915000
v -0.03484716 -0.04689026 0.03900000
v -0.03337507 -0.04788884 0.03915000
v -0.03160355 -0.04772783 0.03900000
v -0.03010974 -0.04684716 0.03900000
v -0.03499729 -0.04204774 0.04185000
v -0.03015284 -0.04210974 0.04200000
v -0.02925639 -0.04533757 0.04200000
v -0.03160355 -0.04772783 0.04200000
v -0.03495226 -0.04699729 0.04185000
v -0.03572783 -0.04539645 0.04200000
v -0.03489026 -0.04215284 0.04200000
v -0.02927217 -0.04360355 0.03900000
v -0.03333757 -0.04774361 0.03900000
v -0.03572783 -0.04539645 0.03900000
v -0.03489026 -0.04215284 0.03900000
v -0.03166243 -0.04125639 0.04200000
v -0.03339645 -0.04127217 0.04200000
v -0.03574361 -0.04366243 0.04200000
v -0.03484716 -0.04689026 0.04200000
v -0.03333757 -0.04774361 0.04200000
v -0.03010974 -0.04684716 0.04200000
v -0.02927217 -0.04360355 0.04200000
f 48 33 8
f 9 34 10
f 47 34 9
f 47 9 8
f 8 33 47
f 46 35 12
f 12 10 46
f 46 10 34
f 19 17 30
f 13 40 27
f 27 39 13
f 14 35 36
f 13 39 28
f 28 39 11
f 11 39 29
f 29 17 11
f 30 17 29
f 6 48 8
f 36 35 45
f 35 46 45
f 3 1 42
f 7 19 38
f 23 41 2
f 2 21 23
f 2 41 24
f 41 25 24
f 24 25 16
f 26 40 13
f 32 48 4
f 48 6 4
f 4 42 32
f 3 42 4
f 1 37 43
f 43 42 1
f 22 21 2
f 18 19 30
f 18 38 19
f 15 44 31
f 31 44 37
f 31 37 1
f 20 21 5
f 21 22 5
f 5 38 20
f 7 38 5
f 11 17 10
f 10 17 9
f 9 17 19
f 8 9 19
f 28 35 13
f 12 35 28
f 11 10 28
f 28 10 12
f 8 19 6
f 6 19 7
f 15 14 44
f 44 14 36
f 13 35 26
f 35 14 26
f 26 25 40
f 16 25 26
f 26 14 15
f 15 16 26
f 36 45 43
f 43 48 32
f 43 47 33
f 33 48 43
f 34 47 43
f 43 46 34
f 43 44 36
f 43 45 46
f 37 44 43
f 32 42 43
f 2 1 22
f 22 1 3
f 41 23 18
f 18 23 21
f 39 27 18
f 18 27 40
f 30 29 18
f 40 25 18
f 18 29 39
f 18 25 41
f 18 21 20
f 20 38 18
f 31 16 15
f 31 24 16
f 31 1 2
f 2 24 31
f 5 22 3
f 3 4 5
f 5 6 7
f 5 4 6

