# https://github.com/mikedh/trimesh
v -0.10109284 0.10251421 0.16500000
v -0.05803809 0.13287806 0.16500000
v -0.05567620 0.13337994 0.16500000
v 0.00000000 0.01051042 0.16500000
v -0.00100000 -0.00900000 0.16500000
v 0.00000000 -0.00800000 0.16500000
v -0.00029289 -0.00870711 0.16500000
v -0.00061732 -0.00892388 0.16500000
v 0.00000000 0.11031810 0.16500000
v -0.00062213 0.14492239 0.16500000
v -0.00029535 0.14470609 0.16500000
v -0.00624596 0.14388327 0.16500000
v -0.00100694 0.14499650 0.16500000
v -0.00000000 0.14399653 0.16500000
v -0.03596484 0.13756837 0.16500000
v -0.02931327 0.13898175 0.16500000
v -0.06094691 0.13082666 0.16500000
v -0.07764535 0.11905028 0.16500000
v -0.12406969 0.06940420 0.16500000
v -0.14426147 -0.00887514 0.16500000
v -0.14462452 -0.00853174 0.16500000
v -0.14477606 -0.00805555 0.16500000
v -0.13624506 0.04962139 0.16500000
v -0.13686654 0.04541972 0.16500000
v -0.11886500 -0.00900000 0.16500000
v -0.00062213 0.14492239 0.16700000
v -0.00007678 0.14438081 0.16500000
v -0.00000000 0.14399653 0.16700000
v -0.13686654 0.04541972 0.16700000
v 0.00000000 0.11031810 0.16700000
v -0.00007678 0.14438081 0.16700000
v -0.00029535 0.14470609 0.16700000
v -0.00100694 0.14499650 0.16700000
v -0.00029289 -0.00870711 0.16700000
v -0.00007612 -0.00838268 0.16700000
v 0.00000000 -0.00800000 0.16700000
v 0.00000000 0.01051042 0.16700000
v -0.00061732 -0.00892388 0.16700000
v -0.00100000 -0.00900000 0.16700000
v -0.14377760 -0.00900000 0.16700000
v -0.14462452 -0.00853174 0.16700000
v -0.14426147 -0.00887514 0.16700000
v -0.14477606 -0.00805555 0.16700000
v -0.12406969 0.06940420 0.16700000
v -0.10109284 0.10251421 0.16700000
v -0.07764535 0.11905028 0.16700000
v -0.00624596 0.14388327 0.16700000
v -0.02931327 0.13898175 0.16700000
v -0.05567620 0.13337994 0.16700000
v -0.05803809 0.13287806 0.16700000
v -0.06094691 0.13082666 0.16700000
v -0.10568541 0.09927536 0.16700000
v -0.13624506 0.04962139 0.16700000
v -0.10568541 0.09927536 0.16500000
v -0.04240903 0.03166820 0.16700000
v -0.04240903 0.03166820 0.16500000
v -0.14377760 -0.00900000 0.16500000
v -0.00007612 -0.00838268 0.16500000
f 57 25 5
f 44 53 52
f 50 53 55
f 5 25 56
f 16 15 3
f 49 47 48
f 40 57 39
f 39 57 5
f 37 36 6
f 6 4 37
f 20 57 40
f 40 42 20
f 22 24 19
f 19 24 23
f 30 4 9
f 30 37 4
f 23 24 29
f 29 53 23
f 29 24 22
f 22 43 29
f 8 39 5
f 8 38 39
f 34 38 8
f 8 7 34
f 7 58 35
f 34 7 35
f 6 36 35
f 35 58 6
f 21 19 25
f 25 57 21
f 22 19 21
f 57 20 21
f 21 41 43
f 21 43 22
f 42 41 21
f 21 20 42
f 28 30 14
f 14 30 9
f 54 19 44
f 52 54 44
f 44 19 23
f 23 53 44
f 45 53 50
f 52 53 45
f 50 51 45
f 45 51 46
f 55 29 43
f 43 41 55
f 53 29 55
f 55 41 42
f 55 42 40
f 40 39 55
f 39 38 55
f 55 35 36
f 55 38 34
f 34 35 55
f 11 10 32
f 32 10 26
f 27 32 31
f 11 32 27
f 27 31 28
f 28 14 27
f 56 19 54
f 25 19 56
f 54 15 56
f 17 51 50
f 50 2 17
f 46 51 17
f 17 18 46
f 2 3 1
f 3 15 1
f 1 15 54
f 1 17 2
f 18 17 1
f 1 54 52
f 52 45 1
f 1 45 46
f 46 18 1
f 13 33 26
f 26 10 13
f 16 8 5
f 5 56 16
f 6 58 16
f 7 8 16
f 16 4 6
f 9 4 16
f 11 27 16
f 16 56 15
f 16 14 9
f 16 58 7
f 16 13 10
f 16 10 11
f 16 27 14
f 12 13 16
f 47 13 12
f 33 13 47
f 12 16 47
f 47 16 48
f 36 37 47
f 26 33 47
f 47 30 28
f 37 30 47
f 50 55 47
f 28 31 47
f 47 32 26
f 47 55 36
f 31 32 47
f 49 3 2
f 49 2 50
f 48 16 49
f 49 16 3
f 50 47 49

