# https://github.com/mikedh/trimesh
v -0.13700000 -0.13600000 0.30300001
v -0.13450000 -0.13600000 0.30733013
v -0.13633013 -0.13600000 0.30550000
v -0.13200000 -0.13600000 0.16800000
v -0.13450000 -0.13600000 0.16866987
v -0.13633013 -0.13600000 0.17050000
v -0.13700000 -0.13600000 0.17300000
v 0.13699999 -0.13600000 0.17300000
v 0.13633012 -0.13600000 0.17050000
v 0.13699999 -0.13600000 0.30300001
v 0.13633012 -0.13600000 0.30550000
v 0.13449999 -0.13600000 0.30733013
v 0.13199999 -0.13600000 0.16800000
v 0.13699999 -0.13800000 0.17300000
v -0.13633013 -0.13800000 0.17050000
v -0.13450000 -0.13800000 0.16866987
v -0.13700000 -0.13800000 0.17300000
v -0.13700000 -0.13800000 0.30300001
v -0.13450000 -0.13800000 0.30733013
v -0.13633013 -0.13800000 0.30550000
v 0.13449999 -0.13800000 0.30733013
v 0.13699999 -0.13800000 0.30300001
v 0.13633012 -0.13800000 0.30550000
v 0.13449999 -0.13800000 0.16866987
v 0.13199999 -0.13800000 0.30800000
v 0.13199999 -0.13600000 0.30800000
v -0.13200000 -0.13800000 0.30800000
v -0.13200000 -0.13600000 0.30800000
v 0.13199999 -0.13800000 0.16800000
v -0.13200000 -0.13800000 0.16800000
v 0.13449999 -0.13600000 0.16866987
v 0.13633012 -0.13800000 0.17050000
f 1 7 18
f 18 7 17
f 1 18 3
f 18 20 3
f 3 20 19
f 19 2 3
f 28 2 27
f 27 2 19
f 16 5 4
f 4 30 16
f 4 13 29
f 29 30 4
f 28 27 25
f 25 26 28
f 12 26 25
f 21 12 25
f 17 7 15
f 7 6 15
f 15 6 5
f 5 16 15
f 4 5 31
f 31 10 8
f 31 7 1
f 12 11 31
f 31 26 12
f 1 3 31
f 31 6 7
f 31 13 4
f 31 11 10
f 31 2 28
f 5 6 31
f 31 3 2
f 28 26 31
f 8 9 31
f 31 29 13
f 24 29 31
f 31 32 24
f 9 32 31
f 8 10 14
f 10 22 14
f 14 9 8
f 14 32 9
f 19 20 23
f 24 32 23
f 23 18 17
f 23 27 19
f 30 29 23
f 23 20 18
f 23 29 24
f 21 25 23
f 23 25 27
f 23 16 30
f 17 15 23
f 23 15 16
f 32 14 23
f 23 14 22
f 23 11 12
f 23 12 21
f 10 11 23
f 23 22 10

