# https://github.com/mikedh/trimesh
v -0.21127603 -0.13946583 0.21700211
v -0.23245816 -0.04862007 0.21532113
v -0.21238506 -0.13894902 0.21532113
v -0.21420630 -0.13585935 0.21340267
v -0.22431942 -0.10516651 0.20783572
v -0.18769234 -0.04017813 0.29418336
v -0.18690760 -0.04199212 0.29482863
v -0.18983787 -0.03838564 0.29122919
v -0.18872884 -0.03890245 0.29291017
v -0.21737182 -0.03791931 0.24484985
v -0.20692737 -0.03559833 0.26338146
v -0.17679448 -0.07268496 0.30039558
v -0.19418653 -0.14225314 0.24484984
v -0.18374208 -0.13993215 0.26338145
v -0.16831448 -0.12566117 0.29482863
v -0.17215250 -0.09357386 0.30039558
v -0.16825708 -0.12763678 0.29418336
v -0.17384331 -0.09394960 0.30139558
v -0.17848529 -0.07306070 0.30139558
v -0.16944151 -0.13016927 0.29122919
v -0.16865574 -0.12923139 0.29291017
v -0.17034654 -0.12960713 0.29391017
v -0.16994789 -0.12801252 0.29518336
v -0.17000528 -0.12603690 0.29582863
v -0.18859841 -0.04236786 0.29582863
v -0.18938315 -0.04055387 0.29518336
v -0.19152868 -0.03876137 0.29222919
v -0.21906263 -0.03829505 0.24584985
v -0.20861818 -0.03597406 0.26438146
v -0.17113231 -0.13054501 0.29222919
v -0.23065220 -0.08465334 0.20883572
v -0.22601022 -0.10554224 0.20883572
v -0.23414897 -0.04899581 0.21632113
v -0.23454762 -0.05059042 0.21504794
v -0.21589710 -0.13623508 0.21440267
v -0.21511236 -0.13804907 0.21504794
v -0.21296683 -0.13984157 0.21800211
v -0.19587733 -0.14262888 0.24584984
v -0.18543288 -0.14030789 0.26438145
v -0.21342156 -0.13767333 0.21404794
v -0.21407587 -0.13932476 0.21632113
v -0.22896140 -0.08427761 0.20783572
v -0.23167239 -0.04768220 0.21700211
v -0.23336320 -0.04805793 0.21800211
v -0.23285682 -0.05021468 0.21404794
v -0.23279942 -0.05219030 0.21340268
v -0.23449023 -0.05256604 0.21440268
v -0.19041964 -0.03927818 0.29391017
f 19 18 16
f 16 12 19
f 7 25 19
f 19 12 7
f 14 39 38
f 38 13 14
f 38 37 1
f 1 13 38
f 15 24 23
f 15 23 17
f 18 24 15
f 15 16 18
f 35 32 5
f 4 35 5
f 5 32 31
f 31 42 5
f 20 30 39
f 39 14 20
f 46 42 31
f 31 47 46
f 17 23 21
f 23 22 21
f 21 22 30
f 30 20 21
f 41 1 37
f 41 3 1
f 40 36 35
f 40 35 4
f 40 41 36
f 3 41 40
f 10 43 44
f 44 28 10
f 11 29 27
f 11 27 8
f 28 29 11
f 10 28 11
f 25 7 6
f 6 26 25
f 48 9 8
f 8 27 48
f 48 6 9
f 26 6 48
f 45 40 4
f 45 6 7
f 45 15 17
f 4 5 45
f 2 43 45
f 17 21 45
f 12 16 45
f 45 7 12
f 8 9 45
f 45 14 13
f 13 1 45
f 16 15 45
f 45 5 42
f 45 20 14
f 1 3 45
f 45 43 10
f 45 11 8
f 42 46 45
f 45 21 20
f 3 40 45
f 10 11 45
f 9 6 45
f 45 47 34
f 45 46 47
f 33 48 27
f 35 36 33
f 19 25 33
f 33 18 19
f 38 39 33
f 33 37 38
f 33 41 37
f 23 24 33
f 33 32 35
f 34 47 33
f 33 24 18
f 31 32 33
f 39 30 33
f 27 29 33
f 33 22 23
f 25 26 33
f 33 47 31
f 30 22 33
f 33 29 28
f 36 41 33
f 28 44 33
f 26 48 33
f 2 45 33
f 33 45 34
f 33 43 2
f 33 44 43

