# https://github.com/mikedh/trimesh
v -0.08543737 -0.19333502 0.30499999
v -0.08543737 -0.19333502 0.17100000
v -0.08681101 -0.19478868 0.17100000
v -0.13696215 -0.14739814 0.30800000
v -0.13558852 -0.14594449 0.30800000
v -0.13667876 -0.14491426 0.30759807
v -0.13747687 -0.14416008 0.30650001
v -0.13885051 -0.14561374 0.30650001
v -0.13776900 -0.14388403 0.30499999
v -0.13914264 -0.14533769 0.30499999
v -0.08761786 -0.19127456 0.16800000
v -0.08899150 -0.19272822 0.16800000
v -0.13914264 -0.14533769 0.17100000
v -0.13776900 -0.14388403 0.17100000
v -0.13558852 -0.14594449 0.16800000
v -0.13667876 -0.14491426 0.16840192
v -0.08627462 -0.19254386 0.16875000
v -0.08572950 -0.19305897 0.16950000
v -0.08761786 -0.19127456 0.30800000
v -0.08572950 -0.19305897 0.30650001
v -0.08652761 -0.19230479 0.30759807
v -0.13747687 -0.14416008 0.16950000
v -0.13885051 -0.14561374 0.16950000
v -0.08790125 -0.19375845 0.16840192
v -0.08764826 -0.19399752 0.16875000
v -0.13805240 -0.14636792 0.30759807
v -0.08899150 -0.19272822 0.30800000
v -0.08681101 -0.19478868 0.30499999
v -0.08790125 -0.19375845 0.30759807
v -0.08710314 -0.19451263 0.30650001
v -0.08710314 -0.19451263 0.16950000
v -0.13696215 -0.14739814 0.16800000
v -0.13805240 -0.14636792 0.16840192
v -0.08652761 -0.19230479 0.16840192
f 28 2 1
f 3 2 28
f 30 28 20
f 20 28 1
f 14 13 10
f 10 9 14
f 4 27 5
f 5 27 19
f 7 9 8
f 8 9 10
f 23 13 22
f 13 14 22
f 31 2 3
f 31 18 2
f 17 18 31
f 31 25 17
f 11 34 24
f 24 12 11
f 24 34 17
f 17 25 24
f 12 32 15
f 11 12 15
f 33 22 16
f 23 22 33
f 16 15 33
f 33 15 32
f 30 20 29
f 20 21 29
f 29 21 19
f 19 27 29
f 11 15 6
f 6 14 9
f 1 2 6
f 2 18 6
f 6 9 7
f 19 21 6
f 6 20 1
f 16 22 6
f 6 34 11
f 6 18 17
f 17 34 6
f 6 21 20
f 6 5 19
f 6 22 14
f 6 15 16
f 3 28 26
f 23 33 26
f 10 13 26
f 26 28 30
f 26 13 23
f 26 8 10
f 12 24 26
f 26 31 3
f 26 32 12
f 26 27 4
f 30 29 26
f 25 31 26
f 26 24 25
f 26 33 32
f 26 29 27
f 4 5 26
f 5 6 26
f 7 8 26
f 26 6 7

