# https://github.com/mikedh/trimesh
v -0.01351944 -0.04227723 0.03690000
v -0.01350624 -0.04372717 0.03850000
v -0.01349533 -0.04492712 0.03850000
v -0.01352990 -0.04112728 0.03850000
v -0.01347167 -0.04752701 0.03691000
v -0.01433714 -0.04033459 0.03690000
v -0.01350624 -0.04372717 0.03849000
v -0.01348668 -0.04587708 0.03691000
v -0.01348214 -0.04637706 0.03690000
v -0.01348668 -0.04587708 0.03690000
v -0.01352990 -0.04112728 0.03691000
v -0.01354545 -0.04097741 0.03691000
v -0.01354545 -0.04097741 0.03690000
v -0.01364071 -0.04072827 0.03690000
v -0.01364071 -0.04072827 0.03850000
v -0.01393618 -0.04043812 0.03690000
v -0.01393618 -0.04043812 0.03850000
v -0.01347167 -0.04752701 0.03850000
v -0.03644551 -0.05583283 0.03850000
v -0.01386535 -0.04822344 0.03850000
v -0.01357521 -0.04792797 0.03850000
v -0.04132022 -0.05263656 0.03850000
v -0.04411367 -0.04752036 0.03850000
v -0.04416671 -0.04169145 0.03850000
v -0.04146681 -0.03652527 0.03850000
v -0.03665106 -0.03324084 0.03850000
v -0.03085580 -0.03261317 0.03850000
v -0.02544852 -0.03479038 0.03850000
v -0.03063980 -0.05635494 0.03850000
v -0.02527303 -0.05407971 0.03850000
v -0.02170514 -0.03925872 0.03690000
v -0.02161156 -0.04954401 0.03690000
v -0.03614335 -0.04821026 0.03690000
v -0.03751036 -0.04589150 0.03690000
v -0.03753485 -0.04319989 0.03690000
v -0.03621025 -0.04085665 0.03690000
v -0.03389150 -0.03948964 0.03690000
v -0.03380011 -0.04953485 0.03690000
v -0.01357521 -0.04792797 0.03690000
v -0.01348450 -0.04767713 0.03690000
v -0.01348450 -0.04767713 0.03691000
v -0.01386535 -0.04822344 0.03690000
v -0.01426436 -0.04833426 0.03690000
v -0.01864682 -0.04138308 0.03690000
f 19 22 33
f 29 32 43
f 35 23 24
f 29 19 38
f 38 32 29
f 38 19 33
f 42 30 29
f 29 43 42
f 25 35 24
f 23 35 34
f 22 23 34
f 33 22 34
f 30 42 20
f 26 27 37
f 35 25 36
f 25 26 36
f 36 26 37
f 37 27 31
f 28 16 27
f 41 18 21
f 33 34 44
f 44 38 33
f 35 36 44
f 44 34 35
f 44 36 37
f 37 31 44
f 44 42 43
f 44 43 32
f 32 38 44
f 44 39 42
f 27 16 6
f 6 31 27
f 16 44 6
f 6 44 31
f 16 28 17
f 3 18 8
f 14 44 16
f 14 13 44
f 39 44 40
f 15 4 12
f 11 7 10
f 9 40 44
f 44 10 9
f 5 40 9
f 9 10 5
f 1 13 11
f 11 10 1
f 44 13 1
f 1 10 44
f 21 20 39
f 39 20 42
f 24 27 26
f 26 25 24
f 2 20 21
f 2 4 15
f 29 30 2
f 2 19 29
f 2 27 24
f 2 23 22
f 24 23 2
f 22 19 2
f 21 18 2
f 2 18 3
f 15 17 2
f 30 20 2
f 2 28 27
f 2 17 28
f 14 17 15
f 16 17 14
f 18 41 40
f 5 18 40
f 21 39 40
f 40 41 21
f 12 14 15
f 13 14 12
f 4 11 12
f 11 13 12
f 4 2 7
f 7 11 4
f 10 18 5
f 10 8 18
f 10 2 3
f 10 7 2
f 3 8 10

