# https://github.com/mikedh/trimesh
v -0.23130143 -0.05968492 0.22711950
v -0.22715753 -0.10804058 0.21595714
v -0.20233087 -0.13859646 0.24645328
v -0.18579201 -0.07244103 0.29927416
v -0.21061867 -0.04188515 0.26877802
v -0.22320093 -0.04468120 0.24645329
v -0.19692606 -0.05204595 0.28811180
v -0.20639166 -0.04094581 0.26627802
v -0.21897391 -0.04374187 0.24395329
v -0.22707441 -0.05874558 0.22461950
v -0.23274964 -0.08287606 0.21595714
v -0.22293051 -0.10710124 0.21345714
v -0.21602348 -0.12843566 0.22711950
v -0.18552160 -0.13486107 0.26627801
v -0.18974861 -0.13580041 0.26877801
v -0.17742110 -0.11985735 0.28561180
v -0.18164811 -0.12079669 0.28811180
v -0.17597288 -0.09666621 0.29677416
v -0.18019990 -0.09760555 0.29927416
v -0.18156500 -0.07150170 0.29677416
v -0.19269904 -0.05110661 0.28561180
v -0.24129333 -0.07571477 0.28214446
v -0.24697808 -0.07697805 0.27205799
v -0.23510691 -0.08030550 0.29087960
v -0.23007646 -0.08952014 0.29592284
v -0.24451790 -0.09869483 0.28011565
v -0.22754991 -0.10088965 0.29592284
v -0.22820422 -0.11136758 0.29087960
v -0.23186408 -0.11814637 0.28214446
v -0.23754884 -0.11940965 0.27205799
v -0.24373526 -0.11481892 0.26332284
v -0.24876570 -0.10560428 0.25827961
v -0.25129226 -0.09423476 0.25827961
v -0.25063795 -0.08375684 0.26332284
v -0.23858544 -0.05881501 0.26013051
v -0.22873915 -0.05662695 0.27760080
v -0.21802396 -0.06457832 0.29273051
v -0.20931098 -0.08053855 0.30146565
v -0.20493485 -0.10023112 0.30146565
v -0.20606815 -0.11837942 0.29273050
v -0.21240722 -0.13012063 0.27760079
v -0.22225351 -0.13230869 0.26013051
v -0.23296871 -0.12435732 0.24500080
v -0.24168169 -0.10839709 0.23626565
v -0.24605782 -0.08870452 0.23626565
v -0.24492451 -0.07055622 0.24500080
v -0.22852263 -0.08193672 0.21345714
v -0.19810385 -0.13765713 0.24395328
v -0.21179647 -0.12749633 0.22461950
f 2 13 44
f 1 11 45
f 45 46 1
f 24 38 37
f 37 38 7
f 37 36 24
f 7 36 37
f 44 31 32
f 32 26 33
f 32 31 26
f 29 26 30
f 26 31 30
f 44 13 43
f 43 31 44
f 5 36 7
f 1 46 35
f 7 38 4
f 24 36 22
f 22 26 24
f 22 23 26
f 33 26 34
f 26 23 34
f 34 45 33
f 46 45 34
f 23 35 34
f 34 35 46
f 42 13 3
f 42 43 13
f 42 30 31
f 31 43 42
f 1 35 6
f 29 41 28
f 41 40 28
f 28 26 29
f 28 27 26
f 24 26 25
f 26 27 25
f 25 38 24
f 39 28 40
f 27 28 39
f 41 15 17
f 17 40 41
f 19 39 17
f 17 39 40
f 49 2 12
f 13 2 49
f 12 2 47
f 47 2 11
f 1 10 47
f 47 11 1
f 11 2 45
f 45 2 44
f 32 45 44
f 33 45 32
f 5 21 8
f 7 21 5
f 48 15 3
f 14 15 48
f 13 49 48
f 3 13 48
f 4 20 21
f 4 21 7
f 18 20 19
f 20 4 19
f 22 35 23
f 36 35 22
f 3 15 42
f 42 15 41
f 42 41 29
f 29 30 42
f 8 9 6
f 6 5 8
f 6 35 36
f 36 5 6
f 6 9 10
f 6 10 1
f 14 48 16
f 12 47 16
f 16 9 8
f 16 49 12
f 8 21 16
f 10 9 16
f 16 20 18
f 16 47 10
f 21 20 16
f 16 48 49
f 39 19 4
f 39 4 38
f 38 25 39
f 39 25 27
f 17 15 14
f 14 16 17
f 18 19 17
f 17 16 18

