# https://github.com/mikedh/trimesh
v -0.04106213 -0.03609227 0.04190000
v -0.03571115 -0.03293763 0.04190000
v -0.02949975 -0.03288111 0.04190000
v -0.02409227 -0.03593787 0.04190000
v -0.02093762 -0.04128885 0.04190000
v -0.02088111 -0.04750025 0.04190000
v -0.02393787 -0.05290773 0.04190000
v -0.02928885 -0.05606237 0.04190000
v -0.03550025 -0.05611889 0.04190000
v -0.04090773 -0.05306213 0.04190000
v -0.04406237 -0.04771115 0.04190000
v -0.04411889 -0.04149975 0.04190000
v -0.02930421 -0.04107204 0.02800000
v -0.02913075 -0.04124236 0.02800000
v -0.02818271 -0.04365090 0.02800000
v -0.02831522 -0.04585927 0.02800000
v -0.03366531 -0.04874288 0.02800000
v -0.03558283 -0.04763945 0.02800000
v -0.03679200 -0.04353111 0.02800000
v -0.03577795 -0.04156486 0.02800000
v -0.03393518 -0.04034064 0.02800000
v -0.03525023 -0.05515065 0.04600000
v -0.04315064 -0.04174977 0.04600000
v -0.04349948 -0.04439278 0.04527268
v -0.04349954 -0.04460007 0.04530000
v -0.04309884 -0.04744356 0.04600000
v -0.04349571 -0.04480718 0.04527272
v -0.02974977 -0.03384935 0.04600000
v -0.03239278 -0.03350052 0.04527268
v -0.03260007 -0.03350046 0.04530000
v -0.03544356 -0.03390116 0.04600000
v -0.03280718 -0.03350429 0.04527272
v -0.04034862 -0.03679291 0.04600000
v -0.02184935 -0.04725023 0.04600000
v -0.02190116 -0.04155644 0.04600000
v -0.02150429 -0.04419282 0.04527272
v -0.02479291 -0.03665138 0.04600000
v -0.03219282 -0.05549571 0.04527272
v -0.03239992 -0.05549954 0.04530000
v -0.03260722 -0.05549948 0.04527268
v -0.02150046 -0.04439993 0.04530000
v -0.02150052 -0.04460722 0.04527268
v -0.03530976 -0.03438292 0.04650000
v -0.02987478 -0.03433347 0.04650000
v -0.02514323 -0.03700814 0.04650000
v -0.02238292 -0.04169024 0.04650000
v -0.02465138 -0.05220709 0.04600000
v -0.02969024 -0.05461708 0.04650000
v -0.02955644 -0.05509884 0.04600000
v -0.03512522 -0.05466653 0.04650000
v -0.03985677 -0.05199186 0.04650000
v -0.04020709 -0.05234862 0.04600000
v -0.04266653 -0.04187478 0.04650000
v -0.03999186 -0.03714323 0.04650000
v -0.02393787 -0.05290773 0.03875000
v -0.02088111 -0.04750025 0.03875000
v -0.02093762 -0.04128885 0.03875000
v -0.02409227 -0.03593787 0.03875000
v -0.02949975 -0.03288111 0.03875000
v -0.03571115 -0.03293763 0.03875000
v -0.04106213 -0.03609227 0.03875000
v -0.04411889 -0.04149975 0.03875000
v -0.04406237 -0.04771115 0.03875000
v -0.04090773 -0.05306213 0.03875000
v -0.03550025 -0.05611889 0.03875000
v -0.02928885 -0.05606237 0.03875000
v -0.04261708 -0.04730976 0.04650000
v -0.02500814 -0.05185677 0.04650000
v -0.02233347 -0.04712522 0.04650000
v -0.03172959 -0.04016797 0.02800000
v -0.03672098 -0.04574232 0.02800000
v -0.03145318 -0.04877366 0.02800000
v -0.02950570 -0.04772400 0.02800000
f 58 13 59
f 57 56 15
f 71 64 63
f 18 64 71
f 59 13 70
f 70 60 59
f 20 62 61
f 57 15 14
f 14 58 57
f 13 58 14
f 19 62 20
f 19 71 63
f 63 62 19
f 60 70 21
f 21 61 60
f 20 61 21
f 23 26 53
f 10 26 11
f 22 48 50
f 50 51 22
f 10 9 22
f 28 37 3
f 44 45 28
f 28 45 37
f 28 3 29
f 28 43 44
f 28 31 43
f 3 37 4
f 35 45 46
f 37 45 35
f 5 4 35
f 35 4 37
f 36 5 35
f 46 69 35
f 16 15 56
f 16 56 55
f 55 73 16
f 2 31 32
f 26 23 25
f 12 11 25
f 43 31 33
f 33 23 53
f 2 1 33
f 33 31 2
f 33 1 12
f 12 23 33
f 53 26 67
f 26 51 67
f 52 26 10
f 52 51 26
f 10 22 52
f 52 22 51
f 68 48 47
f 8 7 47
f 47 7 6
f 47 69 68
f 40 22 9
f 30 3 2
f 2 32 30
f 29 3 30
f 30 28 29
f 31 28 30
f 30 32 31
f 24 23 12
f 12 25 24
f 24 25 23
f 27 11 26
f 26 25 27
f 27 25 11
f 54 33 53
f 43 33 54
f 34 35 69
f 6 42 34
f 34 47 6
f 69 47 34
f 39 9 8
f 39 40 9
f 22 40 39
f 66 72 73
f 66 73 55
f 65 72 66
f 17 72 65
f 65 64 17
f 17 64 18
f 36 35 41
f 35 34 41
f 41 34 42
f 41 42 6
f 6 5 41
f 41 5 36
f 38 39 8
f 48 22 49
f 22 39 49
f 39 38 49
f 49 38 8
f 8 47 49
f 49 47 48
f 61 1 2
f 2 60 61
f 61 62 12
f 12 1 61
f 10 64 9
f 9 64 65
f 3 60 2
f 59 60 3
f 5 56 57
f 6 56 5
f 11 64 10
f 63 64 11
f 12 62 11
f 11 62 63
f 7 56 6
f 55 56 7
f 59 3 4
f 4 58 59
f 4 5 57
f 57 58 4
f 54 69 46
f 44 43 54
f 54 51 50
f 53 67 54
f 50 48 54
f 54 45 44
f 54 48 68
f 68 69 54
f 46 45 54
f 54 67 51
f 55 7 66
f 66 7 8
f 66 9 65
f 8 9 66
f 15 16 17
f 20 21 17
f 13 14 17
f 17 19 20
f 73 72 17
f 18 71 17
f 17 70 13
f 17 14 15
f 71 19 17
f 17 21 70
f 17 16 73

