# https://github.com/mikedh/trimesh
v -0.01776617 -0.05298023 0.04700000
v -0.02398025 -0.05921101 0.06700000
v -0.02398025 -0.05921101 0.04700000
v -0.03247718 -0.06149999 0.06700000
v -0.03247718 -0.06149999 0.04700000
v -0.04098023 -0.05923383 0.06700000
v -0.04721101 -0.05301975 0.06700000
v -0.04721101 -0.05301975 0.04700000
v -0.04949999 -0.04452282 0.06700000
v -0.04949999 -0.04452282 0.04700000
v -0.04723383 -0.03601977 0.04700000
v -0.04101975 -0.02978899 0.06700000
v -0.03252282 -0.02750001 0.06700000
v -0.03252282 -0.02750001 0.04700000
v -0.01778899 -0.03598025 0.06700000
v -0.01778899 -0.03598025 0.04700000
v -0.01550001 -0.04447718 0.06700000
v -0.01550001 -0.04447718 0.04700000
v -0.01776617 -0.05298023 0.06700000
v -0.04101975 -0.02978899 0.04700000
v -0.04098023 -0.05923383 0.04700000
v -0.02401977 -0.02976617 0.04700000
v -0.04723383 -0.03601977 0.06700000
v -0.02401977 -0.02976617 0.06700000
f 17 19 18
f 18 19 1
f 11 10 23
f 23 10 9
f 7 10 8
f 9 10 7
f 6 7 21
f 21 7 8
f 4 6 21
f 21 5 4
f 15 18 16
f 17 18 15
f 13 24 22
f 14 13 22
f 24 15 22
f 22 15 16
f 12 23 9
f 4 2 12
f 12 19 17
f 9 7 12
f 12 6 4
f 12 24 13
f 17 15 12
f 12 7 6
f 12 2 19
f 12 15 24
f 1 19 3
f 19 2 3
f 4 5 3
f 3 2 4
f 1 3 20
f 20 21 8
f 14 22 20
f 20 18 1
f 8 10 20
f 16 18 20
f 20 10 11
f 5 21 20
f 20 22 16
f 20 3 5
f 20 13 14
f 20 12 13
f 11 23 20
f 23 12 20

