# https://github.com/mikedh/trimesh
v -0.03350889 -0.03547471 0.07600000
v -0.03350889 -0.03547471 0.08400000
v -0.03349851 -0.03521610 0.08400000
v -0.03349851 -0.03521610 0.07600000
v -0.03336021 -0.03499733 0.08400000
v -0.03313105 -0.03487702 0.07600000
v -0.02954004 -0.05308559 0.08400000
v -0.02954004 -0.05308559 0.07600000
v -0.02894235 -0.05346343 0.07600000
v -0.02894235 -0.05346343 0.08400000
v -0.02920096 -0.05345305 0.08400000
v -0.02920096 -0.05345305 0.07600000
v -0.02941973 -0.05331475 0.07600000
v -0.02552798 -0.05269396 0.07600000
v -0.02552798 -0.05269396 0.08400000
v -0.02529882 -0.05257365 0.08400000
v -0.02235063 -0.04087835 0.08400000
v -0.02235063 -0.04087835 0.07600000
v -0.02176913 -0.04208165 0.08400000
v -0.02176913 -0.04208165 0.07600000
v -0.02177827 -0.04341806 0.08400000
v -0.02516052 -0.05235487 0.08400000
v -0.02941973 -0.05331475 0.08400000
v -0.03313105 -0.03487702 0.08400000
v -0.02923930 -0.03425623 0.08400000
v -0.02177827 -0.04341806 0.07600000
v -0.02923930 -0.03425623 0.07600000
v -0.02971669 -0.03410754 0.07600000
v -0.03336021 -0.03499733 0.07600000
v -0.02529882 -0.05257365 0.07600000
v -0.02516052 -0.05235487 0.07600000
v -0.02971669 -0.03410754 0.08400000
v -0.02945807 -0.03411793 0.08400000
v -0.02945807 -0.03411793 0.07600000
f 1 8 7
f 7 2 1
f 14 30 15
f 15 30 16
f 22 30 31
f 16 30 22
f 19 21 26
f 26 20 19
f 21 22 26
f 26 22 31
f 5 24 29
f 29 24 6
f 18 17 19
f 19 20 18
f 10 12 9
f 11 12 10
f 9 14 10
f 14 15 10
f 23 13 12
f 23 12 11
f 23 7 8
f 8 13 23
f 1 2 4
f 2 3 4
f 4 3 5
f 5 29 4
f 27 8 1
f 9 12 27
f 27 14 9
f 31 30 27
f 27 28 34
f 27 13 8
f 20 26 27
f 27 18 20
f 27 30 14
f 27 26 31
f 12 13 27
f 27 29 6
f 1 4 27
f 6 28 27
f 27 4 29
f 34 28 32
f 33 34 32
f 6 24 32
f 32 28 6
f 5 3 25
f 2 7 25
f 11 10 25
f 25 21 19
f 16 22 25
f 19 17 25
f 25 3 2
f 25 15 16
f 33 32 25
f 25 24 5
f 25 22 21
f 25 23 11
f 25 10 15
f 7 23 25
f 25 32 24
f 25 27 34
f 25 34 33
f 17 18 25
f 18 27 25

