# https://github.com/mikedh/trimesh
v 0.12252671 -0.07436395 0.26390528
v 0.12449980 -0.11600037 0.26285528
v 0.12449980 -0.11600037 0.26260528
v 0.12629979 -0.11600037 0.26260528
v 0.12749979 -0.10982537 0.26290528
v 0.11902671 -0.07266395 0.26260528
v 0.11882671 -0.07286395 0.26260528
v 0.11882671 -0.08011395 0.26260528
v 0.11882671 -0.07436395 0.26730528
v 0.12162671 -0.07436395 0.26730528
v 0.12222671 -0.07436395 0.26630528
v 0.12252671 -0.07436395 0.26265528
v 0.12629979 -0.11600037 0.26285528
v 0.12709979 -0.11530037 0.26290528
v 0.12429979 -0.11580037 0.26260528
v 0.12749979 -0.11202537 0.26280528
v 0.12749979 -0.10982537 0.26280528
v 0.12749979 -0.11202537 0.26290528
v 0.12102671 -0.07286395 0.26260528
v 0.12162671 -0.07861395 0.26730528
v 0.11882671 -0.07861395 0.26730528
v 0.12249980 -0.11296037 0.26260528
v 0.12229980 -0.11296037 0.26280528
v 0.12229980 -0.11296037 0.26310528
v 0.12749954 -0.10755037 0.26280528
v 0.12749954 -0.11430037 0.26280528
v 0.12749973 -0.11400037 0.26490528
v 0.12709979 -0.11580037 0.26340528
v 0.12709979 -0.11580037 0.26450528
v 0.12709979 -0.11550037 0.26480528
v 0.12162671 -0.07286395 0.26325528
v 0.12749954 -0.11410037 0.26260528
v 0.12162671 -0.07286395 0.26525528
v 0.11882671 -0.08011395 0.26525528
v 0.12302671 -0.07570395 0.26290528
v 0.12749973 -0.10785037 0.26490528
v 0.12749973 -0.11400037 0.26400528
v 0.12429979 -0.11550037 0.26480528
v 0.12429979 -0.11580037 0.26450528
v 0.12297671 -0.07570395 0.26260528
v 0.12302671 -0.07570395 0.26265528
v 0.12749954 -0.10755037 0.26560528
v 0.12649979 -0.10755037 0.26600528
v 0.12749954 -0.10775037 0.26260528
v 0.12749973 -0.10785037 0.26400528
v 0.11882671 -0.07286395 0.26525528
v 0.12329979 -0.11380037 0.26600528
v 0.11902671 -0.07266395 0.26285528
v 0.12389979 -0.11430037 0.26600528
v 0.12649979 -0.11430037 0.26600528
v 0.12329979 -0.11430037 0.26550528
v 0.12082671 -0.07266395 0.26285528
v 0.12082671 -0.07266395 0.26260528
v 0.12749954 -0.11430037 0.26560528
f 47 21 24
f 24 21 34
f 21 47 49
f 10 43 42
f 14 32 28
f 51 47 24
f 51 49 47
f 8 22 23
f 42 35 11
f 11 10 42
f 10 11 33
f 45 44 25
f 30 54 50
f 30 29 54
f 32 16 37
f 17 44 45
f 39 51 24
f 49 51 39
f 32 14 4
f 4 14 28
f 23 22 15
f 44 40 41
f 41 25 44
f 32 37 26
f 28 32 26
f 49 39 38
f 12 41 40
f 1 11 35
f 1 33 11
f 19 31 12
f 53 31 19
f 19 12 40
f 42 43 54
f 54 43 50
f 8 23 24
f 24 34 8
f 20 9 21
f 20 10 9
f 20 49 50
f 21 49 20
f 50 43 20
f 43 10 20
f 25 36 45
f 42 36 25
f 32 44 17
f 17 16 32
f 45 36 17
f 17 36 5
f 2 13 39
f 13 29 39
f 4 13 2
f 2 3 4
f 4 29 13
f 28 29 4
f 24 23 15
f 15 39 24
f 15 3 2
f 2 39 15
f 9 10 46
f 10 33 46
f 46 34 21
f 21 9 46
f 46 8 34
f 7 8 46
f 42 25 41
f 41 35 42
f 26 29 28
f 54 29 26
f 42 54 27
f 27 36 42
f 54 26 27
f 27 26 37
f 38 39 29
f 29 30 38
f 50 49 38
f 38 30 50
f 16 17 18
f 18 17 5
f 5 36 18
f 36 27 18
f 18 27 37
f 18 37 16
f 35 41 1
f 41 12 1
f 31 1 12
f 33 1 31
f 33 31 52
f 52 31 53
f 19 8 7
f 19 44 32
f 3 15 19
f 19 40 44
f 22 8 19
f 32 4 19
f 19 4 3
f 19 15 22
f 7 6 19
f 19 6 53
f 7 46 48
f 48 6 7
f 48 46 33
f 33 52 48
f 53 6 48
f 48 52 53

