# https://github.com/mikedh/trimesh
v -0.00000000 0.00250893 0.16500000
v -0.00000000 0.00250893 0.16700000
v 0.00000000 -0.00800000 0.16700000
v 0.14377760 -0.00900000 0.16700000
v 0.00100000 -0.00900000 0.16700000
v 0.14377760 -0.00900000 0.16500000
v 0.00100000 -0.00900000 0.16500000
v -0.00000000 0.14399653 0.16700000
v -0.00000000 0.14399653 0.16500000
v 0.14477606 -0.00805555 0.16500000
v 0.14477606 -0.00805555 0.16700000
v 0.14462451 -0.00853174 0.16700000
v 0.14426148 -0.00887514 0.16700000
v 0.14426148 -0.00887514 0.16500000
v 0.00000000 -0.00800000 0.16500000
v 0.00013397 -0.00850000 0.16500000
v 0.00050000 -0.00886602 0.16500000
v 0.00050000 -0.00886602 0.16700000
v 0.10682274 0.09742739 0.16500000
v 0.14245513 0.00763597 0.16500000
v 0.13608615 0.04987961 0.16500000
v 0.12426936 0.06907977 0.16500000
v 0.10568540 0.09927535 0.16500000
v 0.05803809 0.13287806 0.16500000
v 0.06916274 0.12503254 0.16500000
v 0.05546313 0.13342522 0.16500000
v 0.01017397 0.14304862 0.16500000
v 0.00062214 0.14492238 0.16500000
v 0.00100695 0.14499650 0.16500000
v 0.00029535 0.14470608 0.16500000
v 0.00007679 0.14438081 0.16500000
v 0.14462451 -0.00853174 0.16500000
v 0.00062214 0.14492238 0.16700000
v 0.13624507 0.04962139 0.16700000
v 0.13608615 0.04987961 0.16700000
v 0.12426936 0.06907977 0.16700000
v 0.00029535 0.14470608 0.16700000
v 0.00007679 0.14438081 0.16700000
v 0.00100695 0.14499650 0.16700000
v 0.01017397 0.14304862 0.16700000
v 0.06916274 0.12503254 0.16700000
v 0.05803809 0.13287806 0.16700000
v 0.05546313 0.13342522 0.16700000
v 0.10682274 0.09742739 0.16700000
v 0.14245513 0.00763597 0.16700000
v 0.00013397 -0.00850000 0.16700000
v 0.10568540 0.09927535 0.16700000
v 0.13624507 0.04962139 0.16500000
f 2 9 1
f 8 9 2
f 3 2 15
f 15 2 1
f 15 46 3
f 16 46 15
f 6 4 5
f 5 7 6
f 23 25 47
f 47 25 41
f 42 25 24
f 41 25 42
f 20 45 11
f 20 11 10
f 34 45 20
f 20 48 34
f 18 7 5
f 18 17 7
f 18 46 16
f 16 17 18
f 4 6 14
f 14 13 4
f 23 47 19
f 47 44 19
f 22 19 36
f 36 19 44
f 24 26 43
f 43 42 24
f 43 26 27
f 27 40 43
f 39 27 29
f 39 40 27
f 9 31 32
f 1 9 32
f 32 15 1
f 32 21 48
f 29 27 32
f 23 19 32
f 32 28 29
f 32 25 23
f 32 20 10
f 30 28 32
f 32 31 30
f 32 26 24
f 16 15 32
f 32 6 7
f 27 26 32
f 7 17 32
f 24 25 32
f 32 17 16
f 22 21 32
f 48 20 32
f 32 14 6
f 32 19 22
f 10 11 32
f 11 12 32
f 32 12 13
f 13 14 32
f 48 21 35
f 34 48 35
f 35 21 22
f 22 36 35
f 29 28 33
f 33 39 29
f 33 28 30
f 30 37 33
f 8 2 38
f 5 4 38
f 38 18 5
f 42 43 38
f 38 2 3
f 38 12 11
f 11 45 38
f 3 46 38
f 38 45 34
f 38 47 41
f 41 42 38
f 4 13 38
f 38 44 47
f 34 35 38
f 46 18 38
f 13 12 38
f 38 36 44
f 38 43 40
f 40 39 38
f 38 35 36
f 39 33 38
f 38 33 37
f 38 9 8
f 38 31 9
f 30 31 38
f 38 37 30

