# https://github.com/mikedh/trimesh
v 0.11627960 -0.13199998 0.27160528
v 0.11627960 -0.12319998 0.27160528
v 0.09831960 -0.12319998 0.27160528
v 0.10448960 -0.13209998 0.27060528
v 0.10348960 -0.13209998 0.26860528
v 0.11671635 -0.07188664 0.26910528
v 0.09263635 -0.07188664 0.26910528
v 0.10248960 -0.13209998 0.27060528
v 0.08649979 -0.07300009 0.26910528
v 0.12649971 -0.13199998 0.25700000
v 0.12649979 -0.13199998 0.26910528
v 0.08749977 -0.13199998 0.26910528
v 0.08749952 -0.13199998 0.26260528
v 0.09831960 -0.13199998 0.27160528
v 0.08651952 -0.07280245 0.26685528
v 0.08649937 -0.13099998 0.26260528
v 0.08649937 -0.13099998 0.26585528
v 0.08649937 -0.13099998 0.26910528
v 0.08649979 -0.07300009 0.25700000
v 0.08651969 -0.07280078 0.26100000
v 0.08656204 -0.07265188 0.26910528
v 0.08716057 -0.07205926 0.26910528
v 0.08749996 -0.07200010 0.26910528
v 0.08749953 -0.07200010 0.26260528
v 0.08716057 -0.07205926 0.25700000
v 0.08749953 -0.07200010 0.26100000
v 0.08679587 -0.07228948 0.26910528
v 0.12649954 -0.07200010 0.26100000
v 0.12649960 -0.07200010 0.26260528
v 0.12649970 -0.07200010 0.26710528
v 0.11563635 -0.07200010 0.25700000
v 0.08749978 -0.07200010 0.25700000
v 0.12749954 -0.08650008 0.26910528
v 0.12687569 -0.07207354 0.26710528
v 0.12720331 -0.07228968 0.26710528
v 0.12717276 -0.07602753 0.25700000
v 0.12746888 -0.07632357 0.25700000
v 0.08749996 -0.13199998 0.25700000
v 0.08749952 -0.13199998 0.26100000
v 0.08655944 -0.13134133 0.26910528
v 0.08649976 -0.13099998 0.25700000
v 0.08655944 -0.13134133 0.25700000
v 0.08679247 -0.13170729 0.25700000
v 0.08679247 -0.13170729 0.26910528
v 0.08715855 -0.13194011 0.26910528
v 0.12749971 -0.07649666 0.25700000
v 0.08656204 -0.07265188 0.25700000
v 0.08679587 -0.07228948 0.25700000
v 0.12720999 -0.13170372 0.25700000
v 0.12688444 -0.13192293 0.25700000
v 0.12735330 -0.07614306 0.25700000
v 0.08715855 -0.13194011 0.25700000
v 0.11588635 -0.07206709 0.25700000
v 0.12749954 -0.07300010 0.26710528
v 0.12749954 -0.07300010 0.26100000
v 0.12749988 -0.08400007 0.26260528
v 0.12749988 -0.12000000 0.26260528
v 0.12749954 -0.13099997 0.26910528
v 0.08649946 -0.13074992 0.26100000
v 0.12688444 -0.13192293 0.26910528
v 0.12742611 -0.13137610 0.25700000
v 0.12749954 -0.13099997 0.25700000
v 0.12742611 -0.13137610 0.26910528
v 0.12720999 -0.13170372 0.26910528
v 0.12742251 -0.07261525 0.26100000
v 0.12699967 -0.07213415 0.26100000
v 0.12720331 -0.07228968 0.26100000
v 0.12742251 -0.07261525 0.26710528
v 0.12687569 -0.07207354 0.26100000
v 0.12698313 -0.07212481 0.26100000
f 16 41 42
f 6 33 35
f 16 42 18
f 10 50 11
f 67 65 51
f 28 31 6
f 69 31 28
f 59 19 41
f 59 41 16
f 16 19 59
f 34 30 6
f 6 35 34
f 69 30 34
f 40 18 42
f 60 11 50
f 10 5 38
f 58 63 62
f 62 57 58
f 66 67 51
f 51 36 66
f 35 67 66
f 66 34 35
f 68 55 65
f 68 35 33
f 23 7 24
f 6 30 29
f 29 28 6
f 29 30 69
f 69 28 29
f 53 31 69
f 69 36 53
f 21 15 9
f 13 12 45
f 52 38 39
f 61 62 63
f 56 57 46
f 57 62 46
f 70 36 69
f 70 66 36
f 69 34 70
f 34 66 70
f 54 33 56
f 56 46 54
f 54 68 33
f 54 46 55
f 55 68 54
f 26 7 32
f 26 24 7
f 23 24 22
f 18 9 17
f 16 18 17
f 51 65 37
f 65 55 37
f 55 46 37
f 25 26 32
f 19 15 20
f 20 47 19
f 21 47 20
f 20 15 21
f 1 63 58
f 64 63 1
f 1 60 64
f 11 60 1
f 23 22 3
f 3 7 23
f 3 22 27
f 3 27 21
f 21 9 3
f 3 9 18
f 2 33 6
f 8 12 13
f 13 39 8
f 8 38 5
f 8 39 38
f 44 45 14
f 14 45 12
f 14 40 44
f 12 8 14
f 18 40 14
f 14 3 18
f 4 8 5
f 4 5 10
f 10 11 4
f 11 1 4
f 7 31 32
f 6 31 7
f 60 50 49
f 60 49 64
f 44 40 43
f 43 40 42
f 33 58 57
f 56 33 57
f 68 67 35
f 65 67 68
f 9 15 19
f 45 43 52
f 44 43 45
f 39 45 52
f 13 45 39
f 61 63 64
f 64 49 61
f 21 27 47
f 27 48 47
f 17 9 19
f 17 19 16
f 25 43 42
f 25 42 41
f 10 38 25
f 41 19 25
f 49 50 25
f 32 31 25
f 31 53 25
f 25 50 10
f 25 36 51
f 51 37 25
f 52 43 25
f 25 38 52
f 25 61 49
f 19 47 25
f 25 53 36
f 62 61 25
f 25 46 62
f 25 47 48
f 25 37 46
f 27 22 25
f 25 48 27
f 24 26 25
f 25 22 24
f 6 7 2
f 7 3 2
f 2 58 33
f 2 1 58
f 1 2 14
f 14 2 3
f 1 14 4
f 4 14 8

