# https://github.com/mikedh/trimesh
v -0.16748058 -0.01908741 0.16800000
v -0.16455201 -0.01843662 0.16800000
v -0.14101506 -0.13818223 0.16800000
v -0.13993041 -0.14306317 0.17300000
v -0.13993041 -0.14306317 0.30300001
v -0.14007573 -0.14240925 0.30550000
v -0.14101506 -0.13818223 0.30800000
v -0.14007573 -0.14240925 0.17050000
v -0.16841991 -0.01486039 0.17050000
v -0.16802290 -0.01664694 0.16866987
v -0.16856523 -0.01420648 0.17300000
v -0.16748058 -0.01908741 0.30800000
v -0.16802290 -0.01664694 0.30733013
v -0.16856523 -0.01420648 0.30300001
v -0.14047274 -0.14062270 0.16866987
v -0.16549135 -0.01420960 0.17050000
v -0.16563667 -0.01355569 0.17300000
v -0.13754417 -0.13997191 0.16866987
v -0.13808650 -0.13753144 0.16800000
v -0.13700185 -0.14241238 0.30300001
v -0.13714716 -0.14175846 0.30550000
v -0.16549135 -0.01420960 0.30550000
v -0.16509434 -0.01599615 0.30733013
v -0.16455201 -0.01843662 0.30800000
v -0.13700185 -0.14241238 0.17300000
v -0.16563667 -0.01355569 0.30300001
v -0.16841991 -0.01486039 0.30550000
v -0.16509434 -0.01599615 0.16866987
v -0.13808650 -0.13753144 0.30800000
v -0.13714716 -0.14175846 0.17050000
v -0.14047274 -0.14062270 0.30733013
v -0.13754417 -0.13997191 0.30733013
f 3 1 2
f 2 19 3
f 23 22 27
f 13 23 27
f 11 14 26
f 26 17 11
f 14 27 26
f 26 27 22
f 16 9 11
f 11 17 16
f 20 5 4
f 4 25 20
f 15 19 18
f 3 19 15
f 8 15 30
f 30 15 18
f 30 25 4
f 4 8 30
f 7 31 29
f 29 31 32
f 1 10 28
f 28 2 1
f 28 10 9
f 9 16 28
f 21 31 6
f 32 31 21
f 6 5 21
f 5 20 21
f 12 14 11
f 11 9 12
f 12 1 3
f 12 10 1
f 6 31 12
f 12 5 6
f 13 27 12
f 9 10 12
f 12 27 14
f 4 5 12
f 12 8 4
f 3 15 12
f 12 15 8
f 12 31 7
f 24 20 25
f 17 26 24
f 18 19 24
f 24 16 17
f 24 22 23
f 24 30 18
f 19 2 24
f 24 26 22
f 2 28 24
f 32 21 24
f 25 30 24
f 24 29 32
f 24 28 16
f 24 21 20
f 24 23 13
f 13 12 24
f 7 29 24
f 24 12 7

