# https://github.com/mikedh/trimesh
v 0.15198693 -0.00000000 0.11500000
v 0.15198693 -0.00000000 0.11300000
v 0.15275833 0.00015475 0.11500000
v 0.15384211 0.00125279 0.11300000
v 0.15384211 0.00125279 0.11500000
v 0.15398675 0.00202614 0.11300000
v 0.15398675 0.00202614 0.11500000
v 0.12300786 0.05877512 0.11500000
v -0.15584211 0.00125279 0.11300000
v -0.15598675 0.00202614 0.11300000
v -0.14040640 0.05773804 0.11300000
v 0.13924538 0.05473804 0.11300000
v 0.13840640 0.05773804 0.11300000
v 0.15341035 0.00059506 0.11300000
v 0.15275833 0.00015475 0.11300000
v 0.13255345 0.07866687 0.11300000
v 0.07591436 0.13457036 0.11300000
v -0.00100000 0.15500000 0.11300000
v -0.07791436 0.13457036 0.11300000
v -0.13455345 0.07866687 0.11300000
v -0.14124538 0.05473804 0.11300000
v -0.15398693 0.00000000 0.11300000
v -0.15475833 0.00015475 0.11300000
v -0.15541035 0.00059506 0.11300000
v -0.10862893 0.00000000 0.11300000
v -0.14124538 0.05473804 0.11500000
v -0.14040640 0.05773804 0.11500000
v 0.13840640 0.05773804 0.11500000
v 0.13924538 0.05473804 0.11500000
v 0.07591436 0.13457036 0.11500000
v -0.00100000 0.15500000 0.11500000
v -0.07791436 0.13457036 0.11500000
v -0.15475833 0.00015475 0.11500000
v -0.15398693 0.00000000 0.11500000
v -0.15598675 0.00202614 0.11500000
v -0.13455345 0.07866687 0.11500000
v 0.13255345 0.07866687 0.11500000
v 0.15341035 0.00059506 0.11500000
v -0.15584211 0.00125279 0.11500000
v -0.15541035 0.00059506 0.11500000
f 37 30 8
f 16 17 30
f 37 16 30
f 30 17 18
f 18 31 30
f 35 21 10
f 26 21 35
f 25 2 34
f 34 22 25
f 2 1 34
f 6 12 29
f 29 7 6
f 18 19 32
f 32 31 18
f 4 7 5
f 6 7 4
f 15 2 6
f 6 4 15
f 15 4 14
f 11 12 6
f 11 19 18
f 18 17 11
f 16 13 11
f 11 25 10
f 6 2 11
f 11 17 16
f 11 2 25
f 11 13 12
f 20 19 11
f 10 21 11
f 22 34 23
f 23 34 33
f 10 25 9
f 25 22 9
f 22 23 9
f 9 23 24
f 28 13 16
f 28 16 37
f 12 13 28
f 28 29 12
f 36 19 20
f 36 32 19
f 3 1 2
f 2 15 3
f 39 35 10
f 10 9 39
f 27 21 26
f 27 11 21
f 20 11 27
f 27 36 20
f 38 4 5
f 14 4 38
f 38 15 14
f 38 3 15
f 24 23 40
f 40 23 33
f 40 9 24
f 40 39 9
f 7 29 8
f 29 28 8
f 8 28 37
f 32 36 8
f 8 30 31
f 31 32 8
f 36 27 8
f 39 40 8
f 33 34 8
f 8 27 26
f 8 40 33
f 26 35 8
f 35 39 8
f 8 34 1
f 3 38 8
f 1 3 8
f 8 38 5
f 5 7 8

