# https://github.com/mikedh/trimesh
v -0.03869065 -0.04555636 0.04450000
v -0.03869186 -0.04542240 0.04400000
v -0.03869519 -0.04505639 0.04363398
v -0.03869974 -0.04455641 0.04350000
v -0.03870429 -0.04405643 0.04363398
v -0.03870762 -0.04369042 0.04400000
v -0.03870884 -0.04355645 0.04450000
v -0.03870762 -0.04369042 0.04500000
v -0.03870429 -0.04405643 0.04536603
v -0.03869974 -0.04455641 0.04550000
v -0.03869519 -0.04505639 0.04536603
v -0.03869186 -0.04542240 0.04500000
v -0.04426543 -0.04285697 0.04450000
v -0.04426330 -0.04309142 0.04362500
v -0.04425747 -0.04373193 0.04298446
v -0.04424951 -0.04460690 0.04275000
v -0.04424155 -0.04548186 0.04298446
v -0.04423573 -0.04612238 0.04362500
v -0.04423359 -0.04635683 0.04450000
v -0.04423573 -0.04612238 0.04537500
v -0.04424951 -0.04460690 0.04625000
v -0.04425747 -0.04373193 0.04601554
v -0.04426330 -0.04309142 0.04537500
v -0.04468571 -0.04612647 0.04362500
v -0.04469153 -0.04548596 0.04298446
v -0.04469949 -0.04461099 0.04275000
v -0.04470746 -0.04373603 0.04298446
v -0.04471328 -0.04309551 0.04362500
v -0.04471542 -0.04286106 0.04450000
v -0.04471328 -0.04309551 0.04537500
v -0.04469949 -0.04461099 0.04625000
v -0.04424155 -0.04548186 0.04601554
v -0.04468357 -0.04636092 0.04450000
v -0.04470746 -0.04373603 0.04601554
v -0.04468571 -0.04612647 0.04537500
v -0.04469153 -0.04548596 0.04601554
f 33 19 35
f 35 19 20
f 24 19 33
f 18 19 24
f 8 23 22
f 21 11 10
f 12 19 1
f 20 19 12
f 32 11 21
f 32 12 11
f 20 12 32
f 13 23 8
f 29 30 13
f 13 30 23
f 28 30 29
f 29 13 28
f 28 13 14
f 16 5 4
f 15 5 16
f 9 22 21
f 21 10 9
f 8 22 9
f 31 34 36
f 36 34 33
f 33 35 36
f 14 13 6
f 6 15 14
f 5 15 6
f 16 4 17
f 7 13 8
f 7 6 13
f 25 27 26
f 33 27 25
f 25 24 33
f 18 17 2
f 1 19 2
f 2 19 18
f 3 17 4
f 3 2 17
f 21 22 34
f 34 31 21
f 34 22 23
f 23 30 34
f 21 31 36
f 36 32 21
f 36 35 20
f 20 32 36
f 27 15 16
f 16 26 27
f 27 28 14
f 14 15 27
f 27 34 30
f 30 28 27
f 33 34 27
f 25 26 16
f 16 17 25
f 18 24 25
f 25 17 18
f 3 12 1
f 3 7 8
f 8 9 3
f 3 10 11
f 11 12 3
f 3 4 5
f 3 9 10
f 5 6 3
f 6 7 3
f 1 2 3

