# https://github.com/mikedh/trimesh
v 0.14944678 -0.12789810 0.29716591
v 0.14906716 -0.12730154 0.29716841
v 0.14681598 -0.13282208 0.27263871
v 0.14292695 -0.13188358 0.25813889
v 0.14250502 -0.13147739 0.29714091
v 0.14288465 -0.13207394 0.29713841
v 0.14787351 -0.13267295 0.29764090
v 0.14895815 -0.12779207 0.29766590
v 0.14303596 -0.13139306 0.25764140
v 0.14780789 -0.13296824 0.25813889
v 0.14776559 -0.13315859 0.29713841
v 0.14254733 -0.13128703 0.25814139
v 0.14948909 -0.12770774 0.25816639
v 0.14910946 -0.12711119 0.25816889
v 0.14412060 -0.12651218 0.25766640
v 0.14363196 -0.12640616 0.25816639
v 0.14407721 -0.12670742 0.29766590
v 0.14299257 -0.13158829 0.29764090
v 0.14900153 -0.12759683 0.25766640
v 0.14836215 -0.13277897 0.29714091
v 0.14840445 -0.13258861 0.25814139
v 0.14791690 -0.13247771 0.25764140
v 0.14358966 -0.12659651 0.29716591
v 0.14418622 -0.12621689 0.29716841
v 0.14422852 -0.12602654 0.25816889
f 6 18 5
f 13 19 14
f 4 10 3
f 3 10 11
f 13 1 21
f 8 1 2
f 9 4 12
f 15 16 25
f 20 21 1
f 20 7 11
f 22 21 10
f 24 23 17
f 7 6 11
f 18 6 7
f 14 1 13
f 2 1 14
f 3 6 4
f 11 6 3
f 4 6 12
f 12 6 5
f 15 14 19
f 25 14 15
f 9 12 15
f 15 12 16
f 2 14 24
f 24 14 25
f 10 21 20
f 11 10 20
f 20 8 7
f 1 8 20
f 9 15 22
f 22 15 19
f 22 4 9
f 22 10 4
f 22 19 13
f 13 21 22
f 23 24 25
f 25 16 23
f 23 12 5
f 16 12 23
f 2 24 17
f 17 8 2
f 17 23 5
f 5 18 17
f 18 7 17
f 7 8 17

