# https://github.com/mikedh/trimesh
v -0.03149111 -0.05352529 0.08400000
v -0.03149111 -0.05352529 0.07600000
v -0.03550288 -0.05494194 0.07600000
v -0.03186895 -0.05412298 0.07600000
v -0.03550288 -0.05494194 0.08400000
v -0.03186895 -0.05412298 0.08400000
v -0.03150149 -0.05378390 0.08400000
v -0.03163979 -0.05400267 0.08400000
v -0.03575150 -0.05493455 0.08400000
v -0.04005243 -0.03667482 0.08400000
v -0.03991300 -0.03646884 0.08400000
v -0.03558027 -0.03568525 0.08400000
v -0.03579904 -0.03554695 0.08400000
v -0.04243567 -0.04835909 0.08400000
v -0.04305843 -0.04744598 0.08400000
v -0.04330142 -0.04636776 0.08400000
v -0.04313054 -0.04527579 0.08400000
v -0.03605765 -0.03553657 0.08400000
v -0.03596579 -0.05480829 0.08400000
v -0.03969159 -0.03635553 0.07600000
v -0.03605765 -0.03553657 0.07600000
v -0.03596579 -0.05480829 0.07600000
v -0.03579904 -0.03554695 0.07600000
v -0.04005243 -0.03667482 0.07600000
v -0.03150149 -0.05378390 0.07600000
v -0.03163979 -0.05400267 0.07600000
v -0.04243567 -0.04835909 0.07600000
v -0.04330142 -0.04636776 0.07600000
v -0.04305843 -0.04744598 0.07600000
v -0.03545996 -0.03591441 0.08400000
v -0.03545996 -0.03591441 0.07600000
v -0.03558027 -0.03568525 0.07600000
v -0.03929770 -0.05148704 0.07968942
v -0.03929770 -0.05148704 0.08031058
v -0.03919715 -0.05158726 0.08060000
v -0.03919715 -0.05158726 0.07940000
v -0.03735331 -0.05342521 0.07968942
v -0.03735331 -0.05342521 0.08031058
v -0.03969159 -0.03635553 0.08400000
v -0.04163761 -0.04110421 0.08031058
v -0.04163761 -0.04110421 0.07968942
v -0.04158978 -0.04097054 0.08060000
v -0.04071255 -0.03851937 0.08031058
v -0.04071255 -0.03851937 0.07968942
v -0.03991300 -0.03646884 0.07600000
v -0.04158978 -0.04097054 0.07940000
v -0.04313054 -0.04527579 0.07600000
v -0.03575150 -0.05493455 0.07600000
f 24 47 46
f 47 41 46
f 17 10 42
f 10 43 42
f 24 46 44
f 44 46 41
f 17 42 40
f 40 42 43
f 19 14 35
f 36 27 22
f 36 33 27
f 22 37 36
f 36 37 33
f 19 35 38
f 34 38 35
f 34 35 14
f 2 31 30
f 1 2 30
f 16 17 47
f 47 28 16
f 45 10 11
f 24 10 45
f 18 23 21
f 13 23 18
f 26 8 6
f 6 4 26
f 6 5 3
f 3 4 6
f 32 30 31
f 32 12 30
f 13 12 32
f 32 23 13
f 20 45 39
f 39 45 11
f 21 20 39
f 39 18 21
f 25 2 1
f 1 7 25
f 25 7 8
f 8 26 25
f 48 9 19
f 19 22 48
f 5 9 48
f 48 3 5
f 15 10 17
f 15 7 1
f 15 17 16
f 1 30 15
f 13 18 15
f 15 39 11
f 15 12 13
f 6 8 15
f 15 5 6
f 15 14 19
f 30 12 15
f 11 10 15
f 19 9 15
f 8 7 15
f 15 9 5
f 18 39 15
f 44 10 24
f 44 43 10
f 40 47 17
f 40 41 47
f 43 44 40
f 40 44 41
f 29 20 21
f 28 47 29
f 21 23 29
f 29 31 2
f 24 45 29
f 2 25 29
f 29 48 22
f 29 47 24
f 29 32 31
f 29 45 20
f 29 26 4
f 4 3 29
f 22 27 29
f 23 32 29
f 29 25 26
f 3 48 29
f 16 28 29
f 29 15 16
f 14 15 29
f 29 27 14
f 38 22 19
f 38 37 22
f 37 38 34
f 33 37 34
f 14 27 34
f 27 33 34

