# https://github.com/mikedh/trimesh
v 0.07900000 0.07250000 0.12150000
v 0.07900000 0.03350000 0.12650000
v 0.07950000 0.03300000 0.12650000
v 0.07950000 0.03350000 0.12700000
v 0.08450000 0.03350000 0.12700000
v 0.08500000 0.03350000 0.12650000
v 0.08450000 0.07250000 0.12700000
v 0.08500000 0.07250000 0.12650000
v 0.07950000 0.07300000 0.12150000
v 0.07950000 0.07250000 0.12100000
v 0.08450000 0.03300000 0.12150000
v 0.08450000 0.07300000 0.12150000
v 0.08500000 0.07250000 0.12150000
v 0.08450000 0.03300000 0.12650000
v 0.07950000 0.03350000 0.12100000
v 0.07950000 0.07300000 0.12650000
v 0.07950000 0.07250000 0.12700000
v 0.08450000 0.07300000 0.12650000
v 0.07950000 0.03300000 0.12150000
v 0.08450000 0.03350000 0.12100000
v 0.08450000 0.07250000 0.12100000
v 0.08500000 0.03350000 0.12150000
v 0.07900000 0.03350000 0.12150000
v 0.07900000 0.07250000 0.12650000
f 3 4 2
f 6 5 14
f 7 8 18
f 19 23 15
f 13 21 12
f 11 20 22
f 16 24 17
f 9 10 1
f 10 23 1
f 15 23 10
f 7 17 5
f 5 17 4
f 7 5 8
f 8 5 6
f 14 5 4
f 14 4 3
f 19 14 3
f 11 14 19
f 19 2 23
f 3 2 19
f 11 19 20
f 20 19 15
f 15 10 20
f 10 21 20
f 4 17 24
f 24 2 4
f 1 23 24
f 23 2 24
f 12 8 13
f 12 18 8
f 22 8 6
f 13 8 22
f 22 20 21
f 22 21 13
f 22 14 11
f 6 14 22
f 16 17 7
f 7 18 16
f 1 24 9
f 24 16 9
f 9 21 10
f 9 12 21
f 18 12 9
f 9 16 18

