# https://github.com/mikedh/trimesh
v 0.13489297 -0.14980309 0.30700000
v 0.13351933 -0.14834944 0.30700000
v 0.09215547 -0.19018807 0.30700000
v 0.09078183 -0.18873441 0.30700000
v 0.13852711 -0.14636899 0.17400000
v 0.13715347 -0.14491534 0.17400000
v 0.13351933 -0.14834944 0.16900000
v 0.13489297 -0.14980309 0.16900000
v 0.09078183 -0.18873441 0.16900000
v 0.09215547 -0.19018807 0.16900000
v 0.09106523 -0.19121830 0.16940192
v 0.08969159 -0.18976464 0.16940192
v 0.09026712 -0.19197248 0.17050000
v 0.08997499 -0.19224852 0.17200000
v 0.08860135 -0.19079487 0.17200000
v 0.08860135 -0.19079487 0.30400001
v 0.08997499 -0.19224852 0.30400001
v 0.09026712 -0.19197248 0.30550000
v 0.09106523 -0.19121830 0.30659808
v 0.08969159 -0.18976464 0.30659808
v 0.13533640 -0.14663238 0.30633013
v 0.08889348 -0.19051882 0.30550000
v 0.08889348 -0.19051882 0.17050000
v 0.13666659 -0.14537542 0.17150000
v 0.13533640 -0.14663238 0.16966987
v 0.13715347 -0.14491534 0.30200000
v 0.13852711 -0.14636899 0.30200000
v 0.13671004 -0.14808604 0.30633013
v 0.13804023 -0.14682908 0.30450000
v 0.13671004 -0.14808604 0.16966987
v 0.13804023 -0.14682908 0.17150000
v 0.13666659 -0.14537542 0.30450000
f 6 27 5
f 26 27 6
f 10 9 7
f 7 8 10
f 31 6 5
f 31 24 6
f 25 30 8
f 25 8 7
f 25 31 30
f 24 31 25
f 4 3 1
f 1 2 4
f 4 19 3
f 20 19 4
f 14 17 16
f 15 14 16
f 1 28 21
f 21 2 1
f 9 10 11
f 11 12 9
f 18 19 22
f 22 19 20
f 22 17 18
f 22 16 17
f 32 27 26
f 32 29 27
f 28 29 32
f 32 21 28
f 13 28 1
f 1 3 13
f 13 17 14
f 18 17 13
f 13 31 5
f 5 27 13
f 8 30 13
f 27 29 13
f 13 10 8
f 13 19 18
f 30 31 13
f 3 19 13
f 13 29 28
f 13 11 10
f 23 4 2
f 15 16 23
f 7 9 23
f 26 6 23
f 23 32 26
f 6 24 23
f 23 25 7
f 9 12 23
f 24 25 23
f 20 4 23
f 23 22 20
f 2 21 23
f 16 22 23
f 21 32 23
f 23 14 15
f 23 13 14
f 12 11 23
f 11 13 23

