# https://github.com/mikedh/trimesh
v -0.03970727 0.02507500 -0.00750000
v -0.04049422 0.02586195 -0.00750000
v -0.02243204 0.03357500 -0.00750000
v -0.04156922 0.02615000 -0.00750000
v -0.04155640 0.03357500 -0.00750000
v -0.04235961 0.03277179 -0.00750000
v -0.04100000 -0.00000000 -0.00750000
v -0.04049422 0.02213805 -0.00750000
v -0.03550704 0.02050000 -0.00750000
v -0.03970727 0.02292500 -0.00750000
v -0.03941922 0.02400000 -0.00750000
v -0.05500000 -0.00000000 -0.00750000
v -0.04763140 0.02750000 -0.00750000
v -0.04371922 0.02400000 -0.00750000
v -0.04235961 0.02593821 -0.00750000
v -0.04264422 0.02586195 -0.00750000
v -0.04343117 0.02507500 -0.00750000
v -0.04343117 0.02292500 -0.00750000
v -0.04264422 0.02213805 -0.00750000
v -0.04235961 -0.00000000 -0.00750000
v -0.04235961 0.02206178 -0.00750000
v -0.04156922 0.02185000 -0.00750000
v -0.04156922 -0.02615000 -0.00750000
v -0.04049422 -0.02586195 -0.00750000
v -0.02243204 -0.03357500 -0.00750000
v -0.04155640 -0.03357500 -0.00750000
v -0.04235961 -0.03277179 -0.00750000
v -0.04235961 -0.02593821 -0.00750000
v -0.03970727 -0.02507500 -0.00750000
v -0.03941922 -0.02400000 -0.00750000
v -0.03550704 -0.02050000 -0.00750000
v -0.03970727 -0.02292500 -0.00750000
v -0.04049422 -0.02213805 -0.00750000
v -0.04156922 -0.02185000 -0.00750000
v -0.04235961 -0.02206178 -0.00750000
v -0.04264422 -0.02213805 -0.00750000
v -0.04343117 -0.02292500 -0.00750000
v -0.04763140 -0.02750000 -0.00750000
v -0.04371922 -0.02400000 -0.00750000
v -0.04343117 -0.02507500 -0.00750000
v -0.04264422 -0.02586195 -0.00750000
v 0.04343117 -0.02507500 -0.00750000
v 0.04371922 -0.02400000 -0.00750000
v 0.04763140 -0.02750000 -0.00750000
v 0.05500000 0.00000000 -0.00750000
v 0.04264422 -0.02586195 -0.00750000
v 0.04235961 -0.03277179 -0.00750000
v 0.04235961 -0.02593821 -0.00750000
v 0.04343117 -0.02292500 -0.00750000
v 0.04264422 -0.02213805 -0.00750000
v 0.04235961 -0.00000000 -0.00750000
v 0.04235961 -0.02206178 -0.00750000
v 0.04100000 0.00000000 -0.00750000
v 0.04156922 -0.02185000 -0.00750000
v 0.04049422 -0.02213805 -0.00750000
v 0.03550704 -0.02050000 -0.00750000
v 0.03970727 -0.02292500 -0.00750000
v 0.02243204 -0.03357500 -0.00750000
v 0.03941922 -0.02400000 -0.00750000
v 0.03970727 -0.02507500 -0.00750000
v 0.04156922 -0.02615000 -0.00750000
v 0.04155640 -0.03357500 -0.00750000
v 0.04049422 -0.02586195 -0.00750000
v 0.04763140 0.02750000 -0.00750000
v 0.04343117 0.02292500 -0.00750000
v 0.04371922 0.02400000 -0.00750000
v 0.04343117 0.02507500 -0.00750000
v 0.04235961 0.03277179 -0.00750000
v 0.04156922 0.02615000 -0.00750000
v 0.04049422 0.02586195 -0.00750000
v 0.02243204 0.03357500 -0.00750000
v 0.04264422 0.02586195 -0.00750000
v 0.04235961 0.02593821 -0.00750000
v 0.04155640 0.03357500 -0.00750000
v 0.03970727 0.02507500 -0.00750000
v 0.03941922 0.02400000 -0.00750000
v 0.03550704 0.02050000 -0.00750000
v 0.03970727 0.02292500 -0.00750000
v 0.04049422 0.02213805 -0.00750000
v 0.04156922 0.02185000 -0.00750000
v 0.04235961 0.02206178 -0.00750000
v 0.04264422 0.02213805 -0.00750000
v 0.02078461 -0.03522243 -0.00750000
v 0.03170640 -0.04342500 -0.00750000
v -0.02078461 -0.04342500 -0.00750000
v 0.00000000 -0.04100000 -0.00750000
v 0.02078461 -0.04342500 -0.00750000
v 0.02050000 -0.03550704 -0.00750000
v -0.02078461 -0.03522243 -0.00750000
v -0.02050000 -0.03550704 -0.00750000
v -0.03170640 0.04342500 -0.00750000
v -0.02078461 0.03522243 -0.00750000
v 0.02078461 0.04342500 -0.00750000
v -0.00000000 0.04100000 -0.00750000
v -0.02078461 0.04342500 -0.00750000
v -0.02050000 0.03550704 -0.00750000
v 0.02078461 0.03522243 -0.00750000
v 0.02050000 0.03550704 -0.00750000
v 0.02078461 0.04943078 -0.00750000
v 0.02750000 0.04763140 -0.00750000
v 0.03170640 0.04342500 -0.00750000
v -0.00186195 0.04692500 -0.00750000
v -0.00215000 0.04800000 -0.00750000
v -0.02078461 0.04943078 -0.00750000
v -0.00186195 0.04907500 -0.00750000
v -0.00107500 0.04613804 -0.00750000
v 0.00000000 0.04585000 -0.00750000
v 0.00107500 0.04613804 -0.00750000
v 0.00186195 0.04692500 -0.00750000
v -0.00107500 0.04986196 -0.00750000
v -0.00000000 0.05500000 -0.00750000
v -0.00000000 0.05015000 -0.00750000
v 0.00215000 0.04800000 -0.00750000
v 0.00186195 0.04907500 -0.00750000
v 0.00107500 0.04986196 -0.00750000
v -0.02750000 0.04763140 -0.00750000
v -0.02078461 -0.04943078 -0.00750000
v -0.02750000 -0.04763140 -0.00750000
v -0.03170640 -0.04342500 -0.00750000
v -0.00107500 -0.04986196 -0.00750000
v 0.00000000 -0.05500000 -0.00750000
v -0.00186195 -0.04907500 -0.00750000
v -0.00215000 -0.04800000 -0.00750000
v -0.00186195 -0.04692500 -0.00750000
v 0.00000000 -0.05015000 -0.00750000
v 0.00107500 -0.04986196 -0.00750000
v 0.02078461 -0.04943078 -0.00750000
v 0.00186195 -0.04692500 -0.00750000
v 0.00215000 -0.04800000 -0.00750000
v 0.00186195 -0.04907500 -0.00750000
v 0.00107500 -0.04613804 -0.00750000
v 0.00000000 -0.04585000 -0.00750000
v -0.00107500 -0.04613804 -0.00750000
v 0.02750000 -0.04763140 -0.00750000
v -0.00215000 -0.04800000 -0.00000000
v -0.00215000 -0.04800000 -0.00750000
v -0.00186195 -0.04692500 -0.00000000
v -0.00186195 -0.04692500 -0.00750000
v -0.00107500 -0.04613804 -0.00000000
v -0.00107500 -0.04613804 -0.00750000
v 0.00000000 -0.04585000 -0.00000000
v 0.00000000 -0.04585000 -0.00750000
v 0.00107500 -0.04613804 -0.00000000
v 0.00107500 -0.04613804 -0.00750000
v 0.00186195 -0.04692500 -0.00000000
v 0.00186195 -0.04692500 -0.00750000
v 0.00215000 -0.04800000 -0.00000000
v 0.00215000 -0.04800000 -0.00750000
v 0.00186195 -0.04907500 -0.00000000
v 0.00186195 -0.04907500 -0.00750000
v 0.00107500 -0.04986196 -0.00000000
v 0.00107500 -0.04986196 -0.00750000
v 0.00000000 -0.05015000 -0.00000000
v 0.00000000 -0.05015000 -0.00750000
v -0.00107500 -0.04986196 -0.00000000
v -0.00107500 -0.04986196 -0.00750000
v -0.00186195 -0.04907500 -0.00000000
v -0.00186195 -0.04907500 -0.00750000
v -0.04371922 -0.02400000 -0.00000000
v -0.04371922 -0.02400000 -0.00750000
v -0.04343117 -0.02292500 -0.00000000
v -0.04343117 -0.02292500 -0.00750000
v -0.04264422 -0.02213805 -0.00000000
v -0.04264422 -0.02213805 -0.00750000
v -0.04156922 -0.02185000 -0.00000000
v -0.04156922 -0.02185000 -0.00750000
v -0.04049422 -0.02213805 -0.00000000
v -0.04049422 -0.02213805 -0.00750000
v -0.03970727 -0.02292500 -0.00000000
v -0.03970727 -0.02292500 -0.00750000
v -0.03941922 -0.02400000 -0.00000000
v -0.03941922 -0.02400000 -0.00750000
v -0.03970727 -0.02507500 -0.00000000
v -0.03970727 -0.02507500 -0.00750000
v -0.04049422 -0.02586195 -0.00000000
v -0.04049422 -0.02586195 -0.00750000
v -0.04156922 -0.02615000 -0.00000000
v -0.04156922 -0.02615000 -0.00750000
v -0.04264422 -0.02586195 -0.00000000
v -0.04264422 -0.02586195 -0.00750000
v -0.04343117 -0.02507500 -0.00000000
v -0.04343117 -0.02507500 -0.00750000
v 0.00186195 0.04907500 -0.00000000
v 0.00215000 0.04800000 -0.00000000
v 0.02078461 0.04943078 -0.00000000
v -0.04156922 0.02615000 -0.00000000
v -0.04049422 0.02586195 -0.00000000
v -0.02243204 0.03357500 -0.00000000
v -0.04155640 0.03357500 -0.00000000
v -0.04235961 0.03277179 -0.00000000
v -0.04235961 0.02593821 -0.00000000
v -0.03970727 0.02507500 -0.00000000
v -0.03941922 0.02400000 -0.00000000
v -0.03550704 0.02050000 -0.00000000
v -0.03970727 0.02292500 -0.00000000
v -0.04100000 -0.00000000 -0.00000000
v -0.04763140 0.02750000 -0.00000000
v -0.05500000 -0.00000000 -0.00000000
v -0.04343117 0.02292500 -0.00000000
v -0.04049422 0.02213805 -0.00000000
v -0.04156922 0.02185000 -0.00000000
v -0.04235961 -0.00000000 -0.00000000
v -0.04235961 0.02206178 -0.00000000
v -0.04264422 0.02213805 -0.00000000
v -0.04371922 0.02400000 -0.00000000
v -0.04343117 0.02507500 -0.00000000
v -0.04264422 0.02586195 -0.00000000
v 0.05500000 0.00000000 -0.00000000
v 0.04763140 0.02750000 -0.00000000
v 0.04371922 0.02400000 -0.00000000
v 0.04235961 0.03277179 -0.00000000
v 0.04264422 0.02586195 -0.00000000
v 0.04343117 0.02507500 -0.00000000
v 0.03970727 0.02507500 -0.00000000
v 0.04049422 0.02586195 -0.00000000
v 0.02243204 0.03357500 -0.00000000
v 0.04343117 0.02292500 -0.00000000
v 0.04264422 0.02213805 -0.00000000
v 0.04235961 -0.00000000 -0.00000000
v 0.04235961 0.02206178 -0.00000000
v 0.04100000 0.00000000 -0.00000000
v 0.04155640 0.03357500 -0.00000000
v 0.04156922 0.02615000 -0.00000000
v 0.04235961 0.02593821 -0.00000000
v 0.04156922 0.02185000 -0.00000000
v 0.04049422 0.02213805 -0.00000000
v 0.03550704 0.02050000 -0.00000000
v 0.03970727 0.02292500 -0.00000000
v 0.03941922 0.02400000 -0.00000000
v 0.04763140 -0.02750000 -0.00000000
v 0.04343117 -0.02292500 -0.00000000
v 0.04371922 -0.02400000 -0.00000000
v 0.04343117 -0.02507500 -0.00000000
v 0.04235961 -0.03277179 -0.00000000
v 0.04156922 -0.02615000 -0.00000000
v 0.04049422 -0.02586195 -0.00000000
v 0.02243204 -0.03357500 -0.00000000
v 0.04264422 -0.02586195 -0.00000000
v 0.04235961 -0.02593821 -0.00000000
v 0.04155640 -0.03357500 -0.00000000
v 0.04156922 -0.02185000 -0.00000000
v 0.04235961 -0.02206178 -0.00000000
v 0.04264422 -0.02213805 -0.00000000
v 0.03970727 -0.02507500 -0.00000000
v 0.03941922 -0.02400000 -0.00000000
v 0.03550704 -0.02050000 -0.00000000
v 0.03970727 -0.02292500 -0.00000000
v 0.04049422 -0.02213805 -0.00000000
v 0.03170640 -0.04342500 -0.00000000
v 0.02078461 -0.04943078 -0.00000000
v 0.02750000 -0.04763140 -0.00000000
v 0.00107500 -0.04986196 -0.00000000
v 0.00000000 -0.05500000 -0.00000000
v 0.00186195 -0.04907500 -0.00000000
v 0.00215000 -0.04800000 -0.00000000
v 0.02078461 -0.03522243 -0.00000000
v 0.02078461 -0.04342500 -0.00000000
v 0.00186195 -0.04692500 -0.00000000
v -0.00186195 -0.04907500 -0.00000000
v -0.02078461 -0.04943078 -0.00000000
v -0.00107500 -0.04986196 -0.00000000
v 0.00000000 -0.05015000 -0.00000000
v -0.00215000 -0.04800000 -0.00000000
v -0.00186195 -0.04692500 -0.00000000
v -0.02078461 -0.04342500 -0.00000000
v -0.00107500 -0.04613804 -0.00000000
v 0.00000000 -0.04585000 -0.00000000
v 0.00107500 -0.04613804 -0.00000000
v -0.03170640 -0.04342500 -0.00000000
v -0.02750000 -0.04763140 -0.00000000
v -0.02243204 -0.03357500 -0.00000000
v -0.04155640 -0.03357500 -0.00000000
v -0.02078461 -0.03522243 -0.00000000
v -0.04049422 -0.02213805 -0.00000000
v -0.03550704 -0.02050000 -0.00000000
v -0.03970727 -0.02292500 -0.00000000
v -0.03941922 -0.02400000 -0.00000000
v -0.03970727 -0.02507500 -0.00000000
v -0.04049422 -0.02586195 -0.00000000
v -0.04156922 -0.02615000 -0.00000000
v -0.04235961 -0.03277179 -0.00000000
v -0.04763140 -0.02750000 -0.00000000
v -0.04371922 -0.02400000 -0.00000000
v -0.04235961 -0.02593821 -0.00000000
v -0.04264422 -0.02586195 -0.00000000
v -0.04343117 -0.02507500 -0.00000000
v -0.04343117 -0.02292500 -0.00000000
v -0.04264422 -0.02213805 -0.00000000
v -0.04235961 -0.02206178 -0.00000000
v -0.04156922 -0.02185000 -0.00000000
v -0.03170640 0.04342500 -0.00000000
v -0.02078461 0.04943078 -0.00000000
v -0.02750000 0.04763140 -0.00000000
v 0.00186195 0.04692500 -0.00000000
v 0.02078461 0.04342500 -0.00000000
v 0.00107500 0.04613804 -0.00000000
v 0.00000000 0.04585000 -0.00000000
v -0.02078461 0.04342500 -0.00000000
v -0.00107500 0.04613804 -0.00000000
v -0.00186195 0.04692500 -0.00000000
v -0.02078461 0.03522243 -0.00000000
v 0.00107500 0.04986196 -0.00000000
v -0.00000000 0.05500000 -0.00000000
v -0.00000000 0.05015000 -0.00000000
v -0.00215000 0.04800000 -0.00000000
v -0.00186195 0.04907500 -0.00000000
v -0.00107500 0.04986196 -0.00000000
v 0.03170640 0.04342500 -0.00000000
v 0.02750000 0.04763140 -0.00000000
v 0.02078461 0.03522243 -0.00000000
v -0.02050000 0.03550704 -0.00000000
v -0.00000000 0.04100000 -0.00000000
v 0.02050000 0.03550704 -0.00000000
v 0.02050000 -0.03550704 -0.00000000
v 0.00000000 -0.04100000 -0.00000000
v -0.02050000 -0.03550704 -0.00000000
v -0.04371922 0.02400000 -0.00000000
v -0.04371922 0.02400000 -0.00750000
v -0.04343117 0.02507500 -0.00000000
v -0.04343117 0.02507500 -0.00750000
v -0.04264422 0.02586195 -0.00000000
v -0.04264422 0.02586195 -0.00750000
v -0.04156922 0.02615000 -0.00000000
v -0.04156922 0.02615000 -0.00750000
v -0.04049422 0.02586195 -0.00000000
v -0.04049422 0.02586195 -0.00750000
v -0.03970727 0.02507500 -0.00000000
v -0.03970727 0.02507500 -0.00750000
v -0.03941922 0.02400000 -0.00000000
v -0.03941922 0.02400000 -0.00750000
v -0.03970727 0.02292500 -0.00000000
v -0.03970727 0.02292500 -0.00750000
v -0.04049422 0.02213805 -0.00000000
v -0.04049422 0.02213805 -0.00750000
v -0.04156922 0.02185000 -0.00000000
v -0.04156922 0.02185000 -0.00750000
v -0.04264422 0.02213805 -0.00000000
v -0.04264422 0.02213805 -0.00750000
v -0.04343117 0.02292500 -0.00000000
v -0.04343117 0.02292500 -0.00750000
v -0.05500000 -0.00000000 -0.00750000
v -0.04763140 0.02750000 -0.00000000
v -0.04763140 0.02750000 -0.00750000
v -0.02750000 0.04763140 -0.00000000
v -0.02750000 0.04763140 -0.00750000
v -0.00000000 0.05500000 -0.00000000
v -0.00000000 0.05500000 -0.00750000
v 0.02750000 0.04763140 -0.00000000
v 0.02750000 0.04763140 -0.00750000
v 0.04763140 0.02750000 -0.00000000
v 0.04763140 0.02750000 -0.00750000
v 0.05500000 0.00000000 -0.00000000
v 0.05500000 0.00000000 -0.00750000
v 0.04763140 -0.02750000 -0.00000000
v 0.04763140 -0.02750000 -0.00750000
v 0.02750000 -0.04763140 -0.00000000
v 0.02750000 -0.04763140 -0.00750000
v 0.00000000 -0.05500000 -0.00000000
v 0.00000000 -0.05500000 -0.00750000
v -0.02750000 -0.04763140 -0.00000000
v -0.02750000 -0.04763140 -0.00750000
v -0.04763140 -0.02750000 -0.00000000
v -0.04763140 -0.02750000 -0.00750000
v -0.05500000 -0.00000000 -0.00000000
v -0.00215000 0.04800000 -0.00000000
v -0.00215000 0.04800000 -0.00750000
v -0.00186195 0.04907500 -0.00000000
v -0.00186195 0.04907500 -0.00750000
v -0.00107500 0.04986196 -0.00000000
v -0.00107500 0.04986196 -0.00750000
v -0.00000000 0.05015000 -0.00000000
v -0.00000000 0.05015000 -0.00750000
v 0.00107500 0.04986196 -0.00000000
v 0.00107500 0.04986196 -0.00750000
v 0.00186195 0.04907500 -0.00000000
v 0.00186195 0.04907500 -0.00750000
v 0.00215000 0.04800000 -0.00000000
v 0.00215000 0.04800000 -0.00750000
v 0.00186195 0.04692500 -0.00000000
v 0.00186195 0.04692500 -0.00750000
v 0.00107500 0.04613804 -0.00000000
v 0.00107500 0.04613804 -0.00750000
v 0.00000000 0.04585000 -0.00000000
v 0.00000000 0.04585000 -0.00750000
v -0.00107500 0.04613804 -0.00000000
v -0.00107500 0.04613804 -0.00750000
v -0.00186195 0.04692500 -0.00000000
v -0.00186195 0.04692500 -0.00750000
v -0.04100000 -0.00000000 -0.00000000
v -0.04100000 -0.00000000 -0.00750000
v -0.03550704 0.02050000 -0.00000000
v -0.03550704 0.02050000 -0.00750000
v -0.02050000 0.03550704 -0.00000000
v -0.02050000 0.03550704 -0.00750000
v -0.00000000 0.04100000 -0.00000000
v -0.00000000 0.04100000 -0.00750000
v 0.02050000 0.03550704 -0.00000000
v 0.02050000 0.03550704 -0.00750000
v 0.03550704 0.02050000 -0.00000000
v 0.03550704 0.02050000 -0.00750000
v 0.04100000 0.00000000 -0.00000000
v 0.04100000 0.00000000 -0.00750000
v 0.03550704 -0.02050000 -0.00000000
v 0.03550704 -0.02050000 -0.00750000
v 0.02050000 -0.03550704 -0.00000000
v 0.02050000 -0.03550704 -0.00750000
v 0.00000000 -0.04100000 -0.00000000
v 0.00000000 -0.04100000 -0.00750000
v -0.02050000 -0.03550704 -0.00000000
v -0.02050000 -0.03550704 -0.00750000
v -0.03550704 -0.02050000 -0.00000000
v -0.03550704 -0.02050000 -0.00750000
v 0.03941922 0.02400000 -0.00000000
v 0.03941922 0.02400000 -0.00750000
v 0.03970727 0.02507500 -0.00000000
v 0.03970727 0.02507500 -0.00750000
v 0.04049422 0.02586195 -0.00000000
v 0.04049422 0.02586195 -0.00750000
v 0.04156922 0.02615000 -0.00000000
v 0.04156922 0.02615000 -0.00750000
v 0.04264422 0.02586195 -0.00000000
v 0.04264422 0.02586195 -0.00750000
v 0.04343117 0.02507500 -0.00000000
v 0.04343117 0.02507500 -0.00750000
v 0.04371922 0.02400000 -0.00000000
v 0.04371922 0.02400000 -0.00750000
v 0.04343117 0.02292500 -0.00000000
v 0.04343117 0.02292500 -0.00750000
v 0.04264422 0.02213805 -0.00000000
v 0.04264422 0.02213805 -0.00750000
v 0.04156922 0.02185000 -0.00000000
v 0.04156922 0.02185000 -0.00750000
v 0.04049422 0.02213805 -0.00000000
v 0.04049422 0.02213805 -0.00750000
v 0.03970727 0.02292500 -0.00000000
v 0.03970727 0.02292500 -0.00750000
v 0.03941922 -0.02400000 -0.00000000
v 0.03941922 -0.02400000 -0.00750000
v 0.03970727 -0.02292500 -0.00000000
v 0.03970727 -0.02292500 -0.00750000
v 0.04049422 -0.02213805 -0.00000000
v 0.04049422 -0.02213805 -0.00750000
v 0.04156922 -0.02185000 -0.00000000
v 0.04156922 -0.02185000 -0.00750000
v 0.04264422 -0.02213805 -0.00000000
v 0.04264422 -0.02213805 -0.00750000
v 0.04343117 -0.02292500 -0.00000000
v 0.04343117 -0.02292500 -0.00750000
v 0.04371922 -0.02400000 -0.00000000
v 0.04371922 -0.02400000 -0.00750000
v 0.04343117 -0.02507500 -0.00000000
v 0.04343117 -0.02507500 -0.00750000
v 0.04264422 -0.02586195 -0.00000000
v 0.04264422 -0.02586195 -0.00750000
v 0.04156922 -0.02615000 -0.00000000
v 0.04156922 -0.02615000 -0.00750000
v 0.04049422 -0.02586195 -0.00000000
v 0.04049422 -0.02586195 -0.00750000
v 0.03970727 -0.02507500 -0.00000000
v 0.03970727 -0.02507500 -0.00750000
f 1 2 3
f 2 4 5
f 5 4 6
f 7 8 9
f 8 10 9
f 9 10 3
f 10 11 3
f 3 11 1
f 12 13 14
f 4 15 6
f 15 16 6
f 6 16 13
f 16 17 13
f 13 17 14
f 14 18 12
f 18 19 12
f 12 19 20
f 19 21 20
f 20 21 7
f 21 22 7
f 7 22 8
f 23 24 25
f 26 27 28
f 24 29 25
f 29 30 25
f 25 30 31
f 30 32 31
f 31 32 7
f 32 33 7
f 33 34 7
f 7 34 20
f 34 35 20
f 20 35 12
f 35 36 12
f 36 37 12
f 12 37 38
f 37 39 38
f 39 40 38
f 38 40 27
f 40 41 27
f 27 41 28
f 42 43 44
f 44 43 45
f 42 44 46
f 44 47 46
f 46 47 48
f 43 49 45
f 49 50 45
f 45 50 51
f 50 52 51
f 51 52 53
f 52 54 53
f 54 55 53
f 53 55 56
f 55 57 56
f 56 57 58
f 57 59 58
f 58 59 60
f 48 47 61
f 47 62 61
f 61 62 63
f 64 45 65
f 65 66 64
f 66 67 64
f 64 67 68
f 69 70 71
f 67 72 68
f 72 73 68
f 68 73 74
f 70 75 71
f 75 76 71
f 71 76 77
f 76 78 77
f 77 78 53
f 78 79 53
f 79 80 53
f 53 80 51
f 80 81 51
f 51 81 45
f 81 82 45
f 45 82 65
f 60 63 58
f 63 62 58
f 58 62 83
f 62 84 83
f 85 86 87
f 86 88 87
f 25 89 85
f 89 90 85
f 85 90 86
f 2 5 3
f 5 91 3
f 3 91 92
f 93 94 95
f 94 96 95
f 71 97 93
f 97 98 93
f 93 98 94
f 99 100 101
f 102 95 103
f 95 104 103
f 103 104 105
f 102 106 95
f 106 107 95
f 95 107 93
f 107 108 93
f 93 108 109
f 73 69 74
f 69 71 74
f 74 71 101
f 71 93 101
f 101 93 99
f 93 109 99
f 105 104 110
f 104 111 110
f 110 111 112
f 109 113 99
f 113 114 99
f 99 114 111
f 114 115 111
f 111 115 112
f 96 92 95
f 92 91 95
f 95 91 104
f 91 116 104
f 117 118 119
f 120 121 122
f 121 117 122
f 122 117 123
f 28 23 26
f 23 25 26
f 26 25 119
f 25 85 119
f 119 85 117
f 85 124 117
f 117 124 123
f 120 125 121
f 125 126 121
f 121 126 127
f 128 87 129
f 87 127 129
f 129 127 130
f 127 126 130
f 128 131 87
f 131 132 87
f 87 132 85
f 132 133 85
f 85 133 124
f 88 83 87
f 83 84 87
f 87 84 127
f 84 134 127
f 135 136 137
f 136 138 137
f 137 138 139
f 138 140 139
f 139 140 141
f 140 142 141
f 141 142 143
f 142 144 143
f 143 144 145
f 144 146 145
f 145 146 147
f 146 148 147
f 147 148 149
f 148 150 149
f 149 150 151
f 150 152 151
f 151 152 153
f 152 154 153
f 153 154 155
f 154 156 155
f 155 156 157
f 156 158 157
f 157 158 135
f 158 136 135
f 159 160 161
f 160 162 161
f 161 162 163
f 162 164 163
f 163 164 165
f 164 166 165
f 165 166 167
f 166 168 167
f 167 168 169
f 168 170 169
f 169 170 171
f 170 172 171
f 171 172 173
f 172 174 173
f 173 174 175
f 174 176 175
f 175 176 177
f 176 178 177
f 177 178 179
f 178 180 179
f 179 180 181
f 180 182 181
f 181 182 159
f 182 160 159
f 183 184 185
f 186 187 188
f 189 190 191
f 187 192 188
f 192 193 188
f 188 193 194
f 193 195 194
f 194 195 196
f 197 198 199
f 195 200 196
f 200 201 196
f 196 201 202
f 201 203 202
f 202 203 198
f 203 204 198
f 198 204 199
f 199 205 197
f 205 206 197
f 197 206 190
f 206 207 190
f 190 207 191
f 208 209 210
f 211 212 209
f 212 213 209
f 209 213 210
f 214 215 216
f 210 217 208
f 217 218 208
f 208 218 219
f 218 220 219
f 219 220 221
f 222 223 211
f 223 224 211
f 211 224 212
f 220 225 221
f 225 226 221
f 221 226 227
f 226 228 227
f 227 228 216
f 228 229 216
f 216 229 214
f 230 208 231
f 231 232 230
f 232 233 230
f 230 233 234
f 235 236 237
f 233 238 234
f 238 239 234
f 234 239 240
f 221 241 219
f 241 242 219
f 219 242 208
f 242 243 208
f 208 243 231
f 236 244 237
f 244 245 237
f 237 245 246
f 245 247 246
f 246 247 221
f 247 248 221
f 221 248 241
f 239 235 240
f 235 237 240
f 240 237 249
f 250 251 249
f 252 253 254
f 253 250 254
f 254 250 255
f 237 256 249
f 256 257 249
f 249 257 250
f 257 258 250
f 250 258 255
f 259 260 261
f 260 253 261
f 261 253 262
f 253 252 262
f 263 264 265
f 264 266 265
f 266 267 265
f 265 267 257
f 267 268 257
f 257 268 258
f 269 270 260
f 271 272 269
f 259 263 260
f 263 265 260
f 260 265 269
f 265 273 269
f 269 273 271
f 196 274 275
f 274 276 275
f 275 276 271
f 276 277 271
f 277 278 271
f 278 279 271
f 271 279 272
f 279 280 272
f 272 280 281
f 198 282 283
f 280 284 281
f 284 285 281
f 281 285 282
f 285 286 282
f 282 286 283
f 283 287 198
f 287 288 198
f 198 288 202
f 288 289 202
f 202 289 196
f 289 290 196
f 196 290 274
f 191 186 189
f 186 188 189
f 189 188 291
f 292 293 291
f 184 294 295
f 294 296 295
f 296 297 295
f 295 297 298
f 297 299 298
f 298 299 300
f 188 301 291
f 301 298 291
f 291 298 292
f 298 300 292
f 183 185 302
f 185 303 302
f 302 303 304
f 300 305 292
f 305 306 292
f 292 306 303
f 306 307 303
f 303 307 304
f 184 295 185
f 295 308 185
f 185 308 309
f 295 310 308
f 310 216 308
f 308 216 222
f 216 215 222
f 222 215 223
f 301 311 298
f 311 312 298
f 298 312 295
f 312 313 295
f 295 313 310
f 256 314 257
f 314 315 257
f 257 315 265
f 315 316 265
f 265 316 273
f 317 318 319
f 318 320 319
f 319 320 321
f 320 322 321
f 321 322 323
f 322 324 323
f 323 324 325
f 324 326 325
f 325 326 327
f 326 328 327
f 327 328 329
f 328 330 329
f 329 330 331
f 330 332 331
f 331 332 333
f 332 334 333
f 333 334 335
f 334 336 335
f 335 336 337
f 336 338 337
f 337 338 339
f 338 340 339
f 339 340 317
f 340 318 317
f 341 342 343
f 342 344 343
f 343 344 345
f 344 346 345
f 345 346 347
f 346 348 347
f 347 348 349
f 348 350 349
f 349 350 351
f 350 352 351
f 351 352 353
f 352 354 353
f 353 354 355
f 354 356 355
f 355 356 357
f 356 358 357
f 357 358 359
f 358 360 359
f 359 360 361
f 360 362 361
f 361 362 363
f 362 364 363
f 363 364 341
f 364 342 341
f 365 366 367
f 366 368 367
f 367 368 369
f 368 370 369
f 369 370 371
f 370 372 371
f 371 372 373
f 372 374 373
f 373 374 375
f 374 376 375
f 375 376 377
f 376 378 377
f 377 378 379
f 378 380 379
f 379 380 381
f 380 382 381
f 381 382 383
f 382 384 383
f 383 384 385
f 384 386 385
f 385 386 387
f 386 388 387
f 387 388 365
f 388 366 365
f 389 390 391
f 390 392 391
f 391 392 393
f 392 394 393
f 393 394 395
f 394 396 395
f 395 396 397
f 396 398 397
f 397 398 399
f 398 400 399
f 399 400 401
f 400 402 401
f 401 402 403
f 402 404 403
f 403 404 405
f 404 406 405
f 405 406 407
f 406 408 407
f 407 408 409
f 408 410 409
f 409 410 411
f 410 412 411
f 411 412 389
f 412 390 389
f 413 414 415
f 414 416 415
f 415 416 417
f 416 418 417
f 417 418 419
f 418 420 419
f 419 420 421
f 420 422 421
f 421 422 423
f 422 424 423
f 423 424 425
f 424 426 425
f 425 426 427
f 426 428 427
f 427 428 429
f 428 430 429
f 429 430 431
f 430 432 431
f 431 432 433
f 432 434 433
f 433 434 435
f 434 436 435
f 435 436 413
f 436 414 413
f 437 438 439
f 438 440 439
f 439 440 441
f 440 442 441
f 441 442 443
f 442 444 443
f 443 444 445
f 444 446 445
f 445 446 447
f 446 448 447
f 447 448 449
f 448 450 449
f 449 450 451
f 450 452 451
f 451 452 453
f 452 454 453
f 453 454 455
f 454 456 455
f 455 456 457
f 456 458 457
f 457 458 459
f 458 460 459
f 459 460 437
f 460 438 437

