# https://github.com/mikedh/trimesh
v 0.01698557 0.01125000 0.00400000
v 0.01698557 0.01125000 0.00000000
v 0.01732051 0.01250000 0.00400000
v 0.01732051 0.01250000 0.00000000
v 0.01823557 0.01341506 0.00400000
v 0.01823557 0.01341506 0.00000000
v 0.01948557 0.01375000 0.00400000
v 0.01948557 0.01375000 0.00000000
v 0.02073557 0.01341506 0.00400000
v 0.02073557 0.01341506 0.00000000
v 0.02165063 0.01250000 0.00400000
v 0.02165063 0.01250000 0.00000000
v 0.02198557 0.01125000 0.00400000
v 0.02198557 0.01125000 0.00000000
v 0.02165063 0.01000000 0.00400000
v 0.02165063 0.01000000 0.00000000
v 0.02073557 0.00908494 0.00400000
v 0.02073557 0.00908494 0.00000000
v 0.01948557 0.00875000 0.00400000
v 0.01948557 0.00875000 0.00000000
v 0.01823557 0.00908494 0.00400000
v 0.01823557 0.00908494 0.00000000
v 0.01732051 0.01000000 0.00400000
v 0.01732051 0.01000000 0.00000000
v 0.01083883 -0.03775745 0.00000000
v 0.01005145 -0.02275588 0.00000000
v 0.01083883 -0.03775745 0.00400000
v 0.01005145 -0.02275588 0.00400000
v -0.04243632 0.00732949 0.00400000
v -0.04243632 0.00732949 0.00000000
v -0.04188859 0.00860750 0.00400000
v -0.04188859 0.00860750 0.00000000
v -0.04082349 0.00950130 0.00400000
v -0.04082349 0.00950130 0.00000000
v -0.03946980 0.00981888 0.00400000
v -0.03946980 0.00981888 0.00000000
v -0.03811833 0.00949202 0.00400000
v -0.03811833 0.00949202 0.00000000
v -0.00200000 0.04800000 0.00400000
v -0.00200000 0.04800000 0.00000000
v -0.00173205 0.04900000 0.00400000
v -0.00173205 0.04900000 0.00000000
v -0.00100000 0.04973205 0.00400000
v -0.00100000 0.04973205 0.00000000
v -0.00000000 0.05000000 0.00400000
v -0.00000000 0.05000000 0.00000000
v 0.00100000 0.04973205 0.00400000
v 0.00100000 0.04973205 0.00000000
v 0.00173205 0.04900000 0.00400000
v 0.00173205 0.04900000 0.00000000
v 0.00200000 0.04800000 0.00400000
v 0.00200000 0.04800000 0.00000000
v 0.00173205 0.04700000 0.00400000
v 0.00173205 0.04700000 0.00000000
v 0.00100000 0.04626795 0.00400000
v 0.00100000 0.04626795 0.00000000
v 0.00000000 0.04600000 0.00400000
v 0.00000000 0.04600000 0.00000000
v -0.00100000 0.04626795 0.00400000
v -0.00100000 0.04626795 0.00000000
v -0.00173205 0.04700000 0.00400000
v -0.00173205 0.04700000 0.00000000
v 0.04243632 0.00732949 0.00400000
v 0.04243632 0.00732949 0.00000000
v 0.04243632 -0.00732949 0.00400000
v 0.04243632 -0.00732949 0.00000000
v -0.01468144 0.02008275 0.00000000
v -0.01468144 0.02008275 0.00400000
v -0.01345461 0.01962641 0.00000000
v -0.01345461 0.01962641 0.00400000
v -0.01215025 0.01973590 0.00000000
v -0.01215025 0.01973590 0.00400000
v -0.01101667 0.02039038 0.00000000
v -0.01101667 0.02039038 0.00400000
v -0.01026966 0.02146524 0.00000000
v -0.01026966 0.02146524 0.00400000
v -0.01005145 0.02275588 0.00000000
v -0.01005145 0.02275588 0.00400000
v 0.02756568 0.03308618 0.00400000
v 0.02756568 0.03308618 0.00000000
v 0.02839861 0.03197283 0.00400000
v 0.02839861 0.03197283 0.00000000
v 0.02864011 0.03060353 0.00400000
v 0.02864011 0.03060353 0.00000000
v 0.02823830 0.02927241 0.00400000
v 0.02823830 0.02927241 0.00000000
v 0.02727950 0.02826543 0.00400000
v 0.02727950 0.02826543 0.00000000
v 0.03956922 0.02400000 0.00400000
v 0.03956922 0.02400000 0.00000000
v 0.03983717 0.02500000 0.00400000
v 0.03983717 0.02500000 0.00000000
v 0.04056922 0.02573205 0.00400000
v 0.04056922 0.02573205 0.00000000
v 0.04156922 0.02600000 0.00400000
v 0.04156922 0.02600000 0.00000000
v 0.04256922 0.02573205 0.00400000
v 0.04256922 0.02573205 0.00000000
v 0.04330127 0.02500000 0.00400000
v 0.04330127 0.02500000 0.00000000
v 0.04356922 0.02400000 0.00400000
v 0.04356922 0.02400000 0.00000000
v 0.04330127 0.02300000 0.00400000
v 0.04330127 0.02300000 0.00000000
v 0.04256922 0.02226795 0.00400000
v 0.04256922 0.02226795 0.00000000
v 0.04156922 0.02200000 0.00400000
v 0.04156922 0.02200000 0.00000000
v 0.04056922 0.02226795 0.00400000
v 0.04056922 0.02226795 0.00000000
v 0.03983717 0.02300000 0.00400000
v 0.03983717 0.02300000 0.00000000
v 0.01468144 -0.02008275 0.00000000
v 0.02727950 -0.02826543 0.00000000
v 0.01468144 -0.02008275 0.00400000
v 0.02727950 -0.02826543 0.00400000
v -0.02727950 0.02826543 0.00400000
v -0.02727950 0.02826543 0.00000000
v -0.02823830 0.02927241 0.00400000
v -0.02823830 0.02927241 0.00000000
v -0.02864011 0.03060353 0.00400000
v -0.02864011 0.03060353 0.00000000
v -0.02839861 0.03197283 0.00400000
v -0.02839861 0.03197283 0.00000000
v -0.02756568 0.03308618 0.00400000
v -0.02756568 0.03308618 0.00000000
v 0.01698557 -0.01125000 0.00400000
v 0.01698557 -0.01125000 0.00000000
v 0.01732051 -0.01000000 0.00400000
v 0.01732051 -0.01000000 0.00000000
v 0.01823557 -0.00908494 0.00400000
v 0.01823557 -0.00908494 0.00000000
v 0.01948557 -0.00875000 0.00400000
v 0.01948557 -0.00875000 0.00000000
v 0.02073557 -0.00908494 0.00400000
v 0.02073557 -0.00908494 0.00000000
v 0.02165063 -0.01000000 0.00400000
v 0.02165063 -0.01000000 0.00000000
v 0.02198557 -0.01125000 0.00400000
v 0.02198557 -0.01125000 0.00000000
v 0.02165063 -0.01250000 0.00400000
v 0.02165063 -0.01250000 0.00000000
v 0.02073557 -0.01341506 0.00400000
v 0.02073557 -0.01341506 0.00000000
v 0.01948557 -0.01375000 0.00400000
v 0.01948557 -0.01375000 0.00000000
v 0.01823557 -0.01341506 0.00400000
v 0.01823557 -0.01341506 0.00000000
v 0.01732051 -0.01250000 0.00400000
v 0.01732051 -0.01250000 0.00000000
v 0.02756568 -0.03308618 0.00400000
v 0.02756568 -0.03308618 0.00000000
v 0.01487064 -0.04041567 0.00400000
v 0.01487064 -0.04041567 0.00000000
v -0.02473290 -0.00267313 0.00000000
v -0.02473290 -0.00267313 0.00400000
v -0.02372428 -0.00183883 0.00000000
v -0.02372428 -0.00183883 0.00400000
v -0.02316692 -0.00065448 0.00000000
v -0.02316692 -0.00065448 0.00400000
v -0.02316692 0.00065448 0.00000000
v -0.02316692 0.00065448 0.00400000
v -0.02372428 0.00183883 0.00000000
v -0.02372428 0.00183883 0.00400000
v -0.02473290 0.00267313 0.00000000
v -0.02473290 0.00267313 0.00400000
v -0.00250000 -0.02250000 0.00400000
v -0.00250000 -0.02250000 0.00000000
v -0.00216506 -0.02125000 0.00400000
v -0.00216506 -0.02125000 0.00000000
v -0.00125000 -0.02033494 0.00400000
v -0.00125000 -0.02033494 0.00000000
v 0.00000000 -0.02000000 0.00400000
v 0.00000000 -0.02000000 0.00000000
v 0.00125000 -0.02033494 0.00400000
v 0.00125000 -0.02033494 0.00000000
v 0.00216506 -0.02125000 0.00400000
v 0.00216506 -0.02125000 0.00000000
v 0.00250000 -0.02250000 0.00400000
v 0.00250000 -0.02250000 0.00000000
v 0.00216506 -0.02375000 0.00400000
v 0.00216506 -0.02375000 0.00000000
v 0.00125000 -0.02466506 0.00400000
v 0.00125000 -0.02466506 0.00000000
v 0.00000000 -0.02500000 0.00400000
v 0.00000000 -0.02500000 0.00000000
v -0.00125000 -0.02466506 0.00400000
v -0.00125000 -0.02466506 0.00000000
v -0.00216506 -0.02375000 0.00400000
v -0.00216506 -0.02375000 0.00000000
v -0.01005145 -0.02275588 0.00000000
v -0.01083883 -0.03775745 0.00000000
v -0.01005145 -0.02275588 0.00400000
v -0.01083883 -0.03775745 0.00400000
v -0.03811833 -0.00949202 0.00400000
v -0.03811833 -0.00949202 0.00000000
v -0.03946980 -0.00981888 0.00400000
v -0.03946980 -0.00981888 0.00000000
v -0.04082349 -0.00950130 0.00400000
v -0.04082349 -0.00950130 0.00000000
v -0.04188859 -0.00860750 0.00400000
v -0.04188859 -0.00860750 0.00000000
v -0.04243632 -0.00732949 0.00400000
v -0.04243632 -0.00732949 0.00000000
v -0.02198557 -0.01125000 0.00400000
v -0.02198557 -0.01125000 0.00000000
v -0.02165063 -0.01000000 0.00400000
v -0.02165063 -0.01000000 0.00000000
v -0.02073557 -0.00908494 0.00400000
v -0.02073557 -0.00908494 0.00000000
v -0.01948557 -0.00875000 0.00400000
v -0.01948557 -0.00875000 0.00000000
v -0.01823557 -0.00908494 0.00400000
v -0.01823557 -0.00908494 0.00000000
v -0.01732051 -0.01000000 0.00400000
v -0.01732051 -0.01000000 0.00000000
v -0.01698557 -0.01125000 0.00400000
v -0.01698557 -0.01125000 0.00000000
v -0.01732051 -0.01250000 0.00400000
v -0.01732051 -0.01250000 0.00000000
v -0.01823557 -0.01341506 0.00400000
v -0.01823557 -0.01341506 0.00000000
v -0.01948557 -0.01375000 0.00400000
v -0.01948557 -0.01375000 0.00000000
v -0.02073557 -0.01341506 0.00400000
v -0.02073557 -0.01341506 0.00000000
v -0.02165063 -0.01250000 0.00400000
v -0.02165063 -0.01250000 0.00000000
v -0.02727950 -0.02826543 0.00000000
v -0.01468144 -0.02008275 0.00000000
v -0.02727950 -0.02826543 0.00400000
v -0.01468144 -0.02008275 0.00400000
v -0.02756568 -0.03308618 0.00400000
v -0.02756568 -0.03308618 0.00000000
v -0.02839861 -0.03197283 0.00400000
v -0.02839861 -0.03197283 0.00000000
v -0.02864011 -0.03060353 0.00400000
v -0.02864011 -0.03060353 0.00000000
v -0.02823830 -0.02927241 0.00400000
v -0.02823830 -0.02927241 0.00000000
v -0.02727950 -0.02826543 0.00400000
v -0.02727950 -0.02826543 0.00000000
v -0.02198557 0.01125000 0.00400000
v -0.02198557 0.01125000 0.00000000
v -0.02165063 0.01250000 0.00400000
v -0.02165063 0.01250000 0.00000000
v -0.02073557 0.01341506 0.00400000
v -0.02073557 0.01341506 0.00000000
v -0.01948557 0.01375000 0.00400000
v -0.01948557 0.01375000 0.00000000
v -0.01823557 0.01341506 0.00400000
v -0.01823557 0.01341506 0.00000000
v -0.01732051 0.01250000 0.00400000
v -0.01732051 0.01250000 0.00000000
v -0.01698557 0.01125000 0.00400000
v -0.01698557 0.01125000 0.00000000
v -0.01732051 0.01000000 0.00400000
v -0.01732051 0.01000000 0.00000000
v -0.01823557 0.00908494 0.00400000
v -0.01823557 0.00908494 0.00000000
v -0.01948557 0.00875000 0.00400000
v -0.01948557 0.00875000 0.00000000
v -0.02073557 0.00908494 0.00400000
v -0.02073557 0.00908494 0.00000000
v -0.02165063 0.01000000 0.00400000
v -0.02165063 0.01000000 0.00000000
v -0.01487064 -0.04041567 0.00400000
v -0.01487064 -0.04041567 0.00000000
v -0.01005145 -0.02275588 0.00000000
v -0.01005145 -0.02275588 0.00400000
v -0.01026966 -0.02146524 0.00000000
v -0.01026966 -0.02146524 0.00400000
v -0.01101667 -0.02039038 0.00000000
v -0.01101667 -0.02039038 0.00400000
v -0.01215025 -0.01973590 0.00000000
v -0.01215025 -0.01973590 0.00400000
v -0.01345461 -0.01962641 0.00000000
v -0.01345461 -0.01962641 0.00400000
v -0.01468144 -0.02008275 0.00000000
v -0.01468144 -0.02008275 0.00400000
v 0.01468144 0.02008275 0.00400000
v 0.02727950 0.02826543 0.00400000
v 0.01468144 0.02008275 0.00000000
v 0.02727950 0.02826543 0.00000000
v -0.02473290 -0.00267313 0.00000000
v -0.03811833 -0.00949202 0.00000000
v -0.02473290 -0.00267313 0.00400000
v -0.03811833 -0.00949202 0.00400000
v -0.01083883 -0.03775745 0.00400000
v -0.01083883 -0.03775745 0.00000000
v -0.01123150 -0.03909129 0.00400000
v -0.01123150 -0.03909129 0.00000000
v -0.01218338 -0.04010483 0.00400000
v -0.01218338 -0.04010483 0.00000000
v -0.01348998 -0.04058034 0.00400000
v -0.01348998 -0.04058034 0.00000000
v 0.01487064 0.04041567 0.00400000
v 0.01487064 0.04041567 0.00000000
v -0.03811833 0.00949202 0.00000000
v -0.02473290 0.00267313 0.00000000
v -0.03811833 0.00949202 0.00400000
v -0.02473290 0.00267313 0.00400000
v 0.01348998 -0.04058034 0.00400000
v 0.01348998 -0.04058034 0.00000000
v 0.01218338 -0.04010483 0.00400000
v 0.01218338 -0.04010483 0.00000000
v 0.01123150 -0.03909129 0.00400000
v 0.01123150 -0.03909129 0.00000000
v 0.01083883 -0.03775745 0.00400000
v 0.01083883 -0.03775745 0.00000000
v 0.01083883 0.03775745 0.00400000
v 0.01005145 0.02275588 0.00400000
v 0.01083883 0.03775745 0.00000000
v 0.01005145 0.02275588 0.00000000
v 0.01468144 -0.02008275 0.00000000
v 0.01468144 -0.02008275 0.00400000
v 0.01345461 -0.01962641 0.00000000
v 0.01345461 -0.01962641 0.00400000
v 0.01215025 -0.01973590 0.00000000
v 0.01215025 -0.01973590 0.00400000
v 0.01101667 -0.02039038 0.00000000
v 0.01101667 -0.02039038 0.00400000
v 0.01026966 -0.02146524 0.00000000
v 0.01026966 -0.02146524 0.00400000
v 0.01005145 -0.02275588 0.00000000
v 0.01005145 -0.02275588 0.00400000
v 0.03956922 -0.02400000 0.00400000
v 0.03956922 -0.02400000 0.00000000
v 0.03983717 -0.02300000 0.00400000
v 0.03983717 -0.02300000 0.00000000
v 0.04056922 -0.02226795 0.00400000
v 0.04056922 -0.02226795 0.00000000
v 0.04156922 -0.02200000 0.00400000
v 0.04156922 -0.02200000 0.00000000
v 0.04256922 -0.02226795 0.00400000
v 0.04256922 -0.02226795 0.00000000
v 0.04330127 -0.02300000 0.00400000
v 0.04330127 -0.02300000 0.00000000
v 0.04356922 -0.02400000 0.00400000
v 0.04356922 -0.02400000 0.00000000
v 0.04330127 -0.02500000 0.00400000
v 0.04330127 -0.02500000 0.00000000
v 0.04256922 -0.02573205 0.00400000
v 0.04256922 -0.02573205 0.00000000
v 0.04156922 -0.02600000 0.00400000
v 0.04156922 -0.02600000 0.00000000
v 0.04056922 -0.02573205 0.00400000
v 0.04056922 -0.02573205 0.00000000
v 0.03983717 -0.02500000 0.00400000
v 0.03983717 -0.02500000 0.00000000
v -0.03811833 -0.00949202 0.00000000
v -0.03410730 -0.00744870 0.00000000
v -0.03410730 -0.01053445 0.00000000
v 0.03410730 -0.04102410 0.00000000
v 0.03410730 -0.03330011 0.00000000
v 0.04183129 -0.03330011 0.00000000
v -0.04183129 -0.03330011 0.00000000
v -0.03410730 -0.03330011 0.00000000
v -0.03410730 -0.04102410 0.00000000
v 0.01083883 0.03775745 0.00000000
v 0.01060488 0.03330011 0.00000000
v 0.00627366 0.03330011 0.00000000
v -0.00562500 -0.00974279 0.00000000
v -0.00267048 -0.01053445 0.00000000
v -0.01411779 -0.01053445 0.00000000
v -0.00216506 0.02375000 0.00000000
v -0.00225000 0.02343301 0.00000000
v -0.00225000 0.03330011 0.00000000
v 0.00216506 0.02125000 0.00000000
v 0.00225000 0.02156699 0.00000000
v 0.00225000 0.01979932 0.00000000
v -0.00216506 -0.02125000 0.00000000
v -0.00225000 -0.02156699 0.00000000
v -0.00225000 -0.01979932 0.00000000
v -0.02719516 -0.03330011 0.00000000
v -0.02254011 -0.03598770 0.00000000
v -0.02254011 -0.04330010 0.00000000
v -0.01083883 -0.03775745 0.00000000
v -0.01060488 -0.03330011 0.00000000
v -0.00225000 -0.03330011 0.00000000
v -0.01083883 0.03775745 0.00000000
v -0.01123150 0.03909129 0.00000000
v -0.00225000 0.05439711 0.00000000
v -0.01218338 0.04010483 0.00000000
v -0.01411779 0.05121715 0.00000000
v -0.01348998 0.04058034 0.00000000
v -0.01060488 0.03330011 0.00000000
v -0.01215025 0.01973590 0.00000000
v -0.01204041 0.01979932 0.00000000
v -0.00225000 0.01979932 0.00000000
v -0.01101667 0.02039038 0.00000000
v -0.01026966 0.02146524 0.00000000
v -0.01005145 0.02275588 0.00000000
v -0.00250000 0.02250000 0.00000000
v -0.00225000 0.02156699 0.00000000
v -0.01411779 0.01987309 0.00000000
v -0.01411779 0.01979932 0.00000000
v -0.01468144 0.02008275 0.00000000
v -0.02254011 0.01979932 0.00000000
v -0.03410730 0.03330011 0.00000000
v -0.02719516 0.03330011 0.00000000
v -0.02756568 0.03308618 0.00000000
v -0.02839861 0.03197283 0.00000000
v -0.02864011 0.03060353 0.00000000
v -0.03410730 0.01979932 0.00000000
v -0.02823830 0.02927241 0.00000000
v -0.02727950 0.02826543 0.00000000
v -0.02254011 0.02518711 0.00000000
v -0.02254011 -0.01979932 0.00000000
v -0.02254011 -0.02518711 0.00000000
v -0.03410730 -0.01979932 0.00000000
v -0.02727950 -0.02826543 0.00000000
v -0.02823830 -0.02927241 0.00000000
v -0.02864011 -0.03060353 0.00000000
v -0.02839861 -0.03197283 0.00000000
v -0.01345461 -0.01962641 0.00000000
v -0.01391946 -0.01979932 0.00000000
v -0.01411779 -0.01979932 0.00000000
v -0.01411779 -0.01987309 0.00000000
v -0.01468144 -0.02008275 0.00000000
v -0.01215025 -0.01973590 0.00000000
v -0.01204041 -0.01979932 0.00000000
v -0.00225000 -0.02343301 0.00000000
v -0.01005145 -0.02275588 0.00000000
v -0.00250000 -0.02250000 0.00000000
v -0.01026966 -0.02146524 0.00000000
v -0.01101667 -0.02039038 0.00000000
v -0.01218338 -0.04010483 0.00000000
v -0.01123150 -0.03909129 0.00000000
v -0.00225000 -0.04330010 0.00000000
v -0.01348998 -0.04058034 0.00000000
v -0.01411779 -0.04330010 0.00000000
v -0.01411779 -0.04050546 0.00000000
v -0.01487064 -0.04041567 0.00000000
v -0.03183129 -0.04330010 0.00000000
v 0.04082349 -0.00950130 0.00000000
v 0.05217730 -0.01053445 0.00000000
v 0.03946980 -0.00981888 0.00000000
v 0.03410730 -0.01053445 0.00000000
v 0.03811833 -0.00949202 0.00000000
v 0.02254011 -0.01053445 0.00000000
v 0.02254011 0.00000000 0.00000000
v 0.02316692 -0.00065448 0.00000000
v 0.02372428 -0.00183883 0.00000000
v 0.02473290 -0.00267313 0.00000000
v 0.03410730 -0.00744870 0.00000000
v 0.02372428 0.00183883 0.00000000
v 0.02316692 0.00065448 0.00000000
v 0.02316692 0.00000000 0.00000000
v 0.04188859 0.00860750 0.00000000
v 0.04082349 0.00950130 0.00000000
v 0.05217730 0.01053445 0.00000000
v 0.03946980 0.00981888 0.00000000
v 0.03410730 0.01053445 0.00000000
v 0.03811833 0.00949202 0.00000000
v 0.03410730 0.00744870 0.00000000
v 0.02254011 0.01053445 0.00000000
v 0.02473290 0.00267313 0.00000000
v 0.04188859 -0.00860750 0.00000000
v 0.04243632 -0.00732949 0.00000000
v 0.05500000 0.00000000 0.00000000
v 0.04243632 0.00000000 0.00000000
v 0.04243632 0.00732949 0.00000000
v -0.01698557 0.01125000 0.00000000
v -0.01732051 0.01250000 0.00000000
v -0.01411779 0.01667432 0.00000000
v -0.01823557 0.01341506 0.00000000
v -0.02254011 0.01667432 0.00000000
v -0.01948557 0.01375000 0.00000000
v -0.02073557 0.01341506 0.00000000
v -0.02165063 0.01250000 0.00000000
v -0.02198557 0.01125000 0.00000000
v -0.02254011 0.01053445 0.00000000
v -0.02179384 0.01053445 0.00000000
v -0.02165063 0.01000000 0.00000000
v -0.02254011 0.00000000 0.00000000
v -0.02073557 0.00908494 0.00000000
v -0.01948557 0.00875000 0.00000000
v -0.01411779 0.00000000 0.00000000
v -0.01823557 0.00908494 0.00000000
v -0.01411779 0.01053445 0.00000000
v -0.01732051 0.01000000 0.00000000
v -0.01717730 0.01053445 0.00000000
v -0.02198557 -0.01125000 0.00000000
v -0.02165063 -0.01250000 0.00000000
v -0.01732051 -0.01250000 0.00000000
v -0.01698557 -0.01125000 0.00000000
v -0.02073557 -0.01341506 0.00000000
v -0.01948557 -0.01375000 0.00000000
v -0.01823557 -0.01341506 0.00000000
v -0.02179384 -0.01053445 0.00000000
v -0.02254011 -0.01053445 0.00000000
v -0.02165063 -0.01000000 0.00000000
v -0.02073557 -0.00908494 0.00000000
v -0.01717730 -0.01053445 0.00000000
v -0.01732051 -0.01000000 0.00000000
v -0.01823557 -0.00908494 0.00000000
v -0.01948557 -0.00875000 0.00000000
v 0.00225000 -0.02343301 0.00000000
v 0.00250000 -0.02250000 0.00000000
v 0.00627366 -0.01979932 0.00000000
v 0.00225000 -0.02156699 0.00000000
v 0.00125000 -0.02466506 0.00000000
v 0.00216506 -0.02375000 0.00000000
v 0.00225000 -0.03330011 0.00000000
v -0.00216506 -0.02375000 0.00000000
v -0.00125000 -0.02466506 0.00000000
v 0.00000000 -0.02500000 0.00000000
v 0.00225000 -0.01979932 0.00000000
v 0.00216506 -0.02125000 0.00000000
v 0.00125000 -0.02033494 0.00000000
v 0.00000000 -0.02000000 0.00000000
v -0.00125000 -0.02033494 0.00000000
v 0.01411779 -0.01053445 0.00000000
v 0.01717730 -0.01053445 0.00000000
v 0.01698557 -0.01125000 0.00000000
v 0.01948557 -0.01375000 0.00000000
v 0.02073557 -0.01341506 0.00000000
v 0.02254011 -0.01979932 0.00000000
v 0.01411779 -0.01979932 0.00000000
v 0.01732051 -0.01250000 0.00000000
v 0.01823557 -0.01341506 0.00000000
v 0.02165063 -0.01250000 0.00000000
v 0.02198557 -0.01125000 0.00000000
v 0.02179384 -0.01053445 0.00000000
v 0.02165063 -0.01000000 0.00000000
v 0.02073557 -0.00908494 0.00000000
v 0.01948557 -0.00875000 0.00000000
v 0.01411779 0.00000000 0.00000000
v 0.01823557 -0.00908494 0.00000000
v 0.01732051 -0.01000000 0.00000000
v 0.02198557 0.01125000 0.00000000
v 0.02165063 0.01250000 0.00000000
v 0.02254011 0.01667432 0.00000000
v 0.02073557 0.01341506 0.00000000
v 0.01948557 0.01375000 0.00000000
v 0.01411779 0.01667432 0.00000000
v 0.01823557 0.01341506 0.00000000
v 0.01732051 0.01250000 0.00000000
v 0.01698557 0.01125000 0.00000000
v 0.01411779 0.01053445 0.00000000
v 0.02073557 0.00908494 0.00000000
v 0.02165063 0.01000000 0.00000000
v 0.02179384 0.01053445 0.00000000
v 0.01717730 0.01053445 0.00000000
v 0.01732051 0.01000000 0.00000000
v 0.01823557 0.00908494 0.00000000
v 0.01948557 0.00875000 0.00000000
v 0.00627366 0.01979932 0.00000000
v 0.00250000 0.02250000 0.00000000
v 0.00225000 0.02343301 0.00000000
v -0.00216506 0.02125000 0.00000000
v -0.00125000 0.02033494 0.00000000
v 0.00000000 0.02000000 0.00000000
v 0.00125000 0.02033494 0.00000000
v 0.00216506 0.02375000 0.00000000
v 0.00125000 0.02466506 0.00000000
v 0.00225000 0.03330011 0.00000000
v -0.00000000 0.02500000 0.00000000
v -0.00125000 0.02466506 0.00000000
v 0.00225000 -0.01064711 0.00000000
v 0.00267048 -0.01053445 0.00000000
v 0.00627366 -0.01053445 0.00000000
v -0.00225000 -0.01064711 0.00000000
v 0.00000000 -0.01125000 0.00000000
v -0.00267048 0.01053445 0.00000000
v -0.00562500 0.00974279 0.00000000
v -0.00974279 0.00562500 0.00000000
v -0.01125000 0.00000000 0.00000000
v -0.00974279 -0.00562500 0.00000000
v -0.00225000 0.01667432 0.00000000
v 0.00225000 0.01667432 0.00000000
v -0.00000000 0.01125000 0.00000000
v -0.00225000 0.01064711 0.00000000
v 0.00627366 0.01667432 0.00000000
v 0.00267048 0.01053445 0.00000000
v 0.00225000 0.01064711 0.00000000
v 0.00562500 -0.00974279 0.00000000
v 0.00627366 -0.00909412 0.00000000
v 0.00974279 -0.00562500 0.00000000
v 0.01125000 0.00000000 0.00000000
v 0.00974279 0.00562500 0.00000000
v 0.00627366 0.01053445 0.00000000
v 0.00627366 0.00909412 0.00000000
v 0.00562500 0.00974279 0.00000000
v 0.04256922 0.02226795 0.00000000
v 0.04969479 0.01979932 0.00000000
v 0.04156922 0.02200000 0.00000000
v 0.03410730 0.01979932 0.00000000
v 0.04056922 0.02226795 0.00000000
v 0.03983717 0.02300000 0.00000000
v 0.04330127 0.02300000 0.00000000
v 0.04356922 0.02400000 0.00000000
v 0.04763140 0.02750000 0.00000000
v 0.04330127 0.02500000 0.00000000
v 0.04183129 0.03330011 0.00000000
v 0.04256922 0.02573205 0.00000000
v 0.04156922 0.02600000 0.00000000
v 0.04056922 0.02573205 0.00000000
v 0.03410730 0.03330011 0.00000000
v 0.03983717 0.02500000 0.00000000
v 0.03956922 0.02400000 0.00000000
v 0.03410730 0.04102410 0.00000000
v 0.02750000 0.04763140 0.00000000
v 0.01487064 0.04041567 0.00000000
v 0.01411779 0.05121715 0.00000000
v 0.02254011 0.03598770 0.00000000
v 0.02254011 0.04896040 0.00000000
v 0.02719516 0.03330011 0.00000000
v 0.01411779 0.04050546 0.00000000
v 0.01348998 0.04058034 0.00000000
v 0.00627366 0.05331898 0.00000000
v 0.01218338 0.04010483 0.00000000
v 0.01123150 0.03909129 0.00000000
v 0.00225000 0.05439711 0.00000000
v -0.00173205 0.04900000 0.00000000
v -0.00200000 0.04800000 0.00000000
v -0.00173205 0.04700000 0.00000000
v -0.00100000 0.04626795 0.00000000
v 0.00000000 0.04600000 0.00000000
v 0.00100000 0.04626795 0.00000000
v 0.00100000 0.04973205 0.00000000
v -0.00000000 0.05500000 0.00000000
v -0.00000000 0.05000000 0.00000000
v -0.00100000 0.04973205 0.00000000
v 0.00173205 0.04700000 0.00000000
v 0.00200000 0.04800000 0.00000000
v 0.00173205 0.04900000 0.00000000
v -0.04331693 0.03181447 0.00000000
v -0.04183129 0.03330011 0.00000000
v -0.04156922 0.02600000 0.00000000
v -0.04330127 0.02300000 0.00000000
v -0.04256922 0.02226795 0.00000000
v -0.04331693 0.01979932 0.00000000
v -0.04156922 0.02200000 0.00000000
v -0.04056922 0.02226795 0.00000000
v -0.03983717 0.02300000 0.00000000
v -0.03956922 0.02400000 0.00000000
v -0.03983717 0.02500000 0.00000000
v -0.04056922 0.02573205 0.00000000
v -0.04256922 0.02573205 0.00000000
v -0.04330127 0.02500000 0.00000000
v -0.04331693 0.02494157 0.00000000
v -0.01411779 0.04050546 0.00000000
v -0.01487064 0.04041567 0.00000000
v -0.02254011 0.04896040 0.00000000
v -0.02254011 0.03598770 0.00000000
v -0.02750000 0.04763140 0.00000000
v -0.03410730 0.04102410 0.00000000
v -0.04331693 0.02305843 0.00000000
v -0.04969479 0.01979932 0.00000000
v -0.04356922 0.02400000 0.00000000
v -0.04763140 0.02750000 0.00000000
v -0.04331693 0.00000000 0.00000000
v -0.04331693 -0.01053445 0.00000000
v -0.05500000 0.00000000 0.00000000
v -0.05217730 -0.01053445 0.00000000
v -0.04256922 -0.02226795 0.00000000
v -0.04330127 -0.02300000 0.00000000
v -0.04331693 -0.01979932 0.00000000
v -0.04331693 -0.02305843 0.00000000
v -0.04969479 -0.01979932 0.00000000
v -0.04356922 -0.02400000 0.00000000
v -0.04763140 -0.02750000 0.00000000
v -0.04331693 -0.02494157 0.00000000
v -0.04331693 -0.03181447 0.00000000
v -0.04330127 -0.02500000 0.00000000
v -0.03983717 -0.02500000 0.00000000
v -0.03956922 -0.02400000 0.00000000
v -0.04256922 -0.02573205 0.00000000
v -0.04156922 -0.02600000 0.00000000
v -0.04056922 -0.02573205 0.00000000
v -0.03983717 -0.02300000 0.00000000
v -0.04056922 -0.02226795 0.00000000
v -0.04156922 -0.02200000 0.00000000
v -0.02254011 -0.04896040 0.00000000
v -0.02750000 -0.04763140 0.00000000
v -0.00200000 -0.04800000 0.00000000
v -0.00173205 -0.04700000 0.00000000
v -0.00100000 -0.04626795 0.00000000
v -0.02756568 -0.03308618 0.00000000
v -0.01411779 -0.05121715 0.00000000
v -0.00225000 -0.05439711 0.00000000
v -0.00173205 -0.04900000 0.00000000
v -0.00100000 -0.04973205 0.00000000
v 0.00000000 -0.05500000 0.00000000
v -0.00000000 -0.05000000 0.00000000
v 0.00225000 -0.05439711 0.00000000
v 0.00200000 -0.04800000 0.00000000
v 0.00173205 -0.04700000 0.00000000
v 0.00225000 -0.04330010 0.00000000
v 0.00100000 -0.04626795 0.00000000
v -0.00000000 -0.04600000 0.00000000
v 0.00100000 -0.04973205 0.00000000
v 0.00173205 -0.04900000 0.00000000
v 0.00627366 -0.04330010 0.00000000
v 0.00627366 -0.05331898 0.00000000
v 0.01411779 -0.04330010 0.00000000
v 0.01411779 -0.05121715 0.00000000
v 0.02254011 -0.04330010 0.00000000
v 0.02254011 -0.04896040 0.00000000
v 0.03183129 -0.04330010 0.00000000
v 0.02750000 -0.04763140 0.00000000
v 0.03956922 -0.02400000 0.00000000
v 0.03983717 -0.02500000 0.00000000
v 0.04056922 -0.02573205 0.00000000
v 0.04156922 -0.02600000 0.00000000
v 0.04256922 -0.02573205 0.00000000
v 0.04763140 -0.02750000 0.00000000
v 0.04330127 -0.02500000 0.00000000
v 0.04969479 -0.01979932 0.00000000
v 0.04356922 -0.02400000 0.00000000
v 0.04330127 -0.02300000 0.00000000
v 0.04256922 -0.02226795 0.00000000
v 0.04156922 -0.02200000 0.00000000
v 0.03410730 -0.01979932 0.00000000
v 0.04056922 -0.02226795 0.00000000
v 0.03983717 -0.02300000 0.00000000
v 0.02756568 0.03308618 0.00000000
v 0.02839861 0.03197283 0.00000000
v 0.02254011 0.01979932 0.00000000
v 0.02254011 0.02518711 0.00000000
v 0.02727950 0.02826543 0.00000000
v 0.02823830 0.02927241 0.00000000
v 0.02864011 0.03060353 0.00000000
v 0.01345461 0.01962641 0.00000000
v 0.01391946 0.01979932 0.00000000
v 0.01411779 0.01979932 0.00000000
v 0.01411779 0.01987309 0.00000000
v 0.01468144 0.02008275 0.00000000
v 0.01204041 0.01979932 0.00000000
v 0.01215025 0.01973590 0.00000000
v 0.01026966 0.02146524 0.00000000
v 0.01101667 0.02039038 0.00000000
v 0.01005145 0.02275588 0.00000000
v 0.01348998 -0.04058034 0.00000000
v 0.01411779 -0.04050546 0.00000000
v 0.01487064 -0.04041567 0.00000000
v 0.02254011 -0.03598770 0.00000000
v 0.02719516 -0.03330011 0.00000000
v 0.01218338 -0.04010483 0.00000000
v 0.01060488 -0.03330011 0.00000000
v 0.01083883 -0.03775745 0.00000000
v 0.01123150 -0.03909129 0.00000000
v 0.01204041 -0.01979932 0.00000000
v 0.01101667 -0.02039038 0.00000000
v 0.01026966 -0.02146524 0.00000000
v 0.01005145 -0.02275588 0.00000000
v 0.00627366 -0.03330011 0.00000000
v 0.01215025 -0.01973590 0.00000000
v 0.01345461 -0.01962641 0.00000000
v 0.01391946 -0.01979932 0.00000000
v 0.01411779 -0.01987309 0.00000000
v 0.01468144 -0.02008275 0.00000000
v 0.02839861 -0.03197283 0.00000000
v 0.02864011 -0.03060353 0.00000000
v 0.02756568 -0.03308618 0.00000000
v 0.02823830 -0.02927241 0.00000000
v 0.02727950 -0.02826543 0.00000000
v 0.02254011 -0.02518711 0.00000000
v -0.03410730 0.01053445 0.00000000
v -0.03811833 0.00949202 0.00000000
v -0.03946980 0.00981888 0.00000000
v -0.04331693 0.01053445 0.00000000
v -0.04082349 0.00950130 0.00000000
v -0.04188859 0.00860750 0.00000000
v -0.04243632 0.00732949 0.00000000
v -0.05217730 0.01053445 0.00000000
v -0.02316692 0.00000000 0.00000000
v -0.02316692 0.00065448 0.00000000
v -0.02372428 0.00183883 0.00000000
v -0.02473290 0.00267313 0.00000000
v -0.03410730 0.00744870 0.00000000
v -0.02473290 -0.00267313 0.00000000
v -0.02372428 -0.00183883 0.00000000
v -0.02316692 -0.00065448 0.00000000
v -0.03946980 -0.00981888 0.00000000
v -0.04082349 -0.00950130 0.00000000
v -0.04243632 0.00000000 0.00000000
v -0.04243632 -0.00732949 0.00000000
v -0.04188859 -0.00860750 0.00000000
v 0.03410730 0.01667432 0.00000000
v 0.05053213 0.01667432 0.00000000
v -0.05053213 0.01667432 0.00000000
v -0.04331693 0.01667432 0.00000000
v -0.03410730 0.01667432 0.00000000
v -0.01391946 0.01979932 0.00000000
v -0.01345461 0.01962641 0.00000000
v 0.02727950 -0.02826543 0.00400000
v 0.02727950 -0.02826543 0.00000000
v 0.02823830 -0.02927241 0.00400000
v 0.02823830 -0.02927241 0.00000000
v 0.02864011 -0.03060353 0.00400000
v 0.02864011 -0.03060353 0.00000000
v 0.02839861 -0.03197283 0.00400000
v 0.02839861 -0.03197283 0.00000000
v -0.00200000 -0.04800000 0.00400000
v -0.00200000 -0.04800000 0.00000000
v -0.00173205 -0.04700000 0.00400000
v -0.00173205 -0.04700000 0.00000000
v -0.00100000 -0.04626795 0.00400000
v -0.00100000 -0.04626795 0.00000000
v -0.00000000 -0.04600000 0.00400000
v -0.00000000 -0.04600000 0.00000000
v 0.00100000 -0.04626795 0.00400000
v 0.00100000 -0.04626795 0.00000000
v 0.00173205 -0.04700000 0.00400000
v 0.00173205 -0.04700000 0.00000000
v 0.00200000 -0.04800000 0.00400000
v 0.00200000 -0.04800000 0.00000000
v 0.00173205 -0.04900000 0.00400000
v 0.00173205 -0.04900000 0.00000000
v 0.00100000 -0.04973205 0.00400000
v 0.00100000 -0.04973205 0.00000000
v -0.00000000 -0.05000000 0.00400000
v -0.00000000 -0.05000000 0.00000000
v -0.00100000 -0.04973205 0.00400000
v -0.00100000 -0.04973205 0.00000000
v -0.00173205 -0.04900000 0.00400000
v -0.00173205 -0.04900000 0.00000000
v -0.02198557 -0.01125000 0.00400000
v -0.02179384 -0.01053445 0.00400000
v -0.02254011 -0.01053445 0.00400000
v -0.00216506 0.02125000 0.00400000
v -0.00225000 0.02156699 0.00400000
v -0.00225000 0.01979932 0.00400000
v -0.04183129 0.03330011 0.00400000
v -0.03410730 0.03330011 0.00400000
v -0.03410730 0.04102410 0.00400000
v 0.00173205 -0.04700000 0.00400000
v 0.00200000 -0.04800000 0.00400000
v 0.00225000 -0.04330010 0.00400000
v 0.00562500 -0.00974279 0.00400000
v 0.00267048 -0.01053445 0.00400000
v 0.00627366 -0.01053445 0.00400000
v -0.00562500 0.00974279 0.00400000
v -0.00267048 0.01053445 0.00400000
v -0.01411779 0.01053445 0.00400000
v -0.00216506 -0.02375000 0.00400000
v -0.00225000 -0.02343301 0.00400000
v -0.00225000 -0.03330011 0.00400000
v 0.00216506 -0.02125000 0.00400000
v 0.00225000 -0.02156699 0.00400000
v 0.00225000 -0.01979932 0.00400000
v 0.02727950 0.02826543 0.00400000
v 0.02254011 0.02518711 0.00400000
v 0.02254011 0.01979932 0.00400000
v 0.02719516 -0.03330011 0.00400000
v 0.02254011 -0.03598770 0.00400000
v 0.02254011 -0.04330010 0.00400000
v -0.02719516 0.03330011 0.00400000
v -0.02254011 0.03598770 0.00400000
v -0.02254011 0.04896040 0.00400000
v -0.01218338 0.04010483 0.00400000
v -0.00225000 0.05439711 0.00400000
v -0.01348998 0.04058034 0.00400000
v -0.01411779 0.05121715 0.00400000
v -0.01411779 0.04050546 0.00400000
v -0.01487064 0.04041567 0.00400000
v -0.02750000 0.04763140 0.00400000
v -0.02756568 0.03308618 0.00400000
v -0.02839861 0.03197283 0.00400000
v -0.02254011 0.02518711 0.00400000
v -0.02727950 0.02826543 0.00400000
v -0.03410730 0.01979932 0.00400000
v -0.02823830 0.02927241 0.00400000
v -0.02864011 0.03060353 0.00400000
v -0.01411779 0.01987309 0.00400000
v -0.01468144 0.02008275 0.00400000
v -0.02254011 0.01979932 0.00400000
v -0.01391946 0.01979932 0.00400000
v -0.01411779 0.01979932 0.00400000
v -0.01345461 0.01962641 0.00400000
v -0.01411779 0.01667432 0.00400000
v -0.01215025 0.01973590 0.00400000
v -0.00225000 0.01667432 0.00400000
v -0.01204041 0.01979932 0.00400000
v -0.01123150 0.03909129 0.00400000
v -0.01083883 0.03775745 0.00400000
v -0.00225000 0.03330011 0.00400000
v -0.01060488 0.03330011 0.00400000
v -0.00225000 0.02343301 0.00400000
v -0.01005145 0.02275588 0.00400000
v -0.00250000 0.02250000 0.00400000
v -0.01026966 0.02146524 0.00400000
v -0.01101667 0.02039038 0.00400000
v -0.03946980 0.00981888 0.00400000
v -0.03811833 0.00949202 0.00400000
v -0.03410730 0.01053445 0.00400000
v -0.04331693 0.00000000 0.00400000
v -0.04243632 0.00732949 0.00400000
v -0.04331693 0.01053445 0.00400000
v -0.04188859 0.00860750 0.00400000
v -0.04082349 0.00950130 0.00400000
v -0.04082349 -0.00950130 0.00400000
v -0.04331693 -0.01053445 0.00400000
v -0.03946980 -0.00981888 0.00400000
v -0.03410730 -0.01053445 0.00400000
v -0.03811833 -0.00949202 0.00400000
v -0.04188859 -0.00860750 0.00400000
v -0.04243632 -0.00732949 0.00400000
v -0.04243632 0.00000000 0.00400000
v -0.02254011 0.00000000 0.00400000
v -0.02316692 0.00000000 0.00400000
v -0.02316692 -0.00065448 0.00400000
v -0.02372428 -0.00183883 0.00400000
v -0.02473290 -0.00267313 0.00400000
v -0.03410730 -0.00744870 0.00400000
v -0.03410730 0.00744870 0.00400000
v -0.02473290 0.00267313 0.00400000
v -0.02254011 0.01053445 0.00400000
v -0.02372428 0.00183883 0.00400000
v -0.02316692 0.00065448 0.00400000
v -0.03410730 -0.01979932 0.00400000
v -0.03410730 -0.03330011 0.00400000
v -0.02864011 -0.03060353 0.00400000
v -0.02823830 -0.02927241 0.00400000
v -0.02727950 -0.02826543 0.00400000
v -0.02254011 -0.01979932 0.00400000
v -0.02719516 -0.03330011 0.00400000
v -0.02756568 -0.03308618 0.00400000
v -0.02839861 -0.03197283 0.00400000
v -0.01060488 -0.03330011 0.00400000
v -0.01083883 -0.03775745 0.00400000
v -0.00225000 -0.04330010 0.00400000
v -0.01123150 -0.03909129 0.00400000
v -0.01218338 -0.04010483 0.00400000
v -0.01411779 -0.04330010 0.00400000
v -0.01348998 -0.04058034 0.00400000
v -0.01026966 -0.02146524 0.00400000
v -0.00225000 -0.01979932 0.00400000
v -0.01101667 -0.02039038 0.00400000
v -0.01204041 -0.01979932 0.00400000
v -0.01005145 -0.02275588 0.00400000
v -0.00250000 -0.02250000 0.00400000
v -0.00225000 -0.02156699 0.00400000
v -0.01391946 -0.01979932 0.00400000
v -0.01345461 -0.01962641 0.00400000
v -0.01411779 -0.01053445 0.00400000
v -0.00267048 -0.01053445 0.00400000
v -0.01411779 -0.01987309 0.00400000
v -0.01411779 -0.01979932 0.00400000
v -0.01468144 -0.02008275 0.00400000
v -0.02254011 -0.02518711 0.00400000
v 0.01411779 -0.04330010 0.00400000
v 0.01411779 -0.04050546 0.00400000
v 0.01348998 -0.04058034 0.00400000
v 0.00627366 -0.04330010 0.00400000
v 0.01218338 -0.04010483 0.00400000
v 0.01123150 -0.03909129 0.00400000
v 0.01083883 -0.03775745 0.00400000
v 0.01487064 -0.04041567 0.00400000
v 0.03410730 -0.01979932 0.00400000
v 0.02254011 -0.01979932 0.00400000
v 0.02254011 -0.02518711 0.00400000
v 0.02727950 -0.02826543 0.00400000
v 0.02823830 -0.02927241 0.00400000
v 0.03410730 -0.03330011 0.00400000
v 0.02864011 -0.03060353 0.00400000
v 0.02839861 -0.03197283 0.00400000
v 0.01345461 -0.01962641 0.00400000
v 0.01391946 -0.01979932 0.00400000
v 0.01411779 -0.01979932 0.00400000
v 0.01411779 -0.01987309 0.00400000
v 0.01468144 -0.02008275 0.00400000
v 0.01411779 -0.01053445 0.00400000
v 0.01215025 -0.01973590 0.00400000
v 0.01005145 -0.02275588 0.00400000
v 0.01026966 -0.02146524 0.00400000
v 0.00627366 -0.01979932 0.00400000
v 0.01101667 -0.02039038 0.00400000
v 0.01204041 -0.01979932 0.00400000
v 0.04188859 -0.00860750 0.00400000
v 0.04082349 -0.00950130 0.00400000
v 0.05217730 -0.01053445 0.00400000
v 0.03946980 0.00981888 0.00400000
v 0.04082349 0.00950130 0.00400000
v 0.05217730 0.01053445 0.00400000
v 0.02473290 0.00267313 0.00400000
v 0.03410730 0.00744870 0.00400000
v 0.03410730 0.01053445 0.00400000
v 0.03811833 0.00949202 0.00400000
v 0.04188859 0.00860750 0.00400000
v 0.04243632 0.00732949 0.00400000
v 0.05500000 0.00000000 0.00400000
v 0.04243632 0.00000000 0.00400000
v 0.04243632 -0.00732949 0.00400000
v 0.02372428 0.00183883 0.00400000
v 0.02254011 0.01053445 0.00400000
v 0.02316692 0.00065448 0.00400000
v 0.02254011 0.00000000 0.00400000
v 0.02316692 -0.00000000 0.00400000
v 0.02254011 -0.01053445 0.00400000
v 0.02372428 -0.00183883 0.00400000
v 0.02316692 -0.00065448 0.00400000
v 0.03946980 -0.00981888 0.00400000
v 0.03811833 -0.00949202 0.00400000
v 0.03410730 -0.01053445 0.00400000
v 0.03410730 -0.00744870 0.00400000
v 0.02473290 -0.00267313 0.00400000
v -0.04056922 0.02226795 0.00400000
v -0.04156922 0.02200000 0.00400000
v -0.04331693 0.01979932 0.00400000
v -0.04256922 0.02226795 0.00400000
v -0.04330127 0.02300000 0.00400000
v -0.04331693 0.02305843 0.00400000
v -0.04331693 0.03181447 0.00400000
v -0.04256922 0.02573205 0.00400000
v -0.04156922 0.02600000 0.00400000
v -0.04056922 0.02573205 0.00400000
v -0.03983717 0.02500000 0.00400000
v -0.03956922 0.02400000 0.00400000
v -0.03983717 0.02300000 0.00400000
v -0.04969479 0.01979932 0.00400000
v -0.04356922 0.02400000 0.00400000
v -0.04763140 0.02750000 0.00400000
v -0.04331693 0.02494157 0.00400000
v -0.04330127 0.02500000 0.00400000
v 0.01348998 0.04058034 0.00400000
v 0.01411779 0.05121715 0.00400000
v 0.01218338 0.04010483 0.00400000
v 0.00627366 0.05331898 0.00400000
v 0.01123150 0.03909129 0.00400000
v 0.01005145 0.02275588 0.00400000
v 0.01060488 0.03330011 0.00400000
v 0.00627366 0.03330011 0.00400000
v 0.01083883 0.03775745 0.00400000
v 0.01204041 0.01979932 0.00400000
v 0.01101667 0.02039038 0.00400000
v 0.00627366 0.01979932 0.00400000
v 0.01026966 0.02146524 0.00400000
v 0.01468144 0.02008275 0.00400000
v 0.01411779 0.01987309 0.00400000
v 0.01411779 0.01979932 0.00400000
v 0.01391946 0.01979932 0.00400000
v 0.01411779 0.01667432 0.00400000
v 0.01345461 0.01962641 0.00400000
v 0.03410730 0.03330011 0.00400000
v 0.02719516 0.03330011 0.00400000
v 0.02756568 0.03308618 0.00400000
v 0.02839861 0.03197283 0.00400000
v 0.02864011 0.03060353 0.00400000
v 0.03410730 0.01979932 0.00400000
v 0.02823830 0.02927241 0.00400000
v -0.01823557 0.01341506 0.00400000
v -0.01732051 0.01250000 0.00400000
v -0.02165063 0.01250000 0.00400000
v -0.02073557 0.01341506 0.00400000
v -0.02254011 0.01667432 0.00400000
v -0.02198557 0.01125000 0.00400000
v -0.02179384 0.01053445 0.00400000
v -0.01948557 0.01375000 0.00400000
v -0.02165063 0.01000000 0.00400000
v -0.02073557 0.00908494 0.00400000
v -0.01698557 0.01125000 0.00400000
v -0.01717730 0.01053445 0.00400000
v -0.01732051 0.01000000 0.00400000
v -0.01411779 0.00000000 0.00400000
v -0.01823557 0.00908494 0.00400000
v -0.01948557 0.00875000 0.00400000
v 0.00250000 -0.02250000 0.00400000
v 0.00225000 -0.02343301 0.00400000
v -0.00216506 -0.02125000 0.00400000
v -0.00125000 -0.02033494 0.00400000
v 0.00000000 -0.02000000 0.00400000
v 0.00125000 -0.02033494 0.00400000
v 0.00216506 -0.02375000 0.00400000
v 0.00225000 -0.03330011 0.00400000
v 0.00627366 -0.03330011 0.00400000
v 0.01060488 -0.03330011 0.00400000
v 0.00125000 -0.02466506 0.00400000
v 0.00000000 -0.02500000 0.00400000
v -0.00125000 -0.02466506 0.00400000
v 0.01698557 0.01125000 0.00400000
v 0.01732051 0.01250000 0.00400000
v 0.01823557 0.01341506 0.00400000
v 0.01948557 0.01375000 0.00400000
v 0.02254011 0.01667432 0.00400000
v 0.02073557 0.01341506 0.00400000
v 0.02165063 0.01250000 0.00400000
v 0.01717730 0.01053445 0.00400000
v 0.01411779 0.01053445 0.00400000
v 0.00627366 0.01667432 0.00400000
v 0.01215025 0.01973590 0.00400000
v 0.02198557 0.01125000 0.00400000
v 0.02179384 0.01053445 0.00400000
v 0.02165063 0.01000000 0.00400000
v 0.02073557 0.00908494 0.00400000
v 0.01948557 0.00875000 0.00400000
v 0.01411779 0.00000000 0.00400000
v 0.01823557 0.00908494 0.00400000
v 0.01732051 0.01000000 0.00400000
v 0.00627366 0.00909412 0.00400000
v 0.00627366 0.01053445 0.00400000
v 0.00562500 0.00974279 0.00400000
v 0.00267048 0.01053445 0.00400000
v -0.00225000 0.01064711 0.00400000
v -0.00000000 0.01125000 0.00400000
v 0.00225000 0.01667432 0.00400000
v -0.00562500 -0.00974279 0.00400000
v -0.00974279 -0.00562500 0.00400000
v -0.01125000 0.00000000 0.00400000
v -0.00974279 0.00562500 0.00400000
v -0.01215025 -0.01973590 0.00400000
v -0.00225000 -0.01064711 0.00400000
v 0.00000000 -0.01125000 0.00400000
v 0.00225000 -0.01064711 0.00400000
v 0.00974279 0.00562500 0.00400000
v 0.01125000 0.00000000 0.00400000
v 0.00974279 -0.00562500 0.00400000
v 0.00627366 -0.00909412 0.00400000
v 0.04969479 -0.01979932 0.00400000
v 0.03183129 -0.04330010 0.00400000
v 0.03410730 -0.04102410 0.00400000
v 0.04183129 -0.03330011 0.00400000
v 0.04156922 -0.02600000 0.00400000
v 0.04056922 -0.02573205 0.00400000
v 0.03983717 -0.02500000 0.00400000
v 0.03956922 -0.02400000 0.00400000
v 0.03983717 -0.02300000 0.00400000
v 0.04256922 -0.02226795 0.00400000
v 0.04156922 -0.02200000 0.00400000
v 0.04056922 -0.02226795 0.00400000
v 0.04330127 -0.02300000 0.00400000
v 0.04356922 -0.02400000 0.00400000
v 0.04763140 -0.02750000 0.00400000
v 0.04330127 -0.02500000 0.00400000
v 0.04256922 -0.02573205 0.00400000
v 0.02254011 -0.04896040 0.00400000
v 0.02750000 -0.04763140 0.00400000
v -0.00000000 -0.04600000 0.00400000
v 0.00100000 -0.04626795 0.00400000
v 0.02756568 -0.03308618 0.00400000
v 0.01411779 -0.05121715 0.00400000
v 0.00627366 -0.05331898 0.00400000
v 0.00225000 -0.05439711 0.00400000
v -0.00225000 -0.05439711 0.00400000
v -0.00173205 -0.04900000 0.00400000
v -0.00200000 -0.04800000 0.00400000
v -0.00173205 -0.04700000 0.00400000
v -0.00100000 -0.04626795 0.00400000
v 0.00173205 -0.04900000 0.00400000
v 0.00100000 -0.04973205 0.00400000
v 0.00000000 -0.05500000 0.00400000
v -0.00000000 -0.05000000 0.00400000
v -0.00100000 -0.04973205 0.00400000
v -0.01411779 -0.05121715 0.00400000
v -0.02254011 -0.04330010 0.00400000
v -0.02254011 -0.04896040 0.00400000
v -0.03183129 -0.04330010 0.00400000
v -0.02750000 -0.04763140 0.00400000
v -0.04331693 -0.01979932 0.00400000
v -0.04331693 -0.02305843 0.00400000
v -0.04330127 -0.02300000 0.00400000
v -0.04183129 -0.03330011 0.00400000
v -0.04156922 -0.02600000 0.00400000
v -0.04331693 -0.03181447 0.00400000
v -0.04256922 -0.02573205 0.00400000
v -0.04256922 -0.02226795 0.00400000
v -0.04156922 -0.02200000 0.00400000
v -0.04056922 -0.02226795 0.00400000
v -0.03983717 -0.02300000 0.00400000
v -0.03956922 -0.02400000 0.00400000
v -0.03983717 -0.02500000 0.00400000
v -0.04056922 -0.02573205 0.00400000
v -0.01411779 -0.04050546 0.00400000
v -0.01487064 -0.04041567 0.00400000
v -0.02254011 -0.03598770 0.00400000
v -0.03410730 -0.04102410 0.00400000
v -0.04331693 -0.02494157 0.00400000
v -0.04356922 -0.02400000 0.00400000
v -0.04969479 -0.01979932 0.00400000
v -0.04330127 -0.02500000 0.00400000
v -0.04763140 -0.02750000 0.00400000
v -0.05217730 -0.01053445 0.00400000
v -0.05500000 0.00000000 0.00400000
v -0.05217730 0.01053445 0.00400000
v -0.04331693 0.01667432 0.00400000
v -0.05053213 0.01667432 0.00400000
v 0.00200000 0.04800000 0.00400000
v 0.00173205 0.04700000 0.00400000
v 0.00225000 0.03330011 0.00400000
v -0.00200000 0.04800000 0.00400000
v -0.00173205 0.04700000 0.00400000
v -0.00173205 0.04900000 0.00400000
v -0.00100000 0.04973205 0.00400000
v -0.00000000 0.05500000 0.00400000
v -0.00000000 0.05000000 0.00400000
v 0.00225000 0.05439711 0.00400000
v 0.00100000 0.04973205 0.00400000
v 0.00173205 0.04900000 0.00400000
v 0.00100000 0.04626795 0.00400000
v 0.00000000 0.04600000 0.00400000
v -0.00100000 0.04626795 0.00400000
v 0.04330127 0.02300000 0.00400000
v 0.04256922 0.02226795 0.00400000
v 0.04969479 0.01979932 0.00400000
v 0.04156922 0.02200000 0.00400000
v 0.04056922 0.02226795 0.00400000
v 0.03983717 0.02300000 0.00400000
v 0.03956922 0.02400000 0.00400000
v 0.03983717 0.02500000 0.00400000
v 0.04056922 0.02573205 0.00400000
v 0.01411779 0.04050546 0.00400000
v 0.01487064 0.04041567 0.00400000
v 0.02254011 0.04896040 0.00400000
v 0.02254011 0.03598770 0.00400000
v 0.02750000 0.04763140 0.00400000
v 0.03410730 0.04102410 0.00400000
v 0.04183129 0.03330011 0.00400000
v 0.04156922 0.02600000 0.00400000
v 0.04256922 0.02573205 0.00400000
v 0.04763140 0.02750000 0.00400000
v 0.04330127 0.02500000 0.00400000
v 0.04356922 0.02400000 0.00400000
v 0.05053213 0.01667432 0.00400000
v 0.03410730 0.01667432 0.00400000
v 0.00125000 0.02466506 0.00400000
v 0.00216506 0.02375000 0.00400000
v 0.00225000 0.02343301 0.00400000
v -0.00216506 0.02375000 0.00400000
v -0.00125000 0.02466506 0.00400000
v -0.00000000 0.02500000 0.00400000
v 0.00250000 0.02250000 0.00400000
v 0.00225000 0.02156699 0.00400000
v 0.00225000 0.01979932 0.00400000
v 0.00216506 0.02125000 0.00400000
v 0.00125000 0.02033494 0.00400000
v 0.00000000 0.02000000 0.00400000
v -0.00125000 0.02033494 0.00400000
v 0.02179384 -0.01053445 0.00400000
v 0.02198557 -0.01125000 0.00400000
v 0.01732051 -0.01250000 0.00400000
v 0.01698557 -0.01125000 0.00400000
v 0.02165063 -0.01250000 0.00400000
v 0.02073557 -0.01341506 0.00400000
v 0.01948557 -0.01375000 0.00400000
v 0.01823557 -0.01341506 0.00400000
v 0.02165063 -0.01000000 0.00400000
v 0.02073557 -0.00908494 0.00400000
v 0.01717730 -0.01053445 0.00400000
v 0.01732051 -0.01000000 0.00400000
v 0.01823557 -0.00908494 0.00400000
v 0.01948557 -0.00875000 0.00400000
v -0.02073557 -0.01341506 0.00400000
v -0.02165063 -0.01250000 0.00400000
v -0.01717730 -0.01053445 0.00400000
v -0.01698557 -0.01125000 0.00400000
v -0.01732051 -0.01250000 0.00400000
v -0.01823557 -0.01341506 0.00400000
v -0.01948557 -0.01375000 0.00400000
v -0.02165063 -0.01000000 0.00400000
v -0.02073557 -0.00908494 0.00400000
v -0.01948557 -0.00875000 0.00400000
v -0.01823557 -0.00908494 0.00400000
v -0.01732051 -0.01000000 0.00400000
v 0.00225000 0.01064711 0.00400000
v -0.03410730 0.01667432 0.00400000
v 0.04188859 -0.00860750 0.00400000
v 0.04188859 -0.00860750 0.00000000
v 0.04082349 -0.00950130 0.00400000
v 0.04082349 -0.00950130 0.00000000
v 0.03946980 -0.00981888 0.00400000
v 0.03946980 -0.00981888 0.00000000
v 0.03811833 -0.00949202 0.00400000
v 0.03811833 -0.00949202 0.00000000
v -0.04356922 -0.02400000 0.00400000
v -0.04356922 -0.02400000 0.00000000
v -0.04330127 -0.02300000 0.00400000
v -0.04330127 -0.02300000 0.00000000
v -0.04256922 -0.02226795 0.00400000
v -0.04256922 -0.02226795 0.00000000
v -0.04156922 -0.02200000 0.00400000
v -0.04156922 -0.02200000 0.00000000
v -0.04056922 -0.02226795 0.00400000
v -0.04056922 -0.02226795 0.00000000
v -0.03983717 -0.02300000 0.00400000
v -0.03983717 -0.02300000 0.00000000
v -0.03956922 -0.02400000 0.00400000
v -0.03956922 -0.02400000 0.00000000
v -0.03983717 -0.02500000 0.00400000
v -0.03983717 -0.02500000 0.00000000
v -0.04056922 -0.02573205 0.00400000
v -0.04056922 -0.02573205 0.00000000
v -0.04156922 -0.02600000 0.00400000
v -0.04156922 -0.02600000 0.00000000
v -0.04256922 -0.02573205 0.00400000
v -0.04256922 -0.02573205 0.00000000
v -0.04330127 -0.02500000 0.00400000
v -0.04330127 -0.02500000 0.00000000
v -0.01468144 0.02008275 0.00000000
v -0.02727950 0.02826543 0.00000000
v -0.01468144 0.02008275 0.00400000
v -0.02727950 0.02826543 0.00400000
v 0.02473290 0.00267313 0.00000000
v 0.02473290 0.00267313 0.00400000
v 0.02372428 0.00183883 0.00000000
v 0.02372428 0.00183883 0.00400000
v 0.02316692 0.00065448 0.00000000
v 0.02316692 0.00065448 0.00400000
v 0.02316692 -0.00065448 0.00000000
v 0.02316692 -0.00065448 0.00400000
v 0.02372428 -0.00183883 0.00000000
v 0.02372428 -0.00183883 0.00400000
v 0.02473290 -0.00267313 0.00000000
v 0.02473290 -0.00267313 0.00400000
v -0.05500000 0.00000000 0.00000000
v -0.04763140 0.02750000 0.00400000
v -0.04763140 0.02750000 0.00000000
v -0.02750000 0.04763140 0.00400000
v -0.02750000 0.04763140 0.00000000
v -0.00000000 0.05500000 0.00400000
v -0.00000000 0.05500000 0.00000000
v 0.02750000 0.04763140 0.00400000
v 0.02750000 0.04763140 0.00000000
v 0.04763140 0.02750000 0.00400000
v 0.04763140 0.02750000 0.00000000
v 0.05500000 0.00000000 0.00400000
v 0.05500000 0.00000000 0.00000000
v 0.04763140 -0.02750000 0.00400000
v 0.04763140 -0.02750000 0.00000000
v 0.02750000 -0.04763140 0.00400000
v 0.02750000 -0.04763140 0.00000000
v 0.00000000 -0.05500000 0.00400000
v 0.00000000 -0.05500000 0.00000000
v -0.02750000 -0.04763140 0.00400000
v -0.02750000 -0.04763140 0.00000000
v -0.04763140 -0.02750000 0.00400000
v -0.04763140 -0.02750000 0.00000000
v -0.05500000 0.00000000 0.00400000
v -0.04356922 0.02400000 0.00400000
v -0.04356922 0.02400000 0.00000000
v -0.04330127 0.02500000 0.00400000
v -0.04330127 0.02500000 0.00000000
v -0.04256922 0.02573205 0.00400000
v -0.04256922 0.02573205 0.00000000
v -0.04156922 0.02600000 0.00400000
v -0.04156922 0.02600000 0.00000000
v -0.04056922 0.02573205 0.00400000
v -0.04056922 0.02573205 0.00000000
v -0.03983717 0.02500000 0.00400000
v -0.03983717 0.02500000 0.00000000
v -0.03956922 0.02400000 0.00400000
v -0.03956922 0.02400000 0.00000000
v -0.03983717 0.02300000 0.00400000
v -0.03983717 0.02300000 0.00000000
v -0.04056922 0.02226795 0.00400000
v -0.04056922 0.02226795 0.00000000
v -0.04156922 0.02200000 0.00400000
v -0.04156922 0.02200000 0.00000000
v -0.04256922 0.02226795 0.00400000
v -0.04256922 0.02226795 0.00000000
v -0.04330127 0.02300000 0.00400000
v -0.04330127 0.02300000 0.00000000
v -0.01083883 0.03775745 0.00000000
v -0.01005145 0.02275588 0.00000000
v -0.01083883 0.03775745 0.00400000
v -0.01005145 0.02275588 0.00400000
v 0.03811833 0.00949202 0.00400000
v 0.03811833 0.00949202 0.00000000
v 0.03946980 0.00981888 0.00400000
v 0.03946980 0.00981888 0.00000000
v 0.04082349 0.00950130 0.00400000
v 0.04082349 0.00950130 0.00000000
v 0.04188859 0.00860750 0.00400000
v 0.04188859 0.00860750 0.00000000
v -0.01125000 0.00000000 0.00400000
v -0.01125000 0.00000000 0.00000000
v -0.00974279 0.00562500 0.00400000
v -0.00974279 0.00562500 0.00000000
v -0.00562500 0.00974279 0.00400000
v -0.00562500 0.00974279 0.00000000
v -0.00000000 0.01125000 0.00400000
v -0.00000000 0.01125000 0.00000000
v 0.00562500 0.00974279 0.00400000
v 0.00562500 0.00974279 0.00000000
v 0.00974279 0.00562500 0.00400000
v 0.00974279 0.00562500 0.00000000
v 0.01125000 0.00000000 0.00400000
v 0.01125000 0.00000000 0.00000000
v 0.00974279 -0.00562500 0.00400000
v 0.00974279 -0.00562500 0.00000000
v 0.00562500 -0.00974279 0.00400000
v 0.00562500 -0.00974279 0.00000000
v 0.00000000 -0.01125000 0.00400000
v 0.00000000 -0.01125000 0.00000000
v -0.00562500 -0.00974279 0.00400000
v -0.00562500 -0.00974279 0.00000000
v -0.00974279 -0.00562500 0.00400000
v -0.00974279 -0.00562500 0.00000000
v 0.02473290 0.00267313 0.00000000
v 0.03811833 0.00949202 0.00000000
v 0.02473290 0.00267313 0.00400000
v 0.03811833 0.00949202 0.00400000
v -0.01487064 0.04041567 0.00400000
v -0.01487064 0.04041567 0.00000000
v 0.01083883 0.03775745 0.00400000
v 0.01083883 0.03775745 0.00000000
v 0.01123150 0.03909129 0.00400000
v 0.01123150 0.03909129 0.00000000
v 0.01218338 0.04010483 0.00400000
v 0.01218338 0.04010483 0.00000000
v 0.01348998 0.04058034 0.00400000
v 0.01348998 0.04058034 0.00000000
v -0.00250000 0.02250000 0.00400000
v -0.00250000 0.02250000 0.00000000
v -0.00216506 0.02375000 0.00400000
v -0.00216506 0.02375000 0.00000000
v -0.00125000 0.02466506 0.00400000
v -0.00125000 0.02466506 0.00000000
v -0.00000000 0.02500000 0.00400000
v -0.00000000 0.02500000 0.00000000
v 0.00125000 0.02466506 0.00400000
v 0.00125000 0.02466506 0.00000000
v 0.00216506 0.02375000 0.00400000
v 0.00216506 0.02375000 0.00000000
v 0.00250000 0.02250000 0.00400000
v 0.00250000 0.02250000 0.00000000
v 0.00216506 0.02125000 0.00400000
v 0.00216506 0.02125000 0.00000000
v 0.00125000 0.02033494 0.00400000
v 0.00125000 0.02033494 0.00000000
v 0.00000000 0.02000000 0.00400000
v 0.00000000 0.02000000 0.00000000
v -0.00125000 0.02033494 0.00400000
v -0.00125000 0.02033494 0.00000000
v -0.00216506 0.02125000 0.00400000
v -0.00216506 0.02125000 0.00000000
v 0.03811833 -0.00949202 0.00000000
v 0.02473290 -0.00267313 0.00000000
v 0.03811833 -0.00949202 0.00400000
v 0.02473290 -0.00267313 0.00400000
v -0.01348998 0.04058034 0.00400000
v -0.01348998 0.04058034 0.00000000
v -0.01218338 0.04010483 0.00400000
v -0.01218338 0.04010483 0.00000000
v -0.01123150 0.03909129 0.00400000
v -0.01123150 0.03909129 0.00000000
v -0.01083883 0.03775745 0.00400000
v -0.01083883 0.03775745 0.00000000
v 0.01005145 0.02275588 0.00000000
v 0.01005145 0.02275588 0.00400000
v 0.01026966 0.02146524 0.00000000
v 0.01026966 0.02146524 0.00400000
v 0.01101667 0.02039038 0.00000000
v 0.01101667 0.02039038 0.00400000
v 0.01215025 0.01973590 0.00000000
v 0.01215025 0.01973590 0.00400000
v 0.01345461 0.01962641 0.00000000
v 0.01345461 0.01962641 0.00400000
v 0.01468144 0.02008275 0.00000000
v 0.01468144 0.02008275 0.00400000
f 1 2 3
f 2 4 3
f 3 4 5
f 4 6 5
f 5 6 7
f 6 8 7
f 7 8 9
f 8 10 9
f 9 10 11
f 10 12 11
f 11 12 13
f 12 14 13
f 13 14 15
f 14 16 15
f 15 16 17
f 16 18 17
f 17 18 19
f 18 20 19
f 19 20 21
f 20 22 21
f 21 22 23
f 22 24 23
f 23 24 1
f 24 2 1
f 25 26 27
f 26 28 27
f 29 30 31
f 30 32 31
f 31 32 33
f 32 34 33
f 33 34 35
f 34 36 35
f 35 36 37
f 36 38 37
f 39 40 41
f 40 42 41
f 41 42 43
f 42 44 43
f 43 44 45
f 44 46 45
f 45 46 47
f 46 48 47
f 47 48 49
f 48 50 49
f 49 50 51
f 50 52 51
f 51 52 53
f 52 54 53
f 53 54 55
f 54 56 55
f 55 56 57
f 56 58 57
f 57 58 59
f 58 60 59
f 59 60 61
f 60 62 61
f 61 62 39
f 62 40 39
f 63 64 65
f 64 66 65
f 67 68 69
f 68 70 69
f 69 70 71
f 70 72 71
f 71 72 73
f 72 74 73
f 73 74 75
f 74 76 75
f 75 76 77
f 76 78 77
f 79 80 81
f 80 82 81
f 81 82 83
f 82 84 83
f 83 84 85
f 84 86 85
f 85 86 87
f 86 88 87
f 89 90 91
f 90 92 91
f 91 92 93
f 92 94 93
f 93 94 95
f 94 96 95
f 95 96 97
f 96 98 97
f 97 98 99
f 98 100 99
f 99 100 101
f 100 102 101
f 101 102 103
f 102 104 103
f 103 104 105
f 104 106 105
f 105 106 107
f 106 108 107
f 107 108 109
f 108 110 109
f 109 110 111
f 110 112 111
f 111 112 89
f 112 90 89
f 113 114 115
f 114 116 115
f 117 118 119
f 118 120 119
f 119 120 121
f 120 122 121
f 121 122 123
f 122 124 123
f 123 124 125
f 124 126 125
f 127 128 129
f 128 130 129
f 129 130 131
f 130 132 131
f 131 132 133
f 132 134 133
f 133 134 135
f 134 136 135
f 135 136 137
f 136 138 137
f 137 138 139
f 138 140 139
f 139 140 141
f 140 142 141
f 141 142 143
f 142 144 143
f 143 144 145
f 144 146 145
f 145 146 147
f 146 148 147
f 147 148 149
f 148 150 149
f 149 150 127
f 150 128 127
f 151 152 153
f 152 154 153
f 155 156 157
f 156 158 157
f 157 158 159
f 158 160 159
f 159 160 161
f 160 162 161
f 161 162 163
f 162 164 163
f 163 164 165
f 164 166 165
f 167 168 169
f 168 170 169
f 169 170 171
f 170 172 171
f 171 172 173
f 172 174 173
f 173 174 175
f 174 176 175
f 175 176 177
f 176 178 177
f 177 178 179
f 178 180 179
f 179 180 181
f 180 182 181
f 181 182 183
f 182 184 183
f 183 184 185
f 184 186 185
f 185 186 187
f 186 188 187
f 187 188 189
f 188 190 189
f 189 190 167
f 190 168 167
f 191 192 193
f 192 194 193
f 195 196 197
f 196 198 197
f 197 198 199
f 198 200 199
f 199 200 201
f 200 202 201
f 201 202 203
f 202 204 203
f 205 206 207
f 206 208 207
f 207 208 209
f 208 210 209
f 209 210 211
f 210 212 211
f 211 212 213
f 212 214 213
f 213 214 215
f 214 216 215
f 215 216 217
f 216 218 217
f 217 218 219
f 218 220 219
f 219 220 221
f 220 222 221
f 221 222 223
f 222 224 223
f 223 224 225
f 224 226 225
f 225 226 227
f 226 228 227
f 227 228 205
f 228 206 205
f 229 230 231
f 230 232 231
f 233 234 235
f 234 236 235
f 235 236 237
f 236 238 237
f 237 238 239
f 238 240 239
f 239 240 241
f 240 242 241
f 243 244 245
f 244 246 245
f 245 246 247
f 246 248 247
f 247 248 249
f 248 250 249
f 249 250 251
f 250 252 251
f 251 252 253
f 252 254 253
f 253 254 255
f 254 256 255
f 255 256 257
f 256 258 257
f 257 258 259
f 258 260 259
f 259 260 261
f 260 262 261
f 261 262 263
f 262 264 263
f 263 264 265
f 264 266 265
f 265 266 243
f 266 244 243
f 267 268 233
f 268 234 233
f 269 270 271
f 270 272 271
f 271 272 273
f 272 274 273
f 273 274 275
f 274 276 275
f 275 276 277
f 276 278 277
f 277 278 279
f 278 280 279
f 281 282 283
f 282 284 283
f 285 286 287
f 286 288 287
f 289 290 291
f 290 292 291
f 291 292 293
f 292 294 293
f 293 294 295
f 294 296 295
f 295 296 267
f 296 268 267
f 297 298 79
f 298 80 79
f 299 300 301
f 300 302 301
f 153 154 303
f 154 304 303
f 303 304 305
f 304 306 305
f 305 306 307
f 306 308 307
f 307 308 309
f 308 310 309
f 311 312 313
f 312 314 313
f 203 204 29
f 204 30 29
f 315 316 317
f 316 318 317
f 317 318 319
f 318 320 319
f 319 320 321
f 320 322 321
f 321 322 323
f 322 324 323
f 323 324 325
f 324 326 325
f 327 328 329
f 328 330 329
f 329 330 331
f 330 332 331
f 331 332 333
f 332 334 333
f 333 334 335
f 334 336 335
f 335 336 337
f 336 338 337
f 337 338 339
f 338 340 339
f 339 340 341
f 340 342 341
f 341 342 343
f 342 344 343
f 343 344 345
f 344 346 345
f 345 346 347
f 346 348 347
f 347 348 349
f 348 350 349
f 349 350 327
f 350 328 327
f 351 352 353
f 354 355 356
f 357 358 359
f 360 361 362
f 363 364 365
f 366 367 368
f 369 370 371
f 372 373 374
f 375 376 377
f 378 379 380
f 381 382 383
f 382 384 383
f 383 384 385
f 384 386 385
f 368 367 387
f 388 389 390
f 389 391 390
f 390 391 392
f 387 367 393
f 367 394 393
f 393 394 395
f 396 397 398
f 397 399 398
f 400 401 402
f 402 403 400
f 403 404 400
f 400 404 405
f 404 406 405
f 406 407 405
f 405 407 399
f 407 408 399
f 399 408 398
f 409 410 411
f 410 412 411
f 411 412 413
f 413 414 358
f 414 415 358
f 416 417 418
f 417 419 418
f 418 419 409
f 419 420 409
f 409 420 410
f 416 365 421
f 365 364 421
f 421 364 422
f 380 379 423
f 379 424 423
f 423 424 425
f 425 424 373
f 424 426 373
f 373 426 374
f 426 427 374
f 374 427 422
f 428 429 430
f 428 430 431
f 430 432 431
f 431 432 433
f 377 376 432
f 376 434 432
f 432 434 433
f 359 358 435
f 436 437 438
f 437 439 438
f 438 439 440
f 441 442 443
f 443 444 441
f 444 445 441
f 441 445 439
f 445 446 439
f 439 446 440
f 447 448 442
f 448 449 442
f 442 449 443
f 450 451 452
f 451 453 452
f 452 453 454
f 453 455 454
f 455 456 454
f 454 456 457
f 456 458 457
f 457 458 447
f 436 459 437
f 459 460 437
f 437 460 461
f 460 462 461
f 461 462 452
f 462 463 452
f 452 463 450
f 464 465 466
f 465 467 466
f 466 467 468
f 467 469 468
f 468 469 470
f 471 472 473
f 474 475 476
f 475 477 476
f 477 478 476
f 476 478 479
f 478 480 479
f 479 480 481
f 480 482 481
f 481 482 483
f 484 485 409
f 416 418 365
f 418 486 365
f 365 486 487
f 485 488 409
f 488 489 409
f 409 489 418
f 489 490 418
f 418 490 486
f 491 492 493
f 492 476 493
f 493 476 494
f 487 495 365
f 495 496 365
f 365 496 479
f 496 497 479
f 479 497 476
f 497 498 476
f 476 498 494
f 499 500 501
f 500 502 501
f 503 504 505
f 423 506 380
f 506 507 380
f 380 507 505
f 507 508 505
f 505 508 503
f 509 502 510
f 510 511 509
f 511 512 509
f 509 512 374
f 512 513 374
f 374 513 372
f 514 515 516
f 517 518 519
f 514 516 520
f 516 521 520
f 520 521 522
f 517 519 522
f 523 524 441
f 524 525 441
f 441 525 442
f 525 526 442
f 526 527 442
f 527 528 442
f 442 528 529
f 528 530 529
f 529 530 514
f 530 531 514
f 514 531 515
f 532 533 534
f 533 535 534
f 535 536 534
f 534 536 537
f 536 538 537
f 539 540 541
f 542 543 442
f 447 442 457
f 442 543 457
f 457 543 544
f 540 545 541
f 545 546 541
f 541 546 529
f 546 547 529
f 529 547 442
f 547 548 442
f 442 548 542
f 371 370 549
f 370 550 549
f 549 550 551
f 552 390 395
f 390 392 395
f 395 392 393
f 552 553 390
f 553 554 390
f 390 554 371
f 554 555 371
f 371 555 369
f 556 557 558
f 557 559 558
f 558 559 368
f 559 560 368
f 368 560 366
f 509 561 562
f 502 509 501
f 509 562 501
f 501 562 563
f 422 364 374
f 364 564 374
f 374 564 509
f 564 565 509
f 509 565 561
f 566 567 481
f 567 568 481
f 481 568 479
f 568 569 479
f 479 569 365
f 569 570 365
f 365 570 363
f 483 464 481
f 464 466 481
f 481 466 566
f 466 571 566
f 572 573 571
f 573 574 571
f 571 574 566
f 575 576 572
f 576 577 572
f 572 577 573
f 562 578 563
f 578 579 563
f 563 579 514
f 579 580 514
f 514 580 529
f 580 581 529
f 529 581 541
f 581 582 541
f 541 582 583
f 582 584 583
f 583 584 585
f 586 587 588
f 587 589 588
f 588 589 590
f 589 591 590
f 586 592 587
f 592 593 587
f 587 593 594
f 593 595 594
f 594 595 596
f 595 597 596
f 598 599 600
f 599 601 600
f 600 601 589
f 601 602 589
f 589 602 591
f 597 598 596
f 598 600 596
f 596 600 603
f 600 604 603
f 605 606 607
f 606 608 607
f 607 608 609
f 605 610 606
f 610 611 606
f 606 611 612
f 611 613 612
f 612 613 614
f 360 362 614
f 614 362 612
f 362 558 612
f 612 558 615
f 616 617 383
f 617 368 383
f 383 368 381
f 368 387 381
f 617 618 368
f 618 619 368
f 368 619 558
f 619 620 558
f 558 620 621
f 615 622 623
f 622 624 623
f 623 624 383
f 624 625 383
f 383 625 616
f 621 626 558
f 626 627 558
f 558 627 615
f 627 628 615
f 615 628 622
f 629 630 631
f 632 633 634
f 633 635 634
f 634 635 405
f 635 636 405
f 636 637 405
f 637 638 405
f 405 638 400
f 638 639 400
f 400 639 640
f 631 641 629
f 641 642 629
f 629 642 643
f 386 644 385
f 644 645 385
f 385 645 646
f 645 647 646
f 646 647 648
f 647 401 648
f 648 401 649
f 401 400 649
f 649 400 630
f 400 640 630
f 630 640 631
f 632 634 650
f 634 651 650
f 650 651 652
f 652 651 643
f 651 653 643
f 643 653 629
f 654 655 656
f 655 657 656
f 658 659 660
f 659 661 660
f 660 661 662
f 661 663 662
f 662 663 664
f 663 665 664
f 664 665 666
f 665 667 666
f 666 667 357
f 413 358 411
f 358 668 411
f 411 668 669
f 667 670 357
f 670 671 357
f 357 671 358
f 671 672 358
f 358 672 668
f 669 673 411
f 673 674 411
f 411 674 660
f 674 675 660
f 660 675 658
f 676 677 435
f 678 430 679
f 430 680 679
f 415 681 358
f 681 375 358
f 358 375 435
f 375 377 435
f 435 377 676
f 377 432 676
f 676 432 682
f 432 430 682
f 682 430 683
f 430 678 683
f 678 684 683
f 684 685 683
f 683 685 686
f 685 687 686
f 686 687 688
f 689 690 691
f 690 692 691
f 691 692 430
f 692 693 430
f 430 693 680
f 687 694 688
f 694 695 688
f 688 695 689
f 689 691 688
f 691 696 688
f 688 696 697
f 697 698 699
f 698 700 699
f 699 700 701
f 700 702 701
f 701 702 703
f 704 705 355
f 705 706 355
f 355 706 356
f 706 707 356
f 707 708 356
f 356 708 709
f 708 710 709
f 709 710 711
f 710 712 711
f 711 712 713
f 713 714 711
f 714 715 711
f 711 715 716
f 715 717 716
f 716 717 718
f 608 604 609
f 604 600 609
f 609 600 719
f 600 720 719
f 589 721 722
f 722 723 589
f 723 724 589
f 589 724 600
f 724 725 600
f 600 725 720
f 726 727 728
f 727 729 728
f 728 729 721
f 729 730 721
f 721 730 722
f 731 732 575
f 575 732 537
f 733 734 549
f 733 549 735
f 556 558 551
f 558 362 551
f 551 362 549
f 362 361 549
f 549 361 735
f 736 737 698
f 737 738 698
f 698 738 700
f 738 739 700
f 700 739 702
f 739 740 702
f 702 740 354
f 697 696 698
f 696 741 698
f 698 741 736
f 742 743 696
f 743 744 696
f 696 744 741
f 745 746 501
f 746 747 501
f 501 747 748
f 504 499 505
f 499 501 505
f 505 501 749
f 501 748 749
f 745 501 750
f 501 563 750
f 750 563 751
f 563 514 751
f 751 514 752
f 514 520 752
f 752 520 753
f 522 519 520
f 519 754 520
f 520 754 753
f 755 756 355
f 756 716 355
f 355 716 704
f 716 718 704
f 354 740 355
f 740 757 355
f 355 757 755
f 756 758 716
f 758 759 716
f 716 759 519
f 759 760 519
f 519 760 754
f 761 762 763
f 761 763 764
f 763 765 764
f 764 765 766
f 766 767 764
f 767 654 764
f 764 654 768
f 654 656 768
f 769 770 476
f 770 473 476
f 476 473 474
f 473 472 474
f 770 771 473
f 771 772 473
f 473 772 761
f 772 773 761
f 761 773 762
f 353 352 492
f 352 774 492
f 774 775 492
f 492 775 476
f 775 776 476
f 476 776 769
f 351 353 777
f 353 655 777
f 777 655 778
f 767 779 654
f 779 780 654
f 654 780 655
f 780 781 655
f 655 781 778
f 429 378 430
f 378 380 430
f 430 380 691
f 380 505 691
f 691 505 696
f 505 749 696
f 696 749 742
f 749 748 742
f 518 523 519
f 523 441 519
f 519 441 716
f 441 439 716
f 716 439 711
f 439 437 711
f 662 657 660
f 657 655 660
f 660 655 411
f 655 353 411
f 411 353 409
f 353 492 409
f 409 492 484
f 492 491 484
f 544 532 457
f 532 534 457
f 457 534 454
f 534 782 454
f 454 782 452
f 782 783 452
f 585 576 583
f 576 575 583
f 583 575 541
f 575 537 541
f 541 537 539
f 537 538 539
f 768 784 764
f 784 785 764
f 764 785 761
f 785 786 761
f 761 786 473
f 786 468 473
f 473 468 471
f 468 470 471
f 732 726 537
f 726 728 537
f 537 728 534
f 728 721 534
f 534 721 782
f 721 589 782
f 782 589 783
f 589 587 783
f 787 788 466
f 788 388 466
f 466 388 571
f 388 390 571
f 571 390 572
f 390 371 572
f 572 371 575
f 371 549 575
f 575 549 731
f 549 734 731
f 784 651 785
f 651 634 785
f 785 634 786
f 634 405 786
f 786 405 468
f 405 399 468
f 468 399 466
f 399 397 466
f 466 397 787
f 397 396 787
f 789 790 791
f 790 792 791
f 791 792 793
f 792 794 793
f 793 794 795
f 794 796 795
f 795 796 151
f 796 152 151
f 797 798 799
f 798 800 799
f 799 800 801
f 800 802 801
f 801 802 803
f 802 804 803
f 803 804 805
f 804 806 805
f 805 806 807
f 806 808 807
f 807 808 809
f 808 810 809
f 809 810 811
f 810 812 811
f 811 812 813
f 812 814 813
f 813 814 815
f 814 816 815
f 815 816 817
f 816 818 817
f 817 818 819
f 818 820 819
f 819 820 797
f 820 798 797
f 821 822 823
f 824 825 826
f 827 828 829
f 830 831 832
f 833 834 835
f 836 837 838
f 839 840 841
f 842 843 844
f 845 846 847
f 848 849 850
f 851 852 853
f 854 855 856
f 855 857 856
f 856 857 858
f 853 852 857
f 852 859 857
f 857 859 858
f 829 828 860
f 853 860 851
f 860 828 851
f 851 828 861
f 828 862 861
f 863 864 865
f 864 866 865
f 865 866 828
f 866 867 828
f 828 867 862
f 868 869 870
f 871 872 873
f 872 874 873
f 873 874 875
f 874 876 875
f 875 876 877
f 878 879 880
f 879 881 880
f 880 881 882
f 881 883 882
f 882 883 884
f 884 883 825
f 883 885 825
f 825 885 826
f 885 886 826
f 826 886 877
f 887 888 889
f 890 891 892
f 891 893 892
f 892 893 894
f 895 896 897
f 896 898 897
f 897 898 899
f 895 900 896
f 900 901 896
f 896 901 890
f 901 902 890
f 890 902 891
f 903 904 905
f 905 906 823
f 906 907 823
f 823 907 898
f 907 908 898
f 898 908 899
f 909 910 911
f 910 912 911
f 911 912 903
f 912 913 903
f 903 913 904
f 914 915 916
f 916 917 914
f 917 918 914
f 914 918 919
f 920 921 915
f 921 922 915
f 915 922 916
f 923 924 925
f 924 926 925
f 926 927 925
f 925 927 928
f 927 929 928
f 841 840 923
f 930 931 932
f 931 933 932
f 923 840 934
f 840 935 934
f 934 935 936
f 937 938 939
f 939 938 940
f 941 942 943
f 942 919 943
f 943 919 944
f 919 918 944
f 945 946 947
f 945 947 948
f 947 949 948
f 949 950 948
f 948 950 951
f 850 849 945
f 849 952 945
f 945 952 946
f 953 954 955
f 955 956 953
f 956 957 953
f 953 957 958
f 957 959 958
f 958 959 960
f 961 962 963
f 962 964 963
f 963 964 954
f 964 965 954
f 954 965 955
f 961 966 967
f 966 835 967
f 968 969 970
f 969 971 970
f 970 971 972
f 973 974 975
f 976 977 978
f 979 980 981
f 980 982 981
f 981 982 976
f 977 983 978
f 983 984 978
f 978 984 985
f 984 986 985
f 985 986 975
f 986 987 975
f 975 987 973
f 988 989 990
f 989 991 990
f 990 991 992
f 993 994 991
f 994 995 991
f 991 995 992
f 996 997 998
f 997 999 998
f 998 999 993
f 999 1000 993
f 993 1000 994
f 1001 1002 1003
f 1002 1004 1003
f 1004 1005 1003
f 1003 1005 1006
f 1007 1008 827
f 1008 1009 827
f 827 1009 828
f 1009 1010 828
f 1010 1011 828
f 828 1011 865
f 1011 1012 865
f 865 1012 1013
f 1014 1015 1016
f 1015 1017 1016
f 1016 1017 1007
f 1017 1018 1007
f 1007 1018 1008
f 1019 1020 1021
f 1020 1022 1021
f 1021 1022 1023
f 1024 1025 1026
f 1025 1027 1026
f 1028 1029 1030
f 1029 1031 1030
f 1032 1033 1034
f 1033 1035 1034
f 1034 1035 1036
f 1035 1037 1036
f 1038 1039 1040
f 1040 1041 1038
f 1041 1042 1038
f 1038 1042 1043
f 1042 1044 1043
f 1045 1046 874
f 1047 1048 1049
f 1047 1049 1050
f 1049 911 1050
f 1050 911 1051
f 1045 874 1052
f 1051 911 1053
f 911 903 1053
f 1053 903 1054
f 1055 1056 838
f 1056 1057 838
f 838 1057 1058
f 1057 1059 1058
f 1058 1059 903
f 1059 1060 903
f 903 1060 1054
f 844 843 970
f 843 1061 970
f 970 1061 1062
f 1063 931 936
f 931 930 936
f 936 930 934
f 1063 1064 931
f 1064 1065 931
f 931 1065 844
f 1065 1066 844
f 844 1066 842
f 1067 1068 1062
f 1068 1069 1062
f 1062 1069 970
f 1069 1070 970
f 970 1070 968
f 1067 1071 1068
f 1071 1072 1068
f 1068 1072 841
f 1072 1073 841
f 841 1073 839
f 1074 1075 1036
f 1076 1077 1078
f 1077 1079 1078
f 1079 1080 1078
f 1078 1080 989
f 1081 1074 1082
f 1074 1036 1082
f 1082 1036 1083
f 1036 1037 1083
f 1083 1037 1084
f 1080 1085 989
f 1085 1086 989
f 989 1086 991
f 1086 1087 991
f 1087 1088 991
f 1088 1089 991
f 991 1089 1090
f 1089 1091 1090
f 1090 1091 1082
f 1091 1092 1082
f 1082 1092 1081
f 1093 1094 1095
f 1094 1096 1095
f 876 1097 1098
f 876 1098 1099
f 1097 876 837
f 876 874 837
f 837 874 838
f 874 1046 838
f 838 1046 1055
f 940 1100 939
f 1100 1101 939
f 939 1101 1058
f 1101 1102 1058
f 1058 1102 838
f 1102 1103 838
f 838 1103 836
f 938 1104 940
f 1104 933 940
f 940 933 1105
f 933 931 1105
f 1105 931 1106
f 931 844 1106
f 1106 844 1107
f 1107 844 834
f 844 970 834
f 834 970 835
f 970 972 835
f 835 972 967
f 1082 1108 1090
f 1108 1109 1090
f 1090 1109 966
f 1109 1110 966
f 966 1110 835
f 1110 1111 835
f 835 1111 833
f 953 1112 975
f 1113 1114 958
f 1114 1115 958
f 958 1115 1116
f 1116 1117 958
f 1117 1118 958
f 958 1118 953
f 1118 1119 953
f 953 1119 1120
f 1121 1112 1122
f 1112 953 1122
f 1122 953 1123
f 953 1120 1123
f 1121 1124 1112
f 1124 1125 1112
f 1112 1125 1126
f 1125 1127 1126
f 1126 1127 1115
f 1127 1128 1115
f 1115 1128 1116
f 1129 1130 1113
f 925 1131 832
f 1131 1132 832
f 832 1132 830
f 960 1133 958
f 1133 848 958
f 958 848 1113
f 848 850 1113
f 1113 850 1129
f 850 945 1129
f 1129 945 1134
f 945 948 1134
f 1134 948 1135
f 948 832 1135
f 1135 832 1136
f 832 831 1136
f 1137 1138 1139
f 1139 1140 925
f 1140 1141 925
f 925 1141 1131
f 831 1142 1136
f 1142 1143 1136
f 1136 1143 1144
f 1143 1145 1144
f 1144 1145 1137
f 1145 1146 1137
f 1137 1146 1138
f 1139 925 1137
f 925 928 1137
f 1137 928 1147
f 928 1148 1147
f 1147 1148 1149
f 1148 1150 1149
f 1149 1150 1151
f 1152 1153 1154
f 1155 1156 1157
f 1156 1158 1157
f 1154 1159 1152
f 1159 1160 1152
f 1152 1160 914
f 1160 1161 914
f 1161 1162 914
f 1162 1163 914
f 914 1163 915
f 1163 1164 915
f 915 1164 1165
f 929 1166 928
f 1166 1167 928
f 928 1167 1148
f 1167 1168 1148
f 1148 1168 1150
f 1168 920 1150
f 1150 920 1169
f 920 915 1169
f 1169 915 1155
f 915 1165 1155
f 1155 1165 1156
f 1170 1171 1172
f 1158 1173 1157
f 1173 1170 1157
f 1157 1170 1174
f 1170 1172 1174
f 1172 896 1175
f 896 890 1175
f 1175 890 1176
f 890 892 1176
f 1176 892 1177
f 892 1178 1177
f 1177 1178 1179
f 1178 1003 1179
f 1179 1003 1014
f 1003 1006 1014
f 1014 1006 1015
f 1180 1181 1182
f 854 878 855
f 878 880 855
f 855 880 1183
f 880 1184 1183
f 1183 1185 855
f 1185 1186 855
f 855 1186 1187
f 1186 1188 1187
f 1187 1188 1189
f 1188 1190 1189
f 1189 1190 1191
f 1181 1192 1182
f 1192 1193 1182
f 1182 1193 880
f 1193 1194 880
f 880 1194 1184
f 1189 1026 1022
f 1026 1027 1022
f 1022 1027 1023
f 1195 1196 1197
f 1196 1198 1197
f 1199 1200 1043
f 1200 1201 1043
f 1043 1201 1038
f 1201 1202 1038
f 1038 1202 1203
f 1019 1204 1020
f 1204 1205 1020
f 1020 1205 1206
f 1205 1207 1206
f 1206 1207 1208
f 1207 1039 1208
f 1208 1039 1209
f 1039 1038 1209
f 1209 1038 1210
f 1038 1203 1210
f 1203 1211 1210
f 1211 1212 1210
f 1210 1212 1213
f 1212 1214 1213
f 1213 1214 1197
f 1214 1215 1197
f 1197 1215 1195
f 976 978 981
f 978 1216 981
f 981 1216 1217
f 1216 1197 1217
f 1217 1197 1043
f 1197 1198 1043
f 1043 1198 1199
f 1191 1180 1189
f 1180 1182 1189
f 1189 1182 1026
f 1182 1030 1026
f 1026 1030 1024
f 1030 1031 1024
f 1218 1219 1182
f 1219 1220 1182
f 1182 1220 1030
f 882 1221 880
f 1221 1222 880
f 880 1222 1182
f 1222 1223 1182
f 1182 1223 1218
f 1220 1224 1030
f 1224 1225 1030
f 1030 1225 1226
f 1225 1227 1226
f 1227 1228 1226
f 1228 1229 1226
f 1226 1229 826
f 1229 1230 826
f 826 1230 824
f 993 1231 1232
f 961 963 966
f 963 1233 966
f 966 1233 1234
f 1235 1236 954
f 1236 1237 954
f 954 1237 963
f 1237 1238 963
f 963 1238 1233
f 1231 993 1239
f 993 991 1239
f 1239 991 1240
f 1234 1241 966
f 1241 1242 966
f 966 1242 1090
f 1242 1243 1090
f 1090 1243 991
f 1243 1244 991
f 991 1244 1240
f 1245 1246 919
f 1247 1248 939
f 1248 942 939
f 939 942 937
f 942 941 937
f 1248 1249 942
f 1249 1250 942
f 942 1250 919
f 1250 1251 919
f 919 1251 1245
f 905 823 903
f 823 822 903
f 903 822 1252
f 1252 1253 903
f 1253 1254 903
f 903 1254 1058
f 1254 1255 1058
f 1058 1255 939
f 1255 1256 939
f 939 1256 1247
f 846 1032 847
f 1032 1034 847
f 847 1034 1078
f 1034 1036 1078
f 1078 1036 1076
f 1036 1075 1076
f 877 876 826
f 876 1099 826
f 826 1099 1226
f 1099 1083 1226
f 1226 1083 1030
f 1083 1084 1030
f 1030 1084 1028
f 871 868 872
f 868 870 872
f 872 870 874
f 870 1049 874
f 874 1049 1052
f 1049 1048 1052
f 1044 845 1043
f 845 847 1043
f 1043 847 1217
f 847 1078 1217
f 1217 1078 981
f 1078 989 981
f 981 989 979
f 989 988 979
f 1098 1257 1099
f 1257 1096 1099
f 1099 1096 1083
f 1096 1094 1083
f 1083 1094 1082
f 1094 1093 1082
f 1082 1093 1108
f 869 863 870
f 863 865 870
f 870 865 1049
f 865 1258 1049
f 1049 1258 911
f 1258 889 911
f 911 889 909
f 889 888 909
f 1013 1001 865
f 1001 1003 865
f 865 1003 1258
f 1003 1178 1258
f 1258 1178 889
f 1178 892 889
f 889 892 887
f 892 894 887
f 974 996 975
f 996 998 975
f 975 998 953
f 998 993 953
f 953 993 954
f 993 1232 954
f 954 1232 1235
f 1171 1153 1172
f 1153 1152 1172
f 1172 1152 896
f 1152 914 896
f 896 914 898
f 914 919 898
f 898 919 823
f 919 1246 823
f 823 1246 821
f 923 925 841
f 925 832 841
f 841 832 1068
f 832 948 1068
f 1068 948 1069
f 948 951 1069
f 1069 951 1070
f 65 66 1259
f 66 1260 1259
f 1259 1260 1261
f 1260 1262 1261
f 1261 1262 1263
f 1262 1264 1263
f 1263 1264 1265
f 1264 1266 1265
f 1267 1268 1269
f 1268 1270 1269
f 1269 1270 1271
f 1270 1272 1271
f 1271 1272 1273
f 1272 1274 1273
f 1273 1274 1275
f 1274 1276 1275
f 1275 1276 1277
f 1276 1278 1277
f 1277 1278 1279
f 1278 1280 1279
f 1279 1280 1281
f 1280 1282 1281
f 1281 1282 1283
f 1282 1284 1283
f 1283 1284 1285
f 1284 1286 1285
f 1285 1286 1287
f 1286 1288 1287
f 1287 1288 1289
f 1288 1290 1289
f 1289 1290 1267
f 1290 1268 1267
f 1291 1292 1293
f 1292 1294 1293
f 1295 1296 1297
f 1296 1298 1297
f 1297 1298 1299
f 1298 1300 1299
f 1299 1300 1301
f 1300 1302 1301
f 1301 1302 1303
f 1302 1304 1303
f 1303 1304 1305
f 1304 1306 1305
f 1307 1308 1309
f 1308 1310 1309
f 1309 1310 1311
f 1310 1312 1311
f 1311 1312 1313
f 1312 1314 1313
f 1313 1314 1315
f 1314 1316 1315
f 1315 1316 1317
f 1316 1318 1317
f 1317 1318 1319
f 1318 1320 1319
f 1319 1320 1321
f 1320 1322 1321
f 1321 1322 1323
f 1322 1324 1323
f 1323 1324 1325
f 1324 1326 1325
f 1325 1326 1327
f 1326 1328 1327
f 1327 1328 1329
f 1328 1330 1329
f 1329 1330 1307
f 1330 1308 1307
f 1331 1332 1333
f 1332 1334 1333
f 1333 1334 1335
f 1334 1336 1335
f 1335 1336 1337
f 1336 1338 1337
f 1337 1338 1339
f 1338 1340 1339
f 1339 1340 1341
f 1340 1342 1341
f 1341 1342 1343
f 1342 1344 1343
f 1343 1344 1345
f 1344 1346 1345
f 1345 1346 1347
f 1346 1348 1347
f 1347 1348 1349
f 1348 1350 1349
f 1349 1350 1351
f 1350 1352 1351
f 1351 1352 1353
f 1352 1354 1353
f 1353 1354 1331
f 1354 1332 1331
f 1355 1356 1357
f 1356 1358 1357
f 1359 1360 1361
f 1360 1362 1361
f 1361 1362 1363
f 1362 1364 1363
f 1363 1364 1365
f 1364 1366 1365
f 1365 1366 63
f 1366 64 63
f 1367 1368 1369
f 1368 1370 1369
f 1369 1370 1371
f 1370 1372 1371
f 1371 1372 1373
f 1372 1374 1373
f 1373 1374 1375
f 1374 1376 1375
f 1375 1376 1377
f 1376 1378 1377
f 1377 1378 1379
f 1378 1380 1379
f 1379 1380 1381
f 1380 1382 1381
f 1381 1382 1383
f 1382 1384 1383
f 1383 1384 1385
f 1384 1386 1385
f 1385 1386 1387
f 1386 1388 1387
f 1387 1388 1389
f 1388 1390 1389
f 1389 1390 1367
f 1390 1368 1367
f 1391 1392 1393
f 1392 1394 1393
f 125 126 1395
f 126 1396 1395
f 1397 1398 1399
f 1398 1400 1399
f 1399 1400 1401
f 1400 1402 1401
f 1401 1402 1403
f 1402 1404 1403
f 1403 1404 297
f 1404 298 297
f 1405 1406 1407
f 1406 1408 1407
f 1407 1408 1409
f 1408 1410 1409
f 1409 1410 1411
f 1410 1412 1411
f 1411 1412 1413
f 1412 1414 1413
f 1413 1414 1415
f 1414 1416 1415
f 1415 1416 1417
f 1416 1418 1417
f 1417 1418 1419
f 1418 1420 1419
f 1419 1420 1421
f 1420 1422 1421
f 1421 1422 1423
f 1422 1424 1423
f 1423 1424 1425
f 1424 1426 1425
f 1425 1426 1427
f 1426 1428 1427
f 1427 1428 1405
f 1428 1406 1405
f 1429 1430 1431
f 1430 1432 1431
f 1395 1396 1433
f 1396 1434 1433
f 1433 1434 1435
f 1434 1436 1435
f 1435 1436 1437
f 1436 1438 1437
f 1437 1438 1439
f 1438 1440 1439
f 1441 1442 1443
f 1442 1444 1443
f 1443 1444 1445
f 1444 1446 1445
f 1445 1446 1447
f 1446 1448 1447
f 1447 1448 1449
f 1448 1450 1449
f 1449 1450 1451
f 1450 1452 1451

