# https://github.com/mikedh/trimesh
v -0.02320000 0.03159399 -0.19499019
v -0.02320000 0.03159393 -0.19699019
v -0.02299904 0.03234399 -0.19499022
v -0.02299904 0.03234393 -0.19699022
v -0.02245000 0.03289303 -0.19499023
v -0.02245000 0.03289296 -0.19699023
v -0.02170000 0.03309399 -0.19499024
v -0.02170000 0.03309393 -0.19699024
v -0.02095000 0.03289303 -0.19499023
v -0.02095000 0.03289296 -0.19699023
v -0.02040096 0.03234399 -0.19499022
v -0.02040096 0.03234393 -0.19699022
v -0.02020000 0.03159399 -0.19499019
v -0.02020000 0.03159393 -0.19699019
v -0.02040096 0.03084399 -0.19499017
v -0.02040096 0.03084393 -0.19699017
v -0.02095000 0.03029495 -0.19499015
v -0.02095000 0.03029489 -0.19699015
v -0.02170000 0.03009399 -0.19499015
v -0.02170000 0.03009393 -0.19699015
v -0.02245000 0.03029495 -0.19499015
v -0.02245000 0.03029489 -0.19699015
v -0.02299904 0.03084399 -0.19499017
v -0.02299904 0.03084393 -0.19699017
v -0.02670000 0.07059392 -0.19699140
v -0.02670000 0.03159393 -0.19699019
v -0.02670000 0.07059399 -0.19499140
v -0.02670000 0.03159399 -0.19499019
v -0.02320000 0.07059399 -0.19499140
v -0.02320000 0.07059392 -0.19699140
v -0.02299904 0.07134399 -0.19499142
v -0.02299904 0.07134393 -0.19699142
v -0.02245000 0.07189302 -0.19499144
v -0.02245000 0.07189296 -0.19699144
v -0.02170000 0.07209399 -0.19499144
v -0.02170000 0.07209392 -0.19699144
v -0.02095000 0.07189302 -0.19499144
v -0.02095000 0.07189296 -0.19699144
v -0.02040096 0.07134399 -0.19499142
v -0.02040096 0.07134393 -0.19699142
v -0.02020000 0.07059399 -0.19499140
v -0.02020000 0.07059392 -0.19699140
v -0.02040096 0.06984399 -0.19499137
v -0.02040096 0.06984393 -0.19699137
v -0.02095000 0.06929495 -0.19499136
v -0.02095000 0.06929489 -0.19699136
v -0.02170000 0.06909399 -0.19499135
v -0.02170000 0.06909393 -0.19699135
v -0.02245000 0.06929495 -0.19499136
v -0.02245000 0.06929489 -0.19699136
v -0.02299904 0.06984399 -0.19499137
v -0.02299904 0.06984393 -0.19699137
v 0.01680000 0.03159399 -0.19499019
v 0.01680000 0.03159393 -0.19699019
v 0.01700096 0.03234399 -0.19499022
v 0.01700096 0.03234393 -0.19699022
v 0.01755000 0.03289303 -0.19499023
v 0.01755000 0.03289296 -0.19699023
v 0.01830000 0.03309399 -0.19499024
v 0.01830000 0.03309393 -0.19699024
v 0.01905000 0.03289303 -0.19499023
v 0.01905000 0.03289296 -0.19699023
v 0.01959904 0.03234399 -0.19499022
v 0.01959904 0.03234393 -0.19699022
v 0.01980000 0.03159399 -0.19499019
v 0.01980000 0.03159393 -0.19699019
v 0.01959904 0.03084399 -0.19499017
v 0.01959904 0.03084393 -0.19699017
v 0.01905000 0.03029495 -0.19499015
v 0.01905000 0.03029489 -0.19699015
v 0.01830000 0.03009399 -0.19499015
v 0.01830000 0.03009393 -0.19699015
v 0.01755000 0.03029495 -0.19499015
v 0.01755000 0.03029489 -0.19699015
v 0.01700096 0.03084399 -0.19499017
v 0.01700096 0.03084393 -0.19699017
v -0.02020000 0.07059392 -0.19699140
v -0.02040096 0.07134393 -0.19699142
v 0.01755000 0.03289296 -0.19699023
v -0.02670000 0.03159393 -0.19699019
v -0.02670000 0.07059392 -0.19699140
v -0.02245000 0.03289296 -0.19699023
v -0.02299904 0.03084393 -0.19699017
v -0.02245000 0.03029489 -0.19699015
v -0.02370000 0.02859393 -0.19699010
v -0.02170000 0.03009393 -0.19699015
v -0.02095000 0.03029489 -0.19699015
v 0.02030000 0.02859393 -0.19699010
v -0.02520000 0.02899585 -0.19699011
v -0.02629808 0.03009393 -0.19699015
v -0.02320000 0.03159393 -0.19699019
v -0.02299904 0.03234393 -0.19699022
v -0.02040096 0.03234393 -0.19699022
v 0.01700096 0.03234393 -0.19699022
v 0.01905000 0.03289296 -0.19699023
v 0.02330000 0.07059392 -0.19699140
v 0.01959904 0.03234393 -0.19699022
v 0.02330000 0.03159393 -0.19699019
v 0.01980000 0.03159393 -0.19699019
v 0.02289808 0.03009393 -0.19699015
v 0.01959904 0.03084393 -0.19699017
v 0.02180000 0.02899585 -0.19699011
v 0.01905000 0.03029489 -0.19699015
v 0.01980000 0.07059392 -0.19699140
v 0.02289808 0.07209392 -0.19699144
v 0.01959904 0.07134393 -0.19699142
v 0.01700096 0.06984393 -0.19699137
v 0.01755000 0.06929489 -0.19699136
v 0.01830000 0.03309393 -0.19699024
v 0.01830000 0.06909393 -0.19699135
v 0.01905000 0.06929489 -0.19699136
v 0.01959904 0.06984393 -0.19699137
v 0.01905000 0.07189296 -0.19699144
v 0.02030000 0.07359393 -0.19699149
v 0.02180000 0.07319200 -0.19699148
v 0.01830000 0.07209392 -0.19699144
v 0.01755000 0.07189296 -0.19699144
v -0.02370000 0.07359393 -0.19699149
v 0.01700096 0.07134393 -0.19699142
v -0.02170000 0.07209392 -0.19699144
v -0.02245000 0.07189296 -0.19699144
v -0.02020000 0.03159393 -0.19699019
v 0.01680000 0.03159393 -0.19699019
v -0.02040096 0.03084393 -0.19699017
v 0.01700096 0.03084393 -0.19699017
v 0.01755000 0.03029489 -0.19699015
v 0.01830000 0.03009393 -0.19699015
v -0.02040096 0.06984393 -0.19699137
v -0.02095000 0.03289296 -0.19699023
v -0.02520000 0.07319200 -0.19699148
v -0.02299904 0.07134393 -0.19699142
v -0.02629808 0.07209392 -0.19699144
v -0.02320000 0.07059392 -0.19699140
v -0.02299904 0.06984393 -0.19699137
v -0.02245000 0.06929489 -0.19699136
v -0.02170000 0.03309393 -0.19699024
v -0.02170000 0.06909393 -0.19699135
v -0.02095000 0.06929489 -0.19699136
v -0.02095000 0.07189296 -0.19699144
v 0.01680000 0.07059392 -0.19699140
v -0.02040096 0.03234399 -0.19499022
v 0.01680000 0.03159399 -0.19499019
v -0.02095000 0.03289303 -0.19499023
v -0.02170000 0.03309399 -0.19499024
v 0.02330000 0.03159399 -0.19499019
v 0.02330000 0.07059399 -0.19499140
v 0.01905000 0.03289303 -0.19499023
v -0.02020000 0.07059399 -0.19499140
v 0.01830000 0.06909399 -0.19499135
v 0.01755000 0.06929495 -0.19499136
v -0.02299904 0.03234399 -0.19499022
v -0.02170000 0.06909399 -0.19499135
v -0.02320000 0.03159399 -0.19499019
v -0.02245000 0.06929495 -0.19499136
v -0.02670000 0.07059399 -0.19499140
v -0.02320000 0.07059399 -0.19499140
v -0.02629808 0.07209399 -0.19499144
v -0.02299904 0.07134399 -0.19499142
v 0.01959904 0.03234399 -0.19499022
v 0.01980000 0.03159399 -0.19499019
v 0.02289808 0.03009399 -0.19499015
v 0.01959904 0.03084399 -0.19499017
v 0.02180000 0.02899591 -0.19499011
v -0.02370000 0.02859399 -0.19499010
v 0.02030000 0.02859399 -0.19499010
v -0.02095000 0.03029495 -0.19499015
v -0.02245000 0.07189302 -0.19499144
v -0.02370000 0.07359399 -0.19499149
v -0.02520000 0.07319206 -0.19499148
v 0.01700096 0.06984399 -0.19499137
v 0.01680000 0.07059399 -0.19499140
v -0.02040096 0.07134399 -0.19499142
v 0.01700096 0.07134399 -0.19499142
v 0.01755000 0.03289303 -0.19499023
v -0.02040096 0.06984399 -0.19499137
v 0.01700096 0.03234399 -0.19499022
v -0.02095000 0.06929495 -0.19499136
v -0.02245000 0.03289303 -0.19499023
v 0.01905000 0.03029495 -0.19499015
v 0.01830000 0.03009399 -0.19499015
v 0.01755000 0.07189302 -0.19499144
v 0.02030000 0.07359399 -0.19499149
v -0.02095000 0.07189302 -0.19499144
v -0.02170000 0.07209399 -0.19499144
v 0.01830000 0.07209399 -0.19499144
v 0.01905000 0.07189302 -0.19499144
v 0.02180000 0.07319206 -0.19499148
v 0.01959904 0.07134399 -0.19499142
v 0.02289808 0.07209399 -0.19499144
v 0.01980000 0.07059399 -0.19499140
v 0.01959904 0.06984399 -0.19499137
v 0.01905000 0.06929495 -0.19499136
v 0.01830000 0.03309399 -0.19499024
v -0.02040096 0.03084399 -0.19499017
v -0.02020000 0.03159399 -0.19499019
v 0.01755000 0.03029495 -0.19499015
v 0.01700096 0.03084399 -0.19499017
v -0.02170000 0.03009399 -0.19499015
v -0.02245000 0.03029495 -0.19499015
v -0.02520000 0.02899591 -0.19499011
v -0.02299904 0.03084399 -0.19499017
v -0.02629808 0.03009399 -0.19499015
v -0.02670000 0.03159399 -0.19499019
v -0.02299904 0.06984399 -0.19499137
v 0.01680000 0.07059399 -0.19499140
v 0.01680000 0.07059392 -0.19699140
v 0.01700096 0.07134399 -0.19499142
v 0.01700096 0.07134393 -0.19699142
v 0.01755000 0.07189302 -0.19499144
v 0.01755000 0.07189296 -0.19699144
v 0.01830000 0.07209399 -0.19499144
v 0.01830000 0.07209392 -0.19699144
v 0.01905000 0.07189302 -0.19499144
v 0.01905000 0.07189296 -0.19699144
v 0.01959904 0.07134399 -0.19499142
v 0.01959904 0.07134393 -0.19699142
v 0.01980000 0.07059399 -0.19499140
v 0.01980000 0.07059392 -0.19699140
v 0.01959904 0.06984399 -0.19499137
v 0.01959904 0.06984393 -0.19699137
v 0.01905000 0.06929495 -0.19499136
v 0.01905000 0.06929489 -0.19699136
v 0.01830000 0.06909399 -0.19499135
v 0.01830000 0.06909393 -0.19699135
v 0.01755000 0.06929495 -0.19499136
v 0.01755000 0.06929489 -0.19699136
v 0.01700096 0.06984399 -0.19499137
v 0.01700096 0.06984393 -0.19699137
v -0.02370000 0.07359399 -0.19499149
v -0.02370000 0.07359393 -0.19699149
v -0.02520000 0.07319200 -0.19699148
v -0.02520000 0.07319206 -0.19499148
v -0.02629808 0.07209392 -0.19699144
v -0.02629808 0.07209399 -0.19499144
v 0.02030000 0.02859399 -0.19499010
v 0.02030000 0.02859393 -0.19699010
v 0.02180000 0.02899585 -0.19699011
v 0.02180000 0.02899591 -0.19499011
v 0.02289808 0.03009393 -0.19699015
v 0.02289808 0.03009399 -0.19499015
v 0.02330000 0.03159393 -0.19699019
v 0.02330000 0.03159399 -0.19499019
v -0.02670000 0.03159399 -0.19499019
v -0.02670000 0.03159393 -0.19699019
v -0.02629808 0.03009393 -0.19699015
v -0.02629808 0.03009399 -0.19499015
v -0.02520000 0.02899585 -0.19699011
v -0.02520000 0.02899591 -0.19499011
v -0.02370000 0.02859393 -0.19699010
v -0.02370000 0.02859399 -0.19499010
v 0.02330000 0.07059399 -0.19499140
v 0.02330000 0.07059392 -0.19699140
v 0.02289808 0.07209392 -0.19699144
v 0.02289808 0.07209399 -0.19499144
v 0.02180000 0.07319200 -0.19699148
v 0.02180000 0.07319206 -0.19499148
v 0.02030000 0.07359393 -0.19699149
v 0.02030000 0.07359399 -0.19499149
v -0.02370000 0.07359399 -0.19499149
v 0.02030000 0.07359399 -0.19499149
v -0.02370000 0.07359393 -0.19699149
v 0.02030000 0.07359393 -0.19699149
f 1 2 3
f 2 4 3
f 3 4 5
f 4 6 5
f 5 6 7
f 6 8 7
f 7 8 9
f 8 10 9
f 9 10 11
f 10 12 11
f 11 12 13
f 12 14 13
f 13 14 15
f 14 16 15
f 15 16 17
f 16 18 17
f 17 18 19
f 18 20 19
f 19 20 21
f 20 22 21
f 21 22 23
f 22 24 23
f 23 24 1
f 24 2 1
f 25 26 27
f 26 28 27
f 29 30 31
f 30 32 31
f 31 32 33
f 32 34 33
f 33 34 35
f 34 36 35
f 35 36 37
f 36 38 37
f 37 38 39
f 38 40 39
f 39 40 41
f 40 42 41
f 41 42 43
f 42 44 43
f 43 44 45
f 44 46 45
f 45 46 47
f 46 48 47
f 47 48 49
f 48 50 49
f 49 50 51
f 50 52 51
f 51 52 29
f 52 30 29
f 53 54 55
f 54 56 55
f 55 56 57
f 56 58 57
f 57 58 59
f 58 60 59
f 59 60 61
f 60 62 61
f 61 62 63
f 62 64 63
f 63 64 65
f 64 66 65
f 65 66 67
f 66 68 67
f 67 68 69
f 68 70 69
f 69 70 71
f 70 72 71
f 71 72 73
f 72 74 73
f 73 74 75
f 74 76 75
f 75 76 53
f 76 54 53
f 77 78 79
f 80 81 82
f 83 84 85
f 84 86 85
f 86 87 85
f 85 87 88
f 85 89 83
f 89 90 83
f 83 90 91
f 90 80 91
f 91 80 92
f 80 82 92
f 93 79 94
f 95 96 97
f 96 98 97
f 97 98 99
f 98 100 99
f 99 100 101
f 100 102 101
f 101 102 103
f 102 88 103
f 96 104 105
f 104 106 105
f 78 107 79
f 107 108 79
f 79 108 109
f 108 110 109
f 109 110 95
f 110 111 95
f 95 111 96
f 111 112 96
f 96 112 104
f 113 114 106
f 114 115 106
f 106 115 105
f 113 116 114
f 116 117 114
f 114 117 118
f 117 119 118
f 118 120 121
f 93 94 122
f 94 123 122
f 122 123 124
f 123 125 124
f 124 125 87
f 125 126 87
f 87 126 88
f 126 127 88
f 88 127 103
f 77 79 128
f 79 93 128
f 128 93 129
f 118 121 130
f 121 131 130
f 130 131 132
f 131 133 132
f 132 133 81
f 133 134 81
f 81 134 82
f 134 135 82
f 82 135 136
f 135 137 136
f 136 137 129
f 137 138 129
f 129 138 128
f 120 118 139
f 118 119 139
f 139 119 78
f 119 140 78
f 78 140 107
f 141 142 143
f 142 144 143
f 145 146 147
f 148 149 150
f 151 152 153
f 152 154 153
f 155 156 157
f 156 158 157
f 147 159 145
f 159 160 145
f 145 160 161
f 160 162 161
f 161 162 163
f 164 165 166
f 167 168 158
f 168 169 158
f 158 169 157
f 150 170 148
f 170 171 148
f 148 171 172
f 171 173 172
f 174 175 176
f 175 177 176
f 151 178 152
f 178 144 152
f 152 144 177
f 144 142 177
f 177 142 176
f 163 162 165
f 162 179 165
f 165 179 180
f 173 181 172
f 181 182 172
f 172 182 183
f 182 168 183
f 183 168 184
f 168 167 184
f 181 185 182
f 185 186 182
f 182 186 187
f 186 188 187
f 187 188 189
f 188 190 189
f 189 190 146
f 190 191 146
f 146 191 147
f 191 192 147
f 147 192 193
f 192 149 193
f 193 149 174
f 149 148 174
f 174 148 175
f 166 165 194
f 165 180 194
f 194 180 195
f 180 196 195
f 195 196 141
f 196 197 141
f 141 197 142
f 166 198 164
f 198 199 164
f 164 199 200
f 199 201 200
f 200 201 202
f 201 153 202
f 202 153 203
f 153 154 203
f 203 154 155
f 154 204 155
f 155 204 156
f 205 206 207
f 206 208 207
f 207 208 209
f 208 210 209
f 209 210 211
f 210 212 211
f 211 212 213
f 212 214 213
f 213 214 215
f 214 216 215
f 215 216 217
f 216 218 217
f 217 218 219
f 218 220 219
f 219 220 221
f 220 222 221
f 221 222 223
f 222 224 223
f 223 224 225
f 224 226 225
f 225 226 227
f 226 228 227
f 227 228 205
f 228 206 205
f 229 230 231
f 229 231 232
f 231 233 232
f 232 233 234
f 233 25 234
f 234 25 27
f 235 236 237
f 235 237 238
f 237 239 238
f 238 239 240
f 239 241 240
f 240 241 242
f 243 244 245
f 243 245 246
f 245 247 246
f 246 247 248
f 247 249 248
f 248 249 250
f 251 252 253
f 251 253 254
f 253 255 254
f 254 255 256
f 255 257 256
f 256 257 258
f 259 260 261
f 260 262 261
f 241 252 242
f 252 251 242
f 235 250 236
f 250 249 236

