# https://github.com/mikedh/trimesh
v 0.02172500 0.02059493 -0.16445803
v 0.02276817 0.02059496 -0.16341485
v 0.02030000 0.02059500 -0.16198985
v 0.02315000 0.02059500 -0.16198985
v 0.02276817 0.02059505 -0.16056485
v 0.01783183 0.02059496 -0.16341485
v 0.01887500 0.02059493 -0.16445803
v 0.02030000 0.02059492 -0.16483985
v 0.01887500 0.02059508 -0.15952168
v 0.01783183 0.02059505 -0.16056485
v 0.01745000 0.02059500 -0.16198985
v 0.02172500 0.02059508 -0.15952168
v 0.02030000 0.02059509 -0.15913985
v 0.02172500 0.02359508 -0.15952177
v 0.02276817 0.02359505 -0.16056495
v 0.02030000 0.02359500 -0.16198995
v 0.02315000 0.02359500 -0.16198995
v 0.02276817 0.02359496 -0.16341495
v 0.01783183 0.02359505 -0.16056495
v 0.01887500 0.02359508 -0.15952177
v 0.02030000 0.02359509 -0.15913995
v 0.01887500 0.02359493 -0.16445812
v 0.01783183 0.02359496 -0.16341495
v 0.01745000 0.02359500 -0.16198995
v 0.02172500 0.02359493 -0.16445812
v 0.02030000 0.02359492 -0.16483995
v 0.01745000 0.02359500 -0.16198995
v 0.01783183 0.02059505 -0.16056485
v 0.01783183 0.02359505 -0.16056495
v 0.01887500 0.02059508 -0.15952168
v 0.01887500 0.02359508 -0.15952177
v 0.02030000 0.02059509 -0.15913985
v 0.02030000 0.02359509 -0.15913995
v 0.02172500 0.02059508 -0.15952168
v 0.02172500 0.02359508 -0.15952177
v 0.02276817 0.02059505 -0.16056485
v 0.02276817 0.02359505 -0.16056495
v 0.02315000 0.02059500 -0.16198985
v 0.02315000 0.02359500 -0.16198995
v 0.02276817 0.02059496 -0.16341485
v 0.02276817 0.02359496 -0.16341495
v 0.02172500 0.02059493 -0.16445803
v 0.02172500 0.02359493 -0.16445812
v 0.02030000 0.02059492 -0.16483985
v 0.02030000 0.02359492 -0.16483995
v 0.01887500 0.02059493 -0.16445803
v 0.01887500 0.02359493 -0.16445812
v 0.01783183 0.02059496 -0.16341485
v 0.01783183 0.02359496 -0.16341495
v 0.01745000 0.02059500 -0.16198985
v 0.01100000 0.00900033 0.01099972
v 0.01140192 0.00450038 0.01249986
v 0.01140192 0.00900038 0.01249972
v 0.01250000 0.00450041 0.01359794
v 0.01250000 0.00900041 0.01359780
v 0.01400000 0.00450043 0.01399986
v 0.01400000 0.00900042 0.01399972
v 0.01550000 0.00450041 0.01359794
v 0.01550000 0.00900041 0.01359780
v 0.01659808 0.00450038 0.01249986
v 0.01659808 0.00900038 0.01249972
v 0.01700000 0.00450033 0.01099986
v 0.01700000 0.00900033 0.01099972
v 0.01659808 0.00450029 0.00949986
v 0.01659808 0.00900029 0.00949972
v 0.01550000 0.00450025 0.00840179
v 0.01550000 0.00900025 0.00840165
v 0.01400000 0.00450024 0.00799986
v 0.01400000 0.00900024 0.00799972
v 0.01250000 0.00450025 0.00840179
v 0.01250000 0.00900025 0.00840165
v 0.01140192 0.00450029 0.00949986
v 0.01140192 0.00900029 0.00949972
v 0.01100000 0.00450033 0.01099986
v 0.01550000 0.00900033 0.01099972
v 0.01700000 0.00900033 0.01099972
v 0.01529904 0.00900031 0.01024972
v 0.01659808 0.00900029 0.00949972
v 0.01475000 0.00900029 0.00970069
v 0.01550000 0.00900025 0.00840165
v 0.01400000 0.00900029 0.00949972
v 0.01400000 0.00900024 0.00799972
v 0.01325000 0.00900029 0.00970069
v 0.01250000 0.00900025 0.00840165
v 0.01270096 0.00900031 0.01024972
v 0.01140192 0.00900029 0.00949972
v 0.01250000 0.00900033 0.01099972
v 0.01100000 0.00900033 0.01099972
v 0.01270096 0.00900036 0.01174972
v 0.01140192 0.00900038 0.01249972
v 0.01325000 0.00900037 0.01229876
v 0.01250000 0.00900041 0.01359780
v 0.01400000 0.00900038 0.01249972
v 0.01400000 0.00900042 0.01399972
v 0.01475000 0.00900037 0.01229876
v 0.01550000 0.00900041 0.01359780
v 0.01529904 0.00900036 0.01174972
v 0.01659808 0.00900038 0.01249972
v 0.01529904 0.00450036 0.01174986
v 0.01659808 0.00450038 0.01249986
v 0.01475000 0.00450037 0.01229890
v 0.01550000 0.00450041 0.01359794
v 0.01400000 0.00450038 0.01249986
v 0.01400000 0.00450043 0.01399986
v 0.01325000 0.00450037 0.01229890
v 0.01250000 0.00450041 0.01359794
v 0.01270096 0.00450036 0.01174986
v 0.01140192 0.00450038 0.01249986
v 0.01250000 0.00450033 0.01099986
v 0.01100000 0.00450033 0.01099986
v 0.01270096 0.00450031 0.01024986
v 0.01140192 0.00450029 0.00949986
v 0.01325000 0.00450029 0.00970082
v 0.01250000 0.00450025 0.00840179
v 0.01400000 0.00450029 0.00949986
v 0.01400000 0.00450024 0.00799986
v 0.01475000 0.00450029 0.00970082
v 0.01550000 0.00450025 0.00840179
v 0.01529904 0.00450031 0.01024986
v 0.01659808 0.00450029 0.00949986
v 0.01550000 0.00450033 0.01099986
v 0.01700000 0.00450033 0.01099986
v 0.01250000 0.00450033 0.01099986
v 0.01250000 0.00900033 0.01099972
v 0.01270096 0.00450036 0.01174986
v 0.01270096 0.00900036 0.01174972
v 0.01325000 0.00450037 0.01229890
v 0.01325000 0.00900037 0.01229876
v 0.01400000 0.00450038 0.01249986
v 0.01400000 0.00900038 0.01249972
v 0.01475000 0.00450037 0.01229890
v 0.01475000 0.00900037 0.01229876
v 0.01529904 0.00450036 0.01174986
v 0.01529904 0.00900036 0.01174972
v 0.01550000 0.00450033 0.01099986
v 0.01550000 0.00900033 0.01099972
v 0.01529904 0.00450031 0.01024986
v 0.01529904 0.00900031 0.01024972
v 0.01475000 0.00450029 0.00970082
v 0.01475000 0.00900029 0.00970069
v 0.01400000 0.00450029 0.00949986
v 0.01400000 0.00900029 0.00949972
v 0.01325000 0.00450029 0.00970082
v 0.01325000 0.00900029 0.00970069
v 0.01270096 0.00450031 0.01024986
v 0.01270096 0.00900031 0.01024972
v 0.00100000 0.00900033 0.01099972
v 0.00140192 0.00450038 0.01249986
v 0.00140192 0.00900038 0.01249972
v 0.00250000 0.00450041 0.01359794
v 0.00250000 0.00900041 0.01359780
v 0.00400000 0.00450043 0.01399986
v 0.00400000 0.00900042 0.01399972
v 0.00550000 0.00450041 0.01359794
v 0.00550000 0.00900041 0.01359780
v 0.00659808 0.00450038 0.01249986
v 0.00659808 0.00900038 0.01249972
v 0.00700000 0.00450033 0.01099986
v 0.00700000 0.00900033 0.01099972
v 0.00659808 0.00450029 0.00949986
v 0.00659808 0.00900029 0.00949972
v 0.00550000 0.00450025 0.00840179
v 0.00550000 0.00900025 0.00840165
v 0.00400000 0.00450024 0.00799986
v 0.00400000 0.00900024 0.00799972
v 0.00250000 0.00450025 0.00840179
v 0.00250000 0.00900025 0.00840165
v 0.00140192 0.00450029 0.00949986
v 0.00140192 0.00900029 0.00949972
v 0.00100000 0.00450033 0.01099986
v 0.00550000 0.00900033 0.01099972
v 0.00700000 0.00900033 0.01099972
v 0.00529904 0.00900031 0.01024972
v 0.00659808 0.00900029 0.00949972
v 0.00475000 0.00900029 0.00970069
v 0.00550000 0.00900025 0.00840165
v 0.00400000 0.00900029 0.00949972
v 0.00400000 0.00900024 0.00799972
v 0.00325000 0.00900029 0.00970069
v 0.00250000 0.00900025 0.00840165
v 0.00270096 0.00900031 0.01024972
v 0.00140192 0.00900029 0.00949972
v 0.00250000 0.00900033 0.01099972
v 0.00100000 0.00900033 0.01099972
v 0.00270096 0.00900036 0.01174972
v 0.00140192 0.00900038 0.01249972
v 0.00325000 0.00900037 0.01229876
v 0.00250000 0.00900041 0.01359780
v 0.00400000 0.00900038 0.01249972
v 0.00400000 0.00900042 0.01399972
v 0.00475000 0.00900037 0.01229876
v 0.00550000 0.00900041 0.01359780
v 0.00529904 0.00900036 0.01174972
v 0.00659808 0.00900038 0.01249972
v 0.00529904 0.00450036 0.01174986
v 0.00659808 0.00450038 0.01249986
v 0.00475000 0.00450037 0.01229890
v 0.00550000 0.00450041 0.01359794
v 0.00400000 0.00450038 0.01249986
v 0.00400000 0.00450043 0.01399986
v 0.00325000 0.00450037 0.01229890
v 0.00250000 0.00450041 0.01359794
v 0.00270096 0.00450036 0.01174986
v 0.00140192 0.00450038 0.01249986
v 0.00250000 0.00450033 0.01099986
v 0.00100000 0.00450033 0.01099986
v 0.00270096 0.00450031 0.01024986
v 0.00140192 0.00450029 0.00949986
v 0.00325000 0.00450029 0.00970082
v 0.00250000 0.00450025 0.00840179
v 0.00400000 0.00450029 0.00949986
v 0.00400000 0.00450024 0.00799986
v 0.00475000 0.00450029 0.00970082
v 0.00550000 0.00450025 0.00840179
v 0.00529904 0.00450031 0.01024986
v 0.00659808 0.00450029 0.00949986
v 0.00550000 0.00450033 0.01099986
v 0.00700000 0.00450033 0.01099986
v 0.00250000 0.00450033 0.01099986
v 0.00250000 0.00900033 0.01099972
v 0.00270096 0.00450036 0.01174986
v 0.00270096 0.00900036 0.01174972
v 0.00325000 0.00450037 0.01229890
v 0.00325000 0.00900037 0.01229876
v 0.00400000 0.00450038 0.01249986
v 0.00400000 0.00900038 0.01249972
v 0.00475000 0.00450037 0.01229890
v 0.00475000 0.00900037 0.01229876
v 0.00529904 0.00450036 0.01174986
v 0.00529904 0.00900036 0.01174972
v 0.00550000 0.00450033 0.01099986
v 0.00550000 0.00900033 0.01099972
v 0.00529904 0.00450031 0.01024986
v 0.00529904 0.00900031 0.01024972
v 0.00475000 0.00450029 0.00970082
v 0.00475000 0.00900029 0.00970069
v 0.00400000 0.00450029 0.00949986
v 0.00400000 0.00900029 0.00949972
v 0.00325000 0.00450029 0.00970082
v 0.00325000 0.00900029 0.00970069
v 0.00270096 0.00450031 0.01024986
v 0.00270096 0.00900031 0.01024972
v 0.01100000 -0.00899966 0.01100028
v 0.01140192 -0.00449970 0.00950014
v 0.01140192 -0.00899970 0.00950028
v 0.01250000 -0.00449974 0.00840206
v 0.01250000 -0.00899974 0.00840220
v 0.01400000 -0.00449975 0.00800014
v 0.01400000 -0.00899975 0.00800028
v 0.01550000 -0.00449974 0.00840206
v 0.01550000 -0.00899974 0.00840220
v 0.01659808 -0.00449970 0.00950014
v 0.01659808 -0.00899970 0.00950028
v 0.01700000 -0.00449966 0.01100014
v 0.01700000 -0.00899966 0.01100028
v 0.01659808 -0.00449961 0.01250014
v 0.01659808 -0.00899961 0.01250028
v 0.01550000 -0.00449958 0.01359821
v 0.01550000 -0.00899958 0.01359835
v 0.01400000 -0.00449957 0.01400014
v 0.01400000 -0.00899957 0.01400028
v 0.01250000 -0.00449958 0.01359821
v 0.01250000 -0.00899958 0.01359835
v 0.01140192 -0.00449961 0.01250014
v 0.01140192 -0.00899961 0.01250028
v 0.01100000 -0.00449966 0.01100014
v 0.01550000 -0.00899966 0.01100028
v 0.01700000 -0.00899966 0.01100028
v 0.01529904 -0.00899964 0.01175028
v 0.01659808 -0.00899961 0.01250028
v 0.01475000 -0.00899962 0.01229932
v 0.01550000 -0.00899958 0.01359835
v 0.01400000 -0.00899961 0.01250028
v 0.01400000 -0.00899957 0.01400028
v 0.01325000 -0.00899962 0.01229932
v 0.01250000 -0.00899958 0.01359835
v 0.01270096 -0.00899964 0.01175028
v 0.01140192 -0.00899961 0.01250028
v 0.01250000 -0.00899966 0.01100028
v 0.01100000 -0.00899966 0.01100028
v 0.01270096 -0.00899968 0.01025028
v 0.01140192 -0.00899970 0.00950028
v 0.01325000 -0.00899970 0.00970124
v 0.01250000 -0.00899974 0.00840220
v 0.01400000 -0.00899970 0.00950028
v 0.01400000 -0.00899975 0.00800028
v 0.01475000 -0.00899970 0.00970124
v 0.01550000 -0.00899974 0.00840220
v 0.01529904 -0.00899968 0.01025028
v 0.01659808 -0.00899970 0.00950028
v 0.01529904 -0.00449968 0.01025014
v 0.01659808 -0.00449970 0.00950014
v 0.01475000 -0.00449970 0.00970110
v 0.01550000 -0.00449974 0.00840206
v 0.01400000 -0.00449970 0.00950014
v 0.01400000 -0.00449975 0.00800014
v 0.01325000 -0.00449970 0.00970110
v 0.01250000 -0.00449974 0.00840206
v 0.01270096 -0.00449968 0.01025014
v 0.01140192 -0.00449970 0.00950014
v 0.01250000 -0.00449966 0.01100014
v 0.01100000 -0.00449966 0.01100014
v 0.01270096 -0.00449964 0.01175014
v 0.01140192 -0.00449961 0.01250014
v 0.01325000 -0.00449962 0.01229918
v 0.01250000 -0.00449958 0.01359821
v 0.01400000 -0.00449961 0.01250014
v 0.01400000 -0.00449957 0.01400014
v 0.01475000 -0.00449962 0.01229918
v 0.01550000 -0.00449958 0.01359821
v 0.01529904 -0.00449964 0.01175014
v 0.01659808 -0.00449961 0.01250014
v 0.01550000 -0.00449966 0.01100014
v 0.01700000 -0.00449966 0.01100014
v 0.01250000 -0.00449966 0.01100014
v 0.01250000 -0.00899966 0.01100028
v 0.01270096 -0.00449968 0.01025014
v 0.01270096 -0.00899968 0.01025028
v 0.01325000 -0.00449970 0.00970110
v 0.01325000 -0.00899970 0.00970124
v 0.01400000 -0.00449970 0.00950014
v 0.01400000 -0.00899970 0.00950028
v 0.01475000 -0.00449970 0.00970110
v 0.01475000 -0.00899970 0.00970124
v 0.01529904 -0.00449968 0.01025014
v 0.01529904 -0.00899968 0.01025028
v 0.01550000 -0.00449966 0.01100014
v 0.01550000 -0.00899966 0.01100028
v 0.01529904 -0.00449964 0.01175014
v 0.01529904 -0.00899964 0.01175028
v 0.01475000 -0.00449962 0.01229918
v 0.01475000 -0.00899962 0.01229932
v 0.01400000 -0.00449961 0.01250014
v 0.01400000 -0.00899961 0.01250028
v 0.01325000 -0.00449962 0.01229918
v 0.01325000 -0.00899962 0.01229932
v 0.01270096 -0.00449964 0.01175014
v 0.01270096 -0.00899964 0.01175028
v 0.01100000 0.00899988 -0.00400028
v 0.01140192 0.00449992 -0.00250014
v 0.01140192 0.00899992 -0.00250028
v 0.01250000 0.00449996 -0.00140206
v 0.01250000 0.00899996 -0.00140220
v 0.01400000 0.00449997 -0.00100014
v 0.01400000 0.00899997 -0.00100028
v 0.01550000 0.00449996 -0.00140206
v 0.01550000 0.00899996 -0.00140220
v 0.01659808 0.00449992 -0.00250014
v 0.01659808 0.00899992 -0.00250028
v 0.01700000 0.00449988 -0.00400014
v 0.01700000 0.00899988 -0.00400028
v 0.01659808 0.00449983 -0.00550014
v 0.01659808 0.00899983 -0.00550028
v 0.01550000 0.00449980 -0.00659821
v 0.01550000 0.00899980 -0.00659835
v 0.01400000 0.00449979 -0.00700014
v 0.01400000 0.00899979 -0.00700028
v 0.01250000 0.00449980 -0.00659821
v 0.01250000 0.00899980 -0.00659835
v 0.01140192 0.00449983 -0.00550014
v 0.01140192 0.00899983 -0.00550028
v 0.01100000 0.00449988 -0.00400014
v 0.01550000 0.00899988 -0.00400028
v 0.01700000 0.00899988 -0.00400028
v 0.01529904 0.00899985 -0.00475028
v 0.01659808 0.00899983 -0.00550028
v 0.01475000 0.00899984 -0.00529932
v 0.01550000 0.00899980 -0.00659835
v 0.01400000 0.00899983 -0.00550028
v 0.01400000 0.00899979 -0.00700028
v 0.01325000 0.00899984 -0.00529932
v 0.01250000 0.00899980 -0.00659835
v 0.01270096 0.00899985 -0.00475028
v 0.01140192 0.00899983 -0.00550028
v 0.01250000 0.00899988 -0.00400028
v 0.01100000 0.00899988 -0.00400028
v 0.01270096 0.00899990 -0.00325028
v 0.01140192 0.00899992 -0.00250028
v 0.01325000 0.00899992 -0.00270124
v 0.01250000 0.00899996 -0.00140220
v 0.01400000 0.00899992 -0.00250028
v 0.01400000 0.00899997 -0.00100028
v 0.01475000 0.00899992 -0.00270124
v 0.01550000 0.00899996 -0.00140220
v 0.01529904 0.00899990 -0.00325028
v 0.01659808 0.00899992 -0.00250028
v 0.01529904 0.00449990 -0.00325014
v 0.01659808 0.00449992 -0.00250014
v 0.01475000 0.00449992 -0.00270110
v 0.01550000 0.00449996 -0.00140206
v 0.01400000 0.00449992 -0.00250014
v 0.01400000 0.00449997 -0.00100014
v 0.01325000 0.00449992 -0.00270110
v 0.01250000 0.00449996 -0.00140206
v 0.01270096 0.00449990 -0.00325014
v 0.01140192 0.00449992 -0.00250014
v 0.01250000 0.00449988 -0.00400014
v 0.01100000 0.00449988 -0.00400014
v 0.01270096 0.00449985 -0.00475014
v 0.01140192 0.00449983 -0.00550014
v 0.01325000 0.00449984 -0.00529918
v 0.01250000 0.00449980 -0.00659821
v 0.01400000 0.00449983 -0.00550014
v 0.01400000 0.00449979 -0.00700014
v 0.01475000 0.00449984 -0.00529918
v 0.01550000 0.00449980 -0.00659821
v 0.01529904 0.00449985 -0.00475014
v 0.01659808 0.00449983 -0.00550014
v 0.01550000 0.00449988 -0.00400014
v 0.01700000 0.00449988 -0.00400014
v 0.01250000 0.00449988 -0.00400014
v 0.01250000 0.00899988 -0.00400028
v 0.01270096 0.00449990 -0.00325014
v 0.01270096 0.00899990 -0.00325028
v 0.01325000 0.00449992 -0.00270110
v 0.01325000 0.00899992 -0.00270124
v 0.01400000 0.00449992 -0.00250014
v 0.01400000 0.00899992 -0.00250028
v 0.01475000 0.00449992 -0.00270110
v 0.01475000 0.00899992 -0.00270124
v 0.01529904 0.00449990 -0.00325014
v 0.01529904 0.00899990 -0.00325028
v 0.01550000 0.00449988 -0.00400014
v 0.01550000 0.00899988 -0.00400028
v 0.01529904 0.00449985 -0.00475014
v 0.01529904 0.00899985 -0.00475028
v 0.01475000 0.00449984 -0.00529918
v 0.01475000 0.00899984 -0.00529932
v 0.01400000 0.00449983 -0.00550014
v 0.01400000 0.00899983 -0.00550028
v 0.01325000 0.00449984 -0.00529918
v 0.01325000 0.00899984 -0.00529932
v 0.01270096 0.00449985 -0.00475014
v 0.01270096 0.00899985 -0.00475028
v 0.00100000 -0.00899966 0.01100028
v 0.00140192 -0.00449970 0.00950014
v 0.00140192 -0.00899970 0.00950028
v 0.00250000 -0.00449974 0.00840206
v 0.00250000 -0.00899974 0.00840220
v 0.00400000 -0.00449975 0.00800014
v 0.00400000 -0.00899975 0.00800028
v 0.00550000 -0.00449974 0.00840206
v 0.00550000 -0.00899974 0.00840220
v 0.00659808 -0.00449970 0.00950014
v 0.00659808 -0.00899970 0.00950028
v 0.00700000 -0.00449966 0.01100014
v 0.00700000 -0.00899966 0.01100028
v 0.00659808 -0.00449961 0.01250014
v 0.00659808 -0.00899961 0.01250028
v 0.00550000 -0.00449958 0.01359821
v 0.00550000 -0.00899958 0.01359835
v 0.00400000 -0.00449957 0.01400014
v 0.00400000 -0.00899957 0.01400028
v 0.00250000 -0.00449958 0.01359821
v 0.00250000 -0.00899958 0.01359835
v 0.00140192 -0.00449961 0.01250014
v 0.00140192 -0.00899961 0.01250028
v 0.00100000 -0.00449966 0.01100014
v 0.00550000 -0.00899966 0.01100028
v 0.00700000 -0.00899966 0.01100028
v 0.00529904 -0.00899964 0.01175028
v 0.00659808 -0.00899961 0.01250028
v 0.00475000 -0.00899962 0.01229932
v 0.00550000 -0.00899958 0.01359835
v 0.00400000 -0.00899961 0.01250028
v 0.00400000 -0.00899957 0.01400028
v 0.00325000 -0.00899962 0.01229932
v 0.00250000 -0.00899958 0.01359835
v 0.00270096 -0.00899964 0.01175028
v 0.00140192 -0.00899961 0.01250028
v 0.00250000 -0.00899966 0.01100028
v 0.00100000 -0.00899966 0.01100028
v 0.00270096 -0.00899968 0.01025028
v 0.00140192 -0.00899970 0.00950028
v 0.00325000 -0.00899970 0.00970124
v 0.00250000 -0.00899974 0.00840220
v 0.00400000 -0.00899970 0.00950028
v 0.00400000 -0.00899975 0.00800028
v 0.00475000 -0.00899970 0.00970124
v 0.00550000 -0.00899974 0.00840220
v 0.00529904 -0.00899968 0.01025028
v 0.00659808 -0.00899970 0.00950028
v 0.00529904 -0.00449968 0.01025014
v 0.00659808 -0.00449970 0.00950014
v 0.00475000 -0.00449970 0.00970110
v 0.00550000 -0.00449974 0.00840206
v 0.00400000 -0.00449970 0.00950014
v 0.00400000 -0.00449975 0.00800014
v 0.00325000 -0.00449970 0.00970110
v 0.00250000 -0.00449974 0.00840206
v 0.00270096 -0.00449968 0.01025014
v 0.00140192 -0.00449970 0.00950014
v 0.00250000 -0.00449966 0.01100014
v 0.00100000 -0.00449966 0.01100014
v 0.00270096 -0.00449964 0.01175014
v 0.00140192 -0.00449961 0.01250014
v 0.00325000 -0.00449962 0.01229918
v 0.00250000 -0.00449958 0.01359821
v 0.00400000 -0.00449961 0.01250014
v 0.00400000 -0.00449957 0.01400014
v 0.00475000 -0.00449962 0.01229918
v 0.00550000 -0.00449958 0.01359821
v 0.00529904 -0.00449964 0.01175014
v 0.00659808 -0.00449961 0.01250014
v 0.00550000 -0.00449966 0.01100014
v 0.00700000 -0.00449966 0.01100014
v 0.00250000 -0.00449966 0.01100014
v 0.00250000 -0.00899966 0.01100028
v 0.00270096 -0.00449968 0.01025014
v 0.00270096 -0.00899968 0.01025028
v 0.00325000 -0.00449970 0.00970110
v 0.00325000 -0.00899970 0.00970124
v 0.00400000 -0.00449970 0.00950014
v 0.00400000 -0.00899970 0.00950028
v 0.00475000 -0.00449970 0.00970110
v 0.00475000 -0.00899970 0.00970124
v 0.00529904 -0.00449968 0.01025014
v 0.00529904 -0.00899968 0.01025028
v 0.00550000 -0.00449966 0.01100014
v 0.00550000 -0.00899966 0.01100028
v 0.00529904 -0.00449964 0.01175014
v 0.00529904 -0.00899964 0.01175028
v 0.00475000 -0.00449962 0.01229918
v 0.00475000 -0.00899962 0.01229932
v 0.00400000 -0.00449961 0.01250014
v 0.00400000 -0.00899961 0.01250028
v 0.00325000 -0.00449962 0.01229918
v 0.00325000 -0.00899962 0.01229932
v 0.00270096 -0.00449964 0.01175014
v 0.00270096 -0.00899964 0.01175028
v -0.01370000 -0.00050723 -0.03653592
v -0.01370000 0.00050499 -0.03653596
v -0.01470000 -0.00050723 -0.03653592
v -0.01470000 0.00050499 -0.03653596
v -0.01370000 -0.00050725 -0.03706404
v -0.01370000 -0.00050723 -0.03653592
v -0.01470000 -0.00050725 -0.03706404
v -0.01470000 -0.00050723 -0.03653592
v -0.01370000 0.00050497 -0.03706407
v -0.01370000 -0.00050725 -0.03706404
v -0.01470000 0.00050497 -0.03706407
v -0.01470000 -0.00050725 -0.03706404
v -0.01370000 0.00050499 -0.03653596
v -0.01370000 0.00050497 -0.03706407
v -0.01470000 0.00050499 -0.03653596
v -0.01470000 0.00050497 -0.03706407
v -0.01370000 -0.00050725 -0.03706404
v -0.01370000 0.00050497 -0.03706407
v -0.01370000 -0.00050723 -0.03653592
v -0.01370000 0.00050499 -0.03653596
v 0.01100000 -0.00900012 -0.00399972
v 0.01140192 -0.00450017 -0.00549986
v 0.01140192 -0.00900017 -0.00549972
v 0.01250000 -0.00450020 -0.00659794
v 0.01250000 -0.00900020 -0.00659780
v 0.01400000 -0.00450022 -0.00699986
v 0.01400000 -0.00900022 -0.00699972
v 0.01550000 -0.00450020 -0.00659794
v 0.01550000 -0.00900020 -0.00659780
v 0.01659808 -0.00450017 -0.00549986
v 0.01659808 -0.00900017 -0.00549972
v 0.01700000 -0.00450012 -0.00399986
v 0.01700000 -0.00900012 -0.00399972
v 0.01659808 -0.00450008 -0.00249986
v 0.01659808 -0.00900008 -0.00249972
v 0.01550000 -0.00450004 -0.00140179
v 0.01550000 -0.00900004 -0.00140165
v 0.01400000 -0.00450003 -0.00099986
v 0.01400000 -0.00900003 -0.00099972
v 0.01250000 -0.00450004 -0.00140179
v 0.01250000 -0.00900004 -0.00140165
v 0.01140192 -0.00450008 -0.00249986
v 0.01140192 -0.00900008 -0.00249972
v 0.01100000 -0.00450012 -0.00399986
v 0.01550000 -0.00900012 -0.00399972
v 0.01700000 -0.00900012 -0.00399972
v 0.01529904 -0.00900010 -0.00324972
v 0.01659808 -0.00900008 -0.00249972
v 0.01475000 -0.00900008 -0.00270068
v 0.01550000 -0.00900004 -0.00140165
v 0.01400000 -0.00900008 -0.00249972
v 0.01400000 -0.00900003 -0.00099972
v 0.01325000 -0.00900008 -0.00270068
v 0.01250000 -0.00900004 -0.00140165
v 0.01270096 -0.00900010 -0.00324972
v 0.01140192 -0.00900008 -0.00249972
v 0.01250000 -0.00900012 -0.00399972
v 0.01100000 -0.00900012 -0.00399972
v 0.01270096 -0.00900015 -0.00474972
v 0.01140192 -0.00900017 -0.00549972
v 0.01325000 -0.00900016 -0.00529876
v 0.01250000 -0.00900020 -0.00659780
v 0.01400000 -0.00900017 -0.00549972
v 0.01400000 -0.00900022 -0.00699972
v 0.01475000 -0.00900016 -0.00529876
v 0.01550000 -0.00900020 -0.00659780
v 0.01529904 -0.00900015 -0.00474972
v 0.01659808 -0.00900017 -0.00549972
v 0.01529904 -0.00450015 -0.00474986
v 0.01659808 -0.00450017 -0.00549986
v 0.01475000 -0.00450016 -0.00529890
v 0.01550000 -0.00450020 -0.00659794
v 0.01400000 -0.00450017 -0.00549986
v 0.01400000 -0.00450022 -0.00699986
v 0.01325000 -0.00450016 -0.00529890
v 0.01250000 -0.00450020 -0.00659794
v 0.01270096 -0.00450015 -0.00474986
v 0.01140192 -0.00450017 -0.00549986
v 0.01250000 -0.00450012 -0.00399986
v 0.01100000 -0.00450012 -0.00399986
v 0.01270096 -0.00450010 -0.00324986
v 0.01140192 -0.00450008 -0.00249986
v 0.01325000 -0.00450008 -0.00270082
v 0.01250000 -0.00450004 -0.00140179
v 0.01400000 -0.00450008 -0.00249986
v 0.01400000 -0.00450003 -0.00099986
v 0.01475000 -0.00450008 -0.00270082
v 0.01550000 -0.00450004 -0.00140179
v 0.01529904 -0.00450010 -0.00324986
v 0.01659808 -0.00450008 -0.00249986
v 0.01550000 -0.00450012 -0.00399986
v 0.01700000 -0.00450012 -0.00399986
v 0.01250000 -0.00450012 -0.00399986
v 0.01250000 -0.00900012 -0.00399972
v 0.01270096 -0.00450015 -0.00474986
v 0.01270096 -0.00900015 -0.00474972
v 0.01325000 -0.00450016 -0.00529890
v 0.01325000 -0.00900016 -0.00529876
v 0.01400000 -0.00450017 -0.00549986
v 0.01400000 -0.00900017 -0.00549972
v 0.01475000 -0.00450016 -0.00529890
v 0.01475000 -0.00900016 -0.00529876
v 0.01529904 -0.00450015 -0.00474986
v 0.01529904 -0.00900015 -0.00474972
v 0.01550000 -0.00450012 -0.00399986
v 0.01550000 -0.00900012 -0.00399972
v 0.01529904 -0.00450010 -0.00324986
v 0.01529904 -0.00900010 -0.00324972
v 0.01475000 -0.00450008 -0.00270082
v 0.01475000 -0.00900008 -0.00270068
v 0.01400000 -0.00450008 -0.00249986
v 0.01400000 -0.00900008 -0.00249972
v 0.01325000 -0.00450008 -0.00270082
v 0.01325000 -0.00900008 -0.00270068
v 0.01270096 -0.00450010 -0.00324986
v 0.01270096 -0.00900010 -0.00324972
v 0.01030000 0.00050499 -0.03653596
v 0.01030000 -0.00050723 -0.03653592
v 0.01130000 0.00050499 -0.03653596
v 0.01130000 -0.00050723 -0.03653592
v 0.01030000 0.00050497 -0.03706407
v 0.01030000 0.00050499 -0.03653596
v 0.01130000 0.00050497 -0.03706407
v 0.01130000 0.00050499 -0.03653596
v 0.01030000 -0.00050725 -0.03706404
v 0.01030000 0.00050497 -0.03706407
v 0.01130000 -0.00050725 -0.03706404
v 0.01130000 0.00050497 -0.03706407
v 0.01030000 -0.00050723 -0.03653592
v 0.01030000 -0.00050725 -0.03706404
v 0.01130000 -0.00050723 -0.03653592
v 0.01130000 -0.00050725 -0.03706404
v 0.01030000 0.00050497 -0.03706407
v 0.01030000 -0.00050725 -0.03706404
v 0.01030000 0.00050499 -0.03653596
v 0.01030000 -0.00050723 -0.03653592
f 1 2 3
f 2 4 3
f 3 4 5
f 6 7 3
f 7 8 3
f 3 8 1
f 9 10 3
f 10 11 3
f 3 11 6
f 5 12 3
f 12 13 3
f 3 13 9
f 14 15 16
f 15 17 16
f 16 17 18
f 19 20 16
f 20 21 16
f 16 21 14
f 22 23 16
f 23 24 16
f 16 24 19
f 18 25 16
f 25 26 16
f 16 26 22
f 27 28 29
f 28 30 29
f 29 30 31
f 30 32 31
f 31 32 33
f 32 34 33
f 33 34 35
f 34 36 35
f 35 36 37
f 36 38 37
f 37 38 39
f 38 40 39
f 39 40 41
f 40 42 41
f 41 42 43
f 42 44 43
f 43 44 45
f 44 46 45
f 45 46 47
f 46 48 47
f 47 48 49
f 48 50 49
f 49 50 27
f 50 28 27
f 51 52 53
f 52 54 53
f 53 54 55
f 54 56 55
f 55 56 57
f 56 58 57
f 57 58 59
f 58 60 59
f 59 60 61
f 60 62 61
f 61 62 63
f 62 64 63
f 63 64 65
f 64 66 65
f 65 66 67
f 66 68 67
f 67 68 69
f 68 70 69
f 69 70 71
f 70 72 71
f 71 72 73
f 72 74 73
f 73 74 51
f 74 52 51
f 75 76 77
f 76 78 77
f 77 78 79
f 78 80 79
f 79 80 81
f 80 82 81
f 81 82 83
f 82 84 83
f 83 84 85
f 84 86 85
f 85 86 87
f 86 88 87
f 87 88 89
f 88 90 89
f 89 90 91
f 90 92 91
f 91 92 93
f 92 94 93
f 93 94 95
f 94 96 95
f 95 96 97
f 96 98 97
f 97 98 75
f 98 76 75
f 99 100 101
f 100 102 101
f 101 102 103
f 102 104 103
f 103 104 105
f 104 106 105
f 105 106 107
f 106 108 107
f 107 108 109
f 108 110 109
f 109 110 111
f 110 112 111
f 111 112 113
f 112 114 113
f 113 114 115
f 114 116 115
f 115 116 117
f 116 118 117
f 117 118 119
f 118 120 119
f 119 120 121
f 120 122 121
f 121 122 99
f 122 100 99
f 123 124 125
f 124 126 125
f 125 126 127
f 126 128 127
f 127 128 129
f 128 130 129
f 129 130 131
f 130 132 131
f 131 132 133
f 132 134 133
f 133 134 135
f 134 136 135
f 135 136 137
f 136 138 137
f 137 138 139
f 138 140 139
f 139 140 141
f 140 142 141
f 141 142 143
f 142 144 143
f 143 144 145
f 144 146 145
f 145 146 123
f 146 124 123
f 147 148 149
f 148 150 149
f 149 150 151
f 150 152 151
f 151 152 153
f 152 154 153
f 153 154 155
f 154 156 155
f 155 156 157
f 156 158 157
f 157 158 159
f 158 160 159
f 159 160 161
f 160 162 161
f 161 162 163
f 162 164 163
f 163 164 165
f 164 166 165
f 165 166 167
f 166 168 167
f 167 168 169
f 168 170 169
f 169 170 147
f 170 148 147
f 171 172 173
f 172 174 173
f 173 174 175
f 174 176 175
f 175 176 177
f 176 178 177
f 177 178 179
f 178 180 179
f 179 180 181
f 180 182 181
f 181 182 183
f 182 184 183
f 183 184 185
f 184 186 185
f 185 186 187
f 186 188 187
f 187 188 189
f 188 190 189
f 189 190 191
f 190 192 191
f 191 192 193
f 192 194 193
f 193 194 171
f 194 172 171
f 195 196 197
f 196 198 197
f 197 198 199
f 198 200 199
f 199 200 201
f 200 202 201
f 201 202 203
f 202 204 203
f 203 204 205
f 204 206 205
f 205 206 207
f 206 208 207
f 207 208 209
f 208 210 209
f 209 210 211
f 210 212 211
f 211 212 213
f 212 214 213
f 213 214 215
f 214 216 215
f 215 216 217
f 216 218 217
f 217 218 195
f 218 196 195
f 219 220 221
f 220 222 221
f 221 222 223
f 222 224 223
f 223 224 225
f 224 226 225
f 225 226 227
f 226 228 227
f 227 228 229
f 228 230 229
f 229 230 231
f 230 232 231
f 231 232 233
f 232 234 233
f 233 234 235
f 234 236 235
f 235 236 237
f 236 238 237
f 237 238 239
f 238 240 239
f 239 240 241
f 240 242 241
f 241 242 219
f 242 220 219
f 243 244 245
f 244 246 245
f 245 246 247
f 246 248 247
f 247 248 249
f 248 250 249
f 249 250 251
f 250 252 251
f 251 252 253
f 252 254 253
f 253 254 255
f 254 256 255
f 255 256 257
f 256 258 257
f 257 258 259
f 258 260 259
f 259 260 261
f 260 262 261
f 261 262 263
f 262 264 263
f 263 264 265
f 264 266 265
f 265 266 243
f 266 244 243
f 267 268 269
f 268 270 269
f 269 270 271
f 270 272 271
f 271 272 273
f 272 274 273
f 273 274 275
f 274 276 275
f 275 276 277
f 276 278 277
f 277 278 279
f 278 280 279
f 279 280 281
f 280 282 281
f 281 282 283
f 282 284 283
f 283 284 285
f 284 286 285
f 285 286 287
f 286 288 287
f 287 288 289
f 288 290 289
f 289 290 267
f 290 268 267
f 291 292 293
f 292 294 293
f 293 294 295
f 294 296 295
f 295 296 297
f 296 298 297
f 297 298 299
f 298 300 299
f 299 300 301
f 300 302 301
f 301 302 303
f 302 304 303
f 303 304 305
f 304 306 305
f 305 306 307
f 306 308 307
f 307 308 309
f 308 310 309
f 309 310 311
f 310 312 311
f 311 312 313
f 312 314 313
f 313 314 291
f 314 292 291
f 315 316 317
f 316 318 317
f 317 318 319
f 318 320 319
f 319 320 321
f 320 322 321
f 321 322 323
f 322 324 323
f 323 324 325
f 324 326 325
f 325 326 327
f 326 328 327
f 327 328 329
f 328 330 329
f 329 330 331
f 330 332 331
f 331 332 333
f 332 334 333
f 333 334 335
f 334 336 335
f 335 336 337
f 336 338 337
f 337 338 315
f 338 316 315
f 339 340 341
f 340 342 341
f 341 342 343
f 342 344 343
f 343 344 345
f 344 346 345
f 345 346 347
f 346 348 347
f 347 348 349
f 348 350 349
f 349 350 351
f 350 352 351
f 351 352 353
f 352 354 353
f 353 354 355
f 354 356 355
f 355 356 357
f 356 358 357
f 357 358 359
f 358 360 359
f 359 360 361
f 360 362 361
f 361 362 339
f 362 340 339
f 363 364 365
f 364 366 365
f 365 366 367
f 366 368 367
f 367 368 369
f 368 370 369
f 369 370 371
f 370 372 371
f 371 372 373
f 372 374 373
f 373 374 375
f 374 376 375
f 375 376 377
f 376 378 377
f 377 378 379
f 378 380 379
f 379 380 381
f 380 382 381
f 381 382 383
f 382 384 383
f 383 384 385
f 384 386 385
f 385 386 363
f 386 364 363
f 387 388 389
f 388 390 389
f 389 390 391
f 390 392 391
f 391 392 393
f 392 394 393
f 393 394 395
f 394 396 395
f 395 396 397
f 396 398 397
f 397 398 399
f 398 400 399
f 399 400 401
f 400 402 401
f 401 402 403
f 402 404 403
f 403 404 405
f 404 406 405
f 405 406 407
f 406 408 407
f 407 408 409
f 408 410 409
f 409 410 387
f 410 388 387
f 411 412 413
f 412 414 413
f 413 414 415
f 414 416 415
f 415 416 417
f 416 418 417
f 417 418 419
f 418 420 419
f 419 420 421
f 420 422 421
f 421 422 423
f 422 424 423
f 423 424 425
f 424 426 425
f 425 426 427
f 426 428 427
f 427 428 429
f 428 430 429
f 429 430 431
f 430 432 431
f 431 432 433
f 432 434 433
f 433 434 411
f 434 412 411
f 435 436 437
f 436 438 437
f 437 438 439
f 438 440 439
f 439 440 441
f 440 442 441
f 441 442 443
f 442 444 443
f 443 444 445
f 444 446 445
f 445 446 447
f 446 448 447
f 447 448 449
f 448 450 449
f 449 450 451
f 450 452 451
f 451 452 453
f 452 454 453
f 453 454 455
f 454 456 455
f 455 456 457
f 456 458 457
f 457 458 435
f 458 436 435
f 459 460 461
f 460 462 461
f 461 462 463
f 462 464 463
f 463 464 465
f 464 466 465
f 465 466 467
f 466 468 467
f 467 468 469
f 468 470 469
f 469 470 471
f 470 472 471
f 471 472 473
f 472 474 473
f 473 474 475
f 474 476 475
f 475 476 477
f 476 478 477
f 477 478 479
f 478 480 479
f 479 480 481
f 480 482 481
f 481 482 459
f 482 460 459
f 483 484 485
f 484 486 485
f 485 486 487
f 486 488 487
f 487 488 489
f 488 490 489
f 489 490 491
f 490 492 491
f 491 492 493
f 492 494 493
f 493 494 495
f 494 496 495
f 495 496 497
f 496 498 497
f 497 498 499
f 498 500 499
f 499 500 501
f 500 502 501
f 501 502 503
f 502 504 503
f 503 504 505
f 504 506 505
f 505 506 483
f 506 484 483
f 507 508 509
f 508 510 509
f 509 510 511
f 510 512 511
f 511 512 513
f 512 514 513
f 513 514 515
f 514 516 515
f 515 516 517
f 516 518 517
f 517 518 519
f 518 520 519
f 519 520 521
f 520 522 521
f 521 522 523
f 522 524 523
f 523 524 525
f 524 526 525
f 525 526 527
f 526 528 527
f 527 528 529
f 528 530 529
f 529 530 507
f 530 508 507
f 531 532 533
f 532 534 533
f 535 536 537
f 536 538 537
f 539 540 541
f 540 542 541
f 543 544 545
f 544 546 545
f 547 548 549
f 548 550 549
f 551 552 553
f 552 554 553
f 553 554 555
f 554 556 555
f 555 556 557
f 556 558 557
f 557 558 559
f 558 560 559
f 559 560 561
f 560 562 561
f 561 562 563
f 562 564 563
f 563 564 565
f 564 566 565
f 565 566 567
f 566 568 567
f 567 568 569
f 568 570 569
f 569 570 571
f 570 572 571
f 571 572 573
f 572 574 573
f 573 574 551
f 574 552 551
f 575 576 577
f 576 578 577
f 577 578 579
f 578 580 579
f 579 580 581
f 580 582 581
f 581 582 583
f 582 584 583
f 583 584 585
f 584 586 585
f 585 586 587
f 586 588 587
f 587 588 589
f 588 590 589
f 589 590 591
f 590 592 591
f 591 592 593
f 592 594 593
f 593 594 595
f 594 596 595
f 595 596 597
f 596 598 597
f 597 598 575
f 598 576 575
f 599 600 601
f 600 602 601
f 601 602 603
f 602 604 603
f 603 604 605
f 604 606 605
f 605 606 607
f 606 608 607
f 607 608 609
f 608 610 609
f 609 610 611
f 610 612 611
f 611 612 613
f 612 614 613
f 613 614 615
f 614 616 615
f 615 616 617
f 616 618 617
f 617 618 619
f 618 620 619
f 619 620 621
f 620 622 621
f 621 622 599
f 622 600 599
f 623 624 625
f 624 626 625
f 625 626 627
f 626 628 627
f 627 628 629
f 628 630 629
f 629 630 631
f 630 632 631
f 631 632 633
f 632 634 633
f 633 634 635
f 634 636 635
f 635 636 637
f 636 638 637
f 637 638 639
f 638 640 639
f 639 640 641
f 640 642 641
f 641 642 643
f 642 644 643
f 643 644 645
f 644 646 645
f 645 646 623
f 646 624 623
f 647 648 649
f 648 650 649
f 651 652 653
f 652 654 653
f 655 656 657
f 656 658 657
f 659 660 661
f 660 662 661
f 663 664 665
f 664 666 665

