# https://github.com/mikedh/trimesh
v -0.03600000 0.16900000 -0.01350000
v -0.04000000 0.17575000 -0.01169134
v -0.03600000 0.17575000 -0.01169134
v -0.04000000 0.18069134 -0.00675000
v -0.03600000 0.18069134 -0.00675000
v -0.04000000 0.18250000 0.00000000
v -0.03600000 0.18250000 0.00000000
v -0.04000000 0.18069134 0.00675000
v -0.03600000 0.18069134 0.00675000
v -0.04000000 0.17575000 0.01169134
v -0.03600000 0.17575000 0.01169134
v -0.04000000 0.16900000 0.01350000
v -0.03600000 0.16900000 0.01350000
v -0.04000000 0.16225000 0.01169134
v -0.03600000 0.16225000 0.01169134
v -0.04000000 0.15730866 0.00675000
v -0.03600000 0.15730866 0.00675000
v -0.04000000 0.15550000 0.00000000
v -0.03600000 0.15550000 0.00000000
v -0.04000000 0.15730866 -0.00675000
v -0.03600000 0.15730866 -0.00675000
v -0.04000000 0.16225000 -0.01169134
v -0.03600000 0.16225000 -0.01169134
v -0.04000000 0.16900000 -0.01350000
v -0.03600000 0.17400000 -0.00866025
v -0.03600000 0.17575000 -0.01169134
v -0.03600000 0.17766025 -0.00500000
v -0.03600000 0.18069134 -0.00675000
v -0.03600000 0.17900000 0.00000000
v -0.03600000 0.18250000 0.00000000
v -0.03600000 0.17766025 0.00500000
v -0.03600000 0.18069134 0.00675000
v -0.03600000 0.17400000 0.00866025
v -0.03600000 0.17575000 0.01169134
v -0.03600000 0.16900000 0.01000000
v -0.03600000 0.16900000 0.01350000
v -0.03600000 0.16400000 0.00866025
v -0.03600000 0.16225000 0.01169134
v -0.03600000 0.16033975 0.00500000
v -0.03600000 0.15730866 0.00675000
v -0.03600000 0.15900000 0.00000000
v -0.03600000 0.15550000 0.00000000
v -0.03600000 0.16033975 -0.00500000
v -0.03600000 0.15730866 -0.00675000
v -0.03600000 0.16400000 -0.00866025
v -0.03600000 0.16225000 -0.01169134
v -0.03600000 0.16900000 -0.01000000
v -0.03600000 0.16900000 -0.01350000
v -0.04080000 0.16900000 -0.01000000
v -0.03600000 0.16900000 -0.01000000
v -0.04080000 0.17400000 -0.00866025
v -0.03600000 0.17400000 -0.00866025
v -0.04080000 0.17766025 -0.00500000
v -0.03600000 0.17766025 -0.00500000
v -0.04080000 0.17900000 0.00000000
v -0.03600000 0.17900000 0.00000000
v -0.04080000 0.17766025 0.00500000
v -0.03600000 0.17766025 0.00500000
v -0.04080000 0.17400000 0.00866025
v -0.03600000 0.17400000 0.00866025
v -0.04080000 0.16900000 0.01000000
v -0.03600000 0.16900000 0.01000000
v -0.04080000 0.16400000 0.00866025
v -0.03600000 0.16400000 0.00866025
v -0.04080000 0.16033975 0.00500000
v -0.03600000 0.16033975 0.00500000
v -0.04080000 0.15900000 0.00000000
v -0.03600000 0.15900000 0.00000000
v -0.04080000 0.16033975 -0.00500000
v -0.03600000 0.16033975 -0.00500000
v -0.04080000 0.16400000 -0.00866025
v -0.03600000 0.16400000 -0.00866025
v -0.04080000 0.17766025 0.00500000
v -0.04080000 0.18134086 0.00712500
v -0.04080000 0.17900000 0.00000000
v -0.04080000 0.18325000 0.00000000
v -0.04080000 0.17766025 -0.00500000
v -0.04080000 0.18134086 -0.00712500
v -0.04080000 0.17400000 -0.00866025
v -0.04080000 0.17612500 -0.01234086
v -0.04080000 0.16900000 -0.01000000
v -0.04080000 0.16900000 -0.01425000
v -0.04080000 0.16400000 -0.00866025
v -0.04080000 0.16187500 -0.01234086
v -0.04080000 0.16033975 -0.00500000
v -0.04080000 0.15665914 -0.00712500
v -0.04080000 0.15900000 0.00000000
v -0.04080000 0.15475000 0.00000000
v -0.04080000 0.16033975 0.00500000
v -0.04080000 0.15665914 0.00712500
v -0.04080000 0.16400000 0.00866025
v -0.04080000 0.16187500 0.01234086
v -0.04080000 0.16900000 0.01000000
v -0.04080000 0.16900000 0.01425000
v -0.04080000 0.17400000 0.00866025
v -0.04080000 0.17612500 0.01234086
v -0.04000000 0.17575000 -0.01169134
v -0.04000000 0.17612500 -0.01234086
v -0.04000000 0.18069134 -0.00675000
v -0.04000000 0.18134086 -0.00712500
v -0.04000000 0.18250000 0.00000000
v -0.04000000 0.18325000 0.00000000
v -0.04000000 0.18069134 0.00675000
v -0.04000000 0.18134086 0.00712500
v -0.04000000 0.17575000 0.01169134
v -0.04000000 0.17612500 0.01234086
v -0.04000000 0.16900000 0.01350000
v -0.04000000 0.16900000 0.01425000
v -0.04000000 0.16225000 0.01169134
v -0.04000000 0.16187500 0.01234086
v -0.04000000 0.15730866 0.00675000
v -0.04000000 0.15665914 0.00712500
v -0.04000000 0.15550000 0.00000000
v -0.04000000 0.15475000 0.00000000
v -0.04000000 0.15730866 -0.00675000
v -0.04000000 0.15665914 -0.00712500
v -0.04000000 0.16225000 -0.01169134
v -0.04000000 0.16187500 -0.01234086
v -0.04000000 0.16900000 -0.01350000
v -0.04000000 0.16900000 -0.01425000
v -0.04000000 0.16900000 -0.01425000
v -0.04080000 0.17612500 -0.01234086
v -0.04000000 0.17612500 -0.01234086
v -0.04080000 0.18134086 -0.00712500
v -0.04000000 0.18134086 -0.00712500
v -0.04080000 0.18325000 0.00000000
v -0.04000000 0.18325000 0.00000000
v -0.04080000 0.18134086 0.00712500
v -0.04000000 0.18134086 0.00712500
v -0.04080000 0.17612500 0.01234086
v -0.04000000 0.17612500 0.01234086
v -0.04080000 0.16900000 0.01425000
v -0.04000000 0.16900000 0.01425000
v -0.04080000 0.16187500 0.01234086
v -0.04000000 0.16187500 0.01234086
v -0.04080000 0.15665914 0.00712500
v -0.04000000 0.15665914 0.00712500
v -0.04080000 0.15475000 0.00000000
v -0.04000000 0.15475000 0.00000000
v -0.04080000 0.15665914 -0.00712500
v -0.04000000 0.15665914 -0.00712500
v -0.04080000 0.16187500 -0.01234086
v -0.04000000 0.16187500 -0.01234086
v -0.04080000 0.16900000 -0.01425000
f 1 2 3
f 2 4 3
f 3 4 5
f 4 6 5
f 5 6 7
f 6 8 7
f 7 8 9
f 8 10 9
f 9 10 11
f 10 12 11
f 11 12 13
f 12 14 13
f 13 14 15
f 14 16 15
f 15 16 17
f 16 18 17
f 17 18 19
f 18 20 19
f 19 20 21
f 20 22 21
f 21 22 23
f 22 24 23
f 23 24 1
f 24 2 1
f 25 26 27
f 26 28 27
f 27 28 29
f 28 30 29
f 29 30 31
f 30 32 31
f 31 32 33
f 32 34 33
f 33 34 35
f 34 36 35
f 35 36 37
f 36 38 37
f 37 38 39
f 38 40 39
f 39 40 41
f 40 42 41
f 41 42 43
f 42 44 43
f 43 44 45
f 44 46 45
f 45 46 47
f 46 48 47
f 47 48 25
f 48 26 25
f 49 50 51
f 50 52 51
f 51 52 53
f 52 54 53
f 53 54 55
f 54 56 55
f 55 56 57
f 56 58 57
f 57 58 59
f 58 60 59
f 59 60 61
f 60 62 61
f 61 62 63
f 62 64 63
f 63 64 65
f 64 66 65
f 65 66 67
f 66 68 67
f 67 68 69
f 68 70 69
f 69 70 71
f 70 72 71
f 71 72 49
f 72 50 49
f 73 74 75
f 74 76 75
f 75 76 77
f 76 78 77
f 77 78 79
f 78 80 79
f 79 80 81
f 80 82 81
f 81 82 83
f 82 84 83
f 83 84 85
f 84 86 85
f 85 86 87
f 86 88 87
f 87 88 89
f 88 90 89
f 89 90 91
f 90 92 91
f 91 92 93
f 92 94 93
f 93 94 95
f 94 96 95
f 95 96 73
f 96 74 73
f 97 98 99
f 98 100 99
f 99 100 101
f 100 102 101
f 101 102 103
f 102 104 103
f 103 104 105
f 104 106 105
f 105 106 107
f 106 108 107
f 107 108 109
f 108 110 109
f 109 110 111
f 110 112 111
f 111 112 113
f 112 114 113
f 113 114 115
f 114 116 115
f 115 116 117
f 116 118 117
f 117 118 119
f 118 120 119
f 119 120 97
f 120 98 97
f 121 122 123
f 122 124 123
f 123 124 125
f 124 126 125
f 125 126 127
f 126 128 127
f 127 128 129
f 128 130 129
f 129 130 131
f 130 132 131
f 131 132 133
f 132 134 133
f 133 134 135
f 134 136 135
f 135 136 137
f 136 138 137
f 137 138 139
f 138 140 139
f 139 140 141
f 140 142 141
f 141 142 143
f 142 144 143
f 143 144 121
f 144 122 121

